<?xml version="1.0" encoding="utf-8"?>
<!-- Generator: Adobe Illustrator 19.0.0, SVG Export Plug-In . SVG Version: 6.00 Build 0)  -->
<svg version="1.1" id="Ebene_1" xmlns="http://www.w3.org/2000/svg" xmlns:xlink="http://www.w3.org/1999/xlink" x="0px" y="0px"
	 viewBox="-224 407.9 146 26" style="enable-background:new -224 407.9 146 26;" xml:space="preserve">
<style type="text/css">
	.st0{fill:#ED1C24;}
	.st1{fill:#FFFFFF;}
</style>
<g>
	<circle class="st0" cx="-211" cy="420.9" r="13"/>
	<circle class="st0" cx="-181" cy="420.9" r="13"/>
	<circle class="st0" cx="-151" cy="420.9" r="13"/>
	<circle class="st0" cx="-121" cy="420.9" r="13"/>
	<circle class="st0" cx="-91" cy="420.9" r="13"/>
	<g id="XMLID_3587_">
		<g id="XMLID_3591_">
			<g id="XMLID_3602_">
				<path id="XMLID_3612_" class="st1" d="M-97.3,423.3c-1.4,0-1.6-0.2-1.7-0.3c-0.4-0.4-0.4-1.8-0.3-2.6c0.1-0.5,0.3-0.8,0.6-1
					c0.4-0.2,0.6-0.3,0.9-0.3c0.3-0.1,0.4-0.1,0.6-0.2l0.1-0.1c0.9-0.6,1.8-1.2,2.4-1.3c0,0,4.2-0.4,5.1,0.1c0.3,0.1,0.6,0.3,1,0.6
					c0.6,0.4,1.4,0.8,1.9,1c0.1,0,0.3,0.1,0.6,0.1c1.2,0.1,3.6,0.4,3.5,2.9c0,0,0,0,0,0c-0.1,1-1.2,1.1-2.3,1.1
					c-0.2,0-0.4-0.2-0.4-0.4s0.2-0.4,0.4-0.4c0.9,0,1.4-0.1,1.5-0.3c0-1.5-1.3-1.8-2.7-2c-0.3,0-0.5-0.1-0.7-0.1
					c-0.6-0.2-1.4-0.6-2.1-1.1c-0.4-0.2-0.7-0.4-0.9-0.5c-0.5-0.2-3.5-0.1-4.6,0c-0.2,0-0.7,0.2-2,1.1l-0.1,0.1
					c-0.2,0.2-0.5,0.2-0.8,0.3c-0.2,0.1-0.5,0.2-0.8,0.3c-0.3,0.2-0.3,1.7-0.1,2.1c0.2,0.1,0.8,0.1,1.3,0.1c0.2,0,0.4,0.2,0.4,0.4
					c0,0.2-0.2,0.4-0.4,0.4C-97.2,423.3-97.3,423.3-97.3,423.3z"/>
				<path id="XMLID_3609_" class="st1" d="M-86.2,424.5c-0.9,0-1.7-0.7-1.7-1.7s0.7-1.7,1.7-1.7s1.7,0.7,1.7,1.7
					S-85.3,424.5-86.2,424.5z M-86.2,422c-0.4,0-0.8,0.4-0.8,0.8c0,0.4,0.4,0.8,0.8,0.8s0.8-0.4,0.8-0.8
					C-85.4,422.4-85.8,422-86.2,422z"/>
				<path id="XMLID_3606_" class="st1" d="M-95.5,424.5c-0.9,0-1.7-0.7-1.7-1.7s0.7-1.7,1.7-1.7s1.7,0.7,1.7,1.7
					S-94.6,424.5-95.5,424.5z M-95.5,422c-0.4,0-0.8,0.4-0.8,0.8c0,0.4,0.4,0.8,0.8,0.8c0.4,0,0.8-0.4,0.8-0.8
					C-94.7,422.4-95.1,422-95.5,422z"/>
				<path id="XMLID_3605_" class="st1" d="M-87.8,421.6C-87.8,421.6-87.8,421.6-87.8,421.6c-0.8,0-4.9-0.1-6-0.7
					c-1.1-0.7-1.4-1.8-1.4-1.9c0-0.2,0.1-0.5,0.3-0.5c0.2,0,0.5,0.1,0.5,0.3c0,0,0.2,0.8,1,1.3c0.6,0.4,3.7,0.6,5.5,0.6
					c0.2,0,0.4,0.2,0.4,0.4C-87.4,421.4-87.6,421.6-87.8,421.6z"/>
				<path id="XMLID_3604_" class="st1" d="M-87.5,423.2h-6.9c-0.2,0-0.4-0.2-0.4-0.4s0.2-0.4,0.4-0.4h6.9c0.2,0,0.4,0.2,0.4,0.4
					S-87.2,423.2-87.5,423.2z"/>
				<path id="XMLID_3603_" class="st1" d="M-84.6,423.2c-0.1,0-0.2,0-0.2,0c-0.2,0-0.4-0.2-0.4-0.5c0-0.2,0.2-0.4,0.5-0.4
					c0.4,0,0.9-0.1,1.1-0.3c0,0,0.1-0.1,0.1-0.2c0,0,0,0,0,0c0.1-1.4-1.2-1.6-2.7-1.8c-0.3,0-0.5-0.1-0.7-0.1
					c-0.2-0.1-0.4-0.3-0.3-0.5c0.1-0.2,0.3-0.4,0.5-0.3c0.1,0,0.4,0.1,0.6,0.1c1.2,0.1,3.6,0.4,3.5,2.7c0,0.3-0.1,0.6-0.4,0.8
					C-83.4,423-84,423.2-84.6,423.2z"/>
			</g>
			<g id="XMLID_3599_">
				<path id="XMLID_3601_" class="st1" d="M-99.4,427.2c-0.1,0-0.3-0.1-0.3-0.2c-2.6-3.7-2.6-8.6,0-12.2c0.1-0.2,0.4-0.2,0.6-0.1
					c0.2,0.1,0.2,0.4,0.1,0.6c-2.4,3.4-2.4,7.9,0,11.2c0.1,0.2,0.1,0.5-0.1,0.6C-99.2,427.1-99.3,427.2-99.4,427.2z"/>
				<path id="XMLID_3600_" class="st1" d="M-91,431.5c-2.1,0-4.3-0.6-6.1-1.9c-0.2-0.1-0.2-0.4-0.1-0.6c0.1-0.2,0.4-0.2,0.6-0.1
					c3.4,2.4,7.9,2.4,11.2,0c0.2-0.1,0.5-0.1,0.6,0.1c0.1,0.2,0.1,0.5-0.1,0.6C-86.7,430.9-88.9,431.5-91,431.5z"/>
			</g>
			<g id="XMLID_3596_">
				<path id="XMLID_3598_" class="st1" d="M-85.1,412.9c-0.1,0-0.2,0-0.2-0.1c-3.4-2.4-7.9-2.4-11.2,0c-0.2,0.1-0.5,0.1-0.6-0.1
					c-0.1-0.2-0.1-0.5,0.1-0.6c3.7-2.6,8.6-2.6,12.2,0c0.2,0.1,0.2,0.4,0.1,0.6C-84.9,412.9-85,412.9-85.1,412.9z"/>
				<path id="XMLID_3597_" class="st1" d="M-82.6,427.2c-0.1,0-0.2,0-0.2-0.1c-0.2-0.1-0.2-0.4-0.1-0.6c2.4-3.4,2.4-7.9,0-11.2
					c-0.1-0.2-0.1-0.5,0.1-0.6c0.2-0.1,0.5-0.1,0.6,0.1c2.6,3.7,2.6,8.6,0,12.2C-82.4,427.1-82.5,427.2-82.6,427.2z"/>
			</g>
			<circle id="XMLID_3595_" class="st1" cx="-83" cy="427.3" r="0.9"/>
			<circle id="XMLID_3594_" class="st1" cx="-99" cy="414.5" r="0.9"/>
			<circle id="XMLID_3593_" class="st1" cx="-84.6" cy="412.9" r="0.9"/>
			<circle id="XMLID_3592_" class="st1" cx="-97.4" cy="428.9" r="0.9"/>
		</g>
	</g>
	<g id="XMLID_1_">
		<g id="XMLID_2_">
			<g id="XMLID_13_">
				<path id="XMLID_23_" class="st1" d="M-127.3,423.3c-1.4,0-1.6-0.2-1.7-0.3c-0.4-0.4-0.4-1.8-0.3-2.6c0.1-0.5,0.3-0.8,0.6-1
					c0.4-0.2,0.6-0.3,0.9-0.3c0.3-0.1,0.4-0.1,0.6-0.2l0.1-0.1c0.9-0.6,1.8-1.2,2.4-1.3c0,0,4.2-0.4,5.1,0.1c0.3,0.1,0.6,0.3,1,0.6
					c0.6,0.4,1.4,0.8,1.9,1c0.1,0,0.3,0.1,0.6,0.1c1.2,0.1,3.6,0.4,3.5,2.9c0,0,0,0,0,0c-0.1,1-1.2,1.1-2.3,1.1
					c-0.2,0-0.4-0.2-0.4-0.4s0.2-0.4,0.4-0.4c0.9,0,1.4-0.1,1.5-0.3c0-1.5-1.3-1.8-2.7-2c-0.3,0-0.5-0.1-0.7-0.1
					c-0.6-0.2-1.4-0.6-2.1-1.1c-0.4-0.2-0.7-0.4-0.9-0.5c-0.5-0.2-3.5-0.1-4.6,0c-0.2,0-0.7,0.2-2,1.1l-0.1,0.1
					c-0.2,0.2-0.5,0.2-0.8,0.3c-0.2,0.1-0.5,0.2-0.8,0.3c-0.3,0.2-0.3,1.7-0.1,2.1c0.2,0.1,0.8,0.1,1.3,0.1c0.2,0,0.4,0.2,0.4,0.4
					c0,0.2-0.2,0.4-0.4,0.4C-127.2,423.3-127.3,423.3-127.3,423.3z"/>
				<path id="XMLID_20_" class="st1" d="M-116.2,424.5c-0.9,0-1.7-0.7-1.7-1.7s0.7-1.7,1.7-1.7c0.9,0,1.7,0.7,1.7,1.7
					S-115.3,424.5-116.2,424.5z M-116.2,422c-0.4,0-0.8,0.4-0.8,0.8c0,0.4,0.4,0.8,0.8,0.8c0.4,0,0.8-0.4,0.8-0.8
					C-115.4,422.4-115.8,422-116.2,422z"/>
				<path id="XMLID_17_" class="st1" d="M-125.5,424.5c-0.9,0-1.7-0.7-1.7-1.7s0.7-1.7,1.7-1.7c0.9,0,1.7,0.7,1.7,1.7
					S-124.6,424.5-125.5,424.5z M-125.5,422c-0.4,0-0.8,0.4-0.8,0.8c0,0.4,0.4,0.8,0.8,0.8c0.4,0,0.8-0.4,0.8-0.8
					C-124.7,422.4-125.1,422-125.5,422z"/>
				<path id="XMLID_16_" class="st1" d="M-117.8,421.6C-117.8,421.6-117.8,421.6-117.8,421.6c-0.8,0-4.9-0.1-6-0.7
					c-1.1-0.7-1.4-1.8-1.4-1.9c0-0.2,0.1-0.5,0.3-0.5c0.2,0,0.5,0.1,0.5,0.3c0,0,0.2,0.8,1,1.3c0.6,0.4,3.7,0.6,5.5,0.6
					c0.2,0,0.4,0.2,0.4,0.4C-117.4,421.4-117.6,421.6-117.8,421.6z"/>
				<path id="XMLID_15_" class="st1" d="M-117.5,423.2h-6.9c-0.2,0-0.4-0.2-0.4-0.4s0.2-0.4,0.4-0.4h6.9c0.2,0,0.4,0.2,0.4,0.4
					S-117.2,423.2-117.5,423.2z"/>
				<path id="XMLID_14_" class="st1" d="M-114.6,423.2c-0.1,0-0.2,0-0.2,0c-0.2,0-0.4-0.2-0.4-0.5c0-0.2,0.2-0.4,0.5-0.4
					c0.4,0,0.9-0.1,1.1-0.3c0,0,0.1-0.1,0.1-0.2c0,0,0,0,0,0c0.1-1.4-1.2-1.6-2.7-1.8c-0.3,0-0.5-0.1-0.7-0.1
					c-0.2-0.1-0.4-0.3-0.3-0.5c0.1-0.2,0.3-0.4,0.5-0.3c0.1,0,0.4,0.1,0.6,0.1c1.2,0.1,3.6,0.4,3.5,2.7c0,0.3-0.1,0.6-0.4,0.8
					C-113.4,423-114,423.2-114.6,423.2z"/>
			</g>
			<g id="XMLID_10_">
				<path id="XMLID_12_" class="st1" d="M-129.4,427.2c-0.1,0-0.3-0.1-0.3-0.2c-2.6-3.7-2.6-8.6,0-12.2c0.1-0.2,0.4-0.2,0.6-0.1
					c0.2,0.1,0.2,0.4,0.1,0.6c-2.4,3.4-2.4,7.9,0,11.2c0.1,0.2,0.1,0.5-0.1,0.6C-129.2,427.1-129.3,427.2-129.4,427.2z"/>
				<path id="XMLID_11_" class="st1" d="M-121,431.5c-2.1,0-4.3-0.6-6.1-1.9c-0.2-0.1-0.2-0.4-0.1-0.6c0.1-0.2,0.4-0.2,0.6-0.1
					c3.4,2.4,7.9,2.4,11.2,0c0.2-0.1,0.5-0.1,0.6,0.1c0.1,0.2,0.1,0.5-0.1,0.6C-116.7,430.9-118.9,431.5-121,431.5z"/>
			</g>
			<g id="XMLID_7_">
				<path id="XMLID_9_" class="st1" d="M-115.1,412.9c-0.1,0-0.2,0-0.2-0.1c-3.4-2.4-7.9-2.4-11.2,0c-0.2,0.1-0.5,0.1-0.6-0.1
					c-0.1-0.2-0.1-0.5,0.1-0.6c3.7-2.6,8.6-2.6,12.2,0c0.2,0.1,0.2,0.4,0.1,0.6C-114.9,412.9-115,412.9-115.1,412.9z"/>
				<path id="XMLID_8_" class="st1" d="M-112.6,427.2c-0.1,0-0.2,0-0.2-0.1c-0.2-0.1-0.2-0.4-0.1-0.6c2.4-3.4,2.4-7.9,0-11.2
					c-0.1-0.2-0.1-0.5,0.1-0.6c0.2-0.1,0.5-0.1,0.6,0.1c2.6,3.7,2.6,8.6,0,12.2C-112.4,427.1-112.5,427.2-112.6,427.2z"/>
			</g>
			<circle id="XMLID_6_" class="st1" cx="-113" cy="427.3" r="0.9"/>
			<circle id="XMLID_5_" class="st1" cx="-129" cy="414.5" r="0.9"/>
			<circle id="XMLID_4_" class="st1" cx="-114.6" cy="412.9" r="0.9"/>
			<circle id="XMLID_3_" class="st1" cx="-127.4" cy="428.9" r="0.9"/>
		</g>
	</g>
	<g id="XMLID_24_">
		<g id="XMLID_25_">
			<g id="XMLID_36_">
				<path id="XMLID_46_" class="st1" d="M-157.3,423.3c-1.4,0-1.6-0.2-1.7-0.3c-0.4-0.4-0.4-1.8-0.3-2.6c0.1-0.5,0.3-0.8,0.6-1
					c0.4-0.2,0.6-0.3,0.9-0.3c0.3-0.1,0.4-0.1,0.6-0.2l0.1-0.1c0.9-0.6,1.8-1.2,2.4-1.3c0,0,4.2-0.4,5.1,0.1c0.3,0.1,0.6,0.3,1,0.6
					c0.6,0.4,1.4,0.8,1.9,1c0.1,0,0.3,0.1,0.6,0.1c1.2,0.1,3.6,0.4,3.5,2.9c0,0,0,0,0,0c-0.1,1-1.2,1.1-2.3,1.1
					c-0.2,0-0.4-0.2-0.4-0.4s0.2-0.4,0.4-0.4c0.9,0,1.4-0.1,1.5-0.3c0-1.5-1.3-1.8-2.7-2c-0.3,0-0.5-0.1-0.7-0.1
					c-0.6-0.2-1.4-0.6-2.1-1.1c-0.4-0.2-0.7-0.4-0.9-0.5c-0.5-0.2-3.5-0.1-4.6,0c-0.2,0-0.7,0.2-2,1.1l-0.1,0.1
					c-0.2,0.2-0.5,0.2-0.8,0.3c-0.2,0.1-0.5,0.2-0.8,0.3c-0.3,0.2-0.3,1.7-0.1,2.1c0.2,0.1,0.8,0.1,1.3,0.1c0.2,0,0.4,0.2,0.4,0.4
					c0,0.2-0.2,0.4-0.4,0.4C-157.2,423.3-157.3,423.3-157.3,423.3z"/>
				<path id="XMLID_43_" class="st1" d="M-146.2,424.5c-0.9,0-1.7-0.7-1.7-1.7s0.7-1.7,1.7-1.7s1.7,0.7,1.7,1.7
					S-145.3,424.5-146.2,424.5z M-146.2,422c-0.4,0-0.8,0.4-0.8,0.8c0,0.4,0.4,0.8,0.8,0.8s0.8-0.4,0.8-0.8
					C-145.4,422.4-145.8,422-146.2,422z"/>
				<path id="XMLID_40_" class="st1" d="M-155.5,424.5c-0.9,0-1.7-0.7-1.7-1.7s0.7-1.7,1.7-1.7s1.7,0.7,1.7,1.7
					S-154.6,424.5-155.5,424.5z M-155.5,422c-0.4,0-0.8,0.4-0.8,0.8c0,0.4,0.4,0.8,0.8,0.8s0.8-0.4,0.8-0.8
					C-154.7,422.4-155.1,422-155.5,422z"/>
				<path id="XMLID_39_" class="st1" d="M-147.8,421.6C-147.8,421.6-147.8,421.6-147.8,421.6c-0.8,0-4.9-0.1-6-0.7
					c-1.1-0.7-1.4-1.8-1.4-1.9c0-0.2,0.1-0.5,0.3-0.5c0.2,0,0.5,0.1,0.5,0.3c0,0,0.2,0.8,1,1.3c0.6,0.4,3.7,0.6,5.5,0.6
					c0.2,0,0.4,0.2,0.4,0.4C-147.4,421.4-147.6,421.6-147.8,421.6z"/>
				<path id="XMLID_38_" class="st1" d="M-147.5,423.2h-6.9c-0.2,0-0.4-0.2-0.4-0.4s0.2-0.4,0.4-0.4h6.9c0.2,0,0.4,0.2,0.4,0.4
					S-147.2,423.2-147.5,423.2z"/>
				<path id="XMLID_37_" class="st1" d="M-144.6,423.2c-0.1,0-0.2,0-0.2,0c-0.2,0-0.4-0.2-0.4-0.5c0-0.2,0.2-0.4,0.5-0.4
					c0.4,0,0.9-0.1,1.1-0.3c0,0,0.1-0.1,0.1-0.2c0,0,0,0,0,0c0.1-1.4-1.2-1.6-2.7-1.8c-0.3,0-0.5-0.1-0.7-0.1
					c-0.2-0.1-0.4-0.3-0.3-0.5c0.1-0.2,0.3-0.4,0.5-0.3c0.1,0,0.4,0.1,0.6,0.1c1.2,0.1,3.6,0.4,3.5,2.7c0,0.3-0.1,0.6-0.4,0.8
					C-143.4,423-144,423.2-144.6,423.2z"/>
			</g>
			<g id="XMLID_33_">
				<path id="XMLID_35_" class="st1" d="M-159.4,427.2c-0.1,0-0.3-0.1-0.3-0.2c-2.6-3.7-2.6-8.6,0-12.2c0.1-0.2,0.4-0.2,0.6-0.1
					c0.2,0.1,0.2,0.4,0.1,0.6c-2.4,3.4-2.4,7.9,0,11.2c0.1,0.2,0.1,0.5-0.1,0.6C-159.2,427.1-159.3,427.2-159.4,427.2z"/>
				<path id="XMLID_34_" class="st1" d="M-151,431.5c-2.1,0-4.3-0.6-6.1-1.9c-0.2-0.1-0.2-0.4-0.1-0.6c0.1-0.2,0.4-0.2,0.6-0.1
					c3.4,2.4,7.9,2.4,11.2,0c0.2-0.1,0.5-0.1,0.6,0.1c0.1,0.2,0.1,0.5-0.1,0.6C-146.7,430.9-148.9,431.5-151,431.5z"/>
			</g>
			<g id="XMLID_30_">
				<path id="XMLID_32_" class="st1" d="M-145.1,412.9c-0.1,0-0.2,0-0.2-0.1c-3.4-2.4-7.9-2.4-11.2,0c-0.2,0.1-0.5,0.1-0.6-0.1
					c-0.1-0.2-0.1-0.5,0.1-0.6c3.7-2.6,8.6-2.6,12.2,0c0.2,0.1,0.2,0.4,0.1,0.6C-144.9,412.9-145,412.9-145.1,412.9z"/>
				<path id="XMLID_31_" class="st1" d="M-142.6,427.2c-0.1,0-0.2,0-0.2-0.1c-0.2-0.1-0.2-0.4-0.1-0.6c2.4-3.4,2.4-7.9,0-11.2
					c-0.1-0.2-0.1-0.5,0.1-0.6c0.2-0.1,0.5-0.1,0.6,0.1c2.6,3.7,2.6,8.6,0,12.2C-142.4,427.1-142.5,427.2-142.6,427.2z"/>
			</g>
			<circle id="XMLID_29_" class="st1" cx="-143" cy="427.3" r="0.9"/>
			<circle id="XMLID_28_" class="st1" cx="-159" cy="414.5" r="0.9"/>
			<circle id="XMLID_27_" class="st1" cx="-144.6" cy="412.9" r="0.9"/>
			<circle id="XMLID_26_" class="st1" cx="-157.4" cy="428.9" r="0.9"/>
		</g>
	</g>
	<g id="XMLID_47_">
		<g id="XMLID_48_">
			<g id="XMLID_59_">
				<path id="XMLID_69_" class="st1" d="M-187.3,423.3c-1.4,0-1.6-0.2-1.7-0.3c-0.4-0.4-0.4-1.8-0.3-2.6c0.1-0.5,0.3-0.8,0.6-1
					c0.4-0.2,0.6-0.3,0.9-0.3c0.3-0.1,0.4-0.1,0.6-0.2l0.1-0.1c0.9-0.6,1.8-1.2,2.4-1.3c0,0,4.2-0.4,5.1,0.1c0.3,0.1,0.6,0.3,1,0.6
					c0.6,0.4,1.4,0.8,1.9,1c0.1,0,0.3,0.1,0.6,0.1c1.2,0.1,3.6,0.4,3.5,2.9c0,0,0,0,0,0c-0.1,1-1.2,1.1-2.3,1.1
					c-0.2,0-0.4-0.2-0.4-0.4s0.2-0.4,0.4-0.4c0.9,0,1.4-0.1,1.5-0.3c0-1.5-1.3-1.8-2.7-2c-0.3,0-0.5-0.1-0.7-0.1
					c-0.6-0.2-1.4-0.6-2.1-1.1c-0.4-0.2-0.7-0.4-0.9-0.5c-0.5-0.2-3.5-0.1-4.6,0c-0.2,0-0.7,0.2-2,1.1l-0.1,0.1
					c-0.2,0.2-0.5,0.2-0.8,0.3c-0.2,0.1-0.5,0.2-0.8,0.3c-0.3,0.2-0.3,1.7-0.1,2.1c0.2,0.1,0.8,0.1,1.3,0.1c0.2,0,0.4,0.2,0.4,0.4
					c0,0.2-0.2,0.4-0.4,0.4C-187.2,423.3-187.3,423.3-187.3,423.3z"/>
				<path id="XMLID_66_" class="st1" d="M-176.2,424.5c-0.9,0-1.7-0.7-1.7-1.7s0.7-1.7,1.7-1.7s1.7,0.7,1.7,1.7
					S-175.3,424.5-176.2,424.5z M-176.2,422c-0.4,0-0.8,0.4-0.8,0.8c0,0.4,0.4,0.8,0.8,0.8s0.8-0.4,0.8-0.8
					C-175.4,422.4-175.8,422-176.2,422z"/>
				<path id="XMLID_63_" class="st1" d="M-185.5,424.5c-0.9,0-1.7-0.7-1.7-1.7s0.7-1.7,1.7-1.7s1.7,0.7,1.7,1.7
					S-184.6,424.5-185.5,424.5z M-185.5,422c-0.4,0-0.8,0.4-0.8,0.8c0,0.4,0.4,0.8,0.8,0.8c0.4,0,0.8-0.4,0.8-0.8
					C-184.7,422.4-185.1,422-185.5,422z"/>
				<path id="XMLID_62_" class="st1" d="M-177.8,421.6C-177.8,421.6-177.8,421.6-177.8,421.6c-0.8,0-4.9-0.1-6-0.7
					c-1.1-0.7-1.4-1.8-1.4-1.9c0-0.2,0.1-0.5,0.3-0.5c0.2,0,0.5,0.1,0.5,0.3c0,0,0.2,0.8,1,1.3c0.6,0.4,3.7,0.6,5.5,0.6
					c0.2,0,0.4,0.2,0.4,0.4C-177.4,421.4-177.6,421.6-177.8,421.6z"/>
				<path id="XMLID_61_" class="st1" d="M-177.5,423.2h-6.9c-0.2,0-0.4-0.2-0.4-0.4s0.2-0.4,0.4-0.4h6.9c0.2,0,0.4,0.2,0.4,0.4
					S-177.2,423.2-177.5,423.2z"/>
				<path id="XMLID_60_" class="st1" d="M-174.6,423.2c-0.1,0-0.2,0-0.2,0c-0.2,0-0.4-0.2-0.4-0.5c0-0.2,0.2-0.4,0.5-0.4
					c0.4,0,0.9-0.1,1.1-0.3c0,0,0.1-0.1,0.1-0.2c0,0,0,0,0,0c0.1-1.4-1.2-1.6-2.7-1.8c-0.3,0-0.5-0.1-0.7-0.1
					c-0.2-0.1-0.4-0.3-0.3-0.5c0.1-0.2,0.3-0.4,0.5-0.3c0.1,0,0.4,0.1,0.6,0.1c1.2,0.1,3.6,0.4,3.5,2.7c0,0.3-0.1,0.6-0.4,0.8
					C-173.4,423-174,423.2-174.6,423.2z"/>
			</g>
			<g id="XMLID_56_">
				<path id="XMLID_58_" class="st1" d="M-189.4,427.2c-0.1,0-0.3-0.1-0.3-0.2c-2.6-3.7-2.6-8.6,0-12.2c0.1-0.2,0.4-0.2,0.6-0.1
					c0.2,0.1,0.2,0.4,0.1,0.6c-2.4,3.4-2.4,7.9,0,11.2c0.1,0.2,0.1,0.5-0.1,0.6C-189.2,427.1-189.3,427.2-189.4,427.2z"/>
				<path id="XMLID_57_" class="st1" d="M-181,431.5c-2.1,0-4.3-0.6-6.1-1.9c-0.2-0.1-0.2-0.4-0.1-0.6c0.1-0.2,0.4-0.2,0.6-0.1
					c3.4,2.4,7.9,2.4,11.2,0c0.2-0.1,0.5-0.1,0.6,0.1c0.1,0.2,0.1,0.5-0.1,0.6C-176.7,430.9-178.9,431.5-181,431.5z"/>
			</g>
			<g id="XMLID_53_">
				<path id="XMLID_55_" class="st1" d="M-175.1,412.9c-0.1,0-0.2,0-0.2-0.1c-3.4-2.4-7.9-2.4-11.2,0c-0.2,0.1-0.5,0.1-0.6-0.1
					c-0.1-0.2-0.1-0.5,0.1-0.6c3.7-2.6,8.6-2.6,12.2,0c0.2,0.1,0.2,0.4,0.1,0.6C-174.9,412.9-175,412.9-175.1,412.9z"/>
				<path id="XMLID_54_" class="st1" d="M-172.6,427.2c-0.1,0-0.2,0-0.2-0.1c-0.2-0.1-0.2-0.4-0.1-0.6c2.4-3.4,2.4-7.9,0-11.2
					c-0.1-0.2-0.1-0.5,0.1-0.6c0.2-0.1,0.5-0.1,0.6,0.1c2.6,3.7,2.6,8.6,0,12.2C-172.4,427.1-172.5,427.2-172.6,427.2z"/>
			</g>
			<circle id="XMLID_52_" class="st1" cx="-173" cy="427.3" r="0.9"/>
			<circle id="XMLID_51_" class="st1" cx="-189" cy="414.5" r="0.9"/>
			<circle id="XMLID_50_" class="st1" cx="-174.6" cy="412.9" r="0.9"/>
			<circle id="XMLID_49_" class="st1" cx="-187.4" cy="428.9" r="0.9"/>
		</g>
	</g>
	<g id="XMLID_70_">
		<g id="XMLID_71_">
			<g id="XMLID_82_">
				<path id="XMLID_92_" class="st1" d="M-217.3,423.3c-1.4,0-1.6-0.2-1.7-0.3c-0.4-0.4-0.4-1.8-0.3-2.6c0.1-0.5,0.3-0.8,0.6-1
					c0.4-0.2,0.6-0.3,0.9-0.3c0.3-0.1,0.4-0.1,0.6-0.2l0.1-0.1c0.9-0.6,1.8-1.2,2.4-1.3c0,0,4.2-0.4,5.1,0.1c0.3,0.1,0.6,0.3,1,0.6
					c0.6,0.4,1.4,0.8,1.9,1c0.1,0,0.3,0.1,0.6,0.1c1.2,0.1,3.6,0.4,3.5,2.9c0,0,0,0,0,0c-0.1,1-1.2,1.1-2.3,1.1
					c-0.2,0-0.4-0.2-0.4-0.4s0.2-0.4,0.4-0.4c0.9,0,1.4-0.1,1.5-0.3c0-1.5-1.3-1.8-2.7-2c-0.3,0-0.5-0.1-0.7-0.1
					c-0.6-0.2-1.4-0.6-2.1-1.1c-0.4-0.2-0.7-0.4-0.9-0.5c-0.5-0.2-3.5-0.1-4.6,0c-0.2,0-0.7,0.2-2,1.1l-0.1,0.1
					c-0.2,0.2-0.5,0.2-0.8,0.3c-0.2,0.1-0.5,0.2-0.8,0.3c-0.3,0.2-0.3,1.7-0.1,2.1c0.2,0.1,0.8,0.1,1.3,0.1c0.2,0,0.4,0.2,0.4,0.4
					c0,0.2-0.2,0.4-0.4,0.4C-217.2,423.3-217.3,423.3-217.3,423.3z"/>
				<path id="XMLID_89_" class="st1" d="M-206.2,424.5c-0.9,0-1.7-0.7-1.7-1.7s0.7-1.7,1.7-1.7s1.7,0.7,1.7,1.7
					S-205.3,424.5-206.2,424.5z M-206.2,422c-0.4,0-0.8,0.4-0.8,0.8c0,0.4,0.4,0.8,0.8,0.8s0.8-0.4,0.8-0.8
					C-205.4,422.4-205.8,422-206.2,422z"/>
				<path id="XMLID_86_" class="st1" d="M-215.5,424.5c-0.9,0-1.7-0.7-1.7-1.7s0.7-1.7,1.7-1.7s1.7,0.7,1.7,1.7
					S-214.6,424.5-215.5,424.5z M-215.5,422c-0.4,0-0.8,0.4-0.8,0.8c0,0.4,0.4,0.8,0.8,0.8c0.4,0,0.8-0.4,0.8-0.8
					C-214.7,422.4-215.1,422-215.5,422z"/>
				<path id="XMLID_85_" class="st1" d="M-207.8,421.6C-207.8,421.6-207.8,421.6-207.8,421.6c-0.8,0-4.9-0.1-6-0.7
					c-1.1-0.7-1.4-1.8-1.4-1.9c0-0.2,0.1-0.5,0.3-0.5c0.2,0,0.5,0.1,0.5,0.3c0,0,0.2,0.8,1,1.3c0.6,0.4,3.7,0.6,5.5,0.6
					c0.2,0,0.4,0.2,0.4,0.4C-207.4,421.4-207.6,421.6-207.8,421.6z"/>
				<path id="XMLID_84_" class="st1" d="M-207.5,423.2h-6.9c-0.2,0-0.4-0.2-0.4-0.4s0.2-0.4,0.4-0.4h6.9c0.2,0,0.4,0.2,0.4,0.4
					S-207.2,423.2-207.5,423.2z"/>
				<path id="XMLID_83_" class="st1" d="M-204.6,423.2c-0.1,0-0.2,0-0.2,0c-0.2,0-0.4-0.2-0.4-0.5c0-0.2,0.2-0.4,0.5-0.4
					c0.4,0,0.9-0.1,1.1-0.3c0,0,0.1-0.1,0.1-0.2c0,0,0,0,0,0c0.1-1.4-1.2-1.6-2.7-1.8c-0.3,0-0.5-0.1-0.7-0.1
					c-0.2-0.1-0.4-0.3-0.3-0.5c0.1-0.2,0.3-0.4,0.5-0.3c0.1,0,0.4,0.1,0.6,0.1c1.2,0.1,3.6,0.4,3.5,2.7c0,0.3-0.1,0.6-0.4,0.8
					C-203.4,423-204,423.2-204.6,423.2z"/>
			</g>
			<g id="XMLID_79_">
				<path id="XMLID_81_" class="st1" d="M-219.4,427.2c-0.1,0-0.3-0.1-0.3-0.2c-2.6-3.7-2.6-8.6,0-12.2c0.1-0.2,0.4-0.2,0.6-0.1
					c0.2,0.1,0.2,0.4,0.1,0.6c-2.4,3.4-2.4,7.9,0,11.2c0.1,0.2,0.1,0.5-0.1,0.6C-219.2,427.1-219.3,427.2-219.4,427.2z"/>
				<path id="XMLID_80_" class="st1" d="M-211,431.5c-2.1,0-4.3-0.6-6.1-1.9c-0.2-0.1-0.2-0.4-0.1-0.6c0.1-0.2,0.4-0.2,0.6-0.1
					c3.4,2.4,7.9,2.4,11.2,0c0.2-0.1,0.5-0.1,0.6,0.1c0.1,0.2,0.1,0.5-0.1,0.6C-206.7,430.9-208.9,431.5-211,431.5z"/>
			</g>
			<g id="XMLID_76_">
				<path id="XMLID_78_" class="st1" d="M-205.1,412.9c-0.1,0-0.2,0-0.2-0.1c-3.4-2.4-7.9-2.4-11.2,0c-0.2,0.1-0.5,0.1-0.6-0.1
					c-0.1-0.2-0.1-0.5,0.1-0.6c3.7-2.6,8.6-2.6,12.2,0c0.2,0.1,0.2,0.4,0.1,0.6C-204.9,412.9-205,412.9-205.1,412.9z"/>
				<path id="XMLID_77_" class="st1" d="M-202.6,427.2c-0.1,0-0.2,0-0.2-0.1c-0.2-0.1-0.2-0.4-0.1-0.6c2.4-3.4,2.4-7.9,0-11.2
					c-0.1-0.2-0.1-0.5,0.1-0.6c0.2-0.1,0.5-0.1,0.6,0.1c2.6,3.7,2.6,8.6,0,12.2C-202.4,427.1-202.5,427.2-202.6,427.2z"/>
			</g>
			<circle id="XMLID_75_" class="st1" cx="-203" cy="427.3" r="0.9"/>
			<circle id="XMLID_74_" class="st1" cx="-219" cy="414.5" r="0.9"/>
			<circle id="XMLID_73_" class="st1" cx="-204.6" cy="412.9" r="0.9"/>
			<circle id="XMLID_72_" class="st1" cx="-217.4" cy="428.9" r="0.9"/>
		</g>
	</g>
</g>
</svg>
