<?xml version="1.0" encoding="utf-8"?>
<!-- Generator: Adobe Illustrator 19.0.0, SVG Export Plug-In . SVG Version: 6.00 Build 0)  -->
<svg version="1.1" id="Layer_1" xmlns="http://www.w3.org/2000/svg" xmlns:xlink="http://www.w3.org/1999/xlink" x="0px" y="0px"
	 viewBox="0 0 100 100" style="enable-background:new 0 0 100 100;" xml:space="preserve">
<style type="text/css">
	.st0{fill:#EC2127;}
	.st1{fill:#FFFFFF;}
</style>
<g id="XMLID_1085_">
	<circle id="XMLID_1112_" class="st0" cx="50" cy="50" r="50"/>
	<g id="XMLID_1086_">
		<g id="XMLID_1090_">
			<g id="XMLID_1091_">
				<path id="XMLID_1109_" class="st1" d="M39.3,71.5h8.4v-8.4h-8.4V71.5z M41.3,65.1h4.4v4.4h-4.4V65.1z"/>
				<path id="XMLID_1106_" class="st1" d="M47.7,51.9h-8.4v8.4h8.4V51.9z M45.7,58.3h-4.4v-4.4h4.4V58.3z"/>
				<path id="XMLID_1103_" class="st1" d="M47.7,40.7h-8.4v8.4h8.4V40.7z M45.7,47.1h-4.4v-4.4h4.4V47.1z"/>
				<path id="XMLID_1094_" class="st1" d="M47.7,29.5h-8.4v8.4h8.4V29.5z M45.7,35.9h-4.4v-4.4h4.4V35.9z"/>
				<path id="XMLID_1054_" class="st1" d="M51.9,71.5h8.4v-8.4h-8.4V71.5z M53.8,65.1h4.4v4.4h-4.4V65.1z"/>
				<path id="XMLID_1051_" class="st1" d="M60.3,51.9h-8.4v8.4h8.4V51.9z M58.3,58.3h-4.4v-4.4h4.4V58.3z"/>
				<path id="XMLID_1048_" class="st1" d="M60.3,40.7h-8.4v8.4h8.4V40.7z M58.3,47.1h-4.4v-4.4h4.4V47.1z"/>
				<path id="XMLID_1045_" class="st1" d="M60.3,29.5h-8.4v8.4h8.4V29.5z M58.3,35.9h-4.4v-4.4h4.4V35.9z"/>
				<path id="XMLID_1092_" class="st1" d="M72.9,73.8c0-4.1,0-49.3,0-49.3c0-2.2-1.8-4.1-4.1-4.1H31.2c-2.2,0-4.1,1.8-4.1,4.1v51.1
					c0,2.2,1.8,4.1,4.1,4.1h37.7c2.2,0,4.1-1.8,4.1-4.1v-1.6h-7H33.4h-0.1V26.1h6.6h20.3h6.6c0,0,0,43.8,0,47.7
					C66.8,77.6,72.9,77.8,72.9,73.8z"/>
			</g>
		</g>
	</g>
</g>
</svg>
