<?xml version="1.0" encoding="utf-8"?>
<!-- Generator: Adobe Illustrator 19.0.0, SVG Export Plug-In . SVG Version: 6.00 Build 0)  -->
<svg version="1.1" id="Ebene_1" xmlns="http://www.w3.org/2000/svg" xmlns:xlink="http://www.w3.org/1999/xlink" x="0px" y="0px"
	 viewBox="-224 347.9 147 147" style="enable-background:new -224 347.9 147 147;" xml:space="preserve">
<style type="text/css">
	.st0{fill:none;stroke:#EC1C24;stroke-width:2;stroke-miterlimit:10;}
</style>
<path class="st0" d="M-78,411.4L-78,411.4c-17.9,0-26.8-21.6-14.2-34.3l0,0l-14.1-14.1l0,0c-12.6,12.7-34.2,3.8-34.2-14.1l0,0h-20
	l0,0c0,17.9-21.6,26.8-34.3,14.2l0,0l-14,14.1l0,0c12.6,12.6,3.7,34.2-14.2,34.2l0,0v19.9l0,0c17.9,0,26.8,21.6,14.2,34.3l0,0
	l14.1,14.1l0,0c12.6-12.6,34.3-3.7,34.3,14.2l0,0h19.9l0,0c0-17.9,21.6-26.8,34.3-14.2l0,0l14.1-14.1l0,0
	c-12.6-12.6-3.7-34.3,14.2-34.3l0,0v-19.9H-78z"/>
<circle class="st0" cx="-150.5" cy="421.4" r="44.7"/>
</svg>
