<?xml version="1.0" encoding="utf-8"?>
<!-- Generator: Adobe Illustrator 19.0.0, SVG Export Plug-In . SVG Version: 6.00 Build 0)  -->
<svg version="1.1" id="Ebene_1" xmlns="http://www.w3.org/2000/svg" xmlns:xlink="http://www.w3.org/1999/xlink" x="0px" y="0px"
	 viewBox="-222 345.9 150 150" style="enable-background:new -222 345.9 150 150;" xml:space="preserve">
<style type="text/css">
	.st0{fill:#EC1C24;}
	.st1{fill:#FFFFFF;}
</style>
<g id="XMLID_3587_">
	<g id="XMLID_6800_">
		<circle id="XMLID_6801_" class="st0" cx="-147" cy="420.9" r="73.5"/>
	</g>
	<g id="XMLID_3591_">
		<g id="XMLID_3602_">
			<path id="XMLID_3612_" class="st1" d="M-183,434.4c-7.7,0-9-1.4-9.5-2c-2.2-2.4-2.4-10.3-1.5-14.5c0.6-2.9,1.8-4.8,3.6-5.6
				c2-0.9,3.6-1.5,4.9-1.9c1.4-0.5,2.4-0.8,3.1-1.3l0.5-0.4c4.9-3.4,10.3-7,13.7-7.4c0.2,0,23.7-2.1,28.9,0.4
				c1.5,0.7,3.5,1.9,5.7,3.3c3.5,2.1,7.9,4.8,10.6,5.5c0.7,0.2,1.9,0.3,3.3,0.5c6.6,0.8,20.2,2.5,19.9,16.5c0,0.1,0,0.1,0,0.2
				c-0.6,5.7-7.1,6.2-13.1,6.2c-1.4,0-2.5-1.1-2.5-2.5s1.1-2.5,2.5-2.5c5.3,0,8-0.6,8.2-1.7c0.2-8.7-7.3-10.4-15.6-11.4
				c-1.6-0.2-3-0.4-4-0.6c-3.5-0.9-7.9-3.7-11.9-6.1c-2-1.2-4-2.4-5.3-3c-2.7-1.3-19.8-0.6-26.3,0c-1.2,0.1-4.2,1.4-11.4,6.5
				l-0.5,0.4c-1.3,0.9-2.7,1.4-4.3,2c-1.3,0.4-2.7,0.9-4.5,1.8c-1.5,1.1-1.6,9.6-0.5,12.1c1.2,0.3,4.4,0.5,7.3,0.5
				c1.3-0.1,2.5,1,2.5,2.4c0,1.4-1,2.5-2.4,2.5C-181.9,434.4-182.5,434.4-183,434.4z"/>
			<path id="XMLID_3609_" class="st1" d="M-119.9,441.2c-5.2,0-9.4-4.2-9.4-9.4s4.2-9.4,9.4-9.4s9.4,4.2,9.4,9.4
				S-114.7,441.2-119.9,441.2z M-119.9,427.2c-2.5,0-4.5,2-4.5,4.5c0,2.5,2,4.5,4.5,4.5s4.5-2,4.5-4.5
				C-115.4,429.2-117.4,427.2-119.9,427.2z"/>
			<path id="XMLID_3606_" class="st1" d="M-172.6,441.2c-5.2,0-9.4-4.2-9.4-9.4s4.2-9.4,9.4-9.4s9.4,4.2,9.4,9.4
				S-167.4,441.2-172.6,441.2z M-172.6,427.2c-2.5,0-4.5,2-4.5,4.5c0,2.5,2,4.5,4.5,4.5s4.5-2,4.5-4.5
				C-168.1,429.2-170.1,427.2-172.6,427.2z"/>
			<path id="XMLID_3605_" class="st1" d="M-128.9,424.8C-128.9,424.8-129,424.8-128.9,424.8c-4.7,0-28-0.4-33.8-4.1
				c-6.3-3.9-7.7-10.3-7.7-10.6c-0.3-1.3,0.6-2.6,1.9-2.9c1.3-0.3,2.6,0.6,2.9,1.9c0,0.1,1.1,4.7,5.5,7.5c3.5,2.2,21,3.2,31.2,3.3
				c1.4,0,2.4,1.1,2.4,2.5C-126.5,423.7-127.6,424.8-128.9,424.8z"/>
			<path id="XMLID_3604_" class="st1" d="M-126.9,434h-38.8c-1.4,0-2.5-1.1-2.5-2.5s1.1-2.5,2.5-2.5h38.8c1.4,0,2.5,1.1,2.5,2.5
				S-125.6,434-126.9,434z"/>
			<path id="XMLID_3603_" class="st1" d="M-110.5,434.1c-0.5,0-0.9,0-1.4-0.1c-1.3-0.1-2.3-1.3-2.2-2.7c0.1-1.3,1.3-2.3,2.7-2.2
				c2.2,0.2,5-0.5,6.3-1.7c0.3-0.2,0.6-0.6,0.6-0.9c0,0,0-0.1,0-0.1c0.4-7.7-7.1-9.3-15.4-10.3c-1.7-0.2-3.1-0.4-4.2-0.7
				c-1.3-0.4-2.1-1.7-1.7-3c0.4-1.3,1.7-2.1,3-1.7c0.8,0.2,2.1,0.4,3.5,0.5c6.6,0.8,20.2,2.5,19.7,15.4c0,1.7-0.8,3.2-2.2,4.5
				C-103.8,433-107.2,434.1-110.5,434.1z"/>
		</g>
		<g id="XMLID_3599_">
			<path id="XMLID_3601_" class="st1" d="M-194.4,456.5c-0.8,0-1.5-0.4-2-1c-14.5-20.7-14.5-48.5,0-69.2c0.8-1.1,2.3-1.3,3.3-0.6
				c1.1,0.8,1.3,2.3,0.6,3.3c-13.4,19-13.4,44.6,0,63.7c0.8,1.1,0.5,2.6-0.6,3.3C-193.5,456.4-194,456.5-194.4,456.5z"/>
			<path id="XMLID_3600_" class="st1" d="M-147,481.2c-12.1,0-24.2-3.6-34.6-10.9c-1.1-0.8-1.3-2.3-0.6-3.3c0.8-1.1,2.3-1.3,3.3-0.6
				c19,13.4,44.6,13.4,63.7,0c1.1-0.8,2.6-0.5,3.3,0.6c0.8,1.1,0.5,2.6-0.6,3.3C-122.7,477.6-134.9,481.2-147,481.2z"/>
		</g>
		<g id="XMLID_3596_">
			<path id="XMLID_3598_" class="st1" d="M-113.8,375.8c-0.5,0-1-0.1-1.4-0.4c-19-13.4-44.6-13.4-63.7,0c-1.1,0.8-2.6,0.5-3.3-0.6
				c-0.8-1.1-0.5-2.6,0.6-3.3c20.7-14.5,48.5-14.5,69.2,0c1.1,0.8,1.3,2.3,0.6,3.3C-112.3,375.5-113,375.8-113.8,375.8z"/>
			<path id="XMLID_3597_" class="st1" d="M-99.6,456.5c-0.5,0-1-0.1-1.4-0.4c-1.1-0.8-1.3-2.3-0.6-3.3c13.4-19,13.4-44.6,0-63.7
				c-0.8-1.1-0.5-2.6,0.6-3.3c1.1-0.8,2.6-0.5,3.3,0.6c14.5,20.7,14.5,48.5,0,69.2C-98.1,456.2-98.8,456.5-99.6,456.5z"/>
		</g>
		<circle id="XMLID_3595_" class="st1" cx="-101.6" cy="457" r="5.3"/>
		<circle id="XMLID_3594_" class="st1" cx="-192.4" cy="384.8" r="5.3"/>
		<circle id="XMLID_3593_" class="st1" cx="-110.9" cy="375.5" r="5.3"/>
		<circle id="XMLID_3592_" class="st1" cx="-183.1" cy="466.3" r="5.3"/>
	</g>
</g>
</svg>
