<?xml version="1.0" encoding="utf-8"?>
<!-- Generator: Adobe Illustrator 19.0.0, SVG Export Plug-In . SVG Version: 6.00 Build 0)  -->
<svg version="1.1" id="Ebene_1" xmlns="http://www.w3.org/2000/svg" xmlns:xlink="http://www.w3.org/1999/xlink" x="0px" y="0px"
	 viewBox="-265 388.9 64 64" style="enable-background:new -265 388.9 64 64;" xml:space="preserve">
<style type="text/css">
	.st0{fill:#ED1C24;}
</style>
<g>
	<path class="st0" d="M-264.9,398.1v45.8c0,2,1.7,3.6,3.7,3.6h56.6c2,0,3.7-1.6,3.7-3.6L-201,398c0-2-1.7-3.5-3.7-3.5h-56.5
		C-263.3,394.5-264.9,396.1-264.9,398.1z M-212.1,435.8c-0.3,0.3-0.7,0.5-1.1,0.5c-0.4,0-0.8-0.1-1.1-0.4l-13.7-13.2l-3.8,3.5
		c-0.3,0.3-0.7,0.4-1,0.4s-0.7-0.1-1-0.4l-3.7-3.4l-13.8,13c-0.3,0.3-0.7,0.4-1,0.4c-0.4,0-0.8-0.2-1.1-0.5
		c-0.6-0.6-0.5-1.6,0.1-2.2l13.6-12.8l-13.9-12.2c-0.6-0.6-0.7-1.5-0.1-2.2c0.6-0.6,1.5-0.7,2.2-0.1l14.7,13.3
		c0.1,0.1,0.2,0.1,0.3,0.2l0,0l3.6,3.3l18.6-16.8c0.6-0.6,1.6-0.5,2.2,0.1s0.5,1.6-0.1,2.2l-13.5,12.1l13.5,12.9
		C-211.6,434.2-211.6,435.1-212.1,435.8z"/>
</g>
</svg>
