<?xml version="1.0" encoding="utf-8"?>
<!-- Generator: Adobe Illustrator 19.0.0, SVG Export Plug-In . SVG Version: 6.00 Build 0)  -->
<svg version="1.1" id="Ebene_1" xmlns="http://www.w3.org/2000/svg" xmlns:xlink="http://www.w3.org/1999/xlink" x="0px" y="0px"
	 viewBox="-265 388.9 64 64" style="enable-background:new -265 388.9 64 64;" xml:space="preserve">
<style type="text/css">
	.st0{fill:#ED1C24;}
</style>
<path class="st0" d="M-206.1,422.6h-10.8v-28.9h-43.3v48.1c0,4,3.2,7.2,7.2,7.2h39.7c4,0,7.2-3.2,7.2-7.2V422.6z M-253,400.9h14.4
	v18H-253V400.9z M-240.4,441.8h-10.8c-1,0-1.8-0.8-1.8-1.8s0.8-1.8,1.8-1.8h10.8c1,0,1.8,0.8,1.8,1.8S-239.4,441.8-240.4,441.8z
	 M-240.4,434.6h-10.8c-1,0-1.8-0.8-1.8-1.8s0.8-1.8,1.8-1.8h10.8c1,0,1.8,0.8,1.8,1.8S-239.4,434.6-240.4,434.6z M-226,441.8h-7.2
	c-1,0-1.8-0.8-1.8-1.8s0.8-1.8,1.8-1.8h7.2c1,0,1.8,0.8,1.8,1.8S-225,441.8-226,441.8z M-226,434.6h-7.2c-1,0-1.8-0.8-1.8-1.8
	s0.8-1.8,1.8-1.8h7.2c1,0,1.8,0.8,1.8,1.8S-225,434.6-226,434.6z M-226,427.4h-25.2c-1,0-1.8-0.8-1.8-1.8s0.8-1.8,1.8-1.8h25.2
	c1,0,1.8,0.8,1.8,1.8C-224.1,426.6-225,427.4-226,427.4z M-226,418.9h-7.2c-1,0-1.8-0.8-1.8-1.8s0.8-1.8,1.8-1.8h7.2
	c1,0,1.8,0.8,1.8,1.8C-224.1,418.1-225,418.9-226,418.9z M-226,411.7h-7.2c-1,0-1.8-0.8-1.8-1.8s0.8-1.8,1.8-1.8h7.2
	c1,0,1.8,0.8,1.8,1.8S-225,411.7-226,411.7z M-226,404.5h-7.2c-1,0-1.8-0.8-1.8-1.8s0.8-1.8,1.8-1.8h7.2c1,0,1.8,0.8,1.8,1.8
	C-224.1,403.7-225,404.5-226,404.5z M-209.7,441.8L-209.7,441.8c0,2-1.6,3.6-3.6,3.6s-3.6-1.6-3.6-3.6c0-1.2,0-14.9,0-15.6h7.2
	C-209.7,426.2-209.7,441.8-209.7,441.8z"/>
</svg>
