<?xml version="1.0" encoding="utf-8"?>
<!-- Generator: Adobe Illustrator 19.0.0, SVG Export Plug-In . SVG Version: 6.00 Build 0)  -->
<svg version="1.1" id="Ebene_1" xmlns="http://www.w3.org/2000/svg" xmlns:xlink="http://www.w3.org/1999/xlink" x="0px" y="0px"
	 viewBox="-222 345.9 150 150" style="enable-background:new -222 345.9 150 150;" xml:space="preserve">
<style type="text/css">
	.st0{fill:#ED1C24;}
	.st1{fill:#FFFFFF;}
</style>
<path class="st0" d="M-146.7,362.2c-32.4,0-58.7,26.3-58.7,58.7s26.3,58.7,58.7,58.7S-88,453.3-88,420.9S-114.4,362.2-146.7,362.2z"
	/>
<path class="st0" d="M-146.7,345.9c-41.4,0-75,33.6-75,75s33.6,75,75,75s75-33.6,75-75S-105.3,345.9-146.7,345.9z M-146.7,487.5
	c-36.7,0-66.6-29.9-66.6-66.6s29.8-66.6,66.6-66.6c36.7,0,66.6,29.9,66.6,66.6S-110,487.5-146.7,487.5z"/>
<polygon class="st1" points="-129.4,393.6 -147.8,401.1 -159.4,392 -166.8,410.3 -125.5,410.3 "/>
<polygon class="st1" points="-146.2,413.6 -168.5,413.6 -181.2,421.2 -146.2,421.2 -111.2,421.2 -123.8,413.6 "/>
<path class="st1" d="M-132.7,425.5c-3.8,0-7.1,2.3-8.5,5.5h-9.9c-1.5-3.3-4.7-5.5-8.5-5.5c-5.2,0-9.4,4.2-9.4,9.4
	c0,5.2,4.2,9.4,9.4,9.4c4.8,0,8.8-3.6,9.3-8.3h8.3c0.6,4.7,4.5,8.3,9.3,8.3c5.2,0,9.4-4.2,9.4-9.4
	C-123.3,429.7-127.5,425.5-132.7,425.5z"/>
</svg>
