<?xml version="1.0" encoding="utf-8"?>
<!-- Generator: Adobe Illustrator 19.0.0, SVG Export Plug-In . SVG Version: 6.00 Build 0)  -->
<svg version="1.1" id="Layer_1" xmlns="http://www.w3.org/2000/svg" xmlns:xlink="http://www.w3.org/1999/xlink" x="0px" y="0px"
	 viewBox="0 0 100 100" style="enable-background:new 0 0 100 100;" xml:space="preserve">
<style type="text/css">
	.st0{fill:#EB2026;}
	.st1{fill:#FFFFFF;}
</style>
<g id="XMLID_929_">
	<circle id="XMLID_661_" class="st0" cx="50" cy="50" r="50"/>
	<g id="XMLID_930_">
		<g id="XMLID_934_">
			<g id="XMLID_935_">
				<path id="XMLID_945_" class="st1" d="M37.3,71.5h8.4v-8.4h-8.4V71.5z M39.3,65.1h4.4v4.4h-4.4V65.1z"/>
				<path id="XMLID_942_" class="st1" d="M45.7,51.9h-8.4v8.4h8.4V51.9z M43.7,58.3h-4.4v-4.4h4.4V58.3z"/>
				<path id="XMLID_939_" class="st1" d="M45.7,40.7h-8.4v8.4h8.4V40.7z M43.7,47.1h-4.4v-4.4h4.4V47.1z"/>
				<path id="XMLID_937_" class="st1" d="M45.7,29.5h-8.4v8.4h8.4V29.5z M43.7,35.9h-4.4v-4.4h4.4V35.9z"/>
				<path id="XMLID_936_" class="st1" d="M70.9,38.4c0-4.1,0-14,0-14c0-2.2-1.8-4.1-4.1-4.1H29.1c-2.2,0-4.1,1.8-4.1,4.1v51.1
					c0,2.2,1.8,4.1,4.1,4.1h37.7c2.2,0,4.1-1.8,4.1-4.1v-1.6h-7H31.3h-0.1V26.1h6.6h20.3h6.6c0,0,0,8.5,0,12.3
					C64.7,42.3,70.9,42.5,70.9,38.4z"/>
			</g>
		</g>
		<path id="XMLID_931_" class="st1" d="M71.6,65.4c4.5-4.5,4.5-11.7,0-16.2c-4.5-4.5-11.7-4.5-16.2,0c-4.5,4.5-4.5,11.7,0,16.2
			C59.8,69.8,67.1,69.8,71.6,65.4z M57,55.3C57,55.2,57,55.2,57,55.3c0.8-0.8,2-0.8,2.7-0.1l2.8,2.8l5.7-5.7c0.7-0.7,1.9-0.7,2.6,0
			c0.7,0.7,0.7,1.9,0,2.6L68,57.8l-5.5,5.5l-2.6-2.6L57,57.8C56.3,57.1,56.3,56,57,55.3z"/>
	</g>
</g>
</svg>
