<?xml version="1.0" encoding="utf-8"?>
<!-- Generator: Adobe Illustrator 19.0.0, SVG Export Plug-In . SVG Version: 6.00 Build 0)  -->
<svg version="1.1" id="Layer_1" xmlns="http://www.w3.org/2000/svg" xmlns:xlink="http://www.w3.org/1999/xlink" x="0px" y="0px"
	 viewBox="-1032 2450.8 202.6 202.6" style="enable-background:new -1032 2450.8 202.6 202.6;" xml:space="preserve">
<style type="text/css">
	.st0{fill:#EC2227;}
	.st1{fill:#FFFFFF;}
</style>
<g id="XMLID_1507_">
	<circle id="XMLID_1508_" class="st0" cx="-930.7" cy="2552.1" r="101.3"/>
</g>
<g id="XMLID_372_">
	<g id="XMLID_384_">
		<g id="XMLID_391_">
			<path id="XMLID_392_" class="st1" d="M-931.7,2617.1c-33.6,0-61-27-61-60.2c0-33.2,27.3-60.2,61-60.2v4c-31.4,0-57,25.2-57,56.2
				c0,31,25.5,56.2,57,56.2c31.4,0,56.9-25.2,56.9-56.2h4C-870.7,2590.1-898.1,2617.1-931.7,2617.1z"/>
		</g>
		<g id="XMLID_389_">
			<path id="XMLID_390_" class="st1" d="M-931.7,2617.1c-19.9,0-36.1-27-36.1-60.2c0-33.2,16.2-60.2,36.1-60.2v4
				c-17.7,0-32.1,25.2-32.1,56.2c0,31,14.4,56.2,32.1,56.2c13.3,0,25.4-14.7,30.1-36.6l3.9,0.8
				C-902.8,2601.1-916.5,2617.1-931.7,2617.1z"/>
		</g>
		<g id="XMLID_387_">
			<path id="XMLID_388_" class="st1" d="M-931.7,2617.1h-2v-70.8h4v66.8c30.5-1,54.9-25.8,54.9-56.2c0-3.1-0.3-6.2-0.8-9.2l3.9-0.7
				c0.5,3.2,0.8,6.5,0.8,9.9C-870.7,2590.1-898.1,2617.1-931.7,2617.1z"/>
		</g>
		<g id="XMLID_385_">
			<path id="XMLID_386_" class="st1" d="M-875.2,2579.4h-113l-0.5-1.3c-2.6-6.9-4-14-4-21.2c0-7.2,1.3-14.3,4-21.2l0.5-1.3h59v4
				h-56.2c-2.1,6-3.2,12.3-3.2,18.5c0,6.2,1.1,12.5,3.2,18.5H-878c2.1-6,3.2-12.3,3.2-18.5h4c0,7.2-1.3,14.3-4,21.2L-875.2,2579.4z"
				/>
		</g>
	</g>
	<g id="XMLID_373_">
		<g id="XMLID_378_">
			<path id="XMLID_379_" class="st1" d="M-899.6,2560.2l-1.3-1.1c-1.2-1-29.6-25.1-29.6-41.5c0-16.8,13.8-30.5,30.8-30.5
				c17,0,30.8,13.7,30.8,30.5c0,16.5-28.3,40.5-29.6,41.5L-899.6,2560.2z M-899.6,2491.1c-14.8,0-26.8,11.9-26.8,26.5
				c0,12.8,21.3,32.5,26.8,37.4c5.5-4.9,26.8-24.6,26.8-37.4C-872.8,2502.9-884.8,2491.1-899.6,2491.1z M-899.6,2533.7
				c-9,0-16.3-7.2-16.3-16.1c0-8.9,7.3-16.1,16.3-16.1c9,0,16.3,7.2,16.3,16.1C-883.3,2526.4-890.6,2533.7-899.6,2533.7z
				 M-899.6,2505.4c-6.8,0-12.3,5.4-12.3,12.1c0,6.7,5.5,12.1,12.3,12.1c6.8,0,12.3-5.4,12.3-12.1
				C-887.3,2510.8-892.8,2505.4-899.6,2505.4z"/>
		</g>
		<g id="XMLID_374_">
			<path id="XMLID_375_" class="st1" d="M-899.6,2533.7c-9,0-16.3-7.2-16.3-16.1c0-8.9,7.3-16.1,16.3-16.1c9,0,16.3,7.2,16.3,16.1
				C-883.3,2526.4-890.6,2533.7-899.6,2533.7z M-899.6,2505.4c-6.8,0-12.3,5.4-12.3,12.1c0,6.7,5.5,12.1,12.3,12.1
				c6.8,0,12.3-5.4,12.3-12.1C-887.3,2510.8-892.8,2505.4-899.6,2505.4z"/>
		</g>
	</g>
</g>
</svg>
