<?xml version="1.0" encoding="utf-8"?>
<!-- Generator: Adobe Illustrator 19.0.0, SVG Export Plug-In . SVG Version: 6.00 Build 0)  -->
<svg version="1.1" id="Layer_1" xmlns="http://www.w3.org/2000/svg" xmlns:xlink="http://www.w3.org/1999/xlink" x="0px" y="0px"
	 viewBox="-319 196.7 202.6 202.6" style="enable-background:new -319 196.7 202.6 202.6;" xml:space="preserve">
<style type="text/css">
	.st0{fill:#00B700;}
	.st1{fill:#FFFFFF;}
</style>
<g>
	<g id="XMLID_1507_">
		<circle id="XMLID_1508_" class="st0" cx="-217.7" cy="298" r="101.3"/>
	</g>
	<g id="XMLID_372_">
		<g id="XMLID_384_">
			<g id="XMLID_391_">
				<path id="XMLID_392_" class="st1" d="M-218.7,363c-33.6,0-61-27-61-60.2s27.3-60.2,61-60.2v4c-31.4,0-57,25.2-57,56.2
					s25.5,56.2,57,56.2c31.4,0,56.9-25.2,56.9-56.2h4C-157.7,336-185.1,363-218.7,363z"/>
			</g>
			<g id="XMLID_389_">
				<path id="XMLID_390_" class="st1" d="M-218.7,363c-19.9,0-36.1-27-36.1-60.2s16.2-60.2,36.1-60.2v4c-17.7,0-32.1,25.2-32.1,56.2
					s14.4,56.2,32.1,56.2c13.3,0,25.4-14.7,30.1-36.6l3.9,0.8C-189.8,347-203.5,363-218.7,363z"/>
			</g>
			<g id="XMLID_387_">
				<path id="XMLID_388_" class="st1" d="M-218.7,363h-2v-70.8h4V359c30.5-1,54.9-25.8,54.9-56.2c0-3.1-0.3-6.2-0.8-9.2l3.9-0.7
					c0.5,3.2,0.8,6.5,0.8,9.9C-157.7,336-185.1,363-218.7,363z"/>
			</g>
			<g id="XMLID_385_">
				<path id="XMLID_386_" class="st1" d="M-162.2,325.3h-113l-0.5-1.3c-2.6-6.9-4-14-4-21.2s1.3-14.3,4-21.2l0.5-1.3h59v4h-56.2
					c-2.1,6-3.2,12.3-3.2,18.5s1.1,12.5,3.2,18.5H-165c2.1-6,3.2-12.3,3.2-18.5h4c0,7.2-1.3,14.3-4,21.2L-162.2,325.3z"/>
			</g>
		</g>
		<g id="XMLID_373_">
			<g id="XMLID_378_">
				<path id="XMLID_379_" class="st1" d="M-186.6,306.1l-1.3-1.1c-1.2-1-29.6-25.1-29.6-41.5c0-16.8,13.8-30.5,30.8-30.5
					s30.8,13.7,30.8,30.5c0,16.5-28.3,40.5-29.6,41.5L-186.6,306.1z M-186.6,237c-14.8,0-26.8,11.9-26.8,26.5
					c0,12.8,21.3,32.5,26.8,37.4c5.5-4.9,26.8-24.6,26.8-37.4C-159.8,248.8-171.8,237-186.6,237z M-186.6,279.6
					c-9,0-16.3-7.2-16.3-16.1c0-8.9,7.3-16.1,16.3-16.1s16.3,7.2,16.3,16.1C-170.3,272.3-177.6,279.6-186.6,279.6z M-186.6,251.3
					c-6.8,0-12.3,5.4-12.3,12.1c0,6.7,5.5,12.1,12.3,12.1s12.3-5.4,12.3-12.1C-174.3,256.7-179.8,251.3-186.6,251.3z"/>
			</g>
			<g id="XMLID_374_">
				<path id="XMLID_375_" class="st1" d="M-186.6,279.6c-9,0-16.3-7.2-16.3-16.1c0-8.9,7.3-16.1,16.3-16.1s16.3,7.2,16.3,16.1
					C-170.3,272.3-177.6,279.6-186.6,279.6z M-186.6,251.3c-6.8,0-12.3,5.4-12.3,12.1c0,6.7,5.5,12.1,12.3,12.1s12.3-5.4,12.3-12.1
					C-174.3,256.7-179.8,251.3-186.6,251.3z"/>
			</g>
		</g>
	</g>
</g>
</svg>
