<?xml version="1.0" encoding="utf-8"?>
<!-- Generator: Adobe Illustrator 21.1.0, SVG Export Plug-In . SVG Version: 6.00 Build 0)  -->
<svg version="1.1" id="Ebene_1" xmlns="http://www.w3.org/2000/svg" xmlns:xlink="http://www.w3.org/1999/xlink" x="0px" y="0px"
	 viewBox="0 0 1600 748.7" style="enable-background:new 0 0 1600 748.7;" xml:space="preserve">
<style type="text/css">
	.st0{fill:#1F1F2E;}
	.st1{filter:url(#Adobe_OpacityMaskFilter);}
	.st2{fill:#FFFFFF;}
	.st3{opacity:0.7;mask:url(#SVGID_1_);}
	.st4{fill:none;stroke:#3A3D4C;stroke-miterlimit:10;stroke-dasharray:2.0014,4.0028,2.0014,4.0028,2.0014,4.0028;}
	.st5{fill:none;stroke:#3A3D4C;stroke-miterlimit:10;stroke-dasharray:1.9963,3.9927,1.9963,3.9927,1.9963,3.9927;}
	.st6{fill:none;stroke:#3A3D4C;stroke-miterlimit:10;stroke-dasharray:2.0006,4.0012,2.0006,4.0012,2.0006,4.0012;}
	.st7{fill:none;stroke:#3A3D4C;stroke-miterlimit:10;stroke-dasharray:2.0031,4.0063,2.0031,4.0063,2.0031,4.0063;}
	.st8{fill:none;stroke:#3A3D4C;stroke-miterlimit:10;stroke-dasharray:1.9986,3.9972,1.9986,3.9972,1.9986,3.9972;}
	.st9{fill:none;stroke:#3A3D4C;stroke-miterlimit:10;stroke-dasharray:1.9954,3.9908,1.9954,3.9908,1.9954,3.9908;}
	.st10{fill:none;stroke:#3A3D4C;stroke-miterlimit:10;stroke-dasharray:1.9983,3.9966,1.9983,3.9966,1.9983,3.9966;}
	.st11{filter:url(#Adobe_OpacityMaskFilter_1_);}
	.st12{opacity:0.5;mask:url(#SVGID_2_);}
	
		.st13{fill:none;stroke:#3FAD55;stroke-width:20;stroke-miterlimit:10;stroke-dasharray:1.0013,24.0306,1.0013,24.0306,1.0013,24.0306;}
</style>
<rect x="-10" y="-4.3" class="st0" width="1620" height="757.6"/>
<defs>
	<filter id="Adobe_OpacityMaskFilter" filterUnits="userSpaceOnUse" x="-49.5" y="63.3" width="1698" height="1698">
		<feColorMatrix  type="matrix" values="1 0 0 0 0  0 1 0 0 0  0 0 1 0 0  0 0 0 1 0"/>
	</filter>
</defs>
<mask maskUnits="userSpaceOnUse" x="-49.5" y="63.3" width="1698" height="1698" id="SVGID_1_">
	<g class="st1">
		<rect x="0" y="-61.6" class="st2" width="1600" height="810"/>
	</g>
</mask>
<g class="st3">
	<g>
		<g>
			<g>
				<g>
					
						<ellipse transform="matrix(0.6286 -0.7777 0.7777 0.6286 -412.64 960.5892)" class="st4" cx="799.5" cy="912.4" rx="848.5" ry="848.5"/>
				</g>
			</g>
			<g>
				<g>
					
						<ellipse transform="matrix(0.6286 -0.7777 0.7777 0.6286 -412.64 960.5892)" class="st5" cx="799.5" cy="912.4" rx="848.5" ry="673.3"/>
				</g>
			</g>
			<g>
				<g>
					
						<ellipse transform="matrix(0.6286 -0.7777 0.7777 0.6286 -412.64 960.5892)" class="st6" cx="799.5" cy="912.4" rx="848.5" ry="414.9"/>
				</g>
			</g>
			<g>
				<g>
					
						<ellipse transform="matrix(0.6286 -0.7777 0.7777 0.6286 -412.6397 960.5892)" class="st7" cx="799.5" cy="912.4" rx="848.5" ry="774.5"/>
				</g>
			</g>
			<g>
				<g>
					
						<ellipse transform="matrix(0.6286 -0.7777 0.7777 0.6286 -412.6402 960.5891)" class="st8" cx="799.5" cy="912.4" rx="848.5" ry="549.6"/>
				</g>
			</g>
			<g>
				<g>
					
						<ellipse transform="matrix(0.6286 -0.7777 0.7777 0.6286 -412.6405 960.5889)" class="st9" cx="799.5" cy="912.4" rx="848.5" ry="278.6"/>
				</g>
			</g>
			<g>
				<g>
					
						<ellipse transform="matrix(0.6286 -0.7777 0.7777 0.6286 -412.6413 960.5886)" class="st10" cx="799.5" cy="912.4" rx="848.5" ry="118.4"/>
				</g>
			</g>
		</g>
	</g>
	<g>
		<g>
			<g>
				<g>
					<g>
						
							<ellipse transform="matrix(0.9944 -0.1054 0.1054 0.9944 -91.7234 89.3627)" class="st5" cx="799.5" cy="912.4" rx="848.5" ry="673.3"/>
					</g>
				</g>
				<g>
					<g>
						
							<ellipse transform="matrix(0.9944 -0.1054 0.1054 0.9944 -91.7234 89.3626)" class="st6" cx="799.5" cy="912.4" rx="848.5" ry="414.9"/>
					</g>
				</g>
				<g>
					<g>
						
							<ellipse transform="matrix(0.9944 -0.1054 0.1054 0.9944 -91.7234 89.3627)" class="st7" cx="799.5" cy="912.4" rx="848.5" ry="774.5"/>
					</g>
				</g>
				<g>
					<g>
						
							<ellipse transform="matrix(0.9944 -0.1054 0.1054 0.9944 -91.7234 89.3626)" class="st8" cx="799.5" cy="912.4" rx="848.5" ry="549.6"/>
					</g>
				</g>
				<g>
					<g>
						
							<ellipse transform="matrix(0.9944 -0.1054 0.1054 0.9944 -91.7234 89.3626)" class="st9" cx="799.5" cy="912.4" rx="848.5" ry="278.6"/>
					</g>
				</g>
			</g>
		</g>
	</g>
	<g>
		<g>
			<g>
				<g>
					<g>
						
							<ellipse transform="matrix(0.9944 -0.1054 0.1054 0.9944 -91.7233 89.3626)" class="st5" cx="799.5" cy="912.4" rx="673.3" ry="848.5"/>
					</g>
				</g>
				<g>
					<g>
						
							<ellipse transform="matrix(0.9944 -0.1054 0.1054 0.9944 -91.7233 89.3625)" class="st6" cx="799.5" cy="912.4" rx="414.9" ry="848.5"/>
					</g>
				</g>
				<g>
					<g>
						
							<ellipse transform="matrix(0.9944 -0.1054 0.1054 0.9944 -91.7233 89.3626)" class="st7" cx="799.5" cy="912.4" rx="774.5" ry="848.5"/>
					</g>
				</g>
				<g>
					<g>
						
							<ellipse transform="matrix(0.9944 -0.1054 0.1054 0.9944 -91.7234 89.3626)" class="st8" cx="799.5" cy="912.4" rx="549.6" ry="848.5"/>
					</g>
				</g>
				<g>
					<g>
						
							<ellipse transform="matrix(0.9944 -0.1054 0.1054 0.9944 -91.7234 89.3626)" class="st9" cx="799.5" cy="912.4" rx="278.6" ry="848.5"/>
					</g>
				</g>
				<g>
					<g>
						
							<ellipse transform="matrix(0.9944 -0.1054 0.1054 0.9944 -91.7235 89.3626)" class="st10" cx="799.5" cy="912.4" rx="118.4" ry="848.5"/>
					</g>
				</g>
			</g>
		</g>
	</g>
	<g>
		<g>
			<g>
				<g>
					
						<ellipse transform="matrix(0.6286 -0.7777 0.7777 0.6286 -412.6407 960.5897)" class="st5" cx="799.5" cy="912.4" rx="673.3" ry="848.5"/>
				</g>
			</g>
			<g>
				<g>
					
						<ellipse transform="matrix(0.6286 -0.7777 0.7777 0.6286 -412.6407 960.5896)" class="st6" cx="799.5" cy="912.4" rx="414.9" ry="848.5"/>
				</g>
			</g>
			<g>
				<g>
					
						<ellipse transform="matrix(0.6286 -0.7777 0.7777 0.6286 -412.6408 960.5899)" class="st7" cx="799.5" cy="912.4" rx="774.5" ry="848.5"/>
				</g>
			</g>
			<g>
				<g>
					
						<ellipse transform="matrix(0.6286 -0.7777 0.7777 0.6286 -412.6406 960.5894)" class="st8" cx="799.5" cy="912.4" rx="549.6" ry="848.5"/>
				</g>
			</g>
			<g>
				<g>
					
						<ellipse transform="matrix(0.6286 -0.7777 0.7777 0.6286 -412.6404 960.5891)" class="st9" cx="799.5" cy="912.4" rx="278.6" ry="848.5"/>
				</g>
			</g>
			<g>
				<g>
					
						<ellipse transform="matrix(0.6286 -0.7777 0.7777 0.6286 -412.6401 960.5883)" class="st10" cx="799.5" cy="912.4" rx="118.4" ry="848.5"/>
				</g>
			</g>
		</g>
	</g>
</g>
<defs>
	<filter id="Adobe_OpacityMaskFilter_1_" filterUnits="userSpaceOnUse" x="-59" y="53.9" width="1717" height="1717">
		<feColorMatrix  type="matrix" values="1 0 0 0 0  0 1 0 0 0  0 0 1 0 0  0 0 0 1 0"/>
	</filter>
</defs>
<mask maskUnits="userSpaceOnUse" x="-59" y="53.9" width="1717" height="1717" id="SVGID_2_">
	<g class="st11">
		<rect x="0" y="-270.4" class="st2" width="1600" height="975.9"/>
	</g>
</mask>
<g class="st12">
	<g>
		<circle class="st13" cx="799.5" cy="912.4" r="848.5"/>
	</g>
</g>
</svg>
