<?xml version="1.0" encoding="utf-8"?>
<!-- Generator: Adobe Illustrator 19.0.0, SVG Export Plug-In . SVG Version: 6.00 Build 0)  -->
<svg version="1.1" id="Layer_1" xmlns="http://www.w3.org/2000/svg" xmlns:xlink="http://www.w3.org/1999/xlink" x="0px" y="0px"
	 viewBox="412 116.9 1666.1 361.4" style="enable-background:new 412 116.9 1666.1 361.4;" xml:space="preserve">
<style type="text/css">
	.st0{fill:#00B700;}
	.st1{fill:#FFFFFF;}
</style>
<g id="background">
</g>
<g id="objects">
	<rect x="642" y="255.9" class="st0" width="1222" height="4"/>
	<g id="XMLID_188_">
		<path id="XMLID_189_" class="st0" d="M782.1,194.9c35-60.7,112.6-81.5,173.3-46.4c60.7,35,81.5,112.6,46.4,173.3
			c-35,60.7-112.6,81.5-173.3,46.4C767.8,333.2,747.1,255.6,782.1,194.9z"/>
	</g>
	<g id="XMLID_1148_">
		<path id="XMLID_1149_" class="st0" d="M1135.2,194.9c35-60.7,112.6-81.5,173.3-46.4c60.7,35,81.5,112.6,46.4,173.3
			c-35,60.7-112.6,81.5-173.3,46.4C1120.9,333.2,1100.1,255.6,1135.2,194.9z"/>
	</g>
	<g id="XMLID_1283_">
		<path id="XMLID_1284_" class="st0" d="M1488.2,194.9c35-60.7,112.6-81.5,173.3-46.4c60.7,35,81.5,112.6,46.4,173.3
			c-35,60.7-112.6,81.5-173.3,46.4C1474,333.2,1453.2,255.6,1488.2,194.9z"/>
	</g>
	<g id="XMLID_1381_">
		<path id="XMLID_1382_" class="st0" d="M1841.3,194.9c35-60.7,112.6-81.5,173.3-46.4c60.7,35,81.5,112.6,46.4,173.3
			c-35,60.7-112.6,81.5-173.3,46.4C1827.1,333.2,1806.3,255.6,1841.3,194.9z"/>
	</g>
	<g id="XMLID_33_">
		<path id="XMLID_101_" class="st1" d="M886.9,260.5c-3.9,0-7.4,1.5-10.1,3.9v-16.5c0-4.2-3.4-7.5-7.5-7.5h-35.2
			c-4.2,0-7.5,3.4-7.5,7.5v20.6c-0.8-0.3-1.6-0.5-2.5-0.5c-4.2,0-7.5,3.4-7.5,7.5c0,1.9,0.8,3.7,2,5c-1.2,1.3-2,3.1-2,5s0.8,3.7,2,5
			c-1.2,1.3-2,3.1-2,5s0.8,3.7,2,5c-1.2,1.3-2,3.1-2,5c0,4.2,3.4,7.5,7.5,7.5c0.9,0,1.7-0.2,2.5-0.5v0.5c0,4.2,3.4,7.5,7.5,7.5h5
			v15.8h5v-15.4h25.1c4.2,0,7.5-3.4,7.5-7.5v-30.2v-7.5c0-4.7,3.2-8.6,7.5-9.7v70.8h5v-73.7C889.4,261.6,888.3,260.5,886.9,260.5z
			 M834.1,245.4h35.2c1.4,0,2.5,1.1,2.5,2.5v5h-40.2v-5C831.6,246.6,832.7,245.4,834.1,245.4z M821.5,295.7c0-1.4,1.1-2.5,2.5-2.5
			s2.5,1.1,2.5,2.5s-1.1,2.5-2.5,2.5C822.7,298.2,821.5,297.1,821.5,295.7z M821.5,285.7c0-1.4,1.1-2.5,2.5-2.5s2.5,1.1,2.5,2.5
			s-1.1,2.5-2.5,2.5C822.7,288.2,821.5,287,821.5,285.7z M824.1,273.1c1.4,0,2.5,1.1,2.5,2.5s-1.1,2.5-2.5,2.5
			c-1.4,0-2.5-1.1-2.5-2.5C821.5,274.2,822.7,273.1,824.1,273.1z M824.1,308.3c-1.4,0-2.5-1.1-2.5-2.5s1.1-2.5,2.5-2.5
			c1.4,0,2.5,1.1,2.5,2.5C826.6,307.2,825.4,308.3,824.1,308.3z M869.3,315.8h-35.2c-1.4,0-2.5-1.1-2.5-2.5v-5h40.2v5
			C871.8,314.7,870.7,315.8,869.3,315.8z M871.8,303.3h-40.2V258h40.2v17.6v7.5V303.3z"/>
		<path id="XMLID_96_" class="st1" d="M924.7,180c-23.6,0-42.8,19.2-42.8,42.8s19.2,42.8,42.8,42.8s42.8-19.2,42.8-42.8
			S948.2,180,924.7,180z M924.7,260.5c-20.8,0-37.7-16.9-37.7-37.7s16.9-37.7,37.7-37.7s37.7,16.9,37.7,37.7
			S945.5,260.5,924.7,260.5z"/>
		<rect id="XMLID_95_" x="851.7" y="210.2" class="st1" width="5" height="5"/>
		<rect id="XMLID_94_" x="861.8" y="210.2" class="st1" width="5" height="5"/>
		<rect id="XMLID_93_" x="871.8" y="210.2" class="st1" width="5" height="5"/>
		<rect id="XMLID_92_" x="841.7" y="210.2" class="st1" width="5" height="5"/>
		<rect id="XMLID_91_" x="841.7" y="220.3" class="st1" width="5" height="5"/>
		<rect id="XMLID_90_" x="841.7" y="230.3" class="st1" width="5" height="5"/>
		<rect id="XMLID_89_" x="904.5" y="305.8" class="st1" width="5" height="5"/>
		<rect id="XMLID_86_" x="894.5" y="305.8" class="st1" width="5" height="5"/>
		<rect id="XMLID_85_" x="914.6" y="305.8" class="st1" width="5" height="5"/>
		<rect id="XMLID_81_" x="924.7" y="305.8" class="st1" width="5" height="5"/>
		<rect id="XMLID_80_" x="934.7" y="305.8" class="st1" width="5" height="5"/>
		<rect id="XMLID_79_" x="944.8" y="305.8" class="st1" width="5" height="5"/>
		<rect id="XMLID_78_" x="944.8" y="295.7" class="st1" width="5" height="5"/>
		<rect id="XMLID_77_" x="944.8" y="285.7" class="st1" width="5" height="5"/>
		<rect id="XMLID_76_" x="944.8" y="275.6" class="st1" width="5" height="5"/>
		<rect id="XMLID_75_" x="944.8" y="265.5" class="st1" width="5" height="5"/>
		<path id="XMLID_74_" class="st1" d="M849.2,282.1l-5.8-5.8l-3.6,3.6l7.5,7.5c0.5,0.5,1.1,0.7,1.8,0.7c0.6,0,1.3-0.2,1.8-0.7
			l15.1-15.1l-3.6-3.6L849.2,282.1z"/>
		<g id="XMLID_34_">
			<g id="XMLID_35_">
				<g id="XMLID_59_">
					<path id="XMLID_73_" class="st1" d="M906,230c-4.1,0-4.7-0.6-5-0.9c-1.2-1.2-1.2-5.3-0.9-7.6c0.3-1.5,0.9-2.3,1.8-2.9
						c1.2-0.6,1.8-0.9,2.6-0.9c0.9-0.3,1.2-0.3,1.8-0.6l0.3-0.3c2.6-1.8,5.3-3.5,7-3.8c0,0,12.3-1.2,15,0.3c0.9,0.3,1.8,0.9,2.9,1.8
						c1.8,1.2,4.1,2.3,5.6,2.9c0.3,0,0.9,0.3,1.8,0.3c3.5,0.3,10.6,1.2,10.3,8.5l0,0c-0.3,2.9-3.5,3.2-6.7,3.2
						c-0.6,0-1.2-0.6-1.2-1.2c0-0.6,0.6-1.2,1.2-1.2c2.6,0,4.1-0.3,4.4-0.9c0-4.4-3.8-5.3-7.9-5.9c-0.9,0-1.5-0.3-2.1-0.3
						c-1.8-0.6-4.1-1.8-6.2-3.2c-1.2-0.6-2.1-1.2-2.6-1.5c-1.5-0.6-10.3-0.3-13.5,0c-0.6,0-2.1,0.6-5.9,3.2l-0.3,0.3
						c-0.6,0.6-1.5,0.6-2.3,0.9c-0.6,0.3-1.5,0.6-2.3,0.9c-0.9,0.6-0.9,5-0.3,6.2c0.6,0.3,2.3,0.3,3.8,0.3c0.6,0,1.2,0.6,1.2,1.2
						c0,0.6-0.6,1.2-1.2,1.2C906.3,230,906,230,906,230z"/>
					<path id="XMLID_68_" class="st1" d="M938.6,233.6c-2.6,0-5-2.1-5-5c0-2.9,2.1-5,5-5s5,2.1,5,5
						C943.6,231.5,941.2,233.6,938.6,233.6z M938.6,226.2c-1.2,0-2.3,1.2-2.3,2.3c0,1.2,1.2,2.3,2.3,2.3s2.3-1.2,2.3-2.3
						C940.9,227.4,939.8,226.2,938.6,226.2z"/>
					<path id="XMLID_64_" class="st1" d="M911.3,233.6c-2.6,0-5-2.1-5-5c0-2.9,2.1-5,5-5s5,2.1,5,5
						C916.3,231.5,913.9,233.6,911.3,233.6z M911.3,226.2c-1.2,0-2.3,1.2-2.3,2.3c0,1.2,1.2,2.3,2.3,2.3c1.2,0,2.3-1.2,2.3-2.3
						C913.7,227.4,912.5,226.2,911.3,226.2z"/>
					<path id="XMLID_63_" class="st1" d="M933.9,225.1L933.9,225.1c-2.3,0-14.4-0.3-17.6-2.1c-3.2-2.1-4.1-5.3-4.1-5.6
						c0-0.6,0.3-1.5,0.9-1.5c0.6,0,1.5,0.3,1.5,0.9c0,0,0.6,2.3,2.9,3.8c1.8,1.2,10.8,1.8,16.1,1.8c0.6,0,1.2,0.6,1.2,1.2
						C935.1,224.5,934.5,225.1,933.9,225.1z"/>
					<path id="XMLID_62_" class="st1" d="M934.8,229.8h-20.2c-0.6,0-1.2-0.6-1.2-1.2c0-0.6,0.6-1.2,1.2-1.2h20.2
						c0.6,0,1.2,0.6,1.2,1.2C935.9,229.2,935.6,229.8,934.8,229.8z"/>
					<path id="XMLID_61_" class="st1" d="M943.3,229.8c-0.3,0-0.6,0-0.6,0c-0.6,0-1.2-0.6-1.2-1.5c0-0.6,0.6-1.2,1.5-1.2
						c1.2,0,2.6-0.3,3.2-0.9c0,0,0.3-0.3,0.3-0.6l0,0c0.3-4.1-3.5-4.7-7.9-5.3c-0.9,0-1.5-0.3-2.1-0.3c-0.6-0.3-1.2-0.9-0.9-1.5
						c0.3-0.6,0.9-1.2,1.5-0.9c0.3,0,1.2,0.3,1.8,0.3c3.5,0.3,10.6,1.2,10.3,7.9c0,0.9-0.3,1.8-1.2,2.3
						C946.8,229.2,945,229.8,943.3,229.8z"/>
				</g>
				<g id="XMLID_55_">
					<path id="XMLID_58_" class="st1" d="M899.9,241.5c-0.3,0-0.9-0.3-0.9-0.6c-7.6-10.8-7.6-25.2,0-35.8c0.3-0.6,1.2-0.6,1.8-0.3
						c0.6,0.3,0.6,1.2,0.3,1.8c-7,10-7,23.2,0,32.8c0.3,0.6,0.3,1.5-0.3,1.8C900.5,241.2,900.2,241.5,899.9,241.5z"/>
					<path id="XMLID_57_" class="st1" d="M924.5,254.1c-6.2,0-12.6-1.8-17.9-5.6c-0.6-0.3-0.6-1.2-0.3-1.8c0.3-0.6,1.2-0.6,1.8-0.3
						c10,7,23.2,7,32.8,0c0.6-0.3,1.5-0.3,1.8,0.3s0.3,1.5-0.3,1.8C937.1,252.3,930.7,254.1,924.5,254.1z"/>
				</g>
				<g id="XMLID_52_">
					<path id="XMLID_54_" class="st1" d="M941.8,199.5c-0.3,0-0.6,0-0.6-0.3c-10-7-23.2-7-32.8,0c-0.6,0.3-1.5,0.3-1.8-0.3
						s-0.3-1.5,0.3-1.8c10.8-7.6,25.2-7.6,35.8,0c0.6,0.3,0.6,1.2,0.3,1.8C942.4,199.5,942.1,199.5,941.8,199.5z"/>
					<path id="XMLID_53_" class="st1" d="M949.1,241.5c-0.3,0-0.6,0-0.6-0.3c-0.6-0.3-0.6-1.2-0.3-1.8c7-10,7-23.2,0-32.8
						c-0.3-0.6-0.3-1.5,0.3-1.8s1.5-0.3,1.8,0.3c7.6,10.8,7.6,25.2,0,35.8C949.7,241.2,949.4,241.5,949.1,241.5z"/>
				</g>
				<circle id="XMLID_51_" class="st1" cx="948" cy="241.8" r="2.6"/>
				<circle id="XMLID_46_" class="st1" cx="901" cy="204.2" r="2.6"/>
				<circle id="XMLID_45_" class="st1" cx="943.3" cy="199.5" r="2.6"/>
				<circle id="XMLID_36_" class="st1" cx="905.7" cy="246.5" r="2.6"/>
			</g>
		</g>
	</g>
	<rect x="537" y="397.9" class="st0" width="4" height="62"/>
	<rect x="890" y="397.9" class="st0" width="4" height="62"/>
	<rect x="1243" y="397.9" class="st0" width="4" height="62"/>
	<rect x="1596" y="397.9" class="st0" width="4" height="62"/>
	<rect x="1949" y="397.9" class="st0" width="4" height="62"/>
	<g id="XMLID_1279_">
		<path id="XMLID_1280_" class="st0" d="M429,194.9c35-60.7,112.6-81.5,173.3-46.4c60.7,35,81.5,112.6,46.4,173.3
			c-35,60.7-112.6,81.5-173.3,46.4C414.8,333.2,394,255.6,429,194.9z"/>
	</g>
	<g id="XMLID_628_">
		<path id="XMLID_648_" class="st1" d="M1983.9,218.7c-5.2,0-9.3,4.2-9.3,9.3s4.2,9.3,9.3,9.3c5.2,0,9.3-4.2,9.3-9.3
			S1989,218.7,1983.9,218.7z M1983.9,232.7c-2.6,0-4.7-2.1-4.7-4.7c0-2.6,2.1-4.7,4.7-4.7s4.7,2.1,4.7,4.7
			C1988.5,230.6,1986.4,232.7,1983.9,232.7z"/>
		<path id="XMLID_630_" class="st1" d="M2008.9,218.7c-5.6-11.5-16.5-18-30.9-18.6v-14.2h-2.3c-7.7,0-14.1,6.1-15.2,14h-21.6
			c-20.9,0-37.9,17.6-39,39.7h-3.7c0.8-1.4,1.3-3,1.3-4.7c0-5.2-4.2-9.3-9.3-9.3c-1.7,0-3.3,0.5-4.7,1.3v-15.3h-4.7V235
			c0,5.2,4.2,9.3,9.3,9.3h11.8c0.4,7.7,2.7,15.1,6.8,21.4c-15.7,2.4-27.9,16-27.9,32.3c0,18,14.7,32.7,32.7,32.7
			c0.8,0,1.6-0.1,2.3-0.1v0.1h74.7v-9.3h14v-14h-59.8c0.9-3,1.4-6.1,1.4-9.3c0-4.9-1.1-9.6-3.2-14h12.5v9.3h32.7v-10
			c9.6-2,18.1-8.6,22.7-18h14.6v-46.7H2008.9z M1883.4,235c0-2.6,2.1-4.7,4.7-4.7s4.7,2.1,4.7,4.7c0,2.6-2.1,4.7-4.7,4.7
			S1883.4,237.6,1883.4,235z M1883.4,298.1c0-15.2,12.3-27.7,27.5-28l0,0c0.1,0,0.3,0,0.5,0c9.6,0,18.4,4.8,23.6,12.9
			c2.9,4.5,4.5,9.8,4.5,15.1c0,15.5-12.6,28-28,28C1896,326.1,1883.4,313.5,1883.4,298.1z M1941.8,312.1v4.7h-3.6
			c1-1.5,1.9-3,2.7-4.7H1941.8z M1946.5,321.4v4.7h-4.7v-4.7H1946.5z M1951.2,321.4h4.7v4.7h-4.7V321.4z M1960.5,321.4h4.7v4.7h-4.7
			V321.4z M1969.9,321.4h4.7v4.7h-4.7V321.4z M1974.5,316.8v-4.7h4.7v4.7H1974.5z M1969.9,316.8h-4.7v-4.7h4.7V316.8z M1960.5,316.8
			h-4.7v-4.7h4.7V316.8z M1951.2,316.8h-4.7v-4.7h4.7V316.8z M1934.3,321.4h2.9v4.7h-8.9C1930.4,324.8,1932.5,323.2,1934.3,321.4z
			 M1983.9,326.1h-4.7v-4.7h4.7V326.1z M1986.2,316.8h-2.3v-4.7h4.7v4.7l0,0H1986.2z M1997.9,316.8h-4.7v-4.7h4.7V316.8z
			 M2018.9,260.7h-13l-0.6,1.4c-4.6,10.5-14.5,17.3-25.2,17.3h-12.6v4.7h12.6c0.5,0,1,0,1.4-0.1v4.7h-23.4V284h4.7v-4.7h-23.9
			c-0.2,0-0.5,0-0.7,0c-6-8.6-15.7-13.8-26.2-14c-0.3-0.4-0.6-0.9-0.9-1.3c-4.3-6.4-6.6-14.1-6.6-22c0-20.6,15.5-37.4,34.5-37.4
			h26.2v-2.3c0-5.6,3.6-10.2,8.3-11.4v13.7h2.3c14.1,0,24.6,6.1,29.6,17.3l0.6,1.4h13v37.4H2018.9z"/>
		<path id="XMLID_435_" class="st1" d="M1917.3,279.4h-3.5v-4.7h-4.7v4.7h-3.5c-5.8,0-10.5,4.7-10.5,10.5c0,5.8,4.7,10.5,10.5,10.5
			h11.7c3.2,0,5.8,2.6,5.8,5.8c0,3.2-2.6,5.8-5.8,5.8h-11.7c-3.2,0-5.8-2.6-5.8-5.8V305h-4.7v1.2c0,5.8,4.7,10.5,10.5,10.5h3.5v4.7
			h4.7v-4.7h3.5c5.8,0,10.5-4.7,10.5-10.5c0-5.8-4.7-10.5-10.5-10.5h-11.7c-3.2,0-5.8-2.6-5.8-5.8c0-3.2,2.6-5.8,5.8-5.8h11.7
			c3.2,0,5.8,2.6,5.8,5.8v1.2h4.7v-1.2C1927.8,284.1,1923.1,279.4,1917.3,279.4z"/>
	</g>
	<g id="XMLID_780_">
		<path id="XMLID_850_" class="st1" d="M488.8,283.6h8.6c0,1.2,1,2.2,2.2,2.2h8.6c1.2,0,2.2-1,2.2-2.2c0-6.4-4.7-11.8-10.8-12.8
			v-4.5c0-1.2-1-2.2-2.2-2.2h-8.6c-1.2,0-2.2,1-2.2,2.2v4.5c-7.3,1.1-13,7.4-13,15c0,8.3,6.8,15.1,15.1,15.1h6.5
			c1.2,0,2.2,1,2.2,2.2c0,1.2-1,2.2-2.2,2.2h-8.6c0-1.2-1-2.2-2.2-2.2h-8.6c-1.2,0-2.2,1-2.2,2.2c0,7.2,5.8,13,13,13v4.3
			c0,1.2,1,2.2,2.2,2.2h8.6c1.2,0,2.2-1,2.2-2.2v-5c6.4-1.9,10.8-7.7,10.8-14.5c0-8.3-6.8-15.1-15.1-15.1h-6.5c-1.2,0-2.2-1-2.2-2.2
			C486.6,284.6,487.6,283.6,488.8,283.6z M488.8,292.2h6.5c6,0,10.8,4.8,10.8,10.8c0,5.3-3.8,9.8-9,10.6c-1,0.2-1.8,1.1-1.8,2.1v4.5
			H491v-4.3c0-1.2-1-2.2-2.2-2.2h-2.2c-4,0-7.4-2.8-8.4-6.5h4.6c0.7,1.3,2.1,2.2,3.7,2.2h8.6c3.6,0,6.5-2.9,6.5-6.5
			s-2.9-6.5-6.5-6.5h-6.5c-6,0-10.8-4.8-10.8-10.8s4.8-10.8,10.8-10.8c1.2,0,2.2-1,2.2-2.2v-4.3h4.3v4.3c0,1.2,1,2.2,2.2,2.2
			c4,0,7.4,2.8,8.4,6.5h-4.6c-0.7-1.3-2.1-2.2-3.7-2.2h-8.6c-3.6,0-6.5,2.9-6.5,6.5C482.3,289.3,485.2,292.2,488.8,292.2z"/>
		<path id="XMLID_763_" class="st1" d="M582.5,211.5h8.6c0,1.2,1,2.2,2.2,2.2h8.6c1.2,0,2.2-1,2.2-2.2c0-6.4-4.7-11.8-10.8-12.8
			v-4.5c0-1.2-1-2.2-2.2-2.2h-8.6c-1.2,0-2.2,1-2.2,2.2v4.5c-7.3,1.1-13,7.4-13,15c0,8.3,6.8,15.1,15.1,15.1h6.5
			c1.2,0,2.2,1,2.2,2.2s-1,2.2-2.2,2.2h-8.6c0-1.2-1-2.2-2.2-2.2h-8.6c-1.2,0-2.2,1-2.2,2.2c0,7.2,5.8,13,13,13v4.3
			c0,1.2,1,2.2,2.2,2.2h8.6c1.2,0,2.2-1,2.2-2.2v-5c6.4-1.9,10.8-7.7,10.8-14.5c0-8.3-6.8-15.1-15.1-15.1h-6.5c-1.2,0-2.2-1-2.2-2.2
			S581.3,211.5,582.5,211.5z M582.5,220.2h6.5c6,0,10.8,4.8,10.8,10.8c0,5.3-3.8,9.8-9,10.6c-1,0.2-1.8,1.1-1.8,2.1v4.5h-4.3v-4.3
			c0-1.2-1-2.2-2.2-2.2h-2.2c-4,0-7.4-2.8-8.4-6.5h4.6c0.7,1.3,2.1,2.2,3.7,2.2h8.6c3.6,0,6.5-2.9,6.5-6.5c0-3.6-2.9-6.5-6.5-6.5
			h-6.5c-6,0-10.8-4.8-10.8-10.8s5-10.7,11-10.7c1.2,0,2.2-1,2.2-2.2v-4.3h4.3v4.3c0,1.2,1,2.2,2.2,2.2c4,0,7.4,2.8,8.4,6.5H595
			c-0.7-1.3-2.1-2.2-3.7-2.2h-8.6c-3.6,0-6.5,2.9-6.5,6.5C576.2,217.3,578.9,220.2,582.5,220.2z"/>
		<rect id="XMLID_846_" x="475.8" y="262" class="st1" width="4.3" height="4.3"/>
		<rect id="XMLID_845_" x="475.8" y="253.3" class="st1" width="4.3" height="4.3"/>
		<rect id="XMLID_844_" x="475.8" y="244.7" class="st1" width="4.3" height="4.3"/>
		<rect id="XMLID_843_" x="475.8" y="236" class="st1" width="4.3" height="4.3"/>
		<rect id="XMLID_842_" x="475.8" y="227.4" class="st1" width="4.3" height="4.3"/>
		<rect id="XMLID_841_" x="475.8" y="218.7" class="st1" width="4.3" height="4.3"/>
		<rect id="XMLID_840_" x="475.8" y="210.1" class="st1" width="4.3" height="4.3"/>
		<rect id="XMLID_839_" x="484.5" y="253.3" class="st1" width="4.3" height="4.3"/>
		<rect id="XMLID_838_" x="484.5" y="244.7" class="st1" width="4.3" height="4.3"/>
		<rect id="XMLID_837_" x="484.5" y="236" class="st1" width="4.3" height="4.3"/>
		<rect id="XMLID_836_" x="484.5" y="227.4" class="st1" width="4.3" height="4.3"/>
		<rect id="XMLID_835_" x="484.5" y="218.7" class="st1" width="4.3" height="4.3"/>
		<rect id="XMLID_834_" x="484.5" y="210.1" class="st1" width="4.3" height="4.3"/>
		<rect id="XMLID_833_" x="581.8" y="311.7" class="st1" width="4.3" height="4.3"/>
		<rect id="XMLID_832_" x="581.8" y="303" class="st1" width="4.3" height="4.3"/>
		<rect id="XMLID_831_" x="581.8" y="294.4" class="st1" width="4.3" height="4.3"/>
		<rect id="XMLID_830_" x="581.8" y="285.7" class="st1" width="4.3" height="4.3"/>
		<rect id="XMLID_829_" x="581.8" y="277.1" class="st1" width="4.3" height="4.3"/>
		<rect id="XMLID_828_" x="581.8" y="268.4" class="st1" width="4.3" height="4.3"/>
		<rect id="XMLID_827_" x="581.8" y="259.8" class="st1" width="4.3" height="4.3"/>
		<rect id="XMLID_826_" x="573.1" y="294.4" class="st1" width="4.3" height="4.3"/>
		<rect id="XMLID_825_" x="573.1" y="285.7" class="st1" width="4.3" height="4.3"/>
		<rect id="XMLID_824_" x="573.1" y="277.1" class="st1" width="4.3" height="4.3"/>
		<rect id="XMLID_823_" x="573.1" y="268.4" class="st1" width="4.3" height="4.3"/>
		<rect id="XMLID_822_" x="573.1" y="259.8" class="st1" width="4.3" height="4.3"/>
		<rect id="XMLID_821_" x="573.1" y="251.2" class="st1" width="4.3" height="4.3"/>
		<rect id="XMLID_820_" x="475.8" y="201.4" class="st1" width="4.3" height="4.3"/>
		<rect id="XMLID_819_" x="484.5" y="201.4" class="st1" width="4.3" height="4.3"/>
		<rect id="XMLID_818_" x="493.1" y="201.4" class="st1" width="4.3" height="4.3"/>
		<rect id="XMLID_817_" x="501.8" y="201.4" class="st1" width="4.3" height="4.3"/>
		<rect id="XMLID_816_" x="510.4" y="201.4" class="st1" width="4.3" height="4.3"/>
		<rect id="XMLID_815_" x="519.1" y="201.4" class="st1" width="4.3" height="4.3"/>
		<rect id="XMLID_814_" x="527.7" y="201.4" class="st1" width="4.3" height="4.3"/>
		<rect id="XMLID_813_" x="536.4" y="201.4" class="st1" width="4.3" height="4.3"/>
		<rect id="XMLID_812_" x="545" y="201.4" class="st1" width="4.3" height="4.3"/>
		<rect id="XMLID_811_" x="553.7" y="201.4" class="st1" width="4.3" height="4.3"/>
		<rect id="XMLID_810_" x="493.1" y="210.1" class="st1" width="4.3" height="4.3"/>
		<rect id="XMLID_809_" x="501.8" y="210.1" class="st1" width="4.3" height="4.3"/>
		<rect id="XMLID_808_" x="510.4" y="210.1" class="st1" width="4.3" height="4.3"/>
		<rect id="XMLID_807_" x="519.1" y="210.1" class="st1" width="4.3" height="4.3"/>
		<rect id="XMLID_806_" x="527.7" y="210.1" class="st1" width="4.3" height="4.3"/>
		<rect id="XMLID_805_" x="536.4" y="210.1" class="st1" width="4.3" height="4.3"/>
		<rect id="XMLID_804_" x="545" y="210.1" class="st1" width="4.3" height="4.3"/>
		<rect id="XMLID_803_" x="553.7" y="210.1" class="st1" width="4.3" height="4.3"/>
		<rect id="XMLID_802_" x="512.6" y="311.7" class="st1" width="4.3" height="4.3"/>
		<rect id="XMLID_801_" x="521.2" y="311.7" class="st1" width="4.3" height="4.3"/>
		<rect id="XMLID_800_" x="529.9" y="311.7" class="st1" width="4.3" height="4.3"/>
		<rect id="XMLID_799_" x="538.5" y="311.7" class="st1" width="4.3" height="4.3"/>
		<rect id="XMLID_798_" x="547.2" y="311.7" class="st1" width="4.3" height="4.3"/>
		<rect id="XMLID_797_" x="555.8" y="311.7" class="st1" width="4.3" height="4.3"/>
		<rect id="XMLID_796_" x="564.5" y="311.7" class="st1" width="4.3" height="4.3"/>
		<rect id="XMLID_795_" x="573.1" y="311.7" class="st1" width="4.3" height="4.3"/>
		<rect id="XMLID_793_" x="512.6" y="303" class="st1" width="4.3" height="4.3"/>
		<rect id="XMLID_792_" x="521.2" y="303" class="st1" width="4.3" height="4.3"/>
		<rect id="XMLID_790_" x="529.9" y="303" class="st1" width="4.3" height="4.3"/>
		<rect id="XMLID_789_" x="538.5" y="303" class="st1" width="4.3" height="4.3"/>
		<rect id="XMLID_788_" x="547.2" y="303" class="st1" width="4.3" height="4.3"/>
		<rect id="XMLID_786_" x="555.8" y="303" class="st1" width="4.3" height="4.3"/>
		<rect id="XMLID_785_" x="564.5" y="303" class="st1" width="4.3" height="4.3"/>
		<rect id="XMLID_783_" x="573.1" y="303" class="st1" width="4.3" height="4.3"/>
		<rect id="XMLID_782_" x="562.3" y="201.4" class="st1" width="4.3" height="4.3"/>
		<path id="XMLID_781_" class="st1" d="M538.5,238.2c-10,0-18.4,6.9-20.9,16.1l-3.3-4.4l-3.5,2.6l6.5,8.6c0.4,0.6,1.1,0.9,1.7,0.9
			c0.5,0,0.9-0.1,1.3-0.4l8.6-6.5l-2.6-3.5l-4.5,3.4c2.1-7.2,8.7-12.4,16.6-12.4c9.5,0,17.3,7.8,17.3,17.3c0,9.5-7.8,17.3-17.3,17.3
			c-7.3,0-13.9-4.6-16.3-11.5l-4.1,1.4c3,8.6,11.2,14.4,20.4,14.4c11.9,0,21.6-9.7,21.6-21.6C560,248,550.4,238.2,538.5,238.2z"/>
	</g>
	<g id="XMLID_175_">
		<path id="XMLID_195_" class="st1" d="M1306.7,258.7v-30v-22.9c0-1.3-1-2.3-2.3-2.3h-16v-11.4c0-1.3-1-2.3-2.3-2.3h-9.1h-2.3h-6.9
			h-2.3h-66.3c-1.3,0-2.3,1-2.3,2.3v11.4h-6.9c-7.6,0-13.7,6.2-13.7,13.7v98.3c0,6.3,5.1,11.4,11.4,11.4h107.4
			c6.3,0,11.4-5.1,11.4-11.4V290c3.9-1,6.9-4.6,6.9-8.8v-13.7C1313.6,263.3,1310.7,259.7,1306.7,258.7z M1302.2,208.1v18.3h-13.7
			v-18.3H1302.2z M1283.9,226.4h-4.6v-32h4.6V226.4z M1274.7,226.4h-4.6v-32h4.6V226.4z M1265.6,194.4v32h-4.6v-16
			c0-1.3-1-2.3-2.3-2.3c-3.8,0-6.9-3.1-6.9-6.9c0-1.3-1-2.3-2.3-2.3h-32c-1.3,0-2.3,1-2.3,2.3c0,3.8-3.1,6.9-6.9,6.9
			c-1.3,0-2.3,1-2.3,2.3v16h-4.6v-32H1265.6z M1256.5,226.4h-45.7v-14c4.5-0.9,8-4.4,8.9-8.9h27.9c0.9,4.5,4.4,8,8.9,8.9V226.4
			L1256.5,226.4z M1190.2,208.1h6.9v18.3h-6.9c-5,0-9.1-4.1-9.1-9.1S1185.1,208.1,1190.2,208.1z M1295.3,322.3h-107.4
			c-3.8,0-6.9-3.1-6.9-6.9v-88.1l0.1,0.1c0.5,0.5,1.1,0.9,1.7,1.3c0.1,0.1,0.2,0.1,0.3,0.2c0.6,0.4,1.3,0.7,1.9,1
			c0.1,0,0.2,0.1,0.3,0.1c0.7,0.3,1.4,0.5,2.2,0.6c0.1,0,0.1,0,0.2,0c0.8,0.1,1.6,0.2,2.4,0.2h112v27.4h-13.7c-8.8,0-16,7.2-16,16
			c0,8.8,7.2,16,16,16h13.7v25.1C1302.2,319.3,1299.1,322.3,1295.3,322.3z M1309,281.2c0,2.5-2.1,4.6-4.6,4.6h-16
			c-6.3,0-11.4-5.1-11.4-11.4c0-6.3,5.1-11.4,11.4-11.4h16c2.5,0,4.6,2,4.6,4.6V281.2z"/>
		<path id="XMLID_192_" class="st1" d="M1288.4,267.5c-3.8,0-6.9,3.1-6.9,6.9c0,3.8,3.1,6.9,6.9,6.9s6.9-3.1,6.9-6.9
			S1292.2,267.5,1288.4,267.5z M1288.4,276.6c-1.3,0-2.3-1-2.3-2.3c0-1.3,1-2.3,2.3-2.3s2.3,1,2.3,2.3
			C1290.7,275.6,1289.7,276.6,1288.4,276.6z"/>
	</g>
	<g id="XMLID_1132_">
		<path id="XMLID_1147_" class="st1" d="M1660.2,257v1.3c0,34.2-27.8,62.1-62.1,62.1c-19.2,0-36.8-8.6-48.6-23.5l9.1-2.7l-25.7-24.2
			l-8.1,34.3l11.5-3.5c14,20.4,37,32.5,61.7,32.5c41.4,0,75-33.7,75-75V257H1660.2z M1534.5,275.2l18.9,17.8l-24.9,7.5L1534.5,275.2
			z M1598.1,330.7c-23.6,0-45.5-11.4-59-30.6l7.7-2.3c12.3,16.1,31,25.4,51.4,25.4c35.3,0,64-28.3,64.8-63.4h7.6
			C1669.7,299,1637.5,330.7,1598.1,330.7z"/>
		<path id="XMLID_1143_" class="st1" d="M1536,258.4c0-34.2,27.8-62.1,62.1-62.1c16.5,0,32,6.4,43.7,18c2.1,2.1,4,4.3,5.7,6.6
			l-9.9,3l25.7,24.2l8.1-34.3l-10.8,3.2c-2.8-4.2-6-8.2-9.7-11.9c-14.2-14-32.9-21.7-52.8-21.7c-41.4,0-75,33.7-75,75v1.3h12.9
			L1536,258.4L1536,258.4z M1661.7,242.9l-18.9-17.8l24.9-7.5L1661.7,242.9z M1525.8,257c0.7-39.3,32.9-71,72.3-71
			c19.2,0,37.3,7.4,50.9,21c3.3,3.3,6.3,6.9,8.9,10.8l-7.7,2.3c-1.9-2.6-4.1-5.2-6.6-7.7c-12.2-12.1-28.4-18.8-45.6-18.8
			c-35.3,0-64,28.3-64.8,63.5h-7.4V257z"/>
		<path id="XMLID_1140_" class="st1" d="M1598.2,211.3c-25.9,0-46.9,21-46.9,46.9s21,46.9,46.9,46.9s46.9-21,46.9-46.9
			C1645.1,232.4,1624.1,211.3,1598.2,211.3z M1598.2,302.4c-24.4,0-44.2-19.8-44.2-44.2s19.8-44.2,44.2-44.2s44.2,19.8,44.2,44.2
			C1642.4,282.6,1622.6,302.4,1598.2,302.4z"/>
		<path id="XMLID_932_" class="st1" d="M1619.1,229c0.6,0.4,1.4,0.3,1.9-0.3c0.4-0.6,0.3-1.4-0.3-1.9c-6.6-4.7-14.3-7.2-22.4-7.2
			c-13.1,0-25.1,6.5-32.3,17.5c-0.4,0.6-0.2,1.4,0.4,1.9c0.2,0.1,0.5,0.2,0.7,0.2c0.4,0,0.9-0.2,1.1-0.6
			c6.7-10.2,17.9-16.3,30.1-16.3C1605.8,222.3,1613,224.6,1619.1,229z"/>
		<path id="XMLID_931_" class="st1" d="M1562.3,258.2c0-5,1-9.9,3-14.4c0.3-0.7,0-1.5-0.7-1.8s-1.5,0-1.8,0.7
			c-2.2,4.9-3.3,10.1-3.3,15.5c0,9,3.2,17.8,8.9,24.7c0.3,0.3,0.6,0.5,1,0.5c0.3,0,0.6-0.1,0.9-0.3c0.6-0.5,0.6-1.3,0.2-1.9
			C1565.2,274.7,1562.3,266.6,1562.3,258.2z"/>
		<path id="XMLID_930_" class="st1" d="M1626.6,280.3c-6.9,8.8-17.2,13.9-28.4,13.9c-7.9,0-15.5-2.6-21.8-7.4
			c-0.6-0.4-1.4-0.3-1.9,0.3c-0.4,0.6-0.3,1.4,0.3,1.9c6.8,5.2,14.9,7.9,23.4,7.9c12,0,23.1-5.4,30.5-14.9c0.5-0.6,0.4-1.4-0.2-1.9
			S1627.1,279.7,1626.6,280.3z"/>
		<path id="XMLID_929_" class="st1" d="M1625.3,232.6c-0.6,0.5-0.6,1.3-0.1,1.9c5.8,6.6,9,15,9,23.7c0,5.5-1.2,10.8-3.6,15.8
			c-0.3,0.7,0,1.5,0.6,1.8c0.2,0.1,0.4,0.1,0.6,0.1c0.5,0,1-0.3,1.2-0.8c2.6-5.3,3.9-11,3.9-16.9c0-9.4-3.4-18.4-9.6-25.5
			C1626.7,232.2,1625.9,232.1,1625.3,232.6z"/>
		<path id="XMLID_1133_" class="st1" d="M1602.2,289.2v-5.3c6.8-1.4,11.3-7,11.3-14.1c0-9-6.9-13-12.4-16.3
			c-4.1-2.4-7.6-4.5-7.6-7.8c0-2.7,1.7-4.2,4.8-4.2c3.1,0,4.7,1.8,4.9,5.4v1.3h9.7v-1.4c-0.2-7.5-4.2-12.7-10.6-14.2v-5.3h-8.3v5.4
			c-6.2,1.5-10.1,6.5-10.1,12.9c0,8.5,6.7,12.6,12.1,15.9c4.2,2.6,7.8,4.8,7.8,8.3c0,3.4-1.9,5.2-5.5,5.2c-3.7,0-5.6-2-5.6-6v-1.3
			h-9.7v1.4c0.1,7.7,4.1,13.2,11,14.8v5.4L1602.2,289.2L1602.2,289.2z M1585.7,270.3h4.4c0.5,4.6,3.4,7.3,8.2,7.3c5,0,8.1-3,8.1-7.9
			c0-5-4.4-7.7-9.1-10.6c-5.3-3.2-10.8-6.6-10.8-13.6c0-5.5,3.5-9.5,9-10.5l1.1-0.2v-5h2.9v4.9l1.1,0.2c5.4,0.8,8.8,4.6,9.4,10.5
			h-4.3c-0.6-4.2-3.3-6.7-7.4-6.7c-4.5,0-7.5,2.7-7.5,6.9c0,4.9,4.4,7.5,9,10.2c5.4,3.2,11.1,6.5,11.1,14c0,6.2-4,10.7-10.1,11.6
			l-1.2,0.2v4.9h-2.9v-4.9l-1.1-0.2C1589.7,280.4,1586.2,276.4,1585.7,270.3z"/>
	</g>
	<g id="XMLID_174_">
		<g id="XMLID_176_">
			<g id="XMLID_187_">
				<path id="XMLID_296_" class="st1" d="M1205.8,286.5c-5,0-5.7-0.7-6-1.1c-1.4-1.4-1.4-6.4-1.1-9.2c0.4-1.8,1.1-2.8,2.1-3.5
					c1.4-0.7,2.1-1.1,3.2-1.1c1.1-0.4,1.4-0.4,2.1-0.7l0.4-0.4c3.2-2.1,6.4-4.3,8.5-4.6c0,0,14.9-1.4,18.1,0.4
					c1.1,0.4,2.1,1.1,3.5,2.1c2.1,1.4,5,2.8,6.7,3.5c0.4,0,1.1,0.4,2.1,0.4c4.3,0.4,12.8,1.4,12.4,10.3l0,0
					c-0.4,3.5-4.3,3.9-8.2,3.9c-0.7,0-1.4-0.7-1.4-1.4c0-0.7,0.7-1.4,1.4-1.4c3.2,0,5-0.4,5.3-1.1c0-5.3-4.6-6.4-9.6-7.1
					c-1.1,0-1.8-0.4-2.5-0.4c-2.1-0.7-5-2.1-7.4-3.9c-1.4-0.7-2.5-1.4-3.2-1.8c-1.8-0.7-12.4-0.4-16.3,0c-0.7,0-2.5,0.7-7.1,3.9
					l-0.4,0.4c-0.7,0.7-1.8,0.7-2.8,1.1c-0.7,0.4-1.8,0.7-2.8,1.1c-1.1,0.7-1.1,6-0.4,7.4c0.7,0.4,2.8,0.4,4.6,0.4
					c0.7,0,1.4,0.7,1.4,1.4c0,0.7-0.7,1.4-1.4,1.4C1206.2,286.5,1205.8,286.5,1205.8,286.5z"/>
				<path id="XMLID_293_" class="st1" d="M1245.2,290.7c-3.2,0-6-2.5-6-6s2.5-6,6-6s6,2.5,6,6S1248.4,290.7,1245.2,290.7z
					 M1245.2,281.9c-1.4,0-2.8,1.4-2.8,2.8c0,1.4,1.4,2.8,2.8,2.8c1.4,0,2.8-1.4,2.8-2.8C1248,283.3,1246.6,281.9,1245.2,281.9z"/>
				<path id="XMLID_290_" class="st1" d="M1212.2,290.7c-3.2,0-6-2.5-6-6s2.5-6,6-6s6,2.5,6,6S1215.4,290.7,1212.2,290.7z
					 M1212.2,281.9c-1.4,0-2.8,1.4-2.8,2.8c0,1.4,1.4,2.8,2.8,2.8c1.4,0,2.8-1.4,2.8-2.8C1215,283.3,1213.6,281.9,1212.2,281.9z"/>
				<path id="XMLID_289_" class="st1" d="M1239.5,280.4L1239.5,280.4c-2.8,0-17.4-0.4-21.3-2.5c-3.9-2.5-5-6.4-5-6.7
					c0-0.7,0.4-1.8,1.1-1.8s1.8,0.4,1.8,1.1c0,0,0.7,2.8,3.5,4.6c2.1,1.4,13.1,2.1,19.5,2.1c0.7,0,1.4,0.7,1.4,1.4
					C1240.9,279.7,1240.2,280.4,1239.5,280.4z"/>
				<path id="XMLID_191_" class="st1" d="M1240.6,286.1h-24.5c-0.7,0-1.4-0.7-1.4-1.4c0-0.7,0.7-1.4,1.4-1.4h24.5
					c0.7,0,1.4,0.7,1.4,1.4C1242,285.4,1241.6,286.1,1240.6,286.1z"/>
				<path id="XMLID_190_" class="st1" d="M1250.8,286.1c-0.4,0-0.7,0-0.7,0c-0.7,0-1.4-0.7-1.4-1.8c0-0.7,0.7-1.4,1.8-1.4
					c1.4,0,3.2-0.4,3.9-1.1c0,0,0.4-0.4,0.4-0.7l0,0c0.4-5-4.3-5.7-9.6-6.4c-1.1,0-1.8-0.4-2.5-0.4c-0.7-0.4-1.4-1.1-1.1-1.8
					c0.3-0.7,1.1-1.4,1.8-1.1c0.4,0,1.4,0.4,2.1,0.4c4.3,0.4,12.8,1.4,12.4,9.6c0,1.1-0.4,2.1-1.4,2.8
					C1255.1,285.4,1253,286.1,1250.8,286.1z"/>
			</g>
			<g id="XMLID_184_">
				<path id="XMLID_186_" class="st1" d="M1198.4,300.3c-0.4,0-1.1-0.4-1.1-0.7c-9.2-13.1-9.2-30.5,0-43.2c0.4-0.7,1.4-0.7,2.1-0.4
					c0.7,0.3,0.7,1.4,0.4,2.1c-8.5,12.1-8.5,28,0,39.7c0.4,0.7,0.4,1.8-0.4,2.1C1199.1,299.9,1198.7,300.3,1198.4,300.3z"/>
				<path id="XMLID_185_" class="st1" d="M1228.2,315.5c-7.4,0-15.2-2.1-21.6-6.7c-0.7-0.4-0.7-1.4-0.4-2.1c0.3-0.7,1.4-0.7,2.1-0.4
					c12.1,8.5,28,8.5,39.7,0c0.7-0.4,1.8-0.4,2.1,0.4s0.4,1.8-0.4,2.1C1243.4,313.4,1235.6,315.5,1228.2,315.5z"/>
			</g>
			<g id="XMLID_181_">
				<path id="XMLID_183_" class="st1" d="M1249.1,249.6c-0.4,0-0.7,0-0.7-0.4c-12.1-8.5-28-8.5-39.7,0c-0.7,0.4-1.8,0.4-2.1-0.4
					c-0.4-0.7-0.4-1.8,0.4-2.1c13.1-9.2,30.5-9.2,43.2,0c0.7,0.4,0.7,1.4,0.4,2.1C1249.8,249.6,1249.4,249.6,1249.1,249.6z"/>
				<path id="XMLID_182_" class="st1" d="M1257.9,300.3c-0.4,0-0.7,0-0.7-0.4c-0.7-0.4-0.7-1.4-0.4-2.1c8.5-12.1,8.5-28,0-39.7
					c-0.4-0.7-0.4-1.8,0.4-2.1c0.7-0.4,1.8-0.4,2.1,0.4c9.2,13.1,9.2,30.5,0,43.2C1258.6,299.9,1258.3,300.3,1257.9,300.3z"/>
			</g>
			<circle id="XMLID_180_" class="st1" cx="1256.5" cy="300.6" r="3.2"/>
			<circle id="XMLID_179_" class="st1" cx="1199.8" cy="255.3" r="3.2"/>
			<circle id="XMLID_178_" class="st1" cx="1250.8" cy="249.6" r="3.2"/>
			<circle id="XMLID_177_" class="st1" cx="1205.5" cy="306.3" r="3.2"/>
		</g>
	</g>
</g>
</svg>
