<?xml version="1.0" encoding="utf-8"?>
<!-- Generator: Adobe Illustrator 19.0.0, SVG Export Plug-In . SVG Version: 6.00 Build 0)  -->
<svg version="1.1" id="Layer_1" xmlns="http://www.w3.org/2000/svg" xmlns:xlink="http://www.w3.org/1999/xlink" x="0px" y="0px"
	 viewBox="412 -141.7 1666.1 877" style="enable-background:new 412 -141.7 1666.1 877;" xml:space="preserve">
<style type="text/css">
	.st0{fill:#00B700;}
	.st1{fill:#FFFFFF;}
</style>
<g>
	<g id="XMLID_3591_">
		<g id="XMLID_3602_">
			<path id="XMLID_3612_" class="st0" d="M1061.2,693.8c-39.7,0-45.9-7.3-48-10.4c-11.5-12.5-12.5-53.3-7.3-74.1
				c3.1-14.6,9.4-24,18.8-28.2c10.4-4.2,18.8-7.3,25.1-9.4c7.3-2.1,12.5-4.2,15.7-7.3l3.1-2.1c25.1-17.8,52.2-35.5,70-37.6
				c1,0,121.1-10.4,147.2,2.1c7.3,4.2,17.8,9.4,29.2,16.7c17.8,10.4,39.7,24,54.3,28.2c4.2,1,9.4,2.1,16.7,3.1
				c33.4,4.2,103.4,12.5,101.3,84.6v1c-3.1,29.2-36.5,31.3-66.8,31.3c-7.3,0-12.5-5.2-12.5-12.5s5.2-12.5,12.5-12.5
				c27.2,0,40.7-3.1,41.8-8.4c1-44.9-37.6-53.3-79.4-58.5c-8.4-1-14.6-2.1-20.9-3.1c-17.8-5.2-40.7-18.8-60.6-31.3
				c-10.4-6.3-19.8-12.5-27.2-15.7c-13.6-6.3-101.3-3.1-133.7,0c-6.3,1-20.9,7.3-58.5,33.4l-3.1,2.1c-6.3,4.2-13.6,7.3-21.9,10.4
				c-6.3,2.1-13.6,5.2-23,9.4c-7.3,5.2-8.4,49.1-2.1,61.6c6.3,2.1,21.9,3.1,37.6,2.1c6.3,0,12.5,5.2,12.5,12.5s-5.2,12.5-12.5,12.5
				C1066.4,693.8,1063.3,693.8,1061.2,693.8z"/>
			<path id="XMLID_3609_" class="st0" d="M1382.8,728.3c-26.1,0-48-21.9-48-48s21.9-48,48-48s48,21.9,48,48
				C1430.9,706.4,1408.9,728.3,1382.8,728.3z M1382.8,657.3c-12.5,0-23,10.4-23,23c0,12.5,10.4,23,23,23c12.5,0,23-10.4,23-23
				S1395.3,657.3,1382.8,657.3z"/>
			<path id="XMLID_3606_" class="st0" d="M1113.4,728.3c-26.1,0-48-21.9-48-48s21.9-48,48-48s48,21.9,48,48
				S1140.5,728.3,1113.4,728.3z M1113.4,657.3c-12.5,0-23,10.4-23,23c0,12.5,10.4,23,23,23s23-10.4,23-23S1125.9,657.3,1113.4,657.3
				z"/>
			<path id="XMLID_3605_" class="st0" d="M1336.9,644.8L1336.9,644.8c-24,0-143.1-2.1-172.3-20.9c-32.4-19.8-38.6-52.2-39.7-54.3
				c-1-6.3,3.1-13.6,9.4-14.6s13.6,3.1,14.6,9.4c0,1,6.3,24,28.2,37.6c17.8,11.5,107.6,16.7,158.7,16.7c7.3,0,12.5,5.2,12.5,12.5
				C1349.4,639.5,1343.1,644.8,1336.9,644.8z"/>
			<path id="XMLID_3604_" class="st0" d="M1347.3,691.8h-198.4c-7.3,0-12.5-5.2-12.5-12.5s5.2-12.5,12.5-12.5h198.4
				c7.3,0,12.5,5.2,12.5,12.5C1358.8,686.5,1353.6,691.8,1347.3,691.8z"/>
			<path id="XMLID_3603_" class="st0" d="M1430.9,692.8c-2.1,0-5.2,0-7.3,0c-7.3-1-11.5-7.3-11.5-13.6c1-7.3,7.3-11.5,13.6-11.5
				c11.5,1,26.1-3.1,32.4-8.4c1-1,3.1-3.1,3.1-5.2c0,0,0,0,0-1c2.1-39.7-36.5-47-78.3-53.3c-8.4-1-15.7-2.1-20.9-3.1
				c-6.3-2.1-10.4-8.4-8.4-15.7c2.1-6.3,8.4-10.4,15.7-8.4c4.2,1,10.4,2.1,17.8,3.1c33.4,4.2,103.4,12.5,100.2,78.3
				c0,8.4-4.2,16.7-11.5,23C1465.3,686.5,1447.6,692.8,1430.9,692.8z"/>
		</g>
	</g>
	<g id="XMLID_498_">
		<g id="XMLID_510_">
			<path id="XMLID_511_" class="st0" d="M1907.9,347.7c50.7-29.3,115.6-11.9,144.9,38.8s11.9,115.6-38.8,144.9
				c-50.7,29.3-115.6,11.9-144.9-38.8C1839.8,441.8,1857.1,377,1907.9,347.7z"/>
		</g>
		<g id="XMLID_499_">
			<path id="XMLID_504_" class="st1" d="M2020.5,414.1h-32.3c-1.8-5.5-4.9-10.7-9.2-15.1c-7.2-7.2-16.8-11.2-27.1-11.2
				c-10.2,0-19.8,4-27.1,11.2c-4.3,4.3-7.4,9.5-9.3,15.1h-14.2c-2.6,0-4.8,2.1-4.8,4.8c0,0,0,0,0,0.1v60.6c0,2.7,2.2,4.8,4.8,4.8
				h119.1c2.7,0,4.8-2.2,4.8-4.8V419C2025.3,416.3,2023.2,414.1,2020.5,414.1z M1927.5,401.8c6.5-6.5,15.1-10.1,24.3-10.1
				c9.2,0,17.8,3.6,24.3,10.1c3.6,3.6,6.2,7.8,7.9,12.3h-4.4c-1.3-2.7-3-5.2-5.2-7.4c-5.2-5.2-12-8-19.4-8c-7.3,0-14.2,2.8-19.4,8
				c-10.1,10.1-10.8,25.9-1.7,36.9c0.4,0.4,0.9,0.7,1.4,0.7c0.6,0,1.1-0.2,1.5-0.6l2.8-2.8l3.5,18.6l-18.6-3.5l2.9-2.9
				c0.4-0.4,0.6-0.9,0.6-1.4s-0.2-1-0.6-1.4c-6.5-6.5-10.1-15.1-10.1-24.3C1917.5,416.9,1921.1,408.3,1927.5,401.8z M1913.6,427.3
				c0.2,7.9,2.9,15.5,7.6,21.7c0.7,0.9,1.5,1.9,2.3,2.7l-4.1,4.1c-0.5,0.5-0.7,1.3-0.5,2s0.8,1.2,1.5,1.3l25,4.7c0.1,0,0.2,0,0.3,0
				c0.5,0,1-0.2,1.4-0.6c0.5-0.5,0.7-1.1,0.5-1.8l-4.7-25c-0.1-0.7-0.6-1.3-1.3-1.5c-0.7-0.2-1.4,0-2,0.5l-3.9,3.9
				c-2.6-3.7-3.9-7.9-4.1-12.1h80l0.1,0.1l-0.1,43.7l-101.5-0.1v-43.3c0-0.1,0.1-0.3,0.1-0.4L1913.6,427.3L1913.6,427.3z
				 M1938.5,409.5c4.4-4.4,10.3-6.9,16.6-6.9c6.3,0,12.2,2.4,16.6,6.9c1.4,1.4,2.5,3,3.5,4.6h-40.3
				C1935.9,412.5,1937.1,410.9,1938.5,409.5z M2021.4,479.5c0,0.5-0.4,0.9-0.9,0.9h-119.1c-0.5,0-0.9-0.4-0.9-0.9v-60.6
				c0-0.5,0.4-0.9,0.9-0.9h13.1c-0.4,1.8-0.6,3.6-0.7,5.4h-3.5c-2.2,0-4,1.8-4,4v0.1v43.6c0,2.2,1.8,4,4,4h101.4c2.2,0,4-1.8,4-4
				v-43.6c0-2.2-1.8-4-4-4h-79.8c0.2-1.8,0.6-3.6,1.3-5.4h87.4c0.5,0,0.9,0.4,0.9,0.9v60.5H2021.4z"/>
			<path id="XMLID_503_" class="st1" d="M1960.9,458.8c-2.4,0-4.4-1.7-4.4-3.8c0-1.1-0.9-2-2-2s-2,0.9-2,2c0,3.6,2.7,6.6,6.3,7.5
				v1.4c0,1.1,0.9,1.9,2,1.9s2-0.9,2-1.9v-1.4c3.6-0.8,6.3-3.8,6.3-7.5s-2.2-7.7-8.3-7.7c-2.9,0-4.4-1.2-4.4-3.8
				c0-2.1,2-3.8,4.4-3.8s4.4,1.7,4.4,3.8c0,1.1,0.9,1.9,2,1.9s2-0.9,2-1.9c0-3.6-2.7-6.6-6.3-7.5v-1.4c0-1.1-0.9-2-2-2s-2,0.9-2,2
				v1.4c-3.6,0.8-6.3,3.8-6.3,7.5s2.2,7.7,8.3,7.7c2.9,0,4.4,1.2,4.4,3.8C1965.3,457.1,1963.3,458.8,1960.9,458.8z"/>
			<path id="XMLID_500_" class="st1" d="M1990.1,458c4.8,0,8.8-3.9,8.8-8.8c0-4.8-3.9-8.8-8.8-8.8s-8.8,3.9-8.8,8.8
				C1981.3,454.1,1985.2,458,1990.1,458z M1990.1,444.4c2.7,0,4.9,2.2,4.9,4.9s-2.2,4.9-4.9,4.9c-2.7,0-4.9-2.2-4.9-4.9
				C1985.2,446.5,1987.4,444.4,1990.1,444.4z"/>
		</g>
	</g>
	<g id="XMLID_472_">
		<g id="XMLID_496_">
			<path id="XMLID_497_" class="st0" d="M884.8,59.6c50.7,29.3,68.1,94.2,38.8,144.9s-94.2,68.1-144.9,38.8s-68.1-94.2-38.8-144.9
				C769.2,47.7,834.1,30.3,884.8,59.6z"/>
		</g>
		<g id="XMLID_473_">
			<g id="XMLID_474_">
				<g id="XMLID_485_">
					<path id="XMLID_495_" class="st1" d="M790.6,167.5c-9.1,0-10.4-1.3-11-1.9c-2.6-2.6-2.6-11.7-1.9-16.9c0.6-3.2,1.9-5.2,3.9-6.5
						c2.6-1.3,3.9-1.9,5.8-1.9c1.9-0.6,2.6-0.6,3.9-1.3l0.6-0.6c5.8-3.9,11.7-7.8,15.6-8.4c0,0,27.2-2.6,33.1,0.6
						c1.9,0.6,3.9,1.9,6.5,3.9c3.9,2.6,9.1,5.2,12.3,6.5c0.6,0,1.9,0.6,3.9,0.6c7.8,0.6,23.4,2.6,22.7,18.8l0,0
						c-0.6,6.5-7.8,7.1-14.9,7.1c-1.3,0-2.6-1.3-2.6-2.6s1.3-2.6,2.6-2.6c5.8,0,9.1-0.6,9.7-1.9c0-9.7-8.4-11.7-17.5-13
						c-1.9,0-3.2-0.6-4.5-0.6c-3.9-1.3-9.1-3.9-13.6-7.1c-2.6-1.3-4.5-2.6-5.8-3.2c-3.2-1.3-22.7-0.6-29.8,0c-1.3,0-4.5,1.3-13,7.1
						l-0.6,0.6c-1.3,1.3-3.2,1.3-5.2,1.9c-1.3,0.6-3.2,1.3-5.2,1.9c-1.9,1.3-1.9,11-0.6,13.6c1.3,0.6,5.2,0.6,8.4,0.6
						c1.3,0,2.6,1.3,2.6,2.6c0,1.3-1.3,2.6-2.6,2.6C791.2,167.5,790.6,167.5,790.6,167.5z"/>
					<path id="XMLID_492_" class="st1" d="M862.6,175.3c-5.8,0-11-4.5-11-11s4.5-11,11-11s11,4.5,11,11S868.4,175.3,862.6,175.3z
						 M862.6,159.1c-2.6,0-5.2,2.6-5.2,5.2s2.6,5.2,5.2,5.2c2.6,0,5.2-2.6,5.2-5.2C867.8,161.7,865.2,159.1,862.6,159.1z"/>
					<path id="XMLID_489_" class="st1" d="M802.3,175.3c-5.8,0-11-4.5-11-11s4.5-11,11-11s11,4.5,11,11S808.1,175.3,802.3,175.3z
						 M802.3,159.1c-2.6,0-5.2,2.6-5.2,5.2s2.6,5.2,5.2,5.2s5.2-2.6,5.2-5.2S804.9,159.1,802.3,159.1z"/>
					<path id="XMLID_488_" class="st1" d="M852.2,156.5L852.2,156.5c-5.2,0-31.8-0.6-38.9-4.5c-7.1-4.5-9.1-11.7-9.1-12.3
						c0-1.3,0.6-3.2,1.9-3.2c1.3,0,3.2,0.6,3.2,1.9c0,0,1.3,5.2,6.5,8.4c3.9,2.6,24,3.9,35.7,3.9c1.3,0,2.6,1.3,2.6,2.6
						C854.8,155.2,853.5,156.5,852.2,156.5z"/>
					<path id="XMLID_487_" class="st1" d="M854.2,166.9h-44.8c-1.3,0-2.6-1.3-2.6-2.6s1.3-2.6,2.6-2.6h44.8c1.3,0,2.6,1.3,2.6,2.6
						S856.1,166.9,854.2,166.9z"/>
					<path id="XMLID_486_" class="st1" d="M873,166.9c-0.6,0-1.3,0-1.3,0c-1.3,0-2.6-1.3-2.6-3.2c0-1.3,1.3-2.6,3.2-2.6
						c2.6,0,5.8-0.6,7.1-1.9c0,0,0.6-0.6,0.6-1.3l0,0c0.6-9.1-7.8-10.4-17.5-11.7c-1.9,0-3.2-0.6-4.5-0.6c-1.3-0.6-2.6-1.9-1.9-3.2
						c0.6-1.3,1.9-2.6,3.2-1.9c0.6,0,2.6,0.6,3.9,0.6c7.8,0.6,23.4,2.6,22.7,17.5c0,1.9-0.6,3.9-2.6,5.2
						C880.8,165.6,876.9,166.9,873,166.9z"/>
				</g>
				<g id="XMLID_482_">
					<path id="XMLID_484_" class="st1" d="M777,192.8c-0.6,0-1.9-0.6-1.9-1.3c-16.9-24-16.9-55.8,0-79.2c0.6-1.3,2.6-1.3,3.9-0.6
						c1.3,0.6,1.3,2.6,0.6,3.9c-15.6,22.1-15.6,51.3,0,72.7c0.6,1.3,0.6,3.2-0.6,3.9C778.3,192.2,777.6,192.8,777,192.8z"/>
					<path id="XMLID_483_" class="st1" d="M831.5,220.7c-13.6,0-27.9-3.9-39.6-12.3c-1.3-0.6-1.3-2.6-0.6-3.9
						c0.6-1.3,2.6-1.3,3.9-0.6c22.1,15.6,51.3,15.6,72.7,0c1.3-0.6,3.2-0.6,3.9,0.6c0.6,1.3,0.6,3.2-0.6,3.9
						C859.4,216.8,845.1,220.7,831.5,220.7z"/>
				</g>
				<g id="XMLID_479_">
					<path id="XMLID_481_" class="st1" d="M869.7,100c-0.6,0-1.3,0-1.3-0.6c-22.1-15.6-51.3-15.6-72.7,0c-1.3,0.6-3.2,0.6-3.9-0.6
						c-0.7-1.2-0.6-3.2,0.6-3.9c24-16.9,55.8-16.9,79.2,0c1.3,0.6,1.3,2.6,0.6,3.9C871,100,870.4,100,869.7,100z"/>
					<path id="XMLID_480_" class="st1" d="M886,192.8c-0.6,0-1.3,0-1.3-0.6c-1.3-0.6-1.3-2.6-0.6-3.9c15.6-22.1,15.6-51.3,0-72.7
						c-0.6-1.3-0.6-3.2,0.6-3.9c1.3-0.6,3.2-0.6,3.9,0.6c16.9,24,16.9,55.8,0,79.2C887.3,192.2,886.6,192.8,886,192.8z"/>
				</g>
				<circle id="XMLID_478_" class="st1" cx="883.4" cy="193.5" r="5.8"/>
				<circle id="XMLID_477_" class="st1" cx="779.6" cy="110.4" r="5.8"/>
				<circle id="XMLID_476_" class="st1" cx="873" cy="100" r="5.8"/>
				<circle id="XMLID_475_" class="st1" cx="789.9" cy="203.9" r="5.8"/>
			</g>
		</g>
	</g>
	<g id="XMLID_326_">
		<g id="XMLID_470_">
			<path id="XMLID_471_" class="st0" d="M1566.5,98.5c29.3-50.7,94.2-68.1,144.9-38.8c50.7,29.3,68.1,94.2,38.8,144.9
				c-29.3,50.7-94.2,68.1-144.9,38.8S1537.2,149.3,1566.5,98.5z"/>
		</g>
		<g id="XMLID_327_">
			<path id="XMLID_461_" class="st1" d="M1654,153.4c-3.4,0-6.5,1.3-8.8,3.4v-14.4c0-3.7-3-6.6-6.6-6.6h-30.9c-3.7,0-6.6,3-6.6,6.6
				v18.1c-0.7-0.2-1.4-0.4-2.2-0.4c-3.7,0-6.6,3-6.6,6.6c0,1.7,0.7,3.2,1.7,4.4c-1.1,1.2-1.7,2.7-1.7,4.4c0,1.7,0.7,3.2,1.7,4.4
				c-1.1,1.2-1.7,2.7-1.7,4.4c0,1.7,0.7,3.2,1.7,4.4c-1.1,1.2-1.7,2.7-1.7,4.4c0,3.7,3,6.6,6.6,6.6c0.8,0,1.5-0.2,2.2-0.4v0.4
				c0,3.7,3,6.6,6.6,6.6h4.4v14h4.4v-13.9h22.1c3.7,0,6.6-3,6.6-6.6v-26.5v-6.6c0-4.1,2.8-7.6,6.6-8.5v62.1h4.4v-64.6
				C1656.2,154.4,1655.2,153.4,1654,153.4z M1607.6,140.2h30.9c1.2,0,2.2,1,2.2,2.2v4.4h-35.3v-4.4
				C1605.4,141.2,1606.4,140.2,1607.6,140.2z M1596.6,184.3c0-1.2,1-2.2,2.2-2.2s2.2,1,2.2,2.2s-1,2.2-2.2,2.2
				S1596.6,185.6,1596.6,184.3z M1596.6,175.5c0-1.2,1-2.2,2.2-2.2s2.2,1,2.2,2.2s-1,2.2-2.2,2.2S1596.6,176.7,1596.6,175.5z
				 M1598.8,164.5c1.2,0,2.2,1,2.2,2.2s-1,2.2-2.2,2.2s-2.2-1-2.2-2.2C1596.6,165.5,1597.6,164.5,1598.8,164.5z M1598.8,195.4
				c-1.2,0-2.2-1-2.2-2.2s1-2.2,2.2-2.2s2.2,1,2.2,2.2S1600,195.4,1598.8,195.4z M1638.5,202h-30.9c-1.2,0-2.2-1-2.2-2.2v-4.4h35.3
				v4.4C1640.7,201,1639.7,202,1638.5,202z M1640.7,191h-35.3v-39.7h35.3v15.4v6.6V191z"/>
			<path id="XMLID_458_" class="st1" d="M1687.1,82.8c-20.7,0-37.5,16.8-37.5,37.5s16.8,37.5,37.5,37.5s37.5-16.8,37.5-37.5
				S1707.8,82.8,1687.1,82.8z M1687.1,153.4c-18.3,0-33.1-14.9-33.1-33.1s14.8-33.1,33.1-33.1c18.3,0,33.1,14.9,33.1,33.1
				S1705.3,153.4,1687.1,153.4z"/>
			<rect id="XMLID_457_" x="1623.1" y="109.3" class="st1" width="4.4" height="4.4"/>
			<rect id="XMLID_456_" x="1631.9" y="109.3" class="st1" width="4.4" height="4.4"/>
			<rect id="XMLID_455_" x="1640.7" y="109.3" class="st1" width="4.4" height="4.4"/>
			<rect id="XMLID_434_" x="1614.2" y="109.3" class="st1" width="4.4" height="4.4"/>
			<rect id="XMLID_433_" x="1614.2" y="118.1" class="st1" width="4.4" height="4.4"/>
			<rect id="XMLID_432_" x="1614.2" y="127" class="st1" width="4.4" height="4.4"/>
			<rect id="XMLID_431_" x="1669.4" y="193.2" class="st1" width="4.4" height="4.4"/>
			<rect id="XMLID_430_" x="1660.6" y="193.2" class="st1" width="4.4" height="4.4"/>
			<rect id="XMLID_429_" x="1678.2" y="193.2" class="st1" width="4.4" height="4.4"/>
			<rect id="XMLID_428_" x="1687.1" y="193.2" class="st1" width="4.4" height="4.4"/>
			<rect id="XMLID_427_" x="1695.9" y="193.2" class="st1" width="4.4" height="4.4"/>
			<rect id="XMLID_426_" x="1704.7" y="193.2" class="st1" width="4.4" height="4.4"/>
			<rect id="XMLID_425_" x="1704.7" y="184.3" class="st1" width="4.4" height="4.4"/>
			<rect id="XMLID_424_" x="1704.7" y="175.5" class="st1" width="4.4" height="4.4"/>
			<rect id="XMLID_423_" x="1704.7" y="166.7" class="st1" width="4.4" height="4.4"/>
			<rect id="XMLID_422_" x="1704.7" y="157.9" class="st1" width="4.4" height="4.4"/>
			<path id="XMLID_421_" class="st1" d="M1620.9,172.4l-5.1-5.1l-3.1,3.1l6.6,6.6c0.4,0.4,1,0.6,1.6,0.6s1.1-0.2,1.6-0.6l13.2-13.2
				l-3.1-3.1L1620.9,172.4z"/>
			<g id="XMLID_328_">
				<g id="XMLID_329_">
					<g id="XMLID_340_">
						<path id="XMLID_420_" class="st1" d="M1670.7,126.7c-3.6,0-4.1-0.5-4.4-0.8c-1-1-1-4.6-0.8-6.7c0.3-1.3,0.8-2.1,1.5-2.6
							c1-0.5,1.5-0.8,2.3-0.8c0.8-0.3,1-0.3,1.5-0.5l0.3-0.3c2.3-1.5,4.6-3.1,6.2-3.3c0,0,10.8-1,13.1,0.3c0.8,0.3,1.5,0.8,2.6,1.5
							c1.5,1,3.6,2.1,4.9,2.6c0.3,0,0.8,0.3,1.5,0.3c3.1,0.3,9.3,1,9,7.5l0,0c-0.3,2.6-3.1,2.8-5.9,2.8c-0.5,0-1-0.5-1-1s0.5-1,1-1
							c2.3,0,3.6-0.3,3.9-0.8c0-3.9-3.3-4.6-6.9-5.1c-0.8,0-1.3-0.3-1.8-0.3c-1.5-0.5-3.6-1.5-5.4-2.8c-1-0.5-1.8-1-2.3-1.3
							c-1.3-0.5-9-0.3-11.8,0c-0.5,0-1.8,0.5-5.1,2.8l-0.3,0.3c-0.5,0.5-1.3,0.5-2.1,0.8c-0.5,0.3-1.3,0.5-2.1,0.8
							c-0.8,0.5-0.8,4.4-0.3,5.4c0.5,0.3,2.1,0.3,3.3,0.3c0.5,0,1,0.5,1,1s-0.5,1-1,1C1671,126.7,1670.7,126.7,1670.7,126.7z"/>
						<path id="XMLID_414_" class="st1" d="M1699.3,129.8c-2.3,0-4.4-1.8-4.4-4.4s1.8-4.4,4.4-4.4s4.4,1.8,4.4,4.4
							C1703.7,128,1701.6,129.8,1699.3,129.8z M1699.3,123.4c-1,0-2.1,1-2.1,2.1c0,1,1,2.1,2.1,2.1s2.1-1,2.1-2.1
							C1701.3,124.4,1700.3,123.4,1699.3,123.4z"/>
						<path id="XMLID_401_" class="st1" d="M1675.4,129.8c-2.3,0-4.4-1.8-4.4-4.4s1.8-4.4,4.4-4.4s4.4,1.8,4.4,4.4
							C1679.7,128,1677.7,129.8,1675.4,129.8z M1675.4,123.4c-1,0-2.1,1-2.1,2.1c0,1,1,2.1,2.1,2.1c1,0,2.1-1,2.1-2.1
							C1677.4,124.4,1676.4,123.4,1675.4,123.4z"/>
						<path id="XMLID_400_" class="st1" d="M1695.2,122.3L1695.2,122.3c-2.1,0-12.6-0.3-15.4-1.8c-2.8-1.8-3.6-4.6-3.6-4.9
							c0-0.5,0.3-1.3,0.8-1.3s1.3,0.3,1.3,0.8c0,0,0.5,2.1,2.6,3.3c1.5,1,9.5,1.5,14.2,1.5c0.5,0,1,0.5,1,1
							C1696.2,121.8,1695.7,122.3,1695.2,122.3z"/>
						<path id="XMLID_342_" class="st1" d="M1695.9,126.5h-17.8c-0.5,0-1-0.5-1-1s0.5-1,1-1h17.8c0.5,0,1,0.5,1,1
							S1696.7,126.5,1695.9,126.5z"/>
						<path id="XMLID_341_" class="st1" d="M1703.4,126.5c-0.3,0-0.5,0-0.5,0c-0.5,0-1-0.5-1-1.3c0-0.5,0.5-1,1.3-1
							c1,0,2.3-0.3,2.8-0.8c0,0,0.3-0.3,0.3-0.5l0,0c0.3-3.6-3.1-4.1-6.9-4.6c-0.8,0-1.3-0.3-1.8-0.3c-0.5-0.3-1-0.8-0.8-1.3
							c0.3-0.5,0.8-1,1.3-0.8c0.3,0,1,0.3,1.5,0.3c3.1,0.3,9.3,1,9,6.9c0,0.8-0.3,1.5-1,2.1C1706.5,125.9,1704.9,126.5,1703.4,126.5
							z"/>
					</g>
					<g id="XMLID_337_">
						<path id="XMLID_339_" class="st1" d="M1665.3,136.7c-0.3,0-0.8-0.3-0.8-0.5c-6.7-9.5-6.7-22.1,0-31.4c0.3-0.5,1-0.5,1.5-0.3
							s0.5,1,0.3,1.5c-6.2,8.7-6.2,20.3,0,28.8c0.3,0.5,0.3,1.3-0.3,1.5C1665.8,136.5,1665.6,136.7,1665.3,136.7z"/>
						<path id="XMLID_338_" class="st1" d="M1686.9,147.8c-5.4,0-11.1-1.5-15.7-4.9c-0.5-0.3-0.5-1-0.3-1.5c0.3-0.5,1-0.5,1.5-0.3
							c8.7,6.2,20.3,6.2,28.8,0c0.5-0.3,1.3-0.3,1.5,0.3c0.3,0.5,0.3,1.3-0.3,1.5C1698,146.3,1692.3,147.8,1686.9,147.8z"/>
					</g>
					<g id="XMLID_334_">
						<path id="XMLID_336_" class="st1" d="M1702.1,99.9c-0.3,0-0.5,0-0.5-0.3c-8.7-6.2-20.3-6.2-28.8,0c-0.5,0.3-1.3,0.3-1.5-0.3
							s-0.3-1.3,0.3-1.5c9.5-6.7,22.1-6.7,31.4,0c0.5,0.3,0.5,1,0.3,1.5C1702.6,99.9,1702.4,99.9,1702.1,99.9z"/>
						<path id="XMLID_335_" class="st1" d="M1708.5,136.7c-0.3,0-0.5,0-0.5-0.3c-0.5-0.3-0.5-1-0.3-1.5c6.2-8.7,6.2-20.3,0-28.8
							c-0.3-0.5-0.3-1.3,0.3-1.5s1.3-0.3,1.5,0.3c6.7,9.5,6.7,22.1,0,31.4C1709.1,136.5,1708.8,136.7,1708.5,136.7z"/>
					</g>
					<circle id="XMLID_333_" class="st1" cx="1707.5" cy="137" r="2.3"/>
					<circle id="XMLID_332_" class="st1" cx="1666.3" cy="104.1" r="2.3"/>
					<circle id="XMLID_331_" class="st1" cx="1703.4" cy="99.9" r="2.3"/>
					<circle id="XMLID_330_" class="st1" cx="1670.5" cy="141.1" r="2.3"/>
				</g>
			</g>
		</g>
	</g>
	<g id="XMLID_251_">
		<g id="XMLID_319_">
			<path id="XMLID_320_" class="st0" d="M529.2,333.5c58.6,0,106.1,47.5,106.1,106.1s-47.5,106.1-106.1,106.1
				s-106.1-47.5-106.1-106.1S470.6,333.5,529.2,333.5z"/>
		</g>
		<g id="XMLID_252_">
			<path id="XMLID_318_" class="st0" d="M532.4,444.7h-11.7v26h12.6c10.8,0,15.7-3.9,15.7-12.8C549,449.5,543,444.7,532.4,444.7z"/>
			<path id="XMLID_316_" class="st0" d="M545.2,420.4c0-8.2-4.2-11.8-13.5-11.8h-11v24.3H532C540.9,432.8,545.2,428.8,545.2,420.4z"
				/>
			<path id="XMLID_277_" class="st0" d="M533.5,488.4h5.6v-8.7l1.2-0.2c13-1.8,20.2-9.4,20.2-21.5c0-9.3-4.9-15.9-13.5-18.3
				l-3.9-1.1l3.8-1.5c6.3-2.5,10-8.7,10-16.9c0-10.6-5.9-17.7-16.6-20l-1.1-0.2v-9.2h-5.6v8.7h-10.7v-8.7h-5.6v8.7H498v6.4h11.5
				v67.6H498v6.4h19.1v8.5h5.6v-8.5h10.7L533.5,488.4L533.5,488.4z M514.8,472.1c0,0.6-0.5,1-1,1c-0.6,0-1-0.5-1-1v-9.4
				c0-0.6,0.5-1,1-1c0.6,0,1,0.5,1,1V472.1z M514.8,453.2c0,0.6-0.5,1-1,1c-0.6,0-1-0.5-1-1v-28.3c0-0.6,0.5-1,1-1c0.6,0,1,0.5,1,1
				V453.2z M514.8,414.8c0,0.6-0.5,1-1,1c-0.6,0-1-0.5-1-1v-9.4c0-0.6,0.5-1,1-1c0.6,0,1,0.5,1,1V414.8z M552,446.1
				c0.4-0.4,1.1-0.3,1.4,0.2c2.8,3.5,4.1,7.9,3.7,13.1c-0.2,3.6-1.2,6.8-2.8,9.3c-0.2,0.3-0.5,0.5-0.9,0.5c-0.2,0-0.4-0.1-0.5-0.2
				c-0.5-0.3-0.6-0.9-0.3-1.4c1.4-2.3,2.3-5.1,2.5-8.4c0.3-4.7-0.8-8.6-3.3-11.7C551.5,447,551.6,446.4,552,446.1z M548,407.9
				c0.4-0.4,1.1-0.3,1.4,0.2c2.8,3.5,4.1,7.9,3.7,13.1c-0.2,3.6-1.2,6.8-2.8,9.3c-0.2,0.3-0.5,0.5-0.9,0.5c-0.2,0-0.4-0.1-0.5-0.2
				c-0.5-0.3-0.6-0.9-0.3-1.4c1.4-2.3,2.3-5.1,2.5-8.4c0.3-4.7-0.8-8.6-3.3-11.7C547.5,408.9,547.5,408.3,548,407.9z M518,405.9
				h13.7c10.9,0,16.2,4.8,16.2,14.5c0,9.9-5.5,15.1-15.9,15.1h-14V405.9z M533.4,473.4H518v-31.5h14.4c12.1,0,19.3,6,19.3,16
				C551.7,468.4,545.7,473.4,533.4,473.4z"/>
			<path id="XMLID_269_" class="st0" d="M529.2,367.6c-39.6,0-71.9,32.3-71.9,71.9c0,39.6,32.3,71.9,71.9,71.9s71.9-32.3,71.9-71.9
				S568.9,367.6,529.2,367.6z M482.1,480.4c-0.3,0.2-0.6,0.3-0.9,0.3c-0.4,0-0.8-0.2-1-0.5c-9.5-11.4-14.7-25.9-14.7-40.7
				c0-8.9,1.8-17.5,5.4-25.6c0.3-0.7,1.1-1,1.8-0.7c0.7,0.3,1,1.1,0.7,1.8c-3.4,7.7-5.1,16-5.1,24.5c0,14.2,5,28.1,14.1,39
				C482.8,479.1,482.7,480,482.1,480.4z M478.1,406.2c-0.3,0.4-0.7,0.6-1.1,0.6c-0.3,0-0.5-0.1-0.7-0.2c-0.6-0.4-0.8-1.3-0.4-1.9
				c11.9-18.1,31.8-28.9,53.4-28.9c13.4,0,26.2,4.1,37.1,11.9c0.6,0.4,0.8,1.3,0.3,1.9c-0.4,0.6-1.3,0.8-1.9,0.3
				c-10.4-7.5-22.7-11.4-35.5-11.4C508.6,378.5,489.5,388.8,478.1,406.2z M525.5,482.6v8.5h-11v-8.5h-19.2v-11.9h11.5v-62.2h-11.5
				v-11.9h19.1v-8.7h11v8.7h5.3v-8.7h11v9.8c11.2,2.8,17.7,10.9,17.7,22.4c0,7.9-3.2,14.4-8.8,17.9c7.9,3.4,12.5,10.6,12.5,19.8
				c0,13.1-7.8,21.8-21.4,24.1v9.1h-11v-8.5h-5.2V482.6z M579.6,478.6c-12.2,15.7-30.6,24.7-50.4,24.7c-14.1,0-27.5-4.5-38.7-13.1
				c-0.6-0.5-0.7-1.3-0.3-1.9c0.5-0.6,1.3-0.7,1.9-0.3c10.7,8.2,23.5,12.5,37,12.5c19,0,36.5-8.6,48.2-23.6c0.5-0.6,1.3-0.7,1.9-0.2
				C579.9,477.2,580,478,579.6,478.6z M585.3,468.3c-0.2,0-0.4,0-0.6-0.1c-0.7-0.3-0.9-1.1-0.6-1.8c4.1-8.4,6.2-17.4,6.2-26.8
				c0-14.8-5.4-29.1-15.2-40.3c-0.5-0.6-0.4-1.4,0.1-1.9c0.6-0.5,1.4-0.4,1.9,0.1c10.3,11.6,15.9,26.6,15.9,42.1
				c0,9.8-2.2,19.2-6.5,28C586.3,468,585.8,468.3,585.3,468.3z"/>
			<path id="XMLID_266_" class="st1" d="M529.2,364.9c-41.1,0-74.6,33.5-74.6,74.6s33.5,74.6,74.6,74.6c41.1,0,74.6-33.5,74.6-74.6
				S570.4,364.9,529.2,364.9z M529.2,511.4c-39.6,0-71.9-32.3-71.9-71.9c0-39.6,32.3-71.9,71.9-71.9s71.9,32.3,71.9,71.9
				C601.1,479.2,568.9,511.4,529.2,511.4z"/>
			<path id="XMLID_265_" class="st1" d="M564.7,389.9c0.6,0.4,1.5,0.3,1.9-0.3s0.3-1.5-0.3-1.9c-10.9-7.8-23.7-11.9-37.1-11.9
				c-21.5,0-41.5,10.8-53.4,28.9c-0.4,0.6-0.2,1.5,0.4,1.9c0.2,0.2,0.5,0.2,0.7,0.2c0.4,0,0.9-0.2,1.1-0.6
				c11.4-17.3,30.5-27.7,51.1-27.7C542,378.5,554.3,382.4,564.7,389.9z"/>
			<path id="XMLID_264_" class="st1" d="M468.2,439.5c0-8.5,1.7-16.8,5.1-24.5c0.3-0.7,0-1.5-0.7-1.8s-1.5,0-1.8,0.7
				c-3.6,8.1-5.4,16.7-5.4,25.6c0,14.8,5.2,29.3,14.7,40.7c0.3,0.3,0.7,0.5,1,0.5s0.6-0.1,0.9-0.3c0.6-0.5,0.7-1.3,0.2-1.9
				C473.2,467.6,468.2,453.8,468.2,439.5z"/>
			<path id="XMLID_263_" class="st1" d="M577.4,477c-11.7,15-29.3,23.6-48.2,23.6c-13.5,0-26.3-4.3-37-12.5
				c-0.6-0.5-1.4-0.3-1.9,0.3s-0.3,1.4,0.3,1.9c11.2,8.6,24.6,13.1,38.7,13.1c19.8,0,38.1-9,50.3-24.7c0.5-0.6,0.4-1.4-0.2-1.9
				C578.7,476.3,577.9,476.4,577.4,477z"/>
			<path id="XMLID_262_" class="st1" d="M577.1,397.5c-0.5-0.6-1.4-0.6-1.9-0.1c-0.6,0.5-0.6,1.4-0.1,1.9
				c9.8,11.2,15.2,25.5,15.2,40.3c0,9.4-2.1,18.4-6.2,26.8c-0.3,0.7-0.1,1.5,0.6,1.8c0.2,0.1,0.4,0.1,0.6,0.1c0.5,0,1-0.3,1.2-0.8
				c4.3-8.8,6.5-18.2,6.5-28C593,424.1,587.3,409.1,577.1,397.5z"/>
			<path id="XMLID_259_" class="st1" d="M541.8,491.1V482c13.6-2.3,21.4-11,21.4-24.1c0-9.3-4.6-16.5-12.5-19.8
				c5.5-3.5,8.8-10,8.8-17.9c0-11.5-6.4-19.6-17.7-22.4V388h-11v8.7h-5.3V388h-11v8.7h-19.2v11.9h11.5v62.2h-11.5v11.9h19.1v8.5h11
				v-8.5h5.3v8.5h11.1V491.1z M522.7,479.9v8.5h-5.6v-8.5H498v-6.4h11.5v-67.6H498v-6.4h19.1v-8.7h5.6v8.7h10.7v-8.7h5.6v9.2
				l1.1,0.2c10.7,2.3,16.6,9.4,16.6,20c0,8.2-3.6,14.4-10,16.9l-3.8,1.5l3.9,1.1c8.6,2.4,13.5,9,13.5,18.3
				c0,12.1-7.2,19.8-20.2,21.5l-1.2,0.2v8.7h-5.6v-8.5H522.7z"/>
			<path id="XMLID_256_" class="st1" d="M547.9,420.4c0-9.8-5.3-14.5-16.2-14.5H518v29.7h14C542.4,435.5,547.9,430.3,547.9,420.4z
				 M520.7,408.6h11c9.3,0,13.5,3.6,13.5,11.8c0,8.4-4.3,12.4-13.2,12.4h-11.3V408.6z"/>
			<path id="XMLID_253_" class="st1" d="M551.7,457.9c0-10-7.2-16-19.3-16H518v31.5h15.4C545.7,473.4,551.7,468.4,551.7,457.9z
				 M533.4,470.7h-12.6v-26h11.7c10.6,0,16.6,4.8,16.6,13.3C549,466.8,544.2,470.7,533.4,470.7z"/>
		</g>
	</g>
	<g id="XMLID_39_">
		<g id="XMLID_249_">
			<path id="XMLID_250_" class="st0" d="M1337-7.8c29.3,50.7,11.9,115.6-38.8,144.9c-50.7,29.3-115.6,11.9-144.9-38.8
				s-11.9-115.6,38.8-144.9S1307.7-58.6,1337-7.8z"/>
		</g>
		<g id="XMLID_40_">
			<g id="XMLID_230_">
				<path id="XMLID_248_" class="st0" d="M1259.5,93.2c-3.1,2.6-6.8,4.1-10.5,4.1h-4.5c-2.6-0.3-9.7-0.4-12.4,2
					c-0.8,0.7-1.1,1.5-1.1,2.5c0,0.9,0.3,1.6,1.1,2.3c3.1,2.9,11.9,3.3,15.1,3.2l20-1c0.6-0.1,1.1,0.4,1.1,1s-0.4,1.1-1,1.1l-20,1
					c-0.5,0-12.3,0.4-16.6-3.8c-1.1-1.1-1.7-2.4-1.7-3.8c0-1.6,0.6-3,1.9-4.1c0.5-0.4,1-0.8,1.7-1.1c-3.8-0.3-8.8-0.3-13,0.5
					c-3.3,0.7-6.7,0.8-10,0.5l-8.2-0.8c-0.1,0-0.2,0-0.3,0c-1.3,0-2.5,1-2.9,2.5c-0.4,1.8,0.5,3.6,2.2,4.1
					c13.5,3.8,45.3,12.9,49.7,14.5c4.4,1.6,23.7-5,36-10.1v-19C1283,87.5,1271,83.4,1259.5,93.2z"/>
				<path id="XMLID_244_" class="st0" d="M1287.9,85.8v1.5V109v1h11.2V85.8H1287.9z M1296.2,103.6c0,0.4-0.4,0.8-0.8,0.8
					s-0.8-0.4-0.8-0.8v-2.7c0-0.4,0.4-0.8,0.8-0.8s0.8,0.4,0.8,0.8V103.6z M1296.2,95.8c0,0.4-0.4,0.8-0.8,0.8s-0.8-0.4-0.8-0.8
					v-6.2c0-0.4,0.4-0.8,0.8-0.8s0.8,0.4,0.8,0.8V95.8z"/>
				<path id="XMLID_240_" class="st0" d="M1301.3,83.7v28.5v2.3h11.2v-33h-11.2V83.7z M1307.7,84.8c0-0.4,0.4-0.8,0.8-0.8
					s0.8,0.4,0.8,0.8v9.7c0,0.4-0.4,0.8-0.8,0.8s-0.8-0.4-0.8-0.8V84.8z M1307.7,100.3c0-0.4,0.4-0.8,0.8-0.8s0.8,0.4,0.8,0.8v4.8
					c0,0.4-0.4,0.8-0.8,0.8s-0.8-0.4-0.8-0.8V100.3z"/>
				<path id="XMLID_235_" class="st1" d="M1299.1,79.3v4.4h-13.3v2.7c-4.2-1.5-16.4-4.5-27.7,5.2c-2.7,2.3-5.9,3.5-9.1,3.5h-4.4
					c-0.2,0-3-0.3-6.2,0c-1.3-0.2-11.7-1.7-19.5-0.1c-3.1,0.6-6.3,0.8-9.4,0.5l-8.2-0.8c-2.6-0.2-4.8,1.5-5.5,4.1
					c-0.7,2.9,1,5.8,3.7,6.6c10.5,3,45.1,12.8,49.6,14.4c0.6,0.2,1.5,0.3,2.5,0.3c8.5,0,28.3-7.7,34.2-10.1v2.2h13.3v4.4h15.5V79.3
					L1299.1,79.3L1299.1,79.3z M1249.8,117.7c-4.4-1.6-36.2-10.7-49.7-14.5c-1.6-0.5-2.6-2.3-2.2-4.1c0.3-1.5,1.5-2.5,2.9-2.5
					c0.1,0,0.2,0,0.3,0l8.2,0.8c3.3,0.3,6.7,0.2,10-0.5c4.2-0.8,9.2-0.7,13-0.5c-0.6,0.3-1.2,0.7-1.7,1.1c-1.2,1.1-1.9,2.5-1.9,4.1
					c0,1.5,0.6,2.8,1.7,3.8c4.4,4.2,16.1,3.8,16.6,3.8l20-1c0.6,0,1-0.5,1-1.1s-0.5-1.1-1.1-1l-20,1c-3.1,0.1-12-0.3-15.1-3.2
					c-0.7-0.7-1.1-1.4-1.1-2.3c0-1,0.4-1.8,1.1-2.5c2.8-2.4,9.8-2.3,12.4-2h4.5c3.7,0,7.5-1.4,10.5-4.1c11.5-9.8,23.5-5.7,26.3-4.5
					v19C1273.5,112.7,1254.2,119.3,1249.8,117.7z M1287.9,110.1v-1V87.3v-1.5h11.2V110h-11.2V110.1z M1312.5,114.5h-11.2v-2.3V83.7
					v-2.3h11.2V114.5z"/>
				<path id="XMLID_234_" class="st1" d="M1308.5,105.9c0.4,0,0.8-0.4,0.8-0.8v-4.8c0-0.4-0.4-0.8-0.8-0.8s-0.8,0.4-0.8,0.8v4.8
					C1307.7,105.5,1308.1,105.9,1308.5,105.9z"/>
				<path id="XMLID_233_" class="st1" d="M1308.5,95.3c0.4,0,0.8-0.4,0.8-0.8v-9.7c0-0.4-0.4-0.8-0.8-0.8s-0.8,0.4-0.8,0.8v9.7
					C1307.7,94.9,1308.1,95.3,1308.5,95.3z"/>
				<path id="XMLID_232_" class="st1" d="M1295.4,100c-0.4,0-0.8,0.4-0.8,0.8v2.7c0,0.4,0.4,0.8,0.8,0.8s0.8-0.4,0.8-0.8v-2.7
					C1296.2,100.4,1295.9,100,1295.4,100z"/>
				<path id="XMLID_231_" class="st1" d="M1295.4,88.8c-0.4,0-0.8,0.4-0.8,0.8v6.2c0,0.4,0.4,0.8,0.8,0.8s0.8-0.4,0.8-0.8v-6.2
					C1296.2,89.2,1295.9,88.8,1295.4,88.8z"/>
			</g>
			<g id="XMLID_41_">
				<g id="XMLID_228_">
					<path id="XMLID_229_" class="st1" d="M1241.7,83.2L1241.7,83.2h-0.5c-2.4-0.1-5.9-0.5-9.5-1.8c-0.4-0.2-0.6-0.6-0.5-1
						c0.2-0.4,0.6-0.6,1-0.5c3.4,1.3,6.8,1.6,9,1.7h0.4c0.4,0,0.8,0.4,0.8,0.8C1242.5,82.9,1242.1,83.2,1241.7,83.2z"/>
				</g>
				<g id="XMLID_42_">
					<path id="XMLID_165_" class="st1" d="M1263.8,30.9c-0.8-1.6-1.7-3.3-2.6-5c-0.9-1.6-1.7-3.3-2.5-4.9c1.7-0.3,2.9-1.1,3.6-2.4
						c0.8-1.5,0.5-3.4,0.2-4.6c1.5-0.3,2.7-1,3.4-2.1c1.4-2.3,0.5-5.4,0.1-6.6c0.8-0.6,1.4-1.4,1.7-2.4c0.9-3.3-0.9-5.5-2.5-6.5
						c0.7-0.8,1.4-1.9,1.7-3.2c0.3-1.7-0.2-3.5-1.5-5.1c-1.2-1.5-2.6-2.3-4.3-2.4c-0.8-0.1-1.5,0.1-2.2,0.3c3.5-2.5,7.2-5.9,7.2-9.2
						c0-1.8-1.1-3.3-3.2-4.4c-6.4-3.3-8.6-1.8-11.1,0c-1.5,1.1-3.2,2.3-6.3,2.8c-4.6,0.8-7.5,0-9.2-0.9c-2.3-1.1-4.8-1.2-6.8-0.1
						c-2.3,1.3-2.9,2.9-2.9,4.1c-0.2,3.8,4.6,7.8,6.8,9.5c-0.1,0.2-0.3,0.3-0.4,0.4c-1,1.1-2,2.2-3.1,3.3c-3.7,3.6-11.5,3.2-14.2,3
						v-5.2h-15.2v-3.8h-24.9v47.7h24.9v-3.8h15.2v-4.1c4.6-1.7,8.4-3.8,11.6-5.9c-2.7,4.1-5.4,7.8-7.2,11.6
						c-3.1,6.2-6.7,16.5-6.4,30.6c0.2,10.2,4.2,17.7,11.8,22.3c5.9,3.5,12.4,4.3,15.7,4.4c0,0,0.3,0,0.8,0s0.8,0,0.8,0
						c6.4-0.2,27.1-2.9,27.6-26.6C1270.4,50.4,1268.2,39.8,1263.8,30.9z M1260.4,17.7c-0.4,0.7-1.1,1.1-2.2,1.3
						c-0.4,0.1-0.7,0.1-1.1,0.1c-1.2,0-2.5-0.4-3.6-1.1l-0.7-0.4c-1.2-0.7-2.3-1.2-3.5-1.4c-2.2-0.5-3.8-1.4-4.2-2.4
						c-0.2-0.5-0.2-1.2,0.1-1.9c1.1,0.3,2.1,0.4,2.4,0.4c0,0,1.9-0.2,6,0.8c0.6,0.1,1.3,0.3,2.1,0.6c1.8,0.5,3.3,0.7,4.6,0.7
						C1260.6,15.2,1260.9,16.7,1260.4,17.7z M1246.3-0.4c0.4,1.5,1.2,2.9,2.1,4c-2.1,0.2-4.6,0-5.3-0.8c-0.1-0.1-0.3-0.4-0.2-0.9
						C1243.2,0.5,1245.2-0.1,1246.3-0.4z M1242.7-1.2c0.1-0.5,0.2-0.9,0.3-1.3c0.1-0.4,0.4-0.7,0.9-0.7l1.2,0.1
						c0.4,0,0.7,0.3,0.8,0.6C1245.1-2.3,1243.8-1.9,1242.7-1.2z M1264,10.9c-0.5,0.8-1.5,1.3-3,1.3c-1.3,0.1-2.9-0.2-4.8-0.7
						c-0.8-0.2-1.5-0.5-2.2-0.6c-4.5-1.1-6.6-0.9-6.6-0.9s-1.3,0-2.2-0.5c-0.6-0.3-1.1-1.8-0.3-3.8c0.7,0.1,1.3,0.1,2,0.1
						c1.4,0,2.7-0.2,3.2-0.2c0.6,0.7,1.1,1.1,1.2,1.2c1.9,1.1,3.4,1.3,4.6,0.6c0.4-0.3,0.8-0.7,1-1.1h6c0.3,0,0.6,0,1-0.1
						C1264.3,7.4,1264.8,9.5,1264,10.9z M1265.5,2.3c-0.3,1.1-1.4,1.8-2.6,1.8h-5.2c0.2-1.2,0.2-2.3,0.1-2.6c0,0-0.1-0.6-0.1-2.2
						c3.8-0.2,5.8-1.6,5.8-1.6l0,0l-0.1,0.2C1263.6-2,1266.4-0.7,1265.5,2.3z M1263.5-10.6c0.9,1.2,1.3,2.4,1.1,3.5
						c-0.3,1.9-2.2,3.2-2.3,3.3c0,0-1.5,1.1-4.5,1.2c0-0.6,0-1.2,0.1-1.9c0.1-2.7-0.6-4.4-1.5-5.6c0.9-0.8,2.8-2.1,4.5-2
						C1261.9-12.2,1262.7-11.6,1263.5-10.6z M1228.6-21.5c0-0.9,0.6-1.7,1.8-2.3c1.4-0.7,3.2-0.7,4.8,0.1c1.9,0.9,5.3,1.9,10.5,1
						c3.6-0.6,5.6-2,7.2-3.2c2.4-1.7,3.6-2.6,8.9,0.1c2.1,1.1,2.1,2.2,2.1,2.5c0,3.2-6.7,8-11.2,10.5l-1.9-0.8
						c-0.9-0.4-1.8-0.8-2.6-1.4l-1.4-1c-3.4-2.3-7.8-1.9-10.8,0.9c-0.4,0.4-0.8,0.8-1.2,1.2C1232.5-15.4,1228.5-18.9,1228.6-21.5z
						 M1198.3,31.1h-20.6v-43.4h20.6v1.7v40.1V31.1z M1213.5,27.3h-13.1V-8.5h13.1V27.3z M1215.6-3.3c3.1,0.3,11.4,0.6,15.7-3.6
						c1.2-1.1,2.2-2.3,3.2-3.4s2-2.2,2.9-3.1c2.2-2.1,5.6-2.4,8.1-0.7l1.4,1c0.9,0.6,1.9,1.2,3,1.6l3.4,1.4c0.1,0.1,2.6,1.3,2.4,5.5
						c-0.2,5,0.1,6.6,0.1,6.6c0.1,0.9-0.1,3.1-1,3.7c-0.6,0.4-1.8-0.2-2.3-0.5c0,0-4.3-3.7-4.5-7.5c-0.1-1.5-1.3-2.7-2.8-2.8
						l-1.2-0.1c-1.5-0.1-2.8,0.9-3.1,2.3c-0.9,4.1-5.2,18-25.4,25.9L1215.6-3.3z M1242.5,86.1c0,0-1.2,0-1.3,0
						c-2.5-0.1-9-0.7-14.7-4.1c-7-4.2-10.6-11.1-10.8-20.5c-0.3-13.6,3.2-23.6,6.2-29.6c2.3-4.6,5.2-9.4,8.6-14.8v-0.2
						c5.6-4.6,8.8-9.5,10.6-13.4c0.2,0.3,0.3,0.6,0.5,0.8c0.3,0.3,0.8,0.6,1.2,0.8c-0.9,2.4-0.5,4.4,0.6,5.6
						c-0.6,1.4-0.8,2.6-0.3,3.8c0.9,2.2,3.6,3.2,5.7,3.7c1,0.2,1.9,0.6,2.9,1.2l0.7,0.4c1.3,0.7,2.6,1.2,4,1.3c1,2,2,3.9,3,5.8
						c0.9,1.7,1.7,3.3,2.5,4.9c3,6,6.5,16,6.2,29.6C1267.6,83.4,1248.4,85.8,1242.5,86.1z"/>
					<path id="XMLID_164_" class="st1" d="M1220.1,61.4c0-0.4-0.3-0.7-0.8-0.8c-0.4,0-0.8,0.4-0.8,0.8c0.2,7.9,3,13.8,8.5,17.5
						c0.1,0.1,0.3,0.1,0.4,0.1c0.3,0,0.5-0.1,0.7-0.4c0.2-0.4,0.2-0.9-0.2-1.1C1222.9,74.2,1220.2,68.8,1220.1,61.4z"/>
					<path id="XMLID_163_" class="st1" d="M1263.2,44c-0.1-0.4-0.5-0.7-1-0.6c-0.4,0.1-0.7,0.5-0.6,1c1.4,5.4,2,11.1,1.9,17.1
						c0,2-0.3,3.9-0.7,5.7c-0.1,0.4,0.2,0.9,0.6,1c0.1,0,0.1,0,0.2,0c0.4,0,0.7-0.2,0.8-0.6c0.4-1.9,0.7-3.9,0.7-6
						C1265.3,55.4,1264.6,49.5,1263.2,44z"/>
					<path id="XMLID_162_" class="st1" d="M1259.3,33.2c-0.2-0.4-0.7-0.6-1.1-0.4c-0.4,0.2-0.6,0.7-0.4,1.1c0.8,1.5,1.5,3.2,2.1,4.9
						c0.1,0.3,0.4,0.5,0.7,0.5c0.1,0,0.2,0,0.3-0.1c0.4-0.2,0.6-0.6,0.5-1C1260.8,36.4,1260.1,34.7,1259.3,33.2z"/>
					<path id="XMLID_161_" class="st1" d="M1209.8,7.2c-0.4,0-0.8,0.4-0.8,0.8v4.3c0,0.4,0.4,0.8,0.8,0.8s0.8-0.4,0.8-0.8V8
						C1210.6,7.5,1210.2,7.2,1209.8,7.2z"/>
					<path id="XMLID_160_" class="st1" d="M1208.9-5.7h-2.9c-0.4,0-0.8,0.4-0.8,0.8s0.4,0.8,0.8,0.8h2.8c0.1,0,0.2,0.1,0.2,0.2v7.5
						c0,0.4,0.4,0.8,0.8,0.8s0.8-0.4,0.8-0.8v-7.5C1210.6-4.9,1209.8-5.7,1208.9-5.7z"/>
					<path id="XMLID_159_" class="st1" d="M1194.6,8.6c-0.4,0-0.8,0.4-0.8,0.8v4.7c0,0.4,0.4,0.8,0.8,0.8s0.8-0.4,0.8-0.8V9.4
						C1195.4,8.9,1195.1,8.6,1194.6,8.6z"/>
					<path id="XMLID_158_" class="st1" d="M1193.7-9.4h-2.8c-0.4,0-0.8,0.4-0.8,0.8s0.4,0.8,0.8,0.8h2.8c0.1,0,0.2,0.1,0.2,0.2V3
						c0,0.4,0.4,0.8,0.8,0.8s0.8-0.4,0.8-0.8V-7.7C1195.4-8.7,1194.6-9.4,1193.7-9.4z"/>
					<path id="XMLID_155_" class="st1" d="M1245.1,47.7c-3.9-2.1-7.3-3.8-7.3-6.7c0-2.3,1.7-3.7,4.8-3.7s4.7,1.6,4.8,4.7v1h8.8v-1.1
						c-0.2-6.4-4-10.8-10.1-12v-4.5h-7.5V30c-5.9,1.2-9.7,5.4-9.7,10.9c0,7.2,6.1,10.5,11.5,13.4c4,2.2,7.5,4.1,7.5,7
						c0,2.9-1.9,4.5-5.4,4.5c-3.6,0-5.5-1.7-5.5-5.1v-1h-8.8v1.1c0.1,6.6,4,11.2,10.4,12.5v4.5h7.5v-4.5c6.5-1.2,10.8-5.8,10.8-11.9
						C1256.8,53.8,1250.3,50.4,1245.1,47.7z M1244.8,71.3l-0.9,0.1v4.2h-3.2v-4.2l-0.9-0.1c-5.6-0.9-9-4.3-9.5-9.5h4.6
						c0.5,3.9,3.2,6.2,7.6,6.2c4.7,0,7.6-2.5,7.6-6.6c0-4.2-4.2-6.5-8.6-8.9c-5.1-2.8-10.4-5.6-10.4-11.6c0-4.7,3.4-8.1,8.8-8.9
						l0.9-0.1v-4.2h3.2v4.2l0.9,0.1c5.3,0.7,8.6,4,9.1,9h-4.6c-0.5-3.6-2.9-5.7-6.9-5.7c-4.2,0-6.9,2.3-6.9,5.8
						c0,4.2,4.1,6.3,8.5,8.6c5.2,2.7,10.6,5.5,10.6,11.8C1254.7,66.7,1250.8,70.6,1244.8,71.3z"/>
				</g>
			</g>
		</g>
	</g>
	<g id="XMLID_8_">
		<path class="st0" d="M1024.1,547.7c-10.6,0-19.2-8.6-19.2-19.2s8.6-19.2,19.2-19.2s19.2,8.6,19.2,19.2S1034.7,547.7,1024.1,547.7z
			 M1024.1,513.3c-8.4,0-15.2,6.8-15.2,15.2s6.8,15.2,15.2,15.2s15.2-6.8,15.2-15.2S1032.5,513.3,1024.1,513.3z"/>
		<polygon class="st0" points="1010.9,521.4 829.1,396 829.1,327.3 833.1,327.3 833.1,393.9 1013.2,518.1 		"/>
	</g>
	<g id="XMLID_18_">
		<path class="st0" d="M1464.7,547.7c-10.6,0-19.2-8.6-19.2-19.2s8.6-19.2,19.2-19.2s19.2,8.6,19.2,19.2S1475.3,547.7,1464.7,547.7z
			 M1464.7,513.3c-8.4,0-15.2,6.8-15.2,15.2s6.8,15.2,15.2,15.2c8.4,0,15.2-6.8,15.2-15.2S1473.1,513.3,1464.7,513.3z"/>
		<polygon class="st0" points="1478.1,521.4 1475.8,518.1 1656.1,393.9 1656.1,327.3 1660.1,327.3 1660.1,396 1659.2,396.6 		"/>
	</g>
	<g id="XMLID_10_">
		<path class="st0" d="M1562.4,694.3c-10.6,0-19.2-8.6-19.2-19.2s8.6-19.2,19.2-19.2s19.2,8.6,19.2,19.2S1573,694.3,1562.4,694.3z
			 M1562.4,659.9c-8.4,0-15.2,6.8-15.2,15.2c0,8.4,6.8,15.2,15.2,15.2c8.4,0,15.2-6.8,15.2-15.2
			C1577.6,666.7,1570.8,659.9,1562.4,659.9z"/>
		<polygon class="st0" points="1963.1,677.3 1578.1,677.3 1578.1,673.3 1959.1,673.3 1959.1,608.3 1963.1,608.3 		"/>
	</g>
	<g id="XMLID_9_">
		<path class="st0" d="M928.3,694.3c-10.6,0-19.2-8.6-19.2-19.2s8.6-19.2,19.2-19.2s19.2,8.6,19.2,19.2S938.9,694.3,928.3,694.3z
			 M928.3,659.9c-8.4,0-15.2,6.8-15.2,15.2c0,8.4,6.8,15.2,15.2,15.2s15.2-6.8,15.2-15.2C943.5,666.7,936.7,659.9,928.3,659.9z"/>
		<polygon class="st0" points="913.1,677.3 527.1,677.3 527.1,608.3 531.1,608.3 531.1,673.3 913.1,673.3 		"/>
	</g>
	<g id="XMLID_21_">
		<path class="st0" d="M1245.1,503.1c-10.6,0-19.2-8.6-19.2-19.2s8.6-19.2,19.2-19.2s19.2,8.6,19.2,19.2S1255.7,503.1,1245.1,503.1z
			 M1245.1,468.7c-8.4,0-15.2,6.8-15.2,15.2c0,8.4,6.8,15.2,15.2,15.2c8.4,0,15.2-6.8,15.2-15.2
			C1260.3,475.5,1253.5,468.7,1245.1,468.7z"/>
		<rect x="1243.1" y="219.3" class="st0" width="4" height="250"/>
	</g>
	<rect x="1242.1" y="-134.7" class="st0" width="4" height="62"/>
	<polygon class="st0" points="833.1,35.3 829.1,35.3 829.1,-23.7 758.1,-23.7 758.1,-27.7 833.1,-27.7 	"/>
	<polygon class="st0" points="531.1,321.3 527.1,321.3 527.1,262.3 456.1,262.3 456.1,258.3 531.1,258.3 	"/>
	<polygon class="st0" points="1660.1,35.3 1656.1,35.3 1656.1,-27.7 1732.1,-27.7 1732.1,-23.7 1660.1,-23.7 	"/>
	<polygon class="st0" points="1963.1,321.3 1959.1,321.3 1959.1,258.3 2035.1,258.3 2035.1,262.3 1963.1,262.3 	"/>
	<rect x="527.1" y="259.3" class="st0" width="4" height="61"/>
	<rect x="1959.1" y="259.3" class="st0" width="4" height="61"/>
	<g id="XMLID_29_">
		<g id="XMLID_127_">
			<g id="XMLID_128_">
				<g id="XMLID_202_">
					<path id="XMLID_205_" class="st0" d="M1872.2,316.4c0,0,4.1,1.7,8.3,3.5c4.1,1.8,8.2,3.7,8.2,3.7l4.1,1.9l4.1,2l8.2,4.1
						l-0.6-9.2l-0.3-4.6l-0.4-4.6c0,0-0.4-4.6-0.9-9.3c-0.6-4.7-1.2-9.3-1.2-9.3l-7.5,5.6c0,0-0.6-0.8-1.5-2l-0.5-0.7l-0.6-0.7
						c-0.4-0.5-0.8-1-1.2-1.5c-0.8-1-1.6-2-2.4-3.1c-1.6-2.1-3.3-4.2-5.1-6.4c-1.8-2.2-3.6-4.4-5.4-6.7c-1.9-2.2-3.9-4.5-5.8-6.8
						c-8-9.2-16.8-18.8-26.1-28c-9.2-9.2-18.7-18.1-27.9-26.1c-2.3-2-4.6-3.9-6.8-5.8c-2.2-1.9-4.4-3.8-6.6-5.5
						c-2.1-1.8-4.2-3.4-6.1-4.9c-1.1-0.9-1.9-1.5-1.9-1.5l-11.2,14.1c0,0,0.8,0.6,1.9,1.5c1.8,1.5,3.8,3.1,5.9,4.8
						c2.1,1.7,4.2,3.5,6.4,5.4c2.2,1.9,4.4,3.7,6.6,5.7c8.9,7.8,18.1,16.4,27,25.3c8.9,8.9,17.4,18.1,25.2,27
						c1.9,2.2,3.8,4.4,5.6,6.6c1.8,2.2,3.5,4.3,5.3,6.4c1.7,2.1,3.3,4.2,4.9,6.2c0.8,1,1.5,2,2.3,3c0.4,0.5,0.7,1,1.1,1.4l0.5,0.7
						l0.5,0.6c0.8,1.1,1.4,1.9,1.4,1.9L1872.2,316.4z"/>
					<polygon id="XMLID_204_" class="st0" points="1787.2,193.5 1793.8,198.7 1783.1,212.3 1776.7,207.2 					"/>
					<polygon id="XMLID_203_" class="st0" points="1781.3,189.1 1785.2,192 1774.7,205.7 1771,202.9 					"/>
				</g>
				<polygon id="XMLID_133_" class="st0" points="1776.1,185.2 1778.7,187.1 1768.4,201 1765.9,199.1 				"/>
			</g>
		</g>
	</g>
	<g id="XMLID_30_">
		<g id="XMLID_112_">
			<g id="XMLID_113_">
				<g id="XMLID_139_">
					<path id="XMLID_142_" class="st0" d="M1525.6,93.3c0,0,4.4-1.1,8.8-2.1s8.9-2,8.9-2c5.9-1.4,11.9-2.6,17.9-3.8
						c-4.1-4.5-8.2-9.2-12.4-13.7c0,0-3.2-3.4-6.3-6.8c-3.2-3.4-6.4-6.7-6.4-6.7l-2.7,9c0,0-0.9-0.3-2.3-0.7
						c-0.6-0.2-1.2-0.3-1.7-0.5c-0.6-0.2-1.2-0.4-1.9-0.5c-1.3-0.4-2.5-0.7-3.9-1.1c-2.6-0.7-5.3-1.5-8.1-2.3
						c-5.6-1.5-11.5-3.1-17.6-4.7c-12.2-3.1-25.3-6.2-38.4-9s-26.3-5.3-38.8-7.4c-3.1-0.6-6.2-1-9.2-1.5s-5.9-1-8.8-1.4
						c-2.8-0.4-5.5-0.8-8-1.2c-1.4-0.2-2.4-0.3-2.4-0.3l-2.5,17.9c0,0,0.9,0.1,2.4,0.3c2.4,0.4,5.1,0.8,7.8,1.2
						c2.8,0.4,5.7,0.9,8.6,1.4s5.9,0.9,9,1.5c12.2,2.1,25.2,4.6,38.1,7.3c12.9,2.7,25.7,5.8,37.7,8.8c6,1.5,11.8,3.1,17.2,4.6
						c2.7,0.7,5.4,1.5,7.9,2.2c1.3,0.4,2.5,0.7,3.8,1.1c0.6,0.2,1.2,0.4,1.8,0.5c0.6,0.2,1.1,0.3,1.7,0.5c1.4,0.4,2.3,0.7,2.3,0.7
						L1525.6,93.3z"/>
					<polygon id="XMLID_141_" class="st0" points="1381.2,35.2 1389.4,36.4 1387,53.5 1378.9,52.4 					"/>
					<polygon id="XMLID_140_" class="st0" points="1373.9,34.3 1378.6,34.9 1376.4,52.1 1371.8,51.5 					"/>
				</g>
				<polygon id="XMLID_125_" class="st0" points="1367.4,33.6 1370.6,33.9 1368.5,51.1 1365.4,50.7 				"/>
			</g>
		</g>
	</g>
	<g id="XMLID_31_">
		<g id="XMLID_87_">
			<g id="XMLID_99_">
				<g id="XMLID_129_">
					<path id="XMLID_132_" class="st0" d="M1096.1,64.3c0,0,0.9-0.7,2.2-1.8c1.3-1.1,3.1-2.5,4.9-3.9c3.6-2.8,7.2-5.6,7.2-5.6
						c4.8-3.7,9.7-7.4,14.6-11.1c-5.6-2.4-11.3-4.8-17-7.1c0,0-4.3-1.7-8.6-3.5c-2.2-0.9-4.3-1.7-5.9-2.3s-2.7-1.1-2.7-1.1l1.4,9.3
						c0,0-1,0.1-2.4,0.4c-1.2,0.2-2.4,0.4-3.7,0.5c-1.3,0.2-2.6,0.4-3.9,0.6c-2.7,0.4-5.4,0.9-8.3,1.3c-2.8,0.5-5.7,1-8.7,1.5
						s-6,1-9.1,1.6c-12.3,2.2-25.4,5-38.4,7.9c-13,2.9-26,6.2-38.1,9.5c-6.1,1.6-11.9,3.3-17.4,4.9c-2.7,0.8-5.3,1.6-7.7,2.3
						c-1.4,0.4-2.3,0.7-2.3,0.7l5.2,17.3c0,0,0.9-0.3,2.3-0.7c2.3-0.7,4.9-1.4,7.5-2.2c5.4-1.5,11.1-3.2,17.1-4.8
						c11.9-3.2,24.6-6.4,37.4-9.3c12.8-2.9,25.6-5.6,37.7-7.8c3-0.6,6-1.1,8.9-1.6s5.8-1,8.5-1.5c2.8-0.4,5.5-0.9,8.1-1.3
						c1.3-0.2,2.6-0.4,3.9-0.6c1.2-0.2,2.5-0.4,3.6-0.5c1.4-0.2,2.4-0.4,2.4-0.4L1096.1,64.3z"/>
					<polygon id="XMLID_131_" class="st0" points="941.4,72.1 949.4,69.7 954.5,86.2 946.7,88.6 					"/>
					<polygon id="XMLID_130_" class="st0" points="934.5,74.4 939,72.9 944.3,89.4 939.8,90.8 					"/>
				</g>
				<polygon id="XMLID_100_" class="st0" points="928.3,76.5 931.3,75.5 936.7,91.9 933.8,92.9 				"/>
			</g>
		</g>
	</g>
	<g id="XMLID_26_">
		<g id="XMLID_38_">
			<g id="XMLID_56_">
				<g id="XMLID_115_">
					<path id="XMLID_124_" class="st0" d="M707.4,224.5c0,0,0.4-1.1,1-2.6c0.6-1.6,1.4-3.7,2.2-5.8c1.7-4.2,3.3-8.4,3.3-8.4
						c2.3-5.6,4.7-11.2,7.1-16.8c-6,0.7-12.2,1.4-18.3,2.3c0,0-4.6,0.7-9.2,1.4c-2.3,0.3-4.6,0.7-6.4,1c-1.7,0.3-2.9,0.5-2.9,0.5
						l5.9,7.3c0,0-0.8,0.6-1.9,1.5c-1,0.8-2,1.6-3,2.4s-2.1,1.7-3.1,2.6c-2.1,1.8-4.3,3.7-6.6,5.6s-4.5,4-6.8,6
						c-2.3,2.1-4.7,4.1-7.1,6.4c-2.4,2.2-4.8,4.4-7.2,6.7c-2.4,2.3-4.8,4.7-7.2,7c-2.5,2.3-4.8,4.8-7.2,7.3
						c-1.2,1.2-2.4,2.5-3.6,3.7l-3.5,3.8c-2.3,2.5-4.7,5-7,7.6s-4.6,5.1-6.8,7.7c-4.4,5.2-8.7,10.2-12.8,15.3c-1,1.3-2,2.5-3,3.7
						s-1.9,2.5-2.9,3.7c-1.9,2.5-3.8,4.9-5.5,7.3s-3.3,4.6-4.8,6.7c-0.9,1.2-1.4,2-1.4,2l14.7,10.4c0,0,0.6-0.8,1.4-1.9
						c1.4-2,3-4.2,4.7-6.5s3.5-4.6,5.3-7c0.9-1.2,1.8-2.4,2.8-3.6s1.9-2.4,2.9-3.6c3.9-4.9,8.1-9.8,12.3-14.8
						c2.2-2.4,4.4-4.9,6.6-7.4c2.2-2.5,4.5-4.9,6.8-7.3l3.4-3.6c1.2-1.2,2.3-2.4,3.5-3.6c2.3-2.4,4.6-4.8,7-7c2.3-2.3,4.7-4.6,7-6.8
						c2.4-2.2,4.7-4.4,7-6.5c2.3-2.2,4.6-4.2,6.8-6.2c2.3-2,4.4-4,6.6-5.8c2.2-1.9,4.3-3.7,6.4-5.4c1-0.9,2-1.7,3.1-2.5
						c1-0.8,2-1.6,2.9-2.4c1.1-0.9,1.8-1.5,1.8-1.5L707.4,224.5z"/>
					<polygon id="XMLID_123_" class="st0" points="582.4,319.8 587.2,312.9 601.4,322.8 596.8,329.4 					"/>
					<polygon id="XMLID_117_" class="st0" points="578.4,326 581,322 595.4,331.5 592.9,335.4 					"/>
				</g>
				<polygon id="XMLID_65_" class="st0" points="574.9,331.6 576.6,328.9 591.2,338.1 589.5,340.7 				"/>
			</g>
		</g>
	</g>
</g>
</svg>
