<?xml version="1.0" encoding="utf-8"?>
<!-- Generator: Adobe Illustrator 19.0.0, SVG Export Plug-In . SVG Version: 6.00 Build 0)  -->
<svg version="1.1" id="Ebene_1" xmlns="http://www.w3.org/2000/svg" xmlns:xlink="http://www.w3.org/1999/xlink" x="0px" y="0px"
	 viewBox="-347 285.3 146 26" style="enable-background:new -347 285.3 146 26;" xml:space="preserve">
<style type="text/css">
	.st0{fill:#00B700;}
	.st1{fill:#FFFFFF;}
</style>
<g>
	<circle class="st0" cx="-334" cy="298.3" r="13"/>
	<circle class="st0" cx="-304" cy="298.3" r="13"/>
	<circle class="st0" cx="-274" cy="298.3" r="13"/>
	<circle class="st0" cx="-244" cy="298.3" r="13"/>
	<circle class="st0" cx="-214" cy="298.3" r="13"/>
	<g id="XMLID_3587_">
		<g id="XMLID_3591_">
			<g id="XMLID_3602_">
				<path id="XMLID_3612_" class="st1" d="M-220.3,300.7c-1.4,0-1.6-0.2-1.7-0.3c-0.4-0.4-0.4-1.8-0.3-2.6c0.1-0.5,0.3-0.8,0.6-1
					c0.4-0.2,0.6-0.3,0.9-0.3c0.3-0.1,0.4-0.1,0.6-0.2l0.1-0.1c0.9-0.6,1.8-1.2,2.4-1.3c0,0,4.2-0.4,5.1,0.1c0.3,0.1,0.6,0.3,1,0.6
					c0.6,0.4,1.4,0.8,1.9,1c0.1,0,0.3,0.1,0.6,0.1c1.2,0.1,3.6,0.4,3.5,2.9l0,0c-0.1,1-1.2,1.1-2.3,1.1c-0.2,0-0.4-0.2-0.4-0.4
					s0.2-0.4,0.4-0.4c0.9,0,1.4-0.1,1.5-0.3c0-1.5-1.3-1.8-2.7-2c-0.3,0-0.5-0.1-0.7-0.1c-0.6-0.2-1.4-0.6-2.1-1.1
					c-0.4-0.2-0.7-0.4-0.9-0.5c-0.5-0.2-3.5-0.1-4.6,0c-0.2,0-0.7,0.2-2,1.1l-0.1,0.1c-0.2,0.2-0.5,0.2-0.8,0.3
					c-0.2,0.1-0.5,0.2-0.8,0.3c-0.3,0.2-0.3,1.7-0.1,2.1c0.2,0.1,0.8,0.1,1.3,0.1c0.2,0,0.4,0.2,0.4,0.4c0,0.2-0.2,0.4-0.4,0.4
					C-220.2,300.7-220.3,300.7-220.3,300.7z"/>
				<path id="XMLID_3609_" class="st1" d="M-209.2,301.9c-0.9,0-1.7-0.7-1.7-1.7s0.7-1.7,1.7-1.7s1.7,0.7,1.7,1.7
					S-208.3,301.9-209.2,301.9z M-209.2,299.4c-0.4,0-0.8,0.4-0.8,0.8s0.4,0.8,0.8,0.8s0.8-0.4,0.8-0.8S-208.8,299.4-209.2,299.4z"
					/>
				<path id="XMLID_3606_" class="st1" d="M-218.5,301.9c-0.9,0-1.7-0.7-1.7-1.7s0.7-1.7,1.7-1.7s1.7,0.7,1.7,1.7
					S-217.6,301.9-218.5,301.9z M-218.5,299.4c-0.4,0-0.8,0.4-0.8,0.8s0.4,0.8,0.8,0.8s0.8-0.4,0.8-0.8S-218.1,299.4-218.5,299.4z"
					/>
				<path id="XMLID_3605_" class="st1" d="M-210.8,299L-210.8,299c-0.8,0-4.9-0.1-6-0.7c-1.1-0.7-1.4-1.8-1.4-1.9
					c0-0.2,0.1-0.5,0.3-0.5c0.2,0,0.5,0.1,0.5,0.3c0,0,0.2,0.8,1,1.3c0.6,0.4,3.7,0.6,5.5,0.6c0.2,0,0.4,0.2,0.4,0.4
					C-210.4,298.8-210.6,299-210.8,299z"/>
				<path id="XMLID_3604_" class="st1" d="M-210.5,300.6h-6.9c-0.2,0-0.4-0.2-0.4-0.4s0.2-0.4,0.4-0.4h6.9c0.2,0,0.4,0.2,0.4,0.4
					S-210.2,300.6-210.5,300.6z"/>
				<path id="XMLID_3603_" class="st1" d="M-207.6,300.6c-0.1,0-0.2,0-0.2,0c-0.2,0-0.4-0.2-0.4-0.5c0-0.2,0.2-0.4,0.5-0.4
					c0.4,0,0.9-0.1,1.1-0.3c0,0,0.1-0.1,0.1-0.2l0,0c0.1-1.4-1.2-1.6-2.7-1.8c-0.3,0-0.5-0.1-0.7-0.1c-0.2-0.1-0.4-0.3-0.3-0.5
					s0.3-0.4,0.5-0.3c0.1,0,0.4,0.1,0.6,0.1c1.2,0.1,3.6,0.4,3.5,2.7c0,0.3-0.1,0.6-0.4,0.8C-206.4,300.4-207,300.6-207.6,300.6z"/>
			</g>
			<g id="XMLID_3599_">
				<path id="XMLID_3601_" class="st1" d="M-222.4,304.6c-0.1,0-0.3-0.1-0.3-0.2c-2.6-3.7-2.6-8.6,0-12.2c0.1-0.2,0.4-0.2,0.6-0.1
					s0.2,0.4,0.1,0.6c-2.4,3.4-2.4,7.9,0,11.2c0.1,0.2,0.1,0.5-0.1,0.6C-222.2,304.5-222.3,304.6-222.4,304.6z"/>
				<path id="XMLID_3600_" class="st1" d="M-214,308.9c-2.1,0-4.3-0.6-6.1-1.9c-0.2-0.1-0.2-0.4-0.1-0.6s0.4-0.2,0.6-0.1
					c3.4,2.4,7.9,2.4,11.2,0c0.2-0.1,0.5-0.1,0.6,0.1s0.1,0.5-0.1,0.6C-209.7,308.3-211.9,308.9-214,308.9z"/>
			</g>
			<g id="XMLID_3596_">
				<path id="XMLID_3598_" class="st1" d="M-208.1,290.3c-0.1,0-0.2,0-0.2-0.1c-3.4-2.4-7.9-2.4-11.2,0c-0.2,0.1-0.5,0.1-0.6-0.1
					s-0.1-0.5,0.1-0.6c3.7-2.6,8.6-2.6,12.2,0c0.2,0.1,0.2,0.4,0.1,0.6C-207.9,290.3-208,290.3-208.1,290.3z"/>
				<path id="XMLID_3597_" class="st1" d="M-205.6,304.6c-0.1,0-0.2,0-0.2-0.1c-0.2-0.1-0.2-0.4-0.1-0.6c2.4-3.4,2.4-7.9,0-11.2
					c-0.1-0.2-0.1-0.5,0.1-0.6c0.2-0.1,0.5-0.1,0.6,0.1c2.6,3.7,2.6,8.6,0,12.2C-205.4,304.5-205.5,304.6-205.6,304.6z"/>
			</g>
			<circle id="XMLID_3595_" class="st1" cx="-206" cy="304.7" r="0.9"/>
			<circle id="XMLID_3594_" class="st1" cx="-222" cy="291.9" r="0.9"/>
			<circle id="XMLID_3593_" class="st1" cx="-207.6" cy="290.3" r="0.9"/>
			<circle id="XMLID_3592_" class="st1" cx="-220.4" cy="306.3" r="0.9"/>
		</g>
	</g>
	<g id="XMLID_1_">
		<g id="XMLID_2_">
			<g id="XMLID_13_">
				<path id="XMLID_23_" class="st1" d="M-250.3,300.7c-1.4,0-1.6-0.2-1.7-0.3c-0.4-0.4-0.4-1.8-0.3-2.6c0.1-0.5,0.3-0.8,0.6-1
					c0.4-0.2,0.6-0.3,0.9-0.3c0.3-0.1,0.4-0.1,0.6-0.2l0.1-0.1c0.9-0.6,1.8-1.2,2.4-1.3c0,0,4.2-0.4,5.1,0.1c0.3,0.1,0.6,0.3,1,0.6
					c0.6,0.4,1.4,0.8,1.9,1c0.1,0,0.3,0.1,0.6,0.1c1.2,0.1,3.6,0.4,3.5,2.9l0,0c-0.1,1-1.2,1.1-2.3,1.1c-0.2,0-0.4-0.2-0.4-0.4
					s0.2-0.4,0.4-0.4c0.9,0,1.4-0.1,1.5-0.3c0-1.5-1.3-1.8-2.7-2c-0.3,0-0.5-0.1-0.7-0.1c-0.6-0.2-1.4-0.6-2.1-1.1
					c-0.4-0.2-0.7-0.4-0.9-0.5c-0.5-0.2-3.5-0.1-4.6,0c-0.2,0-0.7,0.2-2,1.1l-0.1,0.1c-0.2,0.2-0.5,0.2-0.8,0.3
					c-0.2,0.1-0.5,0.2-0.8,0.3c-0.3,0.2-0.3,1.7-0.1,2.1c0.2,0.1,0.8,0.1,1.3,0.1c0.2,0,0.4,0.2,0.4,0.4c0,0.2-0.2,0.4-0.4,0.4
					C-250.2,300.7-250.3,300.7-250.3,300.7z"/>
				<path id="XMLID_20_" class="st1" d="M-239.2,301.9c-0.9,0-1.7-0.7-1.7-1.7s0.7-1.7,1.7-1.7c0.9,0,1.7,0.7,1.7,1.7
					S-238.3,301.9-239.2,301.9z M-239.2,299.4c-0.4,0-0.8,0.4-0.8,0.8s0.4,0.8,0.8,0.8s0.8-0.4,0.8-0.8S-238.8,299.4-239.2,299.4z"
					/>
				<path id="XMLID_17_" class="st1" d="M-248.5,301.9c-0.9,0-1.7-0.7-1.7-1.7s0.7-1.7,1.7-1.7c0.9,0,1.7,0.7,1.7,1.7
					S-247.6,301.9-248.5,301.9z M-248.5,299.4c-0.4,0-0.8,0.4-0.8,0.8s0.4,0.8,0.8,0.8s0.8-0.4,0.8-0.8S-248.1,299.4-248.5,299.4z"
					/>
				<path id="XMLID_16_" class="st1" d="M-240.8,299L-240.8,299c-0.8,0-4.9-0.1-6-0.7c-1.1-0.7-1.4-1.8-1.4-1.9
					c0-0.2,0.1-0.5,0.3-0.5c0.2,0,0.5,0.1,0.5,0.3c0,0,0.2,0.8,1,1.3c0.6,0.4,3.7,0.6,5.5,0.6c0.2,0,0.4,0.2,0.4,0.4
					C-240.4,298.8-240.6,299-240.8,299z"/>
				<path id="XMLID_15_" class="st1" d="M-240.5,300.6h-6.9c-0.2,0-0.4-0.2-0.4-0.4s0.2-0.4,0.4-0.4h6.9c0.2,0,0.4,0.2,0.4,0.4
					S-240.2,300.6-240.5,300.6z"/>
				<path id="XMLID_14_" class="st1" d="M-237.6,300.6c-0.1,0-0.2,0-0.2,0c-0.2,0-0.4-0.2-0.4-0.5c0-0.2,0.2-0.4,0.5-0.4
					c0.4,0,0.9-0.1,1.1-0.3c0,0,0.1-0.1,0.1-0.2l0,0c0.1-1.4-1.2-1.6-2.7-1.8c-0.3,0-0.5-0.1-0.7-0.1c-0.2-0.1-0.4-0.3-0.3-0.5
					s0.3-0.4,0.5-0.3c0.1,0,0.4,0.1,0.6,0.1c1.2,0.1,3.6,0.4,3.5,2.7c0,0.3-0.1,0.6-0.4,0.8C-236.4,300.4-237,300.6-237.6,300.6z"/>
			</g>
			<g id="XMLID_10_">
				<path id="XMLID_12_" class="st1" d="M-252.4,304.6c-0.1,0-0.3-0.1-0.3-0.2c-2.6-3.7-2.6-8.6,0-12.2c0.1-0.2,0.4-0.2,0.6-0.1
					c0.2,0.1,0.2,0.4,0.1,0.6c-2.4,3.4-2.4,7.9,0,11.2c0.1,0.2,0.1,0.5-0.1,0.6C-252.2,304.5-252.3,304.6-252.4,304.6z"/>
				<path id="XMLID_11_" class="st1" d="M-244,308.9c-2.1,0-4.3-0.6-6.1-1.9c-0.2-0.1-0.2-0.4-0.1-0.6s0.4-0.2,0.6-0.1
					c3.4,2.4,7.9,2.4,11.2,0c0.2-0.1,0.5-0.1,0.6,0.1s0.1,0.5-0.1,0.6C-239.7,308.3-241.9,308.9-244,308.9z"/>
			</g>
			<g id="XMLID_7_">
				<path id="XMLID_9_" class="st1" d="M-238.1,290.3c-0.1,0-0.2,0-0.2-0.1c-3.4-2.4-7.9-2.4-11.2,0c-0.2,0.1-0.5,0.1-0.6-0.1
					s-0.1-0.5,0.1-0.6c3.7-2.6,8.6-2.6,12.2,0c0.2,0.1,0.2,0.4,0.1,0.6C-237.9,290.3-238,290.3-238.1,290.3z"/>
				<path id="XMLID_8_" class="st1" d="M-235.6,304.6c-0.1,0-0.2,0-0.2-0.1c-0.2-0.1-0.2-0.4-0.1-0.6c2.4-3.4,2.4-7.9,0-11.2
					c-0.1-0.2-0.1-0.5,0.1-0.6c0.2-0.1,0.5-0.1,0.6,0.1c2.6,3.7,2.6,8.6,0,12.2C-235.4,304.5-235.5,304.6-235.6,304.6z"/>
			</g>
			<circle id="XMLID_6_" class="st1" cx="-236" cy="304.7" r="0.9"/>
			<circle id="XMLID_5_" class="st1" cx="-252" cy="291.9" r="0.9"/>
			<circle id="XMLID_4_" class="st1" cx="-237.6" cy="290.3" r="0.9"/>
			<circle id="XMLID_3_" class="st1" cx="-250.4" cy="306.3" r="0.9"/>
		</g>
	</g>
	<g id="XMLID_24_">
		<g id="XMLID_25_">
			<g id="XMLID_36_">
				<path id="XMLID_46_" class="st1" d="M-280.3,300.7c-1.4,0-1.6-0.2-1.7-0.3c-0.4-0.4-0.4-1.8-0.3-2.6c0.1-0.5,0.3-0.8,0.6-1
					c0.4-0.2,0.6-0.3,0.9-0.3c0.3-0.1,0.4-0.1,0.6-0.2l0.1-0.1c0.9-0.6,1.8-1.2,2.4-1.3c0,0,4.2-0.4,5.1,0.1c0.3,0.1,0.6,0.3,1,0.6
					c0.6,0.4,1.4,0.8,1.9,1c0.1,0,0.3,0.1,0.6,0.1c1.2,0.1,3.6,0.4,3.5,2.9l0,0c-0.1,1-1.2,1.1-2.3,1.1c-0.2,0-0.4-0.2-0.4-0.4
					s0.2-0.4,0.4-0.4c0.9,0,1.4-0.1,1.5-0.3c0-1.5-1.3-1.8-2.7-2c-0.3,0-0.5-0.1-0.7-0.1c-0.6-0.2-1.4-0.6-2.1-1.1
					c-0.4-0.2-0.7-0.4-0.9-0.5c-0.5-0.2-3.5-0.1-4.6,0c-0.2,0-0.7,0.2-2,1.1l-0.1,0.1c-0.2,0.2-0.5,0.2-0.8,0.3
					c-0.2,0.1-0.5,0.2-0.8,0.3c-0.3,0.2-0.3,1.7-0.1,2.1c0.2,0.1,0.8,0.1,1.3,0.1c0.2,0,0.4,0.2,0.4,0.4c0,0.2-0.2,0.4-0.4,0.4
					C-280.2,300.7-280.3,300.7-280.3,300.7z"/>
				<path id="XMLID_43_" class="st1" d="M-269.2,301.9c-0.9,0-1.7-0.7-1.7-1.7s0.7-1.7,1.7-1.7s1.7,0.7,1.7,1.7
					S-268.3,301.9-269.2,301.9z M-269.2,299.4c-0.4,0-0.8,0.4-0.8,0.8s0.4,0.8,0.8,0.8c0.4,0,0.8-0.4,0.8-0.8
					S-268.8,299.4-269.2,299.4z"/>
				<path id="XMLID_40_" class="st1" d="M-278.5,301.9c-0.9,0-1.7-0.7-1.7-1.7s0.7-1.7,1.7-1.7s1.7,0.7,1.7,1.7
					S-277.6,301.9-278.5,301.9z M-278.5,299.4c-0.4,0-0.8,0.4-0.8,0.8s0.4,0.8,0.8,0.8s0.8-0.4,0.8-0.8S-278.1,299.4-278.5,299.4z"
					/>
				<path id="XMLID_39_" class="st1" d="M-270.8,299L-270.8,299c-0.8,0-4.9-0.1-6-0.7c-1.1-0.7-1.4-1.8-1.4-1.9
					c0-0.2,0.1-0.5,0.3-0.5s0.5,0.1,0.5,0.3c0,0,0.2,0.8,1,1.3c0.6,0.4,3.7,0.6,5.5,0.6c0.2,0,0.4,0.2,0.4,0.4
					C-270.4,298.8-270.6,299-270.8,299z"/>
				<path id="XMLID_38_" class="st1" d="M-270.5,300.6h-6.9c-0.2,0-0.4-0.2-0.4-0.4s0.2-0.4,0.4-0.4h6.9c0.2,0,0.4,0.2,0.4,0.4
					S-270.2,300.6-270.5,300.6z"/>
				<path id="XMLID_37_" class="st1" d="M-267.6,300.6c-0.1,0-0.2,0-0.2,0c-0.2,0-0.4-0.2-0.4-0.5c0-0.2,0.2-0.4,0.5-0.4
					c0.4,0,0.9-0.1,1.1-0.3c0,0,0.1-0.1,0.1-0.2l0,0c0.1-1.4-1.2-1.6-2.7-1.8c-0.3,0-0.5-0.1-0.7-0.1c-0.2-0.1-0.4-0.3-0.3-0.5
					s0.3-0.4,0.5-0.3c0.1,0,0.4,0.1,0.6,0.1c1.2,0.1,3.6,0.4,3.5,2.7c0,0.3-0.1,0.6-0.4,0.8C-266.4,300.4-267,300.6-267.6,300.6z"/>
			</g>
			<g id="XMLID_33_">
				<path id="XMLID_35_" class="st1" d="M-282.4,304.6c-0.1,0-0.3-0.1-0.3-0.2c-2.6-3.7-2.6-8.6,0-12.2c0.1-0.2,0.4-0.2,0.6-0.1
					c0.2,0.1,0.2,0.4,0.1,0.6c-2.4,3.4-2.4,7.9,0,11.2c0.1,0.2,0.1,0.5-0.1,0.6C-282.2,304.5-282.3,304.6-282.4,304.6z"/>
				<path id="XMLID_34_" class="st1" d="M-274,308.9c-2.1,0-4.3-0.6-6.1-1.9c-0.2-0.1-0.2-0.4-0.1-0.6c0.1-0.2,0.4-0.2,0.6-0.1
					c3.4,2.4,7.9,2.4,11.2,0c0.2-0.1,0.5-0.1,0.6,0.1c0.1,0.2,0.1,0.5-0.1,0.6C-269.7,308.3-271.9,308.9-274,308.9z"/>
			</g>
			<g id="XMLID_30_">
				<path id="XMLID_32_" class="st1" d="M-268.1,290.3c-0.1,0-0.2,0-0.2-0.1c-3.4-2.4-7.9-2.4-11.2,0c-0.2,0.1-0.5,0.1-0.6-0.1
					s-0.1-0.5,0.1-0.6c3.7-2.6,8.6-2.6,12.2,0c0.2,0.1,0.2,0.4,0.1,0.6C-267.9,290.3-268,290.3-268.1,290.3z"/>
				<path id="XMLID_31_" class="st1" d="M-265.6,304.6c-0.1,0-0.2,0-0.2-0.1c-0.2-0.1-0.2-0.4-0.1-0.6c2.4-3.4,2.4-7.9,0-11.2
					c-0.1-0.2-0.1-0.5,0.1-0.6c0.2-0.1,0.5-0.1,0.6,0.1c2.6,3.7,2.6,8.6,0,12.2C-265.4,304.5-265.5,304.6-265.6,304.6z"/>
			</g>
			<circle id="XMLID_29_" class="st1" cx="-266" cy="304.7" r="0.9"/>
			<circle id="XMLID_28_" class="st1" cx="-282" cy="291.9" r="0.9"/>
			<circle id="XMLID_27_" class="st1" cx="-267.6" cy="290.3" r="0.9"/>
			<circle id="XMLID_26_" class="st1" cx="-280.4" cy="306.3" r="0.9"/>
		</g>
	</g>
	<g id="XMLID_47_">
		<g id="XMLID_48_">
			<g id="XMLID_59_">
				<path id="XMLID_69_" class="st1" d="M-310.3,300.7c-1.4,0-1.6-0.2-1.7-0.3c-0.4-0.4-0.4-1.8-0.3-2.6c0.1-0.5,0.3-0.8,0.6-1
					c0.4-0.2,0.6-0.3,0.9-0.3c0.3-0.1,0.4-0.1,0.6-0.2l0.1-0.1c0.9-0.6,1.8-1.2,2.4-1.3c0,0,4.2-0.4,5.1,0.1c0.3,0.1,0.6,0.3,1,0.6
					c0.6,0.4,1.4,0.8,1.9,1c0.1,0,0.3,0.1,0.6,0.1c1.2,0.1,3.6,0.4,3.5,2.9l0,0c-0.1,1-1.2,1.1-2.3,1.1c-0.2,0-0.4-0.2-0.4-0.4
					s0.2-0.4,0.4-0.4c0.9,0,1.4-0.1,1.5-0.3c0-1.5-1.3-1.8-2.7-2c-0.3,0-0.5-0.1-0.7-0.1c-0.6-0.2-1.4-0.6-2.1-1.1
					c-0.4-0.2-0.7-0.4-0.9-0.5c-0.5-0.2-3.5-0.1-4.6,0c-0.2,0-0.7,0.2-2,1.1l-0.1,0.1c-0.2,0.2-0.5,0.2-0.8,0.3
					c-0.2,0.1-0.5,0.2-0.8,0.3c-0.3,0.2-0.3,1.7-0.1,2.1c0.2,0.1,0.8,0.1,1.3,0.1c0.2,0,0.4,0.2,0.4,0.4c0,0.2-0.2,0.4-0.4,0.4
					C-310.2,300.7-310.3,300.7-310.3,300.7z"/>
				<path id="XMLID_66_" class="st1" d="M-299.2,301.9c-0.9,0-1.7-0.7-1.7-1.7s0.7-1.7,1.7-1.7s1.7,0.7,1.7,1.7
					S-298.3,301.9-299.2,301.9z M-299.2,299.4c-0.4,0-0.8,0.4-0.8,0.8s0.4,0.8,0.8,0.8c0.4,0,0.8-0.4,0.8-0.8
					S-298.8,299.4-299.2,299.4z"/>
				<path id="XMLID_63_" class="st1" d="M-308.5,301.9c-0.9,0-1.7-0.7-1.7-1.7s0.7-1.7,1.7-1.7s1.7,0.7,1.7,1.7
					S-307.6,301.9-308.5,301.9z M-308.5,299.4c-0.4,0-0.8,0.4-0.8,0.8s0.4,0.8,0.8,0.8c0.4,0,0.8-0.4,0.8-0.8
					S-308.1,299.4-308.5,299.4z"/>
				<path id="XMLID_62_" class="st1" d="M-300.8,299L-300.8,299c-0.8,0-4.9-0.1-6-0.7c-1.1-0.7-1.4-1.8-1.4-1.9
					c0-0.2,0.1-0.5,0.3-0.5s0.5,0.1,0.5,0.3c0,0,0.2,0.8,1,1.3c0.6,0.4,3.7,0.6,5.5,0.6c0.2,0,0.4,0.2,0.4,0.4
					C-300.4,298.8-300.6,299-300.8,299z"/>
				<path id="XMLID_61_" class="st1" d="M-300.5,300.6h-6.9c-0.2,0-0.4-0.2-0.4-0.4s0.2-0.4,0.4-0.4h6.9c0.2,0,0.4,0.2,0.4,0.4
					S-300.2,300.6-300.5,300.6z"/>
				<path id="XMLID_60_" class="st1" d="M-297.6,300.6c-0.1,0-0.2,0-0.2,0c-0.2,0-0.4-0.2-0.4-0.5c0-0.2,0.2-0.4,0.5-0.4
					c0.4,0,0.9-0.1,1.1-0.3c0,0,0.1-0.1,0.1-0.2l0,0c0.1-1.4-1.2-1.6-2.7-1.8c-0.3,0-0.5-0.1-0.7-0.1c-0.2-0.1-0.4-0.3-0.3-0.5
					s0.3-0.4,0.5-0.3c0.1,0,0.4,0.1,0.6,0.1c1.2,0.1,3.6,0.4,3.5,2.7c0,0.3-0.1,0.6-0.4,0.8C-296.4,300.4-297,300.6-297.6,300.6z"/>
			</g>
			<g id="XMLID_56_">
				<path id="XMLID_58_" class="st1" d="M-312.4,304.6c-0.1,0-0.3-0.1-0.3-0.2c-2.6-3.7-2.6-8.6,0-12.2c0.1-0.2,0.4-0.2,0.6-0.1
					c0.2,0.1,0.2,0.4,0.1,0.6c-2.4,3.4-2.4,7.9,0,11.2c0.1,0.2,0.1,0.5-0.1,0.6C-312.2,304.5-312.3,304.6-312.4,304.6z"/>
				<path id="XMLID_57_" class="st1" d="M-304,308.9c-2.1,0-4.3-0.6-6.1-1.9c-0.2-0.1-0.2-0.4-0.1-0.6c0.1-0.2,0.4-0.2,0.6-0.1
					c3.4,2.4,7.9,2.4,11.2,0c0.2-0.1,0.5-0.1,0.6,0.1c0.1,0.2,0.1,0.5-0.1,0.6C-299.7,308.3-301.9,308.9-304,308.9z"/>
			</g>
			<g id="XMLID_53_">
				<path id="XMLID_55_" class="st1" d="M-298.1,290.3c-0.1,0-0.2,0-0.2-0.1c-3.4-2.4-7.9-2.4-11.2,0c-0.2,0.1-0.5,0.1-0.6-0.1
					s-0.1-0.5,0.1-0.6c3.7-2.6,8.6-2.6,12.2,0c0.2,0.1,0.2,0.4,0.1,0.6C-297.9,290.3-298,290.3-298.1,290.3z"/>
				<path id="XMLID_54_" class="st1" d="M-295.6,304.6c-0.1,0-0.2,0-0.2-0.1c-0.2-0.1-0.2-0.4-0.1-0.6c2.4-3.4,2.4-7.9,0-11.2
					c-0.1-0.2-0.1-0.5,0.1-0.6c0.2-0.1,0.5-0.1,0.6,0.1c2.6,3.7,2.6,8.6,0,12.2C-295.4,304.5-295.5,304.6-295.6,304.6z"/>
			</g>
			<circle id="XMLID_52_" class="st1" cx="-296" cy="304.7" r="0.9"/>
			<circle id="XMLID_51_" class="st1" cx="-312" cy="291.9" r="0.9"/>
			<circle id="XMLID_50_" class="st1" cx="-297.6" cy="290.3" r="0.9"/>
			<circle id="XMLID_49_" class="st1" cx="-310.4" cy="306.3" r="0.9"/>
		</g>
	</g>
	<g id="XMLID_70_">
		<g id="XMLID_71_">
			<g id="XMLID_82_">
				<path id="XMLID_92_" class="st1" d="M-340.3,300.7c-1.4,0-1.6-0.2-1.7-0.3c-0.4-0.4-0.4-1.8-0.3-2.6c0.1-0.5,0.3-0.8,0.6-1
					c0.4-0.2,0.6-0.3,0.9-0.3c0.3-0.1,0.4-0.1,0.6-0.2l0.1-0.1c0.9-0.6,1.8-1.2,2.4-1.3c0,0,4.2-0.4,5.1,0.1c0.3,0.1,0.6,0.3,1,0.6
					c0.6,0.4,1.4,0.8,1.9,1c0.1,0,0.3,0.1,0.6,0.1c1.2,0.1,3.6,0.4,3.5,2.9l0,0c-0.1,1-1.2,1.1-2.3,1.1c-0.2,0-0.4-0.2-0.4-0.4
					s0.2-0.4,0.4-0.4c0.9,0,1.4-0.1,1.5-0.3c0-1.5-1.3-1.8-2.7-2c-0.3,0-0.5-0.1-0.7-0.1c-0.6-0.2-1.4-0.6-2.1-1.1
					c-0.4-0.2-0.7-0.4-0.9-0.5c-0.5-0.2-3.5-0.1-4.6,0c-0.2,0-0.7,0.2-2,1.1l-0.1,0.1c-0.2,0.2-0.5,0.2-0.8,0.3
					c-0.2,0.1-0.5,0.2-0.8,0.3c-0.3,0.2-0.3,1.7-0.1,2.1c0.2,0.1,0.8,0.1,1.3,0.1c0.2,0,0.4,0.2,0.4,0.4c0,0.2-0.2,0.4-0.4,0.4
					C-340.2,300.7-340.3,300.7-340.3,300.7z"/>
				<path id="XMLID_89_" class="st1" d="M-329.2,301.9c-0.9,0-1.7-0.7-1.7-1.7s0.7-1.7,1.7-1.7s1.7,0.7,1.7,1.7
					S-328.3,301.9-329.2,301.9z M-329.2,299.4c-0.4,0-0.8,0.4-0.8,0.8s0.4,0.8,0.8,0.8c0.4,0,0.8-0.4,0.8-0.8
					S-328.8,299.4-329.2,299.4z"/>
				<path id="XMLID_86_" class="st1" d="M-338.5,301.9c-0.9,0-1.7-0.7-1.7-1.7s0.7-1.7,1.7-1.7s1.7,0.7,1.7,1.7
					S-337.6,301.9-338.5,301.9z M-338.5,299.4c-0.4,0-0.8,0.4-0.8,0.8s0.4,0.8,0.8,0.8c0.4,0,0.8-0.4,0.8-0.8
					S-338.1,299.4-338.5,299.4z"/>
				<path id="XMLID_85_" class="st1" d="M-330.8,299L-330.8,299c-0.8,0-4.9-0.1-6-0.7c-1.1-0.7-1.4-1.8-1.4-1.9
					c0-0.2,0.1-0.5,0.3-0.5s0.5,0.1,0.5,0.3c0,0,0.2,0.8,1,1.3c0.6,0.4,3.7,0.6,5.5,0.6c0.2,0,0.4,0.2,0.4,0.4
					C-330.4,298.8-330.6,299-330.8,299z"/>
				<path id="XMLID_84_" class="st1" d="M-330.5,300.6h-6.9c-0.2,0-0.4-0.2-0.4-0.4s0.2-0.4,0.4-0.4h6.9c0.2,0,0.4,0.2,0.4,0.4
					S-330.2,300.6-330.5,300.6z"/>
				<path id="XMLID_83_" class="st1" d="M-327.6,300.6c-0.1,0-0.2,0-0.2,0c-0.2,0-0.4-0.2-0.4-0.5c0-0.2,0.2-0.4,0.5-0.4
					c0.4,0,0.9-0.1,1.1-0.3c0,0,0.1-0.1,0.1-0.2l0,0c0.1-1.4-1.2-1.6-2.7-1.8c-0.3,0-0.5-0.1-0.7-0.1c-0.2-0.1-0.4-0.3-0.3-0.5
					s0.3-0.4,0.5-0.3c0.1,0,0.4,0.1,0.6,0.1c1.2,0.1,3.6,0.4,3.5,2.7c0,0.3-0.1,0.6-0.4,0.8C-326.4,300.4-327,300.6-327.6,300.6z"/>
			</g>
			<g id="XMLID_79_">
				<path id="XMLID_81_" class="st1" d="M-342.4,304.6c-0.1,0-0.3-0.1-0.3-0.2c-2.6-3.7-2.6-8.6,0-12.2c0.1-0.2,0.4-0.2,0.6-0.1
					c0.2,0.1,0.2,0.4,0.1,0.6c-2.4,3.4-2.4,7.9,0,11.2c0.1,0.2,0.1,0.5-0.1,0.6C-342.2,304.5-342.3,304.6-342.4,304.6z"/>
				<path id="XMLID_80_" class="st1" d="M-334,308.9c-2.1,0-4.3-0.6-6.1-1.9c-0.2-0.1-0.2-0.4-0.1-0.6c0.1-0.2,0.4-0.2,0.6-0.1
					c3.4,2.4,7.9,2.4,11.2,0c0.2-0.1,0.5-0.1,0.6,0.1c0.1,0.2,0.1,0.5-0.1,0.6C-329.7,308.3-331.9,308.9-334,308.9z"/>
			</g>
			<g id="XMLID_76_">
				<path id="XMLID_78_" class="st1" d="M-328.1,290.3c-0.1,0-0.2,0-0.2-0.1c-3.4-2.4-7.9-2.4-11.2,0c-0.2,0.1-0.5,0.1-0.6-0.1
					s-0.1-0.5,0.1-0.6c3.7-2.6,8.6-2.6,12.2,0c0.2,0.1,0.2,0.4,0.1,0.6C-327.9,290.3-328,290.3-328.1,290.3z"/>
				<path id="XMLID_77_" class="st1" d="M-325.6,304.6c-0.1,0-0.2,0-0.2-0.1c-0.2-0.1-0.2-0.4-0.1-0.6c2.4-3.4,2.4-7.9,0-11.2
					c-0.1-0.2-0.1-0.5,0.1-0.6c0.2-0.1,0.5-0.1,0.6,0.1c2.6,3.7,2.6,8.6,0,12.2C-325.4,304.5-325.5,304.6-325.6,304.6z"/>
			</g>
			<circle id="XMLID_75_" class="st1" cx="-326" cy="304.7" r="0.9"/>
			<circle id="XMLID_74_" class="st1" cx="-342" cy="291.9" r="0.9"/>
			<circle id="XMLID_73_" class="st1" cx="-327.6" cy="290.3" r="0.9"/>
			<circle id="XMLID_72_" class="st1" cx="-340.4" cy="306.3" r="0.9"/>
		</g>
	</g>
</g>
</svg>
