<?xml version="1.0" encoding="utf-8"?>
<!-- Generator: Adobe Illustrator 19.0.0, SVG Export Plug-In . SVG Version: 6.00 Build 0)  -->
<svg version="1.1" id="Layer_1" xmlns="http://www.w3.org/2000/svg" xmlns:xlink="http://www.w3.org/1999/xlink" x="0px" y="0px"
	 viewBox="-319 196.7 202.6 202.6" style="enable-background:new -319 196.7 202.6 202.6;" xml:space="preserve">
<style type="text/css">
	.st0{fill:#00B700;}
	.st1{fill:#FFFFFF;}
</style>
<g id="XMLID_2007_">
	<g id="XMLID_1564_">
		<circle id="XMLID_1565_" class="st0" cx="-217.7" cy="298" r="101.3"/>
	</g>
	<g id="XMLID_855_">
		<g id="XMLID_81_">
			<g id="XMLID_91_">
				<g id="XMLID_114_">
					<g id="XMLID_135_">
						<path id="XMLID_136_" class="st1" d="M-209.5,357H-261c-3,0-5.5-2.4-5.5-5.5V244.2c0-3,2.5-5.5,5.5-5.5h51.5
							c3,0,5.5,2.4,5.5,5.5v14.3h-3.6v-14.3c0-1-0.8-1.8-1.9-1.8H-261c-1,0-1.9,0.8-1.9,1.8v107.3c0,1,0.8,1.8,1.9,1.8h51.5
							c1,0,1.9-0.8,1.9-1.8v-25.2h3.6v25.2C-204,354.6-206.5,357-209.5,357z"/>
					</g>
					<g id="XMLID_133_">
						<rect id="XMLID_134_" x="-258.3" y="336.5" class="st1" width="46.1" height="3.6"/>
					</g>
					<g id="XMLID_131_">
						<rect id="XMLID_132_" x="-258.3" y="254.9" class="st1" width="46.1" height="3.6"/>
					</g>
					<g id="XMLID_117_">
						<g id="XMLID_118_">
							<rect id="XMLID_130_" x="-245.1" y="247" class="st1" width="19.7" height="3.6"/>
						</g>
					</g>
					<g id="XMLID_115_">
						<rect id="XMLID_116_" x="-237.7" y="343.9" class="st1" width="4.8" height="3.6"/>
					</g>
				</g>
				<g id="XMLID_92_">
					<g id="XMLID_108_">
						<g id="XMLID_109_">
							<g id="XMLID_110_">
								<g id="XMLID_111_">
									<g id="XMLID_112_">
										<path id="XMLID_113_" class="st1" d="M-239.8,328.3l4.6-13.9c-5.3-6.5-8.2-14.7-8.2-23.1c0-20.3,16.7-36.9,37.3-36.9v3.6
											c-18.6,0-33.7,14.9-33.7,33.3c0,7.9,2.8,15.5,8,21.5l0.7,0.8l-2.6,7.9l7.5-3.5l0.9,0.6c5.7,3.9,12.3,6,19.2,6
											c18.6,0,33.7-14.9,33.7-33.2h3.6c0,20.3-16.7,36.9-37.3,36.9c-7.3,0-14.3-2.1-20.4-6.1L-239.8,328.3z"/>
									</g>
								</g>
							</g>
						</g>
					</g>
					<g id="XMLID_93_">
						<g id="XMLID_105_">
							<path id="XMLID_106_" class="st1" d="M-168.9,291.4h-3.6c0-0.6,0-1.2,0-1.7l3.6-0.2C-168.9,290.1-168.9,290.7-168.9,291.4z"
								/>
						</g>
						<g id="XMLID_96_">
							<path id="XMLID_97_" class="st1" d="M-172.9,286.4c-0.2-1.1-0.4-2.2-0.7-3.2l3.5-0.9c0.3,1.2,0.5,2.4,0.7,3.6L-172.9,286.4z
								 M-174.5,280.1c-0.4-1-0.8-2-1.3-3l3.3-1.6c0.5,1.1,1,2.2,1.4,3.3L-174.5,280.1z M-177.4,274.2c-0.6-0.9-1.2-1.8-1.8-2.7
								l2.9-2.2c0.7,1,1.4,2,2,3L-177.4,274.2z M-181.3,269c-0.7-0.8-1.5-1.6-2.3-2.3l2.4-2.7c0.9,0.8,1.8,1.7,2.6,2.5L-181.3,269z
								 M-186.2,264.6c-0.9-0.6-1.8-1.2-2.7-1.8l1.9-3.1c1,0.6,2.1,1.3,3,2L-186.2,264.6z M-191.8,261.3c-1-0.5-2-0.9-3-1.2l1.2-3.4
								c1.1,0.4,2.3,0.9,3.4,1.4L-191.8,261.3z M-198,259.1c-1.1-0.3-2.1-0.5-3.2-0.6l0.5-3.6c1.2,0.2,2.4,0.4,3.6,0.7L-198,259.1z"
								/>
						</g>
						<g id="XMLID_94_">
							<path id="XMLID_95_" class="st1" d="M-204.5,258.2c-0.6,0-1.1,0-1.7,0v-3.6c0.6,0,1.3,0,1.9,0L-204.5,258.2z"/>
						</g>
					</g>
				</g>
			</g>
		</g>
		<g id="XMLID_3591_">
			<g id="XMLID_3602_">
				<path id="XMLID_3612_" class="st1" d="M-223.3,297.9c-3.8,0-4.4-0.7-4.6-1c-1.1-1.2-1.2-5.1-0.7-7.1c0.3-1.4,0.9-2.3,1.8-2.7
					c1-0.4,1.8-0.7,2.4-0.9c0.7-0.2,1.2-0.4,1.5-0.7l0.3-0.2c2.4-1.7,5-3.4,6.7-3.6c0.1,0,11.6-1,14.1,0.2c0.7,0.4,1.7,0.9,2.8,1.6
					c1.7,1,3.8,2.3,5.2,2.7c0.4,0.1,0.9,0.2,1.6,0.3c3.2,0.4,9.9,1.2,9.7,8.1v0.1c-0.3,2.8-3.5,3-6.4,3c-0.7,0-1.2-0.5-1.2-1.2
					s0.5-1.2,1.2-1.2c2.6,0,3.9-0.3,4-0.8c0.1-4.3-3.6-5.1-7.6-5.6c-0.8-0.1-1.4-0.2-2-0.3c-1.7-0.5-3.9-1.8-5.8-3
					c-1-0.6-1.9-1.2-2.6-1.5c-1.3-0.6-9.7-0.3-12.8,0c-0.6,0.1-2,0.7-5.6,3.2l-0.3,0.2c-0.6,0.4-1.3,0.7-2.1,1
					c-0.6,0.2-1.3,0.5-2.2,0.9c-0.7,0.5-0.8,4.7-0.2,5.9c0.6,0.2,2.1,0.3,3.6,0.2c0.6,0,1.2,0.5,1.2,1.2s-0.5,1.2-1.2,1.2
					C-222.8,297.9-223.1,297.9-223.3,297.9z"/>
				<path id="XMLID_3609_" class="st1" d="M-192.5,301.2c-2.5,0-4.6-2.1-4.6-4.6s2.1-4.6,4.6-4.6s4.6,2.1,4.6,4.6
					S-190,301.2-192.5,301.2z M-192.5,294.4c-1.2,0-2.2,1-2.2,2.2s1,2.2,2.2,2.2s2.2-1,2.2-2.2S-191.3,294.4-192.5,294.4z"/>
				<path id="XMLID_3606_" class="st1" d="M-218.3,301.2c-2.5,0-4.6-2.1-4.6-4.6s2.1-4.6,4.6-4.6s4.6,2.1,4.6,4.6
					S-215.7,301.2-218.3,301.2z M-218.3,294.4c-1.2,0-2.2,1-2.2,2.2s1,2.2,2.2,2.2s2.2-1,2.2-2.2S-217.1,294.4-218.3,294.4z"/>
				<path id="XMLID_3605_" class="st1" d="M-196.9,293.2L-196.9,293.2c-2.3,0-13.7-0.2-16.5-2c-3.1-1.9-3.7-5-3.8-5.2
					c-0.1-0.6,0.3-1.3,0.9-1.4s1.3,0.3,1.4,0.9c0,0.1,0.6,2.3,2.7,3.6c1.7,1.1,10.3,1.6,15.2,1.6c0.7,0,1.2,0.5,1.2,1.2
					C-195.7,292.7-196.3,293.2-196.9,293.2z"/>
				<path id="XMLID_3604_" class="st1" d="M-195.9,297.7h-19c-0.7,0-1.2-0.5-1.2-1.2s0.5-1.2,1.2-1.2h19c0.7,0,1.2,0.5,1.2,1.2
					C-194.8,297.2-195.3,297.7-195.9,297.7z"/>
				<path id="XMLID_3603_" class="st1" d="M-187.9,297.8c-0.2,0-0.5,0-0.7,0c-0.7-0.1-1.1-0.7-1.1-1.3c0.1-0.7,0.7-1.1,1.3-1.1
					c1.1,0.1,2.5-0.3,3.1-0.8c0.1-0.1,0.3-0.3,0.3-0.5c0,0,0,0,0-0.1c0.2-3.8-3.5-4.5-7.5-5.1c-0.8-0.1-1.5-0.2-2-0.3
					c-0.6-0.2-1-0.8-0.8-1.5c0.2-0.6,0.8-1,1.5-0.8c0.4,0.1,1,0.2,1.7,0.3c3.2,0.4,9.9,1.2,9.6,7.5c0,0.8-0.4,1.6-1.1,2.2
					C-184.6,297.2-186.3,297.8-187.9,297.8z"/>
			</g>
			<g id="XMLID_3599_">
				<path id="XMLID_3601_" class="st1" d="M-228.9,308.7c-0.4,0-0.7-0.2-1-0.5c-7.1-10.1-7.1-23.7,0-33.8c0.4-0.5,1.1-0.7,1.6-0.3
					s0.7,1.1,0.3,1.6c-6.5,9.3-6.5,21.8,0,31.1c0.4,0.5,0.2,1.3-0.3,1.6C-228.5,308.6-228.7,308.7-228.9,308.7z"/>
				<path id="XMLID_3600_" class="st1" d="M-205.8,320.8c-5.9,0-11.9-1.8-16.9-5.3c-0.5-0.4-0.7-1.1-0.3-1.6s1.1-0.7,1.6-0.3
					c9.3,6.5,21.8,6.5,31.1,0c0.5-0.4,1.3-0.2,1.6,0.3c0.4,0.5,0.2,1.3-0.3,1.6C-193.9,319-199.8,320.8-205.8,320.8z"/>
			</g>
			<g id="XMLID_3596_">
				<path id="XMLID_3598_" class="st1" d="M-189.5,269.3c-0.2,0-0.5-0.1-0.7-0.2c-9.3-6.5-21.8-6.5-31.1,0c-0.5,0.4-1.3,0.2-1.6-0.3
					c-0.4-0.5-0.2-1.3,0.3-1.6c10.1-7.1,23.7-7.1,33.8,0c0.5,0.4,0.7,1.1,0.3,1.6C-188.8,269.1-189.1,269.3-189.5,269.3z"/>
				<path id="XMLID_3597_" class="st1" d="M-182.6,308.7c-0.2,0-0.5-0.1-0.7-0.2c-0.5-0.4-0.7-1.1-0.3-1.6c6.5-9.3,6.5-21.8,0-31.1
					c-0.4-0.5-0.2-1.3,0.3-1.6c0.5-0.4,1.3-0.2,1.6,0.3c7.1,10.1,7.1,23.7,0,33.8C-181.8,308.5-182.2,308.7-182.6,308.7z"/>
			</g>
			<circle id="XMLID_3595_" class="st1" cx="-183.6" cy="308.9" r="2.6"/>
			<circle id="XMLID_3594_" class="st1" cx="-227.9" cy="273.7" r="2.6"/>
			<circle id="XMLID_3593_" class="st1" cx="-188.1" cy="269.1" r="2.6"/>
			<circle id="XMLID_3592_" class="st1" cx="-223.4" cy="313.5" r="2.6"/>
		</g>
	</g>
</g>
</svg>
