<?xml version="1.0" encoding="utf-8"?>
<!-- Generator: Adobe Illustrator 19.0.0, SVG Export Plug-In . SVG Version: 6.00 Build 0)  -->
<svg version="1.1" id="Layer_1" xmlns="http://www.w3.org/2000/svg" xmlns:xlink="http://www.w3.org/1999/xlink" x="0px" y="0px"
	 viewBox="-1032 2450.8 202.6 202.6" style="enable-background:new -1032 2450.8 202.6 202.6;" xml:space="preserve">
<style type="text/css">
	.st0{fill:#EC2227;}
	.st1{fill:#FFFFFF;}
</style>
<g id="XMLID_2007_">
	<g id="XMLID_1564_">
		<circle id="XMLID_1565_" class="st0" cx="-930.7" cy="2552.1" r="101.3"/>
	</g>
	<g id="XMLID_855_">
		<g id="XMLID_81_">
			<g id="XMLID_91_">
				<g id="XMLID_114_">
					<g id="XMLID_135_">
						<path id="XMLID_136_" class="st1" d="M-922.5,2611.1H-974c-3,0-5.5-2.4-5.5-5.5v-107.3c0-3,2.5-5.5,5.5-5.5h51.5
							c3,0,5.5,2.4,5.5,5.5v14.3h-3.6v-14.3c0-1-0.8-1.8-1.9-1.8H-974c-1,0-1.9,0.8-1.9,1.8v107.3c0,1,0.8,1.8,1.9,1.8h51.5
							c1,0,1.9-0.8,1.9-1.8v-25.2h3.6v25.2C-917,2608.7-919.5,2611.1-922.5,2611.1z"/>
					</g>
					<g id="XMLID_133_">
						<rect id="XMLID_134_" x="-971.3" y="2590.6" class="st1" width="46.1" height="3.6"/>
					</g>
					<g id="XMLID_131_">
						<rect id="XMLID_132_" x="-971.3" y="2509" class="st1" width="46.1" height="3.6"/>
					</g>
					<g id="XMLID_117_">
						<g id="XMLID_118_">
							<rect id="XMLID_130_" x="-958.1" y="2501.1" class="st1" width="19.7" height="3.6"/>
						</g>
					</g>
					<g id="XMLID_115_">
						<rect id="XMLID_116_" x="-950.7" y="2598" class="st1" width="4.8" height="3.6"/>
					</g>
				</g>
				<g id="XMLID_92_">
					<g id="XMLID_108_">
						<g id="XMLID_109_">
							<g id="XMLID_110_">
								<g id="XMLID_111_">
									<g id="XMLID_112_">
										<path id="XMLID_113_" class="st1" d="M-952.8,2582.4l4.6-13.9c-5.3-6.5-8.2-14.7-8.2-23.1c0-20.3,16.7-36.9,37.3-36.9v3.6
											c-18.6,0-33.7,14.9-33.7,33.3c0,7.9,2.8,15.5,8,21.5l0.7,0.8l-2.6,7.9l7.5-3.5l0.9,0.6c5.7,3.9,12.3,6,19.2,6
											c18.6,0,33.7-14.9,33.7-33.2h3.6c0,20.3-16.7,36.9-37.3,36.9c-7.3,0-14.3-2.1-20.4-6.1L-952.8,2582.4z"/>
									</g>
								</g>
							</g>
						</g>
					</g>
					<g id="XMLID_93_">
						<g id="XMLID_105_">
							<path id="XMLID_106_" class="st1" d="M-881.9,2545.5h-3.6c0-0.6,0-1.2,0-1.7l3.6-0.2
								C-881.9,2544.2-881.9,2544.8-881.9,2545.5z"/>
						</g>
						<g id="XMLID_96_">
							<path id="XMLID_97_" class="st1" d="M-885.9,2540.5c-0.2-1.1-0.4-2.2-0.7-3.2l3.5-0.9c0.3,1.2,0.5,2.4,0.7,3.6L-885.9,2540.5
								z M-887.5,2534.2c-0.4-1-0.8-2-1.3-3l3.3-1.6c0.5,1.1,1,2.2,1.4,3.3L-887.5,2534.2z M-890.4,2528.3c-0.6-0.9-1.2-1.8-1.8-2.7
								l2.9-2.2c0.7,1,1.4,2,2,3L-890.4,2528.3z M-894.3,2523.1c-0.7-0.8-1.5-1.6-2.3-2.3l2.4-2.7c0.9,0.8,1.8,1.7,2.6,2.5
								L-894.3,2523.1z M-899.2,2518.7c-0.9-0.6-1.8-1.2-2.7-1.8l1.9-3.1c1,0.6,2.1,1.3,3,2L-899.2,2518.7z M-904.8,2515.4
								c-1-0.5-2-0.9-3-1.2l1.2-3.4c1.1,0.4,2.3,0.9,3.4,1.4L-904.8,2515.4z M-911,2513.2c-1.1-0.3-2.1-0.5-3.2-0.6l0.5-3.6
								c1.2,0.2,2.4,0.4,3.6,0.7L-911,2513.2z"/>
						</g>
						<g id="XMLID_94_">
							<path id="XMLID_95_" class="st1" d="M-917.5,2512.3c-0.6,0-1.1,0-1.7,0v-3.6c0.6,0,1.3,0,1.9,0L-917.5,2512.3z"/>
						</g>
					</g>
				</g>
			</g>
		</g>
		<g id="XMLID_3591_">
			<g id="XMLID_3602_">
				<path id="XMLID_3612_" class="st1" d="M-936.3,2552c-3.8,0-4.4-0.7-4.6-1c-1.1-1.2-1.2-5.1-0.7-7.1c0.3-1.4,0.9-2.3,1.8-2.7
					c1-0.4,1.8-0.7,2.4-0.9c0.7-0.2,1.2-0.4,1.5-0.7l0.3-0.2c2.4-1.7,5-3.4,6.7-3.6c0.1,0,11.6-1,14.1,0.2c0.7,0.4,1.7,0.9,2.8,1.6
					c1.7,1,3.8,2.3,5.2,2.7c0.4,0.1,0.9,0.2,1.6,0.3c3.2,0.4,9.9,1.2,9.7,8.1c0,0,0,0.1,0,0.1c-0.3,2.8-3.5,3-6.4,3
					c-0.7,0-1.2-0.5-1.2-1.2c0-0.7,0.5-1.2,1.2-1.2c2.6,0,3.9-0.3,4-0.8c0.1-4.3-3.6-5.1-7.6-5.6c-0.8-0.1-1.4-0.2-2-0.3
					c-1.7-0.5-3.9-1.8-5.8-3c-1-0.6-1.9-1.2-2.6-1.5c-1.3-0.6-9.7-0.3-12.8,0c-0.6,0.1-2,0.7-5.6,3.2l-0.3,0.2
					c-0.6,0.4-1.3,0.7-2.1,1c-0.6,0.2-1.3,0.5-2.2,0.9c-0.7,0.5-0.8,4.7-0.2,5.9c0.6,0.2,2.1,0.3,3.6,0.2c0.6,0,1.2,0.5,1.2,1.2
					c0,0.7-0.5,1.2-1.2,1.2C-935.8,2552-936.1,2552-936.3,2552z"/>
				<path id="XMLID_3609_" class="st1" d="M-905.5,2555.3c-2.5,0-4.6-2.1-4.6-4.6s2.1-4.6,4.6-4.6s4.6,2.1,4.6,4.6
					S-903,2555.3-905.5,2555.3z M-905.5,2548.5c-1.2,0-2.2,1-2.2,2.2s1,2.2,2.2,2.2s2.2-1,2.2-2.2S-904.3,2548.5-905.5,2548.5z"/>
				<path id="XMLID_3606_" class="st1" d="M-931.3,2555.3c-2.5,0-4.6-2.1-4.6-4.6s2.1-4.6,4.6-4.6s4.6,2.1,4.6,4.6
					S-928.7,2555.3-931.3,2555.3z M-931.3,2548.5c-1.2,0-2.2,1-2.2,2.2s1,2.2,2.2,2.2s2.2-1,2.2-2.2S-930.1,2548.5-931.3,2548.5z"/>
				<path id="XMLID_3605_" class="st1" d="M-909.9,2547.3C-909.9,2547.3-909.9,2547.3-909.9,2547.3c-2.3,0-13.7-0.2-16.5-2
					c-3.1-1.9-3.7-5-3.8-5.2c-0.1-0.6,0.3-1.3,0.9-1.4c0.6-0.1,1.3,0.3,1.4,0.9c0,0.1,0.6,2.3,2.7,3.6c1.7,1.1,10.3,1.6,15.2,1.6
					c0.7,0,1.2,0.5,1.2,1.2C-908.7,2546.8-909.3,2547.3-909.9,2547.3z"/>
				<path id="XMLID_3604_" class="st1" d="M-908.9,2551.8h-19c-0.7,0-1.2-0.5-1.2-1.2c0-0.7,0.5-1.2,1.2-1.2h19
					c0.7,0,1.2,0.5,1.2,1.2C-907.8,2551.3-908.3,2551.8-908.9,2551.8z"/>
				<path id="XMLID_3603_" class="st1" d="M-900.9,2551.9c-0.2,0-0.5,0-0.7,0c-0.7-0.1-1.1-0.7-1.1-1.3c0.1-0.7,0.7-1.1,1.3-1.1
					c1.1,0.1,2.5-0.3,3.1-0.8c0.1-0.1,0.3-0.3,0.3-0.5c0,0,0,0,0-0.1c0.2-3.8-3.5-4.5-7.5-5.1c-0.8-0.1-1.5-0.2-2-0.3
					c-0.6-0.2-1-0.8-0.8-1.5c0.2-0.6,0.8-1,1.5-0.8c0.4,0.1,1,0.2,1.7,0.3c3.2,0.4,9.9,1.2,9.6,7.5c0,0.8-0.4,1.6-1.1,2.2
					C-897.6,2551.3-899.3,2551.9-900.9,2551.9z"/>
			</g>
			<g id="XMLID_3599_">
				<path id="XMLID_3601_" class="st1" d="M-941.9,2562.8c-0.4,0-0.7-0.2-1-0.5c-7.1-10.1-7.1-23.7,0-33.8c0.4-0.5,1.1-0.7,1.6-0.3
					c0.5,0.4,0.7,1.1,0.3,1.6c-6.5,9.3-6.5,21.8,0,31.1c0.4,0.5,0.2,1.3-0.3,1.6C-941.5,2562.7-941.7,2562.8-941.9,2562.8z"/>
				<path id="XMLID_3600_" class="st1" d="M-918.8,2574.9c-5.9,0-11.9-1.8-16.9-5.3c-0.5-0.4-0.7-1.1-0.3-1.6
					c0.4-0.5,1.1-0.7,1.6-0.3c9.3,6.5,21.8,6.5,31.1,0c0.5-0.4,1.3-0.2,1.6,0.3c0.4,0.5,0.2,1.3-0.3,1.6
					C-906.9,2573.1-912.8,2574.9-918.8,2574.9z"/>
			</g>
			<g id="XMLID_3596_">
				<path id="XMLID_3598_" class="st1" d="M-902.5,2523.4c-0.2,0-0.5-0.1-0.7-0.2c-9.3-6.5-21.8-6.5-31.1,0
					c-0.5,0.4-1.3,0.2-1.6-0.3c-0.4-0.5-0.2-1.3,0.3-1.6c10.1-7.1,23.7-7.1,33.8,0c0.5,0.4,0.7,1.1,0.3,1.6
					C-901.8,2523.2-902.1,2523.4-902.5,2523.4z"/>
				<path id="XMLID_3597_" class="st1" d="M-895.6,2562.8c-0.2,0-0.5-0.1-0.7-0.2c-0.5-0.4-0.7-1.1-0.3-1.6c6.5-9.3,6.5-21.8,0-31.1
					c-0.4-0.5-0.2-1.3,0.3-1.6c0.5-0.4,1.3-0.2,1.6,0.3c7.1,10.1,7.1,23.7,0,33.8C-894.8,2562.6-895.2,2562.8-895.6,2562.8z"/>
			</g>
			<circle id="XMLID_3595_" class="st1" cx="-896.6" cy="2563" r="2.6"/>
			<circle id="XMLID_3594_" class="st1" cx="-940.9" cy="2527.8" r="2.6"/>
			<circle id="XMLID_3593_" class="st1" cx="-901.1" cy="2523.2" r="2.6"/>
			<circle id="XMLID_3592_" class="st1" cx="-936.4" cy="2567.6" r="2.6"/>
		</g>
	</g>
</g>
</svg>
