<?xml version="1.0" encoding="utf-8"?>
<!-- Generator: Adobe Illustrator 19.0.0, SVG Export Plug-In . SVG Version: 6.00 Build 0)  -->
<svg version="1.1" id="Layer_1" xmlns="http://www.w3.org/2000/svg" xmlns:xlink="http://www.w3.org/1999/xlink" x="0px" y="0px"
	 viewBox="-370 248.3 100 100" style="enable-background:new -370 248.3 100 100;" xml:space="preserve">
<style type="text/css">
	.st0{fill:#00B700;}
	.st1{fill:#FFFFFF;}
</style>
<g id="XMLID_1085_">
	<circle id="XMLID_1112_" class="st0" cx="-320" cy="298.3" r="50"/>
	<g id="XMLID_1086_">
		<g id="XMLID_1090_">
			<g id="XMLID_1091_">
				<path id="XMLID_1109_" class="st1" d="M-330.7,319.8h8.4v-8.4h-8.4C-330.7,311.4-330.7,319.8-330.7,319.8z M-328.7,313.4h4.4
					v4.4h-4.4V313.4z"/>
				<path id="XMLID_1106_" class="st1" d="M-322.3,300.2h-8.4v8.4h8.4C-322.3,308.6-322.3,300.2-322.3,300.2z M-324.3,306.6h-4.4
					v-4.4h4.4V306.6z"/>
				<path id="XMLID_1103_" class="st1" d="M-322.3,289h-8.4v8.4h8.4C-322.3,297.4-322.3,289-322.3,289z M-324.3,295.4h-4.4V291h4.4
					V295.4z"/>
				<path id="XMLID_1094_" class="st1" d="M-322.3,277.8h-8.4v8.4h8.4C-322.3,286.2-322.3,277.8-322.3,277.8z M-324.3,284.2h-4.4
					v-4.4h4.4V284.2z"/>
				<path id="XMLID_1054_" class="st1" d="M-318.1,319.8h8.4v-8.4h-8.4V319.8z M-316.2,313.4h4.4v4.4h-4.4V313.4z"/>
				<path id="XMLID_1051_" class="st1" d="M-309.7,300.2h-8.4v8.4h8.4C-309.7,308.6-309.7,300.2-309.7,300.2z M-311.7,306.6h-4.4
					v-4.4h4.4V306.6z"/>
				<path id="XMLID_1048_" class="st1" d="M-309.7,289h-8.4v8.4h8.4C-309.7,297.4-309.7,289-309.7,289z M-311.7,295.4h-4.4V291h4.4
					V295.4z"/>
				<path id="XMLID_1045_" class="st1" d="M-309.7,277.8h-8.4v8.4h8.4C-309.7,286.2-309.7,277.8-309.7,277.8z M-311.7,284.2h-4.4
					v-4.4h4.4V284.2z"/>
				<path id="XMLID_1092_" class="st1" d="M-297.1,322.1c0-4.1,0-49.3,0-49.3c0-2.2-1.8-4.1-4.1-4.1h-37.6c-2.2,0-4.1,1.8-4.1,4.1
					v51.1c0,2.2,1.8,4.1,4.1,4.1h37.7c2.2,0,4.1-1.8,4.1-4.1v-1.6h-7h-32.6h-0.1v-47.9h6.6h20.3h6.6c0,0,0,43.8,0,47.7
					C-303.2,325.9-297.1,326.1-297.1,322.1z"/>
			</g>
		</g>
	</g>
</g>
</svg>
