<?xml version="1.0" encoding="utf-8"?>
<!-- Generator: Adobe Illustrator 19.0.0, SVG Export Plug-In . SVG Version: 6.00 Build 0)  -->
<svg version="1.1" id="Layer_1" xmlns="http://www.w3.org/2000/svg" xmlns:xlink="http://www.w3.org/1999/xlink" x="0px" y="0px"
	 viewBox="-370 248.3 100 100" style="enable-background:new -370 248.3 100 100;" xml:space="preserve">
<style type="text/css">
	.st0{fill:#00B700;}
	.st1{fill:#FFFFFF;}
</style>
<g id="XMLID_929_">
	<circle id="XMLID_661_" class="st0" cx="-320" cy="298.3" r="50"/>
	<g id="XMLID_930_">
		<g id="XMLID_934_">
			<g id="XMLID_935_">
				<path id="XMLID_945_" class="st1" d="M-332.7,319.8h8.4v-8.4h-8.4C-332.7,311.4-332.7,319.8-332.7,319.8z M-330.7,313.4h4.4v4.4
					h-4.4V313.4z"/>
				<path id="XMLID_942_" class="st1" d="M-324.3,300.2h-8.4v8.4h8.4C-324.3,308.6-324.3,300.2-324.3,300.2z M-326.3,306.6h-4.4
					v-4.4h4.4V306.6z"/>
				<path id="XMLID_939_" class="st1" d="M-324.3,289h-8.4v8.4h8.4C-324.3,297.4-324.3,289-324.3,289z M-326.3,295.4h-4.4V291h4.4
					V295.4z"/>
				<path id="XMLID_937_" class="st1" d="M-324.3,277.8h-8.4v8.4h8.4C-324.3,286.2-324.3,277.8-324.3,277.8z M-326.3,284.2h-4.4
					v-4.4h4.4V284.2z"/>
				<path id="XMLID_936_" class="st1" d="M-299.1,286.7c0-4.1,0-14,0-14c0-2.2-1.8-4.1-4.1-4.1h-37.7c-2.2,0-4.1,1.8-4.1,4.1v51.1
					c0,2.2,1.8,4.1,4.1,4.1h37.7c2.2,0,4.1-1.8,4.1-4.1v-1.6h-7h-32.6h-0.1v-47.8h6.6h20.3h6.6c0,0,0,8.5,0,12.3
					C-305.3,290.6-299.1,290.8-299.1,286.7z"/>
			</g>
		</g>
		<path id="XMLID_931_" class="st1" d="M-298.4,313.7c4.5-4.5,4.5-11.7,0-16.2s-11.7-4.5-16.2,0s-4.5,11.7,0,16.2
			C-310.2,318.1-302.9,318.1-298.4,313.7z M-313,303.6C-313,303.5-313,303.5-313,303.6c0.8-0.8,2-0.8,2.7-0.1l2.8,2.8l5.7-5.7
			c0.7-0.7,1.9-0.7,2.6,0c0.7,0.7,0.7,1.9,0,2.6l-2.8,2.9l-5.5,5.5l-2.6-2.6l-2.9-2.9C-313.7,305.4-313.7,304.3-313,303.6z"/>
	</g>
</g>
</svg>
