<?xml version="1.0" encoding="utf-8"?>
<!-- Generator: Adobe Illustrator 19.0.0, SVG Export Plug-In . SVG Version: 6.00 Build 0)  -->
<svg version="1.1" id="Layer_1" xmlns="http://www.w3.org/2000/svg" xmlns:xlink="http://www.w3.org/1999/xlink" x="0px" y="0px"
	 viewBox="-1032 2450.8 202.6 202.6" style="enable-background:new -1032 2450.8 202.6 202.6;" xml:space="preserve">
<style type="text/css">
	.st0{fill:#EC2227;}
	.st1{fill:#FFFFFF;}
</style>
<g id="XMLID_1571_">
	<g id="XMLID_1515_">
		<circle id="XMLID_1513_" class="st0" cx="-930.7" cy="2552.1" r="101.3"/>
	</g>
	<g id="XMLID_212_">
		<g id="XMLID_270_">
			<path id="XMLID_271_" class="st1" d="M-912,2611.6h-51.9c-3.1,0-5.5-2.5-5.5-5.5v-33.8h3.7v33.8c0,1,0.8,1.8,1.9,1.8h51.9
				c1,0,1.9-0.8,1.9-1.8v-15h3.7v15C-906.5,2609.1-908.9,2611.6-912,2611.6z"/>
		</g>
		<g id="XMLID_268_">
			<path id="XMLID_269_" class="st1" d="M-906.5,2553.5h-3.7V2498c0-1-0.8-1.8-1.9-1.8h-51.9c-1,0-1.9,0.8-1.9,1.8v14.2h-3.7V2498
				c0-3,2.5-5.5,5.5-5.5h51.9c3.1,0,5.5,2.5,5.5,5.5V2553.5z"/>
		</g>
		<g id="XMLID_266_">
			<rect id="XMLID_267_" x="-961.2" y="2591.5" class="st1" width="46.5" height="3.7"/>
		</g>
		<g id="XMLID_264_">
			<rect id="XMLID_265_" x="-961.2" y="2508.1" class="st1" width="46.5" height="3.7"/>
		</g>
		<g id="XMLID_261_">
			<g id="XMLID_262_">
				<rect id="XMLID_263_" x="-947.9" y="2500.7" class="st1" width="19.8" height="3.7"/>
			</g>
		</g>
		<g id="XMLID_259_">
			<rect id="XMLID_260_" x="-940.4" y="2598.4" class="st1" width="4.8" height="3.7"/>
		</g>
		<g id="XMLID_248_">
			<g id="XMLID_254_">
				<path id="XMLID_255_" class="st1" d="M-969.4,2565.9v-12.5h-8.8v-36.4h59.2v36.4h-36.4L-969.4,2565.9z M-974.5,2549.7h8.8v8l9-8
					h34.1v-29.1h-51.9V2549.7z"/>
			</g>
			<g id="XMLID_252_">
				<rect id="XMLID_253_" x="-965.5" y="2529.4" class="st1" width="33.8" height="3.7"/>
			</g>
			<g id="XMLID_250_">
				<rect id="XMLID_251_" x="-965.5" y="2537.8" class="st1" width="33.8" height="3.7"/>
			</g>
		</g>
		<g id="XMLID_221_">
			<path id="XMLID_222_" class="st1" d="M-892,2597.4l-14-12.5h-30.3v-25.6h53.1v25.6h-8.8V2597.4z M-932.7,2581.2h28l9,8v-8h8.8
				v-18.3h-45.8V2581.2z"/>
		</g>
		<g id="XMLID_217_">
			<rect id="XMLID_218_" x="-927.3" y="2570.5" class="st1" width="33.8" height="3.7"/>
		</g>
	</g>
</g>
</svg>
