<?xml version="1.0" encoding="utf-8"?>
<!-- Generator: Adobe Illustrator 19.0.0, SVG Export Plug-In . SVG Version: 6.00 Build 0)  -->
<svg version="1.1" id="Layer_1" xmlns="http://www.w3.org/2000/svg" xmlns:xlink="http://www.w3.org/1999/xlink" x="0px" y="0px"
	 viewBox="-319 196.7 202.6 202.6" style="enable-background:new -319 196.7 202.6 202.6;" xml:space="preserve">
<style type="text/css">
	.st0{fill:#00B700;}
	.st1{fill:#FFFFFF;}
</style>
<g id="XMLID_1571_">
	<g id="XMLID_1515_">
		<circle id="XMLID_1513_" class="st0" cx="-217.7" cy="298" r="101.3"/>
	</g>
	<g id="XMLID_212_">
		<g id="XMLID_270_">
			<path id="XMLID_271_" class="st1" d="M-199,357.5h-51.9c-3.1,0-5.5-2.5-5.5-5.5v-33.8h3.7V352c0,1,0.8,1.8,1.9,1.8h51.9
				c1,0,1.9-0.8,1.9-1.8v-15h3.7v15C-193.5,355-195.9,357.5-199,357.5z"/>
		</g>
		<g id="XMLID_268_">
			<path id="XMLID_269_" class="st1" d="M-193.5,299.4h-3.7v-55.5c0-1-0.8-1.8-1.9-1.8H-251c-1,0-1.9,0.8-1.9,1.8v14.2h-3.7v-14.2
				c0-3,2.5-5.5,5.5-5.5h51.9c3.1,0,5.5,2.5,5.5,5.5v55.5H-193.5z"/>
		</g>
		<g id="XMLID_266_">
			<rect id="XMLID_267_" x="-248.2" y="337.4" class="st1" width="46.5" height="3.7"/>
		</g>
		<g id="XMLID_264_">
			<rect id="XMLID_265_" x="-248.2" y="254" class="st1" width="46.5" height="3.7"/>
		</g>
		<g id="XMLID_261_">
			<g id="XMLID_262_">
				<rect id="XMLID_263_" x="-234.9" y="246.6" class="st1" width="19.8" height="3.7"/>
			</g>
		</g>
		<g id="XMLID_259_">
			<rect id="XMLID_260_" x="-227.4" y="344.3" class="st1" width="4.8" height="3.7"/>
		</g>
		<g id="XMLID_248_">
			<g id="XMLID_254_">
				<path id="XMLID_255_" class="st1" d="M-256.4,311.8v-12.5h-8.8v-36.4h59.2v36.4h-36.4L-256.4,311.8z M-261.5,295.6h8.8v8l9-8
					h34.1v-29.1h-51.9L-261.5,295.6L-261.5,295.6z"/>
			</g>
			<g id="XMLID_252_">
				<rect id="XMLID_253_" x="-252.5" y="275.3" class="st1" width="33.8" height="3.7"/>
			</g>
			<g id="XMLID_250_">
				<rect id="XMLID_251_" x="-252.5" y="283.7" class="st1" width="33.8" height="3.7"/>
			</g>
		</g>
		<g id="XMLID_221_">
			<path id="XMLID_222_" class="st1" d="M-179,343.3l-14-12.5h-30.3v-25.6h53.1v25.6h-8.8V343.3z M-219.7,327.1h28l9,8v-8h8.8v-18.3
				h-45.8V327.1z"/>
		</g>
		<g id="XMLID_217_">
			<rect id="XMLID_218_" x="-214.3" y="316.4" class="st1" width="33.8" height="3.7"/>
		</g>
	</g>
</g>
</svg>
