<?xml version="1.0" encoding="utf-8"?>
<!-- Generator: Adobe Illustrator 19.0.0, SVG Export Plug-In . SVG Version: 6.00 Build 0)  -->
<svg version="1.1" id="Layer_1" xmlns="http://www.w3.org/2000/svg" xmlns:xlink="http://www.w3.org/1999/xlink" x="0px" y="0px"
	 viewBox="-1032 2450.8 202.6 202.6" style="enable-background:new -1032 2450.8 202.6 202.6;" xml:space="preserve">
<style type="text/css">
	.st0{fill:#EC2227;}
	.st1{fill:#FFFFFF;}
</style>
<g>
	<g id="XMLID_1560_">
		<circle id="XMLID_1561_" class="st0" cx="-930.7" cy="2552.1" r="101.3"/>
	</g>
	<g id="XMLID_393_">
		<g id="XMLID_414_">
			<g id="XMLID_428_">
				<path id="XMLID_429_" class="st1" d="M-922.8,2603.8h-17.4l-1.1-13.2c-3.6-1-7-2.6-10.2-4.6l-9.6,8.3l-12.3-12.5l8.4-10.1
					c-1.8-3.3-3.2-6.9-4-10.6l-12.6-1.1l0-17.6l13-1.1c1-3.7,2.5-7.2,4.5-10.4l-8.1-9.8l12.3-12.5l10,8.6c3.3-1.9,6.7-3.2,10.4-4.1
					l1-12.8h17.4l1.1,13.2c3.6,1,7,2.6,10.2,4.6l9.6-8.3l12.3,12.5l-8.4,10.1c1.8,3.3,3.2,6.9,4,10.6l12.6,1.1v17.6l-13,1.1
					c-1,3.7-2.5,7.2-4.5,10.4l8.1,9.8l-12.3,12.5l-10-8.6c-3.3,1.9-6.7,3.2-10.4,4.1L-922.8,2603.8z M-936.6,2599.8h10.1l1-12.1
					l1.5-0.3c4.2-0.8,8.2-2.4,11.8-4.6l1.2-0.8l9.3,8l7.1-7.3l-7.7-9.3l0.8-1.2c2.4-3.6,4.1-7.6,5.1-11.8l0.3-1.4l12.2-1v-10.3
					l-11.9-1l-0.3-1.5c-0.8-4.3-2.3-8.3-4.6-12l-0.7-1.2l7.9-9.5l-7.1-7.3l-9.1,7.8l-1.3-0.9c-3.5-2.4-7.4-4.2-11.6-5.2l-1.4-0.3
					l-1-12.4h-10.1l-1,12.1l-1.5,0.3c-4.2,0.8-8.2,2.4-11.8,4.6l-1.2,0.8l-9.3-8l-7.1,7.3l7.7,9.3l-0.8,1.2
					c-2.4,3.6-4.1,7.6-5.1,11.8l-0.3,1.4l-12.2,1l0,10.3l11.9,1l0.3,1.5c0.8,4.3,2.3,8.3,4.6,12l0.7,1.2l-7.9,9.5l7.1,7.3l9.1-7.8
					l1.3,0.9c3.5,2.4,7.4,4.2,11.6,5.2l1.4,0.3L-936.6,2599.8z"/>
			</g>
			<g id="XMLID_424_">
				<path id="XMLID_425_" class="st1" d="M-930.7,2578.9c-14.6,0-26.5-12.1-26.5-26.9c0-14.8,11.9-26.9,26.5-26.9
					c14.6,0,26.5,12.1,26.5,26.9C-904.2,2566.9-916.1,2578.9-930.7,2578.9z M-930.7,2529.2c-12.4,0-22.5,10.3-22.5,22.9
					c0,12.6,10.1,22.9,22.5,22.9c12.4,0,22.5-10.3,22.5-22.9C-908.2,2539.4-918.3,2529.2-930.7,2529.2z"/>
			</g>
			<g id="XMLID_415_">
				<g id="XMLID_422_">
					<path id="XMLID_423_" class="st1" d="M-927.9,2555.6l-8.2-3.2c-2.5-1.6-3.8-3.6-3.8-5.7v-3.5c0-4,3.2-7.2,7.1-7.2h4.1
						c3.9,0,7.1,3.2,7.1,7.2v1.7h-4v-1.7c0-1.8-1.4-3.2-3.1-3.2h-4.1c-1.7,0-3.1,1.4-3.1,3.2v3.5c0,0.9,1.1,1.8,1.8,2.3l7.6,3
						L-927.9,2555.6z"/>
				</g>
				<g id="XMLID_420_">
					<path id="XMLID_421_" class="st1" d="M-928.6,2568.9h-4.1c-3.9,0-7.1-3.2-7.1-7.2v-1.7h4v1.7c0,1.8,1.4,3.2,3.1,3.2h4.1
						c1.7,0,3.1-1.4,3.1-3.2v-3.5c0-0.7-0.7-1.6-1.9-2.4l-7.3-2.8l1.5-3.7l7.8,3.1c2.6,1.6,3.9,3.7,3.9,5.8v3.5
						C-921.5,2565.6-924.7,2568.9-928.6,2568.9z"/>
				</g>
				<g id="XMLID_418_">
					<rect id="XMLID_419_" x="-932.4" y="2527.9" class="st1" width="4" height="10.6"/>
				</g>
				<g id="XMLID_416_">
					<rect id="XMLID_417_" x="-932.4" y="2565.6" class="st1" width="4" height="10.6"/>
				</g>
			</g>
		</g>
	</g>
</g>
</svg>
