<?xml version="1.0" encoding="utf-8"?>
<!-- Generator: Adobe Illustrator 19.0.0, SVG Export Plug-In . SVG Version: 6.00 Build 0)  -->
<svg version="1.1" id="Layer_1" xmlns="http://www.w3.org/2000/svg" xmlns:xlink="http://www.w3.org/1999/xlink" x="0px" y="0px"
	 viewBox="-1032 2450.8 202.6 202.6" style="enable-background:new -1032 2450.8 202.6 202.6;" xml:space="preserve">
<style type="text/css">
	.st0{fill:#EC2227;}
	.st1{fill:#FFFFFF;}
</style>
<g id="XMLID_1993_">
	<g id="XMLID_1566_">
		<circle id="XMLID_1567_" class="st0" cx="-930.7" cy="2552.1" r="101.3"/>
	</g>
	<g id="XMLID_1150_">
		<g id="XMLID_1203_">
			<path id="XMLID_1204_" class="st1" d="M-933,2592.3c-1.5-0.1-3.1-0.3-4.6-0.5l0.8-4.3c1.3,0.2,2.7,0.4,4.1,0.5L-933,2592.3z
				 M-928.3,2592.3l-0.3-4.4c1.4-0.1,2.8-0.2,4.1-0.5l0.8,4.3C-925.2,2592-926.8,2592.2-928.3,2592.3z M-942.1,2590.7
				c-1.5-0.4-2.9-1-4.4-1.6l1.8-4c1.3,0.6,2.6,1,3.9,1.4L-942.1,2590.7z M-919.2,2590.6l-1.3-4.2c1.3-0.4,2.6-0.9,3.9-1.4l1.8,4
				C-916.2,2589.6-917.7,2590.2-919.2,2590.6z M-950.7,2586.9c-1.3-0.8-2.6-1.7-3.9-2.6l2.7-3.5c1.1,0.8,2.3,1.6,3.4,2.3
				L-950.7,2586.9z M-910.7,2586.9l-2.2-3.8c1.2-0.7,2.3-1.5,3.4-2.3l2.7,3.5C-908.1,2585.2-909.4,2586.1-910.7,2586.9z
				 M-958,2581.3c-1.1-1.1-2.2-2.2-3.2-3.4l3.4-2.8c0.9,1.1,1.8,2.1,2.8,3L-958,2581.3z M-903.3,2581.2l-3.1-3.2c1-1,1.9-2,2.8-3
				l3.4,2.8C-901.1,2579-902.2,2580.2-903.3,2581.2z M-963.9,2574.1c-0.8-1.3-1.6-2.7-2.3-4l3.9-2c0.6,1.2,1.3,2.4,2,3.6
				L-963.9,2574.1z M-897.4,2574.1l-3.7-2.4c0.7-1.2,1.4-2.4,2-3.6l4,1.9C-895.8,2571.4-896.6,2572.8-897.4,2574.1z M-968.1,2565.8
				c-0.5-1.5-1-3-1.3-4.5l4.3-1c0.3,1.3,0.7,2.7,1.2,4L-968.1,2565.8z M-893.3,2565.7l-4.2-1.5c0.5-1.3,0.9-2.6,1.2-4l4.3,1
				C-892.4,2562.8-892.8,2564.3-893.3,2565.7z M-970.2,2556.8c-0.2-1.5-0.3-3.1-0.3-4.6l4.4,0c0,1.4,0.1,2.8,0.2,4.1L-970.2,2556.8z
				 M-891.2,2556.7l-4.4-0.5c0.2-1.4,0.2-2.8,0.2-4.1l0-0.1h4.4l0,0.1C-891,2553.6-891.1,2555.2-891.2,2556.7z M-965.8,2548
				l-4.4-0.5c0.2-1.5,0.4-3.1,0.8-4.6l4.3,1C-965.4,2545.2-965.6,2546.6-965.8,2548z M-895.6,2547.8c-0.2-1.4-0.4-2.7-0.7-4.1l4.3-1
				c0.4,1.5,0.6,3,0.8,4.6L-895.6,2547.8z M-964,2539.9l-4.2-1.5c0.5-1.5,1.1-2.9,1.8-4.3l4,1.9
				C-963,2537.3-963.5,2538.6-964,2539.9z M-897.5,2539.7c-0.5-1.3-1-2.6-1.6-3.8l3.9-2c0.7,1.4,1.3,2.8,1.8,4.3L-897.5,2539.7z
				 M-960.3,2532.5l-3.7-2.4c0.8-1.3,1.8-2.6,2.7-3.8l3.4,2.8C-958.8,2530.2-959.6,2531.3-960.3,2532.5z M-901.2,2532.3
				c-0.7-1.2-1.6-2.3-2.5-3.3l3.4-2.8c1,1.2,1.9,2.5,2.8,3.7L-901.2,2532.3z M-955.1,2526.1l-3.1-3.2c1.1-1.1,2.3-2.1,3.5-3l2.7,3.5
				C-953,2524.2-954.1,2525.1-955.1,2526.1z M-906.5,2526c-1-1-2.1-1.9-3.1-2.7l2.7-3.5c1.2,0.9,2.4,1.9,3.5,3L-906.5,2526z
				 M-948.5,2521.1l-2.3-3.8c1.3-0.8,2.7-1.5,4.1-2.1l1.8,4C-946.1,2519.7-947.3,2520.4-948.5,2521.1z M-913,2521
				c-1.2-0.7-2.4-1.3-3.7-1.9l1.8-4c1.4,0.6,2.8,1.3,4.1,2.1L-913,2521z M-941,2517.7l-1.3-4.2c1.5-0.5,3-0.8,4.5-1.1l0.8,4.3
				C-938.3,2517-939.7,2517.3-941,2517.7z M-920.6,2517.7c-1.3-0.4-2.7-0.7-4-1l0.8-4.3c1.5,0.3,3.1,0.6,4.5,1.1L-920.6,2517.7z
				 M-932.9,2516.2l-0.3-4.4c0.8-0.1,1.6-0.1,2.4-0.1c0.7,0,1.5,0,2.2,0.1l-0.3,4.4c-0.7,0-1.3,0-2-0.1
				C-931.5,2516.2-932.2,2516.2-932.9,2516.2z"/>
		</g>
		<g id="XMLID_1162_">
			<g id="XMLID_1198_">
				<g id="XMLID_1201_">
					<polygon id="XMLID_1202_" class="st1" points="-921.5,2500.3 -929.9,2491.8 -938.3,2500.3 -941.2,2497.5 -929.9,2486.1 
						-918.7,2497.5 					"/>
				</g>
				<g id="XMLID_1199_">
					<rect id="XMLID_1200_" x="-931.9" y="2490.9" class="st1" width="4" height="16.9"/>
				</g>
			</g>
			<g id="XMLID_1193_">
				<g id="XMLID_1196_">
					<polygon id="XMLID_1197_" class="st1" points="-972.1,2521 -976.1,2521 -976.1,2504.9 -960.2,2504.9 -960.2,2508.9 
						-972.1,2508.9 					"/>
				</g>
				<g id="XMLID_1194_">
					
						<rect id="XMLID_1195_" x="-975.2" y="2512.2" transform="matrix(0.7019 0.7123 -0.7123 0.7019 1502.6129 1438.1956)" class="st1" width="16.7" height="4"/>
				</g>
			</g>
			<g id="XMLID_1188_">
				<g id="XMLID_1191_">
					<polygon id="XMLID_1192_" class="st1" points="-984.5,2562.6 -995.7,2551.3 -984.5,2539.9 -981.6,2542.7 -990.1,2551.3 
						-981.6,2559.8 					"/>
				</g>
				<g id="XMLID_1189_">
					<rect id="XMLID_1190_" x="-990.9" y="2549.3" class="st1" width="16.6" height="4"/>
				</g>
			</g>
			<g id="XMLID_1183_">
				<g id="XMLID_1186_">
					<polygon id="XMLID_1187_" class="st1" points="-961.3,2598.1 -977.2,2598.1 -977.2,2582 -973.2,2582 -973.2,2594.1 
						-961.3,2594.1 					"/>
				</g>
				<g id="XMLID_1184_">
					
						<rect id="XMLID_1185_" x="-970" y="2580.4" transform="matrix(0.7126 0.7016 -0.7016 0.7126 1538.0323 1423.1671)" class="st1" width="4" height="16.7"/>
				</g>
			</g>
			<g id="XMLID_1178_">
				<g id="XMLID_1181_">
					<polygon id="XMLID_1182_" class="st1" points="-901.2,2599.3 -901.2,2595.3 -889.3,2595.2 -889.3,2583.2 -885.3,2583.2 
						-885.3,2599.2 					"/>
				</g>
				<g id="XMLID_1179_">
					
						<rect id="XMLID_1180_" x="-902.9" y="2587.9" transform="matrix(0.702 0.7122 -0.7122 0.702 1577.9246 1408.9326)" class="st1" width="16.7" height="4"/>
				</g>
			</g>
			<g id="XMLID_1173_">
				<g id="XMLID_1176_">
					<polygon id="XMLID_1177_" class="st1" points="-876.9,2564.2 -879.8,2561.4 -871.3,2552.9 -879.8,2544.3 -876.9,2541.5 
						-865.7,2552.9 					"/>
				</g>
				<g id="XMLID_1174_">
					<rect id="XMLID_1175_" x="-887.1" y="2550.9" class="st1" width="16.6" height="4"/>
				</g>
			</g>
			<g id="XMLID_1168_">
				<g id="XMLID_1171_">
					<polygon id="XMLID_1172_" class="st1" points="-931.5,2618 -942.7,2606.6 -939.9,2603.8 -931.5,2612.3 -923.1,2603.8 
						-920.2,2606.6 					"/>
				</g>
				<g id="XMLID_1169_">
					<rect id="XMLID_1170_" x="-933.5" y="2596.3" class="st1" width="4" height="16.9"/>
				</g>
			</g>
			<g id="XMLID_1163_">
				<g id="XMLID_1166_">
					<polygon id="XMLID_1167_" class="st1" points="-888.2,2522.1 -888.2,2510 -900.1,2510 -900.1,2506 -884.2,2506 -884.2,2522.1 
											"/>
				</g>
				<g id="XMLID_1164_">
					
						<rect id="XMLID_1165_" x="-895.4" y="2507" transform="matrix(0.7126 0.7016 -0.7016 0.7126 1507.9705 1349.8125)" class="st1" width="4" height="16.7"/>
				</g>
			</g>
		</g>
		<g id="XMLID_1151_">
			<g id="XMLID_1158_">
				<path id="XMLID_1159_" class="st1" d="M-930.7,2584.9c-17.8,0-32.4-14.7-32.4-32.8c0-18.1,14.5-32.8,32.4-32.8
					c17.8,0,32.4,14.7,32.4,32.8C-898.3,2570.2-912.9,2584.9-930.7,2584.9z M-930.7,2524.3c-15.1,0-27.4,12.5-27.4,27.8
					c0,15.3,12.3,27.8,27.4,27.8c15.1,0,27.4-12.5,27.4-27.8C-903.3,2536.7-915.6,2524.3-930.7,2524.3z"/>
			</g>
			<g id="XMLID_1154_">
				<path id="XMLID_1155_" class="st1" d="M-930.7,2561.7c-7.2,0-13-5.9-13-13.1c0-7.3,5.8-13.2,13-13.2c7.2,0,13,5.9,13,13.2
					C-917.7,2555.8-923.5,2561.7-930.7,2561.7z M-930.7,2540.4c-4.4,0-8,3.7-8,8.1c0,4.5,3.6,8.1,8,8.1c4.4,0,8-3.7,8-8.1
					C-922.7,2544-926.3,2540.4-930.7,2540.4z"/>
			</g>
			<g id="XMLID_1152_">
				<path id="XMLID_1153_" class="st1" d="M-909.8,2573.6h-5v-0.9c0-4.5-3.6-8.1-8-8.1h-15.7c-4.4,0-8,3.7-8,8.1v0.9h-5v-0.9
					c0-7.3,5.8-13.2,13-13.2h15.7c7.2,0,13,5.9,13,13.2V2573.6z"/>
			</g>
		</g>
	</g>
</g>
</svg>
