<?xml version="1.0" encoding="utf-8"?>
<!-- Generator: Adobe Illustrator 19.0.0, SVG Export Plug-In . SVG Version: 6.00 Build 0)  -->
<svg version="1.1" id="Layer_1" xmlns="http://www.w3.org/2000/svg" xmlns:xlink="http://www.w3.org/1999/xlink" x="0px" y="0px"
	 viewBox="-319 196.7 202.6 202.6" style="enable-background:new -319 196.7 202.6 202.6;" xml:space="preserve">
<style type="text/css">
	.st0{fill:#00B700;}
	.st1{fill:#FFFFFF;}
</style>
<g id="XMLID_1993_">
	<g id="XMLID_1566_">
		<circle id="XMLID_1567_" class="st0" cx="-217.7" cy="298" r="101.3"/>
	</g>
	<g id="XMLID_1150_">
		<g id="XMLID_1162_">
			<g id="XMLID_1198_">
				<g id="XMLID_1201_">
					<polygon id="XMLID_1202_" class="st1" points="-208.5,246.2 -216.9,237.7 -225.3,246.2 -228.2,243.4 -216.9,232 -205.7,243.4 
											"/>
				</g>
				<g id="XMLID_1199_">
					<rect id="XMLID_1200_" x="-218.9" y="236.8" class="st1" width="4" height="16.9"/>
				</g>
			</g>
			<g id="XMLID_1193_">
				<g id="XMLID_1196_">
					<polygon id="XMLID_1197_" class="st1" points="-259.1,266.9 -263.1,266.9 -263.1,250.8 -247.2,250.8 -247.2,254.8 
						-259.1,254.8 					"/>
				</g>
				<g id="XMLID_1194_">
					
						<rect id="XMLID_1195_" x="-262.2" y="258.1" transform="matrix(-0.7019 -0.7123 0.7123 -0.7019 -617.3513 261.8315)" class="st1" width="16.7" height="4"/>
				</g>
			</g>
			<g id="XMLID_1188_">
				<g id="XMLID_1191_">
					<polygon id="XMLID_1192_" class="st1" points="-271.5,308.5 -282.7,297.2 -271.5,285.8 -268.6,288.6 -277.1,297.2 
						-268.6,305.7 					"/>
				</g>
				<g id="XMLID_1189_">
					<rect id="XMLID_1190_" x="-277.9" y="295.2" class="st1" width="16.6" height="4"/>
				</g>
			</g>
			<g id="XMLID_1183_">
				<g id="XMLID_1186_">
					<polygon id="XMLID_1187_" class="st1" points="-248.3,344 -264.2,344 -264.2,327.9 -260.2,327.9 -260.2,340 -248.3,340 					
						"/>
				</g>
				<g id="XMLID_1184_">
					
						<rect id="XMLID_1185_" x="-257" y="326.3" transform="matrix(-0.7126 -0.7016 0.7016 -0.7126 -671.5425 394.1755)" class="st1" width="4" height="16.7"/>
				</g>
			</g>
			<g id="XMLID_1178_">
				<g id="XMLID_1181_">
					<polygon id="XMLID_1182_" class="st1" points="-188.2,345.2 -188.2,341.2 -176.3,341.1 -176.3,329.1 -172.3,329.1 
						-172.3,345.1 					"/>
				</g>
				<g id="XMLID_1179_">
					
						<rect id="XMLID_1180_" x="-189.9" y="333.8" transform="matrix(-0.702 -0.7122 0.7122 -0.702 -548.2104 442.2518)" class="st1" width="16.7" height="4"/>
				</g>
			</g>
			<g id="XMLID_1173_">
				<g id="XMLID_1176_">
					<polygon id="XMLID_1177_" class="st1" points="-163.9,310.1 -166.8,307.3 -158.3,298.8 -166.8,290.2 -163.9,287.4 
						-152.7,298.8 					"/>
				</g>
				<g id="XMLID_1174_">
					<rect id="XMLID_1175_" x="-174.1" y="296.8" class="st1" width="16.6" height="4"/>
				</g>
			</g>
			<g id="XMLID_1168_">
				<g id="XMLID_1171_">
					<polygon id="XMLID_1172_" class="st1" points="-218.5,363.9 -229.7,352.5 -226.9,349.7 -218.5,358.2 -210.1,349.7 
						-207.2,352.5 					"/>
				</g>
				<g id="XMLID_1169_">
					<rect id="XMLID_1170_" x="-220.5" y="342.2" class="st1" width="4" height="16.9"/>
				</g>
			</g>
			<g id="XMLID_1163_">
				<g id="XMLID_1166_">
					<polygon id="XMLID_1167_" class="st1" points="-175.2,268 -175.2,255.9 -187.1,255.9 -187.1,251.9 -171.2,251.9 -171.2,268 
											"/>
				</g>
				<g id="XMLID_1164_">
					
						<rect id="XMLID_1165_" x="-182.4" y="253" transform="matrix(-0.7126 -0.7016 0.7016 -0.7126 -492.3512 320.9438)" class="st1" width="4" height="16.7"/>
				</g>
			</g>
		</g>
		<g id="XMLID_1151_">
			<g id="XMLID_1158_">
				<path id="XMLID_1159_" class="st1" d="M-217.7,338.9c-22.2,0-40.5-18.4-40.5-41c0-22.6,18.1-41,40.5-41
					c22.2,0,40.5,18.4,40.5,41C-177.2,320.6-195.5,338.9-217.7,338.9z M-217.7,263.3c-18.9,0-34.2,15.6-34.2,34.7
					c0,19.1,15.4,34.7,34.2,34.7c18.9,0,34.2-15.6,34.2-34.7C-183.5,278.7-198.8,263.3-217.7,263.3z"/>
			</g>
			<g id="XMLID_1154_">
				<path id="XMLID_1155_" class="st1" d="M-217.7,310c-9,0-16.2-7.4-16.2-16.4c0-9.1,7.2-16.5,16.2-16.5s16.2,7.4,16.2,16.5
					C-201.5,302.6-208.7,310-217.7,310z M-217.7,283.4c-5.5,0-10,4.6-10,10.1c0,5.6,4.5,10.1,10,10.1s10-4.6,10-10.1
					C-207.7,287.9-212.2,283.4-217.7,283.4z"/>
			</g>
			<g id="XMLID_1152_">
				<path id="XMLID_1153_" class="st1" d="M-191.6,324.8h-6.2v-1.1c0-5.6-4.5-10.1-10-10.1h-19.6c-5.5,0-10,4.6-10,10.1v1.1h-6.2
					v-1.1c0-9.1,7.2-16.5,16.2-16.5h19.6c9,0,16.2,7.4,16.2,16.5V324.8z"/>
			</g>
		</g>
	</g>
</g>
</svg>
