<?xml version="1.0" encoding="utf-8"?>
<!-- Generator: Adobe Illustrator 19.0.0, SVG Export Plug-In . SVG Version: 6.00 Build 0)  -->
<svg version="1.1" id="Ebene_1" xmlns="http://www.w3.org/2000/svg" xmlns:xlink="http://www.w3.org/1999/xlink" x="0px" y="0px"
	 viewBox="-347 224.3 147 147" style="enable-background:new -347 224.3 147 147;" xml:space="preserve">
<style type="text/css">
	.st0{fill:#00B700;}
</style>
<g>
	<path class="st0" d="M-262.5,371.3h-21.9v-1c0-7.8-4.5-14.6-11.8-17.6c-7.3-3-15.3-1.4-20.8,4.1l-0.7,0.7l-15.5-15.5l0.7-0.7
		c5.6-5.6,7.1-13.6,4.1-20.9c-3-7.2-9.8-11.7-17.6-11.7h-1v-21.9h1c7.9,0,14.6-4.5,17.6-11.8c3-7.2,1.4-15.2-4.1-20.7l-0.7-0.7
		l15.4-15.5l0.7,0.7c5.6,5.6,13.6,7.1,20.9,4.1c7.2-3,11.7-9.8,11.7-17.6v-1h22v1c0,7.9,4.5,14.6,11.8,17.6c7.3,3,15.2,1.4,20.7-4.2
		l0.7-0.7l15.5,15.5l-0.7,0.7c-5.6,5.6-7.1,13.6-4.1,20.9c3,7.2,9.8,11.7,17.6,11.7h1.1v21.9h-1c-7.8,0-14.6,4.5-17.6,11.8
		c-3,7.3-1.4,15.3,4.1,20.8l0.7,0.7l-15.5,15.5l-0.7-0.7c-5.6-5.6-13.6-7.1-20.9-4.1c-7.2,3-11.7,9.8-11.7,17.6V371.3z
		 M-282.5,369.3h17.9c0.4-8.2,5.2-15.2,12.9-18.4c7.7-3.2,16.2-1.7,22.3,3.8l12.7-12.7c-5.6-6.1-7.1-14.5-3.9-22.3
		c3.2-7.7,10.2-12.6,18.4-13v-17.9c-8.3-0.3-15.3-5.2-18.5-12.9c-3.2-7.7-1.7-16.2,3.8-22.3l-12.7-12.7c-6.1,5.6-14.5,7.1-22.2,4
		c-7.7-3.2-12.6-10.2-13-18.5h-18c-0.4,8.2-5.2,15.2-12.9,18.4c-7.7,3.2-16.2,1.7-22.3-3.8l-12.6,12.7c5.6,6.1,7.1,14.5,3.9,22.2
		c-3.2,7.7-10.2,12.6-18.5,13v17.9c8.2,0.4,15.2,5.2,18.4,12.9c3.2,7.7,1.7,16.2-3.8,22.3l12.7,12.7c6.1-5.6,14.5-7.1,22.3-3.9
		C-287.7,354-282.8,361-282.5,369.3z"/>
	<path class="st0" d="M-273.5,343.5c-25.2,0-45.7-20.5-45.7-45.7c0-25.2,20.5-45.7,45.7-45.7s45.7,20.5,45.7,45.7
		C-227.8,323-248.4,343.5-273.5,343.5z M-273.5,254.1c-24.1,0-43.7,19.6-43.7,43.7s19.6,43.7,43.7,43.7c24.1,0,43.7-19.6,43.7-43.7
		S-249.5,254.1-273.5,254.1z"/>
</g>
</svg>
