<?xml version="1.0" encoding="utf-8"?>
<!-- Generator: Adobe Illustrator 19.0.0, SVG Export Plug-In . SVG Version: 6.00 Build 0)  -->
<svg version="1.1" id="Layer_1" xmlns="http://www.w3.org/2000/svg" xmlns:xlink="http://www.w3.org/1999/xlink" x="0px" y="0px"
	 viewBox="-319 196.7 202.6 202.6" style="enable-background:new -319 196.7 202.6 202.6;" xml:space="preserve">
<style type="text/css">
	.st0{fill:#00B700;}
	.st1{fill:#FFFFFF;}
</style>
<g>
	<path id="XMLID_69_" class="st0" d="M-217.7,198.1c-55.1,0-99.9,44.8-99.9,99.9s44.8,99.9,99.9,99.9s99.9-44.8,99.9-99.9
		S-162.7,198.1-217.7,198.1z"/>
	<path id="XMLID_53_" class="st1" d="M-211.1,334.1l8.9-1.7v-7.3l-8.9,1.7V334.1z M-217.7,278.5c6.4,0,11.6-5.2,11.6-11.6
		s-5.2-11.6-11.6-11.6c-6.4,0-11.6,5.2-11.6,11.6S-224.1,278.5-217.7,278.5z M-217.7,256.4c5.8,0,10.5,4.7,10.5,10.5
		s-4.7,10.5-10.5,10.5c-5.8,0-10.5-4.7-10.5-10.5C-228.2,261.1-223.5,256.4-217.7,256.4z M-172.2,286.3l-21.3-4
		c-1.2-0.2-2.3,0.6-2.6,1.8c-0.2,1.2,0.6,2.3,1.8,2.6l0.9,0.2v29c-1.3,0.5-2.3,1.6-2.7,2.9l-5.4-1.1c-0.1,0-0.3,0-0.4,0l-31,6.1
		l-15.1-3v-32l6.2,1.2c1.2,0.2,2.3-0.6,2.6-1.8c0.2-1.2-0.6-2.3-1.8-2.6l-19.5-3.7c-1.9-0.4-4,0.2-5.5,1.4c-1.5,1.3-2.4,3.2-2.4,5.2
		v51.4c0,3.2,2.3,6,5.5,6.6l28,5.3c0.4,0.1,0.8,0.1,1.2,0.1s0.8,0,1.2-0.1l31.2-5.9l26.7,5c1.9,0.4,4-0.2,5.5-1.4
		c1.6-1.3,2.4-3.2,2.4-5.2v-51.4C-166.8,289.7-169.1,286.9-172.2,286.3z M-250.3,344.4l-12-2.3c-1.1-0.2-1.9-1.2-1.9-2.3v-20.1
		l13.9,2.7V344.4z M-250.3,320.3l-13.6-2.7c-0.1,0-0.2,0-0.3,0v-29.1c0-0.7,0.3-1.3,0.8-1.8c0.5-0.4,1.2-0.6,1.9-0.5l11.2,2.1
		L-250.3,320.3L-250.3,320.3z M-193.4,342.9l-7.6-1.4c-0.3-0.1-0.5-0.1-0.8,0l-31.6,6c-0.3,0.1-0.6,0.1-0.9,0l-13.7-2.6V323
		l14.9,2.9c0.1,0,0.3,0,0.4,0l31-6.1l5.4,1.1c0.2,1.8,1.4,3.3,3,4v18H-193.4z M-171.2,344.3c0,0.7-0.3,1.3-0.8,1.8
		c-0.5,0.4-1.3,0.6-1.9,0.5l-16.2-3.1V325c1.2-0.4,2.3-1.2,2.9-2.3l16.1,3.2L-171.2,344.3L-171.2,344.3z M-171.2,323.6l-15.5-3
		c0-0.1,0-0.2,0-0.2c0-2.2-1.5-4.1-3.5-4.7v-28.2l17.1,3.2c1.1,0.2,1.9,1.2,1.9,2.3C-171.2,293-171.2,323.6-171.2,323.6z
		 M-239.5,277.7l18,38.1c0.7,1.4,2.2,2.4,3.8,2.4c1.6,0,3.1-0.9,3.8-2.4l18-38.1c0.1-0.1,0.1-0.2,0.1-0.3c1.3-3,2-6.2,2-9.4
		c0-13.1-10.7-23.8-23.8-23.8c-13.1,0-23.8,10.7-23.8,23.8c0,3.2,0.6,6.3,1.9,9.3C-239.6,277.4-239.6,277.5-239.5,277.7z
		 M-217.7,248.5c10.7,0,19.4,8.7,19.4,19.4c0,2.7-0.6,5.3-1.7,7.9v0.1l-17.7,37.5l-17.8-37.6l-0.1-0.3c-1-2.4-1.6-5-1.6-7.6
		C-237.1,257.2-228.4,248.5-217.7,248.5z M-242.3,316.7l8.9,1.7v-7.3l-8.9-1.7V316.7z"/>
</g>
</svg>
