<?xml version="1.0" encoding="utf-8"?>
<!-- Generator: Adobe Illustrator 21.1.0, SVG Export Plug-In . SVG Version: 6.00 Build 0)  -->
<svg version="1.1" id="Ebene_1" xmlns="http://www.w3.org/2000/svg" xmlns:xlink="http://www.w3.org/1999/xlink" x="0px" y="0px"
	 viewBox="0 0 1600 915.8" style="enable-background:new 0 0 1600 915.8;" xml:space="preserve">
<style type="text/css">
	.st0{fill:#1F1F2E;}
	.st1{opacity:0.2;}
	.st2{fill:none;stroke:#9CB8E2;stroke-miterlimit:10;}
</style>
<rect y="0" class="st0" width="1600" height="915.8"/>
<g class="st1">
	<g>
		<g>
			<g>
				<polyline class="st2" points="285.9,622.4 285.9,307.1 405.7,307.1 405.7,626.4 				"/>
				<line class="st2" x1="276.4" y1="325.4" x2="415.2" y2="325.4"/>
				<g>
					<rect x="298.7" y="341.4" class="st2" width="14.4" height="267.9"/>
					<rect x="325" y="341.4" class="st2" width="14.4" height="267.9"/>
					<rect x="351.4" y="341.4" class="st2" width="14.4" height="267.9"/>
					<rect x="378.5" y="341.4" class="st2" width="14.4" height="267.9"/>
				</g>
			</g>
			<g>
				<rect x="315.7" y="256.8" class="st2" width="59.1" height="50.3"/>
				<rect x="332.4" y="206.5" class="st2" width="25.5" height="50.3"/>
				<line class="st2" x1="322.4" y1="219.3" x2="367.9" y2="219.3"/>
				<line class="st2" x1="345.2" y1="205.7" x2="345.2" y2="145.8"/>
				<line class="st2" x1="324.8" y1="273.5" x2="365.5" y2="273.5"/>
				<line class="st2" x1="324.8" y1="283.9" x2="365.5" y2="283.9"/>
				<line class="st2" x1="324.8" y1="294.3" x2="365.5" y2="294.3"/>
			</g>
		</g>
		<g>
			<polyline class="st2" points="285.7,460.3 192.3,460.3 192.3,447.6 285.7,447.6 			"/>
			<line class="st2" x1="201.8" y1="459.5" x2="201.8" y2="626.4"/>
			<rect x="211.4" y="472.3" class="st2" width="14.4" height="14.4"/>
			<rect x="235.4" y="472.3" class="st2" width="14.4" height="14.4"/>
			<rect x="259.3" y="472.3" class="st2" width="14.4" height="14.4"/>
			<rect x="259.3" y="496.2" class="st2" width="14.4" height="14.4"/>
			<rect x="235.4" y="496.2" class="st2" width="14.4" height="14.4"/>
			<rect x="211.4" y="496.2" class="st2" width="14.4" height="14.4"/>
			<rect x="211.4" y="520.2" class="st2" width="14.4" height="14.4"/>
			<rect x="235.4" y="520.2" class="st2" width="14.4" height="14.4"/>
			<rect x="259.3" y="520.2" class="st2" width="14.4" height="14.4"/>
			<rect x="259.3" y="544.1" class="st2" width="14.4" height="14.4"/>
			<rect x="235.4" y="544.1" class="st2" width="14.4" height="14.4"/>
			<rect x="211.4" y="544.1" class="st2" width="14.4" height="14.4"/>
			<rect x="211.4" y="568.1" class="st2" width="14.4" height="14.4"/>
			<rect x="235.4" y="568.1" class="st2" width="14.4" height="14.4"/>
			<rect x="259.3" y="568.1" class="st2" width="14.4" height="14.4"/>
		</g>
		<g>
			<polyline class="st2" points="459.6,503.1 459.6,381.9 596.9,381.9 596.9,446.7 			"/>
			<rect x="479.6" y="356.4" class="st2" width="97.4" height="25.5"/>
			<polygon class="st2" points="556.2,330.8 556.2,306.1 545.8,306.1 545.8,281.3 510.7,281.3 510.7,306.1 500.3,306.1 500.3,330.8 
				490,330.8 490,356.4 566.6,356.4 566.6,330.8 			"/>
			<rect x="521.4" y="257.4" class="st2" width="13.8" height="99"/>
			<line class="st2" x1="521.9" y1="269.4" x2="534.7" y2="269.4"/>
			<line class="st2" x1="521.9" y1="281.3" x2="534.7" y2="281.3"/>
			<line class="st2" x1="521.9" y1="293.3" x2="534.7" y2="293.3"/>
			<line class="st2" x1="521.9" y1="305.3" x2="534.7" y2="305.3"/>
			<line class="st2" x1="521.9" y1="318.1" x2="534.7" y2="318.1"/>
			<line class="st2" x1="521.9" y1="330.8" x2="534.7" y2="330.8"/>
			<line class="st2" x1="521.9" y1="343.6" x2="534.7" y2="343.6"/>
			<line class="st2" x1="528.3" y1="257.1" x2="528.3" y2="204.4"/>
			<g>
				<polyline class="st2" points="472.6,503.9 472.6,401.2 488.2,401.2 488.2,607.7 				"/>
				<rect x="504.5" y="401.2" class="st2" width="15.6" height="206.7"/>
				<rect x="536.5" y="401.2" class="st2" width="15.6" height="206.7"/>
				<polyline class="st2" points="576.8,607.9 568.4,607.9 568.4,401.2 584,401.2 584,446.4 				"/>
			</g>
		</g>
		<g>
			<polyline class="st2" points="424.6,626.4 424.6,503.4 478.8,503.4 478.8,626.4 			"/>
			<g>
				<line class="st2" x1="437.3" y1="519.4" x2="437.3" y2="616.8"/>
				<line class="st2" x1="451.7" y1="519.4" x2="451.7" y2="616.8"/>
				<line class="st2" x1="466.1" y1="519.4" x2="466.1" y2="616.8"/>
			</g>
		</g>
		<g>
			<polyline class="st2" points="577.8,626.4 577.8,447.6 632.1,447.6 632.1,626.4 			"/>
			<g>
				<line class="st2" x1="590.6" y1="463.5" x2="590.6" y2="616"/>
				<line class="st2" x1="605" y1="463.5" x2="605" y2="616"/>
				<line class="st2" x1="619.3" y1="463.5" x2="619.3" y2="616"/>
			</g>
		</g>
		<g>
			<polyline class="st2" points="717.2,627 717.2,357.2 655,301.3 655,627 			"/>
			<g>
				<line class="st2" x1="670.1" y1="256" x2="670.1" y2="627"/>
				<line class="st2" x1="686.1" y1="329.2" x2="686.1" y2="627"/>
				<line class="st2" x1="702.1" y1="343.6" x2="702.1" y2="627"/>
			</g>
		</g>
		<g>
			<polyline class="st2" points="717.2,595.1 717.2,453.2 750,423.8 750,624.6 			"/>
			<line class="st2" x1="725.2" y1="459.8" x2="741.2" y2="459.8"/>
			<line class="st2" x1="725.2" y1="475.8" x2="741.2" y2="475.8"/>
			<line class="st2" x1="725.2" y1="491.7" x2="741.2" y2="491.7"/>
			<line class="st2" x1="725.2" y1="507.7" x2="741.2" y2="507.7"/>
			<line class="st2" x1="725.2" y1="523.7" x2="741.2" y2="523.7"/>
			<line class="st2" x1="725.2" y1="539.6" x2="741.2" y2="539.6"/>
			<line class="st2" x1="725.2" y1="555.6" x2="741.2" y2="555.6"/>
			<line class="st2" x1="725.2" y1="571.6" x2="741.2" y2="571.6"/>
			<line class="st2" x1="750" y1="436.4" x2="750" y2="381.6"/>
		</g>
		<g>
			<polyline class="st2" points="806.7,503.1 806.7,381.9 928.1,381.9 928.1,446.7 			"/>
			<polygon class="st2" points="919.3,381.9 815.5,381.9 839.4,305.3 895.3,305.3 			"/>
			<rect x="860.5" y="255" class="st2" width="13.8" height="50.3"/>
			<line class="st2" x1="861" y1="267.8" x2="873.8" y2="267.8"/>
			<line class="st2" x1="861" y1="280.5" x2="873.8" y2="280.5"/>
			<line class="st2" x1="861" y1="293.3" x2="873.8" y2="293.3"/>
			<line class="st2" x1="861" y1="305.3" x2="873.8" y2="305.3"/>
			<line class="st2" x1="867.4" y1="253.9" x2="867.4" y2="188.5"/>
		</g>
		<g>
			<polyline class="st2" points="759.7,626.4 759.7,503.4 813.9,503.4 813.9,626.4 			"/>
			<g>
				<line class="st2" x1="772.4" y1="519.4" x2="772.4" y2="616.8"/>
				<line class="st2" x1="786.8" y1="519.4" x2="786.8" y2="616.8"/>
				<line class="st2" x1="801.2" y1="519.4" x2="801.2" y2="616.8"/>
			</g>
		</g>
		<g>
			<polyline class="st2" points="922.5,626.4 922.5,447.6 976.8,447.6 976.8,626.4 			"/>
			<g>
				<line class="st2" x1="935.3" y1="463.5" x2="935.3" y2="616"/>
				<line class="st2" x1="949.7" y1="463.5" x2="949.7" y2="616"/>
				<line class="st2" x1="964" y1="463.5" x2="964" y2="616"/>
			</g>
		</g>
		<rect x="824.3" y="393.3" class="st2" width="14.4" height="14.4"/>
		<rect x="824.3" y="417.2" class="st2" width="14.4" height="14.4"/>
		<rect x="824.3" y="441.2" class="st2" width="14.4" height="14.4"/>
		<rect x="824.3" y="465.1" class="st2" width="14.4" height="14.4"/>
		<rect x="824.3" y="489.1" class="st2" width="14.4" height="14.4"/>
		<rect x="896.9" y="393.3" class="st2" width="14.4" height="14.4"/>
		<polygon class="st2" points="873,393.3 872.2,393.3 872.2,407.6 873,407.6 886.6,407.6 887.4,407.6 887.4,393.3 886.6,393.3 		"/>
		<polygon class="st2" points="849.1,393.3 848.3,393.3 848.3,407.6 849.1,407.6 862.6,407.6 863.4,407.6 863.4,393.3 862.6,393.3 
					"/>
		<polygon class="st2" points="849.1,417.2 848.3,417.2 848.3,431.6 849.1,431.6 862.6,431.6 863.4,431.6 863.4,417.2 862.6,417.2 
					"/>
		<polygon class="st2" points="873,417.2 872.2,417.2 872.2,431.6 873,431.6 886.6,431.6 887.4,431.6 887.4,417.2 886.6,417.2 		"/>
		<rect x="896.9" y="417.2" class="st2" width="14.4" height="14.4"/>
		<rect x="896.9" y="441.2" class="st2" width="14.4" height="14.4"/>
		<polygon class="st2" points="873,441.2 872.2,441.2 872.2,455.5 873,455.5 886.6,455.5 887.4,455.5 887.4,441.2 886.6,441.2 		"/>
		<polygon class="st2" points="849.1,441.2 848.3,441.2 848.3,455.5 849.1,455.5 862.6,455.5 863.4,455.5 863.4,441.2 862.6,441.2 
					"/>
		<polygon class="st2" points="849.1,465.1 848.3,465.1 848.3,479.5 849.1,479.5 862.6,479.5 863.4,479.5 863.4,465.1 862.6,465.1 
					"/>
		<polygon class="st2" points="873,465.1 872.2,465.1 872.2,479.5 873,479.5 886.6,479.5 887.4,479.5 887.4,465.1 886.6,465.1 		"/>
		<rect x="896.9" y="465.1" class="st2" width="14.4" height="14.4"/>
		<rect x="896.9" y="489.1" class="st2" width="14.4" height="14.4"/>
		<polygon class="st2" points="873,489.1 872.2,489.1 872.2,503.4 873,503.4 886.6,503.4 887.4,503.4 887.4,489.1 886.6,489.1 		"/>
		<polygon class="st2" points="849.1,489.1 848.3,489.1 848.3,503.4 849.1,503.4 862.6,503.4 863.4,503.4 863.4,489.1 862.6,489.1 
					"/>
		<rect x="824.3" y="513" class="st2" width="14.4" height="14.4"/>
		<rect x="824.3" y="537" class="st2" width="14.4" height="14.4"/>
		<rect x="824.3" y="560.9" class="st2" width="14.4" height="14.4"/>
		<rect x="824.3" y="584.9" class="st2" width="14.4" height="14.4"/>
		<rect x="896.9" y="513" class="st2" width="14.4" height="14.4"/>
		<polygon class="st2" points="873,513 872.2,513 872.2,527.4 873,527.4 886.6,527.4 887.4,527.4 887.4,513 886.6,513 		"/>
		<polygon class="st2" points="849.1,513 848.3,513 848.3,527.4 849.1,527.4 862.6,527.4 863.4,527.4 863.4,513 862.6,513 		"/>
		<polygon class="st2" points="849.1,537 848.3,537 848.3,551.3 849.1,551.3 862.6,551.3 863.4,551.3 863.4,537 862.6,537 		"/>
		<polygon class="st2" points="873,537 872.2,537 872.2,551.3 873,551.3 886.6,551.3 887.4,551.3 887.4,537 886.6,537 		"/>
		<rect x="896.9" y="537" class="st2" width="14.4" height="14.4"/>
		<rect x="896.9" y="560.9" class="st2" width="14.4" height="14.4"/>
		<polygon class="st2" points="873,560.9 872.2,560.9 872.2,575.3 873,575.3 886.6,575.3 887.4,575.3 887.4,560.9 886.6,560.9 		"/>
		<polygon class="st2" points="849.1,560.9 848.3,560.9 848.3,575.3 849.1,575.3 862.6,575.3 863.4,575.3 863.4,560.9 862.6,560.9 
					"/>
		<polygon class="st2" points="849.1,584.9 848.3,584.9 848.3,599.2 849.1,599.2 862.6,599.2 863.4,599.2 863.4,584.9 862.6,584.9 
					"/>
		<polygon class="st2" points="873,584.9 872.2,584.9 872.2,599.2 873,599.2 886.6,599.2 887.4,599.2 887.4,584.9 886.6,584.9 		"/>
		<rect x="896.9" y="584.9" class="st2" width="14.4" height="14.4"/>
	</g>
	<g>
		<g>
			<g>
				<polyline class="st2" points="1080,447.6 1080,355 1199.8,355 1199.8,503.4 				"/>
				<g>
					<polyline class="st2" points="1107.2,447.6 1107.2,373.3 1092.8,373.3 1092.8,447.6 					"/>
					<rect x="1119.1" y="373.3" class="st2" width="14.4" height="236"/>
					<rect x="1145.5" y="373.3" class="st2" width="14.4" height="236"/>
					<polyline class="st2" points="1187,503.4 1187,373.3 1172.6,373.3 1172.6,609.3 					"/>
				</g>
			</g>
			<g>
				<rect x="1109.7" y="256.8" class="st2" width="59.1" height="98.2"/>
				<rect x="1126.5" y="206.5" class="st2" width="25.5" height="50.3"/>
				<line class="st2" x1="1116.5" y1="219.3" x2="1162" y2="219.3"/>
				<line class="st2" x1="1139.3" y1="205.7" x2="1139.3" y2="145.8"/>
				<line class="st2" x1="1118.9" y1="313.5" x2="1159.6" y2="313.5"/>
				<line class="st2" x1="1118.9" y1="323.8" x2="1159.6" y2="323.8"/>
				<line class="st2" x1="1118.9" y1="334.2" x2="1159.6" y2="334.2"/>
				<line class="st2" x1="1118.9" y1="281.5" x2="1159.6" y2="281.5"/>
				<line class="st2" x1="1118.9" y1="291.9" x2="1159.6" y2="291.9"/>
				<line class="st2" x1="1118.9" y1="302.3" x2="1159.6" y2="302.3"/>
			</g>
		</g>
		<g>
			<polyline class="st2" points="1180.3,626.4 1180.3,503.4 1234.6,503.4 1234.6,626.4 			"/>
			<g>
				<line class="st2" x1="1193.1" y1="519.4" x2="1193.1" y2="616.8"/>
				<line class="st2" x1="1207.5" y1="519.4" x2="1207.5" y2="616.8"/>
				<line class="st2" x1="1221.8" y1="519.4" x2="1221.8" y2="616.8"/>
			</g>
		</g>
		<g>
			<polyline class="st2" points="1375.7,511 1375.7,357.2 1313.5,301.3 1313.5,627 			"/>
			<g>
				<line class="st2" x1="1328.6" y1="331.5" x2="1328.6" y2="627"/>
				<line class="st2" x1="1344.6" y1="345.2" x2="1344.6" y2="627"/>
				<line class="st2" x1="1360.6" y1="359.6" x2="1360.6" y2="627"/>
			</g>
		</g>
		<g>
			<rect x="1005.5" y="472.3" class="st2" width="14.4" height="14.4"/>
			<rect x="1005.5" y="496.2" class="st2" width="14.4" height="14.4"/>
			<rect x="1005.5" y="520.2" class="st2" width="14.4" height="14.4"/>
			<rect x="1005.5" y="544.1" class="st2" width="14.4" height="14.4"/>
			<rect x="1005.5" y="568.1" class="st2" width="14.4" height="14.4"/>
			<polygon class="st2" points="1079.7,447.6 1018.3,447.6 986.4,447.6 986.4,460.3 1018.3,460.3 1079.7,460.3 1111.7,460.3 
				1111.7,447.6 			"/>
			<rect x="1078.2" y="472.3" class="st2" width="14.4" height="14.4"/>
			<polygon class="st2" points="1054.2,472.3 1053.4,472.3 1053.4,486.7 1054.2,486.7 1067.8,486.7 1068.6,486.7 1068.6,472.3 
				1067.8,472.3 			"/>
			<polygon class="st2" points="1030.3,472.3 1029.5,472.3 1029.5,486.7 1030.3,486.7 1043.8,486.7 1044.6,486.7 1044.6,472.3 
				1043.8,472.3 			"/>
			<polygon class="st2" points="1030.3,496.2 1029.5,496.2 1029.5,510.6 1030.3,510.6 1043.8,510.6 1044.6,510.6 1044.6,496.2 
				1043.8,496.2 			"/>
			<polygon class="st2" points="1054.2,496.2 1053.4,496.2 1053.4,510.6 1054.2,510.6 1067.8,510.6 1068.6,510.6 1068.6,496.2 
				1067.8,496.2 			"/>
			<rect x="1078.2" y="496.2" class="st2" width="14.4" height="14.4"/>
			<rect x="1078.2" y="520.2" class="st2" width="14.4" height="14.4"/>
			<polygon class="st2" points="1054.2,520.2 1053.4,520.2 1053.4,534.6 1054.2,534.6 1067.8,534.6 1068.6,534.6 1068.6,520.2 
				1067.8,520.2 			"/>
			<polygon class="st2" points="1030.3,520.2 1029.5,520.2 1029.5,534.6 1030.3,534.6 1043.8,534.6 1044.6,534.6 1044.6,520.2 
				1043.8,520.2 			"/>
			<polygon class="st2" points="1030.3,544.1 1029.5,544.1 1029.5,558.5 1030.3,558.5 1043.8,558.5 1044.6,558.5 1044.6,544.1 
				1043.8,544.1 			"/>
			<polygon class="st2" points="1054.2,544.1 1053.4,544.1 1053.4,558.5 1054.2,558.5 1067.8,558.5 1068.6,558.5 1068.6,544.1 
				1067.8,544.1 			"/>
			<rect x="1078.2" y="544.1" class="st2" width="14.4" height="14.4"/>
			<rect x="1078.2" y="568.1" class="st2" width="14.4" height="14.4"/>
			<polygon class="st2" points="1054.2,568.1 1053.4,568.1 1053.4,582.5 1054.2,582.5 1067.8,582.5 1068.6,582.5 1068.6,568.1 
				1067.8,568.1 			"/>
			<polygon class="st2" points="1030.3,568.1 1029.5,568.1 1029.5,582.5 1030.3,582.5 1043.8,582.5 1044.6,582.5 1044.6,568.1 
				1043.8,568.1 			"/>
		</g>
		<line class="st2" x1="992.9" y1="460.3" x2="992.9" y2="606.4"/>
		<line class="st2" x1="1104.7" y1="460.3" x2="1104.7" y2="606.4"/>
		<g>
			<polyline class="st2" points="1353,336.7 1353,231.9 1313.5,196.4 1313.5,303.6 			"/>
			<g>
				<line class="st2" x1="1329.5" y1="151.7" x2="1329.5" y2="210.6"/>
			</g>
		</g>
		<line class="st2" x1="1321.3" y1="287.1" x2="1344.6" y2="287.1"/>
		<line class="st2" x1="1321.3" y1="255.2" x2="1344.6" y2="255.2"/>
		<line class="st2" x1="1321.3" y1="265.6" x2="1344.6" y2="265.6"/>
		<line class="st2" x1="1321.3" y1="275.9" x2="1344.6" y2="275.9"/>
		<g>
			<polyline class="st2" points="1313.2,457.8 1238.8,457.8 1238.8,445 1313.2,445 			"/>
			<line class="st2" x1="1248.4" y1="457" x2="1248.4" y2="623.8"/>
			<rect x="1257.9" y="469.8" class="st2" width="14.4" height="14.4"/>
			<rect x="1281.9" y="469.8" class="st2" width="14.4" height="14.4"/>
			<rect x="1305.8" y="469.8" class="st2" width="7.4" height="14.4"/>
			<rect x="1305.8" y="493.7" class="st2" width="7.4" height="14.4"/>
			<rect x="1281.9" y="493.7" class="st2" width="14.4" height="14.4"/>
			<rect x="1257.9" y="493.7" class="st2" width="14.4" height="14.4"/>
			<rect x="1257.9" y="517.7" class="st2" width="14.4" height="14.4"/>
			<rect x="1281.9" y="517.7" class="st2" width="14.4" height="14.4"/>
			<rect x="1305.8" y="517.7" class="st2" width="7.4" height="14.4"/>
			<rect x="1305.8" y="541.6" class="st2" width="7.4" height="14.4"/>
			<rect x="1281.9" y="541.6" class="st2" width="14.4" height="14.4"/>
			<rect x="1257.9" y="541.6" class="st2" width="14.4" height="14.4"/>
			<rect x="1257.9" y="565.6" class="st2" width="14.4" height="14.4"/>
			<rect x="1281.9" y="565.6" class="st2" width="14.4" height="14.4"/>
			<rect x="1305.8" y="565.6" class="st2" width="7.4" height="14.4"/>
		</g>
	</g>
	<g>
		<g>
			<polyline class="st2" points="105.5,626.4 105.5,447.6 51.2,447.6 51.2,626.4 			"/>
			<g>
				<line class="st2" x1="92.7" y1="463.5" x2="92.7" y2="616"/>
				<line class="st2" x1="78.3" y1="463.5" x2="78.3" y2="616"/>
				<line class="st2" x1="64" y1="463.5" x2="64" y2="616"/>
			</g>
		</g>
		<g>
			<polyline class="st2" points="182.5,627 182.5,357.2 120.2,301.3 120.2,627 			"/>
			<g>
				<line class="st2" x1="135.4" y1="331.5" x2="135.4" y2="627"/>
				<line class="st2" x1="151.4" y1="345.2" x2="151.4" y2="627"/>
				<line class="st2" x1="167.3" y1="359.6" x2="167.3" y2="627"/>
			</g>
		</g>
		<g>
			<polyline class="st2" points="18.4,625.1 18.4,453.2 51.1,423.8 51.1,624.6 			"/>
			<line class="st2" x1="26.4" y1="459.8" x2="42.3" y2="459.8"/>
			<line class="st2" x1="26.4" y1="475.8" x2="42.3" y2="475.8"/>
			<line class="st2" x1="26.4" y1="491.7" x2="42.3" y2="491.7"/>
			<line class="st2" x1="26.4" y1="507.7" x2="42.3" y2="507.7"/>
			<line class="st2" x1="26.4" y1="523.7" x2="42.3" y2="523.7"/>
			<line class="st2" x1="26.4" y1="539.6" x2="42.3" y2="539.6"/>
			<line class="st2" x1="26.4" y1="555.6" x2="42.3" y2="555.6"/>
			<line class="st2" x1="26.4" y1="571.6" x2="42.3" y2="571.6"/>
			<line class="st2" x1="51.1" y1="436.4" x2="51.1" y2="381.6"/>
		</g>
		<g>
			<polyline class="st2" points="159.8,336.7 159.8,231.9 120.2,196.4 120.2,303.6 			"/>
			<g>
				<line class="st2" x1="136.2" y1="151.7" x2="136.2" y2="210.6"/>
			</g>
		</g>
		<line class="st2" x1="128" y1="287.1" x2="151.4" y2="287.1"/>
		<line class="st2" x1="128" y1="255.2" x2="151.4" y2="255.2"/>
		<line class="st2" x1="128" y1="265.6" x2="151.4" y2="265.6"/>
		<line class="st2" x1="128" y1="275.9" x2="151.4" y2="275.9"/>
	</g>
	<g>
		<g>
			<polyline class="st2" points="1417.4,511.2 1417.4,390 1538.7,390 1538.7,454.8 			"/>
			<polygon class="st2" points="1529.9,390 1426.1,390 1450.1,313.3 1506,313.3 			"/>
			<rect x="1471.1" y="263" class="st2" width="13.8" height="50.3"/>
			<line class="st2" x1="1471.6" y1="275.8" x2="1484.4" y2="275.8"/>
			<line class="st2" x1="1471.6" y1="288.6" x2="1484.4" y2="288.6"/>
			<line class="st2" x1="1471.6" y1="301.4" x2="1484.4" y2="301.4"/>
			<line class="st2" x1="1471.6" y1="313.3" x2="1484.4" y2="313.3"/>
			<line class="st2" x1="1478" y1="262" x2="1478" y2="196.5"/>
		</g>
		<g>
			<polyline class="st2" points="1370.3,634.4 1370.3,511.5 1424.6,511.5 1424.6,634.4 			"/>
			<g>
				<line class="st2" x1="1383.1" y1="527.5" x2="1383.1" y2="624.8"/>
				<line class="st2" x1="1397.4" y1="527.5" x2="1397.4" y2="624.8"/>
				<line class="st2" x1="1411.8" y1="527.5" x2="1411.8" y2="624.8"/>
			</g>
		</g>
		<g>
			<polyline class="st2" points="1533.1,634.4 1533.1,455.6 1587.4,455.6 1587.4,634.4 			"/>
			<g>
				<line class="st2" x1="1545.9" y1="471.6" x2="1545.9" y2="624"/>
				<line class="st2" x1="1560.3" y1="471.6" x2="1560.3" y2="624"/>
				<line class="st2" x1="1574.7" y1="471.6" x2="1574.7" y2="624"/>
			</g>
		</g>
		<rect x="1434.9" y="401.3" class="st2" width="14.4" height="14.4"/>
		<rect x="1434.9" y="425.3" class="st2" width="14.4" height="14.4"/>
		<rect x="1434.9" y="449.2" class="st2" width="14.4" height="14.4"/>
		<rect x="1434.9" y="473.2" class="st2" width="14.4" height="14.4"/>
		<rect x="1434.9" y="497.1" class="st2" width="14.4" height="14.4"/>
		<rect x="1507.6" y="401.3" class="st2" width="14.4" height="14.4"/>
		<polygon class="st2" points="1483.6,401.3 1482.8,401.3 1482.8,415.7 1483.6,415.7 1497.2,415.7 1498,415.7 1498,401.3 
			1497.2,401.3 		"/>
		<polygon class="st2" points="1459.7,401.3 1458.9,401.3 1458.9,415.7 1459.7,415.7 1473.3,415.7 1474.1,415.7 1474.1,401.3 
			1473.3,401.3 		"/>
		<polygon class="st2" points="1459.7,425.3 1458.9,425.3 1458.9,439.6 1459.7,439.6 1473.3,439.6 1474.1,439.6 1474.1,425.3 
			1473.3,425.3 		"/>
		<polygon class="st2" points="1483.6,425.3 1482.8,425.3 1482.8,439.6 1483.6,439.6 1497.2,439.6 1498,439.6 1498,425.3 
			1497.2,425.3 		"/>
		<rect x="1507.6" y="425.3" class="st2" width="14.4" height="14.4"/>
		<rect x="1507.6" y="449.2" class="st2" width="14.4" height="14.4"/>
		<polygon class="st2" points="1483.6,449.2 1482.8,449.2 1482.8,463.6 1483.6,463.6 1497.2,463.6 1498,463.6 1498,449.2 
			1497.2,449.2 		"/>
		<polygon class="st2" points="1459.7,449.2 1458.9,449.2 1458.9,463.6 1459.7,463.6 1473.3,463.6 1474.1,463.6 1474.1,449.2 
			1473.3,449.2 		"/>
		<polygon class="st2" points="1459.7,473.2 1458.9,473.2 1458.9,487.5 1459.7,487.5 1473.3,487.5 1474.1,487.5 1474.1,473.2 
			1473.3,473.2 		"/>
		<polygon class="st2" points="1483.6,473.2 1482.8,473.2 1482.8,487.5 1483.6,487.5 1497.2,487.5 1498,487.5 1498,473.2 
			1497.2,473.2 		"/>
		<rect x="1507.6" y="473.2" class="st2" width="14.4" height="14.4"/>
		<rect x="1507.6" y="497.1" class="st2" width="14.4" height="14.4"/>
		<polygon class="st2" points="1483.6,497.1 1482.8,497.1 1482.8,511.5 1483.6,511.5 1497.2,511.5 1498,511.5 1498,497.1 
			1497.2,497.1 		"/>
		<polygon class="st2" points="1459.7,497.1 1458.9,497.1 1458.9,511.5 1459.7,511.5 1473.3,511.5 1474.1,511.5 1474.1,497.1 
			1473.3,497.1 		"/>
		<rect x="1434.9" y="521.1" class="st2" width="14.4" height="14.4"/>
		<rect x="1434.9" y="545" class="st2" width="14.4" height="14.4"/>
		<rect x="1434.9" y="569" class="st2" width="14.4" height="14.4"/>
		<rect x="1434.9" y="592.9" class="st2" width="14.4" height="14.4"/>
		<rect x="1507.6" y="521.1" class="st2" width="14.4" height="14.4"/>
		<polygon class="st2" points="1483.6,521.1 1482.8,521.1 1482.8,535.4 1483.6,535.4 1497.2,535.4 1498,535.4 1498,521.1 
			1497.2,521.1 		"/>
		<polygon class="st2" points="1459.7,521.1 1458.9,521.1 1458.9,535.4 1459.7,535.4 1473.3,535.4 1474.1,535.4 1474.1,521.1 
			1473.3,521.1 		"/>
		<polygon class="st2" points="1459.7,545 1458.9,545 1458.9,559.4 1459.7,559.4 1473.3,559.4 1474.1,559.4 1474.1,545 1473.3,545 
					"/>
		<polygon class="st2" points="1483.6,545 1482.8,545 1482.8,559.4 1483.6,559.4 1497.2,559.4 1498,559.4 1498,545 1497.2,545 		"/>
		<rect x="1507.6" y="545" class="st2" width="14.4" height="14.4"/>
		<rect x="1507.6" y="569" class="st2" width="14.4" height="14.4"/>
		<polygon class="st2" points="1483.6,569 1482.8,569 1482.8,583.3 1483.6,583.3 1497.2,583.3 1498,583.3 1498,569 1497.2,569 		"/>
		<polygon class="st2" points="1459.7,569 1458.9,569 1458.9,583.3 1459.7,583.3 1473.3,583.3 1474.1,583.3 1474.1,569 1473.3,569 
					"/>
		<polygon class="st2" points="1459.7,592.9 1458.9,592.9 1458.9,607.3 1459.7,607.3 1473.3,607.3 1474.1,607.3 1474.1,592.9 
			1473.3,592.9 		"/>
		<polygon class="st2" points="1483.6,592.9 1482.8,592.9 1482.8,607.3 1483.6,607.3 1497.2,607.3 1498,607.3 1498,592.9 
			1497.2,592.9 		"/>
		<rect x="1507.6" y="592.9" class="st2" width="14.4" height="14.4"/>
	</g>
</g>
</svg>
