<?xml version="1.0" encoding="utf-8"?>
<!-- Generator: Adobe Illustrator 19.0.0, SVG Export Plug-In . SVG Version: 6.00 Build 0)  -->
<svg version="1.1" id="Ebene_1" xmlns="http://www.w3.org/2000/svg" xmlns:xlink="http://www.w3.org/1999/xlink" x="0px" y="0px"
	 viewBox="-356 234.3 128 128" style="enable-background:new -356 234.3 128 128;" xml:space="preserve">
<style type="text/css">
	.st0{fill:#00B700;}
</style>
<g id="XMLID_3343_">
	<path id="XMLID_3345_" class="st0" d="M-291.1,340.4c8.9,0,11.7-2.3,11.7-2.3v4.2c0,0-2.7,2.3-11.7,2.3c-8.9,0-11.7-2.3-11.7-2.3
		v-4.2C-302.8,338.1-300.1,340.4-291.1,340.4z M-291.1,347.3c-8.9,0-11.7-2.3-11.7-2.3v1.9l0,0c0.1,6.4,5.3,11.5,11.7,11.5
		s11.6-5.2,11.7-11.5l0,0V345C-279.5,345-282.2,347.3-291.1,347.3z M-259.6,300.5c-1.7,12.9-12.3,22.5-15.3,25
		c-0.3,4.5-1.8,8.1-4.4,10.5c0,0.1-0.1,0.1-0.1,0.2c0,0-2,1.8-11.4,1.8c-9.3,0-11.6-1.8-11.6-1.8c-2.7-2.4-4.3-6-4.6-10.7
		c-3-2.5-13.7-12.1-15.3-25c-1-7.5,1.3-14.7,6.6-21.5c6-7.5,14.7-11.8,24-11.8c0.3,0,0.5,0,0.8,0c0.1,0,0.4,0,0.7,0
		c9.3,0,18,4.3,24,11.8C-260.9,285.7-258.6,293-259.6,300.5z M-278.2,296.4c-0.6-0.5-1.5-0.6-2.2-0.2c-10.5,5-21.5,0-21.6,0
		c-0.7-0.3-1.6-0.2-2.2,0.3c-0.6,0.5-0.9,1.3-0.7,2.1l6.9,28.6c0.2,1,1.1,1.6,2,1.6c0.2,0,0.3,0,0.5-0.1c1.1-0.3,1.8-1.4,1.5-2.5
		l-6-24.9c4,1.1,10.7,2.2,17.7,0l-4.5,25c-0.2,1.1,0.5,2.2,1.7,2.4c1.1,0.2,2.2-0.5,2.4-1.7l5.1-28.6
		C-277.3,297.7-277.6,296.9-278.2,296.4z M-330.2,300c0-0.8,0-1.7,0.1-2.5h-14.4c-1.4,0-2.5,1.1-2.5,2.5s1.1,2.5,2.5,2.5h14.4
		C-330.2,301.7-330.2,300.8-330.2,300z M-320.7,274.8c1.1-1.3,2.3-2.5,3.6-3.6l-7.7-7.7c-1-1-2.6-1-3.6,0s-1,2.6,0,3.6L-320.7,274.8
		z M-292,261.8c0.8,0,1.7,0,2.5,0.1v-21.3c0-1.4-1.1-2.5-2.5-2.5s-2.5,1.1-2.5,2.5v21.3C-293.7,261.8-292.8,261.8-292,261.8z
		 M-263.3,274.8l7.7-7.7c1-1,1-2.6,0-3.6s-2.6-1-3.6,0l-7.7,7.7C-265.6,272.4-264.4,273.6-263.3,274.8z M-239.5,297.5h-14.4
		c0.1,0.8,0.1,1.7,0.1,2.5s0,1.7-0.1,2.5h14.4c1.4,0,2.5-1.1,2.5-2.5C-237,298.6-238.1,297.5-239.5,297.5z"/>
</g>
</svg>
