<?xml version="1.0" encoding="utf-8"?>
<!-- Generator: Adobe Illustrator 19.0.0, SVG Export Plug-In . SVG Version: 6.00 Build 0)  -->
<svg version="1.1" id="Ebene_1" xmlns="http://www.w3.org/2000/svg" xmlns:xlink="http://www.w3.org/1999/xlink" x="0px" y="0px"
	 viewBox="-1069 2488.4 128 128" style="enable-background:new -1069 2488.4 128 128;" xml:space="preserve">
<style type="text/css">
	.st0{fill:#ED1C24;}
</style>
<g id="XMLID_3343_">
	<path id="XMLID_3345_" class="st0" d="M-1004.1,2594.5c8.9,0,11.7-2.3,11.7-2.3v4.2c0,0-2.7,2.3-11.7,2.3c-8.9,0-11.7-2.3-11.7-2.3
		v-4.2C-1015.8,2592.2-1013.1,2594.5-1004.1,2594.5z M-1004.1,2601.4c-8.9,0-11.7-2.3-11.7-2.3v1.9l0,0c0.1,6.4,5.3,11.5,11.7,11.5
		c6.4,0,11.6-5.2,11.7-11.5l0,0v-1.9C-992.5,2599.1-995.2,2601.4-1004.1,2601.4z M-972.6,2554.6c-1.7,12.9-12.3,22.5-15.3,25
		c-0.3,4.5-1.8,8.1-4.4,10.5c0,0.1-0.1,0.1-0.1,0.2c0,0-2,1.8-11.4,1.8c-9.3,0-11.6-1.8-11.6-1.8c-2.7-2.4-4.3-6-4.6-10.7
		c-3-2.5-13.7-12.1-15.3-25c-1-7.5,1.3-14.7,6.6-21.5c6-7.5,14.7-11.8,24-11.8c0.3,0,0.5,0,0.8,0c0.1,0,0.4,0,0.7,0
		c9.3,0,18,4.3,24,11.8C-973.9,2539.8-971.6,2547.1-972.6,2554.6z M-991.2,2550.5c-0.6-0.5-1.5-0.6-2.2-0.2c-10.5,5-21.5,0-21.6,0
		c-0.7-0.3-1.6-0.2-2.2,0.3c-0.6,0.5-0.9,1.3-0.7,2.1l6.9,28.6c0.2,1,1.1,1.6,2,1.6c0.2,0,0.3,0,0.5-0.1c1.1-0.3,1.8-1.4,1.5-2.5
		l-6-24.9c4,1.1,10.7,2.2,17.7,0l-4.5,25c-0.2,1.1,0.5,2.2,1.7,2.4c1.1,0.2,2.2-0.5,2.4-1.7l5.1-28.6
		C-990.3,2551.8-990.6,2551-991.2,2550.5z M-1043.2,2554.1c0-0.8,0-1.7,0.1-2.5h-14.4c-1.4,0-2.5,1.1-2.5,2.5c0,1.4,1.1,2.5,2.5,2.5
		h14.4C-1043.2,2555.8-1043.2,2554.9-1043.2,2554.1z M-1033.7,2528.9c1.1-1.3,2.3-2.5,3.6-3.6l-7.7-7.7c-1-1-2.6-1-3.6,0
		c-1,1-1,2.6,0,3.6L-1033.7,2528.9z M-1005,2515.9c0.8,0,1.7,0,2.5,0.1v-21.3c0-1.4-1.1-2.5-2.5-2.5c-1.4,0-2.5,1.1-2.5,2.5v21.3
		C-1006.7,2515.9-1005.8,2515.9-1005,2515.9z M-976.3,2528.9l7.7-7.7c1-1,1-2.6,0-3.6c-1-1-2.6-1-3.6,0l-7.7,7.7
		C-978.6,2526.5-977.4,2527.7-976.3,2528.9z M-952.5,2551.6h-14.4c0.1,0.8,0.1,1.7,0.1,2.5c0,0.8,0,1.7-0.1,2.5h14.4
		c1.4,0,2.5-1.1,2.5-2.5C-950,2552.7-951.1,2551.6-952.5,2551.6z"/>
</g>
</svg>
