<?xml version="1.0" encoding="utf-8"?>
<!-- Generator: Adobe Illustrator 19.0.0, SVG Export Plug-In . SVG Version: 6.00 Build 0)  -->
<svg version="1.1" id="Ebene_1" xmlns="http://www.w3.org/2000/svg" xmlns:xlink="http://www.w3.org/1999/xlink" x="0px" y="0px"
	 viewBox="-998 2337.4 270 430" style="enable-background:new -998 2337.4 270 430;" xml:space="preserve">
<style type="text/css">
	.st0{fill:#ED1C24;}
	.st1{fill:#FFFFFF;}
</style>
<path class="st0" d="M-1869.9,5101.5c0-4.4,3.6-8,8-8s8,3.6,8,8S-1869.9,5105.9-1869.9,5101.5z"/>
<g>
	<rect x="-1862.7" y="4935.4" class="st0" width="2" height="167.5"/>
</g>
<g>
	<circle class="st0" cx="-1861" cy="4809.7" r="134.9"/>
</g>
<g id="XMLID_1_">
	<g id="XMLID_12_">
		<path id="XMLID_22_" class="st1" d="M-1924.2,4833.5c-13.6,0-15.8-2.5-16.6-3.4c-3.8-4.3-4.2-18.1-2.7-25.4
			c1.1-5.1,3.2-8.4,6.4-9.8c3.6-1.6,6.4-2.6,8.7-3.4c2.5-0.9,4.2-1.4,5.5-2.4l0.9-0.6c8.5-6,18.1-12.3,24.1-12.9
			c0.4,0,41.6-3.6,50.7,0.7c2.7,1.3,6.1,3.4,10,5.8c6.2,3.8,13.8,8.4,18.7,9.7c1.3,0.3,3.4,0.6,5.9,0.9c11.5,1.4,35.5,4.3,34.9,29
			c0,0.1,0,0.2,0,0.3c-1,10-12.4,10.8-23,10.8c-2.4,0-4.3-1.9-4.3-4.3c0-2.4,1.9-4.3,4.3-4.3c9.2,0,14.1-1,14.5-3
			c0.3-15.3-12.8-18.2-27.3-20c-2.8-0.3-5.2-0.6-7.1-1.1c-6.1-1.6-14-6.5-20.9-10.7c-3.6-2.2-7-4.3-9.3-5.3
			c-4.8-2.3-34.8-1.1-46.1,0.1c-2.1,0.2-7.3,2.4-20,11.4l-1,0.7c-2.3,1.6-4.8,2.5-7.6,3.5c-2.2,0.8-4.7,1.6-8,3.1
			c-2.6,2-2.8,16.9-0.9,21.3c2,0.6,7.7,0.9,12.9,0.8c2.3-0.1,4.3,1.8,4.4,4.2c0.1,2.4-1.8,4.3-4.2,4.4
			C-1922.4,4833.4-1923.3,4833.5-1924.2,4833.5z"/>
		<path id="XMLID_19_" class="st1" d="M-1813.5,4845.3c-9.1,0-16.6-7.4-16.6-16.6s7.4-16.6,16.6-16.6s16.6,7.4,16.6,16.6
			S-1804.3,4845.3-1813.5,4845.3z M-1813.5,4820.7c-4.4,0-8,3.6-8,8s3.6,8,8,8s8-3.6,8-8S-1809.1,4820.7-1813.5,4820.7z"/>
		<path id="XMLID_16_" class="st1" d="M-1906,4845.3c-9.1,0-16.6-7.4-16.6-16.6s7.4-16.6,16.6-16.6c9.1,0,16.6,7.4,16.6,16.6
			S-1896.9,4845.3-1906,4845.3z M-1906,4820.7c-4.4,0-8,3.6-8,8s3.6,8,8,8s8-3.6,8-8S-1901.6,4820.7-1906,4820.7z"/>
		<path id="XMLID_15_" class="st1" d="M-1829.3,4816.5L-1829.3,4816.5c-8.2-0.1-49.2-0.7-59.3-7.1c-11-6.9-13.5-18.1-13.6-18.6
			c-0.5-2.3,1-4.6,3.3-5.1c2.3-0.5,4.6,1,5.1,3.3c0,0.2,2,8.2,9.7,13.1c6.2,3.9,36.9,5.6,54.8,5.8c2.4,0,4.3,2,4.3,4.3
			C-1825,4814.6-1826.9,4816.5-1829.3,4816.5z"/>
		<path id="XMLID_14_" class="st1" d="M-1825.8,4832.8h-68.2c-2.4,0-4.3-1.9-4.3-4.3c0-2.4,1.9-4.3,4.3-4.3h68.2
			c2.4,0,4.3,1.9,4.3,4.3C-1821.5,4830.9-1823.4,4832.8-1825.8,4832.8z"/>
		<path id="XMLID_13_" class="st1" d="M-1796.9,4832.9c-0.8,0-1.6,0-2.4-0.1c-2.4-0.2-4.1-2.3-3.9-4.7c0.2-2.4,2.4-4.1,4.7-3.9
			c3.9,0.4,8.8-0.9,11.1-3c0.5-0.4,1-1,1-1.6c0-0.1,0-0.1,0-0.2c0.6-13.6-12.4-16.3-27-18.1c-2.9-0.4-5.5-0.7-7.4-1.2
			c-2.3-0.6-3.7-3-3-5.3c0.6-2.3,3-3.7,5.3-3c1.3,0.4,3.7,0.6,6.2,1c11.5,1.4,35.5,4.4,34.6,27c0,2.9-1.4,5.7-3.8,7.9
			C-1785.2,4830.9-1791.1,4832.9-1796.9,4832.9z"/>
	</g>
	<g id="XMLID_9_">
		<path id="XMLID_11_" class="st1" d="M-1944.3,4872.2c-1.3,0-2.6-0.6-3.4-1.8c-25.5-36.3-25.5-85.2,0-121.5c1.3-1.9,4-2.4,5.9-1
			c1.9,1.3,2.4,4,1,5.9c-23.5,33.4-23.5,78.4,0,111.8c1.3,1.9,0.9,4.5-1,5.9C-1942.6,4872-1943.5,4872.2-1944.3,4872.2z"/>
		<path id="XMLID_10_" class="st1" d="M-1861,4915.6c-21.3,0-42.6-6.4-60.8-19.1c-1.9-1.3-2.4-4-1-5.9c1.3-1.9,4-2.4,5.9-1
			c33.4,23.5,78.4,23.5,111.8,0c1.9-1.3,4.5-0.9,5.9,1c1.3,1.9,0.9,4.5-1,5.9C-1818.4,4909.2-1839.7,4915.6-1861,4915.6z"/>
	</g>
	<g id="XMLID_6_">
		<path id="XMLID_8_" class="st1" d="M-1802.7,4730.6c-0.8,0-1.7-0.2-2.4-0.8c-33.5-23.5-78.4-23.5-111.8,0c-1.9,1.3-4.5,0.9-5.9-1
			c-1.3-1.9-0.9-4.5,1-5.9c36.3-25.5,85.2-25.5,121.5,0c1.9,1.3,2.4,4,1,5.9C-1800,4730-1801.3,4730.6-1802.7,4730.6z"/>
		<path id="XMLID_7_" class="st1" d="M-1777.7,4872.2c-0.8,0-1.7-0.2-2.4-0.8c-1.9-1.3-2.4-4-1-5.9c23.5-33.4,23.5-78.4,0-111.8
			c-1.3-1.9-0.9-4.5,1-5.9c1.9-1.3,4.5-0.9,5.9,1c25.5,36.3,25.5,85.2,0,121.5C-1775.1,4871.6-1776.4,4872.2-1777.7,4872.2z"/>
	</g>
	<circle id="XMLID_5_" class="st1" cx="-1781.3" cy="4873" r="9.4"/>
	<circle id="XMLID_4_" class="st1" cx="-1940.7" cy="4746.3" r="9.4"/>
	<circle id="XMLID_3_" class="st1" cx="-1797.7" cy="4730" r="9.4"/>
	<circle id="XMLID_2_" class="st1" cx="-1924.3" cy="4889.4" r="9.4"/>
</g>
<path class="st0" d="M-870.9,2764.1c0-4.4,3.6-8,8-8c4.4,0,8,3.6,8,8C-854.9,2768.5-870.9,2768.5-870.9,2764.1z"/>
<g>
	<rect x="-863.7" y="2598" class="st0" width="2" height="167.5"/>
</g>
<g>
	<g>
		<circle class="st0" cx="-862" cy="2472.3" r="134.9"/>
	</g>
</g>
<g id="XMLID_17_">
	<g id="XMLID_30_">
		<path id="XMLID_40_" class="st1" d="M-894.8,2484.6c-7,0-8.2-1.3-8.6-1.8c-2-2.2-2.2-9.4-1.4-13.2c0.6-2.7,1.7-4.4,3.3-5.1
			c1.9-0.8,3.3-1.3,4.5-1.7c1.3-0.5,2.2-0.8,2.9-1.2l0.5-0.3c4.4-3.1,9.4-6.4,12.5-6.7c0.2,0,21.6-1.9,26.4,0.4
			c1.4,0.7,3.2,1.7,5.2,3c3.2,2,7.2,4.4,9.7,5.1c0.7,0.2,1.8,0.3,3,0.5c6,0.7,18.5,2.3,18.1,15.1c0,0.1,0,0.1,0,0.2
			c-0.5,5.2-6.5,5.6-12,5.6c-1.2,0-2.2-1-2.2-2.2s1-2.2,2.2-2.2c4.8,0,7.3-0.5,7.5-1.6c0.1-8-6.6-9.5-14.2-10.4
			c-1.5-0.2-2.7-0.3-3.7-0.6c-3.2-0.8-7.3-3.4-10.9-5.6c-1.9-1.1-3.6-2.2-4.8-2.8c-2.5-1.2-18.1-0.6-24,0c-1.1,0.1-3.8,1.2-10.4,5.9
			l-0.5,0.4c-1.2,0.8-2.5,1.3-4,1.8c-1.1,0.4-2.5,0.8-4.1,1.6c-1.4,1-1.5,8.8-0.5,11.1c1,0.3,4,0.5,6.7,0.4c1.2-0.1,2.3,1,2.3,2.2
			c0,1.2-1,2.3-2.2,2.3C-893.9,2484.6-894.4,2484.6-894.8,2484.6z"/>
		<path id="XMLID_37_" class="st1" d="M-837.3,2490.8c-4.8,0-8.6-3.9-8.6-8.6s3.9-8.6,8.6-8.6c4.8,0,8.6,3.9,8.6,8.6
			S-832.6,2490.8-837.3,2490.8z M-837.3,2478c-2.3,0-4.1,1.9-4.1,4.1s1.9,4.1,4.1,4.1c2.3,0,4.1-1.9,4.1-4.1S-835,2478-837.3,2478z"
			/>
		<path id="XMLID_34_" class="st1" d="M-885.4,2490.8c-4.8,0-8.6-3.9-8.6-8.6s3.9-8.6,8.6-8.6c4.8,0,8.6,3.9,8.6,8.6
			S-880.6,2490.8-885.4,2490.8z M-885.4,2478c-2.3,0-4.1,1.9-4.1,4.1s1.9,4.1,4.1,4.1c2.3,0,4.1-1.9,4.1-4.1S-883.1,2478-885.4,2478
			z"/>
		<path id="XMLID_33_" class="st1" d="M-845.5,2475.8C-845.5,2475.8-845.5,2475.8-845.5,2475.8c-4.2,0-25.6-0.4-30.8-3.7
			c-5.7-3.6-7-9.4-7-9.6c-0.3-1.2,0.5-2.4,1.7-2.7c1.2-0.3,2.4,0.5,2.7,1.7c0,0.1,1,4.3,5.1,6.8c3.2,2,19.2,2.9,28.5,3
			c1.2,0,2.2,1,2.2,2.3C-843.3,2474.8-844.3,2475.8-845.5,2475.8z"/>
		<path id="XMLID_32_" class="st1" d="M-843.7,2484.3h-35.4c-1.2,0-2.2-1-2.2-2.2s1-2.2,2.2-2.2h35.4c1.2,0,2.2,1,2.2,2.2
			S-842.5,2484.3-843.7,2484.3z"/>
		<path id="XMLID_31_" class="st1" d="M-828.7,2484.3c-0.4,0-0.8,0-1.3-0.1c-1.2-0.1-2.1-1.2-2-2.4c0.1-1.2,1.2-2.1,2.4-2
			c2.1,0.2,4.6-0.5,5.8-1.5c0.2-0.2,0.5-0.5,0.5-0.9c0,0,0-0.1,0-0.1c0.3-7.1-6.5-8.5-14-9.4c-1.5-0.2-2.8-0.4-3.8-0.6
			c-1.2-0.3-1.9-1.5-1.6-2.7c0.3-1.2,1.5-1.9,2.7-1.6c0.7,0.2,1.9,0.3,3.2,0.5c6,0.7,18.5,2.3,18,14c0,1.5-0.7,2.9-2,4.1
			C-822.6,2483.3-825.7,2484.3-828.7,2484.3z"/>
	</g>
	<g id="XMLID_27_">
		<path id="XMLID_29_" class="st1" d="M-905.3,2504.8c-0.7,0-1.4-0.3-1.8-0.9c-13.3-18.9-13.3-44.3,0-63.1c0.7-1,2.1-1.2,3-0.5
			c1,0.7,1.2,2.1,0.5,3c-12.2,17.4-12.2,40.7,0,58.1c0.7,1,0.5,2.4-0.5,3C-904.4,2504.7-904.9,2504.8-905.3,2504.8z"/>
		<path id="XMLID_28_" class="st1" d="M-862,2527.3c-11.1,0-22.1-3.3-31.6-9.9c-1-0.7-1.2-2.1-0.5-3c0.7-1,2.1-1.2,3-0.5
			c17.4,12.2,40.7,12.2,58.1,0c1-0.7,2.4-0.5,3,0.5c0.7,1,0.5,2.4-0.5,3C-839.9,2524-850.9,2527.3-862,2527.3z"/>
	</g>
	<g id="XMLID_24_">
		<path id="XMLID_26_" class="st1" d="M-831.7,2431.2c-0.4,0-0.9-0.1-1.3-0.4c-17.4-12.2-40.7-12.2-58.1,0c-1,0.7-2.4,0.5-3-0.5
			c-0.7-1-0.5-2.4,0.5-3c18.9-13.3,44.3-13.3,63.1,0c1,0.7,1.2,2.1,0.5,3C-830.3,2430.9-831,2431.2-831.7,2431.2z"/>
		<path id="XMLID_25_" class="st1" d="M-818.7,2504.8c-0.4,0-0.9-0.1-1.3-0.4c-1-0.7-1.2-2.1-0.5-3c12.2-17.4,12.2-40.7,0-58.1
			c-0.7-1-0.5-2.4,0.5-3c1-0.7,2.4-0.5,3,0.5c13.3,18.9,13.3,44.3,0,63.1C-817.3,2504.5-818,2504.8-818.7,2504.8z"/>
	</g>
	<circle id="XMLID_23_" class="st1" cx="-820.6" cy="2505.2" r="4.9"/>
	<circle id="XMLID_21_" class="st1" cx="-903.4" cy="2439.4" r="4.9"/>
	<circle id="XMLID_20_" class="st1" cx="-829.1" cy="2430.9" r="4.9"/>
	<circle id="XMLID_18_" class="st1" cx="-894.9" cy="2513.7" r="4.9"/>
</g>
</svg>
