<?xml version="1.0" encoding="utf-8"?>
<!-- Generator: Adobe Illustrator 19.0.0, SVG Export Plug-In . SVG Version: 6.00 Build 0)  -->
<svg version="1.1" id="Ebene_1" xmlns="http://www.w3.org/2000/svg" xmlns:xlink="http://www.w3.org/1999/xlink" x="0px" y="0px"
	 viewBox="-285 83.3 270 430" style="enable-background:new -285 83.3 270 430;" xml:space="preserve">
<style type="text/css">
	.st0{fill:#00B700;}
	.st1{fill:#FFFFFF;}
</style>
<g>
	<path class="st0" d="M-158.9,510c0-4.4,3.6-8,8-8s8,3.6,8,8S-158.9,514.4-158.9,510z"/>
	<g>
		<rect x="-151.7" y="343.9" class="st0" width="2" height="167.5"/>
	</g>
	<g>
		<g>
			<circle class="st0" cx="-150" cy="218.2" r="134.9"/>
		</g>
	</g>
	<g id="XMLID_17_">
		<g id="XMLID_30_">
			<path id="XMLID_40_" class="st1" d="M-182.8,230.5c-7,0-8.2-1.3-8.6-1.8c-2-2.2-2.2-9.4-1.4-13.2c0.6-2.7,1.7-4.4,3.3-5.1
				c1.9-0.8,3.3-1.3,4.5-1.7c1.3-0.5,2.2-0.8,2.9-1.2l0.5-0.3c4.4-3.1,9.4-6.4,12.5-6.7c0.2,0,21.6-1.9,26.4,0.4
				c1.4,0.7,3.2,1.7,5.2,3c3.2,2,7.2,4.4,9.7,5.1c0.7,0.2,1.8,0.3,3,0.5c6,0.7,18.5,2.3,18.1,15.1c0,0.1,0,0.1,0,0.2
				c-0.5,5.2-6.5,5.6-12,5.6c-1.2,0-2.2-1-2.2-2.2s1-2.2,2.2-2.2c4.8,0,7.3-0.5,7.5-1.6c0.1-8-6.6-9.5-14.2-10.4
				c-1.5-0.2-2.7-0.3-3.7-0.6c-3.2-0.8-7.3-3.4-10.9-5.6c-1.9-1.1-3.6-2.2-4.8-2.8c-2.5-1.2-18.1-0.6-24,0
				c-1.1,0.1-3.8,1.2-10.4,5.9l-0.5,0.4c-1.2,0.8-2.5,1.3-4,1.8c-1.1,0.4-2.5,0.8-4.1,1.6c-1.4,1-1.5,8.8-0.5,11.1
				c1,0.3,4,0.5,6.7,0.4c1.2-0.1,2.3,1,2.3,2.2s-1,2.3-2.2,2.3C-181.9,230.5-182.4,230.5-182.8,230.5z"/>
			<path id="XMLID_37_" class="st1" d="M-125.3,236.7c-4.8,0-8.6-3.9-8.6-8.6s3.9-8.6,8.6-8.6c4.8,0,8.6,3.9,8.6,8.6
				S-120.6,236.7-125.3,236.7z M-125.3,223.9c-2.3,0-4.1,1.9-4.1,4.1s1.9,4.1,4.1,4.1c2.3,0,4.1-1.9,4.1-4.1S-123,223.9-125.3,223.9
				z"/>
			<path id="XMLID_34_" class="st1" d="M-173.4,236.7c-4.8,0-8.6-3.9-8.6-8.6s3.9-8.6,8.6-8.6c4.8,0,8.6,3.9,8.6,8.6
				S-168.6,236.7-173.4,236.7z M-173.4,223.9c-2.3,0-4.1,1.9-4.1,4.1s1.9,4.1,4.1,4.1c2.3,0,4.1-1.9,4.1-4.1
				S-171.1,223.9-173.4,223.9z"/>
			<path id="XMLID_33_" class="st1" d="M-133.5,221.7L-133.5,221.7c-4.2,0-25.6-0.4-30.8-3.7c-5.7-3.6-7-9.4-7-9.6
				c-0.3-1.2,0.5-2.4,1.7-2.7s2.4,0.5,2.7,1.7c0,0.1,1,4.3,5.1,6.8c3.2,2,19.2,2.9,28.5,3c1.2,0,2.2,1,2.2,2.3
				C-131.3,220.7-132.3,221.7-133.5,221.7z"/>
			<path id="XMLID_32_" class="st1" d="M-131.7,230.2h-35.4c-1.2,0-2.2-1-2.2-2.2s1-2.2,2.2-2.2h35.4c1.2,0,2.2,1,2.2,2.2
				S-130.5,230.2-131.7,230.2z"/>
			<path id="XMLID_31_" class="st1" d="M-116.7,230.2c-0.4,0-0.8,0-1.3-0.1c-1.2-0.1-2.1-1.2-2-2.4s1.2-2.1,2.4-2
				c2.1,0.2,4.6-0.5,5.8-1.5c0.2-0.2,0.5-0.5,0.5-0.9v-0.1c0.3-7.1-6.5-8.5-14-9.4c-1.5-0.2-2.8-0.4-3.8-0.6
				c-1.2-0.3-1.9-1.5-1.6-2.7c0.3-1.2,1.5-1.9,2.7-1.6c0.7,0.2,1.9,0.3,3.2,0.5c6,0.7,18.5,2.3,18,14c0,1.5-0.7,2.9-2,4.1
				C-110.6,229.2-113.7,230.2-116.7,230.2z"/>
		</g>
		<g id="XMLID_27_">
			<path id="XMLID_29_" class="st1" d="M-193.3,250.7c-0.7,0-1.4-0.3-1.8-0.9c-13.3-18.9-13.3-44.3,0-63.1c0.7-1,2.1-1.2,3-0.5
				c1,0.7,1.2,2.1,0.5,3c-12.2,17.4-12.2,40.7,0,58.1c0.7,1,0.5,2.4-0.5,3C-192.4,250.6-192.9,250.7-193.3,250.7z"/>
			<path id="XMLID_28_" class="st1" d="M-150,273.2c-11.1,0-22.1-3.3-31.6-9.9c-1-0.7-1.2-2.1-0.5-3c0.7-1,2.1-1.2,3-0.5
				c17.4,12.2,40.7,12.2,58.1,0c1-0.7,2.4-0.5,3,0.5c0.7,1,0.5,2.4-0.5,3C-127.9,269.9-138.9,273.2-150,273.2z"/>
		</g>
		<g id="XMLID_24_">
			<path id="XMLID_26_" class="st1" d="M-119.7,177.1c-0.4,0-0.9-0.1-1.3-0.4c-17.4-12.2-40.7-12.2-58.1,0c-1,0.7-2.4,0.5-3-0.5
				c-0.7-1-0.5-2.4,0.5-3c18.9-13.3,44.3-13.3,63.1,0c1,0.7,1.2,2.1,0.5,3C-118.3,176.8-119,177.1-119.7,177.1z"/>
			<path id="XMLID_25_" class="st1" d="M-106.7,250.7c-0.4,0-0.9-0.1-1.3-0.4c-1-0.7-1.2-2.1-0.5-3c12.2-17.4,12.2-40.7,0-58.1
				c-0.7-1-0.5-2.4,0.5-3c1-0.7,2.4-0.5,3,0.5c13.3,18.9,13.3,44.3,0,63.1C-105.3,250.4-106,250.7-106.7,250.7z"/>
		</g>
		<circle id="XMLID_23_" class="st1" cx="-108.6" cy="251.1" r="4.9"/>
		<circle id="XMLID_21_" class="st1" cx="-191.4" cy="185.3" r="4.9"/>
		<circle id="XMLID_20_" class="st1" cx="-117.1" cy="176.8" r="4.9"/>
		<circle id="XMLID_18_" class="st1" cx="-182.9" cy="259.6" r="4.9"/>
	</g>
</g>
</svg>
