<?xml version="1.0" encoding="utf-8"?>
<!-- Generator: Adobe Illustrator 19.0.0, SVG Export Plug-In . SVG Version: 6.00 Build 0)  -->
<svg version="1.1" id="Ebene_1" xmlns="http://www.w3.org/2000/svg" xmlns:xlink="http://www.w3.org/1999/xlink" x="0px" y="0px"
	 viewBox="-388 266.3 64 64" style="enable-background:new -388 266.3 64 64;" xml:space="preserve">
<style type="text/css">
	.st0{fill:#00B700;}
</style>
<g>
	<path class="st0" d="M-329,299.5h-10.8v-28.9H-383v48.1c0,4,3.2,7.2,7.2,7.2h39.7c4,0,7.2-3.2,7.2-7.2V299.5L-329,299.5z
		 M-375.8,277.8h14.4v18h-14.4V277.8z M-363.2,318.7H-374c-1,0-1.8-0.8-1.8-1.8s0.8-1.8,1.8-1.8h10.8c1,0,1.8,0.8,1.8,1.8
		S-362.2,318.7-363.2,318.7z M-363.2,311.5H-374c-1,0-1.8-0.8-1.8-1.8s0.8-1.8,1.8-1.8h10.8c1,0,1.8,0.8,1.8,1.8
		S-362.2,311.5-363.2,311.5z M-348.8,318.7h-7.2c-1,0-1.8-0.8-1.8-1.8s0.8-1.8,1.8-1.8h7.2c1,0,1.8,0.8,1.8,1.8
		S-347.8,318.7-348.8,318.7z M-348.8,311.5h-7.2c-1,0-1.8-0.8-1.8-1.8s0.8-1.8,1.8-1.8h7.2c1,0,1.8,0.8,1.8,1.8
		S-347.8,311.5-348.8,311.5z M-348.8,304.3H-374c-1,0-1.8-0.8-1.8-1.8s0.8-1.8,1.8-1.8h25.2c1,0,1.8,0.8,1.8,1.8
		C-347,303.5-347.8,304.3-348.8,304.3z M-348.8,295.8h-7.2c-1,0-1.8-0.8-1.8-1.8s0.8-1.8,1.8-1.8h7.2c1,0,1.8,0.8,1.8,1.8
		C-347,295-347.8,295.8-348.8,295.8z M-348.8,288.6h-7.2c-1,0-1.8-0.8-1.8-1.8s0.8-1.8,1.8-1.8h7.2c1,0,1.8,0.8,1.8,1.8
		S-347.8,288.6-348.8,288.6z M-348.8,281.4h-7.2c-1,0-1.8-0.8-1.8-1.8s0.8-1.8,1.8-1.8h7.2c1,0,1.8,0.8,1.8,1.8
		C-347,280.6-347.8,281.4-348.8,281.4z M-332.5,318.7L-332.5,318.7c0,2-1.6,3.6-3.6,3.6s-3.6-1.6-3.6-3.6c0-1.2,0-14.9,0-15.6h7.2
		C-332.5,303.1-332.5,318.7-332.5,318.7z"/>
</g>
</svg>
