<?xml version="1.0" encoding="utf-8"?>
<!-- Generator: Adobe Illustrator 19.0.0, SVG Export Plug-In . SVG Version: 6.00 Build 0)  -->
<svg version="1.1" id="Ebene_1" xmlns="http://www.w3.org/2000/svg" xmlns:xlink="http://www.w3.org/1999/xlink" x="0px" y="0px"
	 viewBox="-345 223.3 150 150" style="enable-background:new -345 223.3 150 150;" xml:space="preserve">
<style type="text/css">
	.st0{fill:#00B700;}
	.st1{fill:#FFFFFF;}
</style>
<g>
	<path class="st0" d="M-270,239.6c-32.4,0-58.7,26.3-58.7,58.7S-302.4,357-270,357s58.7-26.3,58.7-58.7S-237.7,239.6-270,239.6z"/>
	<path class="st0" d="M-270,223.3c-41.4,0-75,33.6-75,75s33.6,75,75,75s75-33.6,75-75S-228.6,223.3-270,223.3z M-270,364.9
		c-36.7,0-66.6-29.9-66.6-66.6s29.8-66.6,66.6-66.6c36.7,0,66.6,29.9,66.6,66.6S-233.3,364.9-270,364.9z"/>
	<polygon class="st1" points="-252.7,271 -271.1,278.5 -282.7,269.4 -290.1,287.7 -248.8,287.7 	"/>
	<polygon class="st1" points="-269.5,291 -291.8,291 -304.5,298.6 -269.5,298.6 -234.5,298.6 -247.1,291 	"/>
	<path class="st1" d="M-256,302.9c-3.8,0-7.1,2.3-8.5,5.5h-9.9c-1.5-3.3-4.7-5.5-8.5-5.5c-5.2,0-9.4,4.2-9.4,9.4
		c0,5.2,4.2,9.4,9.4,9.4c4.8,0,8.8-3.6,9.3-8.3h8.3c0.6,4.7,4.5,8.3,9.3,8.3c5.2,0,9.4-4.2,9.4-9.4
		C-246.6,307.1-250.8,302.9-256,302.9z"/>
</g>
</svg>
