<?xml version="1.0" encoding="utf-8"?>
<!-- Generator: Adobe Illustrator 19.0.0, SVG Export Plug-In . SVG Version: 6.00 Build 0)  -->
<svg version="1.1" id="Ebene_1" xmlns="http://www.w3.org/2000/svg" xmlns:xlink="http://www.w3.org/1999/xlink" x="0px" y="0px"
	 viewBox="-285 83.3 270 430" style="enable-background:new -285 83.3 270 430;" xml:space="preserve">
<style type="text/css">
	.st0{fill:#00B700;}
	.st1{fill:#FFFFFF;}
</style>
<g>
	<path class="st0" d="M-158.9,510c0-4.4,3.6-8,8-8s8,3.6,8,8S-158.9,514.4-158.9,510z"/>
	<g>
		<rect x="-151.7" y="343.9" class="st0" width="2" height="167.5"/>
	</g>
	<g>
		<g>
			<circle class="st0" cx="-150" cy="218.2" r="134.9"/>
		</g>
	</g>
	<g>
		<g>
			<g>
				<g>
					<path class="st1" d="M-196.4,238.5l-1.4-1.3c-3.5-3.2-6.5-6.1-9.4-8.7l-0.8-0.7l0.2-1c1.7-7.3,5.4-14,10.8-19.4
						c7.6-7.5,17.8-11.7,28.6-11.7c1.5,0,2.9,0.1,4.4,0.2l3.3,0.4L-196.4,238.5z M-204,226.6c2.3,2.1,4.7,4.3,7.3,6.7l28.9-34
						c-10-0.1-19.5,3.7-26.6,10.6C-199.1,214.6-202.4,220.4-204,226.6z"/>
				</g>
				<g>
					<path class="st1" d="M-159.2,276l-0.7-0.7c-3-3.3-6.4-6.8-9.9-10.4l-1.3-1.4l43.3-35.9l0.5,3.1c2,12.6-2.2,25.4-11.4,34.4
						c-5.4,5.3-12.2,9-19.6,10.7L-159.2,276z M-165.9,263.7c2.8,2.9,5.4,5.7,7.9,8.3c6.4-1.6,12.2-4.9,16.9-9.5
						c7.5-7.4,11.4-17.8,10.7-28.2L-165.9,263.7z"/>
				</g>
			</g>
			<g>
				<path class="st1" d="M-157.2,255.5l-31.2-30.7l36.6-43c11.5-13.6,28.5-21.4,46.5-21.4c3.7,0,7.3,0.3,10.9,1l1.2,0.2l0.2,1.2
					c3.9,21.2-4,42.9-20.7,56.6L-157.2,255.5z M-183.5,224.5l26.5,26.2l41.1-34c15.4-12.7,22.8-32.5,19.6-52c-3-0.5-6-0.7-9.1-0.7
					c-16.9,0-32.9,7.3-43.7,20.1L-183.5,224.5z"/>
			</g>
			<g>
				<path class="st1" d="M-203.6,272.2h-1.2l-0.5-1.1c-0.2-0.4-0.5-1.2,3-10.9c2.4-6.8,4.5-11.2,6.3-12.8c2.1-2.1,4.9-3.2,7.9-3.2
					s5.8,1.1,7.9,3.2c2.1,2.1,3.3,4.9,3.3,7.8c0,3-1.2,5.7-3.3,7.8c-3.7,3.6-19.2,8.1-22.5,9.1l-0.2,0.2L-203.6,272.2z M-188,247.7
					c-2,0-4,0.8-5.4,2.2c-2.3,2.3-6,12.8-7.6,18c7-2.1,16.3-5.3,18.4-7.4c1.4-1.4,2.2-3.3,2.2-5.3s-0.8-3.9-2.2-5.3
					C-184.1,248.4-186,247.7-188,247.7z"/>
			</g>
			<g>
				<path class="st1" d="M-95.7,194.5l-2.1-3c-3.4-4.9-7.3-9.5-11.6-13.8s-9-8.1-14-11.5l-3.1-2.1l3.6-1.1
					c9.2-2.7,19.1-3.3,28.5-1.6l1.2,0.2l0.2,1.2c1.7,9.3,1.2,19-1.6,28.2L-95.7,194.5z M-118.3,165.4c4,2.9,7.8,6.2,11.4,9.7
					c3.6,3.5,6.9,7.3,9.9,11.3c1.7-7.1,1.9-14.5,0.8-21.7C-103.6,163.5-111.1,163.8-118.3,165.4z"/>
			</g>
			<g>
				<path class="st1" d="M-124.8,207.6c-4,0-7.8-1.5-10.6-4.3s-4.4-6.5-4.4-10.5s1.6-7.7,4.4-10.5c2.8-2.8,6.6-4.3,10.6-4.3
					s7.8,1.5,10.6,4.3s4.4,6.5,4.4,10.5s-1.6,7.7-4.4,10.5C-117,206-120.8,207.6-124.8,207.6z M-124.8,181.5c-3.1,0-5.9,1.2-8.1,3.3
					c-2.2,2.1-3.3,5-3.3,8s1.2,5.8,3.3,8c2.2,2.1,5,3.3,8.1,3.3s5.9-1.2,8.1-3.3c2.2-2.1,3.3-5,3.3-8s-1.2-5.8-3.3-8
					C-118.8,182.6-121.7,181.5-124.8,181.5z"/>
			</g>
			<g>
				
					<rect x="-185.4" y="228.2" transform="matrix(-0.7119 -0.7023 0.7023 -0.7119 -440.3048 279.4378)" class="st1" width="45.2" height="3.6"/>
			</g>
		</g>
	</g>
</g>
</svg>
