<?xml version="1.0" encoding="utf-8"?>
<!-- Generator: Adobe Illustrator 21.1.0, SVG Export Plug-In . SVG Version: 6.00 Build 0)  -->
<svg version="1.1" id="Ebene_1" xmlns="http://www.w3.org/2000/svg" xmlns:xlink="http://www.w3.org/1999/xlink" x="0px" y="0px"
	 viewBox="0 0 64 64" style="enable-background:new 0 0 64 64;" xml:space="preserve">
<style type="text/css">
	.st0{fill:#FFFFFF;}
</style>
<g id="color_x5F_fill_1_">
	<path class="st0" d="M61.7,27c-2.5-2-5.9-2.8-8.6-0.8l-0.8,0.7c-1.2-1.3-3.3-1.6-4.8-2.5c-1.5-0.9-3.2-1.4-4.8-2
		c-1.3-0.5-2.6-1-3.9-1.2C37.6,21,34,20.9,34,20.9c0.1-1,0.5-3,0.7-3.9c0.2-1.2,0.4-2.3,0.7-3.4c0.6-2.3,1-4.8,1.7-7.1
		c1.8,0.3,3.4,0.4,5.1,0.7c1.4,0.2,3.8,0.4,4.8,1.3l0.4,1.6c0.4,1.7,2.1,2.9,4,3.1c3.9,0.3,7-4,5.2-7.6c-1.6-3.3-6.3-3.8-8.3-1.1
		l-0.8,1.1c-2-0.9-3.9-0.8-6.1-1.2c-1.6-0.3-3.1-1.2-4.7-1.2c-2.4-0.1-2.1,1.4-2.7,3.3c-0.7,2.2-0.8,4.3-1.2,6.5
		c-0.3,1.5-0.7,3.6-1.3,5.2l-0.6,2.6c-2.8-0.2-6.2,0.4-8.9,0.9c-2.8,0.6-6,1.8-7.9,4l-1.3,1.2c-1.4-0.9-2.5-1.5-4.1-1.9
		c-4-1.1-6.3,1.6-7.9,4.9C0,31.4,0.2,33.3,1,34.8c0.5,0.8,2.5,3.1,3.1,3.5c0,0.6,0.3,2.7,0.4,3.3C5,43.4,5.3,45.2,6.1,47
		c1,2.1,2.4,4,4.1,5.5c3.8,3.4,8.7,5.7,13.7,6.8c3.2,0.7,6.8,0.7,10,0.7c2.2,0,4.4-0.1,6.5-0.7c0.6-0.2,1.2-0.4,1.8-0.6l1-0.4
		c1.4-0.7,3.2-1.2,4.7-2c1.4-0.8,2.9-1.4,4.3-2.3c1.6-1,3.2-2.9,4.4-4.4c2.7-3.1,3.5-7.5,3.4-11.4l1.1-0.8c0,0.1,1.1-1,1.4-1.4
		C64.6,33.2,64.4,29.1,61.7,27z M16.8,38.9c-0.4-1-0.6-2.4-0.2-3.4c0.9-2.2,2.8-3.7,5.2-3.5c1.3,0.1,2.4,0.8,3.3,1.8
		c1,0.9,1,2.2,1,3.6C26,42,18.7,43,16.8,38.9z M44.1,49.5c-0.3,1.4-2.7,1.9-3.8,2.4c-2,0.8-3.8,1.4-6.6,1.3c-2-0.1-4,0.2-6-0.1
		c-1.3-0.2-2.5-0.5-3.8-1c-1-0.4-2.1-1.3-3-2c-0.7-0.6-1.1-1.9,0.1-2.1c0.9-0.2,1.4,0.4,2,0.9c1.1,1.1,3,1.6,4.5,1.9
		c1.9,0.3,3.8,0.4,5.7,0.5c1.1,0,2.1-0.1,3.2-0.4c1-0.2,2.2-0.5,3.3-1c0.7-0.3,1.3-0.6,1.8-1c0.5-0.4,1.1-1.2,1.8-0.9
		C43.9,48.2,44.2,48.9,44.1,49.5z M47.6,38.7c-0.3,1.3-1.4,2-2.6,2.6c-4.1,2.1-8.6-3.8-5.9-7.4c0.6-0.8,1.8-1.7,2.8-1.8
		c2.3-0.2,4.6,0.6,5.6,2.9C48.1,36.2,48,37.4,47.6,38.7z"/>
</g>
</svg>
