<?xml version="1.0" encoding="utf-8"?>
<!-- Generator: Adobe Illustrator 19.0.0, SVG Export Plug-In . SVG Version: 6.00 Build 0)  -->
<svg version="1.1" id="Ebene_1" xmlns="http://www.w3.org/2000/svg" xmlns:xlink="http://www.w3.org/1999/xlink" x="0px" y="0px"
	 viewBox="-998 2337.4 270 430" style="enable-background:new -998 2337.4 270 430;" xml:space="preserve">
<style type="text/css">
	.st0{fill:#ED1C24;}
	.st1{fill:#FFFFFF;}
</style>
<path class="st0" d="M-871.9,2764.1c0-4.4,3.6-8,8-8c4.4,0,8,3.6,8,8C-855.9,2768.5-871.9,2768.5-871.9,2764.1z"/>
<g>
	<rect x="-864.7" y="2598" class="st0" width="2" height="167.5"/>
</g>
<g>
	<g>
		<circle class="st0" cx="-863" cy="2472.3" r="134.9"/>
	</g>
</g>
<g>
	<g>
		<g>
			<g>
				<path class="st1" d="M-909.4,2492.6l-1.4-1.3c-3.5-3.2-6.5-6.1-9.4-8.7l-0.8-0.7l0.2-1c1.7-7.3,5.4-14,10.8-19.4
					c7.6-7.5,17.8-11.7,28.6-11.7c1.5,0,2.9,0.1,4.4,0.2l3.3,0.4L-909.4,2492.6z M-917,2480.7c2.3,2.1,4.7,4.3,7.3,6.7l28.9-34
					c-10-0.1-19.5,3.7-26.6,10.6C-912.1,2468.7-915.4,2474.5-917,2480.7z"/>
			</g>
			<g>
				<path class="st1" d="M-872.2,2530.1l-0.7-0.7c-3-3.3-6.4-6.8-9.9-10.4l-1.3-1.4l43.3-35.9l0.5,3.1c2,12.6-2.2,25.4-11.4,34.4
					c-5.4,5.3-12.2,9-19.6,10.7L-872.2,2530.1z M-878.9,2517.8c2.8,2.9,5.4,5.7,7.9,8.3c6.4-1.6,12.2-4.9,16.9-9.5
					c7.5-7.4,11.4-17.8,10.7-28.2L-878.9,2517.8z"/>
			</g>
		</g>
		<g>
			<path class="st1" d="M-870.2,2509.6l-31.2-30.7l36.6-43c11.5-13.6,28.5-21.4,46.5-21.4c3.7,0,7.3,0.3,10.9,1l1.2,0.2l0.2,1.2
				c3.9,21.2-4,42.9-20.7,56.6L-870.2,2509.6z M-896.5,2478.6l26.5,26.2l41.1-34c15.4-12.7,22.8-32.5,19.6-52c-3-0.5-6-0.7-9.1-0.7
				c-16.9,0-32.9,7.3-43.7,20.1L-896.5,2478.6z"/>
		</g>
		<g>
			<path class="st1" d="M-916.6,2526.3h-1.2l-0.5-1.1c-0.2-0.4-0.5-1.2,3-10.9c2.4-6.8,4.5-11.2,6.3-12.8c2.1-2.1,4.9-3.2,7.9-3.2
				c3,0,5.8,1.1,7.9,3.2c2.1,2.1,3.3,4.9,3.3,7.8c0,3-1.2,5.7-3.3,7.8c-3.7,3.6-19.2,8.1-22.5,9.1l-0.2,0.2L-916.6,2526.3z
				 M-901,2501.8c-2,0-4,0.8-5.4,2.2c-2.3,2.3-6,12.8-7.6,18c7-2.1,16.3-5.3,18.4-7.4c1.4-1.4,2.2-3.3,2.2-5.3c0-2-0.8-3.9-2.2-5.3
				C-897.1,2502.5-899,2501.8-901,2501.8z"/>
		</g>
		<g>
			<path class="st1" d="M-808.7,2448.6l-2.1-3c-3.4-4.9-7.3-9.5-11.6-13.8c-4.3-4.3-9-8.1-14-11.5l-3.1-2.1l3.6-1.1
				c9.2-2.7,19.1-3.3,28.5-1.6l1.2,0.2l0.2,1.2c1.7,9.3,1.2,19-1.6,28.2L-808.7,2448.6z M-831.3,2419.5c4,2.9,7.8,6.2,11.4,9.7
				c3.6,3.5,6.9,7.3,9.9,11.3c1.7-7.1,1.9-14.5,0.8-21.7C-816.6,2417.6-824.1,2417.9-831.3,2419.5z"/>
		</g>
		<g>
			<path class="st1" d="M-837.8,2461.7c-4,0-7.8-1.5-10.6-4.3c-2.8-2.8-4.4-6.5-4.4-10.5c0-4,1.6-7.7,4.4-10.5
				c2.8-2.8,6.6-4.3,10.6-4.3c4,0,7.8,1.5,10.6,4.3c2.8,2.8,4.4,6.5,4.4,10.5c0,4-1.6,7.7-4.4,10.5
				C-830,2460.1-833.8,2461.7-837.8,2461.7z M-837.8,2435.6c-3.1,0-5.9,1.2-8.1,3.3c-2.2,2.1-3.3,5-3.3,8c0,3,1.2,5.8,3.3,8
				c2.2,2.1,5,3.3,8.1,3.3c3.1,0,5.9-1.2,8.1-3.3c2.2-2.1,3.3-5,3.3-8c0-3-1.2-5.8-3.3-8C-831.8,2436.7-834.7,2435.6-837.8,2435.6z"
				/>
		</g>
		<g>
			
				<rect x="-898.3" y="2482.5" transform="matrix(0.7119 0.7023 -0.7023 0.7119 1492.301 1330.5858)" class="st1" width="45.2" height="3.6"/>
		</g>
	</g>
</g>
</svg>
