<?xml version="1.0" encoding="utf-8"?>
<!-- Generator: Adobe Illustrator 19.0.0, SVG Export Plug-In . SVG Version: 6.00 Build 0)  -->
<svg version="1.1" id="Ebene_1" xmlns="http://www.w3.org/2000/svg" xmlns:xlink="http://www.w3.org/1999/xlink" x="0px" y="0px"
	 viewBox="-998 2337.4 270 430" style="enable-background:new -998 2337.4 270 430;" xml:space="preserve">
<style type="text/css">
	.st0{fill:#ED1C24;}
	.st1{fill:#FFFFFF;stroke:#FFFFFF;stroke-width:4;}
	.st2{fill:#FFFFFF;}
</style>
<path class="st0" d="M-871,2764.1c0-4.4,3.6-8,8-8s8,3.6,8,8S-871,2768.5-871,2764.1z"/>
<g>
	<rect x="-864" y="2598" class="st0" width="2" height="167.5"/>
</g>
<g>
	<g>
		<circle class="st0" cx="-863" cy="2472.3" r="134.9"/>
	</g>
</g>
<g>
	<g>
		<g>
			<g>
				<g>
					<path class="st1" d="M-863,2505.8"/>
				</g>
			</g>
			<g>
				<path class="st2" d="M-862.9,2514.4c-9.4,0-18.3-3.7-24.9-10.4c-13.7-13.9-13.7-36.5,0-50.4c6.6-6.7,15.4-10.4,24.8-10.4
					c9.5,0,18.3,3.7,24.9,10.4c6.6,6.7,10.3,15.7,10.3,25.2c0,9.5-3.6,18.5-10.3,25.2C-844.7,2510.7-853.5,2514.4-862.9,2514.4
					L-862.9,2514.4z M-862.9,2447.1c-8.4,0-16.2,3.3-22,9.3c-12.2,12.4-12.2,32.4,0,44.8c5.9,6,13.7,9.2,22,9.2v2l0.1-2
					c8.3,0,16.1-3.3,22-9.2c5.9-6,9.1-13.9,9.1-22.4c0-8.5-3.3-16.4-9.1-22.4C-846.8,2450.4-854.6,2447.1-862.9,2447.1z"/>
			</g>
			<g>
				<g>
					<path class="st2" d="M-863,2500.7c-5.8,0-11.2-2.3-15.3-6.4c-4.1-4.1-6.3-9.7-6.3-15.5c0-5.8,2.2-11.3,6.3-15.5
						c4.1-4.2,9.5-6.5,15.3-6.5c5.8,0,11.2,2.3,15.3,6.4c4.1,4.1,6.3,9.6,6.3,15.5c0,5.8-2.2,11.3-6.3,15.5
						C-851.7,2498.4-857.2,2500.7-863,2500.7L-863,2500.7z M-862.9,2460.8c-4.7,0-9.2,1.9-12.5,5.3c-3.3,3.4-5.2,7.9-5.2,12.7
						c0,4.8,1.8,9.3,5.2,12.7c3.3,3.4,7.8,5.3,12.5,5.3v2l0-2c4.7,0,9.2-1.9,12.5-5.3c3.3-3.4,5.2-7.9,5.2-12.7
						c0-4.8-1.8-9.3-5.2-12.7C-853.8,2462.7-858.2,2460.8-862.9,2460.8z"/>
				</g>
			</g>
		</g>
		<g>
			<path class="st2" d="M-796.8,2470.3c-17-24.2-39.5-37.5-63.2-37.5v-4c25.1,0,48.8,13.9,66.5,39.2L-796.8,2470.3z"/>
		</g>
		<g>
			<path class="st2" d="M-862.6,2515.6c-22.6,0-43.9-12.7-60.1-35.7l-0.8-1.1l0.8-1.1c16.2-23,37.5-35.7,60.1-35.7
				c22.6,0,43.9,12.7,60.1,35.7l0.8,1.1l-0.8,1.1C-818.7,2502.9-840,2515.6-862.6,2515.6z M-918.6,2478.8
				c15.3,21.2,35.1,32.8,56,32.8c20.9,0,40.7-11.6,56-32.8c-15.3-21.2-35.1-32.8-56-32.8C-883.5,2445.9-903.3,2457.6-918.6,2478.8z"
				/>
		</g>
	</g>
	<g>
		<g>
			<g>
				<rect x="-867" y="2420.9" class="st2" width="5.3" height="11.5"/>
			</g>
			<g>
				<polygon class="st2" points="-900.6,2439.7 -909.5,2429.7 -904.9,2428 -896,2438 				"/>
			</g>
			<g>
				<polygon class="st2" points="-924.2,2456.9 -939.5,2451.1 -936.9,2448.1 -921.5,2453.9 				"/>
			</g>
			<g>
				<rect x="-949.1" y="2476" class="st2" width="17.7" height="3.4"/>
			</g>
			<g>
				<rect x="-794.7" y="2474.3" class="st2" width="17.7" height="3.4"/>
			</g>
			<g>
				<polygon class="st2" points="-803.1,2455.4 -805.8,2452.4 -790.4,2446.6 -787.8,2449.6 				"/>
			</g>
			<g>
				<polygon class="st2" points="-827.7,2438.8 -832.3,2437.1 -823.4,2427.1 -818.8,2428.8 				"/>
			</g>
		</g>
	</g>
</g>
</svg>
