<?xml version="1.0" encoding="utf-8"?>
<!-- Generator: Adobe Illustrator 19.0.0, SVG Export Plug-In . SVG Version: 6.00 Build 0)  -->
<svg version="1.1" id="Ebene_1" xmlns="http://www.w3.org/2000/svg" xmlns:xlink="http://www.w3.org/1999/xlink" x="0px" y="0px"
	 viewBox="-285 83.3 270 430" style="enable-background:new -285 83.3 270 430;" xml:space="preserve">
<style type="text/css">
	.st0{fill:#00B700;}
	.st1{fill:#FFFFFF;stroke:#FFFFFF;stroke-width:4;}
	.st2{fill:#FFFFFF;}
</style>
<g>
	<path class="st0" d="M-158,510c0-4.4,3.6-8,8-8s8,3.6,8,8S-158,514.4-158,510z"/>
	<g>
		<rect x="-151" y="343.9" class="st0" width="2" height="167.5"/>
	</g>
	<g>
		<g>
			<circle class="st0" cx="-150" cy="218.2" r="134.9"/>
		</g>
	</g>
	<g>
		<g>
			<g>
				<g>
					<g>
						<path class="st1" d="M-150,251.7"/>
					</g>
				</g>
				<g>
					<path class="st2" d="M-149.9,260.3c-9.4,0-18.3-3.7-24.9-10.4c-13.7-13.9-13.7-36.5,0-50.4c6.6-6.7,15.4-10.4,24.8-10.4
						c9.5,0,18.3,3.7,24.9,10.4c6.6,6.7,10.3,15.7,10.3,25.2s-3.6,18.5-10.3,25.2C-131.7,256.6-140.5,260.3-149.9,260.3
						L-149.9,260.3z M-149.9,193c-8.4,0-16.2,3.3-22,9.3c-12.2,12.4-12.2,32.4,0,44.8c5.9,6,13.7,9.2,22,9.2v2l0.1-2
						c8.3,0,16.1-3.3,22-9.2c5.9-6,9.1-13.9,9.1-22.4s-3.3-16.4-9.1-22.4C-133.8,196.3-141.5,193-149.9,193z"/>
				</g>
				<g>
					<g>
						<path class="st2" d="M-150,246.6c-5.8,0-11.2-2.3-15.3-6.4c-4.1-4.1-6.3-9.7-6.3-15.5s2.2-11.3,6.3-15.5s9.5-6.5,15.3-6.5
							s11.2,2.3,15.3,6.4c4.1,4.1,6.3,9.6,6.3,15.5c0,5.8-2.2,11.3-6.3,15.5C-138.7,244.3-144.2,246.6-150,246.6L-150,246.6z
							 M-149.9,206.7c-4.7,0-9.2,1.9-12.5,5.3c-3.3,3.4-5.2,7.9-5.2,12.7s1.8,9.3,5.2,12.7c3.3,3.4,7.8,5.3,12.5,5.3v2v-2
							c4.7,0,9.2-1.9,12.5-5.3c3.3-3.4,5.2-7.9,5.2-12.7s-1.8-9.3-5.2-12.7C-140.8,208.6-145.2,206.7-149.9,206.7z"/>
					</g>
				</g>
			</g>
			<g>
				<path class="st2" d="M-83.8,216.2c-17-24.2-39.5-37.5-63.2-37.5v-4c25.1,0,48.8,13.9,66.5,39.2L-83.8,216.2z"/>
			</g>
			<g>
				<path class="st2" d="M-149.5,261.5c-22.6,0-43.9-12.7-60.1-35.7l-0.8-1.1l0.8-1.1c16.2-23,37.5-35.7,60.1-35.7
					s43.9,12.7,60.1,35.7l0.8,1.1l-0.8,1.1C-105.7,248.8-127,261.5-149.5,261.5z M-205.5,224.7c15.3,21.2,35.1,32.8,56,32.8
					s40.7-11.6,56-32.8c-15.3-21.2-35.1-32.8-56-32.8C-170.5,191.8-190.2,203.5-205.5,224.7z"/>
			</g>
		</g>
		<g>
			<g>
				<g>
					<rect x="-154" y="166.8" class="st2" width="5.3" height="11.5"/>
				</g>
				<g>
					<polygon class="st2" points="-187.5,185.6 -196.5,175.6 -191.9,173.9 -183,183.9 					"/>
				</g>
				<g>
					<polygon class="st2" points="-211.2,202.8 -226.5,197 -223.9,194 -208.5,199.8 					"/>
				</g>
				<g>
					<rect x="-236" y="221.9" class="st2" width="17.7" height="3.4"/>
				</g>
				<g>
					<rect x="-81.7" y="220.2" class="st2" width="17.7" height="3.4"/>
				</g>
				<g>
					<polygon class="st2" points="-90,201.3 -92.8,198.3 -77.4,192.5 -74.8,195.5 					"/>
				</g>
				<g>
					<polygon class="st2" points="-114.7,184.7 -119.2,183 -110.4,173 -105.8,174.7 					"/>
				</g>
			</g>
		</g>
	</g>
</g>
</svg>
