<?xml version="1.0" encoding="utf-8"?>
<!-- Generator: Adobe Illustrator 19.0.0, SVG Export Plug-In . SVG Version: 6.00 Build 0)  -->
<svg version="1.1" id="Ebene_1" xmlns="http://www.w3.org/2000/svg" xmlns:xlink="http://www.w3.org/1999/xlink" x="0px" y="0px"
	 viewBox="-345 223.3 150 150" style="enable-background:new -345 223.3 150 150;" xml:space="preserve">
<style type="text/css">
	.st0{fill:#00B700;}
	.st1{fill:#FFFFFF;}
</style>
<g>
	<path class="st0" d="M-270,239.6c-32.4,0-58.7,26.3-58.7,58.7S-302.4,357-270,357s58.7-26.3,58.7-58.7S-237.7,239.6-270,239.6z"/>
	<path class="st0" d="M-270,223.3c-41.4,0-75,33.6-75,75s33.6,75,75,75s75-33.6,75-75S-228.6,223.3-270,223.3z M-270,364.9
		c-36.7,0-66.6-29.9-66.6-66.6s29.8-66.6,66.6-66.6c36.7,0,66.6,29.9,66.6,66.6S-233.3,364.9-270,364.9z"/>
	<path class="st1" d="M-241.9,314.8c-0.1,0-0.3,0-0.4,0c-0.9-0.2-1.5-1.1-1.3-2.2c0.9-5,1.3-10,1.1-15.1v-1.4c0-1.6-0.1-3.3-0.3-5
		c-0.5-5-2.5-9.6-5.9-13.6c-4.4-5.2-9.9-8.4-16.4-9.3c-1.5-0.2-2.9-0.3-4.3-0.3c-7.9,0-14.8,3.3-20.4,9.8c-0.1,0.1-0.2,0.3-0.4,0.4
		l-0.2,0.2c-0.4,0.5-0.9,0.7-1.5,0.7c-0.4,0-0.7-0.1-1.1-0.4c-0.8-0.6-0.9-1.7-0.3-2.6c1.4-1.8,3.1-3.5,4.8-4.9
		c4.3-3.5,9.4-5.8,14.9-6.6c0.5-0.1,0.9-0.1,1.4-0.2l0.6-0.1h4.5l1,0.1c0.8,0.1,1.6,0.2,2.4,0.4c5.3,0.9,10.1,3.2,14.3,6.8
		c5.2,4.4,8.5,10,9.8,16.5c0.4,1.9,0.6,4.1,0.7,6.6c0.1,4.1,0,7.7-0.1,11c-0.1,2.3-0.5,4.6-0.9,6.8l-0.2,1
		C-240.3,314.3-241.1,314.8-241.9,314.8z"/>
	<path class="st1" d="M-257.5,326c-0.3,0-0.5-0.1-0.8-0.2c-0.4-0.2-0.8-0.6-0.9-1c-0.2-0.5-0.1-1,0.1-1.4c2.3-4.5,3.8-9.4,4.7-14.5
		c0.6-3.6,0.8-7.3,0.7-11.5c0-0.5,0-1,0-1.5c0-1.7,0-3.5-0.5-5.3c-1.6-5.9-5.5-9.7-11.5-11.2c-1.2-0.3-2.3-0.4-3.5-0.4
		c-2.2,0-4.4,0.5-6.6,1.6c-0.3,0.2-0.6,0.2-1,0.2c-0.7,0-1.2-0.4-1.5-1c-0.5-1-0.1-1.9,1-2.4c2.5-1.2,5.3-1.9,8.2-1.9
		c5.4,0,10.6,2.2,14.1,6.2c3.2,3.5,4.8,7.6,4.8,12.1c0,0.9,0,1.8,0,2.7v1.2c0.3,7.5-0.7,14.6-3.1,21.2c-0.7,2.1-1.7,4.1-2.6,6.1
		C-256.2,325.6-256.8,326-257.5,326z"/>
	<path class="st1" d="M-288.1,321.1c-0.7,0-1.3-0.4-1.6-1.1c-0.4-1,0.1-1.9,1.1-2.3c2.9-1.1,5.2-2.4,7-4c3.3-2.9,5.2-6.7,5.6-11.1
		c0.2-1.9,0.2-3.8,0.2-5.7c0-0.8,0-1.6,0-2.4c0-2.4,0.8-4.3,2.4-5.7c1.4-1.3,3-1.9,4.7-1.9c0.8,0,1.7,0.2,2.6,0.4
		c2,0.7,4.4,2.1,4.8,5.5c0.3,2.6,0.4,5.2,0.4,7.8v1.2c0,0.5-0.2,0.8-0.4,1c-0.3,0.3-0.8,0.5-1.4,0.5c-1,0-1.7-0.8-1.7-1.8
		c-0.1-2.6-0.2-5.1-0.3-7.7c-0.1-1.7-1.6-3.3-3.4-3.5c-0.1,0-0.3,0-0.4,0c-1.8,0-3.2,1.1-3.6,2.9c-0.1,0.4-0.1,0.8-0.1,1.3
		c0,0.8,0,1.7,0,2.5v1c0.1,3.7-0.2,6.8-1.2,9.5c-1.8,5.3-5.3,9.3-10.7,12.1c-1.1,0.6-2.3,1.1-3.2,1.4
		C-287.6,321-287.9,321.1-288.1,321.1z"/>
	<path class="st1" d="M-272.7,328.1c-0.3,0-0.8-0.3-1.2-1c-0.3-0.7-0.3-1.2,0.2-1.9c0.3-0.4,0.6-0.8,0.8-1.2
		c0.9-1.3,1.8-2.6,2.6-3.9c1.6-2.7,2.8-5.6,3.8-9.1c0.2-0.9,0.9-1.4,1.7-1.4l0,0c0.8,0,1.5,0.5,1.7,1.1c0.1,0.4,0.1,0.9,0,1.2
		c-1.5,5.6-4.1,10.8-7.8,15.4C-271.2,327.9-271.6,328.1-272.7,328.1L-272.7,328.1z"/>
	<path class="st1" d="M-300.4,316.8c-0.8,0-1.4-0.5-1.7-1.3c-0.3-1,0.3-1.9,1.4-2.2l0.8-0.2c1.1-0.3,2.2-0.6,3.3-1.1
		c3-1.1,4.2-2.9,4.3-6.1v-0.2c0-0.4,0-0.8,0.1-1.1c0.2-0.8,0.9-1.4,1.7-1.4c0.1,0,0.1,0,0.2,0c1,0.1,1.6,0.8,1.6,1.8v0.6
		c-0.1,3.3-0.9,5.6-2.7,7.3c-1.3,1.3-3,2.2-5.5,3c-0.9,0.3-1.9,0.6-2.8,0.8C-300,316.8-300.2,316.8-300.4,316.8z"/>
	<path class="st1" d="M-299.7,301.7c-1,0-1.7-0.7-1.8-1.8c0-0.8,0-1.7,0-2.5v-1.1c-0.1-4.3,0.6-8.4,2.1-12.2
		c0.3-0.9,0.9-1.3,1.8-1.3h0.1c0.7,0,1.3,0.6,1.5,1.3c0.1,0.4,0.1,0.8,0,1c-1.5,3.8-2.1,7.9-2,12.9c0,0.6,0,1.3,0,1.9
		C-298,301-298.7,301.7-299.7,301.7L-299.7,301.7z"/>
	<path class="st1" d="M-288.4,297.3c-0.1,0-0.1,0-0.2,0c-0.5-0.1-1-0.3-1.3-0.7c-0.3-0.4-0.4-0.9-0.4-1.4c0.5-4.1,2.3-7.6,5.1-10.7
		c0.4-0.4,0.8-0.6,1.3-0.6c0.9,0,1.4,0.3,1.7,1c0.3,0.7,0.2,1.4-0.4,2c-1.9,2-3.2,4.3-3.8,6.8c-0.2,0.6-0.3,1.2-0.4,1.9
		C-286.8,296.6-287.5,297.3-288.4,297.3z"/>
</g>
</svg>
