<?xml version="1.0" encoding="utf-8"?>
<!-- Generator: Adobe Illustrator 21.1.0, SVG Export Plug-In . SVG Version: 6.00 Build 0)  -->
<svg version="1.1" id="Ebene_1" xmlns="http://www.w3.org/2000/svg" xmlns:xlink="http://www.w3.org/1999/xlink" x="0px" y="0px"
	 viewBox="0 0 64 64" style="enable-background:new 0 0 64 64;" xml:space="preserve">
<style type="text/css">
	.st0{fill:#FFFFFF;}
</style>
<g>
	<g>
		<path class="st0" d="M32.1,0c17.7,0,32,14.4,32,32c0,17.6-14.4,32-32,32C14.4,64,0,49.6,0,32C0.1,14.4,14.5,0,32.1,0z M54.2,32
			c0-12.2-10-22.2-22.3-22.2c-12.2,0-22.2,10-22.2,22.3c0,12.2,10,22.2,22.3,22.2C44.3,54.2,54.3,44.3,54.2,32z"/>
	</g>
	<path class="st0" d="M47.2,31.9C47.2,31.9,47.2,31.9,47.2,31.9L47.2,31.9c0-0.4-0.2-0.7-0.5-0.9c0,0-6.5-4.5-11.7-7.4
		c-5.2-2.9-10.7-5.2-10.7-5.2c-0.7-0.3-1.4,0.1-1.5,0.9c0,0-0.5,4.6-0.5,12.6h0c0,0,0,0,0,0s0,0,0,0h0c0,8,0.5,12.6,0.5,12.6
		c0.1,0.8,0.8,1.2,1.5,0.9c0,0,5.5-2.2,10.7-5.2c5.2-2.9,11.7-7.4,11.7-7.4C47.1,32.6,47.2,32.3,47.2,31.9L47.2,31.9
		C47.2,31.9,47.2,31.9,47.2,31.9z"/>
</g>
</svg>
