<?xml version="1.0" encoding="utf-8"?>
<!-- Generator: Adobe Illustrator 19.0.0, SVG Export Plug-In . SVG Version: 6.00 Build 0)  -->
<svg version="1.1" id="Layer_1" xmlns="http://www.w3.org/2000/svg" xmlns:xlink="http://www.w3.org/1999/xlink" x="0px" y="0px"
	 viewBox="-392 270.6 55.7 55.7" style="enable-background:new -392 270.6 55.7 55.7;" xml:space="preserve">
<style type="text/css">
	.st0{fill:#FFFFFF;}
	.st1{fill:#00B700;}
</style>
<circle id="XMLID_40_" class="st0" cx="-364.2" cy="298.4" r="27.8"/>
<g id="XMLID_3591_">
	<g id="XMLID_3602_">
		<path id="XMLID_3612_" class="st1" d="M-378,303.6c-3,0-3.5-0.5-3.6-0.8c-0.8-0.9-0.9-4-0.6-5.6c0.2-1.1,0.7-1.8,1.4-2.1
			c0.8-0.4,1.4-0.6,1.9-0.7c0.6-0.2,0.9-0.3,1.2-0.5l0.2-0.1c1.9-1.3,4-2.7,5.3-2.8c0.1,0,9.1-0.8,11.1,0.2c0.6,0.3,1.3,0.7,2.2,1.3
			c1.3,0.8,3,1.8,4.1,2.1c0.3,0.1,0.7,0.1,1.3,0.2c2.5,0.3,7.8,1,7.6,6.3c0,0,0,0,0,0.1c-0.2,2.2-2.7,2.4-5,2.4
			c-0.5,0-0.9-0.4-0.9-0.9s0.3-1.1,0.8-1.1c2,0,3.1-0.2,3.2-0.7c0.1-3.4-2.8-4-6-4.4c-0.6-0.1-1.1-0.1-1.5-0.2
			c-1.3-0.4-3.1-1.4-4.6-2.3c-0.8-0.5-1.5-0.9-2-1.2c-1-0.5-7.6-0.2-10.1,0c-0.5,0-1.6,0.5-4.4,2.5l-0.2,0.1c-0.5,0.4-1,0.5-1.7,0.8
			c-0.5,0.2-1,0.4-1.7,0.7c-0.6,0.4-0.6,3.7-0.2,4.7c0.4,0.1,1.7,0.2,2.8,0.2c0.5,0,1,0.4,1,0.9s-0.4,1-0.9,1
			C-377.6,303.6-377.8,303.6-378,303.6z"/>
		<path id="XMLID_3609_" class="st1" d="M-353.8,306.2c-2,0-3.6-1.6-3.6-3.6s1.6-3.6,3.6-3.6s3.6,1.6,3.6,3.6
			S-351.7,306.2-353.8,306.2z M-353.8,300.9c-1,0-1.7,0.8-1.7,1.7c0,1,0.8,1.7,1.7,1.7c1,0,1.7-0.8,1.7-1.7
			C-352,301.6-352.8,300.9-353.8,300.9z"/>
		<path id="XMLID_3606_" class="st1" d="M-374,306.2c-2,0-3.6-1.6-3.6-3.6s1.6-3.6,3.6-3.6s3.6,1.6,3.6,3.6S-372,306.2-374,306.2z
			 M-374,300.9c-1,0-1.7,0.8-1.7,1.7c0,1,0.8,1.7,1.7,1.7c1,0,1.7-0.8,1.7-1.7C-372.3,301.6-373.1,300.9-374,300.9z"/>
		<path id="XMLID_3605_" class="st1" d="M-357.2,299.9L-357.2,299.9c-1.8,0-10.8-0.2-13-1.6c-2.4-1.5-3-4-3-4.1
			c-0.1-0.5,0.2-1,0.7-1.1s1,0.2,1.1,0.7c0,0,0.4,1.8,2.1,2.9c1.4,0.9,8.1,1.2,12,1.3c0.5,0,0.9,0.4,0.9,1
			C-356.3,299.5-356.7,299.9-357.2,299.9z"/>
		<path id="XMLID_3604_" class="st1" d="M-356.4,303.5h-15c-0.5,0-0.9-0.4-0.9-0.9s0.4-0.9,0.9-0.9h14.9c0.5,0,0.9,0.4,0.9,0.9
			C-355.5,303.1-355.9,303.5-356.4,303.5z"/>
		<path id="XMLID_3603_" class="st1" d="M-350.1,303.5c-0.2,0-0.4,0-0.5,0c-0.5-0.1-0.9-0.5-0.8-1s0.5-0.9,1-0.8
			c0.9,0.1,1.9-0.2,2.4-0.6c0.1-0.1,0.2-0.2,0.2-0.4l0,0c0.1-3-2.7-3.6-5.9-4c-0.6-0.1-1.2-0.1-1.6-0.3c-0.5-0.1-0.8-0.7-0.7-1.2
			s0.7-0.8,1.2-0.7c0.3,0.1,0.8,0.1,1.4,0.2c2.5,0.3,7.8,1,7.6,5.9c0,0.6-0.3,1.2-0.8,1.7C-347.5,303.1-348.8,303.5-350.1,303.5z"/>
	</g>
	<g id="XMLID_3599_">
		<path id="XMLID_3601_" class="st1" d="M-382.4,312.1c-0.3,0-0.6-0.1-0.8-0.4c-5.6-8-5.6-18.7,0-26.6c0.3-0.4,0.9-0.5,1.3-0.2
			c0.4,0.3,0.5,0.9,0.2,1.3c-5.1,7.3-5.1,17.2,0,24.5c0.3,0.4,0.2,1-0.2,1.3C-382.1,312.1-382.2,312.1-382.4,312.1z"/>
		<path id="XMLID_3600_" class="st1" d="M-364.2,321.6c-4.7,0-9.3-1.4-13.3-4.2c-0.4-0.3-0.5-0.9-0.2-1.3c0.3-0.4,0.9-0.5,1.3-0.2
			c7.3,5.1,17.2,5.1,24.5,0c0.4-0.3,1-0.2,1.3,0.2c0.3,0.4,0.2,1-0.2,1.3C-354.8,320.2-359.5,321.6-364.2,321.6z"/>
	</g>
	<g id="XMLID_3596_">
		<path id="XMLID_3598_" class="st1" d="M-351.4,281.1c-0.2,0-0.4-0.1-0.5-0.2c-7.3-5.1-17.2-5.1-24.5,0c-0.4,0.3-1,0.2-1.3-0.2
			c-0.3-0.4-0.2-1,0.2-1.3c8-5.6,18.7-5.6,26.6,0c0.4,0.3,0.5,0.9,0.2,1.3C-350.8,281-351.1,281.1-351.4,281.1z"/>
		<path id="XMLID_3597_" class="st1" d="M-345.9,312.1c-0.2,0-0.4-0.1-0.5-0.2c-0.4-0.3-0.5-0.9-0.2-1.3c5.1-7.3,5.1-17.2,0-24.5
			c-0.3-0.4-0.2-1,0.2-1.3c0.4-0.3,1-0.2,1.3,0.2c5.6,8,5.6,18.7,0,26.6C-345.3,312-345.6,312.1-345.9,312.1z"/>
	</g>
	<circle id="XMLID_3595_" class="st1" cx="-346.7" cy="312.3" r="2.1"/>
	<circle id="XMLID_3594_" class="st1" cx="-381.6" cy="284.5" r="2.1"/>
	<circle id="XMLID_3593_" class="st1" cx="-350.3" cy="281" r="2.1"/>
	<circle id="XMLID_3592_" class="st1" cx="-378.1" cy="315.9" r="2.1"/>
</g>
</svg>
