<?xml version="1.0" encoding="utf-8"?>
<!-- Generator: Adobe Illustrator 19.0.0, SVG Export Plug-In . SVG Version: 6.00 Build 0)  -->
<svg version="1.1" id="Layer_1" xmlns="http://www.w3.org/2000/svg" xmlns:xlink="http://www.w3.org/1999/xlink" x="0px" y="0px"
	 viewBox="-319 196.7 202.6 202.6" style="enable-background:new -319 196.7 202.6 202.6;" xml:space="preserve">
<style type="text/css">
	.st0{fill:#00B700;}
	.st1{fill:#FFFFFF;}
</style>
<g>
	<g id="XMLID_1957_">
		<g id="XMLID_1529_">
			<circle id="XMLID_1551_" class="st0" cx="-217.7" cy="298" r="101.3"/>
		</g>
	</g>
	<g>
		<path class="st1" d="M-219.4,352.2c-29.1-0.9-52.6-24.9-52.6-54.2c0-4.9,0.7-9.8,2-14.5c4.4,3,9.7,4.8,15.4,4.8
			c13.8,0,25.2-10.4,26.9-23.7c3.2-0.9,6.5-1.5,9.9-1.5c18.4,0,33.5,14.4,34.8,32.5h-3.7l5.8,10l5.8-10h-4
			c-1.2-20.2-18.1-36.4-38.6-36.4c-3.3,0-6.6,0.4-9.7,1.2c-0.4-14.6-12.4-26.4-27.1-26.4c-15,0-27.1,12.2-27.1,27.1
			c0,7.7,3.3,14.7,8.4,19.6c-1.7,5.6-2.6,11.3-2.6,17.2c0,31.5,25.2,57.2,56.4,58.1v3.9l10-5.8l-10-5.8V352.2z M-277.8,261.2
			c0-12.8,10.4-23.3,23.3-23.3c12.8,0,23.2,10.4,23.2,23.3c0,12.8-10.4,23.3-23.2,23.3C-267.3,284.4-277.8,274-277.8,261.2z"/>
		<path class="st1" d="M-254.5,270.9c-2.5,0-4.5-1.7-4.5-3.9c0-1.1-0.9-1.9-1.9-1.9c-1.1,0-1.9,0.9-1.9,1.9c0,3.7,2.7,6.7,6.4,7.5
			v1.5c0,1.1,0.9,1.9,1.9,1.9c1.1,0,1.9-0.9,1.9-1.9v-1.5c3.7-0.8,6.4-3.9,6.4-7.5c0-3.8-2.2-7.8-8.4-7.8c-3,0-4.5-1.3-4.5-3.9
			c0-2.1,2-3.9,4.5-3.9s4.5,1.7,4.5,3.9c0,1.1,0.9,1.9,1.9,1.9c1.1,0,1.9-0.9,1.9-1.9c0-3.7-2.7-6.7-6.4-7.5v-1.5
			c0-1.1-0.9-1.9-1.9-1.9c-1.1,0-1.9,0.9-1.9,1.9v1.5c-3.7,0.8-6.4,3.9-6.4,7.5c0,3.8,2.2,7.8,8.4,7.8c3,0,4.5,1.3,4.5,3.9
			C-250,269.2-252,270.9-254.5,270.9z"/>
		<path class="st1" d="M-180.1,345.5c-2.5,0-4.5-1.7-4.5-3.9c0-1.1-0.9-1.9-1.9-1.9c-1.1,0-1.9,0.9-1.9,1.9c0,3.7,2.7,6.7,6.4,7.5
			v1.5c0,1.1,0.9,1.9,1.9,1.9c1.1,0,1.9-0.9,1.9-1.9v-1.5c3.7-0.8,6.4-3.9,6.4-7.5c0-3.8-2.2-7.8-8.4-7.8c-3,0-4.5-1.3-4.5-3.9
			c0-2.1,2-3.9,4.5-3.9s4.5,1.7,4.5,3.9c0,1.1,0.9,1.9,1.9,1.9c1.1,0,1.9-0.9,1.9-1.9c0-3.7-2.7-6.7-6.4-7.5v-1.5
			c0-1.1-0.9-1.9-1.9-1.9c-1.1,0-1.9,0.9-1.9,1.9v1.5c-3.7,0.8-6.4,3.9-6.4,7.5c0,3.8,2.2,7.8,8.4,7.8c3,0,4.5,1.3,4.5,3.9
			C-175.6,343.7-177.6,345.5-180.1,345.5z"/>
		<path class="st1" d="M-162.2,315.2c1.7-5.6,2.6-11.3,2.6-17.2c0-31.5-25.2-57.2-56.4-58.1V236l-10,5.8l10,5.8v-3.8
			c29.1,0.9,52.6,24.9,52.6,54.2c0,5-0.7,9.8-2,14.5c-4.4-3-9.7-4.8-15.4-4.8c-13.8,0-25.2,10.4-26.9,23.7c-3.2,1-6.5,1.5-9.9,1.5
			c-17.9,0-32.7-13.6-34.7-31h4.4l-6.6-11.4l-6.6,11.4h4.8c1.9,19.6,18.5,34.9,38.6,34.9c3.3,0,6.6-0.4,9.7-1.2
			c0.4,14.6,12.4,26.4,27.1,26.4c15,0,27.1-12.2,27.1-27.1C-153.8,327.1-157,320.1-162.2,315.2z M-180.9,358.1
			c-12.8,0-23.3-10.4-23.3-23.3c0-12.8,10.4-23.2,23.3-23.2c12.8,0,23.3,10.4,23.3,23.2C-157.6,347.6-168.1,358.1-180.9,358.1z"/>
	</g>
</g>
</svg>
