<?xml version="1.0" encoding="utf-8"?>
<!-- Generator: Adobe Illustrator 19.0.0, SVG Export Plug-In . SVG Version: 6.00 Build 0)  -->
<svg version="1.1" id="Ebene_1" xmlns="http://www.w3.org/2000/svg" xmlns:xlink="http://www.w3.org/1999/xlink" x="0px" y="0px"
	 viewBox="379 -428.9 1600 1452.2" style="enable-background:new 379 -428.9 1600 1452.2;" xml:space="preserve">
<style type="text/css">
	.st0{fill:#FFFFFF;}
	.st1{fill:#00B700;}
</style>
<g>
	<circle class="st0" cx="1644.8" cy="-109.8" r="30.8"/>
	<circle class="st0" cx="713.2" cy="-109.8" r="30.8"/>
	<g id="XMLID_1095_">
		<g id="I8PXG6_1_">
			<g id="XMLID_1099_">
				<path class="st1" d="M1167.9,900.6h-3v-15.3c0-7.3,5.9-13.2,13.2-13.2c7.3,0,13.2,5.9,13.2,13.2v4.1h-3v-4.1
					c0-5.6-4.6-10.2-10.2-10.2s-10.2,4.6-10.2,10.2V900.6z"/>
			</g>
		</g>
		<path id="XMLID_1096_" class="st1" d="M1192.8,898.2h-28c-3.4,0-6.3,2.8-6.3,6.3v17.6c0,3.4,2.8,6.3,6.3,6.3h28
			c3.4,0,6.3-2.8,6.3-6.3v-17.6C1198.8,901.1,1196,898.2,1192.8,898.2z M1182.2,913.8c-0.3,0.3-0.5,0.6-0.5,1.1c0,1,0,2.2,0,3.2
			c0,1.6-1.3,3-3,3c-1.6,0-2.9-1.3-3-3c0-0.5,0-1.1,0-1.6c0-0.1,0-0.3,0-0.4c0.1-1-0.1-1.8-0.9-2.8c-1.7-2-1.3-5,0.6-6.8
			c2.1-1.7,5-1.5,6.9,0.5S1184.1,912,1182.2,913.8z"/>
	</g>
	<path class="st1" d="M1661.9,898.8H1253v-3h408.9c15.7,0,28.5-12.8,28.5-28.5V767.1c0-15.7-12.8-28.5-28.5-28.5h-128
		c-17.4,0-31.5-11.2-31.5-24.9v-43.4h3v43.4c0,12.1,12.8,21.9,28.5,21.9h128c17.4,0,31.5,14.1,31.5,31.5v100.2
		C1693.8,884.6,1679.2,898.8,1661.9,898.8z"/>
	<path class="st1" d="M1104,898.8H695.7c-17.4,0-31.5-14.1-31.5-31.5V87.5c0-17.4,14.1-31.5,31.5-31.5h426.2
		c15.7,0,29.1-12.8,29.8-28.5l0.5-12.9c0.7-17.3,12.8-31.4,26.8-31.4s26.1,14.1,26.9,31.4l0.6,13c0.7,15.7,14.2,28.5,29.9,28.5
		h425.8c17.4,0,31.5,14.1,31.5,31.5v98.2c0,17.4-14.1,31.5-31.5,31.5h-128c-15.7,0-28.5,9.8-28.5,21.9v43.4h-3v-43.4
		c0-13.7,14.1-24.9,31.5-24.9h128c15.7,0,28.5-12.8,28.5-28.5V87.5c0-15.7-12.8-28.5-28.5-28.5h-425.8c-17.3,0-32.1-14.1-32.9-31.4
		l-0.6-13c-0.7-15.7-11.5-28.5-23.9-28.5c-12.5,0-23.1,12.8-23.8,28.5l-0.5,12.9c-0.7,17.3-15.4,31.4-32.8,31.4H695.7
		c-15.7,0-28.5,12.8-28.5,28.5v779.9c0,15.7,12.8,28.5,28.5,28.5h408.7L1104,898.8L1104,898.8z"/>
	<g id="XMLID_1200_">
		<circle id="XMLID_488_" class="st1" cx="667.2" cy="477.4" r="124.2"/>
		<g id="_x39_6_102_">
			<path id="XMLID_26395_" class="st0" d="M708.2,426.2h-20.5c-2,0-3.8,0.7-5.1,1.9c-1.4-1.2-3.2-1.9-5.1-1.9h-20.5
				c-2,0-3.8,0.7-5.1,1.9c-1.4-1.2-3.2-1.9-5.1-1.9h-20.5c-4.2,0-7.7,3.3-7.7,7.4v87.5c0,4.1,3.4,7.4,7.7,7.4h20.5
				c2,0,3.8-0.7,5.1-1.9c1.4,1.2,3.2,1.9,5.1,1.9h20.5c2,0,3.8-0.7,5.1-1.9c1.4,1.2,3.2,1.9,5.1,1.9h20.5c4.2,0,7.7-3.3,7.7-7.4
				v-87.5C715.8,429.5,712.2,426.2,708.2,426.2z M649.2,521.1c0,1.3-1.1,2.3-2.6,2.3h-20.4c-1.4,0-2.6-1-2.6-2.3v-87.5
				c0-1.3,1.1-2.3,2.6-2.3h20.5c1.4,0,2.6,1,2.6,2.3L649.2,521.1L649.2,521.1z M680.2,521.1c0,1.3-1.1,2.3-2.6,2.3h-20.5
				c-1.4,0-2.6-1-2.6-2.3v-87.5c0-1.3,1.1-2.3,2.6-2.3h20.5c1.4,0,2.6,1,2.6,2.3V521.1z M710.8,521.1c0,1.3-1.1,2.3-2.6,2.3h-20.5
				c-1.4,0-2.6-1-2.6-2.3v-87.5c0-1.3,1.1-2.3,2.6-2.3h20.5c1.4,0,2.6,1,2.6,2.3V521.1z"/>
			<path id="XMLID_26394_" class="st0" d="M668.8,437.3h-3.4c-2.8,0-5.1,2.3-5.1,5.1v40.9c0,2.8,2.3,5.1,5.1,5.1h3.4
				c2.8,0,5.1-2.3,5.1-5.1v-40.9C674.2,439.6,671.8,437.3,668.8,437.3z"/>
			<path id="XMLID_26393_" class="st0" d="M638.2,437.3h-3.4c-2.8,0-5.1,2.3-5.1,5.1v40.9c0,2.8,2.3,5.1,5.1,5.1h3.4
				c2.8,0,5.1-2.3,5.1-5.1v-40.9C643.2,439.6,641.2,437.3,638.2,437.3z"/>
			<path id="XMLID_26392_" class="st0" d="M699.8,437.3h-3.4c-2.8,0-5.1,2.3-5.1,5.1v40.9c0,2.8,2.3,5.1,5.1,5.1h3.4
				c2.8,0,5.1-2.3,5.1-5.1v-40.9C704.8,439.6,702.7,437.3,699.8,437.3z"/>
			<path id="XMLID_26391_" class="st0" d="M638.2,503.8h-3.4c-2.8,0-5.1,2.3-5.1,5.1v3.4c0,2.8,2.3,5.1,5.1,5.1h3.4
				c2.8,0,5.1-2.3,5.1-5.1v-3.4C643.2,506.1,641.2,503.8,638.2,503.8z"/>
			<path id="XMLID_26390_" class="st0" d="M668.8,503.8h-3.4c-2.8,0-5.1,2.3-5.1,5.1v3.4c0,2.8,2.3,5.1,5.1,5.1h3.4
				c2.8,0,5.1-2.3,5.1-5.1v-3.4C674.2,506.1,671.8,503.8,668.8,503.8z"/>
			<path id="XMLID_26389_" class="st0" d="M699.8,503.8h-3.4c-2.8,0-5.1,2.3-5.1,5.1v3.4c0,2.8,2.3,5.1,5.1,5.1h3.4
				c2.8,0,5.1-2.3,5.1-5.1v-3.4C704.8,506.1,702.7,503.8,699.8,503.8z"/>
		</g>
	</g>
	<g id="XMLID_1208_">
		<circle id="XMLID_484_" class="st1" cx="1178.8" cy="-106.2" r="124.2"/>
		<g id="XMLID_812_">
			<path id="XMLID_670_" class="st0" d="M1181.8-38.6h-63.7c-5.3,0-9.6-4.3-9.6-9.6v-116c0-5.3,4.3-9.6,9.6-9.6h63.7
				c5.3,0,9.6,4.3,9.6,9.6v21.2h-6.2v-5h-70.4v83.9h70.4v-7.3h6.2v23.2C1191.3-42.9,1187-38.6,1181.8-38.6z M1114.8-57.9v9.7
				c0,1.9,1.5,3.4,3.4,3.4h63.7c1.9,0,3.4-1.5,3.4-3.4v-9.7H1114.8z M1114.8-154.2h70.4v-10c0-1.9-1.5-3.4-3.4-3.4h-63.7
				c-1.9,0-3.4,1.5-3.4,3.4L1114.8-154.2L1114.8-154.2z M1244.9-43.2h-37c-2.1,0-3.8-1.7-3.8-3.9V-77c0-2.1,1.7-3.8,3.8-3.8h37
				c2.1,0,3.8,1.7,3.8,3.8v29.9C1248.8-44.9,1247-43.2,1244.9-43.2z M1210.2-48.4h32.3v-25.2h-32.3V-48.4z M1185.1-75.1
				c-3.6,0-6.9-1.4-9.4-3.9s-3.9-5.9-3.9-9.4c0-1.3,0.2-2.6,0.5-3.8l-13.5-5.6c-0.1,0.1-0.1,0.1-0.2,0.2c-2.5,2.5-5.9,3.9-9.4,3.9
				c-3.6,0-6.9-1.4-9.4-3.9s-3.9-5.9-3.9-9.4c0-3.6,1.4-6.9,3.9-9.4s5.9-3.9,9.4-3.9c3.6,0,6.9,1.4,9.4,3.9c0.1,0.1,0.1,0.1,0.2,0.2
				l13.5-5.6c-0.4-1.2-0.5-2.5-0.5-3.8c0-3.6,1.4-6.9,3.9-9.4s5.9-3.9,9.4-3.9c3.6,0,6.9,1.4,9.4,3.9l0,0c2.5,2.5,3.9,5.9,3.9,9.4
				c0,3.6-1.4,6.9-3.9,9.4s-5.9,3.9-9.4,3.9c-3.6,0-6.9-1.4-9.4-3.9c-0.1-0.1-0.1-0.1-0.2-0.2l-13.5,5.6c0.4,1.2,0.5,2.5,0.5,3.8
				s-0.2,2.6-0.5,3.8l13.5,5.6c0.1-0.1,0.1-0.1,0.2-0.2c2.5-2.5,5.9-3.9,9.4-3.9c3.6,0,6.9,1.4,9.4,3.9l0,0c2.5,2.5,3.9,5.9,3.9,9.4
				c0,3.6-1.4,6.9-3.9,9.4C1192-76.4,1188.8-75.1,1185.1-75.1z M1185.1-95.5c-1.9,0-3.7,0.7-5,2.1c-1.3,1.3-2.1,3.1-2.1,5
				s0.7,3.7,2.1,5c2.7,2.7,7.4,2.7,10.1,0c1.3-1.3,2.1-3.1,2.1-5s-0.7-3.7-2.1-5C1188.8-94.8,1187-95.5,1185.1-95.5z M1149.2-114.2
				c-1.9,0-3.7,0.7-5,2.1c-1.3,1.3-2.1,3.1-2.1,5c0,1.9,0.7,3.7,2.1,5c2.7,2.7,7.4,2.7,10.1,0c1.3-1.3,2.1-3.1,2.1-5
				c0-1.9-0.7-3.7-2.1-5l0,0C1152.9-113.4,1151.1-114.2,1149.2-114.2z M1185.1-132.8c-1.9,0-3.7,0.7-5,2.1c-1.3,1.3-2.1,3.1-2.1,5
				c0,1.9,0.7,3.7,2.1,5c2.7,2.7,7.4,2.7,10.1,0c1.3-1.3,2.1-3.1,2.1-5c0-1.9-0.7-3.7-2.1-5C1188.8-132.1,1187-132.8,1185.1-132.8z
				 M1244.9-86.7h-37c-2.1,0-3.8-1.7-3.8-3.9v-29.9c0-2.1,1.7-3.8,3.8-3.8h37c2.1,0,3.8,1.7,3.8,3.8v29.9
				C1248.8-88.4,1247-86.7,1244.9-86.7z M1244.9-130.2h-37c-2.1,0-3.8-1.7-3.8-3.9V-164c0-2.1,1.7-3.8,3.8-3.8h37
				c2.1,0,3.8,1.7,3.8,3.8v29.9C1248.8-131.9,1247-130.2,1244.9-130.2z M1210.2-135.4h32.3v-25.2h-32.3V-135.4z M1162.1-157.3h-24.6
				v-6.2h24.6V-157.3z"/>
		</g>
	</g>
	<g>
		<g>
			<g>
				<path class="st1" d="M1064-130.9H868.7c-4.2,0-8.3-1.7-11.2-4.6L838.9-154c-3-3-4.6-7-4.6-11.2v-90.9h3v90.9
					c0,3.4,1.4,6.7,3.8,9.1l18.5,18.5c2.4,2.4,5.7,3.8,9.1,3.8h195.7v2.9C1064.2-130.9,1064-130.9,1064-130.9z"/>
			</g>
			<g>
				<g>
					<path class="st1" d="M712.8-68.6c-5.8,0-11.6-1.2-17-3.7l1.2-2.7c14.5,6.6,31.8,3.4,43-7.8c15-15,15-39.3,0-54.3
						s-39.3-15-54.3,0c-11.3,11.3-14.4,28.6-7.8,43l-2.7,1.2c-7.1-15.6-3.7-34.3,8.4-46.4c16.1-16.1,42.4-16.1,58.5,0
						s16.1,42.4,0,58.5C734.2-72.7,723.7-68.6,712.8-68.6z"/>
					<path class="st1" d="M724.8-50.1h-23.8l-1.3-12c-2-0.5-4-1.2-5.9-2l1.1-2.8c2.1,0.9,4.3,1.6,6.5,2.1l1,0.3l1.2,11.4h18.3
						l1.2-11.4l1-0.3c2.2-0.5,4.4-1.3,6.5-2.1c2.1-0.9,4.2-1.9,6.1-3.1l0.9-0.5l8.9,7.2l12.9-12.9l-7.2-8.9l0.5-0.9
						c1.2-2,2.2-4,3.1-6.1c0.9-2.1,1.6-4.3,2.1-6.5l0.3-1l11.4-1.2v-18.3l-11.4-1.2l-0.3-1c-0.5-2.2-1.3-4.4-2.1-6.5
						c-0.9-2.1-1.9-4.2-3.1-6.1l-0.5-0.9l7.2-8.9l-12.8-13l-8.9,7.2l-0.9-0.5c-2-1.2-4-2.2-6.1-3.1c-2.1-0.9-4.3-1.6-6.5-2.1l-1-0.3
						l-1.2-11.4h-18.3l-1.2,11.4l-1,0.3c-2.2,0.5-4.4,1.3-6.5,2.1c-2.1,0.9-4.2,1.9-6.1,3.1l-0.9,0.5l-9-7.2l-12.9,13l7.2,8.9
						l-0.5,0.9c-1.2,2-2.2,4-3.1,6.1c-0.9,2.1-1.6,4.3-2.1,6.5l-0.3,1l-11.4,1.2v18.3l11.4,1.2l0.3,1c0.5,2.2,1.3,4.4,2.1,6.5
						l-2.8,1.1c-0.8-1.9-1.5-3.9-2-5.9l-12-1.3v-23.7l12-1.3c0.5-2,1.2-4,2-5.9c0.8-1.9,1.7-3.8,2.8-5.6l-7.6-9.4l16.8-16.8l9.4,7.6
						c1.8-1,3.7-2,5.6-2.8c1.9-0.8,3.9-1.5,5.9-2l1.3-12h23.8l1.3,12c2,0.5,4,1.2,5.9,2c1.9,0.8,3.8,1.7,5.6,2.8l9.4-7.6l16.8,16.8
						l-7.6,9.4c1,1.8,2,3.7,2.8,5.6c0.8,1.9,1.5,3.9,2,5.9l12,1.3v23.7l-12,1.3c-0.5,2-1.2,4-2,5.9c-0.8,1.9-1.7,3.8-2.8,5.6
						l7.6,9.4l-16.8,16.8l-9.4-7.6c-1.8,1-3.7,2-5.6,2.8c-1.9,0.8-3.9,1.5-5.9,2L724.8-50.1z"/>
				</g>
				<g>
					<path class="st1" d="M686.8-75.4l-8.5-8.5l9.9-9.9l8.5,8.5L686.8-75.4z M682.8-83.9l4.2,4.2l5.6-5.6l-4.2-4.2L682.8-83.9z"/>
					<path class="st1" d="M656.2-41.5c-0.7,0-1.3-0.3-1.8-0.7l-9.3-9.3c-1-1-1-2.6,0-3.6l31.3-31.3c1-1,2.6-1,3.6,0l9.3,9.3
						c0.5,0.5,0.7,1.1,0.7,1.8s-0.3,1.3-0.7,1.8l-31.3,31.3C657.8-41.8,656.8-41.5,656.2-41.5z M647.8-53.3l8.7,8.7l30.5-30.6
						l-8.7-8.7L647.8-53.3z"/>
					<path class="st1" d="M712.8-78c-8.5,0-16.6-3.3-22.6-9.4c-6-6-9.4-14.1-9.4-22.6s3.3-16.6,9.4-22.6c12.5-12.5,32.7-12.5,45.2,0
						s12.5,32.7,0,45.2C729.7-81.3,721.2-78,712.8-78z M712.8-138.9c-7.7,0-15,3-20.5,8.5c-11.3,11.3-11.3,29.7,0,41
						c11.3,11.3,29.7,11.3,41,0c5.5-5.5,8.5-12.7,8.5-20.5c0-7.7-3-15-8.5-20.5C727.8-135.9,720.8-138.9,712.8-138.9z"/>
					
						<rect x="648.6" y="-54.9" transform="matrix(0.7071 0.7071 -0.7071 0.7071 154.4829 -479.6594)" class="st1" width="15.2" height="3"/>
				</g>
			</g>
			<g>
				<rect x="770.8" y="-111.4" class="st1" width="288.8" height="3"/>
				<path class="st1" d="M654.2-108.4h-24.9c-4.2,0-8.3-1.7-11.2-4.6l-18.5-18.5c-3-3-4.6-7-4.6-11.2v-33.9h3v33.9
					c0,3.4,1.4,6.7,3.8,9.1l18.5,18.5c2.4,2.4,5.7,3.8,9.1,3.8h24.9L654.2-108.4L654.2-108.4z"/>
			</g>
			<g>
				<g id="XMLID_18_">
					<g id="XMLID_83_">
						<path id="XMLID_108_" class="st1" d="M578.7-220.7c-3.7,0-4.2-0.6-4.5-0.9c-1-1.1-1.1-4.9-0.7-6.9c0.3-1.3,0.9-2.3,1.7-2.7
							c0.9-0.4,1.7-0.7,2.4-0.9c0.7-0.2,1.1-0.4,1.4-0.6l0.2-0.2c2.3-1.6,4.9-3.3,6.5-3.5c0.1,0,11.2-1,13.7,0.2
							c0.7,0.3,1.6,0.9,2.7,1.5c1.6,1,3.7,2.3,5,2.7c0.3,0.1,0.9,0.2,1.5,0.2c3.1,0.4,9.5,1.1,9.4,7.8v0.1c-0.3,2.7-3.4,3-6.3,3
							c-0.6,0-1.1-0.5-1.1-1.1c0-0.6,0.5-1.1,1.1-1.1c2.5,0,3.8-0.3,3.9-0.8c0.1-4.1-3.5-4.9-7.4-5.4c-0.7-0.1-1.4-0.2-2-0.3
							c-1.6-0.4-3.8-1.7-5.6-2.9c-0.9-0.6-1.8-1.1-2.5-1.4c-1.3-0.6-9.4-0.3-12.4,0c-0.6,0.1-2,0.6-5.4,3.1l-0.3,0.2
							c-0.6,0.4-1.3,0.6-2.1,0.9c-0.6,0.2-1.2,0.4-2.2,0.8c-0.7,0.5-0.7,4.5-0.2,5.7c0.5,0.1,2.1,0.2,3.5,0.2c0.6,0,1.1,0.5,1.2,1.1
							c0,0.6-0.5,1.1-1.1,1.2C579.2-220.7,578.8-220.7,578.7-220.7z"/>
						<path id="XMLID_106_" class="st1" d="M608.2-217.5c-2.5,0-4.5-2.1-4.5-4.5c0-2.5,2.1-4.5,4.5-4.5c2.5,0,4.5,2.1,4.5,4.5
							C612.8-219.6,610.8-217.5,608.2-217.5z M608.2-224.2c-1.2,0-2.2,0.9-2.2,2.2c0,1.2,0.9,2.2,2.2,2.2c1.2,0,2.2-0.9,2.2-2.2
							C610.7-223.2,609.8-224.2,608.2-224.2z"/>
						<path id="XMLID_105_" class="st1" d="M583.2-217.5c-2.5,0-4.5-2.1-4.5-4.5c0-2.5,2.1-4.5,4.5-4.5s4.5,2.1,4.5,4.5
							C587.8-219.6,585.8-217.5,583.2-217.5z M583.2-224.2c-1.2,0-2.2,0.9-2.2,2.2c0,1.2,0.9,2.2,2.2,2.2c1.3,0,2.2-0.9,2.2-2.2
							C585.7-223.2,584.7-224.2,583.2-224.2z"/>
						<path id="XMLID_87_" class="st1" d="M604.2-225.3L604.2-225.3c-2.2,0-13.3-0.2-16-2c-3-1.8-3.6-4.9-3.7-5
							c-0.1-0.6,0.3-1.2,0.9-1.3s1.2,0.3,1.3,0.9c0,0.1,0.5,2.3,2.7,3.5c1.6,1,10,1.5,14.8,1.5c0.6,0,1.1,0.5,1.1,1.1
							C605.2-225.9,604.8-225.3,604.2-225.3z"/>
						<path id="XMLID_86_" class="st1" d="M605.2-220.9h-18.4c-0.6,0-1.1-0.5-1.1-1.1c0-0.6,0.5-1.1,1.1-1.1h18.4
							c0.6,0,1.1,0.5,1.1,1.1C606.2-221.4,605.8-220.9,605.2-220.9z"/>
						<path id="XMLID_84_" class="st1" d="M612.8-220.9c-0.2,0-0.4,0-0.6,0c-0.6-0.1-1.1-0.6-1-1.2c0.1-0.6,0.6-1.1,1.2-1
							c1,0.1,2.4-0.2,3-0.8c0.1-0.1,0.3-0.3,0.3-0.4c0,0,0,0,0-0.1c0.2-3.7-3.4-4.4-7.3-4.9c-0.8-0.1-1.4-0.2-2-0.3
							c-0.6-0.2-1-0.8-0.8-1.4c0.2-0.6,0.8-1,1.4-0.8c0.3,0.1,1,0.2,1.6,0.3c3.1,0.4,9.7,1.2,9.3,7.3c0,0.8-0.4,1.5-1,2.2
							C616.2-221.4,614.2-220.9,612.8-220.9z"/>
					</g>
					<g id="XMLID_62_">
						<path id="XMLID_65_" class="st1" d="M573.2-210.3c-0.3,0-0.7-0.2-0.9-0.5c-6.9-9.9-6.9-23,0-32.9c0.4-0.5,1-0.6,1.5-0.3
							c0.5,0.4,0.6,1,0.3,1.5c-6.4,9-6.4,21.1,0,30.2c0.4,0.5,0.2,1.2-0.3,1.5C573.2-210.4,573.2-210.3,573.2-210.3z"/>
						<path id="XMLID_64_" class="st1" d="M595.7-198.6c-5.7,0-11.5-1.7-16.4-5.1c-0.5-0.4-0.6-1-0.3-1.5c0.4-0.5,1-0.6,1.5-0.3
							c9,6.4,21.1,6.4,30.2,0c0.5-0.4,1.2-0.2,1.5,0.3c0.4,0.5,0.2,1.2-0.3,1.5C607.2-200.3,601.2-198.6,595.7-198.6z"/>
					</g>
					<g id="XMLID_42_">
						<path id="XMLID_61_" class="st1" d="M611.2-248.6c-0.2,0-0.4-0.1-0.6-0.2c-9-6.4-21.1-6.4-30.2,0c-0.5,0.4-1.2,0.2-1.5-0.3
							c-0.4-0.5-0.2-1.2,0.3-1.5c9.9-6.9,23-6.9,32.9,0c0.5,0.4,0.6,1,0.3,1.5C611.8-248.8,611.8-248.6,611.2-248.6z"/>
						<path id="XMLID_43_" class="st1" d="M618.2-210.3c-0.2,0-0.4-0.1-0.6-0.2c-0.5-0.4-0.6-1-0.3-1.5c6.4-9,6.4-21.1,0-30.2
							c-0.4-0.5-0.2-1.2,0.3-1.5c0.5-0.4,1.2-0.2,1.5,0.3c6.9,9.9,6.9,23,0,32.9C618.8-210.5,618.2-210.3,618.2-210.3z"/>
					</g>
					<circle id="XMLID_40_" class="st1" cx="617.2" cy="-210.1" r="2.6"/>
					<circle id="XMLID_39_" class="st1" cx="573.8" cy="-244.2" r="2.6"/>
					<circle id="XMLID_21_" class="st1" cx="612.8" cy="-248.7" r="2.6"/>
					<circle id="XMLID_20_" class="st1" cx="578.2" cy="-205.6" r="2.6"/>
				</g>
				<g>
					<g>
						<path class="st1" d="M655.2-187.9h-3v-73c0-1.5-1.3-2.8-2.8-2.8H541.8c-1.5,0-2.8,1.3-2.8,2.8v73h-3v-73
							c0-3.2,2.6-5.8,5.8-5.8h107.2c3.2,0,5.8,2.6,5.8,5.8v73H655.2z"/>
						<path class="st1" d="M656.2-175.7h-121c-4.1,0-7.5-3.4-7.5-7.5v-6.2h56.7v1.5c0,1.5,1.3,2.8,2.8,2.8h17.2
							c1.5,0,2.8-1.3,2.8-2.8v-1.5h56.7v6.2C663.7-179.1,660.2-175.7,656.2-175.7z M530.7-186.4v3.2c0,2.5,2,4.5,4.5,4.5h121.1
							c2.5,0,4.5-2,4.5-4.5v-3.2h-50.9c-0.7,2.5-2.9,4.3-5.6,4.3h-17.3c-2.7,0-4.9-1.8-5.6-4.3H530.7z"/>
						<path class="st1" d="M648.7-192.9h-106v-67.4h106V-192.9z M545.7-195.9h100v-61.4h-100V-195.9z"/>
					</g>
				</g>
			</g>
			<g>
				<g id="XMLID_5_">
					<g id="XMLID_16_">
						<path id="XMLID_30_" class="st1" d="M820.8-294.1c-3.2,0-3.6-0.5-3.9-0.8c-0.9-1-1-4.3-0.6-5.9c0.3-1.2,0.8-2,1.5-2.3
							c0.8-0.4,1.5-0.6,2-0.8c0.6-0.2,1-0.4,1.2-0.5l0.2-0.2c2-1.4,4.3-2.8,5.6-3c0.1,0,9.7-0.9,11.8,0.2c0.6,0.3,1.4,0.8,2.3,1.3
							c1.4,0.9,3.2,2,4.3,2.3c0.3,0.1,0.8,0.2,1.3,0.2c2.7,0.4,8.2,1,8.2,6.7v0.1c-0.3,2.3-2.9,2.6-5.4,2.6c-0.5,0-1-0.4-1-1
							c0-0.5,0.4-1,1-1c2.1,0,3.3-0.3,3.4-0.7c0.1-3.5-3-4.3-6.4-4.7c-0.6-0.1-1.2-0.2-1.7-0.3c-1.4-0.4-3.3-1.5-4.9-2.5
							c-0.8-0.5-1.6-1-2.1-1.2c-1.2-0.5-8.2-0.3-10.7,0c-0.5,0.1-1.7,0.5-4.7,2.7l-0.3,0.2c-0.5,0.4-1.2,0.5-1.8,0.8
							c-0.5,0.2-1.1,0.4-1.9,0.7c-0.6,0.4-0.6,3.9-0.2,5c0.4,0.1,1.8,0.2,3,0.2c0.5,0,1,0.4,1.1,1c0,0.5-0.4,1-1,1.1
							C821.2-294.1,821.2-294.1,820.8-294.1z"/>
						<path id="XMLID_27_" class="st1" d="M846.8-291.4c-2.1,0-3.9-1.8-3.9-3.9c0-2.1,1.8-3.9,3.9-3.9c2.1,0,3.9,1.8,3.9,3.9
							C850.3-293.2,848.8-291.4,846.8-291.4z M846.8-297.2c-1.1,0-1.9,0.8-1.9,1.9c0,1.1,0.8,1.9,1.9,1.9c1.1,0,1.9-0.8,1.9-1.9
							C848.2-296.3,847.8-297.2,846.8-297.2z"/>
						<path id="XMLID_24_" class="st1" d="M825.2-291.4c-2.1,0-3.9-1.8-3.9-3.9c0-2.1,1.8-3.9,3.9-3.9c2.1,0,3.9,1.8,3.9,3.9
							C828.8-293.2,827.2-291.4,825.2-291.4z M825.2-297.2c-1.1,0-1.9,0.8-1.9,1.9c0,1.1,0.8,1.9,1.9,1.9c1.1,0,1.9-0.8,1.9-1.9
							C826.8-296.3,826.2-297.2,825.2-297.2z"/>
						<path id="XMLID_23_" class="st1" d="M842.8-298.1L842.8-298.1c-1.9,0-11.5-0.2-13.8-1.7c-2.6-1.6-3.1-4.3-3.2-4.3
							c-0.1-0.5,0.3-1.1,0.8-1.2c0.5-0.1,1.1,0.3,1.2,0.8c0,0.1,0.4,2,2.3,3c1.4,0.9,8.6,1.3,12.8,1.3c0.5,0,1,0.4,1,1
							C843.8-298.6,843.3-298.1,842.8-298.1z"/>
						<path id="XMLID_22_" class="st1" d="M843.8-294.3h-15.9c-0.5,0-1-0.4-1-1c0-0.5,0.4-1,1-1h15.9c0.5,0,1,0.4,1,1
							C844.8-294.8,844.2-294.3,843.8-294.3z"/>
						<path id="XMLID_19_" class="st1" d="M850.3-294.3c-0.2,0-0.4,0-0.5,0c-0.5-0.1-1-0.5-0.9-1.1c0.1-0.5,0.5-1,1.1-0.9
							c0.9,0.1,2-0.2,2.6-0.7c0.1-0.1,0.3-0.3,0.3-0.4c0,0,0,0,0-0.1c0.2-3.2-2.9-3.8-6.3-4.3c-0.7-0.1-1.2-0.2-1.7-0.3
							c-0.5-0.2-0.9-0.7-0.7-1.2c0.2-0.5,0.7-0.9,1.2-0.7c0.3,0.1,0.9,0.2,1.4,0.3c2.7,0.4,8.3,1.1,8.1,6.3c0,0.7-0.4,1.3-0.9,1.9
							C853.2-294.8,851.8-294.3,850.3-294.3z"/>
					</g>
					<g id="XMLID_13_">
						<path id="XMLID_15_" class="st1" d="M816.2-285.1c-0.3,0-0.6-0.2-0.8-0.4c-5.9-8.5-5.9-19.9,0-28.4c0.4-0.4,0.9-0.5,1.3-0.3
							c0.4,0.4,0.5,0.9,0.3,1.3c-5.5,7.8-5.5,18.3,0,26.1c0.4,0.4,0.2,1.1-0.3,1.3C816.2-285.2,816.2-285.1,816.2-285.1z"/>
						<path id="XMLID_14_" class="st1" d="M835.3-275c-5,0-9.9-1.5-14.2-4.4c-0.4-0.4-0.5-0.9-0.3-1.3c0.4-0.4,0.9-0.5,1.3-0.3
							c7.8,5.5,18.3,5.5,26.1,0c0.4-0.4,1.1-0.2,1.3,0.3c0.4,0.4,0.2,1.1-0.3,1.3C845.2-276.5,840.3-275,835.3-275z"/>
					</g>
					<g id="XMLID_10_">
						<path id="XMLID_12_" class="st1" d="M849.2-318.2c-0.2,0-0.4-0.1-0.5-0.2c-7.8-5.5-18.3-5.5-26.1,0c-0.4,0.4-1.1,0.2-1.3-0.3
							c-0.4-0.4-0.2-1.1,0.3-1.3c8.5-5.9,19.9-5.9,28.4,0c0.4,0.4,0.5,0.9,0.3,1.3C849.8-318.4,849.2-318.2,849.2-318.2z"/>
						<path id="XMLID_11_" class="st1" d="M854.8-285.1c-0.2,0-0.4-0.1-0.5-0.2c-0.4-0.4-0.5-0.9-0.3-1.3c5.5-7.8,5.5-18.3,0-26.1
							c-0.4-0.4-0.2-1.1,0.3-1.3c0.4-0.4,1.1-0.2,1.3,0.3c5.9,8.5,5.9,19.9,0,28.4C855.3-285.3,855.2-285.1,854.8-285.1z"/>
					</g>
					<circle id="XMLID_9_" class="st1" cx="854.2" cy="-284.9" r="2.2"/>
					<circle id="XMLID_8_" class="st1" cx="816.8" cy="-314.5" r="2.2"/>
					<circle id="XMLID_7_" class="st1" cx="850.2" cy="-318.3" r="2.2"/>
					<circle id="XMLID_6_" class="st1" cx="820.8" cy="-281.1" r="2.2"/>
				</g>
				<g>
					<g>
						<path class="st1" d="M886.8-265.8h-3v-63c0-1.2-1-2.2-2.2-2.2h-92.7c-1.2,0-2.2,1-2.2,2.2v63h-3v-63c0-2.9,2.3-5.2,5.2-5.2
							h92.7c2.9,0,5.2,2.3,5.2,5.2V-265.8z"/>
						<path class="st1" d="M887.8-255.1H783.2c-3.7,0-6.7-3-6.7-6.7v-5.6h49.3v1.5c0,1.2,1,2.2,2.2,2.2h14.8c1.2,0,2.2-1,2.2-2.2
							v-1.5h49.3v5.6C894.3-258.1,891.3-255.1,887.8-255.1z M779.7-264.3v2.6c0,2,1.6,3.7,3.7,3.7h104.6c2,0,3.7-1.6,3.7-3.7v-2.6
							h-43.7c-0.6,2.1-2.6,3.7-5,3.7h-14.8c-2.4,0-4.3-1.6-5-3.7H779.7z"/>
						<path class="st1" d="M881.3-269.9h-92v-58.6h92V-269.9z M792.7-272.9h86v-52.6h-86V-272.9L792.7-272.9z"/>
					</g>
				</g>
			</g>
		</g>
		<g>
			<g>
				<path class="st1" d="M1488.8-130.9h-195.7v-3h195.7c3.4,0,6.7-1.4,9.1-3.8l18.5-18.5c2.4-2.4,3.8-5.7,3.8-9.1v-90.9h3v90.9
					c0,4.2-1.7,8.3-4.6,11.2l-18.5,18.5C1497.1-132.6,1493-130.9,1488.8-130.9z"/>
			</g>
			<g>
				<g>
					<path class="st1" d="M1644.8-68.6c-10.8,0-21.5-4.2-29.4-12.1c-16.1-16.1-16.1-42.4,0-58.5s42.4-16.1,58.5,0
						c12.1,12.1,15.5,30.8,8.4,46.4l-2.7-1.2c6.6-14.5,3.4-31.8-7.8-43c-15-15-39.3-15-54.3,0s-15,39.3,0,54.3
						c11.3,11.3,28.5,14.4,43,7.8l1.2,2.7C1656.2-69.8,1650.8-68.6,1644.8-68.6z"/>
					<path class="st1" d="M1656.3-50.1h-23.7l-1.3-12c-2-0.5-4-1.2-5.9-2c-1.9-0.8-3.8-1.7-5.6-2.8l-9.4,7.6l-16.8-16.8l7.6-9.4
						c-1-1.8-2-3.7-2.8-5.6s-1.5-3.9-2-5.9l-12-1.3V-122l12-1.3c0.5-2,1.2-3.9,2-5.9c0.8-1.9,1.7-3.8,2.8-5.6l-7.6-9.4l16.8-16.8
						l9.4,7.6c1.8-1,3.7-2,5.6-2.8c1.9-0.8,3.9-1.5,5.9-2l1.3-12h23.7l1.3,12c2,0.5,4,1.2,5.9,2c1.9,0.8,3.8,1.7,5.6,2.8l9.4-7.6
						l16.8,16.8l-7.6,9.4c1,1.8,2,3.7,2.8,5.6c0.8,1.9,1.5,3.9,2,5.9l12,1.3v23.7l-12,1.3c-0.5,2-1.2,4-2,5.9l-2.8-1.1
						c0.9-2.1,1.6-4.3,2.1-6.5l0.3-1l11.4-1.2v-18.3l-11.4-1.2l-0.3-1c-0.6-2.2-1.3-4.4-2.1-6.5c-0.9-2.1-1.9-4.2-3.1-6.1l-0.5-0.9
						l7.2-8.9l-13-12.9l-8.9,7.2l-0.9-0.5c-2-1.2-4-2.2-6.2-3.1c-2.1-0.9-4.3-1.6-6.5-2.1l-1-0.3l-1.2-11.4h-18.3l-1.2,11.4l-1,0.3
						c-2.2,0.5-4.4,1.3-6.5,2.1c-2.1,0.9-4.2,1.9-6.2,3.1l-0.9,0.5l-8.8-7.2l-13,12.9l7.2,8.9l-0.5,0.9c-1.2,2-2.2,4-3.1,6.1
						c-0.9,2.1-1.6,4.3-2.1,6.5l-0.3,1l-11.4,1.2v18.3l11.4,1.2l0.3,1c0.5,2.2,1.3,4.4,2.1,6.5c0.9,2.1,1.9,4.2,3.1,6.1l0.5,0.9
						l-7.2,8.9l13,12.9l8.9-7.2l0.9,0.5c2,1.2,4,2.2,6.1,3.1s4.3,1.6,6.5,2.1l1,0.3l1.2,11.4h18.3l1.2-11.4l1-0.3
						c2.2-0.5,4.4-1.3,6.5-2.1l1.1,2.8c-1.9,0.8-3.9,1.5-5.9,2L1656.3-50.1z"/>
				</g>
				<g>
					<path class="st1" d="M1670.8-75.4l-9.9-9.9l8.5-8.5l9.9,9.9L1670.8-75.4z M1664.9-85.2l5.6,5.6l4.2-4.2l-5.6-5.6L1664.9-85.2z"
						/>
					<path class="st1" d="M1701.1-41.5c-0.7,0-1.3-0.3-1.8-0.7L1668-73.5c-1-1-1-2.6,0-3.6l9.3-9.3c1-1,2.6-1,3.6,0l31.3,31.3
						c1,1,1,2.6,0,3.6l-9.3,9.3C1702.8-41.8,1701.8-41.5,1701.1-41.5z M1670.8-75.3l30.6,30.6l8.7-8.7L1679.4-84L1670.8-75.3z"/>
					<path class="st1" d="M1644.8-78c-8.2,0-16.4-3.1-22.6-9.3c-12.5-12.5-12.5-32.7,0-45.2s32.7-12.5,45.2,0c6,6,9.4,14.1,9.4,22.6
						s-3.3,16.6-9.4,22.6C1660.8-81.1,1652.8-78,1644.8-78z M1644.8-138.9c-7.7,0-15,3-20.5,8.5c-5.5,5.5-8.5,12.7-8.5,20.5
						c0,7.7,3,15,8.5,20.5c11.3,11.3,29.7,11.3,41,0s11.3-29.7,0-41C1659.8-135.9,1652.2-138.9,1644.8-138.9z"/>
					
						<rect x="1699.8" y="-61" transform="matrix(0.7071 0.7071 -0.7071 0.7071 460.5086 -1218.6561)" class="st1" width="3" height="15.2"/>
				</g>
			</g>
			<g>
				<rect x="1297.8" y="-111.4" class="st1" width="288.8" height="3"/>
				<path class="st1" d="M1727.9-108.4H1703v-3h24.9c3.4,0,6.7-1.4,9.1-3.8l18.5-18.5c2.4-2.4,3.8-5.7,3.8-9.1v-33.9h3v33.9
					c0,4.2-1.7,8.3-4.6,11.2l-18.5,18.5C1736.2-110.1,1732.1-108.4,1727.9-108.4z"/>
			</g>
			<g>
				<g id="XMLID_57_">
					<g id="XMLID_72_">
						<path id="XMLID_82_" class="st1" d="M1744.8-220.7c-3.7,0-4.2-0.6-4.5-0.9c-1-1.1-1.1-4.9-0.7-6.9c0.3-1.3,0.9-2.3,1.7-2.7
							c0.9-0.4,1.7-0.7,2.4-0.9c0.7-0.2,1.1-0.4,1.4-0.6l0.2-0.2c2.3-1.6,4.9-3.3,6.5-3.5c0.1,0,11.2-1,13.7,0.2
							c0.7,0.3,1.6,0.9,2.7,1.5c1.6,1,3.7,2.3,5,2.7c0.3,0.1,0.9,0.2,1.5,0.2c3.1,0.4,9.5,1.1,9.4,7.8v0.1c-0.3,2.7-3.4,3-6.3,3
							c-0.6,0-1.1-0.5-1.1-1.1c0-0.6,0.5-1.1,1.1-1.1c2.5,0,3.8-0.3,3.9-0.8c0.1-4.1-3.5-4.9-7.4-5.4c-0.7-0.1-1.4-0.2-2-0.3
							c-1.6-0.4-3.8-1.7-5.6-2.9c-0.9-0.6-1.8-1.1-2.5-1.4c-1.3-0.6-9.4-0.3-12.4,0c-0.6,0.1-2,0.6-5.4,3.1l-0.3,0.2
							c-0.6,0.4-1.3,0.6-2.1,0.9c-0.6,0.2-1.2,0.4-2.2,0.8c-0.7,0.5-0.7,4.5-0.2,5.7c0.5,0.1,2.1,0.2,3.5,0.2c0.6,0,1.1,0.5,1.2,1.1
							c0,0.6-0.5,1.1-1.1,1.2C1745.3-220.7,1745-220.7,1744.8-220.7z"/>
						<path id="XMLID_79_" class="st1" d="M1774.8-217.5c-2.5,0-4.5-2.1-4.5-4.5c0-2.5,2.1-4.5,4.5-4.5s4.5,2.1,4.5,4.5
							C1779.2-219.6,1777.1-217.5,1774.8-217.5z M1774.8-224.2c-1.2,0-2.2,0.9-2.2,2.2c0,1.2,0.9,2.2,2.2,2.2c1.2,0,2.2-0.9,2.2-2.2
							C1776.8-223.2,1775.9-224.2,1774.8-224.2z"/>
						<path id="XMLID_76_" class="st1" d="M1749.8-217.5c-2.5,0-4.5-2.1-4.5-4.5c0-2.5,2.1-4.5,4.5-4.5s4.5,2.1,4.5,4.5
							C1754.2-219.6,1752.2-217.5,1749.8-217.5z M1749.8-224.2c-1.2,0-2.2,0.9-2.2,2.2c0,1.2,0.9,2.2,2.2,2.2c1.2,0,2.2-0.9,2.2-2.2
							C1751.9-223.2,1750.9-224.2,1749.8-224.2z"/>
						<path id="XMLID_75_" class="st1" d="M1770.8-225.3L1770.8-225.3c-2.2,0-13.3-0.2-16-2c-3-1.8-3.6-4.9-3.7-5
							c-0.1-0.6,0.3-1.2,0.9-1.3s1.2,0.3,1.3,0.9c0,0.1,0.5,2.3,2.7,3.5c1.6,1,10,1.5,14.8,1.5c0.6,0,1.1,0.5,1.1,1.1
							C1771.8-225.9,1771.1-225.3,1770.8-225.3z"/>
						<path id="XMLID_74_" class="st1" d="M1771.8-220.9h-18.4c-0.6,0-1.1-0.5-1.1-1.1c0-0.6,0.5-1.1,1.1-1.1h18.4
							c0.6,0,1.1,0.5,1.1,1.1C1772.8-221.4,1772-220.9,1771.8-220.9z"/>
						<path id="XMLID_73_" class="st1" d="M1779.2-220.9c-0.2,0-0.4,0-0.6,0c-0.6-0.1-1.1-0.6-1-1.2c0.1-0.6,0.6-1.1,1.2-1
							c1,0.1,2.4-0.2,3-0.8c0.1-0.1,0.3-0.3,0.3-0.4c0,0,0,0,0-0.1c0.2-3.7-3.4-4.4-7.3-4.9c-0.8-0.1-1.4-0.2-2-0.3
							c-0.6-0.2-1-0.8-0.8-1.4s0.8-1,1.4-0.8c0.3,0.1,1,0.2,1.6,0.3c3.1,0.4,9.7,1.2,9.3,7.3c0,0.8-0.4,1.5-1,2.2
							C1782.8-221.4,1780.8-220.9,1779.2-220.9z"/>
					</g>
					<g id="XMLID_69_">
						<path id="XMLID_71_" class="st1" d="M1739.8-210.3c-0.3,0-0.7-0.2-0.9-0.5c-6.9-9.9-6.9-23,0-32.9c0.4-0.5,1-0.6,1.5-0.3
							c0.5,0.4,0.6,1,0.3,1.5c-6.4,9-6.4,21.1,0,30.2c0.4,0.5,0.2,1.2-0.3,1.5C1739.8-210.4,1739.8-210.3,1739.8-210.3z"/>
						<path id="XMLID_70_" class="st1" d="M1761.8-198.6c-5.7,0-11.5-1.7-16.4-5.1c-0.5-0.4-0.6-1-0.3-1.5c0.4-0.5,1-0.6,1.5-0.3
							c9,6.4,21.1,6.4,30.2,0c0.5-0.4,1.2-0.2,1.5,0.3c0.4,0.5,0.2,1.2-0.3,1.5C1773.3-200.3,1767.8-198.6,1761.8-198.6z"/>
					</g>
					<g id="XMLID_66_">
						<path id="XMLID_68_" class="st1" d="M1777.8-248.6c-0.2,0-0.4-0.1-0.6-0.2c-9-6.4-21.1-6.4-30.2,0c-0.5,0.4-1.2,0.2-1.5-0.3
							c-0.4-0.5-0.2-1.2,0.3-1.5c9.9-6.9,23-6.9,32.9,0c0.5,0.4,0.6,1,0.3,1.5C1778.3-248.8,1778-248.6,1777.8-248.6z"/>
						<path id="XMLID_67_" class="st1" d="M1784.3-210.3c-0.2,0-0.4-0.1-0.6-0.2c-0.5-0.4-0.6-1-0.3-1.5c6.4-9,6.4-21.1,0-30.2
							c-0.4-0.5-0.2-1.2,0.3-1.5c0.5-0.4,1.2-0.2,1.5,0.3c6.9,9.9,6.9,23,0,32.9C1785-210.5,1784.8-210.3,1784.3-210.3z"/>
					</g>
					<circle id="XMLID_63_" class="st1" cx="1783.8" cy="-210.1" r="2.6"/>
					<circle id="XMLID_60_" class="st1" cx="1740.3" cy="-244.2" r="2.6"/>
					<circle id="XMLID_59_" class="st1" cx="1779" cy="-248.7" r="2.6"/>
					<circle id="XMLID_58_" class="st1" cx="1744.8" cy="-205.6" r="2.6"/>
				</g>
				<g>
					<g>
						<path class="st1" d="M1821.3-187.9h-3v-73c0-1.5-1.3-2.8-2.8-2.8h-107.3c-1.5,0-2.8,1.3-2.8,2.8v73h-3v-73
							c0-3.2,2.6-5.8,5.8-5.8h107.3c3.2,0,5.8,2.6,5.8,5.8V-187.9z"/>
						<path class="st1" d="M1822.8-175.7h-121.1c-4.1,0-7.5-3.4-7.5-7.5v-6.2h56.7v1.5c0,1.5,1.3,2.8,2.8,2.8h17.2
							c1.5,0,2.8-1.3,2.8-2.8v-1.5h56.7v6.2C1829.9-179.1,1826.8-175.7,1822.8-175.7z M1696.8-186.4v3.2c0,2.5,2,4.5,4.5,4.5h121.1
							c2.5,0,4.5-2,4.5-4.5v-3.2H1776c-0.7,2.5-2.9,4.3-5.6,4.3h-17.2c-2.7,0-4.9-1.8-5.6-4.3H1696.8z"/>
						<path class="st1" d="M1814.9-192.9h-106v-67.4h106V-192.9z M1711.8-195.9h100v-61.4h-100V-195.9z"/>
					</g>
				</g>
			</g>
			<g>
				<g id="XMLID_3_">
					<g id="XMLID_46_">
						<path id="XMLID_56_" class="st1" d="M1507.1-294.1c-3.2,0-3.6-0.5-3.9-0.8c-0.9-1-1-4.3-0.6-5.9c0.3-1.2,0.8-2,1.5-2.3
							c0.8-0.4,1.5-0.6,2-0.8c0.6-0.2,1-0.4,1.2-0.5l0.2-0.2c2-1.4,4.3-2.8,5.6-3c0.1,0,9.7-0.9,11.8,0.2c0.6,0.3,1.4,0.8,2.3,1.3
							c1.4,0.9,3.2,2,4.3,2.3c0.3,0.1,0.8,0.2,1.3,0.2c2.7,0.4,8.2,1,8.2,6.7v0.1c-0.3,2.3-2.9,2.6-5.4,2.6c-0.5,0-1-0.4-1-1
							c0-0.5,0.4-1,1-1c2.1,0,3.3-0.3,3.4-0.7c0.1-3.5-3-4.3-6.4-4.7c-0.6-0.1-1.2-0.2-1.7-0.3c-1.4-0.4-3.3-1.5-4.9-2.5
							c-0.8-0.5-1.6-1-2.1-1.2c-1.2-0.5-8.2-0.3-10.7,0c-0.5,0.1-1.7,0.5-4.7,2.7l-0.3,0.2c-0.5,0.4-1.2,0.5-1.8,0.8
							c-0.5,0.2-1.1,0.4-1.9,0.7c-0.6,0.4-0.6,3.9-0.2,5c0.4,0.1,1.8,0.2,3,0.2c0.5,0,1,0.4,1.1,1c0,0.5-0.4,1-1,1.1
							C1507.8-294.1,1507.3-294.1,1507.1-294.1z"/>
						<path id="XMLID_53_" class="st1" d="M1532.9-291.4c-2.1,0-3.9-1.8-3.9-3.9c0-2.1,1.8-3.9,3.9-3.9s3.9,1.8,3.9,3.9
							C1536.8-293.2,1535.1-291.4,1532.9-291.4z M1532.9-297.2c-1.1,0-1.9,0.8-1.9,1.9c0,1.1,0.8,1.9,1.9,1.9s1.9-0.8,1.9-1.9
							C1534.8-296.3,1534-297.2,1532.9-297.2z"/>
						<path id="XMLID_50_" class="st1" d="M1511.8-291.4c-2.1,0-3.9-1.8-3.9-3.9c0-2.1,1.8-3.9,3.9-3.9s3.9,1.8,3.9,3.9
							C1515.3-293.2,1513.8-291.4,1511.8-291.4z M1511.8-297.2c-1.1,0-1.9,0.8-1.9,1.9c0,1.1,0.8,1.9,1.9,1.9s1.9-0.8,1.9-1.9
							C1513.3-296.3,1512.8-297.2,1511.8-297.2z"/>
						<path id="XMLID_49_" class="st1" d="M1529.2-298.1L1529.2-298.1c-1.9,0-11.5-0.2-13.8-1.7c-2.6-1.6-3.1-4.3-3.2-4.3
							c-0.1-0.5,0.3-1.1,0.8-1.2c0.5-0.1,1.1,0.3,1.2,0.8c0,0.1,0.4,2,2.3,3c1.4,0.9,8.6,1.3,12.8,1.3c0.5,0,1,0.4,1,1
							C1530.3-298.6,1529.8-298.1,1529.2-298.1z"/>
						<path id="XMLID_48_" class="st1" d="M1530.1-294.3h-15.9c-0.5,0-1-0.4-1-1c0-0.5,0.4-1,1-1h15.9c0.5,0,1,0.4,1,1
							C1531.1-294.8,1530.8-294.3,1530.1-294.3z"/>
						<path id="XMLID_47_" class="st1" d="M1536.8-294.3c-0.2,0-0.4,0-0.5,0c-0.5-0.1-1-0.5-0.9-1.1c0.1-0.5,0.5-1,1.1-0.9
							c0.9,0.1,2-0.2,2.6-0.7c0.1-0.1,0.3-0.3,0.3-0.4c0,0,0,0,0-0.1c0.2-3.2-2.9-3.8-6.3-4.3c-0.7-0.1-1.2-0.2-1.7-0.3
							c-0.5-0.2-0.9-0.7-0.7-1.2c0.2-0.5,0.7-0.9,1.2-0.7c0.3,0.1,0.9,0.2,1.4,0.3c2.7,0.4,8.3,1.1,8.1,6.3c0,0.7-0.4,1.3-0.9,1.9
							C1539.8-294.8,1538.2-294.3,1536.8-294.3z"/>
					</g>
					<g id="XMLID_41_">
						<path id="XMLID_45_" class="st1" d="M1502.8-285.1c-0.3,0-0.6-0.2-0.8-0.4c-5.9-8.5-5.9-19.9,0-28.4c0.4-0.4,0.9-0.5,1.3-0.3
							c0.4,0.4,0.5,0.9,0.3,1.3c-5.5,7.8-5.5,18.3,0,26.1c0.4,0.4,0.2,1.1-0.3,1.3C1502.8-285.2,1502.8-285.1,1502.8-285.1z"/>
						<path id="XMLID_44_" class="st1" d="M1521.9-275c-5,0-9.9-1.5-14.2-4.4c-0.4-0.4-0.5-0.9-0.3-1.3c0.4-0.4,0.9-0.5,1.3-0.3
							c7.8,5.5,18.3,5.5,26.1,0c0.4-0.4,1.1-0.2,1.3,0.3c0.4,0.4,0.2,1.1-0.3,1.3C1531.8-276.5,1526.8-275,1521.9-275z"/>
					</g>
					<g id="XMLID_36_">
						<path id="XMLID_38_" class="st1" d="M1535.8-318.2c-0.2,0-0.4-0.1-0.5-0.2c-7.8-5.5-18.3-5.5-26.1,0c-0.4,0.4-1.1,0.2-1.3-0.3
							c-0.4-0.4-0.2-1.1,0.3-1.3c8.5-5.9,19.9-5.9,28.4,0c0.4,0.4,0.5,0.9,0.3,1.3C1536-318.4,1535.8-318.2,1535.8-318.2z"/>
						<path id="XMLID_37_" class="st1" d="M1541.3-285.1c-0.2,0-0.4-0.1-0.5-0.2c-0.4-0.4-0.5-0.9-0.3-1.3c5.5-7.8,5.5-18.3,0-26.1
							c-0.4-0.4-0.2-1.1,0.3-1.3c0.4-0.4,1.1-0.2,1.3,0.3c5.9,8.5,5.9,19.9,0,28.4C1541.9-285.3,1541.8-285.1,1541.3-285.1z"/>
					</g>
					<circle id="XMLID_35_" class="st1" cx="1540.8" cy="-284.9" r="2.2"/>
					<circle id="XMLID_34_" class="st1" cx="1503.2" cy="-314.5" r="2.2"/>
					<circle id="XMLID_31_" class="st1" cx="1536.8" cy="-318.3" r="2.2"/>
					<circle id="XMLID_4_" class="st1" cx="1507" cy="-281.1" r="2.2"/>
				</g>
				<g>
					<g>
						<path class="st1" d="M1573.8-265.8h-3v-63c0-1.2-1-2.2-2.2-2.2h-92.7c-1.2,0-2.2,1-2.2,2.2v63h-3v-63c0-2.9,2.3-5.2,5.2-5.2
							h92.7c2.9,0,5.2,2.3,5.2,5.2V-265.8z"/>
						<path class="st1" d="M1574.1-255.1h-104.6c-3.7,0-6.7-3-6.7-6.7v-5.6h49.3v1.5c0,1.2,1,2.2,2.2,2.2h14.8c1.2,0,2.2-1,2.2-2.2
							v-1.5h49.3v5.6C1580.8-258.1,1577.8-255.1,1574.1-255.1z M1465.9-264.3v2.6c0,2,1.6,3.7,3.7,3.7h104.5c2,0,3.7-1.6,3.7-3.7
							v-2.6h-43.6c-0.6,2.1-2.6,3.7-5,3.7h-14.8c-2.3,0-4.3-1.6-5-3.7H1465.9z"/>
						<path class="st1" d="M1567.8-269.9h-92v-58.6h92V-269.9z M1478.9-272.9h86v-52.6h-86V-272.9z"/>
					</g>
				</g>
			</g>
		</g>
	</g>
	<path class="st1" d="M1661.8,671.1h-315.9c-17.4,0-31.5-14.1-31.5-31.5V312.4c0-17.4,14.1-31.5,31.5-31.5h315.9
		c17.4,0,31.5,14.1,31.5,31.5v327.2C1693.3,657,1679.2,671.1,1661.8,671.1z M1346,283.9c-15.7,0-28.5,12.8-28.5,28.5v327.2
		c0,15.7,12.8,28.5,28.5,28.5h315.9c15.7,0,28.5-12.8,28.5-28.5V312.4c0-15.7-12.8-28.5-28.5-28.5H1346z"/>
	<g id="XMLID_1184_">
		<circle id="XMLID_491_" class="st1" cx="1691.9" cy="477.4" r="124.2"/>
		<g id="XMLID_574_">
			<path id="XMLID_540_" class="st0" d="M1749.3,534h-5.5v-12.5l-14.2-4.9l-4.1,4.6h-7.8l-4.2-4.7l-14.3,4.9l-0.1,12.7h-5.5v-12.5
				c0-2.4,1.5-4.5,3.8-5.3l14.2-4.8v-6.3c-2.2-1.4-3.6-3.8-3.8-6.4l-1.2-14.5c0-8.4,6.7-15.1,14.8-15.1s14.8,6.7,14.8,14.9v0.2
				l-1.2,14.6c-0.2,2.7-1.6,5.1-3.9,6.5v6.2l14.2,4.8c2.3,0.8,3.8,2.9,3.8,5.3V534H1749.3z M1720.2,515.7h2.9l2.8-3.2v-4l-1.7,1.1
				h-5.5l-1.6-1v3.6L1720.2,515.7z M1720.3,504.2h2.3l5.4-3.4c1.1-0.6,1.7-1.5,1.8-2.5l1.2-14.5c-0.1-5.1-4.2-9.3-9.4-9.3
				c-5.2,0-9.4,4.2-9.4,9.4l1.2,14.3c0.1,1,0.7,1.9,1.6,2.4l0.2,0.1L1720.3,504.2z M1690,534h-5.5v-13.3l-14.2-4.9l-4.1,4.6h-7.8
				l-4.2-4.7l-14.3,4.9l-0.1,13.4h-5.5v-13.3c0-2.4,1.5-4.5,3.8-5.3l14.2-4.8v-6.3c-2.2-1.4-3.6-3.8-3.8-6.4l-1.2-14.5
				c0-8.4,6.7-15.1,14.8-15.1c8.2,0,14.8,6.7,14.8,14.8v0.2l-1.2,14.6c-0.2,2.6-1.7,5.1-3.9,6.5v6.2l14.2,4.8
				c2.3,0.8,3.8,2.9,3.8,5.3V534L1690,534L1690,534z M1660.9,515h2.9l2.8-3.2v-4l-1.7,1.1h-5.5l-1.6-1v3.6L1660.9,515z
				 M1661.1,503.5h2.3l5.4-3.4c1.1-0.6,1.7-1.5,1.8-2.5l1.2-14.5c-0.1-5.1-4.2-9.3-9.4-9.3c-5.2,0-9.4,4.2-9.4,9.4l1.2,14.3
				c0.1,1,0.7,1.9,1.6,2.4l0.2,0.1L1661.1,503.5z M1695.8,502.8h-7.5l-3.9-4.5l-5,1.6l-1.7-5.2l4.8-1.5v-5.7
				c-2.1-1.4-3.4-3.7-3.6-6.2l-1.1-13.8c0-8.1,6.4-14.4,14.2-14.4c7.8,0,14.2,6.4,14.2,14.2v0.2l-1.1,13.8c-0.2,2.5-1.6,4.8-3.7,6.2
				v5.7l4.7,1.8l-1.9,5.1l-4.5-1.7L1695.8,502.8z M1690.8,497.4h2.6l2.5-2.9v-3.4l-1.4,0.9h-5.3l-1.3-0.8v3.1L1690.8,497.4z
				 M1690.8,486.5h2.1l5.1-3.2c1-0.5,1.6-1.4,1.6-2.3l1.1-13.7c-0.1-4.8-4-8.6-8.8-8.6s-8.7,3.9-8.7,8.7l1.1,13.6
				c0.1,0.9,0.6,1.8,1.4,2.2l0.2,0.1L1690.8,486.5z M1735.1,468.5h-5.5v-6.3l-13.3-1.9l-0.4-1.8c-0.6-2.6-1.6-5.1-3-7.4l-1-1.6
				l8-10.7l-2.8-2.8l-10.8,8l-1.6-1c-2.3-1.4-4.8-2.4-7.4-3.1l-1.8-0.4l-1.9-13.3h-3.9l-1.9,13.3l-1.8,0.4c-2.6,0.6-5,1.6-7.3,3
				l-1.6,1l-10.7-8.1l-2.8,2.8l8,10.8l-1,1.6c-1.4,2.3-2.5,4.8-3.1,7.4l-0.4,1.8l-13.3,1.9v6.3h-5.5v-11l14.3-2
				c0.6-1.9,1.4-3.8,2.3-5.5l-8.6-11.6l9.5-9.4l11.6,8.7c1.7-0.9,3.6-1.7,5.5-2.3l2.1-14.3h13.4l2.1,14.3c1.9,0.6,3.8,1.3,5.5,2.3
				l11.6-8.7l9.5,9.5l-8.7,11.6c1,1.8,1.7,3.6,2.3,5.5l14.3,2.1L1735.1,468.5z"/>
		</g>
	</g>
	<g id="XMLID_1201_">
		<circle id="XMLID_490_" class="st1" cx="1316.2" cy="477.4" r="124.2"/>
		<g id="XMLID_17_">
			<path id="XMLID_751_" class="st0" d="M1355.1,557.7h-6.7V541h-41.5v16.7h-6.7v-19.3c0-2.2,1.8-4,4-4.1l-1.2-0.6
				c-2.8-1.3-4.6-4.1-4.6-7.1v-21.9c0-3.7,3-6.7,6.7-6.7h3.6v-27.6c0-4.6,3.7-8.3,8.3-8.3c4.6,0,8.3,3.7,8.3,8.3v7.5
				c0.5-0.1,1-0.1,1.6-0.1c3.6,0,6.6,2.3,7.8,5.4c0.7-0.2,1.4-0.3,2.1-0.3c3.6,0,6.6,2.3,7.8,5.4c0.7-0.2,1.4-0.3,2.1-0.3
				c4.6,0,8.3,3.7,8.3,8.3v28c0,2.2-0.9,4.3-2.4,5.8l-4.3,4.2h2.9c2.3,0,4.1,1.8,4.1,4.1v19.3L1355.1,557.7L1355.1,557.7z
				 M1314.1,534.3h26.5c0.2-1.5,1-3,2.1-4.1l5-4.9c0.3-0.3,0.4-0.6,0.4-1v-28c0-0.9-0.7-1.6-1.6-1.6c-0.8,0-1.6,0.7-1.6,1.6v6.7
				h-6.7v-11.9c0-0.8-0.7-1.6-1.6-1.6c-0.8,0-1.6,0.7-1.6,1.6V503h-6.7v-17c0-0.9-0.7-1.6-1.6-1.6c-0.8,0-1.6,0.7-1.6,1.6v17h-6.7
				v-32.7c0-0.8-0.7-1.6-1.6-1.6c-0.8,0-1.6,0.7-1.6,1.6v40h-6.7v-5.6h-3.6v21.9c0,0.4,0.3,0.9,0.7,1l4,1.9
				C1311.9,530.4,1313.8,532.2,1314.1,534.3z M1303.8,476.1c-1.7-1.7-3.1-3.7-4-6c-1-2.3-1.5-4.8-1.5-7.3s0.5-5,1.5-7.3
				c0.9-2.2,2.3-4.2,4-6c1.7-1.7,3.7-3.1,6-4c4.6-2,10-2,14.6,0c2.2,0.9,4.2,2.3,6,4c1.7,1.7,3.1,3.7,4,6c1,2.3,1.5,4.8,1.5,7.3
				s-0.5,5-1.5,7.3l-6.2-2.6c0.6-1.5,0.9-3.1,0.9-4.7c0-1.6-0.3-3.2-0.9-4.7c-0.6-1.4-1.5-2.7-2.6-3.8s-2.4-2-3.8-2.6
				c-3-1.3-6.4-1.3-9.4,0c-1.4,0.6-2.7,1.5-3.8,2.6c-1.1,1.1-2,2.4-2.6,3.8c-0.6,1.5-0.9,3.1-0.9,4.7c0,1.6,0.3,3.2,0.9,4.7
				c0.6,1.4,1.5,2.7,2.6,3.8L1303.8,476.1z M1372.3,473.6c-5.6,0-10.2-4.6-10.2-10.2c0-5.6,4.6-10.2,10.2-10.2s10.2,4.6,10.2,10.2
				C1382.8,469,1377.9,473.6,1372.3,473.6z M1372.3,459.8c-1.9,0-3.5,1.6-3.5,3.5s1.6,3.5,3.5,3.5s3.5-1.6,3.5-3.5
				S1374.2,459.8,1372.3,459.8z M1260.2,473.6c-5.6,0-10.2-4.6-10.2-10.2c0-5.6,4.6-10.2,10.2-10.2s10.2,4.6,10.2,10.2
				C1270.8,469,1265.8,473.6,1260.2,473.6z M1260.2,459.8c-1.9,0-3.5,1.6-3.5,3.5s1.6,3.5,3.5,3.5s3.5-1.6,3.5-3.5
				S1262.1,459.8,1260.2,459.8z M1294.1,466.8h-21.3v-6.7h21.3V466.8z M1339.8,466.8v-6.7l19.7-0.1v6.7L1339.8,466.8z M1296.8,448.9
				l-15.3-15.2l4.7-4.8l15.3,15.2L1296.8,448.9z M1334.8,445.7l-4.8-4.7l14.8-14.9l4.8,4.7L1334.8,445.7z M1314.1,437.7v-18.5h6.7
				v18.5H1314.1z M1275.8,432.6c-5.6,0-10.2-4.6-10.2-10.2c0-5.6,4.6-10.2,10.2-10.2s10.2,4.6,10.2,10.2S1281,432.6,1275.8,432.6z
				 M1275.8,418.8c-1.9,0-3.5,1.6-3.5,3.5s1.6,3.5,3.5,3.5s3.5-1.6,3.5-3.5C1278.9,420.4,1277.3,418.8,1275.8,418.8z M1355.3,429.5
				c-5.6,0-10.2-4.6-10.2-10.2c0-5.6,4.6-10.2,10.2-10.2s10.2,4.6,10.2,10.2C1365.8,424.9,1360.9,429.5,1355.3,429.5z M1355.3,415.7
				c-1.9,0-3.5,1.6-3.5,3.5s1.6,3.5,3.5,3.5s3.5-1.6,3.5-3.5S1357.2,415.7,1355.3,415.7z M1317,417.6c-5.6,0-10.2-4.6-10.2-10.2
				s4.6-10.2,10.2-10.2s10.2,4.6,10.2,10.2S1322.8,417.6,1317,417.6z M1317,403.8c-1.9,0-3.5,1.6-3.5,3.5s1.6,3.5,3.5,3.5
				s3.5-1.6,3.5-3.5S1318.9,403.8,1317,403.8z"/>
		</g>
	</g>
</g>
</svg>
