<?xml version="1.0" encoding="utf-8"?>
<!-- Generator: Adobe Illustrator 19.0.0, SVG Export Plug-In . SVG Version: 6.00 Build 0)  -->
<svg version="1.1" id="Layer_1" xmlns="http://www.w3.org/2000/svg" xmlns:xlink="http://www.w3.org/1999/xlink" x="0px" y="0px"
	 viewBox="-1032 2450.8 202.6 202.6" style="enable-background:new -1032 2450.8 202.6 202.6;" xml:space="preserve">
<style type="text/css">
	.st0{fill:#EC2227;}
	.st1{fill:#FFFFFF;}
</style>
<g id="XMLID_2021_">
	<g id="XMLID_1562_">
		<circle id="XMLID_1563_" class="st0" cx="-930.7" cy="2552.1" r="101.3"/>
	</g>
	<g id="XMLID_1237_">
		<g id="XMLID_1806_">
			<g id="XMLID_1823_">
				<rect id="XMLID_1824_" x="-932.9" y="2485.9" class="st1" width="2.9" height="3.9"/>
			</g>
			<g id="XMLID_1821_">
				<rect id="XMLID_1822_" x="-932.9" y="2522.3" class="st1" width="2.9" height="29.2"/>
			</g>
			<g id="XMLID_1815_">
				<path id="XMLID_1816_" class="st1" d="M-947.6,2532l-0.9-1.9c-1.5-3.4-4.9-5.5-8.5-5.5c-2.9,0-5.6,1.3-7.4,3.6l-1.3,1.7
					l-1.1-1.9c-0.8-1.4-2.3-2.3-3.9-2.3c-1.7,0-3.3,1-4,2.6l-2.7-0.9c4.5-22,24.1-38,46.5-38c22.5,0,42.1,16,46.5,38.1l0.4,2.1
					l-2.2-0.4l-0.7-0.2l-0.3-0.7c-0.7-1.7-2.3-2.7-4.1-2.7c-1.6,0-3.1,0.9-3.9,2.3l-1.1,1.9l-1.3-1.7c-1.8-2.3-4.5-3.6-7.4-3.6
					c-3.7,0-7,2.2-8.5,5.5l-0.9,1.9l-1.5-1.5c-3.9-3.8-9-6-14.4-6c-0.3,0-0.6,0-0.9,0l0,0l0,0c-0.1,0-0.2,0-0.3,0
					c-0.1,0-0.1,0-0.2,0c-5.4,0-10.6,2.1-14.4,6L-947.6,2532z M-957,2521.7c4.1,0,8,2.1,10.2,5.5c4.2-3.6,9.5-5.5,15.1-5.5
					c0.1,0,0.3,0,0.4,0c0,0,0.1,0,0.1,0c0.3,0,0.6,0,1,0c5.6,0,10.9,1.9,15.1,5.5c2.2-3.4,6.1-5.5,10.2-5.5c3.2,0,6.2,1.2,8.4,3.4
					c1.4-1.4,3.2-2.2,5.2-2.2c1,0,1.9,0.2,2.8,0.6c-5.8-18.3-23-31.1-42.5-31.1c-19.4,0-36.6,12.8-42.5,31c0.8-0.3,1.8-0.5,2.7-0.5
					c2,0,3.9,0.8,5.2,2.2C-963.2,2522.9-960.2,2521.7-957,2521.7z"/>
			</g>
			<g id="XMLID_1811_">
				<path id="XMLID_1812_" class="st1" d="M-947.6,2532l-0.9-1.9c-1.5-3.4-4.9-5.5-8.5-5.5c-2.9,0-5.6,1.3-7.4,3.6l-2.6-1.1
					c3.6-21.8,18.8-37.6,36.1-37.6c17.2,0,32.4,15.8,36,37.5l0.1,0.5l-0.4,0.6l-1.1,1.9l-1.3-1.8c-1.8-2.3-4.5-3.6-7.4-3.6
					c-3.7,0-7,2.2-8.5,5.5l-0.9,1.9l-1.5-1.5c-3.9-3.8-9-6-14.4-6c-0.3,0-0.6,0-0.9,0l0,0l0,0c-0.1,0-0.2,0-0.3,0
					c-0.1,0-0.1,0-0.2,0c-5.4,0-10.6,2.1-14.4,6L-947.6,2532z M-957,2521.7c4.1,0,8,2.1,10.2,5.5c4.2-3.6,9.5-5.5,15.1-5.5
					c0.1,0,0.3,0,0.4,0c0,0,0.1,0,0.1,0c0.3,0,0.6,0,1,0c5.6,0,10.9,1.9,15.1,5.5c2.2-3.4,6.1-5.5,10.2-5.5c2.3,0,4.5,0.6,6.4,1.8
					c-4.5-18.3-17.6-31.1-32.4-31.1c-14.8,0-27.9,12.8-32.4,31.1C-961.4,2522.3-959.3,2521.7-957,2521.7z"/>
			</g>
			<g id="XMLID_1807_">
				<path id="XMLID_1808_" class="st1" d="M-947.6,2532l-0.8-1.9c0,0,0-0.1,0-0.1l-0.2-0.3l0-0.4c1.4-22.6,8.3-39,16.9-39.8
					c0.2,0,0.3,0,0.5,0c0,0,0,0,0,0l0.1,0c0,0,0,0,0,0l0.2,0c0.2,0,0.4,0,0.6,0c0.1,0,0.3,0,0.4,0.1l0,0c0,0,0.1,0,0.1,0l0.7,0.1
					l0,0c8.1,2.2,14.3,17.9,15.6,39.6l0,0.4l-0.2,0.4l-0.8,1.9l-1.5-1.5c-3.9-3.8-9-5.9-14.4-5.9l-0.8,0l-0.8,0
					c-5.4,0-10.5,2.1-14.4,5.9L-947.6,2532z M-931,2492.4L-931,2492.4c-0.2,0-0.3,0-0.4,0c-6.6,0.6-12.5,14.9-14.1,33.8
					c4-2.9,8.8-4.5,13.8-4.5l0.8,0l0.7,0c5,0,9.8,1.6,13.8,4.5c-1.6-18.3-7.3-32.5-13.6-33.8h-0.8l0-0.1
					C-930.9,2492.4-930.9,2492.4-931,2492.4L-931,2492.4z"/>
			</g>
		</g>
		<g id="XMLID_1633_">
			<g id="XMLID_1820_">
				<path id="XMLID_1890_" class="st1" d="M-931.1,2618.2l-2.1-0.6c-12-3.6-28-10.8-28-32.1v-27.9l8.8,1.4c2.2,0.3,4.6,0.3,7-0.2
					c3.7-0.7,7.1-2.3,9-4.1l5.3-5.3l5.3,5.3c1.9,1.9,5.3,3.4,9,4.1c2.4,0.5,4.9,0.5,7,0.2l8.8-1.4v27.9c0,21.3-16,28.5-28,32.1
					L-931.1,2618.2z M-959.2,2560.1v25.4c0,19.9,15.1,26.7,26.5,30.1l1.6,0.5l1.6-0.5c11.4-3.4,26.5-10.2,26.5-30.1v-25.4l-6.4,1
					c-2.4,0.4-5.1,0.3-7.7-0.2c-4.1-0.8-7.9-2.5-10-4.7l-3.9-3.9l-3.9,3.9c-2.2,2.2-5.9,3.9-10,4.7c-2.6,0.5-5.3,0.6-7.7,0.2
					L-959.2,2560.1z"/>
			</g>
			<g id="XMLID_1665_">
				<path id="XMLID_1666_" class="st1" d="M-931.1,2612.3l-0.6-0.2c-21.3-6.3-24-17.5-24-26.6v-21.3l2.3,0.4
					c2.8,0.4,5.9,0.4,8.9-0.2c4.8-0.9,9.2-3,11.9-5.7l1.4-1.4l1.4,1.4c2.7,2.7,7,4.8,11.9,5.7c3.1,0.6,6.1,0.6,8.9,0.2l2.3-0.4v21.3
					c0,17.3-12.8,23.3-24,26.6L-931.1,2612.3z M-953.6,2566.7v18.8c0,8.4,2.6,18.7,22.5,24.6c10.5-3.1,22.5-8.7,22.5-24.6v-18.8
					c-3,0.5-6.3,0.4-9.6-0.2c-5.2-1-9.9-3.2-12.9-6.2c-3,3-7.7,5.2-12.9,6.2C-947.3,2567.1-950.6,2567.2-953.6,2566.7z"/>
			</g>
			<g id="XMLID_1661_">
				<path id="XMLID_1662_" class="st1" d="M-931.1,2599.8c-7.8,0-14.1-6.4-14.1-14.3c0-7.9,6.3-14.3,14.1-14.3
					c7.8,0,14.1,6.4,14.1,14.3C-917,2593.4-923.3,2599.8-931.1,2599.8z M-931.1,2573.3c-6.6,0-12,5.5-12,12.2
					c0,6.7,5.4,12.2,12,12.2c6.6,0,12-5.5,12-12.2C-919.1,2578.8-924.5,2573.3-931.1,2573.3z"/>
			</g>
			<g id="XMLID_1658_">
				<g id="XMLID_1659_">
					<rect id="XMLID_1825_" x="-932" y="2559" class="st1" width="2.1" height="13.5"/>
				</g>
			</g>
			<g id="XMLID_1639_">
				<g id="XMLID_1644_">
					<rect id="XMLID_1649_" x="-932" y="2598.7" class="st1" width="2.1" height="12"/>
				</g>
			</g>
		</g>
	</g>
</g>
</svg>
