<?xml version="1.0" encoding="utf-8"?>
<!-- Generator: Adobe Illustrator 19.0.0, SVG Export Plug-In . SVG Version: 6.00 Build 0)  -->
<svg version="1.1" id="Layer_1" xmlns="http://www.w3.org/2000/svg" xmlns:xlink="http://www.w3.org/1999/xlink" x="0px" y="0px"
	 viewBox="-319 196.7 202.6 202.6" style="enable-background:new -319 196.7 202.6 202.6;" xml:space="preserve">
<style type="text/css">
	.st0{fill:#00B700;}
	.st1{fill:#FFFFFF;}
</style>
<g>
	<g id="XMLID_1957_">
		<g id="XMLID_1529_">
			<circle id="XMLID_1551_" class="st0" cx="-217.7" cy="298" r="101.3"/>
		</g>
	</g>
	<g>
		<g>
			<path class="st1" d="M-272.1,304.6h55.5v-1.9h-55.5v-34.5h-1.9v45c0,0.5,0.4,1,1,1h56.5v-1.9h-1.9v-5.7h-1.9v5.7h-1.9v-3.8h-1.9
				v3.8h-1.9v-2h-1.9v1.9h-1.9v-3.8h-1.9v3.8h-1.9v-5.7h-1.9v5.7h-1.9v-3.8h-1.9v3.8h-1.9v-1.9h-1.9v1.9h-1.9v-3.8h-1.9v3.8h-1.9
				v-5.7h-1.9v5.7h-1.9v-3.8h-1.9v3.8h-1.9v-1.9h-1.9v1.9h-1.9v-3.8h-1.9v3.8h-1.9v-5.7h-1.9v5.7h-1.9v-3.8h-1.9v3.8h-1.9v-7.6
				H-272.1z"/>
			<path class="st1" d="M-264.3,292.7c-0.6-0.4-1.3-0.6-2-0.6c-2.1,0-3.8,1.7-3.8,3.8s1.7,3.8,3.8,3.8c2.1,0,3.8-1.7,3.8-3.8
				c0-0.7-0.2-1.3-0.5-1.8l9-7.4c0.6,0.4,1.3,0.6,2,0.6c1.3,0,2.4-0.6,3.1-1.6l7.4,4.1c0,0.1,0,0.2,0,0.4c0,2.1,1.7,3.8,3.8,3.8
				c2.1,0,3.8-1.7,3.8-3.8c0-0.4-0.1-0.9-0.2-1.3l8.7-7c0.6,0.4,1.3,0.6,2,0.6c2.1,0,3.8-1.7,3.8-3.8s-1.7-3.8-3.8-3.8
				c-2.1,0-3.8,1.7-3.8,3.8c0,0.7,0.2,1.3,0.5,1.8l-8.5,6.8c-0.7-0.6-1.6-1-2.5-1c-1.3,0-2.4,0.6-3.1,1.6l-7.4-4.1
				c0-0.1,0-0.2,0-0.4c0-2.1-1.7-3.8-3.8-3.8s-3.8,1.7-3.8,3.8c0,0.7,0.2,1.3,0.5,1.8L-264.3,292.7z M-223.3,276.8
				c1.1,0,1.9,0.9,1.9,1.9c0,1.1-0.9,1.9-1.9,1.9s-1.9-0.9-1.9-1.9C-225.2,277.7-224.3,276.8-223.3,276.8z M-237.6,288.3
				c1.1,0,1.9,0.9,1.9,1.9s-0.9,1.9-1.9,1.9c-1.1,0-1.9-0.9-1.9-1.9S-238.7,288.3-237.6,288.3z M-266.4,297.9
				c-1.1,0-1.9-0.9-1.9-1.9c0-1.1,0.9-1.9,1.9-1.9s1.9,0.9,1.9,1.9C-264.4,297-265.3,297.9-266.4,297.9z M-252,281.6
				c1.1,0,1.9,0.9,1.9,1.9c0,1.1-0.9,1.9-1.9,1.9s-1.9-0.9-1.9-1.9C-253.9,282.4-253,281.6-252,281.6z"/>
		</g>
		<path class="st1" d="M-160.5,253.9h-114.4c-6.3,0-11.4,4.1-11.4,9.1v69.3c0,5,5.1,9.1,11.4,9.1h42.8l-0.2,0.6h4.7l0.2-0.6h19.4
			l0.2,0.6h4.7l-0.2-0.6h42.8c6.3,0,11.4-4.1,11.4-9.1v-69.2C-149,258-154.2,253.9-160.5,253.9z M-153.6,332.3c0,3-3.1,5.5-6.9,5.5
			h-45.8h-22.9H-275c-3.8,0-6.9-2.5-6.9-5.5V325h128.2L-153.6,332.3L-153.6,332.3z M-153.6,321.4h-128.2v-58.3c0-3,3.1-5.5,6.9-5.5
			h114.4c3.8,0,6.9,2.5,6.9,5.5C-153.6,263.1-153.6,321.4-153.6,321.4z"/>
	</g>
	<rect x="-242.6" y="340.1" class="st1" width="49.7" height="5.4"/>
	<path id="_x34_8_101_" class="st1" d="M-168.1,280c-4.9,0-8.9,3.6-9.5,8.3h-5.8v-5.8c4.7-0.6,8.3-4.7,8.3-9.5
		c0-5.3-4.3-9.6-9.6-9.6c-5.3,0-9.6,4.3-9.6,9.6c0,4.9,3.6,8.9,8.3,9.5v5.8h-5.8c-0.6-4.7-4.7-8.3-9.5-8.3c-5.3,0-9.6,4.3-9.6,9.6
		c0,5.3,4.3,9.6,9.6,9.6c4.9,0,8.9-3.6,9.5-8.3h5.8v5.8c-4.7,0.6-8.3,4.7-8.3,9.5c0,5.3,4.3,9.6,9.6,9.6c5.3,0,9.6-4.3,9.6-9.6
		c0-4.9-3.6-8.9-8.3-9.5v-5.8h5.8c0.6,4.7,4.7,8.3,9.5,8.3c5.3,0,9.6-4.3,9.6-9.6S-162.8,280-168.1,280z M-196.1,294.1
		c-0.1-0.2-0.2-0.3-0.4-0.5c-0.4-0.4-1.1-0.4-1.9-0.5c-0.6,0-1.3-0.1-1.5-0.3c0,0-0.1-0.2-0.1-0.6c0.4-0.2,0.7-0.6,1-1
		c0.4-0.6,0.5-1.5,0.5-2.5c0-0.3,0-0.6-0.1-0.9c-0.2-0.7-0.6-1.3-1.3-1.7c-0.6-0.3-1.3-0.5-1.9-0.4c-0.7,0.1-1.3,0.4-1.7,0.9
		c-0.5,0.5-0.8,1.3-0.8,2.2c0,0.8,0.1,1.6,0.4,2.2c0.2,0.5,0.5,0.9,0.9,1.2c0.1,0.1,0.2,0.1,0.3,0.2c-0.1,0.4-0.1,0.6-0.1,0.6
		c-0.2,0.2-0.9,0.3-1.5,0.3l0,0c-0.7,0-1.5,0.1-1.9,0.5c-0.1,0.1-0.3,0.3-0.4,0.5c-1-1.2-1.7-2.8-1.7-4.5c0-3.9,3.1-7,7-7
		c3.9,0,7,3.1,7,7C-194.4,291.3-195,292.9-196.1,294.1z M-177.8,306.3c0,1.7-0.6,3.3-1.7,4.5c-0.1-0.2-0.2-0.3-0.4-0.5
		c-0.4-0.4-1.1-0.4-1.9-0.5c-0.6,0-1.3-0.1-1.5-0.3c0,0-0.1-0.2-0.1-0.6c0.4-0.2,0.7-0.6,1-1c0.4-0.6,0.5-1.5,0.5-2.5
		c0-0.3,0-0.6-0.1-0.9c-0.2-0.7-0.6-1.3-1.3-1.7c-0.6-0.3-1.3-0.5-1.9-0.4c-0.7,0.1-1.3,0.4-1.7,0.9c-0.5,0.6-0.8,1.3-0.8,2.2
		c0,0.8,0.1,1.6,0.4,2.2c0.2,0.5,0.5,0.9,0.9,1.2c0.1,0.1,0.2,0.1,0.3,0.2c-0.1,0.4-0.1,0.6-0.1,0.6c-0.2,0.2-0.9,0.3-1.5,0.3l0,0
		c-0.7,0-1.5,0.1-1.9,0.5c-0.1,0.1-0.3,0.3-0.4,0.5c-1-1.2-1.7-2.8-1.7-4.5c0-3.9,3.1-7,7-7C-180.9,299.2-177.8,302.4-177.8,306.3z
		 M-185.2,269.1c-0.7,0.1-1.3,0.4-1.7,0.9c-0.5,0.6-0.8,1.3-0.8,2.2c0,0.8,0.1,1.6,0.4,2.2c0.2,0.5,0.5,0.9,0.9,1.2
		c0.1,0.1,0.2,0.1,0.3,0.2c-0.1,0.4-0.1,0.6-0.1,0.6c-0.2,0.2-0.9,0.3-1.5,0.3l0,0c-0.7,0-1.5,0.1-1.9,0.5c-0.1,0.1-0.3,0.3-0.4,0.5
		c-1-1.2-1.7-2.8-1.7-4.5c0-3.9,3.1-7,7-7c3.9,0,7,3.1,7,7c0,1.7-0.6,3.3-1.7,4.5c-0.1-0.2-0.2-0.3-0.4-0.5
		c-0.4-0.4-1.1-0.4-1.9-0.5c-0.6,0-1.3-0.1-1.5-0.3c0,0-0.1-0.2-0.1-0.6c0.4-0.2,0.7-0.6,1-1c0.4-0.6,0.5-1.5,0.5-2.5
		c0-0.3,0-0.6-0.1-0.9c-0.2-0.7-0.6-1.3-1.3-1.7C-183.8,269.1-184.5,269-185.2,269.1z M-162.8,294.1c-0.1-0.2-0.2-0.3-0.4-0.5
		c-0.4-0.4-1.1-0.4-1.9-0.5c-0.6,0-1.3-0.1-1.5-0.3c0,0-0.1-0.2-0.1-0.6c0.4-0.2,0.7-0.6,1-1c0.4-0.6,0.5-1.5,0.5-2.5
		c0-0.3,0-0.6-0.1-0.9c-0.2-0.7-0.6-1.3-1.3-1.7c-0.6-0.3-1.3-0.5-1.9-0.4c-0.7,0.1-1.3,0.4-1.7,0.9c-0.5,0.5-0.8,1.3-0.8,2.2
		c0,0.8,0.1,1.6,0.4,2.2c0.2,0.5,0.5,0.9,0.9,1.2c0.1,0.1,0.2,0.1,0.3,0.2c-0.1,0.4-0.1,0.6-0.1,0.6c-0.2,0.2-0.9,0.3-1.5,0.3l0,0
		c-0.7,0-1.5,0.1-1.9,0.5c-0.1,0.1-0.3,0.3-0.4,0.5c-1-1.2-1.7-2.8-1.7-4.5c0-3.9,3.1-7,7-7s7,3.1,7,7
		C-161.1,291.3-161.8,292.9-162.8,294.1z"/>
</g>
</svg>
