<?xml version="1.0" encoding="utf-8"?>
<!-- Generator: Adobe Illustrator 21.1.0, SVG Export Plug-In . SVG Version: 6.00 Build 0)  -->
<svg version="1.1" id="Ebene_1" xmlns="http://www.w3.org/2000/svg" xmlns:xlink="http://www.w3.org/1999/xlink" x="0px" y="0px"
	 viewBox="0 0 161 58" style="enable-background:new 0 0 161 58;" xml:space="preserve">
<style type="text/css">
	.st0{opacity:0.7;}
	.st1{fill:#FFFFFF;}
</style>
<g class="st0">
	<path class="st1" d="M134.3,56.2c-36.1,0-72.2,0-108.3,0c0-17.8,0-35.7,0-53.5c36.1,0,72.2,0,108.3,0
		C134.3,20.6,134.3,38.4,134.3,56.2z M88.3,41.1c1.6,0,3.1,0,4.6,0c0-0.3-0.1-0.4-0.3-0.5c-0.1,0-0.2-0.1-0.3-0.1
		c-0.3-0.1-0.5-0.3-0.5-0.7c0-0.8-0.1-1.6-0.1-2.3c0-0.9,0-1.8,0-2.7c0-0.8,0.7-1.5,1.4-1.7c0.8-0.2,1.4,0.1,1.7,0.9
		c0.1,0.3,0.1,0.6,0.1,0.9c0,1.5,0,3,0,4.6c0,0.6-0.1,1-0.8,1.1c-0.2,0.1-0.3,0.2-0.3,0.4c1.4,0,2.8,0,4.3,0c0-0.4,0-0.4-0.3-0.5
		c0,0-0.1,0-0.1,0c-0.2,0-0.4-0.2-0.4-0.4c0-0.2-0.1-0.4-0.1-0.6c0-1.5,0-2.9-0.1-4.4c0-0.4,0.1-0.8,0.3-1.1c0.4-0.7,0.9-1,1.7-1
		c0.4,0,0.8,0.1,1,0.6c0.1,0.2,0.2,0.5,0.2,0.8c0,0.6,0.1,1.2,0,1.8c0,1.2,0,2.4,0,3.6c0,0.4-0.2,0.6-0.6,0.7
		c-0.3,0.1-0.4,0.1-0.3,0.5c1.5,0,3.1,0,4.6,0c0-0.3-0.1-0.4-0.4-0.5c-0.7-0.1-1-0.4-1-1.1c0-1,0-2-0.1-3c0-0.9,0-1.8-0.1-2.6
		c-0.1-1.1-1.2-2.1-2.3-2c-0.2,0-0.4,0-0.6,0c-0.3,0-0.6,0.1-0.9,0.2c-0.6,0.2-1,0.7-1.5,1.1c-0.1,0.1-0.2,0.1-0.2,0.2
		c-0.2-0.2-0.3-0.5-0.5-0.7c-0.4-0.6-1-0.9-1.7-0.9c-0.2,0-0.4,0-0.5,0c-0.7,0-1.3,0.2-1.8,0.7c-0.3,0.3-0.6,0.5-0.9,0.8
		c0-0.1,0-0.2,0-0.2c0-0.3,0-0.7,0-1c0-0.3-0.1-0.3-0.3-0.3c-0.2,0-0.4,0.1-0.6,0.1c-0.8,0.1-1.5,0.2-2.3,0.3
		c-0.2,0-0.2,0.1-0.2,0.2c0,0.1,0,0.2,0.2,0.2c0.1,0,0.3,0,0.4,0c0.3,0.1,0.7,0.3,0.7,0.7c0,0.6,0.1,1.2,0.1,1.7
		c0,1.6-0.1,3.1-0.1,4.7c0,0.3-0.2,0.5-0.5,0.6c-0.2,0.1-0.4,0.1-0.6,0.1c-0.2,0-0.2,0.1-0.2,0.2C88.3,41,88.3,41,88.3,41.1z
		 M33.9,28.2c-0.1,0.4,0,0.4,0.3,0.5c0.2,0,0.3,0.1,0.5,0.1c0.5,0.1,0.7,0.3,0.7,0.7c0.1,0.6,0.1,1.1,0.1,1.7c0,2.3,0,4.5,0,6.8
		c0,0.6-0.1,1.2-0.1,1.8c0,0.3-0.2,0.4-0.4,0.5c-0.3,0.1-0.5,0.2-0.8,0.2c-0.3,0.1-0.4,0.1-0.3,0.5c0,0,0.1,0,0.1,0
		c2.6,0,5.3,0.1,7.9,0.1c0.2,0,0.4,0,0.6-0.1c0.1,0,0.2-0.1,0.2-0.2c0.1-0.9,0.2-1.8,0.4-2.7c0-0.1,0-0.2-0.2-0.2
		c-0.1,0-0.3,0-0.4,0c-0.2,0-0.3,0.1-0.3,0.3c0,0,0,0.1,0,0.1c-0.1,0.8-0.6,1.5-1.4,1.6c-0.7,0.1-1.5,0.1-2.3,0.1
		c-0.3,0-0.4-0.2-0.5-0.5c0-0.2-0.1-0.5-0.1-0.8c0-1.3,0-2.6,0-3.9c0-0.1,0-0.1,0-0.2c0.8,0,1.5,0.1,2.3,0.1c0.7,0.1,0.9,0.3,1,1
		c0,0,0,0,0,0.1c0.1,0.5,0.1,0.5,0.6,0.5c0,0,0.1,0,0.1,0c0-1.4,0-2.7,0-4.1c-0.1,0-0.2,0-0.3,0c-0.3,0-0.3,0-0.4,0.3
		c0,0.2-0.1,0.4-0.1,0.6c-0.1,0.4-0.3,0.6-0.7,0.7c-0.8,0.2-1.7,0.1-2.5,0c0-1.6,0-3.2,0-4.7c0,0,0.1,0,0.1,0c0.7,0,1.5,0,2.2,0.1
		c0.6,0,1,0.3,1.1,0.9c0.1,0.2,0.1,0.5,0.1,0.8c0.2,0,0.4,0,0.6-0.1c0-0.9,0-1.8,0-2.7C39.4,28.2,36.7,28.2,33.9,28.2z M75.7,41.1
		c0-0.3,0-0.4-0.3-0.4c-0.2,0-0.3-0.1-0.5-0.1c-0.3-0.1-0.5-0.4-0.5-0.7c0-0.3,0-0.6,0-0.9c0-1.2,0-2.4-0.1-3.6c0-0.6,0-1.2-0.2-1.8
		c-0.4-0.8-0.9-1.4-1.8-1.5c-0.4-0.1-0.9,0-1.4,0c-0.4,0-0.8,0.2-1.1,0.5c-0.3,0.3-0.6,0.6-1,0.9c0,0-0.1,0-0.1,0.1
		c0-0.5-0.1-1-0.1-1.5c-1.1,0.1-2.1,0.3-3.2,0.4c-0.2,0-0.2,0.1-0.2,0.2c0,0.1,0.1,0.2,0.2,0.2c0.1,0,0.3,0,0.4,0
		c0.4,0.1,0.7,0.4,0.7,0.8c0,0.4,0.1,0.9,0.1,1.3c0,1.7,0,3.3-0.1,5c0,0.4-0.3,0.7-0.7,0.8c-0.1,0-0.2,0-0.3,0c-0.3,0-0.3,0-0.3,0.3
		c0,0,0,0.1,0,0.2c0.1,0,0.2,0,0.2,0c1,0,2.1,0,3.1,0c0.4,0,0.8,0,1.2,0c0.1,0,0.2,0,0.2-0.1c0-0.1,0-0.2-0.1-0.2
		c-0.1-0.1-0.3-0.2-0.4-0.2c-0.3-0.1-0.5-0.3-0.5-0.6c0-0.4-0.1-0.8-0.1-1.3c0-1.3,0-2.6,0-3.9c0-0.8,0.8-1.6,1.6-1.7
		c0.9-0.1,1.3,0.2,1.5,0.9c0.1,0.3,0.2,0.7,0.2,1c0.1,1.6,0.1,3.2,0,4.7c0,0.5-0.2,0.7-0.7,0.8c-0.3,0.1-0.3,0.1-0.3,0.5
		C72.7,41.1,74.2,41.1,75.7,41.1z M81,25.1c0-0.3,0-0.4-0.3-0.5c-0.4-0.1-0.6-0.4-0.6-0.8c0-1.4,0-2.9,0-4.3c0-0.9,0.6-1.5,1.4-1.6
		c0.9-0.1,1.3,0.2,1.4,0.9c0.1,0.3,0.1,0.6,0.2,0.9c0.1,1.4,0.1,2.8,0,4.1c0,0.4-0.2,0.7-0.6,0.8c-0.3,0.1-0.3,0.2-0.3,0.5
		c1.4,0,2.8,0,4.1,0c0.1-0.3,0-0.4-0.3-0.4c-0.7-0.1-0.9-0.3-0.9-1c0-0.6-0.1-1.2-0.1-1.9c0-1-0.1-2-0.1-3c0-0.9-0.7-1.8-1.6-2
		c-1-0.2-2,0-2.8,0.7c-0.2,0.1-0.3,0.3-0.5,0.5c0-1.7,0-3.3,0-4.9c-1.1,0.1-2.2,0.3-3.2,0.4c0,0.3,0.2,0.3,0.4,0.4
		c0.6,0.1,0.8,0.4,0.8,1c0,2.2,0,4.4,0,6.6c0,0.8,0,1.7-0.1,2.5c0,0.5-0.2,0.6-0.6,0.6c-0.1,0-0.3,0.1-0.4,0.2c0,0-0.1,0.1-0.1,0.2
		c0,0,0.1,0.1,0.2,0.1c0.2,0,0.3,0,0.5,0C78.7,25.1,79.9,25.1,81,25.1z M54.2,36.6c0.1,0.5,0.1,0.9,0.2,1.4c0.3,1.4,1.1,2.5,2.5,3
		c1,0.4,1.9,0.4,2.9,0.2c1.1-0.2,1.9-0.8,2.5-1.7c0.9-1.4,1-2.8,0.6-4.4c-0.3-1.3-1.1-2.2-2.3-2.8c-1.1-0.5-2.2-0.6-3.3-0.3
		c-1.2,0.3-2,1-2.5,2.1C54.4,34.9,54.2,35.8,54.2,36.6z M81.8,41.3c0.1,0,0.4,0,0.7-0.1c1.4-0.2,2.5-1,3.2-2.3
		c0.6-1.2,0.7-2.4,0.4-3.7c-0.3-1.2-0.9-2.2-2.1-2.9C83,32,82.1,31.8,81,31.9c-1.6,0.2-2.7,1-3.4,2.4c-0.4,1-0.5,2-0.4,3.1
		c0.1,0.9,0.5,1.8,1.1,2.5C79.3,41,80.4,41.3,81.8,41.3z M66.7,16c0.1,0,0.2,0,0.3,0c0.3,0,0.4-0.1,0.4-0.4c0-0.1,0-0.2,0-0.3
		c0-0.5,0.3-0.8,0.8-0.8c0.5-0.1,1-0.1,1.5-0.2c0.3,0,0.6,0,0.9-0.1c0,0.1,0,0.1,0,0.1c0,2.7,0,5.5,0,8.2c0,0.5-0.1,1-0.1,1.4
		c0,0.2-0.2,0.4-0.4,0.5c-0.2,0-0.4,0.1-0.6,0.1c-0.3,0.1-0.4,0.1-0.4,0.5c1.7,0,3.4,0,5.2,0c0-0.5,0-0.5-0.4-0.5c0,0,0,0,0,0
		c-0.5,0-0.9-0.3-0.9-0.8c-0.1-0.4-0.1-0.8-0.1-1.1c0-2.7,0-5.3,0-8c0-0.1,0-0.3,0-0.5c0.8,0.1,1.5,0.2,2.2,0.3
		c0.4,0,0.7,0.3,0.8,0.7c0.1,0.2,0.1,0.4,0.1,0.7c0,0.1,0.1,0.2,0.1,0.2c0.2,0,0.3,0,0.5,0c0-0.9,0-1.7,0-2.6c-3.3,0-6.5,0-9.7,0
		C66.8,14.3,66.8,15.2,66.7,16z M94.6,20.6c0-0.4-0.1-0.7-0.1-1.1c-0.1-0.9-0.6-1.7-1.3-2.2c-0.5-0.4-1.1-0.5-1.7-0.5
		c-1.4,0-2.5,0.4-3.2,1.6c-0.8,1.2-1,2.6-0.7,4c0.2,1.2,0.9,2.1,2,2.6c1.6,0.7,3.4,0.4,4.7-1.1c0.2-0.2,0.2-0.5,0-0.7
		c-0.1,0.1-0.2,0.2-0.4,0.3c-0.4,0.4-0.8,0.7-1.3,0.8c-1.1,0.4-2.1,0-2.6-1c-0.2-0.5-0.4-1-0.5-1.5c-0.1-0.3-0.1-0.7-0.1-1.1
		C91.2,20.6,92.9,20.6,94.6,20.6z M118.2,34.2c0-0.6,0-1.1,0-1.6c0-0.2-0.1-0.3-0.3-0.4c-0.9-0.3-1.8-0.4-2.7-0.3
		c-0.6,0.1-1.2,0.3-1.6,0.8c-0.9,1.1-0.8,3,0.3,3.9c0.5,0.5,1.1,0.9,1.7,1.3c0.4,0.3,0.8,0.6,1,1c0.4,0.7-0.1,1.4-0.6,1.5
		c-0.3,0-0.6,0-0.9,0.1c-0.3,0-0.6-0.1-0.7-0.4c-0.2-0.3-0.3-0.5-0.4-0.8c-0.2-0.4-0.4-0.5-0.8-0.4c-0.1,0-0.2,0.1-0.2,0.2
		c0,0.5,0,1,0,1.4c0,0.1,0.1,0.2,0.2,0.3c0.2,0.1,0.4,0.1,0.6,0.2c0.8,0.2,1.6,0.4,2.5,0.1c1.5-0.4,2.4-1.5,2.2-3.3
		c-0.1-0.5-0.3-0.9-0.7-1.2c-0.6-0.5-1.3-1-1.9-1.5c-0.3-0.3-0.7-0.5-1-0.8c-0.4-0.3-0.4-1.1-0.1-1.4c0.7-0.8,2-0.6,2.3,0.4
		c0.1,0.2,0.1,0.4,0.2,0.6c0,0.1,0.1,0.2,0.2,0.2C117.8,34.2,118,34.2,118.2,34.2z M125.9,32.3c-0.8,0-1.5,0-2.3,0
		c0-0.8,0-1.6,0-2.4c-0.3,0-0.6,0-0.9,0c-0.1,0.3-0.2,0.7-0.3,1c-0.3,0.9-0.9,1.5-1.9,1.5c-0.1,0-0.1,0.1-0.1,0.2c0,0.2,0,0.5,0,0.8
		c0.4,0,0.7,0,1.1,0c0,0.1,0,0.2,0,0.3c0,1.5,0,3,0.1,4.5c0,0.6,0.1,1.1,0.2,1.7c0.1,0.9,1.2,1.7,2.1,1.6c0.1,0,0.3,0,0.4,0
		c0.6,0,1.1-0.1,1.6-0.4c0.3-0.1,0.3-0.4,0.2-0.6c-0.3,0-0.7,0.1-1,0.1c-0.5,0-0.8-0.1-1.1-0.5c-0.2-0.3-0.3-0.6-0.3-0.9
		c0-1.8-0.1-3.6-0.1-5.5c0-0.1,0-0.1,0-0.2c0.1,0,0.2,0,0.2,0c0.5,0,1.1,0,1.6,0c0.1,0,0.2,0,0.2-0.1
		C125.7,32.9,125.8,32.6,125.9,32.3z M52.1,39.1c-0.1,0.1-0.2,0.3-0.4,0.4c-0.3,0.2-0.6,0.5-1,0.6c-1,0.4-1.9,0.1-2.5-0.8
		c-0.1-0.2-0.2-0.5-0.3-0.7c-0.3-1-0.4-2-0.3-3c0-0.6,0.1-1.2,0.3-1.8c0.3-0.7,0.7-1.1,1.5-1.1c0.8-0.1,1.3,0.1,1.5,0.9
		c0.1,0.2,0.2,0.5,0.2,0.7c0.1,0.3,0.1,0.3,0.4,0.3c0.1,0,0.1,0,0.2,0c0.2,0,0.3-0.1,0.3-0.3c0-0.6,0-1.2,0-1.8
		c0-0.1-0.1-0.1-0.1-0.2c-0.8-0.2-1.7-0.4-2.6-0.3c-1.7,0.1-2.9,0.8-3.5,2.3c-0.6,1.5-0.6,3.1-0.1,4.6c0.6,1.8,2.3,2.7,4.1,2.4
		c1-0.1,1.7-0.7,2.4-1.4c0,0,0-0.1,0-0.2C52.2,39.6,52.2,39.4,52.1,39.1z M109.3,31.9c-1.1,0.1-2.2,0.3-3.3,0.4
		c-0.1,0-0.1,0.1-0.2,0.1c0,0.1,0.1,0.2,0.1,0.3c0.1,0.1,0.3,0.1,0.4,0.1c0.5,0.1,0.7,0.3,0.8,0.8c0,0.1,0,0.3,0,0.4
		c0.1,1.6,0.1,3.3,0,4.9c0,0.4-0.1,0.7-0.1,1.1c0,0.3-0.2,0.5-0.6,0.5c-0.1,0-0.3,0-0.4,0.1c-0.1,0-0.2,0.1-0.3,0.2
		c-0.1,0.1,0,0.2,0.1,0.2c0.2,0,0.3,0,0.5,0c1.3,0,2.6,0,4,0c0.1,0,0.3,0,0.4,0c0-0.2-0.1-0.4-0.3-0.4c-0.1,0-0.2,0-0.3,0
		c-0.4-0.1-0.6-0.2-0.7-0.6c-0.1-0.4-0.1-0.9-0.1-1.3c0-2.2,0-4.4-0.1-6.6C109.3,32,109.3,31.9,109.3,31.9z M107,28.9
		c0,0.7,0.5,1.2,1.2,1.2c0.7,0,1.2-0.5,1.2-1.2c0-0.7-0.5-1.3-1.2-1.3C107.6,27.6,107,28.2,107,28.9z"/>
	<path class="st1" d="M56.5,35.9c0.1-0.5,0.1-1.2,0.2-1.8c0.1-0.3,0.3-0.6,0.5-0.9c0.6-0.7,1.6-0.8,2.4-0.1c0.6,0.5,0.9,1.2,1.1,1.9
		c0.3,1.4,0.4,2.8,0,4.2c-0.1,0.4-0.3,0.8-0.7,1.1c-0.7,0.6-1.8,0.5-2.5-0.3c-0.5-0.6-0.7-1.3-0.8-2C56.6,37.3,56.5,36.7,56.5,35.9z
		"/>
	<path class="st1" d="M83.9,37.1c0,0.9-0.1,1.7-0.4,2.4c-0.2,0.5-0.6,1-1.2,1.1c-0.8,0.2-1.5-0.1-2-0.8c-0.4-0.6-0.6-1.3-0.7-2.1
		c-0.2-1-0.2-2.1,0-3.1c0.1-0.5,0.2-1,0.5-1.4c0.5-0.7,1.5-0.7,2.1-0.4c0.5,0.3,0.9,0.8,1.1,1.3c0.3,0.7,0.4,1.4,0.5,2.1
		C83.9,36.5,83.9,36.8,83.9,37.1z"/>
	<path class="st1" d="M92.7,19.7c-1.1,0.2-2.2,0.2-3.4,0.2c0.1-0.5,0.2-1,0.4-1.4c0-0.1,0.1-0.3,0.2-0.4c0.6-1,1.9-0.8,2.4,0
		C92.5,18.6,92.7,19.1,92.7,19.7z"/>
</g>
</svg>
