<?xml version="1.0" encoding="utf-8"?>
<!-- Generator: Adobe Illustrator 21.1.0, SVG Export Plug-In . SVG Version: 6.00 Build 0)  -->
<svg version="1.1" id="Ebene_1" xmlns="http://www.w3.org/2000/svg" xmlns:xlink="http://www.w3.org/1999/xlink" x="0px" y="0px"
	 viewBox="0 0 220.9 58" style="enable-background:new 0 0 220.9 58;" xml:space="preserve">
<style type="text/css">
	.st0{opacity:0.7;}
	.st1{fill:#FFFFFF;}
</style>
<g class="st0">
	<path class="st1" d="M47.1,19.4c2.2,0,4.3,0,6.5,0c-1.2,6.7-2.3,13.4-3.5,20.1c-2.2,0-4.4,0-6.5,0c0.4-2.5,0.9-5,1.3-7.5
		c-1.9,0-3.8,0-5.7,0c-0.4,2.5-0.9,5-1.3,7.5c-2.2,0-4.3,0-6.5,0c1.2-6.7,2.3-13.4,3.5-20.1c2.2,0,4.3,0,6.5,0
		c-0.4,2.4-0.8,4.7-1.3,7.2c0.4,0,0.7,0,1,0c1.4,0,2.8,0,4.2,0c0.3,0,0.5,0,0.6-0.4C46.3,24,46.7,21.7,47.1,19.4z"/>
	<path class="st1" d="M140.6,40c-2.2,0-4.2-0.4-6-1.7c-1.8-1.3-2.7-3.1-3-5.3c-0.3-2.8,0-5.6,1.2-8.2c1.6-3.4,4.3-5.1,8-5.7
		c1.9-0.3,3.9-0.2,5.8,0.4c3,0.9,5,3.4,5.3,6.5c0.3,3.3-0.1,6.5-1.9,9.4c-1.7,2.6-4.2,3.9-7.2,4.4C142,39.9,141.3,39.9,140.6,40z
		 M145.2,27.7c0-0.3,0-0.5,0-0.8c-0.1-1.5-0.9-2.4-2.2-2.7c-1.3-0.3-2.7,0.4-3.4,1.8c-1,1.9-1.4,3.9-1.3,5.9c0.1,1.5,0.8,2.5,2,2.8
		c1.6,0.4,3.1-0.4,3.8-2.1C144.8,31,145.1,29.4,145.2,27.7z"/>
	<path class="st1" d="M63.9,19.4c-0.3,1.7-0.6,3.3-0.9,4.9c-0.4,2.4-0.8,4.9-1.3,7.4c0,0.2,0,0.4,0,0.6c0,1.5,0.5,2.4,1.7,2.5
		c1.4,0.2,2.7,0,3.2-1.6c0.5-1.5,0.8-3.1,1.1-4.6c0.6-2.9,1-5.9,1.6-8.9c0-0.2,0.3-0.4,0.4-0.4c2,0,4.1,0,6.2,0
		c-0.2,1.3-0.4,2.5-0.6,3.7c-0.5,3.1-1.1,6.2-1.6,9.3c-0.3,1.7-0.8,3.3-1.9,4.6c-1.1,1.4-2.6,2.2-4.3,2.6c-2.5,0.5-5,0.6-7.5,0
		c-3.9-1-5.3-3.9-4.9-7.4c0.6-4.1,1.4-8.3,2.1-12.4c0-0.1,0.3-0.3,0.5-0.4C59.8,19.4,61.8,19.4,63.9,19.4z"/>
	<path class="st1" d="M117.2,39.5c-2.2,0-4.4,0-6.5,0c0.6-3.5,1.2-7,1.8-10.5c0.5-3,1.1-6.1,1.6-9.1c0.1-0.4,0.2-0.5,0.6-0.5
		c2.8,0,5.6,0,8.5,0c0.9,0,1.9,0.2,2.8,0.5c2.6,0.8,4.1,2.6,4.1,5.3c0,1.3-0.1,2.7-0.5,4c-0.9,2.9-3,4.5-6,4.9
		c-1.6,0.2-3.2,0.2-4.9,0.2c-0.4,0-0.6,0.1-0.7,0.6c-0.2,1.3-0.5,2.7-0.7,4C117.3,39.1,117.3,39.3,117.2,39.5z M119,29.4
		c0.8,0,1.6,0.1,2.4,0c0.5-0.1,1.1-0.3,1.6-0.6c0.9-0.6,1.1-1.6,0.9-2.6c-0.1-0.8-0.7-1.4-1.5-1.5c-0.7-0.1-1.5-0.1-2.2-0.1
		c-0.1,0-0.3,0.2-0.3,0.4C119.5,26.5,119.3,27.9,119,29.4z"/>
	<path class="st1" d="M157.9,33.7c0.7,1.2,1.7,1.8,3,1.6c0.7-0.1,1.2-0.5,1.3-1.1c0.1-0.6-0.1-1.2-0.8-1.5c-0.6-0.3-1.3-0.4-1.9-0.7
		c-2.2-0.7-4.1-1.9-4.7-4.3c-0.9-3.8,0.9-7.5,5.1-8.4c2.4-0.5,4.7-0.6,7.1,0.2c1.8,0.6,3,1.8,3.5,3.7c-0.5,0.1-0.9,0.3-1.4,0.4
		c-1.3,0.4-2.6,0.7-3.9,1.1c-0.3,0.1-0.5,0-0.7-0.2c-0.6-0.8-1.4-1.1-2.4-0.9c-0.6,0.2-1.1,0.6-1.1,1.2c0,0.6,0.3,1,0.8,1.2
		c0.8,0.3,1.6,0.6,2.5,0.9c1.2,0.4,2.4,1,3.3,1.9c1.2,1.2,1.7,2.7,1.5,4.4c-0.3,3.6-1.9,5.5-5.4,6.3c-2.6,0.6-5.2,0.6-7.8-0.3
		c-1.8-0.7-3.1-1.9-3.6-4C154.2,34.8,156,34.3,157.9,33.7z"/>
	<path class="st1" d="M110.3,24.8c-2.4,0-4.7,0-7.1,0c-0.5,0-0.7,0.1-0.8,0.7c-0.1,1-0.3,2-0.5,3.1c1.8,0,3.6,0,5.5,0
		c-0.3,1.7-0.6,3.4-0.9,5.1c-1.7,0-3.3,0-4.9,0c-0.5,0-0.7,0.1-0.7,0.6c-0.3,1.8-0.6,3.5-0.9,5.3c-2.2,0-4.3,0-6.5,0
		c1.2-6.7,2.3-13.4,3.5-20.1c4.8,0,9.5,0,14.3,0C110.9,21.2,110.6,23,110.3,24.8z"/>
	<path class="st1" d="M94,19.4c-0.3,1.8-0.6,3.6-0.9,5.4c-1.7,0-3.3,0-5,0c-0.6,0-1.1,0-1.7,0c-1.1,0-1.1,0-1.3,1.1
		c-0.1,0.9-0.3,1.7-0.4,2.7c1.8,0,3.6,0,5.5,0c-0.3,1.7-0.6,3.4-0.9,5.1c-1.6,0-3.2,0-4.7,0c-0.6,0-0.8,0.1-0.9,0.8
		c-0.2,1.7-0.6,3.4-0.9,5.1c-2.1,0-4.3,0-6.5,0c1.2-6.7,2.3-13.4,3.5-20.1C84.5,19.4,89.2,19.4,94,19.4z"/>
	<path class="st1" d="M200.2,29.5c0,3.1,0,6.2,0,9.3c0,0.9-0.1,1-1,1c-1.4,0-2.9,0-4.3,0c-1.7,0-3.3,0-5,0c-0.9,0-1-0.1-0.8-1
		c0.6-3.1,1.1-6.2,1.7-9.3c0.4-2.2,0.8-4.4,1.2-6.6c0.2-1,0.4-2.1,0.5-3.1c0.1-0.5,0.5-0.7,0.9-0.7c1.4,0,2.8,0.1,4.2,0.1
		c0.7,0,1.4,0,2.1,0c0.5,0,0.7,0.2,0.7,0.7C200.2,23.1,200.2,26.3,200.2,29.5z"/>
	<path class="st1" d="M20.2,29.4c0-3.1,0-6.2,0-9.3c0-0.8,0.1-0.8,0.9-0.8c3.2,0,6.3,0,9.5,0c0.8,0,0.9,0.2,0.8,1
		c-0.4,2.2-0.8,4.3-1.1,6.5c-0.3,1.8-0.7,3.5-1,5.3c-0.3,1.8-0.6,3.6-0.9,5.4C28.2,38,28,38.5,28,39.1c0,0.6-0.5,0.7-0.9,0.7
		c-1.8,0-3.5,0-5.3,0c-0.3,0-0.7,0-1,0c-0.5-0.1-0.6-0.4-0.6-0.8c0-1.3,0-2.5,0-3.8C20.2,33.2,20.2,31.3,20.2,29.4z"/>
	<path class="st1" d="M189.8,19.4c-0.3,1.8-0.6,3.5-0.9,5.3c-1.6,0-3.2,0-4.9,0c-0.9,4.9-1.7,9.8-2.6,14.7c-2.2,0-4.3,0-6.5,0
		c0.8-4.9,1.7-9.7,2.6-14.7c-1.7,0-3.5,0-5.2,0c0.3-1.8,0.6-3.6,0.9-5.4C178.6,19.4,184.2,19.4,189.8,19.4z"/>
</g>
</svg>
