<?xml version="1.0" encoding="utf-8"?>
<!-- Generator: Adobe Illustrator 21.1.0, SVG Export Plug-In . SVG Version: 6.00 Build 0)  -->
<svg version="1.1" id="Ebene_1" xmlns="http://www.w3.org/2000/svg" xmlns:xlink="http://www.w3.org/1999/xlink" x="0px" y="0px"
	 viewBox="0 0 181.6 58" style="enable-background:new 0 0 181.6 58;" xml:space="preserve">
<style type="text/css">
	.st0{opacity:0.7;}
	.st1{fill:#FFFFFF;}
</style>
<g id="HqrPAw_1_" class="st0">
	<path class="st1" d="M63,56.7c-1.9,0-3.7,0-5.6,0c0-1.5,0-3,0-4.4c0-0.7,0-1.3,0-2c0-1.6-0.1-1.6-1.8-1.5c0,1.7,0,3.4,0,5.2
		c0.3,0,0.6,0.1,0.9,0.1c0,0.8,0,1.6,0,2.5c-1.8,0-3.7,0-5.7,0c0-2.1,0-4.2,0-6.3c0-1.6-0.1-1.7-1.9-1.6c0,1.7,0,3.4,0,5.2
		c0.2,0,0.5,0.1,0.8,0.1c0,0.8,0,1.6,0,2.5c-4.5,0-9.1,0-13.7,0c0-0.8,0-1.6,0-2.5c0.8,0,1-0.6,1-1.4c-0.1-1.1-0.1-2.2,0-3.3
		c0-0.8-0.1-1.4-1.1-1.3c0-0.9,0-1.8,0-2.8c1.7,0,3.4,0,5.1,0c0.7,0,0.7,0.6,0.7,1.2c0,2.1,0.1,4.2,0,6.3c0,1,0.5,1.3,1.2,1.3
		c0.7,0,1.3-0.3,1.2-1.2c-0.1-1.1-0.1-2.3,0-3.5c0-0.8-0.1-1.3-1.1-1.3c0-0.9,0-1.8,0-2.8c1.6,0,3.2-0.1,4.8,0.1c0.4,0,0.7,0.8,1,1
		c1.1-0.4,2.2-1,3.4-1.2c1.3-0.2,2.6,0.2,3.1,1.7c1.2-1.2,2.5-1.9,4.2-1.8c1.6,0.1,2.5,1,2.5,2.6c0,1.7,0,3.4,0,5.1
		c0,0.4,0.4,0.8,0.6,1.2c0.1,0.2,0.2,0.3,0.2,0.5C63,55.2,63,55.9,63,56.7z"/>
	<path class="st1" d="M92.5,33c1.2,0,2.3-0.3,3.2,0.6c0.4,0.3,1.2,0.3,1.8,0.3c0.2,0,0.4-0.4,0.7-0.6c-0.2-0.2-0.4-0.5-0.6-0.5
		c-0.8-0.2-1.7-0.2-2.5-0.4c-1.6-0.4-2.4-1.4-2.5-3c-0.1-1.8,0.5-3.1,2-3.7c2.4-1,4.8-0.7,7.3-0.1c0.2,0,0.4,0.4,0.4,0.7
		c0.1,0.8,0,1.5,0,2.4c-1-0.1-2,0.3-3-0.4c-0.4-0.3-1.1-0.3-1.7-0.3c-0.3,0-0.5,0.3-0.8,0.5c0.2,0.2,0.4,0.5,0.7,0.6
		c0.4,0.1,0.8,0.1,1.3,0.2c3.2,0.5,3.5,0.8,4,3.8c0.7,0,1.4,0,2.2,0c0.3,0,0.6,0.2,0.9,0.3c0.7,0.2,1.3,0.5,2,0.6
		c0.3,0,0.6-0.4,0.9-0.6c-0.3-0.2-0.5-0.5-0.8-0.6c-0.7-0.2-1.5-0.2-2.2-0.4c-1.7-0.4-2.5-1.4-2.6-2.9c-0.1-2.1,0.6-3.3,2.2-3.9
		c2.3-0.8,4.7-0.5,7,0c0.2,0,0.4,0.3,0.4,0.5c0,0.8,0,1.6,0,2.5c-1.1-0.1-2.2,0.3-3.2-0.5c-0.4-0.3-1.1-0.3-1.6-0.2
		c-0.2,0-0.5,0.3-0.7,0.5c0.2,0.2,0.4,0.4,0.7,0.5c0.8,0.2,1.7,0.3,2.5,0.4c1.8,0.4,2.6,1.3,2.7,3c0.1,2-0.6,3.4-2.3,3.9
		c-2.4,0.8-4.9,0.6-7.4,0c-0.2,0-0.4-0.5-0.4-0.7c-0.1-0.7,0-1.4,0-2.4c-0.2,0.3-0.3,0.4-0.4,0.5c-0.3,2-1.7,2.9-3.5,3
		c-1.9,0.1-3.7-0.1-5.6-0.2c-0.7,0-1.1-0.4-1-1.1C92.6,34.6,92.5,33.8,92.5,33z"/>
	<path class="st1" d="M21.7,36.4c0-0.8,0-1.6,0-2.5c1.1,0.1,1.2-0.7,1.2-1.6c0-2.2,0-4.5,0-6.7c0-0.8-0.1-1.5-1.2-1.4
		c0-0.9,0-1.8,0-2.7c2.1,0,4.2,0,6.2,0c1.3,0,2.7,0.1,4,0.3c2.4,0.5,3.6,2.4,3,4.6c-0.3,1.3-1.4,1.7-2.6,2.2
		c0.3,0.1,0.5,0.2,0.7,0.3c1.3,0.4,2.2,1.3,2.4,2.7c0.2,1.5-0.1,2.8-1.4,3.6c-0.9,0.5-1.9,1.1-2.9,1.1C28,36.5,24.9,36.4,21.7,36.4z
		 M27.8,33.7c0.9-0.1,1.9,0.3,2.3-0.7c0.2-0.6,0.2-1.5-0.1-2.1c-0.4-0.9-1.4-0.6-2.2-0.5C27.8,31.4,27.8,32.5,27.8,33.7z M27.8,27.6
		c1.8,0.1,2.4-0.4,2.3-1.7c0-1.1-0.7-1.5-2.3-1.4C27.8,25.5,27.8,26.5,27.8,27.6z"/>
	<path class="st1" d="M113.1,13.8c0,1,0,1.8,0,2.7c-2.2,0-4.4,0-6.6,0c-0.6,0-1.2,0.1-1.7,0.1c-0.9,0-1.8,0.1-2.6,0
		c-2-0.3-2.7-1.2-2.8-3.2c0-1.7,0-3.5,0-5.3c-0.4-0.1-0.7-0.1-1-0.2c0-0.9,0-1.8,0-2.8c0.3,0,0.6-0.1,1-0.1c0-0.9,0-1.9,0-2.8
		c1.6,0,3.1,0,4.7,0c0,0.9,0,1.8,0,2.9c0.7,0,1.2,0,1.9,0c0,1,0,1.9,0,2.9c-0.6,0-1.1,0.1-1.8,0.1c0,1.7-0.1,3.3,0,4.9
		c0.1,1.1,1.2,0.7,1.8,0.8c1,0.2,1.3-0.2,1.4-1.2c0-1.1,0-2.2,0-3.3c0-0.8,0-1.5-1.1-1.3c0-1,0-1.9,0-2.9c1.7,0,3.4-0.1,5.1,0.1
		c0.3,0,0.7,0.8,0.7,1.2c0.1,2.1,0.1,4.1,0,6.2C112,13.4,112.2,13.9,113.1,13.8z"/>
	<path class="st1" d="M21.7,41.8c4.7,0,9.3,0,13.9,0c0,1.9,0,3.7,0,5.6c-0.9,0-1.7,0-2.5,0c-0.2,0-0.5-0.4-0.5-0.7
		c-0.1-0.6-0.2-1.3-0.3-2c-0.4,0-0.7,0-1.2,0c0,2.9,0,5.8,0,8.6c0,0.3,0.6,0.7,1,1c0.1-0.1,0.2-0.1,0.2-0.2c0,0.8,0,1.6,0,2.5
		c-2.5,0-5,0-7.6,0c0-0.8,0-1.7,0-2.6c1.2,0.2,1.3-0.5,1.2-1.4c0-2.6,0-5.3,0-8c-0.4,0-0.7,0-1.1-0.1c-0.1,0.9-0.3,1.8-0.4,2.7
		c-1,0-1.9,0-2.9,0C21.7,45.5,21.7,43.6,21.7,41.8z"/>
	<path class="st1" d="M35.4,13.7c0.4,0,0.8,0.1,1.2,0.1c0,0.9,0,1.7,0,2.6c-2.3,0-4.6,0-6.9,0c0-0.8,0-1.6,0-2.6c1,0,1-0.7,1-1.5
		c0-1,0-2,0-3.1c0-0.8,0-1.5-1.1-1.3c0-1,0-1.9,0-2.9c1.6,0,3.2-0.1,4.8,0.1c0.4,0,0.7,0.7,1.1,1.2c1-0.9,2.3-1.5,3.9-1.4
		c1.9,0,2.8,0.9,2.8,2.8c0,1.6,0,3.2,0,4.8c0,0.7,0.1,1.3,0.9,1.3c0,0.9,0,1.7,0,2.6c-1.8,0-3.6,0-5.6,0c0-0.8,0-1.7,0-2.5
		c0-1.2,0-2.5,0-3.7c0-1.7-0.4-2-2.2-1.6C35.4,10.3,35.4,11.9,35.4,13.7z"/>
	<path class="st1" d="M72.6,13.8c1,0.1,1-0.6,1-1.3c0-1.1,0-2.2,0-3.3c0-0.7,0-1.4-1.1-1.2c0-1,0-1.9,0-2.9c1.6,0,3.2-0.1,4.8,0.1
		c0.4,0,0.8,0.7,1.2,1.2c1-0.9,2.3-1.5,3.9-1.4c1.8,0.1,2.7,1,2.7,2.7c0,1.7,0,3.4,0,5c0,0.4,0.4,0.7,0.6,1.1
		c0.1,0.1,0.3,0.3,0.3,0.4c0,0.7,0,1.5,0,2.3c-1.9,0-3.6,0-5.5,0c0-0.3-0.1-0.7-0.1-1c0-1.7,0-3.4,0-5.1c0-1.8-0.3-2-2.2-1.8
		c0,1.7,0,3.4,0,5.2c0.4,0,0.7,0.1,1.2,0.1c0,0.9,0,1.7,0,2.6c-2.3,0-4.6,0-6.9,0C72.6,15.6,72.6,14.7,72.6,13.8z"/>
	<path class="st1" d="M134.1,16.5c0-1.6,0-3.2,0-4.8c0-0.4,0-0.9,0-1.3c0-1.8-0.2-2-2.2-1.8c0,1.7,0,3.4,0,5.2
		c0.4,0,0.8,0.1,1.2,0.1c0,0.9,0,1.7,0,2.6c-2.3,0-4.6,0-7,0c0-0.9,0-1.7,0-2.6c1,0.2,1-0.5,1-1.3c0-1.1,0-2.2,0-3.4
		c0-0.7-0.1-1.3-1.1-1.1c0-1,0-1.9,0-2.9c1.6,0,3.2-0.1,4.8,0.1c0.4,0,0.8,0.7,1.2,1.2c1-0.8,2.4-1.5,4-1.4c1.7,0.1,2.6,1,2.6,2.7
		c0,1.6,0,3.3,0,4.9c0,0.3,0,0.8,0.2,0.9c1.4,0.7,0.4,1.9,0.8,3C137.8,16.5,136,16.5,134.1,16.5z"/>
	<path class="st1" d="M74.8,36.5c0-2.1,0-4.1,0-6.1c0-1.8-0.2-2-2.1-1.7c0,1.7,0,3.4,0,5.2c0.4,0,0.7,0.1,1.1,0.1c0,0.8,0,1.6,0,2.5
		c-2.3,0-4.6,0-6.9,0c0-0.8,0-1.6,0-2.5c0.9,0.1,1-0.5,1-1.2c0-1.1,0-2.3,0-3.5c0-0.7-0.2-1.2-1-1.2c0-0.9,0-1.8,0-2.8
		c1.6,0,3.2-0.1,4.8,0.1c0.4,0,0.8,0.7,1,1c1-0.4,2-1,3.1-1.2c2.4-0.5,3.7,0.7,3.7,3.1c0,1.5,0,3.1,0,4.6c0,0.4,0.4,0.7,0.6,1.1
		c0.1,0.2,0.3,0.3,0.3,0.5c0,0.7,0,1.4,0,2.1C78.5,36.5,76.7,36.5,74.8,36.5z"/>
	<path class="st1" d="M43.1,35.3c-1.2,1.2-2.7,1.6-4.5,1.4c-1.4-0.2-2.1-1-2.2-2.5c0-1.6,0-3.2,0-4.7c0-0.8-0.1-1.4-1-1.5
		c0-0.9,0-1.7,0-2.7c0.9,0,1.9,0,2.8,0c0.9,0,1.8,0,2.9,0c0,0.5,0,0.9,0,1.4c0,1.6,0,3.3,0,4.9c0,1.7,0.3,2,2.2,1.6
		c0-0.8,0-1.7,0-2.5c0-0.8,0-1.6,0-2.5c-0.4-0.1-0.7-0.2-1.1-0.2c0-0.9,0-1.8,0-2.7c1.9,0,3.8,0,5.8,0c0,1.7,0,3.3,0,4.9
		c0,0.9,0,1.7,0,2.6c0,0.7,0,1.2,1,1.1c0,0.9,0,1.7,0,2.6c-1.6,0-3.2,0.1-4.8-0.1C43.8,36.5,43.5,35.8,43.1,35.3z"/>
	<path class="st1" d="M92.7,9.7c0.1-1.1-0.1-1.5-1.3-1.4c-0.5,0-1.1,0.2-1.6,0.3c-0.8,0.2-1.7,0.4-2.6,0.6c0-1.2,0-2.1,0-3
		c0-0.2,0.3-0.5,0.5-0.6c2.3-0.6,4.7-0.9,7.1-0.4c1.8,0.4,2.7,1.5,2.7,3.5c0,1.3,0,2.7,0,4c0,0.5,0,0.9,0.6,1.2
		c0.5,0.2,0.3,2.2-0.2,2.5c-1.6,0.7-3.6,0.5-4.9-0.8c-1.1,1-2.5,1.2-3.9,1c-1.5-0.2-2.6-1.2-2.8-2.7c-0.2-1.8,0.5-3.2,2-3.6
		C89.8,9.9,91.2,9.8,92.7,9.7z M92.8,12.9c0.1-0.6,0-1.1-0.7-1.1c-0.7,0-1.2,0.3-1.2,1.1c0,0.6,0.3,1,0.9,1
		C92.5,13.9,92.9,13.7,92.8,12.9z"/>
	<path class="st1" d="M146.2,9.8c0.1-1.3-0.1-1.6-1.3-1.6c-0.5,0-1.1,0.2-1.6,0.3c-0.8,0.2-1.7,0.4-2.6,0.6c0-1.2,0-2.1,0-3
		c0-0.2,0.3-0.5,0.5-0.6c2.3-0.6,4.7-0.9,7.1-0.4c1.8,0.4,2.7,1.5,2.7,3.4c0,1.3,0,2.7,0,4c0,0.5,0,0.9,0.6,1.2
		c0.5,0.2,0.3,2.2-0.2,2.5c-1.6,0.7-3.6,0.5-4.9-0.8c-1.1,1-2.5,1.2-3.9,1c-1.5-0.2-2.6-1.2-2.8-2.7c-0.2-1.7,0.5-3.1,2-3.7
		c0.7-0.2,1.4-0.3,2.1-0.4C144.7,9.8,145.4,9.8,146.2,9.8z M146.3,12.7c0.2-0.6-0.1-0.9-0.8-0.9c-0.7,0-1.1,0.3-1.1,1.1
		c0,0.7,0.3,1.1,1,1C146.1,13.9,146.4,13.5,146.3,12.7z"/>
	<path class="st1" d="M113.2,10.4c0-3.3,3-5.8,7-5.4c4.1,0.3,6.5,3.7,5.4,7.7c-0.4,1.4-1.2,2.4-2.4,3.1c-2.4,1.3-4.9,1.3-7.3,0.1
		C114,14.8,113.2,13,113.2,10.4z M117.9,10.9c0.2,0.7,0.2,1.5,0.5,2.1c0.2,0.4,0.8,0.8,1.2,0.8c0.4,0,1-0.4,1.2-0.8
		c0.6-1.3,0.6-2.7,0-4.1c-0.2-0.4-0.8-0.8-1.2-0.8c-0.4,0-1,0.4-1.2,0.8C118.1,9.5,118,10.2,117.9,10.9z"/>
	<path class="st1" d="M74.4,53.1c0,0.9,0,1.6,0,2.4c0,0.2-0.3,0.6-0.5,0.7c-2.5,0.9-5.1,1.1-7.7,0.2c-1.9-0.6-2.8-2.2-3-4.1
		c-0.3-2.4,0.1-4.6,2.2-6c2.3-1.5,4.7-1.5,7.1-0.4c0.8,0.4,1.5,1.2,1.8,2c0.5,1.3,0.5,2.7,0.8,4.2c-2.6,0-4.8,0-7.1,0
		c-0.1,0.8,0.2,1.6,0.8,1.7c0.8,0.2,1.9,0.3,2.4-0.1C72.2,52.9,73.2,53.1,74.4,53.1z M70.4,49.7c-0.1-0.9-0.1-1.7-1.2-1.8
		c-0.8-0.1-1.2,0.5-1.3,1.8C68.7,49.7,69.5,49.7,70.4,49.7z"/>
	<path class="st1" d="M91.8,33c0,0.8,0.1,1.6,0,2.3c0,0.3-0.4,0.6-0.6,0.7c-2.4,0.9-5,1.1-7.4,0.3c-2.5-0.8-3.7-3.4-3.2-6.4
		c0.6-3.6,3.5-5.4,7.4-4.9c3.8,0.6,4.5,3.4,4.3,6.4c0,0.2-0.5,0.5-0.7,0.5c-1.7,0-3.5,0-5.2,0c-0.3,0-0.7,0-1,0
		c0.2,1.9,1.7,2.7,3.2,1.7C89.6,32.9,90.6,33,91.8,33z M87.8,29.7c0-1.3-0.3-1.9-1.1-1.9c-0.9,0-1.3,0.6-1.3,1.9
		C86.2,29.7,86.9,29.7,87.8,29.7z"/>
	<path class="st1" d="M62.5,11.8c-2.2,0-4.5,0-7.1,0c0.5,0.7,0.7,1.6,1.1,1.7c0.8,0.2,1.9,0.3,2.5-0.1c1.1-0.7,2-0.5,3.2-0.5
		c0,0.8,0,1.6,0,2.4c0,0.2-0.3,0.5-0.5,0.6c-2.5,0.9-5.1,1.1-7.7,0.2c-0.8-0.3-1.6-0.8-2-1.5c-1.4-2.1-1.4-4.4-0.4-6.7
		c1-2.1,2.9-2.9,5.1-3c0.5,0,1,0,1.5,0C61.2,5.3,63.1,7.3,62.5,11.8z M58.1,9.6c0.1-1.2-0.3-1.8-1.1-1.9c-0.9-0.1-1.3,0.6-1.4,1.9
		C56.5,9.6,57.3,9.6,58.1,9.6z"/>
	<path class="st1" d="M75.2,53.1c1.2,0,2.3-0.3,3.3,0.7c0.3,0.3,1.1,0.3,1.7,0.3c0.2,0,0.5-0.4,0.7-0.5c-0.2-0.2-0.4-0.5-0.7-0.6
		c-0.8-0.2-1.6-0.2-2.3-0.4c-1.8-0.4-2.6-1.4-2.7-3.1c-0.1-1.9,0.6-3.2,2.3-3.8c2.3-0.8,4.6-0.5,6.9,0c0.2,0,0.4,0.4,0.4,0.6
		c0.1,0.8,0,1.6,0,2.5c-1.1-0.1-2.1,0.3-3.1-0.5c-0.4-0.3-1.2-0.2-1.8-0.2c-0.2,0-0.4,0.3-0.6,0.5c0.2,0.2,0.3,0.4,0.5,0.5
		c0.6,0.2,1.2,0.2,1.8,0.3c2.5,0.3,3.5,1.3,3.5,3.3c0.1,2.4-1,3.9-3.4,4.1c-2,0.2-4-0.1-6-0.2c-0.5,0-0.7-0.3-0.7-0.8
		C75.2,54.8,75.2,54,75.2,53.1z"/>
	<path class="st1" d="M59,28.6c-1.2,0-2.3,0.2-3.2-0.5c-0.4-0.3-1.1-0.2-1.7-0.1c-0.2,0-0.3,0.3-0.5,0.5c0.2,0.1,0.3,0.4,0.5,0.4
		c0.7,0.2,1.4,0.2,2.1,0.4c2.8,0.5,4,2.4,3,5.1c-0.5,1.5-1.7,2.2-3.2,2.3c-1.9,0.1-3.9-0.1-5.9-0.2c-0.6,0-0.9-0.4-0.8-1.1
		c0.1-0.7,0-1.5,0-2.4c1.1,0.1,2.1-0.3,3.1,0.6c0.4,0.4,1.3,0.3,2,0.4c0.2,0,0.4-0.4,0.6-0.5c-0.2-0.2-0.4-0.5-0.6-0.6
		c-0.5-0.1-1.1-0.2-1.7-0.3c-2.2-0.3-3.4-1.4-3.4-3.4c-0.1-2.1,1-3.7,3.2-3.9c1.9-0.2,3.9,0.1,5.9,0.2c0.2,0,0.6,0.4,0.6,0.7
		C59,26.9,59,27.7,59,28.6z"/>
	<path class="st1" d="M29.3,4.2c-1.2-0.1-1.3,0.6-1.3,1.5c0,2.2,0,4.4,0,6.6c0,1.3,0,1.3,1.3,1.5c0,0.8,0,1.7,0,2.6
		c-2.5,0-5,0-7.6,0c0-0.9,0-1.7,0-2.7c1.2,0.2,1.3-0.6,1.3-1.4c0-2.2,0-4.5,0-6.7c0-0.8,0-1.6-1.3-1.4c0-1,0-1.8,0-2.8
		c2.5,0,5,0,7.6,0C29.3,2.4,29.3,3.3,29.3,4.2z"/>
	<path class="st1" d="M159.1,13.8c0,1,0,1.8,0,2.7c-2.3,0-4.6,0-6.9,0c0-0.9,0-1.7,0-2.7c1,0.1,1.1-0.5,1.1-1.4c0-2.3,0-4.7,0-7
		c0-0.8-0.1-1.3-1.1-1.2c0-0.9,0-1.8,0-2.8c1.7,0,3.4-0.1,5.2,0.1c0.3,0,0.7,0.8,0.7,1.3c0.1,3.3,0,6.6,0,9.8
		C158,13.4,158.1,14,159.1,13.8z"/>
	<path class="st1" d="M48.7,2.2c0,1,0,1.9,0,2.9c0.7,0,1.2,0,1.9,0c0,1,0,1.9,0,2.9C50,8,49.4,8,48.8,8.1c0,1.6-0.1,3.2,0,4.8
		c0.1,1.1,1,0.9,1.8,0.9c0,0.7,0,1.5,0,2.2c0,0.2-0.3,0.5-0.4,0.5c-1.4,0-2.8,0.1-4.2-0.1c-1.4-0.2-1.9-1.2-2-2.8c0-1.4,0-2.9,0-4.3
		c0-0.4,0-0.7,0-1.1C43.7,8.1,43.4,8,43,7.9c0-0.9,0-1.8,0-2.8c0.3,0,0.6-0.1,1-0.1c0-0.9,0-1.9,0-2.8C45.6,2.2,47.1,2.2,48.7,2.2z"
		/>
	<path class="st1" d="M72.2,5.1c0,1.2,0,2.3,0,3.4c-1,0.1-1.9,0.2-2.8,0.3c-0.2,0-0.6,0.4-0.6,0.6c-0.1,1.4,0,2.7,0,4.2
		c0.4,0,0.7,0.1,1.1,0.1c0,0.9,0,1.7,0,2.6c-2.3,0-4.5,0-6.8,0c0-0.9,0-1.7,0-2.6c1,0.2,1-0.5,1-1.2c0-1.1,0-2.2,0-3.4
		c0-1,0-1-1-1.3c0-0.9,0-1.8,0-2.8c1.6,0,3.2-0.1,4.8,0.1c0.4,0,0.8,0.7,1.2,1.1C69.6,5.4,70.7,4.8,72.2,5.1z"/>
	<path class="st1" d="M66.6,34c0,0.9,0,1.6,0,2.5c-2.3,0-4.5,0-6.8,0c0-0.8,0-1.6,0-2.5c0.9,0.1,1-0.5,1-1.2c0-1.1-0.1-2.2,0-3.3
		c0-0.8-0.1-1.4-1.1-1.4c0-0.9,0-1.8,0-2.8c1.7,0,3.3,0,5,0c0.7,0,0.8,0.5,0.8,1.1c0,2.1,0,4.1,0,6.2C65.5,33.4,65.5,34,66.6,34z"/>
	<path class="st1" d="M87.8,56.6c0.4-2.2,0.7-4.2,1.1-6.3c0-0.2,0.4-0.5,0.6-0.5c1.9,0,3.8,0,5.8,0c-0.4,2.3-0.8,4.6-1.2,6.9
		C92,56.6,90,56.6,87.8,56.6z"/>
	<path class="st1" d="M63.1,24.8c-1.3,0-2.2-0.8-2.2-2c0-1.2,0.9-2,2.2-2c1.3,0,2.2,0.9,2.2,2.1C65.3,24.1,64.4,24.9,63.1,24.8z"/>
	<path class="st1" d="M39.4,45c-1.3,0-2.1-0.8-2.1-2c0-1.2,0.9-2,2.2-2c1.3,0,2.2,0.8,2.2,2.1C41.6,44.2,40.7,45,39.4,45z"/>
	<path class="st1" d="M109.6,4.7c-1.3,0-2.1-0.8-2.1-2.1c0-1.2,0.9-2,2.2-2c1.3,0,2.2,0.9,2.2,2.1C111.8,4,111,4.7,109.6,4.7z"/>
	<path class="st1" d="M70.4,49.7c-0.9,0-1.7,0-2.5,0c0.1-1.3,0.5-1.9,1.3-1.8C70.3,48,70.3,48.8,70.4,49.7z"/>
</g>
</svg>
