<?xml version="1.0" encoding="utf-8"?>
<!-- Generator: Adobe Illustrator 19.0.0, SVG Export Plug-In . SVG Version: 6.00 Build 0)  -->
<svg version="1.1" id="Layer_1" xmlns="http://www.w3.org/2000/svg" xmlns:xlink="http://www.w3.org/1999/xlink" x="0px" y="0px"
	 viewBox="-1032 2450.8 202.6 202.6" style="enable-background:new -1032 2450.8 202.6 202.6;" xml:space="preserve">
<style type="text/css">
	.st0{fill:#EC2227;}
	.st1{fill:#FFFFFF;}
</style>
<g>
	<g id="XMLID_1509_">
		<circle id="XMLID_1510_" class="st0" cx="-930.7" cy="2552.1" r="101.3"/>
	</g>
	<g id="XMLID_814_">
		<g id="XMLID_1016_">
			<polygon id="XMLID_1017_" class="st1" points="-933.6,2606.9 -953.6,2606.9 -953.6,2593.3 -949.8,2593.3 -949.8,2603.1 
				-937.4,2603.1 -937.4,2593.3 -933.6,2593.3 			"/>
		</g>
		<g id="XMLID_1014_">
			<polygon id="XMLID_1015_" class="st1" points="-891.7,2606.9 -911.6,2606.9 -911.6,2592.8 -907.8,2592.8 -907.8,2603.1 
				-895.5,2603.1 -895.5,2589 -891.7,2589 			"/>
		</g>
		<g id="XMLID_1012_">
			<path id="XMLID_1013_" class="st1" d="M-966.5,2527h-3.8v-22.8l1.9,0c0.1,0,0.2,0,0.3,0c5.8,0,11.4,2.4,15.3,6.6l-2.8,2.6
				c-2.9-3.1-6.8-5-11-5.3V2527z"/>
		</g>
		<g id="XMLID_1010_">
			<path id="XMLID_1011_" class="st1" d="M-912.3,2596h-28.4c-4.1,0-8.1-0.6-12-1.8c-10.4-3.2-19.1-10.4-24.1-20h-5.8l-1.9-2.3
				l1-4.6h-4.3l-1.9-1.9v-22.3l1.9-1.9h8.8c4-11.1,12.9-20.1,24.1-24.3l1.3,3.6c-10.5,3.9-18.8,12.6-22.2,23.2l-1.8,1.3h-8.3v18.5
				h4.8l1.9,2.3l-1,4.6h4.6l1.7,1.1c4.4,9.2,12.6,16.1,22.3,19.1c3.5,1.1,7.2,1.6,10.9,1.6h28.4c1,0,2,0,2.9-0.1
				c2.6-0.2,5.3-0.7,7.8-1.5c2.6-0.8,5.1-1.8,7.4-3.1c11.5-6.5,18.7-18.6,18.7-31.6v-1.3c0-11.3-5.2-21.7-14.2-28.7l2.3-3
				c10,7.7,15.7,19.2,15.7,31.7v1.3c0,14.4-7.9,27.8-20.6,35c-2.6,1.5-5.3,2.6-8.2,3.5c-2.8,0.8-5.7,1.4-8.6,1.6
				C-910.1,2596-911.2,2596-912.3,2596z"/>
		</g>
		<g id="XMLID_1008_">
			<path id="XMLID_1009_" class="st1" d="M-895.5,2533c-2.3-1.3-4.8-2.4-7.4-3.1c-2.5-0.8-5.1-1.2-7.8-1.5c-1-0.1-2-0.1-2.9-0.1
				h-10.9v-3.8h10.9c1.1,0,2.2,0,3.2,0.1c2.9,0.2,5.8,0.8,8.6,1.6c2.8,0.8,5.6,2,8.2,3.5L-895.5,2533z"/>
		</g>
		<g id="XMLID_1006_">
			<rect id="XMLID_1007_" x="-937.3" y="2514.4" class="st1" width="11.6" height="3.8"/>
		</g>
		<g id="XMLID_1004_">
			<path id="XMLID_1005_" class="st1" d="M-956.9,2551.4h-3.8c0-2.1-1.8-3.8-3.9-3.8c-2.2,0-3.9,1.7-3.9,3.8h-3.8
				c0-4.2,3.5-7.6,7.7-7.6S-956.9,2547.2-956.9,2551.4z"/>
		</g>
		<g id="XMLID_1000_">
			<path id="XMLID_1001_" class="st1" d="M-937.1,2537.4h-19v-33.1l1.9,0c0.1,0,0.2,0,0.3,0c11.5,0,20.9,9.3,20.9,20.7
				c0,4.2-1.2,8.2-3.6,11.6L-937.1,2537.4z M-952.3,2533.5h13.2c1.6-2.6,2.4-5.6,2.4-8.6c0-8.8-6.8-16-15.5-16.8V2533.5z"/>
		</g>
		<g id="XMLID_815_">
			<g id="XMLID_818_">
				<path id="XMLID_819_" class="st1" d="M-905.4,2528.7c-8.8,0-15.9-7.1-15.9-15.7c0-8.7,7.1-15.7,15.9-15.7
					c8.8,0,15.9,7.1,15.9,15.7C-889.5,2521.6-896.6,2528.7-905.4,2528.7z M-905.4,2501.1c-6.7,0-12.1,5.3-12.1,11.9
					c0,6.6,5.4,11.9,12.1,11.9c6.7,0,12.1-5.3,12.1-11.9C-893.3,2506.4-898.7,2501.1-905.4,2501.1z"/>
			</g>
			<g id="XMLID_816_">
				<rect id="XMLID_817_" x="-907.3" y="2508.4" class="st1" width="3.8" height="9.2"/>
			</g>
		</g>
	</g>
</g>
</svg>
