<?xml version="1.0" encoding="utf-8"?>
<!-- Generator: Adobe Illustrator 19.0.0, SVG Export Plug-In . SVG Version: 6.00 Build 0)  -->
<svg version="1.1" id="Layer_1" xmlns="http://www.w3.org/2000/svg" xmlns:xlink="http://www.w3.org/1999/xlink" x="0px" y="0px"
	 viewBox="-319 196.7 202.6 202.6" style="enable-background:new -319 196.7 202.6 202.6;" xml:space="preserve">
<style type="text/css">
	.st0{fill:#00B700;}
	.st1{fill:#FFFFFF;}
</style>
<g id="XMLID_1233_">
	<g id="XMLID_1512_">
		<circle id="XMLID_1514_" class="st0" cx="-217.7" cy="298" r="101.3"/>
	</g>
	<g id="XMLID_405_">
		<g id="XMLID_256_">
			<g id="XMLID_272_">
				<path id="XMLID_214_" class="st1" d="M-196.4,332.2v19.4c0,1-0.8,1.8-1.8,1.8h-50.9c-1,0-1.8-0.8-1.8-1.8V244.3
					c0-1,0.8-1.8,1.8-1.8h50.9c1,0,1.8,0.8,1.8,1.8v47.3h3.6v-47.3c0-3-2.4-5.5-5.5-5.5h-50.9c-3,0-5.5,2.4-5.5,5.5v107.3
					c0,3,2.4,5.5,5.5,5.5h50.9c3,0,5.5-2.4,5.5-5.5v-19.4H-196.4z"/>
				<g id="XMLID_280_">
					<rect id="XMLID_281_" x="-252.3" y="334.7" class="st1" width="57.3" height="3.6"/>
				</g>
				<g id="XMLID_278_">
					<rect id="XMLID_279_" x="-252.3" y="255.5" class="st1" width="57.3" height="3.6"/>
				</g>
				<g id="XMLID_275_">
					<g id="XMLID_276_">
						<rect id="XMLID_277_" x="-233.4" y="247" class="st1" width="19.4" height="3.6"/>
					</g>
				</g>
				<g id="XMLID_1598_">
					<g id="XMLID_1603_">
						<rect id="XMLID_1611_" x="-235.2" y="317.2" class="st1" width="22.9" height="3.6"/>
					</g>
				</g>
				<g id="XMLID_273_">
					<rect id="XMLID_274_" x="-226.1" y="343.9" class="st1" width="4.7" height="3.6"/>
				</g>
			</g>
		</g>
		<g id="XMLID_207_">
			<g id="XMLID_1020_">
				<g id="XMLID_1021_">
					<path id="XMLID_1022_" class="st1" d="M-185,306.8h-2.7v-2.5c0-3.9-2.7-7-6-7h-2.3c-3.3,0-6,3.2-6,7v2.5h-2.7v-2.5
						c0-5.4,3.9-9.7,8.7-9.7h2.3c4.8,0,8.7,4.4,8.7,9.7V306.8z"/>
				</g>
			</g>
			<g id="XMLID_210_">
				<path id="XMLID_211_" class="st1" d="M-183.6,309.8v18h-22.6v-18H-183.6L-183.6,309.8z M-180.9,307.1h-2.7h-22.6h-2.7v2.7v18
					v2.7h2.7h22.6h2.7v-2.7v-18V307.1L-180.9,307.1z"/>
			</g>
			<g id="XMLID_208_">
				<rect id="XMLID_209_" x="-196.3" y="316.1" class="st1" width="2.7" height="6"/>
			</g>
		</g>
		<g id="XMLID_83_">
			<g id="XMLID_84_">
				<g id="XMLID_1075_">
					<path id="XMLID_1232_" class="st1" d="M-208,297.3h-3.2v-6.6c0-1.5-1.2-3.2-2.5-3.6c-6.8-2.1-13.9-2.1-20.7,0
						c-1.3,0.4-2.5,2.2-2.5,3.6v5.8h-3.2v-5.8c0-2.9,2.2-5.9,4.8-6.7c7.4-2.2,15.2-2.2,22.6,0c2.7,0.8,4.8,3.8,4.8,6.7L-208,297.3
						L-208,297.3z"/>
				</g>
				<g id="XMLID_999_">
					<path id="XMLID_1072_" class="st1" d="M-224.1,285.3c-4.9,0-9-4.1-9-9.1s4-9.1,9-9.1c4.9,0,9,4.1,9,9.1
						C-215.1,281.2-219.1,285.3-224.1,285.3z M-224.1,270.3c-3.2,0-5.7,2.6-5.7,5.9c0,3.2,2.6,5.9,5.7,5.9c3.2,0,5.8-2.6,5.8-5.9
						S-220.9,270.3-224.1,270.3z"/>
				</g>
				<g id="XMLID_90_">
					<path id="XMLID_206_" class="st1" d="M-224.1,285.3c-4.9,0-9-4.1-9-9.1s4-9.1,9-9.1c4.9,0,9,4.1,9,9.1
						C-215.1,281.2-219.1,285.3-224.1,285.3z M-224.1,270.3c-3.2,0-5.7,2.6-5.7,5.9c0,3.2,2.6,5.9,5.7,5.9c3.2,0,5.8-2.6,5.8-5.9
						S-220.9,270.3-224.1,270.3z"/>
				</g>
				<g id="XMLID_85_">
					<g id="XMLID_88_">
						<rect id="XMLID_89_" x="-233.5" y="292.9" class="st1" width="3.2" height="17.8"/>
					</g>
					<g id="XMLID_86_">
						<rect id="XMLID_87_" x="-217.8" y="292.9" class="st1" width="3.2" height="17.8"/>
					</g>
				</g>
			</g>
		</g>
	</g>
</g>
</svg>
