<?xml version="1.0" encoding="utf-8"?>
<!-- Generator: Adobe Illustrator 19.0.0, SVG Export Plug-In . SVG Version: 6.00 Build 0)  -->
<svg version="1.1" id="Layer_1" xmlns="http://www.w3.org/2000/svg" xmlns:xlink="http://www.w3.org/1999/xlink" x="0px" y="0px"
	 viewBox="-1032 2450.8 202.6 202.6" style="enable-background:new -1032 2450.8 202.6 202.6;" xml:space="preserve">
<style type="text/css">
	.st0{fill:#EC2227;}
	.st1{fill:#FFFFFF;}
</style>
<g id="XMLID_1233_">
	<g id="XMLID_1512_">
		<circle id="XMLID_1514_" class="st0" cx="-930.7" cy="2552.1" r="101.3"/>
	</g>
	<g id="XMLID_405_">
		<g id="XMLID_256_">
			<g id="XMLID_272_">
				<path id="XMLID_214_" class="st1" d="M-909.4,2586.3v19.4c0,1-0.8,1.8-1.8,1.8h-50.9c-1,0-1.8-0.8-1.8-1.8v-107.3
					c0-1,0.8-1.8,1.8-1.8h50.9c1,0,1.8,0.8,1.8,1.8v47.3h3.6v-47.3c0-3-2.4-5.5-5.5-5.5h-50.9c-3,0-5.5,2.4-5.5,5.5v107.3
					c0,3,2.4,5.5,5.5,5.5h50.9c3,0,5.5-2.4,5.5-5.5v-19.4H-909.4z"/>
				<g id="XMLID_280_">
					<rect id="XMLID_281_" x="-965.3" y="2588.8" class="st1" width="57.3" height="3.6"/>
				</g>
				<g id="XMLID_278_">
					<rect id="XMLID_279_" x="-965.3" y="2509.6" class="st1" width="57.3" height="3.6"/>
				</g>
				<g id="XMLID_275_">
					<g id="XMLID_276_">
						<rect id="XMLID_277_" x="-946.4" y="2501.1" class="st1" width="19.4" height="3.6"/>
					</g>
				</g>
				<g id="XMLID_1598_">
					<g id="XMLID_1603_">
						<rect id="XMLID_1611_" x="-948.2" y="2571.3" class="st1" width="22.9" height="3.6"/>
					</g>
				</g>
				<g id="XMLID_273_">
					<rect id="XMLID_274_" x="-939.1" y="2598" class="st1" width="4.7" height="3.6"/>
				</g>
			</g>
		</g>
		<g id="XMLID_207_">
			<g id="XMLID_1020_">
				<g id="XMLID_1021_">
					<path id="XMLID_1022_" class="st1" d="M-898,2560.9h-2.7v-2.5c0-3.9-2.7-7-6-7h-2.3c-3.3,0-6,3.2-6,7v2.5h-2.7v-2.5
						c0-5.4,3.9-9.7,8.7-9.7h2.3c4.8,0,8.7,4.4,8.7,9.7V2560.9z"/>
				</g>
			</g>
			<g id="XMLID_210_">
				<path id="XMLID_211_" class="st1" d="M-896.6,2563.9v18h-22.6v-18H-896.6L-896.6,2563.9z M-893.9,2561.2h-2.7h-22.6h-2.7v2.7v18
					v2.7h2.7h22.6h2.7v-2.7v-18V2561.2L-893.9,2561.2z"/>
			</g>
			<g id="XMLID_208_">
				<rect id="XMLID_209_" x="-909.3" y="2570.2" class="st1" width="2.7" height="6"/>
			</g>
		</g>
		<g id="XMLID_83_">
			<g id="XMLID_84_">
				<g id="XMLID_1075_">
					<path id="XMLID_1232_" class="st1" d="M-921,2551.4h-3.2v-6.6c0-1.5-1.2-3.2-2.5-3.6c-6.8-2.1-13.9-2.1-20.7,0
						c-1.3,0.4-2.5,2.2-2.5,3.6v5.8h-3.2v-5.8c0-2.9,2.2-5.9,4.8-6.7c7.4-2.2,15.2-2.2,22.6,0c2.7,0.8,4.8,3.8,4.8,6.7V2551.4z"/>
				</g>
				<g id="XMLID_999_">
					<path id="XMLID_1072_" class="st1" d="M-937.1,2539.4c-4.9,0-9-4.1-9-9.1c0-5,4-9.1,9-9.1c4.9,0,9,4.1,9,9.1
						C-928.1,2535.3-932.1,2539.4-937.1,2539.4z M-937.1,2524.4c-3.2,0-5.7,2.6-5.7,5.9c0,3.2,2.6,5.9,5.7,5.9
						c3.2,0,5.8-2.6,5.8-5.9C-931.3,2527-933.9,2524.4-937.1,2524.4z"/>
				</g>
				<g id="XMLID_90_">
					<path id="XMLID_206_" class="st1" d="M-937.1,2539.4c-4.9,0-9-4.1-9-9.1c0-5,4-9.1,9-9.1c4.9,0,9,4.1,9,9.1
						C-928.1,2535.3-932.1,2539.4-937.1,2539.4z M-937.1,2524.4c-3.2,0-5.7,2.6-5.7,5.9c0,3.2,2.6,5.9,5.7,5.9
						c3.2,0,5.8-2.6,5.8-5.9C-931.3,2527-933.9,2524.4-937.1,2524.4z"/>
				</g>
				<g id="XMLID_85_">
					<g id="XMLID_88_">
						<rect id="XMLID_89_" x="-946.5" y="2547" class="st1" width="3.2" height="17.8"/>
					</g>
					<g id="XMLID_86_">
						<rect id="XMLID_87_" x="-930.8" y="2547" class="st1" width="3.2" height="17.8"/>
					</g>
				</g>
			</g>
		</g>
	</g>
</g>
</svg>
