<?xml version="1.0" encoding="utf-8"?>
<!-- Generator: Adobe Illustrator 19.0.0, SVG Export Plug-In . SVG Version: 6.00 Build 0)  -->
<svg version="1.1" id="Layer_1" xmlns="http://www.w3.org/2000/svg" xmlns:xlink="http://www.w3.org/1999/xlink" x="0px" y="0px"
	 viewBox="-284 88.9 271.8 417.4" style="enable-background:new -284 88.9 271.8 417.4;" xml:space="preserve">
<style type="text/css">
	.st0{fill:#00B700;}
	.st1{fill:#FFFFFF;}
	.st2{font-family:'MyriadPro-Regular';}
	.st3{font-size:6.8317px;}
	.st4{fill:none;}
	.st5{fill:#FFFFFF;stroke:#292E33;stroke-width:4;}
</style>
<g id="Background">
</g>
<g id="XMLID_209_">
	<g id="XMLID_471_">
		<path id="XMLID_181_" class="st0" d="M-150.1,119.5c0.9,0,2,0.2,2.5,0.4v-10.8l-2.5,2.4l-2.5-2.4v10.8
			C-151.1,119.6-150.9,119.5-150.1,119.5z"/>
		<path id="XMLID_180_" class="st0" d="M-150.1,135.1c-0.9,0-1-0.2-2.5-0.4V152l2.5,3.2l2.5-3.2v-17.3
			C-148.1,134.9-149.2,135.1-150.1,135.1z"/>
	</g>
	<circle id="XMLID_179_" class="st0" cx="-149.7" cy="127.3" r="3"/>
	<path id="XMLID_50_" class="st0" d="M-149.7,118.1c-4.7,0-8.6,3.6-9.3,8.1h3.3c0.7-2.5,3.1-4.9,6-4.9c3.4,0,6.2,2.7,6.2,6.1
		s-2.8,6.4-6.2,6.4c-3.1,0-5.7-2.1-6.1-5.1h-3.3c0.5,4.5,4.5,8.2,9.4,8.2c5.2,0,9.4-4.3,9.4-9.4
		C-140.3,122.4-144.5,118.1-149.7,118.1z"/>
	<g id="XMLID_466_">
		<path id="XMLID_178_" class="st0" d="M-150.1,167c-0.9,0-1,0.2-2.5,0.4v-10.8l2.5,2.4l2.5-2.4v10.8
			C-148.1,167.1-149.2,167-150.1,167z"/>
		<path id="XMLID_177_" class="st0" d="M-150.1,182.5c0.9,0,2-0.2,2.5-0.4v17.3l-2.5,3.2l-2.5-3.2v-17.3
			C-151.1,182.4-150.9,182.5-150.1,182.5z"/>
	</g>
	<circle id="XMLID_176_" class="st0" cx="-149.7" cy="174.8" r="3"/>
	<path id="XMLID_49_" class="st0" d="M-149.7,165.1c4.7,0,8.6,3.7,9.3,7.7h-3.3c-0.7-2.5-3.1-4.5-6-4.5c-3.4,0-6.2,2.9-6.2,6.3
		s2.8,6.3,6.2,6.3c3.1,0,5.7-1.7,6.1-5.2h3.3c-0.5,5-4.5,8.4-9.4,8.4c-5.2,0-9.4-4.4-9.4-9.6S-154.9,165.1-149.7,165.1z"/>
	<g id="XMLID_461_">
		<path id="XMLID_175_" class="st0" d="M-150.1,214.4c0.9,0,2,0.2,2.5,0.4V204l-2.5,2.4l-2.5-2.4v10.8
			C-151.1,214.6-150.9,214.4-150.1,214.4z"/>
		<path id="XMLID_174_" class="st0" d="M-150.1,230c-0.9,0-1-0.2-2.5-0.4v17.3l2.5,3.2l2.5-3.2v-17.3
			C-148.1,229.8-149.2,230-150.1,230z"/>
	</g>
	<circle id="XMLID_173_" class="st0" cx="-149.7" cy="222.2" r="3"/>
	<path id="XMLID_48_" class="st0" d="M-149.7,212.8c-4.7,0-8.6,4.5-9.3,8h3.3c0.7-2.5,3.1-4.7,6-4.7c3.4,0,6.2,2.8,6.2,6.2
		c0,3.4-2.8,6.3-6.2,6.3c-3.1,0-5.7-2.7-6.1-5.2h-3.3c0.5,4.5,4.5,8.4,9.4,8.4c5.2,0,9.4-4.3,9.4-9.4
		C-140.3,217.1-144.5,212.8-149.7,212.8z"/>
	<g id="XMLID_456_">
		<path id="XMLID_172_" class="st0" d="M-150.1,261.9c-0.9,0-1,0.2-2.5,0.4v-10.8l2.5,2.4l2.5-2.4v10.8
			C-148.1,262-149.2,261.9-150.1,261.9z"/>
		<path id="XMLID_171_" class="st0" d="M-150.1,277.5c0.9,0,2-0.2,2.5-0.4v17.3l-2.5,3.2l-2.5-3.2v-17.3
			C-151.1,277.3-150.9,277.5-150.1,277.5z"/>
	</g>
	<circle id="XMLID_170_" class="st0" cx="-149.7" cy="269.7" r="3"/>
	<path id="XMLID_47_" class="st0" d="M-149.7,260.6c4.7,0,8.6,3.2,9.3,8.2h-3.3c-0.7-3-3.1-5-6-5c-3.4,0-6.2,2.6-6.2,6s2.8,6,6.2,6
		c3.1,0,5.7-2,6.1-5.5h3.3c-0.5,5.5-4.5,8.6-9.4,8.6c-5.2,0-9.4-4-9.4-9.2C-159.1,264.6-154.9,260.6-149.7,260.6z"/>
	<g id="XMLID_451_">
		<path id="XMLID_169_" class="st0" d="M-150.1,309.3c0.9,0,2,0.2,2.5,0.4v-10.8l-2.5,2.4l-2.5-2.4v10.8
			C-151.1,309.5-150.9,309.3-150.1,309.3z"/>
		<path id="XMLID_168_" class="st0" d="M-150.1,324.9c-0.9,0-1-0.2-2.5-0.4v17.3l2.5,3.2l2.5-3.2v-17.3
			C-148.1,324.8-149.2,324.9-150.1,324.9z"/>
	</g>
	<circle id="XMLID_167_" class="st0" cx="-149.7" cy="317.1" r="3"/>
	<path id="XMLID_46_" class="st0" d="M-149.7,307.8c-4.7,0-8.6,3.5-9.3,8h3.3c0.7-2.5,3.1-4.8,6-4.8c3.4,0,6.2,2.7,6.2,6.1
		s-2.8,6.3-6.2,6.3c-3.1,0-5.7-2.2-6.1-5.2h-3.3c0.5,4,4.5,8.3,9.4,8.3c5.2,0,9.4-4.3,9.4-9.4C-140.3,312-144.5,307.8-149.7,307.8z"
		/>
	<g id="XMLID_446_">
		<path id="XMLID_166_" class="st0" d="M-150.1,356.8c-0.9,0-1,0.2-2.5,0.4v-10.8l2.5,2.4l2.5-2.4v10.8
			C-148.1,356.9-149.2,356.8-150.1,356.8z"/>
		<path id="XMLID_165_" class="st0" d="M-150.1,372.4c0.9,0,2-0.2,2.5-0.4v17.3l-2.5,3.2l-2.5-3.2V372
			C-151.1,372.2-150.9,372.4-150.1,372.4z"/>
	</g>
	<circle id="XMLID_164_" class="st0" cx="-149.7" cy="364.6" r="3"/>
	<path id="XMLID_45_" class="st0" d="M-149.7,355.6c4.7,0,8.6,2.8,9.3,8.3h-3.3c-0.7-3-3.1-5.1-6-5.1c-3.4,0-6.2,2.6-6.2,6
		s2.8,6,6.2,6c3.1,0,5.7-1.9,6.1-5.4h3.3c-0.5,5-4.5,8.6-9.4,8.6c-5.2,0-9.4-4-9.4-9.2C-159.1,359.7-154.9,355.6-149.7,355.6z"/>
	<polygon id="XMLID_44_" class="st0" points="-98.1,210.3 -129.6,210.3 -129.6,175.3 -148.1,175.3 -148.1,174.3 -129.1,174.3 
		-129.1,209.8 -99.1,209.8 -99.1,200.8 -98.1,200.8 	"/>
	<path id="XMLID_43_" class="st0" d="M-102.3,191.3h46.7c1.8,0,3.5,1.1,3.5,2.9v4.2c0,1.8-1.8,3-3.5,3h-40.7c0.3,0,0.5-0.7,0.5-1.2
		c0-1.2-1-2.1-2.2-2.1s-2.2,0.9-2.2,2.1c0,0.5,0.2,1.3,0.5,1.3h-2.7c-1.8,0-3.3-1.3-3.3-3v-4.2
		C-105.6,192.3-104.1,191.3-102.3,191.3z"/>
	<circle id="XMLID_163_" class="st0" cx="-98" cy="200.2" r="1.3"/>
	<polygon id="XMLID_42_" class="st0" points="-98.1,305.8 -129.6,305.8 -129.6,269.8 -148.1,269.8 -148.1,268.8 -129.1,268.8 
		-129.1,305.3 -99.1,305.3 -99.1,296.3 -98.1,296.3 	"/>
	<path id="XMLID_41_" class="st0" d="M-102.3,285.8h46.7c1.8,0,3.5,1.5,3.5,3.2v4.2c0,1.8-1.8,3.2-3.5,3.2h-40.7
		c0.3,0,0.5-0.8,0.5-1.3c0-1.2-1-2.2-2.2-2.2s-2.2,1-2.2,2.2c0,0.5,0.2,1.3,0.5,1.3h-2.7c-1.8,0-3.3-1.4-3.3-3.2V289
		C-105.6,287.3-104.1,285.8-102.3,285.8z"/>
	<circle id="XMLID_162_" class="st0" cx="-98" cy="295.1" r="1.3"/>
	<polygon id="XMLID_40_" class="st0" points="-98.1,400.4 -129.6,400.4 -129.6,365.4 -148.1,365.4 -148.1,364.9 -129.1,364.9 
		-129.1,399.4 -99.1,399.4 -99.1,390.9 -98.1,390.9 	"/>
	<path id="XMLID_39_" class="st0" d="M-102.3,380.9h46.7c1.8,0,3.5,1.3,3.5,3.1v4.2c0,1.8-1.8,3.3-3.5,3.3h-40.7
		c0.3,0,0.5-0.9,0.5-1.4c0-1.2-1-2.2-2.2-2.2s-2.2,1-2.2,2.2c0,0.5,0.2,1.4,0.5,1.4h-2.7c-1.8,0-3.3-1.5-3.3-3.3V384
		C-105.6,382.2-104.1,380.9-102.3,380.9z"/>
	<circle id="XMLID_161_" class="st0" cx="-98" cy="390" r="1.3"/>
	<g id="XMLID_432_">
		<path id="XMLID_160_" class="st0" d="M-150.1,404.6c0.9,0,2,0.2,2.5,0.4v-10.8l-2.5,2.4l-2.5-2.4V405
			C-151.1,404.7-150.9,404.6-150.1,404.6z"/>
		<path id="XMLID_159_" class="st0" d="M-150.1,420.2c-0.9,0-1-0.2-2.5-0.4v17.3l2.5,3.2l2.5-3.2v-17.3
			C-148.1,420.1-149.2,420.2-150.1,420.2z"/>
	</g>
	<circle id="XMLID_158_" class="st0" cx="-150.6" cy="412.4" r="3"/>
	<path id="XMLID_38_" class="st0" d="M-150.6,403.5c-4.7,0-8.6,2.9-9.3,8.4h3.3c0.7-2.5,3.1-5.2,6-5.2c3.4,0,6.2,2.5,6.2,6
		s-2.8,5.9-6.2,5.9c-3.1,0-5.7-1.6-6.1-5.6h-3.3c0.5,5,4.5,8.7,9.4,8.7c5.2,0,9.4-3.9,9.4-9.1S-145.4,403.5-150.6,403.5z"/>
	<polygon id="XMLID_37_" class="st0" points="-202.1,448.4 -171.1,448.4 -171.1,412.9 -151.1,412.9 -151.1,412.4 -171.6,412.4 
		-171.6,446.9 -201.1,446.9 -201.1,438.9 -202.1,438.9 	"/>
	<path id="XMLID_36_" class="st0" d="M-197.9,428.4h-46.7c-1.8,0-2.5,1.6-2.5,3.4v4.2c0,1.8,0.7,3.5,2.5,3.5h40.7
		c-0.3,0-0.5-1-0.5-1.5c0-1.2,1-2.2,2.2-2.2s2.2,1.1,2.2,2.3c0,0.5-0.2,1.5-0.5,1.5h2.7c1.8,0,3.8-1.7,3.8-3.5v-4.2
		C-194.1,430-196.2,428.4-197.9,428.4z"/>
	<circle id="XMLID_157_" class="st0" cx="-202.3" cy="437.8" r="1.3"/>
	<polygon id="XMLID_35_" class="st0" points="-202.1,352.9 -171.1,352.9 -171.1,317.8 -151.1,317.8 -151.1,316.3 -171.6,316.3 
		-171.6,351.9 -201.1,351.9 -201.1,342.9 -202.1,342.9 	"/>
	<path id="XMLID_34_" class="st0" d="M-197.9,332.4h-46.7c-1.8,0-2.5,2-2.5,3.8v4.2c0,1.8,0.7,3.6,2.5,3.6h40.7
		c-0.3,0-0.5-1-0.5-1.5c0-1.2,1-2.3,2.2-2.3s2.2,1.1,2.2,2.3c0,0.5-0.2,1.5-0.5,1.5h2.7c1.8,0,3.8-1.8,3.8-3.6v-4.2
		C-194.1,334.4-196.2,332.4-197.9,332.4z"/>
	<circle id="XMLID_156_" class="st0" cx="-202.3" cy="342.2" r="1.3"/>
	<polygon id="XMLID_33_" class="st0" points="-202.1,257.8 -171.1,257.8 -171.1,222.8 -151.1,222.8 -151.1,222.3 -171.6,222.3 
		-171.6,256.8 -201.1,256.8 -201.1,248.8 -202.1,248.8 	"/>
	<path id="XMLID_32_" class="st0" d="M-197.9,238.3h-46.7c-1.8,0-2.5,1.3-2.5,3.1v4.2c0,1.8,0.7,3.8,2.5,3.8h40.7
		c-0.3,0-0.5-1.1-0.5-1.6c0-1.2,1-2.3,2.2-2.3s2.2,1.2,2.2,2.4c0,0.5-0.2,1.6-0.5,1.6h2.7c1.8,0,3.8-2.1,3.8-3.8v-4.2
		C-194.1,239.6-196.2,238.3-197.9,238.3z"/>
	<circle id="XMLID_155_" class="st0" cx="-202.3" cy="247.4" r="1.3"/>
	<polygon id="XMLID_31_" class="st0" points="-202.1,163.3 -171.1,163.3 -171.1,127.7 -151.1,127.7 -151.1,126.7 -171.6,126.7 
		-171.6,162.3 -201.1,162.3 -201.1,153.8 -202.1,153.8 	"/>
	<path id="XMLID_30_" class="st0" d="M-197.9,143.2h-46.7c-1.8,0-2.5,1.6-2.5,3.3v4.2c0,1.8,0.7,3.6,2.5,3.6h40.7
		c-0.3,0-0.5-1-0.5-1.5c0-1.2,1-2.3,2.2-2.3s2.2,1.1,2.2,2.3c0,0.5-0.2,1.5-0.5,1.5h2.7c1.8,0,3.8-1.8,3.8-3.6v-4.2
		C-194.1,144.7-196.2,143.2-197.9,143.2z"/>
	<circle id="XMLID_154_" class="st0" cx="-202.3" cy="152.6" r="1.3"/>
	<g id="XMLID_415_">
		<path id="XMLID_153_" class="st0" d="M-150.1,452.4c-0.9,0-1,0.2-2.5,0.4V442l2.5,2.4l2.5-2.4v10.8
			C-148.1,452.6-149.2,452.4-150.1,452.4z"/>
		<path id="XMLID_152_" class="st0" d="M-150.1,468c0.9,0,2-0.2,2.5-0.4v17.3l-2.5,3.2l-2.5-3.2v-17.3
			C-151.1,467.9-150.9,468-150.1,468z"/>
	</g>
	<circle id="XMLID_151_" class="st0" cx="-149.7" cy="460.2" r="3"/>
	<path id="XMLID_29_" class="st0" d="M-149.7,451.2c4.7,0,8.6,3.3,9.3,8.3h-3.3c-0.7-2.5-3.1-5.1-6-5.1c-3.4,0-6.2,2.6-6.2,6
		s2.8,6,6.2,6c3.1,0,5.7-2,6.1-5.5h3.3c-0.5,5.5-4.5,8.6-9.4,8.6c-5.2,0-9.4-4-9.4-9.2C-159.1,455.2-154.9,451.2-149.7,451.2z"/>
	<polygon id="XMLID_28_" class="st0" points="-98.1,496 -129.6,496 -129.6,460.9 -148.1,460.9 -148.1,459.9 -129.1,459.9 
		-129.1,495.5 -99.1,495.5 -99.1,486.4 -98.1,486.4 	"/>
	<path id="XMLID_27_" class="st0" d="M-102.3,476.4h46.7c1.8,0,3.5,1.4,3.5,3.2v4.2c0,1.8-1.8,3.7-3.5,3.7h-40.7
		c0.3,0,0.5-1.1,0.5-1.6c0-1.2-1-2.3-2.2-2.3s-2.2,1.2-2.2,2.4c0,0.5,0.2,1.5,0.5,1.5h-2.7c-1.8,0-3.3-2-3.3-3.7v-4.2
		C-105.6,477.8-104.1,476.4-102.3,476.4z"/>
	<circle id="XMLID_150_" class="st0" cx="-98" cy="485.6" r="1.3"/>
	<text id="XMLID_149_" transform="matrix(1 0 0 1 -90.9173 198.0957)" class="st1 st2 st3">01/2018</text>
	<text id="XMLID_148_" transform="matrix(1 0 0 1 -232.6745 245.4908)" class="st1 st2 st3">01/2018</text>
	<text id="XMLID_147_" transform="matrix(1 0 0 1 -90.9162 292.8863)" class="st1 st2 st3">02/2018</text>
	<text id="XMLID_146_" transform="matrix(1 0 0 1 -232.6745 340.2798)" class="st1 st2 st3">03/2018</text>
	<text id="XMLID_145_" transform="matrix(1 0 0 1 -90.9173 388.1021)" class="st1 st2 st3">07/2018</text>
	<text id="XMLID_144_" transform="matrix(1 0 0 1 -232.6745 435.9253)" class="st1 st2 st3">12/2018</text>
	<text id="XMLID_143_" transform="matrix(1 0 0 1 -93.2766 495.7516)" class="st1 st2 st3">Launching Mycar App</text>
	<text id="XMLID_142_" transform="matrix(1 0 0 1 -240.1516 150.7007)" class="st1 st2 st3">9-31/12/2017</text>
	<g id="XMLID_400_">
		<circle id="XMLID_141_" class="st0" cx="-221" cy="214.6" r="22.1"/>
	</g>
	<g id="XMLID_398_">
		<circle id="XMLID_140_" class="st0" cx="-221" cy="309.4" r="22.1"/>
	</g>
	<g id="XMLID_396_">
		<circle id="XMLID_139_" class="st0" cx="-221" cy="404.2" r="22.1"/>
	</g>
	<g id="XMLID_394_">
		<circle id="XMLID_138_" class="st0" cx="-221" cy="119.8" r="22.1"/>
	</g>
	<g id="XMLID_392_">
		<circle id="XMLID_137_" class="st0" cx="-79.2" cy="166.8" r="22.1"/>
	</g>
	<g id="XMLID_390_">
		<circle id="XMLID_136_" class="st0" cx="-79.2" cy="261.6" r="22.1"/>
	</g>
	<g id="XMLID_388_">
		<circle id="XMLID_135_" class="st0" cx="-79.2" cy="356.4" r="22.1"/>
	</g>
	<g id="XMLID_386_">
		<circle id="XMLID_134_" class="st0" cx="-79.2" cy="452" r="22.1"/>
	</g>
	<g id="XMLID_3591_">
		<g id="XMLID_3602_">
			<path id="XMLID_3612_" class="st1" d="M-225.2,311c-0.9,0-1.1-0.2-1.1-0.3c-0.3-0.3-0.3-1.2-0.2-1.7c0.1-0.4,0.2-0.6,0.5-0.7
				s0.5-0.2,0.6-0.3c0.2-0.1,0.3-0.1,0.4-0.2l0.1-0.1c0.6-0.4,1.2-0.9,1.7-0.9c0.1,0,2.8-0.3,3.4,0.1c0.2,0.1,0.4,0.3,0.7,0.4
				c0.4,0.3,1,0.6,1.3,0.7c0.1,0,0.3,0.1,0.4,0.1c0.8,0.1,2.4,0.3,2.4,2l0,0c-0.1,0.7-0.9,0.8-1.6,0.8c-0.2,0-0.3-0.2-0.3-0.3
				c0-0.2,0.2-0.3,0.3-0.3c0.6,0,1-0.1,1-0.2c0-1.1-0.9-1.3-1.9-1.4c-0.2,0-0.4-0.1-0.5-0.1c-0.4-0.1-1-0.5-1.4-0.7
				c-0.3-0.2-0.5-0.3-0.6-0.4c-0.3-0.2-2.4-0.1-3.1,0c-0.2,0-0.5,0.2-1.4,0.8l-0.1,0.1c-0.2,0.1-0.3,0.2-0.5,0.3
				c-0.2,0.1-0.3,0.1-0.6,0.2c-0.2,0.2-0.2,1.2-0.1,1.5c0.2,0.1,0.5,0.1,0.9,0.1c0.2,0,0.3,0.1,0.3,0.3c0,0.2-0.1,0.3-0.3,0.3
				C-225.1,311-225.2,311-225.2,311z"/>
			<path id="XMLID_3609_" class="st1" d="M-217.8,311.8c-0.6,0-1.1-0.5-1.1-1.1s0.5-1.1,1.1-1.1s1.1,0.5,1.1,1.1
				S-217.2,311.8-217.8,311.8z M-217.8,310.1c-0.3,0-0.6,0.3-0.6,0.6c0,0.3,0.3,0.6,0.6,0.6s0.6-0.3,0.6-0.6
				S-217.5,310.1-217.8,310.1z"/>
			<path id="XMLID_3606_" class="st1" d="M-224,311.8c-0.6,0-1.1-0.5-1.1-1.1s0.5-1.1,1.1-1.1s1.1,0.5,1.1,1.1
				S-223.4,311.8-224,311.8z M-224,310.1c-0.3,0-0.6,0.3-0.6,0.6c0,0.3,0.3,0.6,0.6,0.6s0.6-0.3,0.6-0.6
				C-223.5,310.4-223.7,310.1-224,310.1z"/>
			<path id="XMLID_3605_" class="st1" d="M-218.8,309.8L-218.8,309.8c-0.6,0-3.3-0.1-4-0.5c-0.8-0.5-0.9-1.2-0.9-1.3
				c-0.1-0.2,0-0.3,0.2-0.4s0.3,0.1,0.4,0.2c0,0,0.2,0.6,0.7,0.9c0.4,0.3,2.5,0.4,3.7,0.4c0.2,0,0.3,0.2,0.3,0.3
				C-218.6,309.7-218.7,309.8-218.8,309.8z"/>
			<path id="XMLID_3604_" class="st1" d="M-218.6,310.9h-4.6c-0.2,0-0.3-0.2-0.3-0.3s0.2-0.3,0.3-0.3h4.6c0.2,0,0.3,0.2,0.3,0.3
				C-218.3,310.8-218.4,310.9-218.6,310.9z"/>
			<path id="XMLID_3603_" class="st1" d="M-216.7,310.9c-0.1,0-0.1,0-0.2,0c-0.2,0-0.3-0.2-0.3-0.3c0-0.2,0.2-0.3,0.3-0.3
				c0.3,0.1,0.6-0.1,0.8-0.2c0.1-0.1,0.1-0.1,0.1-0.1l0,0c0.1-0.9-0.9-1.1-1.8-1.2c-0.2,0-0.4-0.1-0.5-0.1s-0.3-0.2-0.2-0.4
				c0.1-0.2,0.2-0.3,0.4-0.2c0.1,0,0.3,0.1,0.4,0.1c0.8,0.1,2.4,0.3,2.4,1.8c0,0.2-0.1,0.4-0.3,0.6
				C-215.9,310.8-216.3,310.9-216.7,310.9z"/>
		</g>
		<g id="XMLID_3599_">
			<path id="XMLID_3601_" class="st1" d="M-226.6,313.6c-0.1,0-0.2-0.1-0.3-0.1c-1.7-2.5-1.7-5.8,0-8.2c0.1-0.2,0.3-0.2,0.4-0.1
				c0.2,0.1,0.2,0.3,0,0.4c-1.6,2.3-1.6,5.3,0,7.6c0.1,0.2,0.1,0.3,0,0.4C-226.5,313.6-226.5,313.6-226.6,313.6z"/>
			<path id="XMLID_3600_" class="st1" d="M-221,316.5c-1.5,0-2.9-0.5-4.1-1.3c-0.2-0.1-0.2-0.3-0.1-0.4s0.3-0.2,0.4-0.1
				c2.3,1.6,5.3,1.6,7.6,0c0.2-0.1,0.3-0.1,0.4,0.1c0.1,0.2,0,0.3-0.1,0.4C-218.1,316.1-219.5,316.5-221,316.5z"/>
		</g>
		<g id="XMLID_3596_">
			<path id="XMLID_3598_" class="st1" d="M-217.1,304c0,0-0.1,0-0.2-0.1c-2.3-1.6-5.3-1.6-7.6,0c-0.2,0.1-0.3,0.1-0.4-0.1
				c-0.1-0.2,0-0.3,0.1-0.4c2.5-1.7,5.8-1.7,8.2,0c0.2,0.1,0.2,0.3,0.1,0.4C-216.9,304-217,304-217.1,304z"/>
			<path id="XMLID_3597_" class="st1" d="M-215.4,313.6c0,0-0.1,0-0.2-0.1c-0.2-0.1-0.2-0.3-0.1-0.4c1.6-2.3,1.6-5.3,0-7.6
				c-0.1-0.2,0-0.3,0.1-0.4c0.2-0.1,0.3-0.1,0.4,0.1c1.7,2.5,1.7,5.8,0,8.2C-215.2,313.5-215.3,313.6-215.4,313.6z"/>
		</g>
		<circle id="XMLID_3595_" class="st1" cx="-215.6" cy="313.6" r="0.7"/>
		<circle id="XMLID_3594_" class="st1" cx="-226.4" cy="305.1" r="0.7"/>
		<circle id="XMLID_3593_" class="st1" cx="-216.7" cy="304" r="0.7"/>
		<circle id="XMLID_3592_" class="st1" cx="-225.3" cy="314.7" r="0.7"/>
	</g>
	<g id="XMLID_2_">
		<g id="XMLID_12_">
			<path id="XMLID_22_" class="st1" d="M-82.1,451.1c-0.6,0-0.7-0.1-0.8-0.2c-0.2-0.2-0.2-0.8-0.1-1.2c0.1-0.3,0.2-0.4,0.3-0.5
				c0.2,0,0.3-0.1,0.4-0.2c0.1,0,0.2,0,0.3-0.1v-0.1c0.4-0.3,0.8-0.6,1.1-0.6c0,0,1.9-0.2,2.3,0.1c0.1,0,0.3,0.2,0.5,0.3
				c0.3,0.2,0.6,0.4,0.9,0.5c0.1,0,0.2,0.1,0.3,0.1c0.5,0,1.6,0.2,1.6,1.3l0,0c-0.1,0.5-0.6,0.5-1.1,0.5c-0.1,0-0.2-0.1-0.2-0.2
				c0-0.1,0.1-0.2,0.2-0.2c0.4,0,0.7-0.1,0.7-0.2c0-0.7-0.6-0.8-1.3-0.9c-0.2,0-0.3-0.1-0.3-0.1c-0.3,0-0.7-0.3-1-0.5
				c-0.2-0.1-0.3-0.2-0.4-0.3c-0.2-0.1-1.6,0-2.1,0c-0.1,0-0.4,0.1-0.9,0.5l-0.1,0.1c-0.1,0-0.2,0.1-0.4,0.2c-0.1,0-0.2,0-0.4,0.2
				c-0.1,0.1-0.2,0.8-0.1,1c0.1,0.1,0.4,0.1,0.6,0.1c0.1,0,0.2,0.1,0.2,0.2C-81.9,451-82,451.1-82.1,451.1
				C-82,451.1-82.1,451.1-82.1,451.1z"/>
			<path id="XMLID_19_" class="st1" d="M-77.1,451.6c-0.4,0-0.8-0.4-0.8-0.8c0-0.4,0.4-0.8,0.8-0.8s0.8,0.4,0.8,0.8
				C-76.3,451.3-76.7,451.6-77.1,451.6z M-77.1,450.5c-0.2,0-0.4,0.2-0.4,0.4s0.2,0.4,0.4,0.4s0.4-0.2,0.4-0.4
				S-76.9,450.5-77.1,450.5z"/>
			<path id="XMLID_16_" class="st1" d="M-81.3,451.6c-0.4,0-0.8-0.4-0.8-0.8c0-0.4,0.4-0.8,0.8-0.8c0.4,0,0.8,0.4,0.8,0.8
				C-80.5,451.3-80.9,451.6-81.3,451.6z M-81.3,450.5c-0.2,0-0.4,0.2-0.4,0.4s0.2,0.4,0.4,0.4s0.4-0.2,0.4-0.4
				S-81.1,450.5-81.3,450.5z"/>
			<path id="XMLID_15_" class="st1" d="M-77.8,450.3L-77.8,450.3c-0.4,0-2.2-0.1-2.7-0.3c-0.5-0.3-0.6-0.8-0.6-0.9
				c0-0.1,0.1-0.2,0.2-0.3c0.1,0,0.2,0,0.3,0.2c0,0,0.1,0.4,0.5,0.6c0.3,0.2,1.7,0.3,2.5,0.3c0.1,0,0.2,0.1,0.2,0.2
				C-77.6,450.2-77.7,450.3-77.8,450.3z"/>
			<path id="XMLID_14_" class="st1" d="M-77.6,451h-3.1c-0.1,0-0.2-0.1-0.2-0.2c0-0.1,0.1-0.2,0.2-0.2h3.1c0.1,0,0.2,0.1,0.2,0.2
				C-77.4,450.9-77.5,451-77.6,451z"/>
			<path id="XMLID_13_" class="st1" d="M-76.3,451.1C-76.4,451.1-76.4,451.1-76.3,451.1c-0.2,0-0.3-0.1-0.3-0.2
				c0-0.1,0.1-0.2,0.2-0.2c0.2,0,0.4-0.1,0.5-0.2l0.1-0.1l0,0c0.1-0.6-0.6-0.8-1.2-0.8c-0.2,0-0.3-0.1-0.4-0.1
				c-0.1,0-0.2-0.2-0.2-0.3c0.1-0.1,0.2-0.2,0.3-0.2s0.2,0.1,0.3,0.1c0.5,0,1.6,0.2,1.6,1.2c0,0.2,0,0.3-0.2,0.4
				C-75.8,451-76.1,451.1-76.3,451.1z"/>
		</g>
		<g id="XMLID_9_">
			<path id="XMLID_11_" class="st1" d="M-83,452.8c0,0-0.1,0-0.2-0.1c-1.2-1.7-1.2-3.9,0-5.5c0-0.1,0.2-0.1,0.3,0
				c0.1,0,0.1,0.2,0.1,0.3c-1.1,1.5-1.1,3.5,0,5C-82.8,452.6-82.8,452.7-83,452.8L-83,452.8z"/>
			<path id="XMLID_10_" class="st1" d="M-79.2,454.8c-1,0-1.9-0.3-2.8-0.9c-0.1,0-0.1-0.2-0.1-0.3c0.1-0.1,0.2-0.1,0.3-0.1
				c1.5,1.1,3.5,1.1,5,0c0.1,0,0.2,0,0.3,0.1c0,0.1,0,0.2-0.1,0.3C-77.3,454.5-78.3,454.8-79.2,454.8z"/>
		</g>
		<g id="XMLID_6_">
			<path id="XMLID_8_" class="st1" d="M-76.6,446.5C-76.7,446.5-76.7,446.5-76.6,446.5c-1.6-1.2-3.6-1.2-5.1-0.1
				c-0.1,0.1-0.2,0.1-0.3,0s-0.1-0.2,0-0.3c1.7-1.2,3.9-1.2,5.5,0c0.1,0.1,0.1,0.2,0,0.3C-76.5,446.4-76.5,446.5-76.6,446.5z"/>
			<path id="XMLID_7_" class="st1" d="M-75.5,452.8C-75.6,452.8-75.6,452.8-75.5,452.8c-0.2-0.1-0.2-0.2-0.1-0.3
				c1.1-1.5,1.1-3.5,0-5c-0.1-0.1-0.1-0.2,0-0.3s0.2-0.1,0.3,0c1.2,1.7,1.2,3.9,0,5.5C-75.3,452.8-75.4,452.8-75.5,452.8z"/>
		</g>
		<circle id="XMLID_5_" class="st1" cx="-75.6" cy="452.9" r="0.4"/>
		<circle id="XMLID_4_" class="st1" cx="-82.8" cy="447.2" r="0.4"/>
		<circle id="XMLID_3_" class="st1" cx="-76.4" cy="446.4" r="0.4"/>
		<circle id="XMLID_23_" class="st1" cx="-82.1" cy="453.6" r="0.4"/>
	</g>
	<path id="XMLID_5196_" class="st1" d="M-91.7,170.1c0-0.2-0.2-0.3-0.4-0.3h-2.7c-0.2,0-0.4,0.2-0.4,0.3v4.9c0,0.2,0.2,0.3,0.4,0.3
		h2.7c0.2,0,0.4-0.2,0.4-0.3V170.1z M-93.4,174.5c-0.4,0-0.7-0.4-0.7-0.8s0.3-0.8,0.7-0.8s0.7,0.4,0.7,0.8
		C-92.7,174.2-93,174.5-93.4,174.5z M-75.9,169.8c-0.2,0.1-0.2,0.1-0.2,0.1l-4.5,2.2c0,0,1.1,1.5-0.8,2.2c-1.3,0.3-3.9-0.9-3.9-0.9
		l0.4-0.4c0,0,2.6,1.2,3.6,0.7c1-0.4,0.5-1.3,0.3-1.3c-0.2-0.1-2.8-1.7-5.9-2.8c-1.6-0.5-4.3,1-4.3,1v4.2h2.7c0,0,4.3,1.6,6.2,1.2
		s6.5-3.2,8.1-4.9C-73.5,169-75.7,169.8-75.9,169.8z M-67.9,159.3h-0.6c-0.4,0-0.9-0.1-1.2-0.3l-3.4-1.5c-0.3-0.2-0.9-0.2-1.2-0.1
		l-2.9,0.6c-0.4,0.1-0.9,0.4-1.1,0.6l-1.6,1.7c-0.3,0.3-0.5,0.6-0.5,0.7c0,0.2,0.3,0.3,0.7,0.3h0.5c0.4,0,0.9-0.2,1.2-0.4l0.4-0.3
		c0.3-0.2,1.5-0.8,1.8-0.8c0,0,1.1,0.2,1.6,0.9c0.5,0.7,0.3,2,0,2.1l-1.5,0.7c-0.4,0-1.3,0.2-1.6,0.4c0,0-0.5,0.3,0,1.3
		c0.1,0.2,0.1,0.2,0.1,0.2c0,0.1,0.1,0.2,0.1,0.2h0.1c0,0,0.3,0,0.6,0l3.9-0.2c0.4,0,0.9-0.2,1.2-0.3l2.2-1c0.3-0.2,0.9-0.3,1.2-0.3
		h0.4c0.4,0,0.7-0.3,0.7-0.7v-3.2C-67.3,159.6-67.6,159.3-67.9,159.3z M-75.6,162.9l0.1-1.3h-11.8v6.3h11.8l-0.1-2.1h-0.5v1.6h-11
		v-5.3h11v0.9L-75.6,162.9z M-77.7,163.2c0.1,0,0.2,0.1,0.3,0.2c0.1,0,0.2-0.1,0.2-0.1c-0.2-0.2-0.3-0.3-0.5-0.3
		c-0.5,0-0.8,0.8-0.8,1.7c0,1,0.4,1.7,0.8,1.7c0.2,0,0.5-0.2,0.6-0.5c-0.1,0-0.2,0-0.2,0l0,0c-0.1,0.2-0.3,0.3-0.4,0.3
		c-0.4,0-0.7-0.7-0.7-1.5C-78.4,163.9-78.1,163.2-77.7,163.2z M-81.3,164.4c0-0.1,0.2-0.1,0.2-0.1c0.1-0.1,0-0.1,0-0.2s0-0.1,0-0.2
		c-0.1-0.1-0.2-0.1-0.2-0.1V164.4z M-81.9,165.3c0,0.1,0.1,0.2,0.1,0.2c0,0.1,0.1,0.1,0.2,0.1v-0.5
		C-81.7,165.1-81.8,165.2-81.9,165.3C-81.9,165.2-81.9,165.2-81.9,165.3z M-83.6,164.7c0,1.3,0.9,2.4,2.1,2.4c1.2,0,2.1-1.1,2.1-2.4
		s-0.9-2.4-2.1-2.4S-83.6,163.4-83.6,164.7z M-80.7,163.7c0.2,0.2,0.2,0.3,0.2,0.5s0,0.3-0.1,0.4s-0.1,0.2-0.2,0.2
		c0,0.1-0.2,0.1-0.2,0.2c-0.1,0.1-0.2,0.1-0.3,0.1l-0.2,0.1v0.6c0,0,0.3,0,0.5-0.1s0.3-0.1,0.3-0.1l0,0v0.6
		c-0.1,0.1-0.2,0.1-0.3,0.2c-0.2,0.1-0.4,0.1-0.4,0.1v0.5h-0.3v-0.5c-0.2,0-0.3-0.1-0.4-0.1c-0.1-0.1-0.2-0.1-0.3-0.2
		s-0.2-0.2-0.2-0.3c-0.1-0.1-0.1-0.2-0.1-0.3c0-0.2,0.1-0.4,0.2-0.5c0.1-0.1,0.3-0.2,0.6-0.3l0.2-0.1v-0.5c-0.2,0-0.3,0.1-0.4,0.1
		c-0.1,0.1-0.2,0.1-0.3,0.2v-0.6c0-0.1,0.2-0.1,0.3-0.1s0.3-0.1,0.4-0.1v-0.5h0.3v0.5C-81.1,163.5-80.8,163.5-80.7,163.7z
		 M-86.1,164.7c0,1,0.4,1.7,0.8,1.7s0.8-0.8,0.8-1.7c0-1-0.4-1.7-0.8-1.7S-86.1,163.8-86.1,164.7z M-84.6,164.7
		c0,0.8-0.3,1.5-0.7,1.5s-0.7-0.7-0.7-1.5s0.3-1.5,0.7-1.5C-84.9,163.2-84.6,163.9-84.6,164.7z M-63.4,159c0-0.2-0.2-0.3-0.4-0.3
		h-2.9c-0.2,0-0.4,0.2-0.4,0.3v5.2c0,0.2,0.2,0.3,0.4,0.3h2.9c0.2,0,0.4-0.2,0.4-0.3V159z M-65,163.7c-0.4,0-0.7-0.4-0.7-0.8
		s0.3-0.8,0.7-0.8s0.7,0.4,0.7,0.8S-64.6,163.7-65,163.7z"/>
	<text id="XMLID_133_" transform="matrix(1 0 0 1 -93.3128 210.3609)" class="st1 st2 st3">Lending</text>
	<text id="XMLID_132_" transform="matrix(1 0 0 1 -238.0589 257.8028)" class="st1 st2 st3">C-Cex.com</text>
	<text id="XMLID_62_" transform="matrix(1 0 0 1 -229.9367 163.4854)" class="st1 st2 st3">Auction</text>
	<g id="XMLID_2677_">
		<circle id="XMLID_2693_" class="st1" cx="-78.9" cy="356" r="4.8"/>
		<path id="XMLID_2681_" class="st1" d="M-67.4,351.3c0,0.2,0,0.4,0,0.5c0,0.2,0,0.4-0.1,0.6c0,0.2,0,0.4-0.1,0.6
			c-0.2,0.8-0.5,1.5-0.8,2.2c-0.1,0.2-0.2,0.3-0.3,0.5c-0.6-0.8-1.2-1.5-1.8-2.1c-0.5-0.5-1-1-1.6-1.5c-0.1-0.6-0.2-1.3-0.4-2
			c-0.2-0.6-0.3-1.3-0.6-2c0-0.2-0.2-0.4-0.3-0.6c0.7,0,1.3,0,2,0.2c0.5,0.1,0.9,0.3,1.3,0.4c0.3,0.1,0.6,0.3,0.8,0.5
			c0.2-0.3,0.5-0.6,0.8-0.8c-0.4-0.3-0.8-0.5-1.2-0.7c-0.5-0.2-1-0.4-1.5-0.5c-0.9-0.2-1.7-0.2-2.6-0.2c-0.1-0.2-0.2-0.4-0.3-0.5
			c-0.4-0.7-0.9-1.4-1.5-2c-0.3-0.3-0.7-0.6-1.1-0.9s-0.9-0.5-1.3-0.6c-0.3-0.1-0.5-0.2-0.8-0.2c0,0-0.1,0-0.2,0c-0.1,0-0.2,0-0.2,0
			s-0.1,0-0.2,0h-0.1l0,0l0,0h-0.1c-0.5,0-1.1,0.2-1.5,0.3c-0.5,0.2-1,0.5-1.4,0.8s-0.8,0.7-1.1,1.1c-0.6,0.7-1,1.4-1.4,2.1
			c-0.9-0.1-1.7,0-2.5,0.2c-0.5,0.1-1,0.3-1.5,0.5s-1,0.5-1.4,0.8s-0.8,0.7-1.1,1.2l-0.1,0.1v0.1l0,0v0.1l-0.1,0.2
			c0,0.1,0,0.1-0.1,0.2s-0.1,0.1-0.1,0.2c-0.1,0.3-0.2,0.5-0.2,0.7c0,0.1,0,0.1-0.1,0.2c0.2-0.1,0.3-0.1,0.4-0.1
			c0.2,0,0.5,0.1,0.7,0.1c0.2-0.8,0.6-1.5,1.3-2c0.3-0.3,0.7-0.5,1.1-0.7c0.4-0.2,0.8-0.3,1.3-0.4c0.6-0.1,1.2-0.2,1.8-0.2
			c-0.4,0.8-0.6,1.6-0.9,2.5c-0.2,0.8-0.4,1.6-0.5,2.4c-0.5,0.4-0.9,0.8-1.3,1.2c-0.7,0.7-1.3,1.4-1.8,2.1c-0.1-0.2-0.2-0.3-0.3-0.5
			c-0.2-0.4-0.4-0.7-0.5-1.1c-0.3,0.2-0.6,0.3-0.9,0.3c0.2,0.5,0.4,0.9,0.6,1.2c0.2,0.3,0.3,0.5,0.5,0.8c-0.5,0.7-0.8,1.4-1.1,2.2
			c-0.2,0.5-0.3,1-0.4,1.5c-0.1,0.5-0.1,1-0.1,1.5c0.1,0.3,0.1,0.5,0.2,0.8c0,0.1,0,0.1,0,0.2s0.1,0.1,0.1,0.2s0.1,0.1,0.1,0.2
			l0.1,0.1c0,0.1,0,0.1,0,0.1l0.1,0.1v0.1l0,0l0,0c0.1,0.1,0.1,0.1,0.1,0.2l0.1,0.2c0.1,0.1,0.1,0.1,0.1,0.2
			c0.2,0.2,0.3,0.4,0.5,0.6c0.4,0.4,0.8,0.6,1.2,0.9c0.4,0.2,0.9,0.4,1.3,0.5c0.9,0.3,1.7,0.3,2.5,0.3c0.3,0,0.6,0,0.9-0.1
			c0.4,0.7,0.8,1.4,1.3,2.1c0.3,0.4,0.7,0.8,1.1,1.1c0.3,0.3,0.7,0.5,1,0.7c0-0.3,0-0.5,0.2-0.7c-0.3-0.1-0.6-0.3-0.8-0.5
			c-0.4-0.3-0.7-0.6-1.1-0.9c-0.5-0.5-0.9-1.1-1.3-1.7c0.4-0.1,0.7-0.1,1-0.2c0.7-0.2,1.4-0.3,2-0.5c0.7-0.2,1.4-0.5,1.9-0.7
			c0.6,0.3,1.2,0.5,1.9,0.7c0.6,0.2,1.3,0.4,2,0.5c0.3,0.1,0.5,0.1,0.8,0.1c0,0.1-0.1,0.2-0.2,0.3c-0.4,0.6-0.9,1.3-1.5,1.8
			c-0.2,0.2-0.3,0.3-0.5,0.4s-0.3,0.3-0.5,0.4s-0.3,0.2-0.5,0.3c0.2,0.3,0.2,0.6,0.2,0.9l0,0c0.3-0.1,0.5-0.2,0.7-0.4
			c0.4-0.3,0.8-0.6,1.1-0.9c0.7-0.6,1.1-1.3,1.5-2c0.1-0.2,0.2-0.4,0.3-0.6c0.2,0,0.5,0,0.7,0.1c0.8,0,1.7-0.1,2.5-0.3
			c0.4-0.1,0.9-0.3,1.3-0.5c0.4-0.2,0.8-0.5,1.2-0.9c0.2-0.2,0.4-0.4,0.5-0.6c0.1-0.1,0.1-0.1,0.1-0.2l0.1-0.2c0-0.1,0-0.1,0.1-0.2
			l0,0l0,0v-0.1l0.1-0.1l0.1-0.1v-0.1c0.1-0.1,0.1-0.1,0.1-0.2s0.1-0.1,0.1-0.2s0-0.1,0-0.2c0.1-0.3,0.1-0.5,0.2-0.8
			c0.1-0.5,0.1-1,0-1.5s-0.2-1-0.4-1.5c-0.3-0.8-0.7-1.5-1.1-2.2c0.2-0.3,0.4-0.5,0.5-0.8c0.4-0.7,0.8-1.5,1-2.3
			c0.1-0.5,0.2-0.9,0.2-1.4c0-0.3,0-0.6,0-0.9C-66.7,351.2-67.1,351.3-67.4,351.3z M-70.6,353.6c0.7,0.7,1.3,1.5,1.8,2.3
			c-0.2,0.4-0.5,0.8-0.7,1.1c-0.4,0.6-0.8,1.1-1.2,1.6s-0.8,0.9-1.2,1.3c0-0.3,0-0.6,0.1-0.8c0.1-0.9,0.1-1.6,0.1-2.1
			c0-0.3,0-0.5,0-0.6s0-0.2,0-0.2l0,0c0,0,0-0.1,0-0.2s0-0.3,0-0.6c0-0.5,0-1.2-0.1-2.1c0-0.3-0.1-0.5-0.1-0.8
			C-71.4,352.8-71,353.2-70.6,353.6z M-73.9,347.5c0.2,0.3,0.3,0.6,0.4,0.9c0.3,0.6,0.5,1.3,0.7,1.8c0.2,0.6,0.3,1.1,0.5,1.6
			c-0.2-0.1-0.3-0.2-0.4-0.3c-0.4-0.3-0.8-0.7-1.3-1c-0.4-0.3-0.9-0.6-1.3-0.9c-0.9-0.5-1.7-1-2.6-1.4c0.4-0.1,0.7-0.2,1-0.3
			C-75.8,347.7-74.9,347.5-73.9,347.5L-73.9,347.5z M-82.3,345.1c0.3-0.4,0.7-0.7,1-0.9c0.4-0.3,0.7-0.5,1.1-0.6
			c0.8-0.3,1.6-0.4,2.3-0.1c0.2,0.1,0.4,0.1,0.6,0.2c0.2,0.1,0.4,0.2,0.5,0.3c0.2,0.1,0.4,0.2,0.5,0.4c0.2,0.1,0.3,0.3,0.5,0.4
			c0.6,0.6,1.1,1.2,1.5,1.8c0.1,0.1,0.1,0.1,0.1,0.2c-0.9,0.1-1.8,0.3-2.6,0.5c-0.7,0.2-1.3,0.4-2,0.7c-0.7-0.3-1.3-0.5-2-0.7
			c-0.9-0.2-1.7-0.4-2.5-0.5C-83.1,346-82.7,345.5-82.3,345.1z M-85,350.1c0.3-0.9,0.6-1.8,1.1-2.7c1,0.1,1.9,0.2,2.8,0.5
			c0.4,0.1,0.7,0.2,1,0.3c-0.9,0.4-1.8,0.9-2.6,1.4c-0.5,0.3-0.9,0.6-1.3,0.9c-0.4,0.3-0.9,0.6-1.3,1v0.1
			C-85.2,351-85.1,350.5-85,350.1z M-87.3,353.6c0.3-0.3,0.7-0.7,1-1c-0.1,1.1-0.2,2.3-0.1,3.4c0,0.5,0.1,1.1,0.1,1.6
			c0.1,0.5,0.1,1.1,0.2,1.6c0,0.2,0.1,0.3,0.1,0.5c-0.4-0.4-0.8-0.8-1.2-1.2c-0.4-0.5-0.9-1-1.2-1.6c-0.3-0.4-0.5-0.7-0.7-1.1
			C-88.6,355.1-88,354.3-87.3,353.6z M-85.1,364.7c-0.8-0.1-1.5-0.2-2.3-0.4c-0.2-0.1-0.4-0.1-0.6-0.2c-0.2,0-0.4-0.2-0.6-0.3
			c-0.2-0.1-0.4-0.2-0.5-0.3c-0.2-0.1-0.3-0.3-0.5-0.4c-0.2-0.2-0.3-0.3-0.4-0.5c-0.1-0.1-0.1-0.1-0.1-0.1l-0.1-0.1l-0.1-0.2l0,0
			l0,0v-0.1l-0.1-0.1c0-0.1-0.1-0.1-0.1-0.1h-0.1c0-0.1,0-0.1,0-0.2s-0.1-0.1-0.1-0.2s-0.1-0.1-0.1-0.2c0-0.2-0.2-0.4-0.2-0.6
			c-0.1-0.4-0.1-0.9,0-1.3c0-0.5,0.1-0.9,0.3-1.4c0.2-0.7,0.5-1.4,0.9-2c0.2,0.3,0.4,0.5,0.6,0.8c0.5,0.6,1,1,1.4,1.5
			c0.6,0.5,1.1,0.9,1.5,1.3c0.2,0.7,0.3,1.4,0.5,2.1c0.3,0.9,0.6,1.8,1,2.6C-84.8,364.7-84.9,364.7-85.1,364.7z M-81,364.4
			c-0.6,0.2-1.3,0.3-2,0.3c-0.4,0.1-0.9,0.1-1.3,0.1c-0.5-0.9-0.8-1.8-1.1-2.7c-0.2-0.6-0.3-1.2-0.4-1.7c0.2,0.2,0.5,0.3,0.7,0.5
			c0.8,0.5,1.4,0.9,1.8,1.2c0.2,0.1,0.4,0.2,0.5,0.3c0.1,0.1,0.2,0.1,0.2,0.1l0,0l0,0c0,0,0.1,0.1,0.2,0.1c0.1,0.1,0.3,0.2,0.5,0.3
			c0.4,0.3,1.1,0.6,1.9,1c0.3,0.1,0.5,0.2,0.8,0.4C-79.8,364.1-80.4,364.3-81,364.4z M-80,363.5c-0.9-0.4-1.5-0.7-1.9-0.9
			c-0.2-0.1-0.4-0.2-0.5-0.3c-0.1-0.1-0.2-0.1-0.2-0.1s-0.1-0.1-0.2-0.1c-0.1-0.1-0.3-0.2-0.5-0.3c-0.4-0.3-1-0.7-1.7-1.2
			c-0.3-0.2-0.5-0.4-0.8-0.7c-0.2-1.3-0.3-2.6-0.3-4v-0.4c0-0.1,0-0.3,0-0.4c0-0.3,0.1-0.5,0.1-0.8c0.1-0.5,0.1-1,0.2-1.5
			c0.1-0.4,0.1-0.7,0.2-1.1c1-0.7,2-1.4,3-1.9l0.4-0.2c0.1-0.1,0.2-0.1,0.4-0.2c0.3-0.1,0.5-0.2,0.7-0.3c0.5-0.2,0.9-0.4,1.4-0.6
			c0.3-0.1,0.5-0.2,0.7-0.3c0.3,0.1,0.5,0.2,0.7,0.3c0.5,0.2,1,0.4,1.4,0.6c0.3,0.1,0.5,0.2,0.7,0.3c0.1,0.1,0.2,0.1,0.4,0.2
			l0.4,0.2c0.5,0.3,0.9,0.5,1.3,0.8c0.5,0.3,0.9,0.6,1.3,0.9c0.3,0.2,0.5,0.4,0.7,0.6c0.1,0.4,0.2,0.7,0.2,1.1
			c0.2,0.9,0.2,1.6,0.2,2.1c0,0.3,0,0.4,0,0.6c0,0.1,0,0.2,0,0.2s0,0.1,0,0.2s0,0.3,0,0.6c0,0.5-0.1,1.2-0.2,2.1
			c-0.1,0.4-0.1,0.7-0.2,1.1c-0.3,0.3-0.6,0.5-0.9,0.7c-0.7,0.6-1.3,1-1.7,1.2c-0.2,0.2-0.4,0.2-0.5,0.3c-0.1,0.1-0.2,0.1-0.2,0.1
			s-0.1,0-0.2,0.1c-0.1,0.1-0.3,0.2-0.5,0.3c-0.4,0.3-1.1,0.6-1.9,0.9c-0.3,0.2-0.7,0.3-1.1,0.4C-79.3,363.7-79.7,363.6-80,363.5z
			 M-73.9,364.7c-0.4,0-0.7-0.1-1.1-0.1c-0.7-0.1-1.4-0.2-2-0.3c-0.6-0.1-1.2-0.3-1.7-0.5c0.3-0.1,0.6-0.3,0.8-0.4
			c0.8-0.4,1.5-0.7,1.9-1c0.2-0.1,0.4-0.2,0.5-0.3c0.1-0.1,0.2-0.1,0.2-0.1l0,0c0,0,0.1-0.1,0.2-0.1c0.1-0.1,0.3-0.2,0.5-0.3
			c0.4-0.3,1-0.6,1.8-1.2c0.2-0.2,0.5-0.3,0.7-0.5c-0.1,0.5-0.3,1.1-0.5,1.7s-0.5,1.2-0.7,1.9C-73.6,364.1-73.7,364.4-73.9,364.7z
			 M-67.5,358.5c0.2,0.5,0.2,0.9,0.3,1.4s0,0.9-0.1,1.3c0,0.2-0.1,0.4-0.2,0.6c0,0.1,0,0.1,0,0.2s-0.1,0.1-0.1,0.2s-0.1,0.1-0.1,0.2
			l-0.1,0.1l0,0l-0.1,0.1v0.1l0,0l0,0l-0.1,0.2l-0.1,0.1c-0.1,0.1-0.1,0.1-0.1,0.1c-0.1,0.2-0.3,0.3-0.4,0.5
			c-0.2,0.2-0.3,0.3-0.5,0.4s-0.4,0.2-0.5,0.3c-0.2,0.1-0.4,0.2-0.6,0.3c-0.2,0-0.4,0.2-0.6,0.2c-0.8,0.2-1.5,0.3-2.3,0.4
			c-0.1,0-0.2,0-0.3,0c0.1-0.3,0.2-0.5,0.3-0.7c0.3-0.7,0.4-1.4,0.6-2c0.2-0.7,0.3-1.4,0.4-2c0.5-0.4,1-0.8,1.6-1.3
			c0.5-0.5,1-0.9,1.4-1.5c0.2-0.3,0.4-0.5,0.6-0.8C-68,357.2-67.7,357.8-67.5,358.5z"/>
		<path id="XMLID_2680_" class="st1" d="M-68.5,348.9c-0.1,0.2-0.1,0.4-0.1,0.5c0,0.7,0.5,1.2,1.1,1.2c0,0,0,0,0.1,0
			c0.4,0,0.7-0.2,0.9-0.4c0.2-0.2,0.3-0.5,0.3-0.8c0-0.7-0.6-1.2-1.2-1.2c-0.1,0-0.2,0-0.2,0C-68.1,348.3-68.4,348.6-68.5,348.9z"/>
		<path id="XMLID_2679_" class="st1" d="M-78.9,368.1c-0.5,0-0.9,0.3-1.1,0.7c-0.1,0.2-0.2,0.4-0.2,0.6c0,0.1,0,0.2,0,0.2
			c0.1,0.6,0.6,1,1.2,1c0.6,0,1.1-0.4,1.2-0.9c0-0.1,0.1-0.2,0.1-0.3c0-0.2-0.1-0.4-0.2-0.6C-78.1,368.3-78.5,368.1-78.9,368.1z"/>
		<path id="XMLID_2678_" class="st1" d="M-91,353.6c0.3,0,0.6-0.1,0.8-0.3c0.3-0.2,0.5-0.6,0.5-0.9c0-0.5-0.3-0.9-0.7-1.1
			c-0.2-0.1-0.4-0.1-0.5-0.1c-0.2,0-0.4,0.1-0.5,0.1c-0.4,0.2-0.7,0.6-0.7,1.1c0,0.6,0.5,1.1,1,1.2C-91.1,353.6-91,353.6-91,353.6z"
			/>
	</g>
	<g id="XMLID_249_">
		<path id="XMLID_131_" class="st4" d="M-231.8,303.3c0.5-0.8,0.3-1.7-0.5-2.2c-0.3-0.2-0.6-0.3-0.9-0.3c-0.6,0-1.1,0.3-1.4,0.7
			c-0.3,0.4-0.3,0.8-0.3,1.2c0.1,0.5,0.4,0.8,0.7,1s0.6,0.3,0.9,0.3C-232.6,304-232.1,303.8-231.8,303.3z"/>
		<path id="XMLID_130_" class="st4" d="M-231.8,315.6c-0.3-0.5-0.8-0.7-1.4-0.7c-0.3,0-0.6,0.1-0.9,0.3c-0.8,0.5-1,1.5-0.5,2.2
			c0.3,0.5,0.8,0.7,1.4,0.7c0.3,0,0.6-0.1,0.9-0.3C-231.5,317.3-231.3,316.3-231.8,315.6z"/>
		<circle id="XMLID_129_" class="st4" cx="-221" cy="323.4" r="1.6"/>
		<circle id="XMLID_128_" class="st4" cx="-221" cy="295.4" r="1.6"/>
		<path id="XMLID_127_" class="st4" d="M-210.2,303.2c0.3,0.5,0.8,0.7,1.4,0.7c0.3,0,0.6-0.1,0.9-0.3c0.8-0.5,1-1.5,0.5-2.2
			c-0.3-0.5-0.8-0.7-1.4-0.7c-0.3,0-0.6,0.1-0.9,0.3C-210.5,301.4-210.7,302.4-210.2,303.2z"/>
		<path id="XMLID_278_" class="st4" d="M-211.2,314.8c0.4-0.6,1-1,1.6-1.2v-8.7c-0.7-0.2-1.2-0.6-1.6-1.2c-0.5-0.7-0.6-1.5-0.4-2.2
			l-7.5-4.3c-0.5,0.5-1.2,0.8-2,0.8s-1.5-0.4-2-0.9l-7.5,4.4c0.2,0.8,0.1,1.6-0.4,2.3c-0.4,0.6-1,1-1.6,1.2l0.1,8.7
			c0.7,0.2,1.2,0.6,1.6,1.2c0.5,0.7,0.6,1.5,0.4,2.2l7.5,4.3c0.5-0.5,1.2-0.8,2-0.8s1.5,0.4,2,0.9l7.5-4.4
			C-211.7,316.3-211.6,315.5-211.2,314.8z M-221.2,298.8c0-0.1,0.2-0.1,0.3-0.1s0.2,0.1,0.3,0.1c0.1,0.1,0.1,0.2,0.1,0.3
			s-0.1,0.2-0.1,0.3c0,0.1-0.2,0.1-0.3,0.1s-0.2-0.1-0.3-0.1c-0.1-0.1-0.1-0.2-0.1-0.3S-221.3,298.9-221.2,298.8z M-221,299.9
			c0.2,0,0.4,0.2,0.4,0.4s-0.2,0.4-0.4,0.4s-0.4-0.2-0.4-0.4S-221.2,299.9-221,299.9z M-221.2,301.2c0-0.1,0.2-0.1,0.3-0.1
			s0.2,0.1,0.3,0.1c0.1,0.1,0.1,0.2,0.1,0.3c0,0.1-0.1,0.2-0.1,0.3c0,0.1-0.2,0.1-0.3,0.1s-0.2-0.1-0.3-0.1
			c-0.1-0.1-0.1-0.2-0.1-0.3C-221.3,301.3-221.3,301.3-221.2,301.2z M-230.2,304.1c0.1-0.1,0.2-0.2,0.3-0.2s0.2,0,0.3,0.1
			s0.2,0.2,0.2,0.3s0,0.2,0,0.3c-0.1,0.1-0.2,0.2-0.3,0.2s-0.2,0-0.3-0.1s-0.2-0.2-0.2-0.3C-230.3,304.3-230.3,304.2-230.2,304.1z
			 M-229.6,314.9c0,0.1-0.1,0.2-0.2,0.3c-0.1,0.1-0.2,0.1-0.3,0.1s-0.2-0.1-0.3-0.2c0-0.1,0-0.2,0-0.3c0-0.1,0.1-0.2,0.2-0.3
			c0.1-0.1,0.2-0.1,0.3-0.1s0.2,0.1,0.3,0.2C-229.6,314.7-229.6,314.8-229.6,314.9z M-229.2,304.7c0.1-0.2,0.3-0.3,0.5-0.2
			c0.2,0.1,0.3,0.3,0.2,0.5s-0.3,0.3-0.5,0.2C-229.3,305.1-229.3,304.9-229.2,304.7z M-228.7,314.5c-0.2,0.1-0.4,0.1-0.5-0.2
			s-0.1-0.4,0.2-0.5c0.2-0.1,0.4-0.1,0.5,0.2C-228.5,314.2-228.6,314.4-228.7,314.5z M-228.2,305.3c0.1-0.1,0.2-0.2,0.3-0.2
			s0.2,0,0.3,0.1s0.2,0.2,0.2,0.3s0,0.2-0.1,0.3c0,0.1-0.2,0.2-0.3,0.2s-0.2,0-0.3-0.1s-0.2-0.2-0.2-0.3S-228.3,305.4-228.2,305.3z
			 M-227.6,313.7c0,0.1-0.1,0.2-0.2,0.3c-0.1,0.1-0.2,0.1-0.3,0.1s-0.2-0.1-0.3-0.2c0-0.1,0-0.2,0-0.3c0-0.1,0.1-0.2,0.2-0.3
			c0.1-0.1,0.2-0.1,0.3-0.1s0.2,0.1,0.3,0.2C-227.6,313.5-227.5,313.6-227.6,313.7z M-220.7,320.1c0,0.1-0.2,0.1-0.3,0.1
			s-0.2-0.1-0.3-0.1c-0.1-0.1-0.1-0.2-0.1-0.3c0-0.1,0.1-0.2,0.1-0.3c0-0.1,0.2-0.1,0.3-0.1s0.2,0.1,0.3,0.1
			c0.1,0.1,0.1,0.2,0.1,0.3C-220.6,319.9-220.7,320-220.7,320.1z M-221,319c-0.2,0-0.4-0.2-0.4-0.4s0.2-0.4,0.4-0.4s0.4,0.2,0.4,0.4
			S-220.8,319-221,319z M-220.7,317.7c0,0.1-0.2,0.1-0.3,0.1s-0.2-0.1-0.3-0.1c-0.1-0.1-0.1-0.2-0.1-0.3s0.1-0.2,0.1-0.3
			c0-0.1,0.2-0.1,0.3-0.1s0.2,0.1,0.3,0.1c0.1,0.1,0.1,0.2,0.1,0.3S-220.7,317.7-220.7,317.7z M-221,316.5c-3.9,0-7.1-3.2-7.1-7.1
			s3.2-7.1,7.1-7.1c3.9,0,7.1,3.2,7.1,7.1S-217.1,316.5-221,316.5z M-213.8,313.8c-0.1,0.1-0.2,0.2-0.3,0.2s-0.2,0-0.3-0.1
			s-0.2-0.2-0.2-0.3s0-0.2,0.1-0.3c0-0.1,0.2-0.2,0.3-0.2s0.2,0,0.3,0.1s0.2,0.2,0.2,0.3S-213.7,313.7-213.8,313.8z M-213.7,305.6
			c0,0.1-0.1,0.2-0.2,0.3c-0.1,0.1-0.2,0.1-0.3,0.1s-0.2-0.1-0.3-0.2s-0.1-0.2-0.1-0.3c0-0.1,0.1-0.2,0.2-0.3
			c0.1-0.1,0.2-0.1,0.3-0.1s0.2,0.1,0.3,0.2C-213.7,305.4-213.7,305.5-213.7,305.6z M-212.8,314.4c-0.1,0.2-0.3,0.3-0.5,0.2
			c-0.2-0.1-0.3-0.3-0.2-0.5s0.3-0.3,0.5-0.2C-212.7,314-212.7,314.2-212.8,314.4z M-212.9,305.2c-0.2,0.1-0.4,0.1-0.5-0.2
			c-0.1-0.2,0-0.4,0.2-0.5s0.4-0.1,0.5,0.2C-212.7,304.9-212.7,305.1-212.9,305.2z M-211.8,315c-0.1,0.1-0.2,0.2-0.3,0.2
			s-0.2,0-0.3-0.1s-0.2-0.2-0.2-0.3c0-0.1,0-0.2,0.1-0.3c0-0.1,0.2-0.2,0.3-0.2s0.2,0,0.3,0.1s0.2,0.2,0.2,0.3
			S-211.7,314.9-211.8,315z M-211.7,304.4c0,0.1-0.1,0.2-0.2,0.3c-0.1,0.1-0.2,0.1-0.3,0.1s-0.2-0.1-0.3-0.2s-0.1-0.2-0.1-0.3
			c0-0.1,0.1-0.2,0.2-0.3c0.1-0.1,0.2-0.1,0.3-0.1s0.2,0.1,0.3,0.2C-211.7,304.2-211.7,304.3-211.7,304.4z"/>
		<path id="XMLID_106_" class="st4" d="M-208,315c-0.3-0.2-0.6-0.3-0.9-0.3c-0.6,0-1.1,0.3-1.4,0.7c-0.5,0.8-0.3,1.7,0.5,2.2
			c0.3,0.2,0.6,0.3,0.9,0.3c0.6,0,1.1-0.3,1.4-0.7C-207.1,316.4-207.3,315.4-208,315z"/>
		<path id="XMLID_268_" class="st1" d="M-207.4,314c-0.3-0.2-0.6-0.3-0.9-0.4v-8.7c0.3-0.1,0.6-0.2,0.9-0.4c1.3-0.9,1.6-2.6,0.8-3.8
			c-0.5-0.8-1.4-1.3-2.3-1.3c-0.6,0-1.1,0.2-1.5,0.5c-0.2,0.2-0.4,0.3-0.5,0.5l-7.5-4.3c0-0.3,0.1-0.5,0.1-0.8
			c0-1.5-1.3-2.8-2.8-2.8s-2.8,1.3-2.8,2.8c0,0.3,0,0.5,0.1,0.7l-7.5,4.4c-0.2-0.2-0.3-0.3-0.5-0.4c-0.5-0.3-1-0.5-1.5-0.5
			c-0.9,0-1.8,0.5-2.3,1.3c-0.4,0.6-0.6,1.4-0.4,2.1c0.2,0.7,0.6,1.4,1.2,1.8c0.3,0.2,0.6,0.3,0.9,0.4v8.7c-0.3,0.1-0.7,0.2-0.9,0.4
			c-1.3,0.9-1.6,2.6-0.8,3.8c0.5,0.8,1.4,1.3,2.3,1.3c0.6,0,1.1-0.2,1.5-0.5c0.2-0.2,0.4-0.3,0.5-0.5l7.5,4.3c0,0.3-0.1,0.5-0.1,0.8
			c0,1.5,1.3,2.8,2.8,2.8s2.8-1.3,2.8-2.8c0-0.3-0.1-0.5-0.1-0.7l7.5-4.4c0.2,0.2,0.3,0.3,0.5,0.4c0.5,0.3,1,0.5,1.5,0.5l0,0
			c0.9,0,1.8-0.5,2.3-1.3C-205.7,316.5-206.1,314.8-207.4,314z M-209.7,300.9c0.3-0.2,0.6-0.3,0.9-0.3c0.6,0,1.1,0.3,1.4,0.7
			c0.5,0.8,0.3,1.7-0.5,2.2c-0.3,0.2-0.6,0.3-0.9,0.3c-0.6,0-1.1-0.3-1.4-0.7C-210.7,302.4-210.5,301.4-209.7,300.9z M-221,293.8
			c0.9,0,1.6,0.7,1.6,1.6s-0.7,1.6-1.6,1.6s-1.6-0.7-1.6-1.6S-221.9,293.8-221,293.8z M-234.7,302.8c-0.1-0.5,0-0.9,0.3-1.2
			c0.3-0.5,0.8-0.7,1.4-0.7c0.3,0,0.6,0.1,0.9,0.3c0.8,0.5,1,1.5,0.5,2.2c-0.4,0.5-0.9,0.8-1.4,0.8c-0.3,0-0.6-0.1-0.9-0.3
			C-234.4,303.5-234.6,303.2-234.7,302.8z M-232.3,317.8c-0.3,0.2-0.6,0.3-0.9,0.3c-0.6,0-1.1-0.3-1.4-0.7c-0.5-0.8-0.3-1.7,0.5-2.2
			c0.3-0.2,0.6-0.3,0.9-0.3c0.6,0,1.1,0.3,1.4,0.7C-231.3,316.3-231.5,317.3-232.3,317.8z M-221,325c-0.9,0-1.6-0.7-1.6-1.6
			s0.7-1.6,1.6-1.6s1.6,0.7,1.6,1.6S-220.1,325-221,325z M-219,321.5c-0.5-0.5-1.2-0.9-2-0.9s-1.5,0.3-2,0.8l-7.5-4.3
			c0.2-0.7,0.1-1.5-0.4-2.2c-0.4-0.6-0.9-1-1.6-1.2V305c0.7-0.2,1.3-0.6,1.6-1.2c0.5-0.7,0.6-1.6,0.4-2.3l7.5-4.4
			c0.5,0.5,1.2,0.9,2,0.9s1.5-0.3,2-0.8l7.5,4.3c-0.2,0.7-0.1,1.6,0.4,2.2c0.4,0.6,1,1,1.6,1.2l0.1,8.7c-0.7,0.2-1.3,0.6-1.6,1.2
			c-0.5,0.7-0.6,1.6-0.4,2.3L-219,321.5z M-207.5,317.2c-0.3,0.5-0.8,0.7-1.4,0.7c-0.3,0-0.6-0.1-0.9-0.3c-0.8-0.5-1-1.5-0.5-2.2
			c0.3-0.5,0.8-0.7,1.4-0.7c0.3,0,0.6,0.1,0.9,0.3C-207.3,315.4-207.1,316.4-207.5,317.2z"/>
		<path id="XMLID_97_" class="st1" d="M-221,299.5c0.1,0,0.2-0.1,0.3-0.1c0.1-0.1,0.1-0.2,0.1-0.3s-0.1-0.2-0.1-0.3
			c0-0.1-0.2-0.1-0.3-0.1s-0.2,0.1-0.3,0.1c-0.1,0.1-0.1,0.2-0.1,0.3s0.1,0.2,0.1,0.3C-221.2,299.4-221.1,299.5-221,299.5z"/>
		<circle id="XMLID_96_" class="st1" cx="-221" cy="300.3" r="0.4"/>
		<path id="XMLID_95_" class="st1" d="M-221,301.8c0.1,0,0.2-0.1,0.3-0.1c0.1-0.1,0.1-0.2,0.1-0.3c0-0.1-0.1-0.2-0.1-0.3
			c0-0.1-0.2-0.1-0.3-0.1s-0.2,0.1-0.3,0.1c-0.1,0.1-0.1,0.2-0.1,0.3c0,0.1,0.1,0.2,0.1,0.3C-221.2,301.8-221.1,301.8-221,301.8z"/>
		<path id="XMLID_94_" class="st1" d="M-221,317.1c-0.1,0-0.2,0.1-0.3,0.1c-0.1,0.1-0.1,0.2-0.1,0.3c0,0.1,0.1,0.2,0.1,0.3
			c0,0.1,0.2,0.1,0.3,0.1s0.2-0.1,0.3-0.1c0.1-0.1,0.1-0.2,0.1-0.3c0-0.1-0.1-0.2-0.1-0.3C-220.8,317.2-220.9,317.1-221,317.1z"/>
		<circle id="XMLID_93_" class="st1" cx="-221" cy="318.7" r="0.4"/>
		<path id="XMLID_92_" class="st1" d="M-221,319.5c-0.1,0-0.2,0.1-0.3,0.1c-0.1,0.1-0.1,0.2-0.1,0.3c0,0.1,0.1,0.2,0.1,0.3
			c0,0.1,0.2,0.1,0.3,0.1s0.2-0.1,0.3-0.1c0.1-0.1,0.1-0.2,0.1-0.3c0-0.1-0.1-0.2-0.1-0.3C-220.8,319.5-220.9,319.5-221,319.5z"/>
		<path id="XMLID_91_" class="st1" d="M-212,303.9c-0.1,0-0.2,0-0.3,0.1s-0.2,0.2-0.2,0.3s0,0.2,0,0.3c0.1,0.1,0.2,0.2,0.3,0.2
			s0.2,0,0.3-0.1s0.2-0.2,0.2-0.3s0-0.2-0.1-0.3C-211.8,304-211.9,304-212,303.9z"/>
		<ellipse id="XMLID_90_" class="st1" cx="-213.1" cy="304.9" rx="0.4" ry="0.4"/>
		<path id="XMLID_89_" class="st1" d="M-214,305.1c-0.1,0-0.2,0-0.3,0.1s-0.2,0.2-0.2,0.3s0,0.2,0.1,0.3c0,0.1,0.2,0.2,0.3,0.2
			s0.2,0,0.3-0.1s0.2-0.2,0.2-0.3c0-0.1,0-0.2,0-0.3C-213.8,305.2-213.9,305.2-214,305.1z"/>
		<path id="XMLID_88_" class="st1" d="M-227.8,313.3c-0.1,0-0.2,0-0.3,0.1s-0.2,0.2-0.2,0.3s0,0.2,0.1,0.3c0.1,0.1,0.2,0.2,0.3,0.2
			s0.2,0,0.3-0.1s0.2-0.2,0.2-0.3s0-0.2-0.1-0.3S-227.7,313.3-227.8,313.3z"/>
		<ellipse id="XMLID_87_" class="st1" cx="-228.9" cy="314.2" rx="0.4" ry="0.4"/>
		<path id="XMLID_86_" class="st1" d="M-229.8,314.5c-0.1,0-0.2,0-0.3,0.1s-0.2,0.2-0.2,0.3c0,0.1,0,0.2,0.1,0.3
			c0.1,0.1,0.2,0.2,0.3,0.2s0.2,0,0.3-0.1s0.2-0.2,0.2-0.3s0-0.2-0.1-0.3C-229.7,314.6-229.7,314.5-229.8,314.5z"/>
		<path id="XMLID_85_" class="st1" d="M-230.1,304.6c0.1,0.1,0.2,0.1,0.3,0.1s0.2-0.1,0.3-0.2s0.1-0.2,0.1-0.3
			c0-0.1-0.1-0.2-0.2-0.3c-0.1-0.1-0.2-0.1-0.3-0.1s-0.2,0.1-0.3,0.2c0,0.1,0,0.2,0,0.3C-230.3,304.5-230.2,304.6-230.1,304.6z"/>
		<ellipse id="XMLID_84_" class="st1" cx="-228.9" cy="304.9" rx="0.4" ry="0.4"/>
		<path id="XMLID_83_" class="st1" d="M-228.1,305.8c0.1,0.1,0.2,0.1,0.3,0.1s0.2-0.1,0.3-0.2s0.1-0.2,0.1-0.3
			c0-0.1-0.1-0.2-0.2-0.3c-0.1-0.1-0.2-0.1-0.3-0.1s-0.2,0.1-0.3,0.2s-0.1,0.2-0.1,0.3C-228.2,305.7-228.2,305.7-228.1,305.8z"/>
		<path id="XMLID_82_" class="st1" d="M-213.9,313.3c-0.1-0.1-0.2-0.1-0.3-0.1s-0.2,0.1-0.3,0.2s-0.1,0.2-0.1,0.3
			c0,0.1,0.1,0.2,0.2,0.3c0.1,0.1,0.2,0.1,0.3,0.1s0.2-0.1,0.3-0.2s0.1-0.2,0.1-0.3C-213.8,313.4-213.8,313.4-213.9,313.3z"/>
		<ellipse id="XMLID_81_" class="st1" cx="-213.1" cy="314.2" rx="0.4" ry="0.4"/>
		<path id="XMLID_80_" class="st1" d="M-211.9,314.5c-0.1-0.1-0.2-0.1-0.3-0.1s-0.2,0.1-0.3,0.2s-0.1,0.2-0.1,0.3
			c0,0.1,0.1,0.2,0.2,0.3c0.1,0.1,0.2,0.1,0.3,0.1s0.2-0.1,0.3-0.2c0-0.1,0-0.2,0-0.3C-211.7,314.6-211.8,314.6-211.9,314.5z"/>
	</g>
	<g id="XMLID_211_">
		<g id="XMLID_223_">
			<g id="XMLID_245_">
				<g id="XMLID_246_">
					<g id="XMLID_247_">
						<path id="XMLID_79_" class="st5" d="M-219.8,406.1"/>
					</g>
				</g>
			</g>
			<g id="XMLID_242_">
				<g id="XMLID_243_">
					<path id="XMLID_78_" class="st1" d="M-224.6,409.4c-2.2,0-4.2-0.9-5.7-2.4c-1.6-1.5-2.4-3.6-2.4-5.7s0.9-4.2,2.4-5.7l0.6,0.6
						c-1.4,1.4-2.2,3.2-2.2,5.1c0,2,0.8,3.8,2.2,5.1c1.4,1.4,3.2,2.1,5.2,2.1l0,0c2,0,3.8-0.8,5.2-2.2s2.2-3.2,2.2-5.1
						c0-2-0.8-3.8-2.2-5.1l0.6-0.6c1.6,1.5,2.4,3.6,2.4,5.7s-0.9,4.2-2.4,5.7C-220.4,408.6-222.4,409.4-224.6,409.4L-224.6,409.4z"
						/>
				</g>
			</g>
			<g id="XMLID_239_">
				<g id="XMLID_240_">
					<path id="XMLID_77_" class="st1" d="M-224.3,407.6c-0.3,0-0.6,0-0.9,0c-1.6-0.2-3-1.1-4-2.4c-1-1.3-1.4-2.9-1.2-4.4l0.8,0.1
						c-0.2,1.4,0.2,2.7,1,3.8c0.9,1.1,2.1,1.9,3.5,2.1s2.8-0.2,3.9-1c1.1-0.9,1.9-2.1,2-3.4c0.1-0.6,0-1.1-0.1-1.7l0.8-0.2
						c0.1,0.7,0.2,1.3,0.1,2c-0.2,1.6-1.1,3-2.4,4C-221.7,407.1-223,407.6-224.3,407.6z"/>
				</g>
			</g>
			<g id="XMLID_234_">
				<g id="XMLID_235_">
					<path id="XMLID_236_" class="st1" d="M-212.7,416.5l-6.9-6.8l3.5-3.4l6.9,6.8L-212.7,416.5z M-218.5,409.8l5.8,5.7l2.3-2.3
						l-5.7-5.7L-218.5,409.8z"/>
				</g>
			</g>
			<g id="XMLID_231_">
				<g id="XMLID_232_">
					
						<rect id="XMLID_74_" x="-216.2" y="411.3" transform="matrix(0.7102 0.704 -0.704 0.7102 227.8648 269.7735)" class="st1" width="4.9" height="0.8"/>
				</g>
			</g>
			<g id="XMLID_228_">
				<g id="XMLID_229_">
					
						<rect id="XMLID_73_" x="-216.9" y="407.8" transform="matrix(0.704 0.7102 -0.7102 0.704 226.658 274.9227)" class="st1" width="0.8" height="3.2"/>
				</g>
			</g>
			<g id="XMLID_224_">
				<g id="XMLID_225_">
					<g id="XMLID_226_">
						
							<rect id="XMLID_72_" x="-218.9" y="407.2" transform="matrix(0.7102 0.704 -0.704 0.7102 223.7404 271.6316)" class="st1" width="1.7" height="0.8"/>
					</g>
				</g>
			</g>
		</g>
		<g id="XMLID_212_">
			<g id="XMLID_218_">
				<g id="XMLID_219_">
					<path id="XMLID_220_" class="st1" d="M-224.5,404.7l-0.3-0.2c-0.3-0.2-5.7-4.8-5.7-8s2.7-5.9,5.9-5.9s5.9,2.6,5.9,5.9
						c0,3.2-5.4,7.8-5.7,8L-224.5,404.7z M-224.5,391.5c-2.8,0-5.1,2.3-5.1,5.1c0,2.5,4.1,6.2,5.1,7.2c1.1-1,5.1-4.7,5.1-7.2
						C-219.4,393.8-221.7,391.5-224.5,391.5z"/>
				</g>
			</g>
			<g id="XMLID_213_">
				<g id="XMLID_214_">
					<path id="XMLID_215_" class="st1" d="M-224.5,399.7c-1.7,0-3.2-1.4-3.2-3.1s1.4-3.1,3.2-3.1c1.7,0,3.1,1.4,3.1,3.1
						S-222.8,399.7-224.5,399.7z M-224.5,394.3c-1.3,0-2.4,1.1-2.4,2.3c0,1.3,1.1,2.3,2.4,2.3c1.3,0,2.4-1.1,2.4-2.3
						C-222.2,395.3-223.2,394.3-224.5,394.3z"/>
				</g>
			</g>
		</g>
	</g>
	<text id="XMLID_61_" transform="matrix(1 0 0 1 -93.3216 305.7017)" class="st1 st2 st3">Livecoin.net</text>
	<text id="XMLID_60_" transform="matrix(1 0 0 1 -258.2401 352.6646)" class="st1 st2 st3">Carcoin Exchange</text>
	<text id="XMLID_59_" transform="matrix(1 0 0 1 -93.341 400.4937)" class="st1 st2 st3">Open Ecosystem</text>
	<text id="XMLID_58_" transform="matrix(1 0 0 1 -265.1864 448.0163)" class="st1 st2 st3">Buy &amp; Built GPS Map</text>
	<text id="XMLID_57_" transform="matrix(1 0 0 1 -90.9173 483.7467)" class="st1 st2 st3">12/2019</text>
	<g id="XMLID_190_">
		<path id="XMLID_191_" class="st1" d="M-73,439.8h-12.4c-1.2,0-2.1,0.9-2.1,2.1v20.3c0,1.2,0.9,2.1,2.1,2.1H-73
			c1.2,0,2.1-0.9,2.1-2.1v-20.3C-71,440.8-71.9,439.8-73,439.8z M-79.2,462.9c-0.7,0-1.3-0.6-1.3-1.3s0.6-1.3,1.3-1.3
			c0.8,0,1.3,0.6,1.3,1.3S-78.5,462.9-79.2,462.9z M-73.1,457.6c0,0.9-0.7,1.6-1.6,1.6h-9.1c-0.9,0-1.6-0.7-1.6-1.6v-14.7
			c0-0.9,0.7-1.6,1.6-1.6h9.1c0.9,0,1.6,0.7,1.6,1.6V457.6z"/>
	</g>
	<g id="XMLID_183_">
		<path id="XMLID_187_" class="st1" d="M-79.2,278.1c-9.2,0-16.6-7.5-16.6-16.6c0-9.2,7.5-16.6,16.6-16.6c9.2,0,16.6,7.5,16.6,16.6
			C-62.6,270.7-70.1,278.1-79.2,278.1z M-79.2,247.6c-7.7,0-14,6.3-14,14c0,7.7,6.3,14,14,14c7.8,0,14-6.3,14-14
			C-65.2,253.9-71.5,247.6-79.2,247.6z"/>
		<polygon id="XMLID_26_" class="st1" points="-76,256.1 -76,267.3 -73.5,267.3 -73.5,254.4 		"/>
		<polygon id="XMLID_25_" class="st1" points="-80.6,258.5 -80.6,267.3 -78,267.3 -78,256.8 		"/>
		<polygon id="XMLID_52_" class="st1" points="-85.1,260.9 -85.1,267.3 -82.6,267.3 -82.6,259.2 		"/>
	</g>
	<g id="XMLID_184_">
		<path id="XMLID_185_" class="st1" d="M-230,220.4c-3.2,0-5.8-2.6-5.8-5.8s2.6-5.8,5.8-5.8c1.5,0,2.9,0.6,4,1.6l-1.1,1.2
			c-0.8-0.8-1.8-1.2-2.9-1.2c-2.4,0-4.3,1.9-4.3,4.3s1.9,4.3,4.3,4.3c1.1,0,2.1-0.4,2.9-1.2l1.1,1.2
			C-227.2,219.9-228.6,220.4-230,220.4z"/>
		<path id="XMLID_188_" class="st1" d="M-220,220.4c-3.2,0-5.8-2.6-5.8-5.8s2.6-5.8,5.8-5.8c1.5,0,2.9,0.6,4,1.6l-1.1,1.2
			c-0.8-0.8-1.8-1.2-2.9-1.2c-2.4,0-4.3,1.9-4.3,4.3s1.9,4.3,4.3,4.3c1.1,0,2.1-0.4,2.9-1.2l1.1,1.2
			C-217.1,219.9-218.5,220.4-220,220.4z"/>
		<rect id="XMLID_182_" x="-228.1" y="214" class="st1" width="1.6" height="1.4"/>
		<g id="XMLID_193_">
			<path id="XMLID_195_" class="st1" d="M-220.4,209.8v-1.9h-1.4v2.2C-221.3,210-220.8,209.9-220.4,209.8z"/>
			<path id="XMLID_198_" class="st1" d="M-221.7,219.1v2.1h1.4v-1.8C-220.8,219.4-221.3,219.3-221.7,219.1z"/>
		</g>
		<g id="XMLID_194_">
			<path id="XMLID_196_" class="st1" d="M-218.2,210.3v-2.4h-1.4v2.1C-219.1,210.1-218.6,210.2-218.2,210.3z"/>
			<path id="XMLID_197_" class="st1" d="M-219.5,219.4v1.8h1.4v-2.1C-218.6,219.3-219.1,219.4-219.5,219.4z"/>
		</g>
		<polygon id="XMLID_200_" class="st1" points="-211.9,218 -215.5,218 -215.5,211.3 -211.9,211.3 -211.9,212.6 -214.2,212.6 
			-214.2,216.6 -211.9,216.6 		"/>
		<rect id="XMLID_204_" x="-214.4" y="214" class="st1" width="1.8" height="1.4"/>
		<polygon id="XMLID_189_" class="st1" points="-210.7,218 -206.2,211.3 -207.8,211.3 -212.3,218 		"/>
		<polygon id="XMLID_203_" class="st1" points="-206.1,218 -210.6,211.3 -212.2,211.3 -207.7,218 		"/>
	</g>
	<path id="XMLID_24_" class="st1" d="M-216.2,131.4h-16.9v-2.5h3v-1.5h-0.9v-2.1h12.6v2.1h-0.9v1.5h3v2.5H-216.2z M-209.4,126.8
		c-0.7,0.8-1.8,0.8-2.5,0.2l-6-5.8l0.5-0.5l-3.6-3.5l-1.1,1.1l0.3,0.3c0.4,0.4,0.4,1,0.1,1.4l-0.4,0.4c-0.4,0.4-1,0.4-1.4,0.1
		l-4.7-4.5c-0.4-0.4-0.4-1-0.1-1.4l0.4-0.4c0.4-0.4,1-0.4,1.4-0.1l0.4,0.4l3.8-3.9l-0.4-0.4c-0.4-0.4-0.4-1-0.1-1.4l0.4-0.4
		c0.4-0.4,1-0.4,1.4-0.1l4.7,4.5c0.4,0.4,0.4,1,0,1.4l-0.4,0.4c-0.4,0.4-1,0.4-1.4,0.1l-0.3-0.3l-1.1,1.1l3.6,3.5l0.5-0.5l6,5.8
		C-208.6,125-208.7,126.1-209.4,126.8z"/>
</g>
</svg>
