<?xml version="1.0" encoding="utf-8"?>
<!-- Generator: Adobe Illustrator 19.0.0, SVG Export Plug-In . SVG Version: 6.00 Build 0)  -->
<svg version="1.1" id="Layer_1" xmlns="http://www.w3.org/2000/svg" xmlns:xlink="http://www.w3.org/1999/xlink" x="0px" y="0px"
	 viewBox="-884 217 271.8 417.4" style="enable-background:new -884 217 271.8 417.4;" xml:space="preserve">
<style type="text/css">
	.st0{fill:#EC2227;}
	.st1{fill:#FFFFFF;}
	.st2{font-family:'MyriadPro-Regular';}
	.st3{font-size:6.8317px;}
	.st4{fill:none;}
	.st5{fill:#FFFFFF;stroke:#292E33;stroke-width:4;}
</style>
<g id="Background">
</g>
<g id="XMLID_209_">
	<g id="XMLID_471_">
		<path id="XMLID_181_" class="st0" d="M-750.1,247.6c0.9,0,2,0.2,2.5,0.4v-10.8l-2.5,2.4l-2.5-2.4V248
			C-751.1,247.7-750.9,247.6-750.1,247.6z"/>
		<path id="XMLID_180_" class="st0" d="M-750.1,263.2c-0.9,0-1-0.2-2.5-0.4v17.3l2.5,3.2l2.5-3.2v-17.3
			C-748.1,263-749.2,263.2-750.1,263.2z"/>
	</g>
	<circle id="XMLID_179_" class="st0" cx="-749.7" cy="255.4" r="3"/>
	<path id="XMLID_50_" class="st0" d="M-749.7,246.2c-4.7,0-8.6,3.6-9.3,8.1h3.3c0.7-2.5,3.1-4.9,6-4.9c3.4,0,6.2,2.7,6.2,6.1
		c0,3.4-2.8,6.4-6.2,6.4c-3.1,0-5.7-2.1-6.1-5.1h-3.3c0.5,4.5,4.5,8.2,9.4,8.2c5.2,0,9.4-4.3,9.4-9.4
		C-740.3,250.5-744.5,246.2-749.7,246.2z"/>
	<g id="XMLID_466_">
		<path id="XMLID_178_" class="st0" d="M-750.1,295.1c-0.9,0-1,0.2-2.5,0.4v-10.8l2.5,2.4l2.5-2.4v10.8
			C-748.1,295.2-749.2,295.1-750.1,295.1z"/>
		<path id="XMLID_177_" class="st0" d="M-750.1,310.6c0.9,0,2-0.2,2.5-0.4v17.3l-2.5,3.2l-2.5-3.2v-17.3
			C-751.1,310.5-750.9,310.6-750.1,310.6z"/>
	</g>
	<circle id="XMLID_176_" class="st0" cx="-749.7" cy="302.9" r="3"/>
	<path id="XMLID_49_" class="st0" d="M-749.7,293.2c4.7,0,8.6,3.7,9.3,7.7h-3.3c-0.7-2.5-3.1-4.5-6-4.5c-3.4,0-6.2,2.9-6.2,6.3
		c0,3.4,2.8,6.3,6.2,6.3c3.1,0,5.7-1.7,6.1-5.2h3.3c-0.5,5-4.5,8.4-9.4,8.4c-5.2,0-9.4-4.4-9.4-9.6S-754.9,293.2-749.7,293.2z"/>
	<g id="XMLID_461_">
		<path id="XMLID_175_" class="st0" d="M-750.1,342.5c0.9,0,2,0.2,2.5,0.4v-10.8l-2.5,2.4l-2.5-2.4v10.8
			C-751.1,342.7-750.9,342.5-750.1,342.5z"/>
		<path id="XMLID_174_" class="st0" d="M-750.1,358.1c-0.9,0-1-0.2-2.5-0.4V375l2.5,3.2l2.5-3.2v-17.3
			C-748.1,357.9-749.2,358.1-750.1,358.1z"/>
	</g>
	<circle id="XMLID_173_" class="st0" cx="-749.7" cy="350.3" r="3"/>
	<path id="XMLID_48_" class="st0" d="M-749.7,340.9c-4.7,0-8.6,4.5-9.3,8h3.3c0.7-2.5,3.1-4.7,6-4.7c3.4,0,6.2,2.8,6.2,6.2
		c0,3.4-2.8,6.3-6.2,6.3c-3.1,0-5.7-2.7-6.1-5.2h-3.3c0.5,4.5,4.5,8.4,9.4,8.4c5.2,0,9.4-4.3,9.4-9.4
		C-740.3,345.2-744.5,340.9-749.7,340.9z"/>
	<g id="XMLID_456_">
		<path id="XMLID_172_" class="st0" d="M-750.1,390c-0.9,0-1,0.2-2.5,0.4v-10.8l2.5,2.4l2.5-2.4v10.8
			C-748.1,390.1-749.2,390-750.1,390z"/>
		<path id="XMLID_171_" class="st0" d="M-750.1,405.6c0.9,0,2-0.2,2.5-0.4v17.3l-2.5,3.2l-2.5-3.2v-17.3
			C-751.1,405.4-750.9,405.6-750.1,405.6z"/>
	</g>
	<circle id="XMLID_170_" class="st0" cx="-749.7" cy="397.8" r="3"/>
	<path id="XMLID_47_" class="st0" d="M-749.7,388.7c4.7,0,8.6,3.2,9.3,8.2h-3.3c-0.7-3-3.1-5-6-5c-3.4,0-6.2,2.6-6.2,6
		c0,3.4,2.8,6,6.2,6c3.1,0,5.7-2,6.1-5.5h3.3c-0.5,5.5-4.5,8.6-9.4,8.6c-5.2,0-9.4-4-9.4-9.2C-759.1,392.7-754.9,388.7-749.7,388.7z
		"/>
	<g id="XMLID_451_">
		<path id="XMLID_169_" class="st0" d="M-750.1,437.4c0.9,0,2,0.2,2.5,0.4v-10.8l-2.5,2.4l-2.5-2.4v10.8
			C-751.1,437.6-750.9,437.4-750.1,437.4z"/>
		<path id="XMLID_168_" class="st0" d="M-750.1,453c-0.9,0-1-0.2-2.5-0.4v17.3l2.5,3.2l2.5-3.2v-17.3
			C-748.1,452.9-749.2,453-750.1,453z"/>
	</g>
	<circle id="XMLID_167_" class="st0" cx="-749.7" cy="445.2" r="3"/>
	<path id="XMLID_46_" class="st0" d="M-749.7,435.9c-4.7,0-8.6,3.5-9.3,8h3.3c0.7-2.5,3.1-4.8,6-4.8c3.4,0,6.2,2.7,6.2,6.1
		s-2.8,6.3-6.2,6.3c-3.1,0-5.7-2.2-6.1-5.2h-3.3c0.5,4,4.5,8.3,9.4,8.3c5.2,0,9.4-4.3,9.4-9.4C-740.3,440.1-744.5,435.9-749.7,435.9
		z"/>
	<g id="XMLID_446_">
		<path id="XMLID_166_" class="st0" d="M-750.1,484.9c-0.9,0-1,0.2-2.5,0.4v-10.8l2.5,2.4l2.5-2.4v10.8
			C-748.1,485-749.2,484.9-750.1,484.9z"/>
		<path id="XMLID_165_" class="st0" d="M-750.1,500.5c0.9,0,2-0.2,2.5-0.4v17.3l-2.5,3.2l-2.5-3.2v-17.3
			C-751.1,500.3-750.9,500.5-750.1,500.5z"/>
	</g>
	<circle id="XMLID_164_" class="st0" cx="-749.7" cy="492.7" r="3"/>
	<path id="XMLID_45_" class="st0" d="M-749.7,483.7c4.7,0,8.6,2.8,9.3,8.3h-3.3c-0.7-3-3.1-5.1-6-5.1c-3.4,0-6.2,2.6-6.2,6
		s2.8,6,6.2,6c3.1,0,5.7-1.9,6.1-5.4h3.3c-0.5,5-4.5,8.6-9.4,8.6c-5.2,0-9.4-4-9.4-9.2C-759.1,487.8-754.9,483.7-749.7,483.7z"/>
	<polygon id="XMLID_44_" class="st0" points="-698.1,338.4 -729.6,338.4 -729.6,303.4 -748.1,303.4 -748.1,302.4 -729.1,302.4 
		-729.1,337.9 -699.1,337.9 -699.1,328.9 -698.1,328.9 	"/>
	<path id="XMLID_43_" class="st0" d="M-702.3,319.4h46.7c1.8,0,3.5,1.1,3.5,2.9v4.2c0,1.8-1.8,3-3.5,3h-40.7c0.3,0,0.5-0.7,0.5-1.2
		c0-1.2-1-2.1-2.2-2.1s-2.2,0.9-2.2,2.1c0,0.5,0.2,1.3,0.5,1.3h-2.7c-1.8,0-3.3-1.3-3.3-3v-4.2
		C-705.6,320.4-704.1,319.4-702.3,319.4z"/>
	<circle id="XMLID_163_" class="st0" cx="-698" cy="328.3" r="1.3"/>
	<polygon id="XMLID_42_" class="st0" points="-698.1,433.9 -729.6,433.9 -729.6,397.9 -748.1,397.9 -748.1,396.9 -729.1,396.9 
		-729.1,433.4 -699.1,433.4 -699.1,424.4 -698.1,424.4 	"/>
	<path id="XMLID_41_" class="st0" d="M-702.3,413.9h46.7c1.8,0,3.5,1.5,3.5,3.2v4.2c0,1.8-1.8,3.2-3.5,3.2h-40.7
		c0.3,0,0.5-0.8,0.5-1.3c0-1.2-1-2.2-2.2-2.2s-2.2,1-2.2,2.2c0,0.5,0.2,1.3,0.5,1.3h-2.7c-1.8,0-3.3-1.4-3.3-3.2v-4.2
		C-705.6,415.4-704.1,413.9-702.3,413.9z"/>
	<circle id="XMLID_162_" class="st0" cx="-698" cy="423.2" r="1.3"/>
	<polygon id="XMLID_40_" class="st0" points="-698.1,528.5 -729.6,528.5 -729.6,493.5 -748.1,493.5 -748.1,493 -729.1,493 
		-729.1,527.5 -699.1,527.5 -699.1,519 -698.1,519 	"/>
	<path id="XMLID_39_" class="st0" d="M-702.3,509h46.7c1.8,0,3.5,1.3,3.5,3.1v4.2c0,1.8-1.8,3.3-3.5,3.3h-40.7
		c0.3,0,0.5-0.9,0.5-1.4c0-1.2-1-2.2-2.2-2.2s-2.2,1-2.2,2.2c0,0.5,0.2,1.4,0.5,1.4h-2.7c-1.8,0-3.3-1.5-3.3-3.3v-4.2
		C-705.6,510.3-704.1,509-702.3,509z"/>
	<circle id="XMLID_161_" class="st0" cx="-698" cy="518.1" r="1.3"/>
	<g id="XMLID_432_">
		<path id="XMLID_160_" class="st0" d="M-750.1,532.7c0.9,0,2,0.2,2.5,0.4v-10.8l-2.5,2.4l-2.5-2.4v10.8
			C-751.1,532.8-750.9,532.7-750.1,532.7z"/>
		<path id="XMLID_159_" class="st0" d="M-750.1,548.3c-0.9,0-1-0.2-2.5-0.4v17.3l2.5,3.2l2.5-3.2v-17.3
			C-748.1,548.2-749.2,548.3-750.1,548.3z"/>
	</g>
	<circle id="XMLID_158_" class="st0" cx="-750.6" cy="540.5" r="3"/>
	<path id="XMLID_38_" class="st0" d="M-750.6,531.6c-4.7,0-8.6,2.9-9.3,8.4h3.3c0.7-2.5,3.1-5.2,6-5.2c3.4,0,6.2,2.5,6.2,6
		s-2.8,5.9-6.2,5.9c-3.1,0-5.7-1.6-6.1-5.6h-3.3c0.5,5,4.5,8.7,9.4,8.7c5.2,0,9.4-3.9,9.4-9.1S-745.4,531.6-750.6,531.6z"/>
	<polygon id="XMLID_37_" class="st0" points="-802.1,576.5 -771.1,576.5 -771.1,541 -751.1,541 -751.1,540.5 -771.6,540.5 
		-771.6,575 -801.1,575 -801.1,567 -802.1,567 	"/>
	<path id="XMLID_36_" class="st0" d="M-797.9,556.5h-46.7c-1.8,0-2.5,1.6-2.5,3.4v4.2c0,1.8,0.7,3.5,2.5,3.5h40.7
		c-0.3,0-0.5-1-0.5-1.5c0-1.2,1-2.2,2.2-2.2s2.2,1.1,2.2,2.3c0,0.5-0.2,1.5-0.5,1.5h2.7c1.8,0,3.8-1.7,3.8-3.5v-4.2
		C-794.1,558.1-796.2,556.5-797.9,556.5z"/>
	<circle id="XMLID_157_" class="st0" cx="-802.3" cy="565.9" r="1.3"/>
	<polygon id="XMLID_35_" class="st0" points="-802.1,481 -771.1,481 -771.1,445.9 -751.1,445.9 -751.1,444.4 -771.6,444.4 
		-771.6,480 -801.1,480 -801.1,471 -802.1,471 	"/>
	<path id="XMLID_34_" class="st0" d="M-797.9,460.5h-46.7c-1.8,0-2.5,2-2.5,3.8v4.2c0,1.8,0.7,3.6,2.5,3.6h40.7
		c-0.3,0-0.5-1-0.5-1.5c0-1.2,1-2.3,2.2-2.3s2.2,1.1,2.2,2.3c0,0.5-0.2,1.5-0.5,1.5h2.7c1.8,0,3.8-1.8,3.8-3.6v-4.2
		C-794.1,462.5-796.2,460.5-797.9,460.5z"/>
	<circle id="XMLID_156_" class="st0" cx="-802.3" cy="470.3" r="1.3"/>
	<polygon id="XMLID_33_" class="st0" points="-802.1,385.9 -771.1,385.9 -771.1,350.9 -751.1,350.9 -751.1,350.4 -771.6,350.4 
		-771.6,384.9 -801.1,384.9 -801.1,376.9 -802.1,376.9 	"/>
	<path id="XMLID_32_" class="st0" d="M-797.9,366.4h-46.7c-1.8,0-2.5,1.3-2.5,3.1v4.2c0,1.8,0.7,3.8,2.5,3.8h40.7
		c-0.3,0-0.5-1.1-0.5-1.6c0-1.2,1-2.3,2.2-2.3s2.2,1.2,2.2,2.4c0,0.5-0.2,1.6-0.5,1.6h2.7c1.8,0,3.8-2.1,3.8-3.8v-4.2
		C-794.1,367.7-796.2,366.4-797.9,366.4z"/>
	<circle id="XMLID_155_" class="st0" cx="-802.3" cy="375.5" r="1.3"/>
	<polygon id="XMLID_31_" class="st0" points="-802.1,291.4 -771.1,291.4 -771.1,255.8 -751.1,255.8 -751.1,254.8 -771.6,254.8 
		-771.6,290.4 -801.1,290.4 -801.1,281.9 -802.1,281.9 	"/>
	<path id="XMLID_30_" class="st0" d="M-797.9,271.3h-46.7c-1.8,0-2.5,1.6-2.5,3.3v4.2c0,1.8,0.7,3.6,2.5,3.6h40.7
		c-0.3,0-0.5-1-0.5-1.5c0-1.2,1-2.3,2.2-2.3s2.2,1.1,2.2,2.3c0,0.5-0.2,1.5-0.5,1.5h2.7c1.8,0,3.8-1.8,3.8-3.6v-4.2
		C-794.1,272.8-796.2,271.3-797.9,271.3z"/>
	<circle id="XMLID_154_" class="st0" cx="-802.3" cy="280.7" r="1.3"/>
	<g id="XMLID_415_">
		<path id="XMLID_153_" class="st0" d="M-750.1,580.5c-0.9,0-1,0.2-2.5,0.4v-10.8l2.5,2.4l2.5-2.4v10.8
			C-748.1,580.7-749.2,580.5-750.1,580.5z"/>
		<path id="XMLID_152_" class="st0" d="M-750.1,596.1c0.9,0,2-0.2,2.5-0.4V613l-2.5,3.2l-2.5-3.2v-17.3
			C-751.1,596-750.9,596.1-750.1,596.1z"/>
	</g>
	<circle id="XMLID_151_" class="st0" cx="-749.7" cy="588.3" r="3"/>
	<path id="XMLID_29_" class="st0" d="M-749.7,579.3c4.7,0,8.6,3.3,9.3,8.3h-3.3c-0.7-2.5-3.1-5.1-6-5.1c-3.4,0-6.2,2.6-6.2,6
		s2.8,6,6.2,6c3.1,0,5.7-2,6.1-5.5h3.3c-0.5,5.5-4.5,8.6-9.4,8.6c-5.2,0-9.4-4-9.4-9.2C-759.1,583.3-754.9,579.3-749.7,579.3z"/>
	<polygon id="XMLID_28_" class="st0" points="-698.1,624.1 -729.6,624.1 -729.6,589 -748.1,589 -748.1,588 -729.1,588 -729.1,623.6 
		-699.1,623.6 -699.1,614.5 -698.1,614.5 	"/>
	<path id="XMLID_27_" class="st0" d="M-702.3,604.5h46.7c1.8,0,3.5,1.4,3.5,3.2v4.2c0,1.8-1.8,3.7-3.5,3.7h-40.7
		c0.3,0,0.5-1.1,0.5-1.6c0-1.2-1-2.3-2.2-2.3s-2.2,1.2-2.2,2.4c0,0.5,0.2,1.5,0.5,1.5h-2.7c-1.8,0-3.3-2-3.3-3.7v-4.2
		C-705.6,605.9-704.1,604.5-702.3,604.5z"/>
	<circle id="XMLID_150_" class="st0" cx="-698" cy="613.7" r="1.3"/>
	<text id="XMLID_149_" transform="matrix(1 0 0 1 -690.9171 326.1949)" class="st1 st2 st3">01/2018</text>
	<text id="XMLID_148_" transform="matrix(1 0 0 1 -832.6744 373.59)" class="st1 st2 st3">01/2018</text>
	<text id="XMLID_147_" transform="matrix(1 0 0 1 -690.9161 420.9855)" class="st1 st2 st3">02/2018</text>
	<text id="XMLID_146_" transform="matrix(1 0 0 1 -832.6744 468.379)" class="st1 st2 st3">03/2018</text>
	<text id="XMLID_145_" transform="matrix(1 0 0 1 -690.9171 516.2013)" class="st1 st2 st3">07/2018</text>
	<text id="XMLID_144_" transform="matrix(1 0 0 1 -832.6744 564.0245)" class="st1 st2 st3">12/2018</text>
	<text id="XMLID_143_" transform="matrix(1 0 0 1 -693.2765 623.8507)" class="st1 st2 st3">Launching Mycar App</text>
	<text id="XMLID_142_" transform="matrix(1 0 0 1 -840.1515 278.7999)" class="st1 st2 st3">9-31/12/2017</text>
	<g id="XMLID_400_">
		<circle id="XMLID_141_" class="st0" cx="-821" cy="342.7" r="22.1"/>
	</g>
	<g id="XMLID_398_">
		<circle id="XMLID_140_" class="st0" cx="-821" cy="437.5" r="22.1"/>
	</g>
	<g id="XMLID_396_">
		<circle id="XMLID_139_" class="st0" cx="-821" cy="532.3" r="22.1"/>
	</g>
	<g id="XMLID_394_">
		<circle id="XMLID_138_" class="st0" cx="-821" cy="247.9" r="22.1"/>
	</g>
	<g id="XMLID_392_">
		<circle id="XMLID_137_" class="st0" cx="-679.2" cy="294.9" r="22.1"/>
	</g>
	<g id="XMLID_390_">
		<circle id="XMLID_136_" class="st0" cx="-679.2" cy="389.7" r="22.1"/>
	</g>
	<g id="XMLID_388_">
		<circle id="XMLID_135_" class="st0" cx="-679.2" cy="484.5" r="22.1"/>
	</g>
	<g id="XMLID_386_">
		<circle id="XMLID_134_" class="st0" cx="-679.2" cy="580.1" r="22.1"/>
	</g>
	<g id="XMLID_3591_">
		<g id="XMLID_3602_">
			<path id="XMLID_3612_" class="st1" d="M-825.2,439.1c-0.9,0-1.1-0.2-1.1-0.3c-0.3-0.3-0.3-1.2-0.2-1.7c0.1-0.4,0.2-0.6,0.5-0.7
				c0.3-0.1,0.5-0.2,0.6-0.3c0.2-0.1,0.3-0.1,0.4-0.2l0.1-0.1c0.6-0.4,1.2-0.9,1.7-0.9c0.1,0,2.8-0.3,3.4,0.1
				c0.2,0.1,0.4,0.3,0.7,0.4c0.4,0.3,1,0.6,1.3,0.7c0.1,0,0.3,0.1,0.4,0.1c0.8,0.1,2.4,0.3,2.4,2l0,0c-0.1,0.7-0.9,0.8-1.6,0.8
				c-0.2,0-0.3-0.2-0.3-0.3c0-0.2,0.2-0.3,0.3-0.3c0.6,0,1-0.1,1-0.2c0-1.1-0.9-1.3-1.9-1.4c-0.2,0-0.4-0.1-0.5-0.1
				c-0.4-0.1-1-0.5-1.4-0.7c-0.3-0.2-0.5-0.3-0.6-0.4c-0.3-0.2-2.4-0.1-3.1,0c-0.2,0-0.5,0.2-1.4,0.8l-0.1,0.1
				c-0.2,0.1-0.3,0.2-0.5,0.3c-0.2,0.1-0.3,0.1-0.6,0.2c-0.2,0.2-0.2,1.2-0.1,1.5c0.2,0.1,0.5,0.1,0.9,0.1c0.2,0,0.3,0.1,0.3,0.3
				c0,0.2-0.1,0.3-0.3,0.3C-825.1,439.1-825.2,439.1-825.2,439.1z"/>
			<path id="XMLID_3609_" class="st1" d="M-817.8,439.9c-0.6,0-1.1-0.5-1.1-1.1s0.5-1.1,1.1-1.1s1.1,0.5,1.1,1.1
				S-817.2,439.9-817.8,439.9z M-817.8,438.2c-0.3,0-0.6,0.3-0.6,0.6c0,0.3,0.3,0.6,0.6,0.6s0.6-0.3,0.6-0.6
				C-817.2,438.5-817.5,438.2-817.8,438.2z"/>
			<path id="XMLID_3606_" class="st1" d="M-824,439.9c-0.6,0-1.1-0.5-1.1-1.1s0.5-1.1,1.1-1.1s1.1,0.5,1.1,1.1
				C-822.9,439.4-823.4,439.9-824,439.9z M-824,438.2c-0.3,0-0.6,0.3-0.6,0.6c0,0.3,0.3,0.6,0.6,0.6s0.6-0.3,0.6-0.6
				C-823.5,438.5-823.7,438.2-824,438.2z"/>
			<path id="XMLID_3605_" class="st1" d="M-818.8,437.9L-818.8,437.9c-0.6,0-3.3-0.1-4-0.5c-0.8-0.5-0.9-1.2-0.9-1.3
				c-0.1-0.2,0-0.3,0.2-0.4c0.2-0.1,0.3,0.1,0.4,0.2c0,0,0.2,0.6,0.7,0.9c0.4,0.3,2.5,0.4,3.7,0.4c0.2,0,0.3,0.2,0.3,0.3
				C-818.6,437.8-818.7,437.9-818.8,437.9z"/>
			<path id="XMLID_3604_" class="st1" d="M-818.6,439h-4.6c-0.2,0-0.3-0.2-0.3-0.3s0.2-0.3,0.3-0.3h4.6c0.2,0,0.3,0.2,0.3,0.3
				C-818.3,438.9-818.4,439-818.6,439z"/>
			<path id="XMLID_3603_" class="st1" d="M-816.7,439c-0.1,0-0.1,0-0.2,0c-0.2,0-0.3-0.2-0.3-0.3c0-0.2,0.2-0.3,0.3-0.3
				c0.3,0.1,0.6-0.1,0.8-0.2c0.1-0.1,0.1-0.1,0.1-0.1l0,0c0.1-0.9-0.9-1.1-1.8-1.2c-0.2,0-0.4-0.1-0.5-0.1s-0.3-0.2-0.2-0.4
				c0.1-0.2,0.2-0.3,0.4-0.2c0.1,0,0.3,0.1,0.4,0.1c0.8,0.1,2.4,0.3,2.4,1.8c0,0.2-0.1,0.4-0.3,0.6
				C-815.9,438.9-816.3,439-816.7,439z"/>
		</g>
		<g id="XMLID_3599_">
			<path id="XMLID_3601_" class="st1" d="M-826.6,441.7c-0.1,0-0.2-0.1-0.3-0.1c-1.7-2.5-1.7-5.8,0-8.2c0.1-0.2,0.3-0.2,0.4-0.1
				c0.2,0.1,0.2,0.3,0,0.4c-1.6,2.3-1.6,5.3,0,7.6c0.1,0.2,0.1,0.3,0,0.4C-826.5,441.7-826.5,441.7-826.6,441.7z"/>
			<path id="XMLID_3600_" class="st1" d="M-821,444.6c-1.5,0-2.9-0.5-4.1-1.3c-0.2-0.1-0.2-0.3-0.1-0.4s0.3-0.2,0.4-0.1
				c2.3,1.6,5.3,1.6,7.6,0c0.2-0.1,0.3-0.1,0.4,0.1c0.1,0.2,0,0.3-0.1,0.4C-818.1,444.2-819.5,444.6-821,444.6z"/>
		</g>
		<g id="XMLID_3596_">
			<path id="XMLID_3598_" class="st1" d="M-817.1,432.1c0,0-0.1,0-0.2-0.1c-2.3-1.6-5.3-1.6-7.6,0c-0.2,0.1-0.3,0.1-0.4-0.1
				c-0.1-0.2,0-0.3,0.1-0.4c2.5-1.7,5.8-1.7,8.2,0c0.2,0.1,0.2,0.3,0.1,0.4C-816.9,432.1-817,432.1-817.1,432.1z"/>
			<path id="XMLID_3597_" class="st1" d="M-815.4,441.7c0,0-0.1,0-0.2-0.1c-0.2-0.1-0.2-0.3-0.1-0.4c1.6-2.3,1.6-5.3,0-7.6
				c-0.1-0.2,0-0.3,0.1-0.4c0.2-0.1,0.3-0.1,0.4,0.1c1.7,2.5,1.7,5.8,0,8.2C-815.2,441.6-815.3,441.7-815.4,441.7z"/>
		</g>
		<circle id="XMLID_3595_" class="st1" cx="-815.6" cy="441.7" r="0.7"/>
		<circle id="XMLID_3594_" class="st1" cx="-826.4" cy="433.2" r="0.7"/>
		<circle id="XMLID_3593_" class="st1" cx="-816.7" cy="432.1" r="0.7"/>
		<circle id="XMLID_3592_" class="st1" cx="-825.3" cy="442.8" r="0.7"/>
	</g>
	<g id="XMLID_2_">
		<g id="XMLID_12_">
			<path id="XMLID_22_" class="st1" d="M-682.1,579.2c-0.6,0-0.7-0.1-0.8-0.2c-0.2-0.2-0.2-0.8-0.1-1.2c0.1-0.3,0.2-0.4,0.3-0.5
				c0.2,0,0.3-0.1,0.4-0.2c0.1,0,0.2,0,0.3-0.1l0-0.1c0.4-0.3,0.8-0.6,1.1-0.6c0,0,1.9-0.2,2.3,0.1c0.1,0,0.3,0.2,0.5,0.3
				c0.3,0.2,0.6,0.4,0.9,0.5c0.1,0,0.2,0.1,0.3,0.1c0.5,0,1.6,0.2,1.6,1.3l0,0c-0.1,0.5-0.6,0.5-1.1,0.5c-0.1,0-0.2-0.1-0.2-0.2
				c0-0.1,0.1-0.2,0.2-0.2c0.4,0,0.7-0.1,0.7-0.2c0-0.7-0.6-0.8-1.3-0.9c-0.2,0-0.3-0.1-0.3-0.1c-0.3,0-0.7-0.3-1-0.5
				c-0.2-0.1-0.3-0.2-0.4-0.3c-0.2-0.1-1.6,0-2.1,0c-0.1,0-0.4,0.1-0.9,0.5l-0.1,0.1c-0.1,0-0.2,0.1-0.4,0.2c-0.1,0-0.2,0-0.4,0.2
				c-0.1,0.1-0.2,0.8-0.1,1c0.1,0.1,0.4,0.1,0.6,0.1c0.1,0,0.2,0.1,0.2,0.2c0,0.1-0.1,0.2-0.2,0.2
				C-682,579.2-682.1,579.2-682.1,579.2z"/>
			<path id="XMLID_19_" class="st1" d="M-677.1,579.7c-0.4,0-0.8-0.4-0.8-0.8c0-0.4,0.4-0.8,0.8-0.8s0.8,0.4,0.8,0.8
				C-676.3,579.4-676.7,579.7-677.1,579.7z M-677.1,578.6c-0.2,0-0.4,0.2-0.4,0.4s0.2,0.4,0.4,0.4s0.4-0.2,0.4-0.4
				S-676.9,578.6-677.1,578.6z"/>
			<path id="XMLID_16_" class="st1" d="M-681.3,579.7c-0.4,0-0.8-0.4-0.8-0.8c0-0.4,0.4-0.8,0.8-0.8c0.4,0,0.8,0.4,0.8,0.8
				C-680.5,579.4-680.9,579.7-681.3,579.7z M-681.3,578.6c-0.2,0-0.4,0.2-0.4,0.4s0.2,0.4,0.4,0.4s0.4-0.2,0.4-0.4
				S-681.1,578.6-681.3,578.6z"/>
			<path id="XMLID_15_" class="st1" d="M-677.8,578.4L-677.8,578.4c-0.4,0-2.2-0.1-2.7-0.3c-0.5-0.3-0.6-0.8-0.6-0.9
				c0-0.1,0.1-0.2,0.2-0.3c0.1,0,0.2,0,0.3,0.2c0,0,0.1,0.4,0.5,0.6c0.3,0.2,1.7,0.3,2.5,0.3c0.1,0,0.2,0.1,0.2,0.2
				C-677.6,578.3-677.7,578.4-677.8,578.4z"/>
			<path id="XMLID_14_" class="st1" d="M-677.6,579.1h-3.1c-0.1,0-0.2-0.1-0.2-0.2c0-0.1,0.1-0.2,0.2-0.2h3.1c0.1,0,0.2,0.1,0.2,0.2
				C-677.4,579-677.5,579.1-677.6,579.1z"/>
			<path id="XMLID_13_" class="st1" d="M-676.3,579.2c-0.1,0-0.1,0-0.1,0c-0.1,0-0.2-0.1-0.2-0.2c0-0.1,0.1-0.2,0.2-0.2
				c0.2,0,0.4-0.1,0.5-0.2l0.1-0.1l0,0c0.1-0.6-0.6-0.8-1.2-0.8c-0.2,0-0.3-0.1-0.4-0.1c-0.1,0-0.2-0.2-0.2-0.3
				c0.1-0.1,0.2-0.2,0.3-0.2c0.1,0,0.2,0.1,0.3,0.1c0.5,0,1.6,0.2,1.6,1.2c0,0.2,0,0.3-0.2,0.4
				C-675.8,579.1-676.1,579.2-676.3,579.2z"/>
		</g>
		<g id="XMLID_9_">
			<path id="XMLID_11_" class="st1" d="M-683,580.9c0,0-0.1,0-0.2-0.1c-1.2-1.7-1.2-3.9,0-5.5c0-0.1,0.2-0.1,0.3,0
				c0.1,0,0.1,0.2,0.1,0.3c-1.1,1.5-1.1,3.5,0,5c0,0.1,0,0.2-0.1,0.3C-682.9,580.9-683,580.9-683,580.9z"/>
			<path id="XMLID_10_" class="st1" d="M-679.2,582.9c-1,0-1.9-0.3-2.8-0.9c-0.1,0-0.1-0.2-0.1-0.3c0.1-0.1,0.2-0.1,0.3-0.1
				c1.5,1.1,3.5,1.1,5,0c0.1,0,0.2,0,0.3,0.1c0,0.1,0,0.2-0.1,0.3C-677.3,582.6-678.3,582.9-679.2,582.9z"/>
		</g>
		<g id="XMLID_6_">
			<path id="XMLID_8_" class="st1" d="M-676.6,574.6c-0.1,0-0.1,0-0.1-0.1c-1.5-1.1-3.5-1.1-5,0c-0.1,0.1-0.2,0.1-0.3,0
				c-0.1-0.1-0.1-0.2,0-0.3c1.7-1.2,3.9-1.2,5.5,0c0.1,0.1,0.1,0.2,0,0.3C-676.5,574.5-676.5,574.6-676.6,574.6z"/>
			<path id="XMLID_7_" class="st1" d="M-675.5,580.9c-0.1,0-0.1,0-0.1,0c-0.1-0.1-0.1-0.2,0-0.3c1.1-1.5,1.1-3.5,0-5
				c-0.1-0.1-0.1-0.2,0-0.3c0.1-0.1,0.2-0.1,0.3,0c1.2,1.7,1.2,3.9,0,5.5C-675.3,580.9-675.4,580.9-675.5,580.9z"/>
		</g>
		<circle id="XMLID_5_" class="st1" cx="-675.6" cy="581" r="0.4"/>
		<circle id="XMLID_4_" class="st1" cx="-682.8" cy="575.3" r="0.4"/>
		<circle id="XMLID_3_" class="st1" cx="-676.4" cy="574.5" r="0.4"/>
		<circle id="XMLID_23_" class="st1" cx="-682.1" cy="581.7" r="0.4"/>
	</g>
	<path id="XMLID_5196_" class="st1" d="M-691.7,298.2c0-0.2-0.2-0.3-0.4-0.3h-2.7c-0.2,0-0.4,0.2-0.4,0.3v4.9c0,0.2,0.2,0.3,0.4,0.3
		h2.7c0.2,0,0.4-0.2,0.4-0.3V298.2z M-693.4,302.6c-0.4,0-0.7-0.4-0.7-0.8s0.3-0.8,0.7-0.8c0.4,0,0.7,0.4,0.7,0.8
		C-692.7,302.3-693,302.6-693.4,302.6z M-675.9,297.9c-0.2,0.1-0.2,0.1-0.2,0.1l-4.5,2.2c0,0,1.1,1.5-0.8,2.2
		c-1.3,0.3-3.9-0.9-3.9-0.9l0.4-0.4c0,0,2.6,1.2,3.6,0.7c1-0.4,0.5-1.3,0.3-1.3c-0.2-0.1-2.8-1.7-5.9-2.8c-1.6-0.5-4.3,1-4.3,1v4.2
		h2.7c0,0,4.3,1.6,6.2,1.2c1.9-0.4,6.5-3.2,8.1-4.9C-673.5,297.1-675.7,297.9-675.9,297.9z M-667.9,287.4h-0.6
		c-0.4,0-0.9-0.1-1.2-0.3l-3.4-1.5c-0.3-0.2-0.9-0.2-1.2-0.1l-2.9,0.6c-0.4,0.1-0.9,0.4-1.1,0.6l-1.6,1.7c-0.3,0.3-0.5,0.6-0.5,0.7
		c0,0.2,0.3,0.3,0.7,0.3h0.5c0.4,0,0.9-0.2,1.2-0.4l0.4-0.3c0.3-0.2,1.5-0.8,1.8-0.8c0,0,1.1,0.2,1.6,0.9c0.5,0.7,0.3,2,0,2.1
		l-1.5,0.7c-0.4,0-1.3,0.2-1.6,0.4c0,0-0.5,0.3,0,1.3c0.1,0.2,0.1,0.2,0.1,0.2c0,0.1,0.1,0.2,0.1,0.2h0.1c0,0,0.3,0,0.6,0l3.9-0.2
		c0.4,0,0.9-0.2,1.2-0.3l2.2-1c0.3-0.2,0.9-0.3,1.2-0.3h0.4c0.4,0,0.7-0.3,0.7-0.7v-3.2C-667.3,287.7-667.6,287.4-667.9,287.4z
		 M-675.6,291l0.1-1.3h-11.8v6.3h11.8l-0.1-2.1h-0.5v1.6h-11v-5.3h11v0.9L-675.6,291z M-677.7,291.3c0.1,0,0.2,0.1,0.3,0.2
		c0.1,0,0.2-0.1,0.2-0.1c-0.2-0.2-0.3-0.3-0.5-0.3c-0.5,0-0.8,0.8-0.8,1.7c0,1,0.4,1.7,0.8,1.7c0.2,0,0.5-0.2,0.6-0.5
		c-0.1,0-0.2,0-0.2,0c0,0,0,0,0,0c-0.1,0.2-0.3,0.3-0.4,0.3c-0.4,0-0.7-0.7-0.7-1.5C-678.4,292-678.1,291.3-677.7,291.3z
		 M-681.3,292.5c0-0.1,0.2-0.1,0.2-0.1c0.1-0.1,0-0.1,0-0.2s0-0.1,0-0.2c-0.1-0.1-0.2-0.1-0.2-0.1V292.5z M-681.9,293.4
		c0,0.1,0.1,0.2,0.1,0.2c0,0.1,0.1,0.1,0.2,0.1v-0.5c-0.1,0-0.2,0.1-0.2,0.1C-681.9,293.3-681.9,293.3-681.9,293.4z M-683.6,292.8
		c0,1.3,0.9,2.4,2.1,2.4c1.2,0,2.1-1.1,2.1-2.4s-0.9-2.4-2.1-2.4S-683.6,291.5-683.6,292.8z M-680.7,291.8c0.2,0.2,0.2,0.3,0.2,0.5
		c0,0.2,0,0.3-0.1,0.4s-0.1,0.2-0.2,0.2c0,0.1-0.2,0.1-0.2,0.2c-0.1,0.1-0.2,0.1-0.3,0.1l-0.2,0.1v0.6c0,0,0.3,0,0.5-0.1
		c0.2-0.1,0.3-0.1,0.3-0.1h0v0.6c-0.1,0.1-0.2,0.1-0.3,0.2c-0.2,0.1-0.4,0.1-0.4,0.1v0.5h-0.3v-0.5c-0.2,0-0.3-0.1-0.4-0.1
		c-0.1-0.1-0.2-0.1-0.3-0.2c-0.1-0.1-0.2-0.2-0.2-0.3c-0.1-0.1-0.1-0.2-0.1-0.3c0-0.2,0.1-0.4,0.2-0.5c0.1-0.1,0.3-0.2,0.6-0.3
		l0.2-0.1v-0.5c-0.2,0-0.3,0.1-0.4,0.1c-0.1,0.1-0.2,0.1-0.3,0.2v-0.6c0-0.1,0.2-0.1,0.3-0.1s0.3-0.1,0.4-0.1v-0.5h0.3v0.5
		C-681.1,291.6-680.8,291.6-680.7,291.8z M-686.1,292.8c0,1,0.4,1.7,0.8,1.7s0.8-0.8,0.8-1.7c0-1-0.4-1.7-0.8-1.7
		S-686.1,291.9-686.1,292.8z M-684.6,292.8c0,0.8-0.3,1.5-0.7,1.5c-0.4,0-0.7-0.7-0.7-1.5c0-0.8,0.3-1.5,0.7-1.5
		C-684.9,291.3-684.6,292-684.6,292.8z M-663.4,287.1c0-0.2-0.2-0.3-0.4-0.3h-2.9c-0.2,0-0.4,0.2-0.4,0.3v5.2c0,0.2,0.2,0.3,0.4,0.3
		h2.9c0.2,0,0.4-0.2,0.4-0.3V287.1z M-665,291.8c-0.4,0-0.7-0.4-0.7-0.8s0.3-0.8,0.7-0.8c0.4,0,0.7,0.4,0.7,0.8
		S-664.6,291.8-665,291.8z"/>
	<text id="XMLID_133_" transform="matrix(1 0 0 1 -693.3126 338.4601)" class="st1 st2 st3">Lending</text>
	<text id="XMLID_132_" transform="matrix(1 0 0 1 -838.0587 385.902)" class="st1 st2 st3">C-Cex.com</text>
	<text id="XMLID_62_" transform="matrix(1 0 0 1 -829.9366 291.5846)" class="st1 st2 st3">Auction</text>
	<g id="XMLID_2677_">
		<circle id="XMLID_2693_" class="st1" cx="-678.9" cy="484.1" r="4.8"/>
		<path id="XMLID_2681_" class="st1" d="M-667.4,479.4c0,0.2,0,0.4,0,0.5c0,0.2,0,0.4-0.1,0.6c0,0.2,0,0.4-0.1,0.6
			c-0.2,0.8-0.5,1.5-0.8,2.2c-0.1,0.2-0.2,0.3-0.3,0.5c-0.6-0.8-1.2-1.5-1.8-2.1c-0.5-0.5-1-1-1.6-1.5c-0.1-0.6-0.2-1.3-0.4-2
			c-0.2-0.6-0.3-1.3-0.6-2c0-0.2-0.2-0.4-0.3-0.6c0.7,0,1.3,0,2,0.2c0.5,0.1,0.9,0.3,1.3,0.4c0.3,0.1,0.6,0.3,0.8,0.5
			c0.2-0.3,0.5-0.6,0.8-0.8c-0.4-0.3-0.8-0.5-1.2-0.7c-0.5-0.2-1-0.4-1.5-0.5c-0.9-0.2-1.7-0.2-2.6-0.2c-0.1-0.2-0.2-0.4-0.3-0.5
			c-0.4-0.7-0.9-1.4-1.5-2c-0.3-0.3-0.7-0.6-1.1-0.9s-0.9-0.5-1.3-0.6c-0.3-0.1-0.5-0.2-0.8-0.2c0,0-0.1,0-0.2,0c-0.1,0-0.2,0-0.2,0
			s-0.1,0-0.2,0h-0.1l0,0h0h-0.1c-0.5,0-1.1,0.2-1.5,0.3c-0.5,0.2-1,0.5-1.4,0.8c-0.4,0.3-0.8,0.7-1.1,1.1c-0.6,0.7-1,1.4-1.4,2.1
			c-0.9-0.1-1.7,0-2.5,0.2c-0.5,0.1-1,0.3-1.5,0.5s-1,0.5-1.4,0.8c-0.4,0.3-0.8,0.7-1.1,1.2l-0.1,0.1v0.1l0,0v0.1l-0.1,0.2
			c0,0.1,0,0.1-0.1,0.2c-0.1,0.1-0.1,0.1-0.1,0.2c-0.1,0.3-0.2,0.5-0.2,0.7c0,0.1,0,0.1-0.1,0.2c0.2-0.1,0.3-0.1,0.4-0.1
			c0.2,0,0.5,0.1,0.7,0.1c0.2-0.8,0.6-1.5,1.3-2c0.3-0.3,0.7-0.5,1.1-0.7c0.4-0.2,0.8-0.3,1.3-0.4c0.6-0.1,1.2-0.2,1.8-0.2
			c-0.4,0.8-0.6,1.6-0.9,2.5c-0.2,0.8-0.4,1.6-0.5,2.4c-0.5,0.4-0.9,0.8-1.3,1.2c-0.7,0.7-1.3,1.4-1.8,2.1c-0.1-0.2-0.2-0.3-0.3-0.5
			c-0.2-0.4-0.4-0.7-0.5-1.1c-0.3,0.2-0.6,0.3-0.9,0.3c0.2,0.5,0.4,0.9,0.6,1.2c0.2,0.3,0.3,0.5,0.5,0.8c-0.5,0.7-0.8,1.4-1.1,2.2
			c-0.2,0.5-0.3,1-0.4,1.5c-0.1,0.5-0.1,1-0.1,1.5c0.1,0.3,0.1,0.5,0.2,0.8c0,0.1,0,0.1,0,0.2c0,0.1,0.1,0.1,0.1,0.2
			c0,0.1,0.1,0.1,0.1,0.2l0.1,0.1c0,0.1,0,0.1,0,0.1l0.1,0.1v0.1l0,0v0c0.1,0.1,0.1,0.1,0.1,0.2l0.1,0.2c0.1,0.1,0.1,0.1,0.1,0.2
			c0.2,0.2,0.3,0.4,0.5,0.6c0.4,0.4,0.8,0.6,1.2,0.9c0.4,0.2,0.9,0.4,1.3,0.5c0.9,0.3,1.7,0.3,2.5,0.3c0.3,0,0.6,0,0.9-0.1
			c0.4,0.7,0.8,1.4,1.3,2.1c0.3,0.4,0.7,0.8,1.1,1.1c0.3,0.3,0.7,0.5,1,0.7c0-0.3,0-0.5,0.2-0.7c-0.3-0.1-0.6-0.3-0.8-0.5
			c-0.4-0.3-0.7-0.6-1.1-0.9c-0.5-0.5-0.9-1.1-1.3-1.7c0.4-0.1,0.7-0.1,1-0.2c0.7-0.2,1.4-0.3,2-0.5c0.7-0.2,1.4-0.5,1.9-0.7
			c0.6,0.3,1.2,0.5,1.9,0.7c0.6,0.2,1.3,0.4,2,0.5c0.3,0.1,0.5,0.1,0.8,0.1c0,0.1-0.1,0.2-0.2,0.3c-0.4,0.6-0.9,1.3-1.5,1.8
			c-0.2,0.2-0.3,0.3-0.5,0.4c-0.2,0.1-0.3,0.3-0.5,0.4c-0.2,0.1-0.3,0.2-0.5,0.3c0.2,0.3,0.2,0.6,0.2,0.9l0,0
			c0.3-0.1,0.5-0.2,0.7-0.4c0.4-0.3,0.8-0.6,1.1-0.9c0.7-0.6,1.1-1.3,1.5-2c0.1-0.2,0.2-0.4,0.3-0.6c0.2,0,0.5,0,0.7,0.1
			c0.8,0,1.7-0.1,2.5-0.3c0.4-0.1,0.9-0.3,1.3-0.5c0.4-0.2,0.8-0.5,1.2-0.9c0.2-0.2,0.4-0.4,0.5-0.6c0.1-0.1,0.1-0.1,0.1-0.2
			l0.1-0.2c0-0.1,0-0.1,0.1-0.2c0,0,0,0,0,0l0,0v-0.1l0.1-0.1c0,0,0.1-0.1,0.1-0.1l0-0.1c0.1-0.1,0.1-0.1,0.1-0.2
			c0-0.1,0.1-0.1,0.1-0.2c0-0.1,0-0.1,0-0.2c0.1-0.3,0.1-0.5,0.2-0.8c0.1-0.5,0.1-1,0-1.5c-0.1-0.5-0.2-1-0.4-1.5
			c-0.3-0.8-0.7-1.5-1.1-2.2c0.2-0.3,0.4-0.5,0.5-0.8c0.4-0.7,0.8-1.5,1-2.3c0.1-0.5,0.2-0.9,0.2-1.4c0-0.3,0-0.6,0-0.9
			C-666.7,479.3-667.1,479.4-667.4,479.4z M-670.6,481.7c0.7,0.7,1.3,1.5,1.8,2.3c-0.2,0.4-0.5,0.8-0.7,1.1
			c-0.4,0.6-0.8,1.1-1.2,1.6c-0.4,0.5-0.8,0.9-1.2,1.3c0-0.3,0-0.6,0.1-0.8c0.1-0.9,0.1-1.6,0.1-2.1c0-0.3,0-0.5,0-0.6
			c0-0.1,0-0.2,0-0.2l0,0c0,0,0-0.1,0-0.2c0-0.1,0-0.3,0-0.6c0-0.5,0-1.2-0.1-2.1c0-0.3-0.1-0.5-0.1-0.8
			C-671.4,480.9-671,481.3-670.6,481.7z M-673.9,475.6c0.2,0.3,0.3,0.6,0.4,0.9c0.3,0.6,0.5,1.3,0.7,1.8c0.2,0.6,0.3,1.1,0.5,1.6
			c-0.2-0.1-0.3-0.2-0.4-0.3c-0.4-0.3-0.8-0.7-1.3-1c-0.4-0.3-0.9-0.6-1.3-0.9c-0.9-0.5-1.7-1-2.6-1.4c0.4-0.1,0.7-0.2,1-0.3
			C-675.8,475.8-674.9,475.6-673.9,475.6L-673.9,475.6z M-682.3,473.2c0.3-0.4,0.7-0.7,1-0.9c0.4-0.3,0.7-0.5,1.1-0.6
			c0.8-0.3,1.6-0.4,2.3-0.1c0.2,0.1,0.4,0.1,0.6,0.2c0.2,0.1,0.4,0.2,0.5,0.3c0.2,0.1,0.4,0.2,0.5,0.4c0.2,0.1,0.3,0.3,0.5,0.4
			c0.6,0.6,1.1,1.2,1.5,1.8c0.1,0.1,0.1,0.1,0.1,0.2c-0.9,0.1-1.8,0.3-2.6,0.5c-0.7,0.2-1.3,0.4-2,0.7c-0.7-0.3-1.3-0.5-2-0.7
			c-0.9-0.2-1.7-0.4-2.5-0.5C-683.1,474.1-682.7,473.6-682.3,473.2z M-685,478.2c0.3-0.9,0.6-1.8,1.1-2.7c1,0.1,1.9,0.2,2.8,0.5
			c0.4,0.1,0.7,0.2,1,0.3c-0.9,0.4-1.8,0.9-2.6,1.4c-0.5,0.3-0.9,0.6-1.3,0.9c-0.4,0.3-0.9,0.6-1.3,1l0,0.1
			C-685.2,479.1-685.1,478.6-685,478.2z M-687.3,481.7c0.3-0.3,0.7-0.7,1-1c-0.1,1.1-0.2,2.3-0.1,3.4c0,0.5,0.1,1.1,0.1,1.6
			c0.1,0.5,0.1,1.1,0.2,1.6c0,0.2,0.1,0.3,0.1,0.5c-0.4-0.4-0.8-0.8-1.2-1.2c-0.4-0.5-0.9-1-1.2-1.6c-0.3-0.4-0.5-0.7-0.7-1.1
			C-688.6,483.2-688,482.4-687.3,481.7z M-685.1,492.8c-0.8-0.1-1.5-0.2-2.3-0.4c-0.2-0.1-0.4-0.1-0.6-0.2c-0.2,0-0.4-0.2-0.6-0.3
			c-0.2-0.1-0.4-0.2-0.5-0.3c-0.2-0.1-0.3-0.3-0.5-0.4c-0.2-0.2-0.3-0.3-0.4-0.5c-0.1-0.1-0.1-0.1-0.1-0.1l-0.1-0.1l-0.1-0.2l0,0
			l0,0v-0.1l-0.1-0.1c0-0.1-0.1-0.1-0.1-0.1l-0.1,0c0-0.1,0-0.1,0-0.2s-0.1-0.1-0.1-0.2s-0.1-0.1-0.1-0.2c0-0.2-0.2-0.4-0.2-0.6
			c-0.1-0.4-0.1-0.9,0-1.3c0-0.5,0.1-0.9,0.3-1.4c0.2-0.7,0.5-1.4,0.9-2c0.2,0.3,0.4,0.5,0.6,0.8c0.5,0.6,1,1,1.4,1.5
			c0.6,0.5,1.1,0.9,1.5,1.3c0.2,0.7,0.3,1.4,0.5,2.1c0.3,0.9,0.6,1.8,1,2.6C-684.8,492.8-684.9,492.8-685.1,492.8z M-681,492.5
			c-0.6,0.2-1.3,0.3-2,0.3c-0.4,0.1-0.9,0.1-1.3,0.1c-0.5-0.9-0.8-1.8-1.1-2.7c-0.2-0.6-0.3-1.2-0.4-1.7c0.2,0.2,0.5,0.3,0.7,0.5
			c0.8,0.5,1.4,0.9,1.8,1.2c0.2,0.1,0.4,0.2,0.5,0.3c0.1,0.1,0.2,0.1,0.2,0.1l0,0l0,0c0,0,0.1,0.1,0.2,0.1c0.1,0.1,0.3,0.2,0.5,0.3
			c0.4,0.3,1.1,0.6,1.9,1c0.3,0.1,0.5,0.2,0.8,0.4C-679.8,492.2-680.4,492.4-681,492.5z M-680,491.6c-0.9-0.4-1.5-0.7-1.9-0.9
			c-0.2-0.1-0.4-0.2-0.5-0.3c-0.1-0.1-0.2-0.1-0.2-0.1s-0.1-0.1-0.2-0.1c-0.1-0.1-0.3-0.2-0.5-0.3c-0.4-0.3-1-0.7-1.7-1.2
			c-0.3-0.2-0.5-0.4-0.8-0.7c-0.2-1.3-0.3-2.6-0.3-4v-0.4c0-0.1,0-0.3,0-0.4c0-0.3,0.1-0.5,0.1-0.8c0.1-0.5,0.1-1,0.2-1.5
			c0.1-0.4,0.1-0.7,0.2-1.1c1-0.7,2-1.4,3-1.9l0.4-0.2c0.1-0.1,0.2-0.1,0.4-0.2c0.3-0.1,0.5-0.2,0.7-0.3c0.5-0.2,0.9-0.4,1.4-0.6
			c0.3-0.1,0.5-0.2,0.7-0.3c0.3,0.1,0.5,0.2,0.7,0.3c0.5,0.2,1,0.4,1.4,0.6c0.3,0.1,0.5,0.2,0.7,0.3c0.1,0.1,0.2,0.1,0.4,0.2
			l0.4,0.2c0.5,0.3,0.9,0.5,1.3,0.8c0.5,0.3,0.9,0.6,1.3,0.9c0.3,0.2,0.5,0.4,0.7,0.6c0.1,0.4,0.2,0.7,0.2,1.1
			c0.2,0.9,0.2,1.6,0.2,2.1c0,0.3,0,0.4,0,0.6c0,0.1,0,0.2,0,0.2s0,0.1,0,0.2c0,0.1,0,0.3,0,0.6c0,0.5-0.1,1.2-0.2,2.1
			c-0.1,0.4-0.1,0.7-0.2,1.1c-0.3,0.3-0.6,0.5-0.9,0.7c-0.7,0.6-1.3,1-1.7,1.2c-0.2,0.2-0.4,0.2-0.5,0.3c-0.1,0.1-0.2,0.1-0.2,0.1
			s-0.1,0-0.2,0.1c-0.1,0.1-0.3,0.2-0.5,0.3c-0.4,0.3-1.1,0.6-1.9,0.9c-0.3,0.2-0.7,0.3-1.1,0.4C-679.3,491.8-679.7,491.7-680,491.6
			z M-673.9,492.8c-0.4,0-0.7-0.1-1.1-0.1c-0.7-0.1-1.4-0.2-2-0.3c-0.6-0.1-1.2-0.3-1.7-0.5c0.3-0.1,0.6-0.3,0.8-0.4
			c0.8-0.4,1.5-0.7,1.9-1c0.2-0.1,0.4-0.2,0.5-0.3c0.1-0.1,0.2-0.1,0.2-0.1l0,0c0,0,0.1-0.1,0.2-0.1c0.1-0.1,0.3-0.2,0.5-0.3
			c0.4-0.3,1-0.6,1.8-1.2c0.2-0.2,0.5-0.3,0.7-0.5c-0.1,0.5-0.3,1.1-0.5,1.7c-0.2,0.6-0.5,1.2-0.7,1.9
			C-673.6,492.2-673.7,492.5-673.9,492.8z M-667.5,486.6c0.2,0.5,0.2,0.9,0.3,1.4c0.1,0.5,0,0.9-0.1,1.3c0,0.2-0.1,0.4-0.2,0.6
			c0,0.1,0,0.1,0,0.2s-0.1,0.1-0.1,0.2s-0.1,0.1-0.1,0.2l-0.1,0.1c0,0,0,0,0,0l-0.1,0.1v0.1l0,0l0,0l-0.1,0.2l-0.1,0.1
			c-0.1,0.1-0.1,0.1-0.1,0.1c-0.1,0.2-0.3,0.3-0.4,0.5c-0.2,0.2-0.3,0.3-0.5,0.4s-0.4,0.2-0.5,0.3c-0.2,0.1-0.4,0.2-0.6,0.3
			c-0.2,0-0.4,0.2-0.6,0.2c-0.8,0.2-1.5,0.3-2.3,0.4c-0.1,0-0.2,0-0.3,0c0.1-0.3,0.2-0.5,0.3-0.7c0.3-0.7,0.4-1.4,0.6-2
			c0.2-0.7,0.3-1.4,0.4-2c0.5-0.4,1-0.8,1.6-1.3c0.5-0.5,1-0.9,1.4-1.5c0.2-0.3,0.4-0.5,0.6-0.8C-668,485.3-667.7,485.9-667.5,486.6
			z"/>
		<path id="XMLID_2680_" class="st1" d="M-668.5,477c-0.1,0.2-0.1,0.4-0.1,0.5c0,0.7,0.5,1.2,1.1,1.2c0,0,0,0,0.1,0
			c0.4,0,0.7-0.2,0.9-0.4c0.2-0.2,0.3-0.5,0.3-0.8c0-0.7-0.6-1.2-1.2-1.2c-0.1,0-0.2,0-0.2,0C-668.1,476.4-668.4,476.7-668.5,477z"
			/>
		<path id="XMLID_2679_" class="st1" d="M-678.9,496.2c-0.5,0-0.9,0.3-1.1,0.7c-0.1,0.2-0.2,0.4-0.2,0.6c0,0.1,0,0.2,0,0.2
			c0.1,0.6,0.6,1,1.2,1c0.6,0,1.1-0.4,1.2-0.9c0-0.1,0.1-0.2,0.1-0.3c0-0.2-0.1-0.4-0.2-0.6C-678.1,496.4-678.5,496.2-678.9,496.2z"
			/>
		<path id="XMLID_2678_" class="st1" d="M-691,481.7c0.3,0,0.6-0.1,0.8-0.3c0.3-0.2,0.5-0.6,0.5-0.9c0-0.5-0.3-0.9-0.7-1.1
			c-0.2-0.1-0.4-0.1-0.5-0.1c-0.2,0-0.4,0.1-0.5,0.1c-0.4,0.2-0.7,0.6-0.7,1.1c0,0.6,0.5,1.1,1,1.2
			C-691.1,481.7-691,481.7-691,481.7z"/>
	</g>
	<g id="XMLID_249_">
		<path id="XMLID_131_" class="st4" d="M-831.8,431.4c0.5-0.8,0.3-1.7-0.5-2.2c-0.3-0.2-0.6-0.3-0.9-0.3c-0.6,0-1.1,0.3-1.4,0.7
			c-0.3,0.4-0.3,0.8-0.3,1.2c0.1,0.5,0.4,0.8,0.7,1c0.3,0.2,0.6,0.3,0.9,0.3C-832.6,432.1-832.1,431.9-831.8,431.4z"/>
		<path id="XMLID_130_" class="st4" d="M-831.8,443.7c-0.3-0.5-0.8-0.7-1.4-0.7c-0.3,0-0.6,0.1-0.9,0.3c-0.8,0.5-1,1.5-0.5,2.2
			c0.3,0.5,0.8,0.7,1.4,0.7c0.3,0,0.6-0.1,0.9-0.3C-831.5,445.4-831.3,444.4-831.8,443.7z"/>
		<circle id="XMLID_129_" class="st4" cx="-821" cy="451.5" r="1.6"/>
		<circle id="XMLID_128_" class="st4" cx="-821" cy="423.5" r="1.6"/>
		<path id="XMLID_127_" class="st4" d="M-810.2,431.3c0.3,0.5,0.8,0.7,1.4,0.7c0.3,0,0.6-0.1,0.9-0.3c0.8-0.5,1-1.5,0.5-2.2
			c-0.3-0.5-0.8-0.7-1.4-0.7c-0.3,0-0.6,0.1-0.9,0.3C-810.5,429.5-810.7,430.5-810.2,431.3z"/>
		<path id="XMLID_278_" class="st4" d="M-811.2,442.9c0.4-0.6,1-1,1.6-1.2l0-8.7c-0.7-0.2-1.2-0.6-1.6-1.2c-0.5-0.7-0.6-1.5-0.4-2.2
			l-7.5-4.3c-0.5,0.5-1.2,0.8-2,0.8c-0.8,0-1.5-0.4-2-0.9l-7.5,4.4c0.2,0.8,0.1,1.6-0.4,2.3c-0.4,0.6-1,1-1.6,1.2l0.1,8.7
			c0.7,0.2,1.2,0.6,1.6,1.2c0.5,0.7,0.6,1.5,0.4,2.2l7.5,4.3c0.5-0.5,1.2-0.8,2-0.8c0.8,0,1.5,0.4,2,0.9l7.5-4.4
			C-811.7,444.4-811.6,443.6-811.2,442.9z M-821.2,426.9c0-0.1,0.2-0.1,0.3-0.1s0.2,0.1,0.3,0.1c0.1,0.1,0.1,0.2,0.1,0.3
			s-0.1,0.2-0.1,0.3c0,0.1-0.2,0.1-0.3,0.1s-0.2-0.1-0.3-0.1c-0.1-0.1-0.1-0.2-0.1-0.3S-821.3,427-821.2,426.9z M-821,428
			c0.2,0,0.4,0.2,0.4,0.4s-0.2,0.4-0.4,0.4s-0.4-0.2-0.4-0.4S-821.2,428-821,428z M-821.2,429.3c0-0.1,0.2-0.1,0.3-0.1
			s0.2,0.1,0.3,0.1c0.1,0.1,0.1,0.2,0.1,0.3c0,0.1-0.1,0.2-0.1,0.3c0,0.1-0.2,0.1-0.3,0.1s-0.2-0.1-0.3-0.1
			c-0.1-0.1-0.1-0.2-0.1-0.3C-821.3,429.4-821.3,429.4-821.2,429.3z M-830.2,432.2c0.1-0.1,0.2-0.2,0.3-0.2c0.1,0,0.2,0,0.3,0.1
			c0.1,0.1,0.2,0.2,0.2,0.3s0,0.2,0,0.3c-0.1,0.1-0.2,0.2-0.3,0.2s-0.2,0-0.3-0.1c-0.1-0.1-0.2-0.2-0.2-0.3
			C-830.3,432.4-830.3,432.3-830.2,432.2z M-829.6,443c0,0.1-0.1,0.2-0.2,0.3c-0.1,0.1-0.2,0.1-0.3,0.1c-0.1,0-0.2-0.1-0.3-0.2
			c0-0.1,0-0.2,0-0.3c0-0.1,0.1-0.2,0.2-0.3c0.1-0.1,0.2-0.1,0.3-0.1c0.1,0,0.2,0.1,0.3,0.2C-829.6,442.8-829.6,442.9-829.6,443z
			 M-829.2,432.8c0.1-0.2,0.3-0.3,0.5-0.2c0.2,0.1,0.3,0.3,0.2,0.5c-0.1,0.2-0.3,0.3-0.5,0.2C-829.3,433.2-829.3,433-829.2,432.8z
			 M-828.7,442.6c-0.2,0.1-0.4,0.1-0.5-0.2s-0.1-0.4,0.2-0.5c0.2-0.1,0.4-0.1,0.5,0.2C-828.5,442.3-828.6,442.5-828.7,442.6z
			 M-828.2,433.4c0.1-0.1,0.2-0.2,0.3-0.2c0.1,0,0.2,0,0.3,0.1c0.1,0.1,0.2,0.2,0.2,0.3s0,0.2-0.1,0.3c0,0.1-0.2,0.2-0.3,0.2
			s-0.2,0-0.3-0.1c-0.1-0.1-0.2-0.2-0.2-0.3C-828.3,433.6-828.3,433.5-828.2,433.4z M-827.6,441.8c0,0.1-0.1,0.2-0.2,0.3
			c-0.1,0.1-0.2,0.1-0.3,0.1c-0.1,0-0.2-0.1-0.3-0.2c0-0.1,0-0.2,0-0.3c0-0.1,0.1-0.2,0.2-0.3c0.1-0.1,0.2-0.1,0.3-0.1
			c0.1,0,0.2,0.1,0.3,0.2C-827.6,441.6-827.5,441.7-827.6,441.8z M-820.7,448.2c0,0.1-0.2,0.1-0.3,0.1s-0.2-0.1-0.3-0.1
			c-0.1-0.1-0.1-0.2-0.1-0.3c0-0.1,0.1-0.2,0.1-0.3c0-0.1,0.2-0.1,0.3-0.1s0.2,0.1,0.3,0.1c0.1,0.1,0.1,0.2,0.1,0.3
			C-820.6,448-820.7,448.1-820.7,448.2z M-821,447.1c-0.2,0-0.4-0.2-0.4-0.4s0.2-0.4,0.4-0.4s0.4,0.2,0.4,0.4
			C-820.6,446.9-820.8,447.1-821,447.1z M-820.7,445.8c0,0.1-0.2,0.1-0.3,0.1s-0.2-0.1-0.3-0.1c-0.1-0.1-0.1-0.2-0.1-0.3
			s0.1-0.2,0.1-0.3c0-0.1,0.2-0.1,0.3-0.1s0.2,0.1,0.3,0.1c0.1,0.1,0.1,0.2,0.1,0.3S-820.7,445.8-820.7,445.8z M-821,444.6
			c-3.9,0-7.1-3.2-7.1-7.1s3.2-7.1,7.1-7.1c3.9,0,7.1,3.2,7.1,7.1C-813.9,441.4-817.1,444.6-821,444.6z M-813.8,441.9
			c-0.1,0.1-0.2,0.2-0.3,0.2c-0.1,0-0.2,0-0.3-0.1s-0.2-0.2-0.2-0.3s0-0.2,0.1-0.3c0-0.1,0.2-0.2,0.3-0.2s0.2,0,0.3,0.1
			c0.1,0.1,0.2,0.2,0.2,0.3S-813.7,441.8-813.8,441.9z M-813.7,433.7c0,0.1-0.1,0.2-0.2,0.3c-0.1,0.1-0.2,0.1-0.3,0.1
			c-0.1,0-0.2-0.1-0.3-0.2c-0.1-0.1-0.1-0.2-0.1-0.3c0-0.1,0.1-0.2,0.2-0.3c0.1-0.1,0.2-0.1,0.3-0.1c0.1,0,0.2,0.1,0.3,0.2
			C-813.7,433.5-813.7,433.6-813.7,433.7z M-812.8,442.5c-0.1,0.2-0.3,0.3-0.5,0.2c-0.2-0.1-0.3-0.3-0.2-0.5
			c0.1-0.2,0.3-0.3,0.5-0.2C-812.7,442.1-812.7,442.3-812.8,442.5z M-812.9,433.3c-0.2,0.1-0.4,0.1-0.5-0.2c-0.1-0.2,0-0.4,0.2-0.5
			c0.2-0.1,0.4-0.1,0.5,0.2C-812.7,433-812.7,433.2-812.9,433.3z M-811.8,443.1c-0.1,0.1-0.2,0.2-0.3,0.2c-0.1,0-0.2,0-0.3-0.1
			c-0.1-0.1-0.2-0.2-0.2-0.3c0-0.1,0-0.2,0.1-0.3c0-0.1,0.2-0.2,0.3-0.2s0.2,0,0.3,0.1c0.1,0.1,0.2,0.2,0.2,0.3
			C-811.7,442.9-811.7,443-811.8,443.1z M-811.7,432.5c0,0.1-0.1,0.2-0.2,0.3c-0.1,0.1-0.2,0.1-0.3,0.1c-0.1,0-0.2-0.1-0.3-0.2
			c-0.1-0.1-0.1-0.2-0.1-0.3c0-0.1,0.1-0.2,0.2-0.3c0.1-0.1,0.2-0.1,0.3-0.1c0.1,0,0.2,0.1,0.3,0.2
			C-811.7,432.3-811.7,432.4-811.7,432.5z"/>
		<path id="XMLID_106_" class="st4" d="M-808,443.1c-0.3-0.2-0.6-0.3-0.9-0.3c-0.6,0-1.1,0.3-1.4,0.7c-0.5,0.8-0.3,1.7,0.5,2.2
			c0.3,0.2,0.6,0.3,0.9,0.3c0.6,0,1.1-0.3,1.4-0.7C-807.1,444.5-807.3,443.5-808,443.1z"/>
		<path id="XMLID_268_" class="st1" d="M-807.4,442.1c-0.3-0.2-0.6-0.3-0.9-0.4l0-8.7c0.3-0.1,0.6-0.2,0.9-0.4
			c1.3-0.9,1.6-2.6,0.8-3.8c-0.5-0.8-1.4-1.3-2.3-1.3c-0.6,0-1.1,0.2-1.5,0.5c-0.2,0.2-0.4,0.3-0.5,0.5l-7.5-4.3
			c0-0.3,0.1-0.5,0.1-0.8c0-1.5-1.3-2.8-2.8-2.8s-2.8,1.3-2.8,2.8c0,0.3,0,0.5,0.1,0.7l-7.5,4.4c-0.2-0.2-0.3-0.3-0.5-0.4
			c-0.5-0.3-1-0.5-1.5-0.5c-0.9,0-1.8,0.5-2.3,1.3c-0.4,0.6-0.6,1.4-0.4,2.1c0.2,0.7,0.6,1.4,1.2,1.8c0.3,0.2,0.6,0.3,0.9,0.4l0,8.7
			c-0.3,0.1-0.7,0.2-0.9,0.4c-1.3,0.9-1.6,2.6-0.8,3.8c0.5,0.8,1.4,1.3,2.3,1.3c0.6,0,1.1-0.2,1.5-0.5c0.2-0.2,0.4-0.3,0.5-0.5
			l7.5,4.3c0,0.3-0.1,0.5-0.1,0.8c0,1.5,1.3,2.8,2.8,2.8s2.8-1.3,2.8-2.8c0-0.3-0.1-0.5-0.1-0.7l7.5-4.4c0.2,0.2,0.3,0.3,0.5,0.4
			c0.5,0.3,1,0.5,1.5,0.5l0,0c0.9,0,1.8-0.5,2.3-1.3C-805.7,444.6-806.1,442.9-807.4,442.1z M-809.7,429c0.3-0.2,0.6-0.3,0.9-0.3
			c0.6,0,1.1,0.3,1.4,0.7c0.5,0.8,0.3,1.7-0.5,2.2c-0.3,0.2-0.6,0.3-0.9,0.3c-0.6,0-1.1-0.3-1.4-0.7
			C-810.7,430.5-810.5,429.5-809.7,429z M-821,421.9c0.9,0,1.6,0.7,1.6,1.6s-0.7,1.6-1.6,1.6s-1.6-0.7-1.6-1.6
			S-821.9,421.9-821,421.9z M-834.7,430.9c-0.1-0.5,0-0.9,0.3-1.2c0.3-0.5,0.8-0.7,1.4-0.7c0.3,0,0.6,0.1,0.9,0.3
			c0.8,0.5,1,1.5,0.5,2.2c-0.4,0.5-0.9,0.8-1.4,0.8c-0.3,0-0.6-0.1-0.9-0.3C-834.4,431.6-834.6,431.3-834.7,430.9z M-832.3,445.9
			c-0.3,0.2-0.6,0.3-0.9,0.3c-0.6,0-1.1-0.3-1.4-0.7c-0.5-0.8-0.3-1.7,0.5-2.2c0.3-0.2,0.6-0.3,0.9-0.3c0.6,0,1.1,0.3,1.4,0.7
			C-831.3,444.4-831.5,445.4-832.3,445.9z M-821,453.1c-0.9,0-1.6-0.7-1.6-1.6c0-0.9,0.7-1.6,1.6-1.6s1.6,0.7,1.6,1.6
			C-819.4,452.4-820.1,453.1-821,453.1z M-819,449.6c-0.5-0.5-1.2-0.9-2-0.9c-0.8,0-1.5,0.3-2,0.8l-7.5-4.3c0.2-0.7,0.1-1.5-0.4-2.2
			c-0.4-0.6-0.9-1-1.6-1.2l0-8.7c0.7-0.2,1.3-0.6,1.6-1.2c0.5-0.7,0.6-1.6,0.4-2.3l7.5-4.4c0.5,0.5,1.2,0.9,2,0.9
			c0.8,0,1.5-0.3,2-0.8l7.5,4.3c-0.2,0.7-0.1,1.6,0.4,2.2c0.4,0.6,1,1,1.6,1.2l0.1,8.7c-0.7,0.2-1.3,0.6-1.6,1.2
			c-0.5,0.7-0.6,1.6-0.4,2.3L-819,449.6z M-807.5,445.3c-0.3,0.5-0.8,0.7-1.4,0.7c-0.3,0-0.6-0.1-0.9-0.3c-0.8-0.5-1-1.5-0.5-2.2
			c0.3-0.5,0.8-0.7,1.4-0.7c0.3,0,0.6,0.1,0.9,0.3C-807.3,443.5-807.1,444.5-807.5,445.3z"/>
		<path id="XMLID_97_" class="st1" d="M-821,427.6c0.1,0,0.2-0.1,0.3-0.1c0.1-0.1,0.1-0.2,0.1-0.3s-0.1-0.2-0.1-0.3
			c0-0.1-0.2-0.1-0.3-0.1s-0.2,0.1-0.3,0.1c-0.1,0.1-0.1,0.2-0.1,0.3s0.1,0.2,0.1,0.3C-821.2,427.5-821.1,427.6-821,427.6z"/>
		<circle id="XMLID_96_" class="st1" cx="-821" cy="428.4" r="0.4"/>
		<path id="XMLID_95_" class="st1" d="M-821,429.9c0.1,0,0.2-0.1,0.3-0.1c0.1-0.1,0.1-0.2,0.1-0.3c0-0.1-0.1-0.2-0.1-0.3
			c0-0.1-0.2-0.1-0.3-0.1s-0.2,0.1-0.3,0.1c-0.1,0.1-0.1,0.2-0.1,0.3c0,0.1,0.1,0.2,0.1,0.3C-821.2,429.9-821.1,429.9-821,429.9z"/>
		<path id="XMLID_94_" class="st1" d="M-821,445.2c-0.1,0-0.2,0.1-0.3,0.1c-0.1,0.1-0.1,0.2-0.1,0.3c0,0.1,0.1,0.2,0.1,0.3
			c0,0.1,0.2,0.1,0.3,0.1s0.2-0.1,0.3-0.1c0.1-0.1,0.1-0.2,0.1-0.3c0-0.1-0.1-0.2-0.1-0.3C-820.8,445.3-820.9,445.2-821,445.2z"/>
		<circle id="XMLID_93_" class="st1" cx="-821" cy="446.8" r="0.4"/>
		<path id="XMLID_92_" class="st1" d="M-821,447.6c-0.1,0-0.2,0.1-0.3,0.1c-0.1,0.1-0.1,0.2-0.1,0.3c0,0.1,0.1,0.2,0.1,0.3
			c0,0.1,0.2,0.1,0.3,0.1s0.2-0.1,0.3-0.1c0.1-0.1,0.1-0.2,0.1-0.3c0-0.1-0.1-0.2-0.1-0.3C-820.8,447.6-820.9,447.6-821,447.6z"/>
		<path id="XMLID_91_" class="st1" d="M-812,432c-0.1,0-0.2,0-0.3,0.1c-0.1,0.1-0.2,0.2-0.2,0.3s0,0.2,0,0.3
			c0.1,0.1,0.2,0.2,0.3,0.2c0.1,0,0.2,0,0.3-0.1c0.1-0.1,0.2-0.2,0.2-0.3s0-0.2-0.1-0.3C-811.8,432.1-811.9,432.1-812,432z"/>
		<ellipse id="XMLID_90_" class="st1" cx="-813.1" cy="433" rx="0.4" ry="0.4"/>
		<path id="XMLID_89_" class="st1" d="M-814,433.2c-0.1,0-0.2,0-0.3,0.1c-0.1,0.1-0.2,0.2-0.2,0.3s0,0.2,0.1,0.3
			c0,0.1,0.2,0.2,0.3,0.2s0.2,0,0.3-0.1c0.1-0.1,0.2-0.2,0.2-0.3c0-0.1,0-0.2,0-0.3C-813.8,433.3-813.9,433.3-814,433.2z"/>
		<path id="XMLID_88_" class="st1" d="M-827.8,441.4c-0.1,0-0.2,0-0.3,0.1c-0.1,0.1-0.2,0.2-0.2,0.3s0,0.2,0.1,0.3
			c0.1,0.1,0.2,0.2,0.3,0.2c0.1,0,0.2,0,0.3-0.1c0.1-0.1,0.2-0.2,0.2-0.3s0-0.2-0.1-0.3S-827.7,441.4-827.8,441.4z"/>
		<ellipse id="XMLID_87_" class="st1" cx="-828.9" cy="442.3" rx="0.4" ry="0.4"/>
		<path id="XMLID_86_" class="st1" d="M-829.8,442.6c-0.1,0-0.2,0-0.3,0.1c-0.1,0.1-0.2,0.2-0.2,0.3c0,0.1,0,0.2,0.1,0.3
			c0.1,0.1,0.2,0.2,0.3,0.2c0.1,0,0.2,0,0.3-0.1c0.1-0.1,0.2-0.2,0.2-0.3s0-0.2-0.1-0.3C-829.7,442.7-829.7,442.6-829.8,442.6z"/>
		<path id="XMLID_85_" class="st1" d="M-830.1,432.7c0.1,0.1,0.2,0.1,0.3,0.1c0.1,0,0.2-0.1,0.3-0.2c0.1-0.1,0.1-0.2,0.1-0.3
			c0-0.1-0.1-0.2-0.2-0.3c-0.1-0.1-0.2-0.1-0.3-0.1c-0.1,0-0.2,0.1-0.3,0.2c0,0.1,0,0.2,0,0.3C-830.3,432.6-830.2,432.7-830.1,432.7
			z"/>
		<ellipse id="XMLID_84_" class="st1" cx="-828.9" cy="433" rx="0.4" ry="0.4"/>
		<path id="XMLID_83_" class="st1" d="M-828.1,433.9c0.1,0.1,0.2,0.1,0.3,0.1c0.1,0,0.2-0.1,0.3-0.2c0.1-0.1,0.1-0.2,0.1-0.3
			c0-0.1-0.1-0.2-0.2-0.3c-0.1-0.1-0.2-0.1-0.3-0.1c-0.1,0-0.2,0.1-0.3,0.2c-0.1,0.1-0.1,0.2-0.1,0.3
			C-828.2,433.8-828.2,433.8-828.1,433.9z"/>
		<path id="XMLID_82_" class="st1" d="M-813.9,441.4c-0.1-0.1-0.2-0.1-0.3-0.1c-0.1,0-0.2,0.1-0.3,0.2c-0.1,0.1-0.1,0.2-0.1,0.3
			c0,0.1,0.1,0.2,0.2,0.3c0.1,0.1,0.2,0.1,0.3,0.1c0.1,0,0.2-0.1,0.3-0.2c0.1-0.1,0.1-0.2,0.1-0.3
			C-813.8,441.5-813.8,441.5-813.9,441.4z"/>
		<ellipse id="XMLID_81_" class="st1" cx="-813.1" cy="442.3" rx="0.4" ry="0.4"/>
		<path id="XMLID_80_" class="st1" d="M-811.9,442.6c-0.1-0.1-0.2-0.1-0.3-0.1c-0.1,0-0.2,0.1-0.3,0.2c-0.1,0.1-0.1,0.2-0.1,0.3
			c0,0.1,0.1,0.2,0.2,0.3c0.1,0.1,0.2,0.1,0.3,0.1c0.1,0,0.2-0.1,0.3-0.2c0-0.1,0-0.2,0-0.3C-811.7,442.7-811.8,442.7-811.9,442.6z"
			/>
	</g>
	<g id="XMLID_211_">
		<g id="XMLID_223_">
			<g id="XMLID_245_">
				<g id="XMLID_246_">
					<g id="XMLID_247_">
						<path id="XMLID_79_" class="st5" d="M-819.8,534.2"/>
					</g>
				</g>
			</g>
			<g id="XMLID_242_">
				<g id="XMLID_243_">
					<path id="XMLID_78_" class="st1" d="M-824.6,537.5c-2.2,0-4.2-0.9-5.7-2.4c-1.6-1.5-2.4-3.6-2.4-5.7s0.9-4.2,2.4-5.7l0.6,0.6
						c-1.4,1.4-2.2,3.2-2.2,5.1c0,2,0.8,3.8,2.2,5.1c1.4,1.4,3.2,2.1,5.2,2.1l0,0c2,0,3.8-0.8,5.2-2.2c1.4-1.4,2.2-3.2,2.2-5.1
						c0-2-0.8-3.8-2.2-5.1l0.6-0.6c1.6,1.5,2.4,3.6,2.4,5.7s-0.9,4.2-2.4,5.7C-820.4,536.7-822.4,537.5-824.6,537.5L-824.6,537.5z"
						/>
				</g>
			</g>
			<g id="XMLID_239_">
				<g id="XMLID_240_">
					<path id="XMLID_77_" class="st1" d="M-824.3,535.7c-0.3,0-0.6,0-0.9,0c-1.6-0.2-3-1.1-4-2.4c-1-1.3-1.4-2.9-1.2-4.4l0.8,0.1
						c-0.2,1.4,0.2,2.7,1,3.8c0.9,1.1,2.1,1.9,3.5,2.1s2.8-0.2,3.9-1c1.1-0.9,1.9-2.1,2-3.4c0.1-0.6,0-1.1-0.1-1.7l0.8-0.2
						c0.1,0.7,0.2,1.3,0.1,2c-0.2,1.6-1.1,3-2.4,4C-821.7,535.2-823,535.7-824.3,535.7z"/>
				</g>
			</g>
			<g id="XMLID_234_">
				<g id="XMLID_235_">
					<path id="XMLID_236_" class="st1" d="M-812.7,544.6l-6.9-6.8l3.5-3.4l6.9,6.8L-812.7,544.6z M-818.5,537.9l5.8,5.7l2.3-2.3
						l-5.7-5.7L-818.5,537.9z"/>
				</g>
			</g>
			<g id="XMLID_231_">
				<g id="XMLID_232_">
					
						<rect id="XMLID_74_" x="-816.1" y="539.3" transform="matrix(-0.7102 -0.704 0.704 -0.7102 -1771.5457 350.2429)" class="st1" width="4.9" height="0.8"/>
				</g>
			</g>
			<g id="XMLID_228_">
				<g id="XMLID_229_">
					
						<rect id="XMLID_73_" x="-816.9" y="535.9" transform="matrix(-0.704 -0.7102 0.7102 -0.704 -1773.0337 335.9952)" class="st1" width="0.8" height="3.2"/>
				</g>
			</g>
			<g id="XMLID_224_">
				<g id="XMLID_225_">
					<g id="XMLID_226_">
						
							<rect id="XMLID_72_" x="-819" y="535.3" transform="matrix(-0.7102 -0.704 0.704 -0.7102 -1776.2446 340.1534)" class="st1" width="1.7" height="0.8"/>
					</g>
				</g>
			</g>
		</g>
		<g id="XMLID_212_">
			<g id="XMLID_218_">
				<g id="XMLID_219_">
					<path id="XMLID_220_" class="st1" d="M-824.5,532.8l-0.3-0.2c-0.3-0.2-5.7-4.8-5.7-8c0-3.2,2.7-5.9,5.9-5.9s5.9,2.6,5.9,5.9
						c0,3.2-5.4,7.8-5.7,8L-824.5,532.8z M-824.5,519.6c-2.8,0-5.1,2.3-5.1,5.1c0,2.5,4.1,6.2,5.1,7.2c1.1-1,5.1-4.7,5.1-7.2
						C-819.4,521.9-821.7,519.6-824.5,519.6z"/>
				</g>
			</g>
			<g id="XMLID_213_">
				<g id="XMLID_214_">
					<path id="XMLID_215_" class="st1" d="M-824.5,527.8c-1.7,0-3.2-1.4-3.2-3.1s1.4-3.1,3.2-3.1c1.7,0,3.1,1.4,3.1,3.1
						S-822.8,527.8-824.5,527.8z M-824.5,522.4c-1.3,0-2.4,1.1-2.4,2.3c0,1.3,1.1,2.3,2.4,2.3c1.3,0,2.4-1.1,2.4-2.3
						C-822.2,523.4-823.2,522.4-824.5,522.4z"/>
				</g>
			</g>
		</g>
	</g>
	<text id="XMLID_61_" transform="matrix(1 0 0 1 -693.3214 433.8009)" class="st1 st2 st3">Livecoin.net</text>
	<text id="XMLID_60_" transform="matrix(1 0 0 1 -858.2399 480.7638)" class="st1 st2 st3">Carcoin Exchange</text>
	<text id="XMLID_59_" transform="matrix(1 0 0 1 -693.3409 528.5929)" class="st1 st2 st3">Open Ecosystem</text>
	<text id="XMLID_58_" transform="matrix(1 0 0 1 -865.1862 576.1154)" class="st1 st2 st3">Buy &amp; Built GPS Map</text>
	<text id="XMLID_57_" transform="matrix(1 0 0 1 -690.9171 611.8458)" class="st1 st2 st3">12/2019</text>
	<g id="XMLID_190_">
		<path id="XMLID_191_" class="st1" d="M-673,567.9h-12.4c-1.2,0-2.1,0.9-2.1,2.1v20.3c0,1.2,0.9,2.1,2.1,2.1h12.4
			c1.2,0,2.1-0.9,2.1-2.1V570C-671,568.9-671.9,567.9-673,567.9z M-679.2,591c-0.7,0-1.3-0.6-1.3-1.3c0-0.7,0.6-1.3,1.3-1.3
			c0.8,0,1.3,0.6,1.3,1.3C-677.9,590.4-678.5,591-679.2,591z M-673.1,585.7c0,0.9-0.7,1.6-1.6,1.6h-9.1c-0.9,0-1.6-0.7-1.6-1.6V571
			c0-0.9,0.7-1.6,1.6-1.6h9.1c0.9,0,1.6,0.7,1.6,1.6V585.7z"/>
	</g>
	<g id="XMLID_183_">
		<path id="XMLID_187_" class="st1" d="M-679.2,406.2c-9.2,0-16.6-7.5-16.6-16.6c0-9.2,7.5-16.6,16.6-16.6c9.2,0,16.6,7.5,16.6,16.6
			C-662.6,398.8-670.1,406.2-679.2,406.2z M-679.2,375.7c-7.7,0-14,6.3-14,14c0,7.7,6.3,14,14,14c7.8,0,14-6.3,14-14
			C-665.2,382-671.5,375.7-679.2,375.7z"/>
		<polygon id="XMLID_26_" class="st1" points="-676,384.2 -676,395.4 -673.5,395.4 -673.5,382.5 		"/>
		<polygon id="XMLID_25_" class="st1" points="-680.6,386.6 -680.6,395.4 -678,395.4 -678,384.9 		"/>
		<polygon id="XMLID_52_" class="st1" points="-685.1,389 -685.1,395.4 -682.6,395.4 -682.6,387.3 		"/>
	</g>
	<g id="XMLID_184_">
		<path id="XMLID_185_" class="st1" d="M-830,348.5c-3.2,0-5.8-2.6-5.8-5.8s2.6-5.8,5.8-5.8c1.5,0,2.9,0.6,4,1.6l-1.1,1.2
			c-0.8-0.8-1.8-1.2-2.9-1.2c-2.4,0-4.3,1.9-4.3,4.3s1.9,4.3,4.3,4.3c1.1,0,2.1-0.4,2.9-1.2l1.1,1.2
			C-827.2,348-828.6,348.5-830,348.5z"/>
		<path id="XMLID_188_" class="st1" d="M-820,348.5c-3.2,0-5.8-2.6-5.8-5.8s2.6-5.8,5.8-5.8c1.5,0,2.9,0.6,4,1.6l-1.1,1.2
			c-0.8-0.8-1.8-1.2-2.9-1.2c-2.4,0-4.3,1.9-4.3,4.3s1.9,4.3,4.3,4.3c1.1,0,2.1-0.4,2.9-1.2l1.1,1.2
			C-817.1,348-818.5,348.5-820,348.5z"/>
		<rect id="XMLID_182_" x="-828.1" y="342.1" class="st1" width="1.6" height="1.4"/>
		<g id="XMLID_193_">
			<path id="XMLID_195_" class="st1" d="M-820.4,337.9v-1.9h-1.4v2.2C-821.3,338.1-820.8,338-820.4,337.9z"/>
			<path id="XMLID_198_" class="st1" d="M-821.7,347.2v2.1h1.4v-1.8C-820.8,347.5-821.3,347.4-821.7,347.2z"/>
		</g>
		<g id="XMLID_194_">
			<path id="XMLID_196_" class="st1" d="M-818.2,338.4v-2.4h-1.4v2.1C-819.1,338.2-818.6,338.3-818.2,338.4z"/>
			<path id="XMLID_197_" class="st1" d="M-819.5,347.5v1.8h1.4v-2.1C-818.6,347.4-819.1,347.5-819.5,347.5z"/>
		</g>
		<polygon id="XMLID_200_" class="st1" points="-811.9,346.1 -815.5,346.1 -815.5,339.4 -811.9,339.4 -811.9,340.7 -814.2,340.7 
			-814.2,344.7 -811.9,344.7 		"/>
		<rect id="XMLID_204_" x="-814.4" y="342.1" class="st1" width="1.8" height="1.4"/>
		<polygon id="XMLID_189_" class="st1" points="-810.7,346.1 -806.2,339.4 -807.8,339.4 -812.3,346.1 		"/>
		<polygon id="XMLID_203_" class="st1" points="-806.1,346.1 -810.6,339.4 -812.2,339.4 -807.7,346.1 		"/>
	</g>
	<path id="XMLID_24_" class="st1" d="M-816.2,259.5h-16.9v-2.5h3v-1.5h-0.9v-2.1h12.6v2.1h-0.9v1.5h3V259.5z M-809.4,254.9
		c-0.7,0.8-1.8,0.8-2.5,0.2l-6-5.8l0.5-0.5l-3.6-3.5l-1.1,1.1l0.3,0.3c0.4,0.4,0.4,1,0.1,1.4l-0.4,0.4c-0.4,0.4-1,0.4-1.4,0.1
		l-4.7-4.5c-0.4-0.4-0.4-1-0.1-1.4l0.4-0.4c0.4-0.4,1-0.4,1.4-0.1l0.4,0.4l3.8-3.9l-0.4-0.4c-0.4-0.4-0.4-1-0.1-1.4l0.4-0.4
		c0.4-0.4,1-0.4,1.4-0.1l4.7,4.5c0.4,0.4,0.4,1,0,1.4l-0.4,0.4c-0.4,0.4-1,0.4-1.4,0.1l-0.3-0.3l-1.1,1.1l3.6,3.5l0.5-0.5l6,5.8
		C-808.6,253.1-808.7,254.2-809.4,254.9z"/>
</g>
</svg>
