<?xml version="1.0" encoding="utf-8"?>
<!-- Generator: Adobe Illustrator 19.0.0, SVG Export Plug-In . SVG Version: 6.00 Build 0)  -->
<svg version="1.1" id="Layer_1" xmlns="http://www.w3.org/2000/svg" xmlns:xlink="http://www.w3.org/1999/xlink" x="0px" y="0px"
	 viewBox="0 0 187.3 80" style="enable-background:new 0 0 187.3 80;" xml:space="preserve">
<style type="text/css">
	.st0{fill:#ED1C24;}
</style>
<g id="XMLID_3279_">
	<g id="XMLID_3280_">
		<path id="XMLID_3281_" class="st0" d="M22.6,66.7C7.4,66.7,4.9,64,3.9,62.9c-4.3-4.8-4.7-20.4-3-28.6c1.2-5.7,3.6-9.4,7.1-11
			c4-1.8,7.2-2.9,9.7-3.8c2.8-1,4.7-1.6,6.2-2.7l1-0.7C34.6,9.4,45.3,2.3,52.2,1.6c0.5,0,46.7-4.1,57,0.8c3,1.4,6.9,3.8,11.3,6.5
			c6.9,4.2,15.5,9.5,21,11c1.4,0.4,3.8,0.7,6.6,1c13,1.6,39.9,4.9,39.2,32.6c0,0.1,0,0.2,0,0.4C186.1,65,173.3,66,161.4,66
			c-2.7,0-4.8-2.2-4.8-4.8s2.2-4.8,4.8-4.8c10.4,0,15.8-1.1,16.2-3.4c0.3-17.2-14.3-20.5-30.7-22.5c-3.1-0.4-5.9-0.7-7.9-1.3
			c-6.8-1.8-15.7-7.3-23.5-12c-4-2.5-7.8-4.8-10.4-6c-5.4-2.5-39.1-1.3-51.8,0.1C50.8,11.5,45,13.9,30.6,24l-1.1,0.8
			c-2.6,1.8-5.4,2.8-8.6,3.9c-2.5,0.9-5.3,1.8-8.9,3.5c-3,2.2-3.1,19-1,23.9c2.3,0.6,8.6,1.1,14.5,0.9c2.6-0.1,4.9,2.1,4.9,4.7
			c0.1,2.7-2.1,4.9-4.7,4.9C24.7,66.7,23.6,66.7,22.6,66.7z"/>
		<path id="XMLID_3282_" class="st0" d="M147.1,80c-10.3,0-18.6-8.4-18.6-18.6s8.4-18.6,18.6-18.6c10.3,0,18.6,8.4,18.6,18.6
			S157.3,80,147.1,80z M147.1,52.4c-4.9,0-9,4-9,9s4,9,9,9c4.9,0,9-4,9-9S152,52.4,147.1,52.4z"/>
		<path id="XMLID_3285_" class="st0" d="M43,80c-10.3,0-18.6-8.4-18.6-18.6S32.8,42.8,43,42.8s18.6,8.4,18.6,18.6S53.3,80,43,80z
			 M43,52.4c-4.9,0-9,4-9,9s4,9,9,9s9-4,9-9S48,52.4,43,52.4z"/>
		<path id="XMLID_3288_" class="st0" d="M129.3,47.7C129.3,47.7,129.3,47.7,129.3,47.7c-9.2-0.1-55.4-0.8-66.7-8
			c-12.3-7.8-15.1-20.3-15.2-20.9c-0.6-2.6,1.1-5.2,3.7-5.7c2.6-0.6,5.2,1.1,5.7,3.7C56.9,17,59,26,67.8,31.5
			c7,4.4,41.5,6.3,61.6,6.5c2.7,0,4.8,2.2,4.8,4.9C134.1,45.5,132,47.7,129.3,47.7z"/>
		<path id="XMLID_3289_" class="st0" d="M133.3,66H56.6c-2.7,0-4.8-2.2-4.8-4.8c0-2.7,2.2-4.8,4.8-4.8h76.6c2.7,0,4.8,2.2,4.8,4.8
			C138.1,63.8,135.9,66,133.3,66z"/>
		<path id="XMLID_3290_" class="st0" d="M165.7,66.1c-0.9,0-1.8,0-2.7-0.1c-2.7-0.3-4.6-2.6-4.3-5.3c0.3-2.7,2.7-4.6,5.3-4.3
			c4.4,0.4,9.9-1,12.5-3.3c0.5-0.5,1.1-1.2,1.1-1.8c0-0.1,0-0.1,0-0.2c0.7-15.3-14-18.4-30.4-20.4c-3.3-0.4-6.1-0.8-8.3-1.3
			c-2.6-0.7-4.1-3.4-3.4-5.9c0.7-2.6,3.3-4.1,5.9-3.4c1.5,0.4,4.1,0.7,6.9,1.1c13,1.6,39.9,4.9,38.9,30.3c0,3.3-1.5,6.4-4.3,8.9
			C178.9,63.9,172.2,66.1,165.7,66.1z"/>
	</g>
</g>
</svg>
