<?xml version="1.0" encoding="utf-8"?>
<!-- Generator: Adobe Illustrator 19.0.0, SVG Export Plug-In . SVG Version: 6.00 Build 0)  -->
<svg version="1.1" id="Layer_1" xmlns="http://www.w3.org/2000/svg" xmlns:xlink="http://www.w3.org/1999/xlink" x="0px" y="0px"
	 viewBox="-326 258.3 187.3 80" style="enable-background:new -326 258.3 187.3 80;" xml:space="preserve">
<style type="text/css">
	.st0{fill:#00B700;}
</style>
<g id="XMLID_3279_">
	<g id="XMLID_3280_">
		<path id="XMLID_3281_" class="st0" d="M-303.4,325c-15.2,0-17.7-2.7-18.7-3.8c-4.3-4.8-4.7-20.4-3-28.6c1.2-5.7,3.6-9.4,7.1-11
			c4-1.8,7.2-2.9,9.7-3.8c2.8-1,4.7-1.6,6.2-2.7l1-0.7c9.7-6.7,20.4-13.8,27.3-14.5c0.5,0,46.7-4.1,57,0.8c3,1.4,6.9,3.8,11.3,6.5
			c6.9,4.2,15.5,9.5,21,11c1.4,0.4,3.8,0.7,6.6,1c13,1.6,39.9,4.9,39.2,32.6c0,0.1,0,0.2,0,0.4c-1.2,11.1-14,12.1-25.9,12.1
			c-2.7,0-4.8-2.2-4.8-4.8c0-2.6,2.2-4.8,4.8-4.8c10.4,0,15.8-1.1,16.2-3.4c0.3-17.2-14.3-20.5-30.7-22.5c-3.1-0.4-5.9-0.7-7.9-1.3
			c-6.8-1.8-15.7-7.3-23.5-12c-4-2.5-7.8-4.8-10.4-6c-5.4-2.5-39.1-1.3-51.8,0.1c-2.5,0.2-8.3,2.6-22.7,12.7l-1.1,0.8
			c-2.6,1.8-5.4,2.8-8.6,3.9c-2.5,0.9-5.3,1.8-8.9,3.5c-3,2.2-3.1,19-1,23.9c2.3,0.6,8.6,1.1,14.5,0.9c2.6-0.1,4.9,2.1,4.9,4.7
			c0.1,2.7-2.1,4.9-4.7,4.9C-301.3,325-302.4,325-303.4,325z"/>
		<path id="XMLID_3282_" class="st0" d="M-178.9,338.3c-10.3,0-18.6-8.4-18.6-18.6c0-10.2,8.4-18.6,18.6-18.6
			c10.3,0,18.6,8.4,18.6,18.6C-160.3,329.9-168.7,338.3-178.9,338.3z M-178.9,310.7c-4.9,0-9,4-9,9s4,9,9,9c4.9,0,9-4,9-9
			S-174,310.7-178.9,310.7z"/>
		<path id="XMLID_3285_" class="st0" d="M-283,338.3c-10.3,0-18.6-8.4-18.6-18.6c0-10.2,8.4-18.6,18.6-18.6s18.6,8.4,18.6,18.6
			C-264.4,329.9-272.7,338.3-283,338.3z M-283,310.7c-4.9,0-9,4-9,9s4,9,9,9s9-4,9-9S-278,310.7-283,310.7z"/>
		<path id="XMLID_3288_" class="st0" d="M-196.7,306L-196.7,306c-9.2-0.1-55.4-0.8-66.7-8c-12.3-7.8-15.1-20.3-15.2-20.9
			c-0.6-2.6,1.1-5.2,3.7-5.7c2.6-0.6,5.2,1.1,5.7,3.7c0.1,0.2,2.2,9.2,11,14.7c7,4.4,41.5,6.3,61.6,6.5c2.7,0,4.8,2.2,4.8,4.9
			C-191.9,303.8-194,306-196.7,306z"/>
		<path id="XMLID_3289_" class="st0" d="M-192.7,324.3h-76.7c-2.7,0-4.8-2.2-4.8-4.8c0-2.7,2.2-4.8,4.8-4.8h76.6
			c2.7,0,4.8,2.2,4.8,4.8C-187.9,322.1-190.1,324.3-192.7,324.3z"/>
		<path id="XMLID_3290_" class="st0" d="M-160.3,324.4c-0.9,0-1.8,0-2.7-0.1c-2.7-0.3-4.6-2.6-4.3-5.3c0.3-2.7,2.7-4.6,5.3-4.3
			c4.4,0.4,9.9-1,12.5-3.3c0.5-0.5,1.1-1.2,1.1-1.8c0-0.1,0-0.1,0-0.2c0.7-15.3-14-18.4-30.4-20.4c-3.3-0.4-6.1-0.8-8.3-1.3
			c-2.6-0.7-4.1-3.4-3.4-5.9c0.7-2.6,3.3-4.1,5.9-3.4c1.5,0.4,4.1,0.7,6.9,1.1c13,1.6,39.9,4.9,38.9,30.3c0,3.3-1.5,6.4-4.3,8.9
			C-147.1,322.2-153.8,324.4-160.3,324.4z"/>
	</g>
</g>
</svg>
