<?xml version="1.0" encoding="utf-8"?>
<!-- Generator: Adobe Illustrator 19.0.0, SVG Export Plug-In . SVG Version: 6.00 Build 0)  -->
<svg version="1.1" id="Layer_1" xmlns="http://www.w3.org/2000/svg" xmlns:xlink="http://www.w3.org/1999/xlink" x="0px" y="0px"
	 viewBox="-380 243.2 80.4 109.1" style="enable-background:new -380 243.2 80.4 109.1;" xml:space="preserve">
<style type="text/css">
	.st0{fill:#00B700;}
</style>
<path id="XMLID_11_" class="st0" d="M-378.8,250.2c1.8,1.8,25.1,25.1,25.1,25.1s0,67.5,0,71.8c0,2.9,2.4,5.3,5.3,5.3
	s5.3-2.4,5.3-5.3V306h1.8v41.1c0,2.9,2.4,5.3,5.3,5.3s5.3-2.4,5.3-5.3c0-1,0-5.1,0-10.9h21v-30.9h-6.1v-4.4c0-1.2-1-2.2-2.2-2.2
	h-2.7c0,0,0-20.7,0-23.6c0-6.3-5.4-11.5-11.8-11.5h-21.2c0,0-16-15.9-19.3-19.2c-1.6-1.6-4.2-1.6-5.8,0
	C-380.4,246-380.4,248.6-378.8,250.2z M-330.9,305.3v-27.5h1.8v27.5H-330.9z M-326.8,305.3v-4.2h8.4v4.2H-326.8z M-351.4,252.3
	c0,5,4,9,9,9c4.9,0,9-4,9-9s-4-9-9-9C-347.4,243.4-351.4,247.4-351.4,252.3z M-307.6,336.2h3.3c2.6,0,4.7-2.1,4.7-4.7v-21.4
	c0-2.6-2.1-4.8-4.7-4.8h-3.3V336.2z"/>
</svg>
