<?xml version="1.0" encoding="utf-8"?>
<!-- Generator: Adobe Illustrator 19.0.0, SVG Export Plug-In . SVG Version: 6.00 Build 0)  -->
<svg version="1.1" id="Layer_1" xmlns="http://www.w3.org/2000/svg" xmlns:xlink="http://www.w3.org/1999/xlink" x="0px" y="0px"
	 viewBox="-1032 2450.8 202.6 202.6" style="enable-background:new -1032 2450.8 202.6 202.6;" xml:space="preserve">
<style type="text/css">
	.st0{fill:#EC2227;}
	.st1{fill:#FFFFFF;}
</style>
<g id="XMLID_1957_">
	<g id="XMLID_1529_">
		<circle id="XMLID_1551_" class="st0" cx="-930.7" cy="2552.1" r="101.3"/>
	</g>
	<g id="XMLID_282_">
		<g id="XMLID_1050_">
			<rect id="XMLID_1051_" x="-900.3" y="2521.6" class="st1" width="3.4" height="17.4"/>
		</g>
		<g id="XMLID_1048_">
			<polygon id="XMLID_1049_" class="st1" points="-897,2606.1 -976.1,2606.1 -976.1,2498.8 -919.8,2498.8 -919.8,2502.1 
				-972.7,2502.1 -972.7,2602.8 -900.3,2602.8 -900.3,2586.3 -897,2586.3 			"/>
		</g>
		<g id="XMLID_1043_">
			<g id="XMLID_1044_">
				<path id="XMLID_1045_" class="st1" d="M-912.8,2506.1l8.5,8.6h-8.5V2506.1L-912.8,2506.1z M-916.2,2498v20.1h20L-916.2,2498
					L-916.2,2498z"/>
			</g>
		</g>
		<g id="XMLID_1041_">
			<rect id="XMLID_1042_" x="-964.2" y="2521.2" class="st1" width="21.7" height="3.4"/>
		</g>
		<g id="XMLID_1039_">
			<rect id="XMLID_1040_" x="-964.6" y="2530.7" class="st1" width="51.6" height="3.4"/>
		</g>
		<g id="XMLID_1037_">
			<rect id="XMLID_1038_" x="-964.6" y="2540.2" class="st1" width="51.6" height="3.4"/>
		</g>
		<g id="XMLID_1035_">
			<rect id="XMLID_1036_" x="-964.6" y="2549.7" class="st1" width="51.6" height="3.4"/>
		</g>
		<g id="XMLID_1033_">
			<rect id="XMLID_1034_" x="-964.6" y="2559.1" class="st1" width="33.4" height="3.4"/>
		</g>
		<g id="XMLID_283_">
			<g id="XMLID_1031_">
				<polygon id="XMLID_1032_" class="st1" points="-932.6,2597.8 -927,2578.9 -924.8,2576.7 -922.4,2579.1 -924,2580.7 
					-927.6,2592.8 -915.5,2589.2 -913.9,2587.6 -911.6,2590 -913.8,2592.2 				"/>
			</g>
			<g id="XMLID_1027_">
				<path id="XMLID_1028_" class="st1" d="M-892.5,2548l9.4,9.5l-29.5,29.7l-9.4-9.5L-892.5,2548L-892.5,2548z M-892.5,2543.3
					l-34.3,34.4l14.2,14.2l34.3-34.4L-892.5,2543.3L-892.5,2543.3z"/>
			</g>
			<g id="XMLID_1025_">
				
					<rect id="XMLID_1026_" x="-903.3" y="2545.2" transform="matrix(0.7089 0.7053 -0.7053 0.7089 1547.7607 1382.9027)" class="st1" width="3.4" height="42.9"/>
			</g>
			<g id="XMLID_1023_">
				<path id="XMLID_1024_" class="st1" d="M-870.8,2549l-2.4-2.4l2.9-2.9c0,0,0,0,0,0l-8.5-8.5c0,0,0,0,0,0l-2.9,2.9l-2.4-2.4
					l3.1-3.1c0.5-0.5,1.3-0.8,2.1-0.8h0c0.9,0,1.8,0.4,2.5,1.1l8.5,8.5c1.3,1.3,1.4,3.3,0.2,4.6L-870.8,2549z"/>
			</g>
			<g id="XMLID_284_">
				<polygon id="XMLID_285_" class="st1" points="-880.5,2562.1 -882.9,2559.7 -876,2552.8 -887.8,2541 -894.7,2547.8 -897,2545.5 
					-887.8,2536.2 -871.3,2552.8 				"/>
			</g>
		</g>
		<g id="XMLID_1617_">
			<path id="XMLID_1622_" class="st1" d="M-947.7,2592c-5.6,0-10.2-4.6-10.2-10.3c0-5.7,4.6-10.3,10.2-10.3
				c5.6,0,10.2,4.6,10.2,10.3C-937.5,2587.4-942.1,2592-947.7,2592z M-947.7,2573.7c-4.3,0-7.9,3.6-7.9,8c0,4.4,3.5,8,7.9,8
				c4.3,0,7.9-3.6,7.9-8C-939.8,2577.3-943.4,2573.7-947.7,2573.7z"/>
		</g>
		<g id="XMLID_1597_">
			<polygon id="XMLID_1612_" class="st1" points="-948.2,2585.7 -952.2,2583.1 -950.9,2581.2 -948.7,2582.6 -944.8,2577.5 
				-943,2578.9 			"/>
		</g>
	</g>
</g>
</svg>
