<?xml version="1.0" encoding="utf-8"?>
<!-- Generator: Adobe Illustrator 19.0.0, SVG Export Plug-In . SVG Version: 6.00 Build 0)  -->
<svg version="1.1" id="Layer_1" xmlns="http://www.w3.org/2000/svg" xmlns:xlink="http://www.w3.org/1999/xlink" x="0px" y="0px"
	 viewBox="-319 196.7 202.6 202.6" style="enable-background:new -319 196.7 202.6 202.6;" xml:space="preserve">
<style type="text/css">
	.st0{fill:#00B700;}
	.st1{fill:#FFFFFF;}
</style>
<g id="XMLID_1957_">
	<g id="XMLID_1529_">
		<circle id="XMLID_1551_" class="st0" cx="-217.7" cy="298" r="101.3"/>
	</g>
	<g id="XMLID_282_">
		<g id="XMLID_1050_">
			<rect id="XMLID_1051_" x="-187.3" y="267.5" class="st1" width="3.4" height="17.4"/>
		</g>
		<g id="XMLID_1048_">
			<polygon id="XMLID_1049_" class="st1" points="-184,352 -263.1,352 -263.1,244.7 -206.8,244.7 -206.8,248 -259.7,248 
				-259.7,348.7 -187.3,348.7 -187.3,332.2 -184,332.2 			"/>
		</g>
		<g id="XMLID_1043_">
			<g id="XMLID_1044_">
				<path id="XMLID_1045_" class="st1" d="M-199.8,252l8.5,8.6h-8.5V252L-199.8,252z M-203.2,243.9V264h20L-203.2,243.9
					L-203.2,243.9z"/>
			</g>
		</g>
		<g id="XMLID_1039_">
			<rect id="XMLID_1040_" x="-251.6" y="276.6" class="st1" width="51.6" height="3.4"/>
		</g>
		<g id="XMLID_1037_">
			<rect id="XMLID_1038_" x="-251.6" y="286.1" class="st1" width="51.6" height="3.4"/>
		</g>
		<g id="XMLID_1035_">
			<rect id="XMLID_1036_" x="-251.6" y="295.6" class="st1" width="51.6" height="3.4"/>
		</g>
		<g id="XMLID_283_">
			<g id="XMLID_1031_">
				<polygon id="XMLID_1032_" class="st1" points="-219.6,343.7 -214,324.8 -211.8,322.6 -209.4,325 -211,326.6 -214.6,338.7 
					-202.5,335.1 -200.9,333.5 -198.6,335.9 -200.8,338.1 				"/>
			</g>
			<g id="XMLID_1027_">
				<path id="XMLID_1028_" class="st1" d="M-179.5,293.9l9.4,9.5l-29.5,29.7l-9.4-9.5L-179.5,293.9L-179.5,293.9z M-179.5,289.2
					l-34.3,34.4l14.2,14.2l34.3-34.4L-179.5,289.2L-179.5,289.2z"/>
			</g>
			<g id="XMLID_1025_">
				
					<rect id="XMLID_1026_" x="-190.3" y="290.9" transform="matrix(-0.7089 -0.7053 0.7053 -0.7089 -542.6949 400.7816)" class="st1" width="3.4" height="42.9"/>
			</g>
			<g id="XMLID_1023_">
				<path id="XMLID_1024_" class="st1" d="M-157.8,294.9l-2.4-2.4l2.9-2.9l0,0l-8.5-8.5l0,0l-2.9,2.9l-2.4-2.4l3.1-3.1
					c0.5-0.5,1.3-0.8,2.1-0.8l0,0c0.9,0,1.8,0.4,2.5,1.1l8.5,8.5c1.3,1.3,1.4,3.3,0.2,4.6L-157.8,294.9z"/>
			</g>
			<g id="XMLID_284_">
				<polygon id="XMLID_285_" class="st1" points="-167.5,308 -169.9,305.6 -163,298.7 -174.8,286.9 -181.7,293.7 -184,291.4 
					-174.8,282.1 -158.3,298.7 				"/>
			</g>
		</g>
		<g id="XMLID_1617_">
			<path id="XMLID_1622_" class="st1" d="M-234.7,337.9c-5.6,0-10.2-4.6-10.2-10.3s4.6-10.3,10.2-10.3c5.6,0,10.2,4.6,10.2,10.3
				S-229.1,337.9-234.7,337.9z M-234.7,319.6c-4.3,0-7.9,3.6-7.9,8s3.5,8,7.9,8c4.3,0,7.9-3.6,7.9-8S-230.4,319.6-234.7,319.6z"/>
		</g>
		<g id="XMLID_1597_">
			<polygon id="XMLID_1612_" class="st1" points="-235.2,331.6 -239.2,329 -237.9,327.1 -235.7,328.5 -231.8,323.4 -230,324.8 			
				"/>
		</g>
	</g>
</g>
</svg>
