<?xml version="1.0" encoding="utf-8"?>
<!-- Generator: Adobe Illustrator 19.0.0, SVG Export Plug-In . SVG Version: 6.00 Build 0)  -->
<svg version="1.1" id="Layer_1" xmlns="http://www.w3.org/2000/svg" xmlns:xlink="http://www.w3.org/1999/xlink" x="0px" y="0px"
	 viewBox="0 0 80.4 109.1" style="enable-background:new 0 0 80.4 109.1;" xml:space="preserve">
<style type="text/css">
	.st0{fill:#EC2227;}
</style>
<path id="XMLID_11_" class="st0" d="M1.2,7C3,8.8,26.3,32.1,26.3,32.1s0,67.5,0,71.8c0,2.9,2.4,5.3,5.3,5.3c2.9,0,5.3-2.4,5.3-5.3
	V62.8h1.8v41.1c0,2.9,2.4,5.3,5.3,5.3c2.9,0,5.3-2.4,5.3-5.3c0-1,0-5.1,0-10.9l21,0V62.1h-6.1v-4.4c0-1.2-1-2.2-2.2-2.2h-2.7
	c0,0,0-20.7,0-23.6c0-6.3-5.4-11.5-11.8-11.5H26.3c0,0-16-15.9-19.3-19.2c-1.6-1.6-4.2-1.6-5.8,0C-0.4,2.8-0.4,5.4,1.2,7z
	 M49.1,62.1V34.6h1.8v27.5H49.1z M53.2,62.1v-4.2h8.4v4.2H53.2z M28.6,9.1c0,5,4,9,9,9c4.9,0,9-4,9-9c0-5-4-9-9-9
	C32.6,0.2,28.6,4.2,28.6,9.1z M72.4,93h3.3c2.6,0,4.7-2.1,4.7-4.7V66.9c0-2.6-2.1-4.8-4.7-4.8h-3.3V93z"/>
</svg>
