<?xml version="1.0" encoding="utf-8"?>
<!-- Generator: Adobe Illustrator 19.2.1, SVG Export Plug-In . SVG Version: 6.00 Build 0)  -->
<svg version="1.1" id="Layer_1" xmlns="http://www.w3.org/2000/svg" xmlns:xlink="http://www.w3.org/1999/xlink" x="0px" y="0px"
	 viewBox="0 0 55.7 55.7" style="enable-background:new 0 0 55.7 55.7;" xml:space="preserve">
<style type="text/css">
	.st0{fill:#FFFFFF;}
	.st1{fill:#1F1F2E;}
</style>
<circle id="XMLID_40_" class="st0" cx="27.8" cy="27.8" r="27.8"/>
<g>
	<g id="XMLID_3602_">
		<path id="XMLID_3612_" class="st1" d="M14,33c-3,0-3.5-0.5-3.6-0.8c-0.8-0.9-0.9-4-0.6-5.6c0.2-1.1,0.7-1.8,1.4-2.1
			c0.8-0.4,1.4-0.6,1.9-0.7c0.6-0.2,0.9-0.3,1.2-0.5l0.2-0.1c1.9-1.3,4-2.7,5.3-2.8c0.1,0,9.1-0.8,11.1,0.2c0.6,0.3,1.3,0.7,2.2,1.3
			c1.3,0.8,3,1.8,4.1,2.1c0.3,0.1,0.7,0.1,1.3,0.2c2.5,0.3,7.8,1,7.6,6.3c0,0,0,0,0,0.1c-0.2,2.2-2.7,2.4-5,2.4
			c-0.5,0-0.9-0.4-0.9-0.9S40.5,31,41,31c2,0,3.1-0.2,3.2-0.7c0.1-3.4-2.8-4-6-4.4c-0.6-0.1-1.1-0.1-1.5-0.2
			c-1.3-0.4-3.1-1.4-4.6-2.3c-0.8-0.5-1.5-0.9-2-1.2c-1-0.5-7.6-0.2-10.1,0c-0.5,0-1.6,0.5-4.4,2.5l-0.2,0.1c-0.5,0.4-1,0.5-1.7,0.8
			c-0.5,0.2-1,0.4-1.7,0.7c-0.6,0.4-0.6,3.7-0.2,4.7c0.4,0.1,1.7,0.2,2.8,0.2c0.5,0,1,0.4,1,0.9c0,0.5-0.4,1-0.9,1
			C14.4,33,14.2,33,14,33z"/>
		<path id="XMLID_3609_" class="st1" d="M38.2,35.6c-2,0-3.6-1.6-3.6-3.6s1.6-3.6,3.6-3.6s3.6,1.6,3.6,3.6S40.3,35.6,38.2,35.6z
			 M38.2,30.3c-1,0-1.7,0.8-1.7,1.7c0,1,0.8,1.7,1.7,1.7c1,0,1.7-0.8,1.7-1.7C40,31,39.2,30.3,38.2,30.3z"/>
		<path id="XMLID_3606_" class="st1" d="M18,35.6c-2,0-3.6-1.6-3.6-3.6s1.6-3.6,3.6-3.6s3.6,1.6,3.6,3.6S20,35.6,18,35.6z M18,30.3
			c-1,0-1.7,0.8-1.7,1.7c0,1,0.8,1.7,1.7,1.7c1,0,1.7-0.8,1.7-1.7C19.7,31,18.9,30.3,18,30.3z"/>
		<path id="XMLID_3605_" class="st1" d="M34.8,29.3L34.8,29.3c-1.8,0-10.8-0.2-13-1.6c-2.4-1.5-3-4-3-4.1c-0.1-0.5,0.2-1,0.7-1.1
			s1,0.2,1.1,0.7c0,0,0.4,1.8,2.1,2.9c1.4,0.9,8.1,1.2,12,1.3c0.5,0,0.9,0.4,0.9,1C35.7,28.9,35.3,29.3,34.8,29.3z"/>
		<path id="XMLID_3604_" class="st1" d="M35.6,32.9h-15c-0.5,0-0.9-0.4-0.9-0.9s0.4-0.9,0.9-0.9h14.9c0.5,0,0.9,0.4,0.9,0.9
			C36.5,32.5,36.1,32.9,35.6,32.9z"/>
		<path id="XMLID_3603_" class="st1" d="M41.9,32.9c-0.2,0-0.4,0-0.5,0c-0.5-0.1-0.9-0.5-0.8-1c0.1-0.5,0.5-0.9,1-0.8
			c0.9,0.1,1.9-0.2,2.4-0.6c0.1-0.1,0.2-0.2,0.2-0.4l0,0c0.1-3-2.7-3.6-5.9-4c-0.6-0.1-1.2-0.1-1.6-0.3c-0.5-0.1-0.8-0.7-0.7-1.2
			s0.7-0.8,1.2-0.7c0.3,0.1,0.8,0.1,1.4,0.2c2.5,0.3,7.8,1,7.6,5.9c0,0.6-0.3,1.2-0.8,1.7C44.5,32.5,43.2,32.9,41.9,32.9z"/>
	</g>
	<g id="XMLID_3599_">
		<path id="XMLID_3601_" class="st1" d="M9.6,41.5c-0.3,0-0.6-0.1-0.8-0.4c-5.6-8-5.6-18.7,0-26.6c0.3-0.4,0.9-0.5,1.3-0.2
			c0.4,0.3,0.5,0.9,0.2,1.3c-5.1,7.3-5.1,17.2,0,24.5c0.3,0.4,0.2,1-0.2,1.3C9.9,41.5,9.8,41.5,9.6,41.5z"/>
		<path id="XMLID_3600_" class="st1" d="M27.8,51c-4.7,0-9.3-1.4-13.3-4.2c-0.4-0.3-0.5-0.9-0.2-1.3c0.3-0.4,0.9-0.5,1.3-0.2
			c7.3,5.1,17.2,5.1,24.5,0c0.4-0.3,1-0.2,1.3,0.2s0.2,1-0.2,1.3C37.2,49.6,32.5,51,27.8,51z"/>
	</g>
	<g id="XMLID_3596_">
		<path id="XMLID_3598_" class="st1" d="M40.6,10.5c-0.2,0-0.4-0.1-0.5-0.2c-7.3-5.1-17.2-5.1-24.5,0c-0.4,0.3-1,0.2-1.3-0.2
			s-0.2-1,0.2-1.3c8-5.6,18.7-5.6,26.6,0c0.4,0.3,0.5,0.9,0.2,1.3C41.2,10.4,40.9,10.5,40.6,10.5z"/>
		<path id="XMLID_3597_" class="st1" d="M46.1,41.5c-0.2,0-0.4-0.1-0.5-0.2c-0.4-0.3-0.5-0.9-0.2-1.3c5.1-7.3,5.1-17.2,0-24.5
			c-0.3-0.4-0.2-1,0.2-1.3s1-0.2,1.3,0.2c5.6,8,5.6,18.7,0,26.6C46.7,41.4,46.4,41.5,46.1,41.5z"/>
	</g>
	<circle id="XMLID_3595_" class="st1" cx="45.3" cy="41.7" r="2.1"/>
	<circle id="XMLID_3594_" class="st1" cx="10.4" cy="13.9" r="2.1"/>
	<circle id="XMLID_3593_" class="st1" cx="41.7" cy="10.4" r="2.1"/>
	<circle id="XMLID_3592_" class="st1" cx="13.9" cy="45.3" r="2.1"/>
</g>
</svg>
