<?xml version="1.0" encoding="utf-8"?>
<!-- Generator: Adobe Illustrator 19.2.1, SVG Export Plug-In . SVG Version: 6.00 Build 0)  -->
<svg version="1.1" id="Capa_1" xmlns="http://www.w3.org/2000/svg" xmlns:xlink="http://www.w3.org/1999/xlink" x="0px" y="0px"
	 viewBox="0 0 55.7 55.7" style="enable-background:new 0 0 55.7 55.7;" xml:space="preserve">
<style type="text/css">
	.st0{fill:#FFFFFF;}
	.st1{fill:#FFB629;}
</style>
<circle id="XMLID_40_" class="st0" cx="27.9" cy="27.9" r="27.8"/>
<g>
	<path class="st1" d="M34.8,28.1c-0.5-0.3-1.1-0.5-2-0.7c0.8-0.3,1.5-0.6,2-1c0.5-0.4,0.9-0.9,1.1-1.5c0.3-0.6,0.4-1.1,0.4-1.8
		c0-0.8-0.2-1.6-0.7-2.3c-0.5-0.7-1.2-1.3-2.1-1.6c-0.4-0.1-0.8-0.3-1.3-0.3v-3.3H29v3.1h-2v-3.1h-3.2v3.1H19v2.6h0.7
		c0.5,0,0.8,0,1,0.1c0.2,0.1,0.3,0.2,0.4,0.4c0.1,0.2,0.1,0.5,0.1,1.1v10.4c0,0.5,0,0.9-0.1,1.1c-0.1,0.2-0.2,0.3-0.4,0.4
		c-0.2,0.1-0.5,0.1-1,0.1H19v2.6h4.8v3.1H27v-3.1h1.8c0.1,0,0.2,0,0.2,0v3.1h3.2v-3.3c0.5-0.1,1-0.2,1.4-0.4
		c1.1-0.4,1.9-1.1,2.5-1.9c0.6-0.8,0.9-1.7,0.9-2.7c0-0.8-0.2-1.6-0.6-2.3C36,29,35.5,28.4,34.8,28.1z M25.8,21.5h2
		c1.2,0,2,0.1,2.5,0.2c0.5,0.1,0.8,0.4,1.1,0.7c0.2,0.3,0.4,0.8,0.4,1.3c0,0.5-0.1,0.9-0.4,1.3s-0.6,0.6-1.2,0.8
		c-0.5,0.2-1.3,0.3-2.4,0.3h-2L25.8,21.5L25.8,21.5z M31.6,33.1c-0.4,0.5-0.8,0.8-1.3,0.9c-0.5,0.1-1.2,0.2-2,0.2H27
		c-0.5,0-0.7,0-0.8-0.1c-0.1,0-0.2-0.1-0.2-0.3c0-0.1-0.1-0.4-0.1-1v-4h2.4c1.1,0,1.8,0.1,2.4,0.3c0.5,0.2,0.9,0.5,1.2,0.9
		c0.3,0.4,0.4,0.9,0.4,1.4C32.2,32.1,32,32.6,31.6,33.1z M49.2,19.6c0.5-0.4,0.9-0.9,1.2-1.5c0.7-1.3,0.9-2.8,0.5-4.3
		c-0.7-2.4-2.9-4-5.4-4c-0.5,0-1.1,0.1-1.6,0.2c-0.4,0.1-0.7,0.2-1,0.4c-7.9-6.8-19.4-7.4-28-1.4C6.3,15,2.9,26,6.5,35.8
		c-1.5,1.4-2.3,3.6-1.6,5.7c0.7,2.4,2.9,4,5.4,4c0.5,0,1.1-0.1,1.6-0.2c0.3-0.1,0.7-0.2,1-0.4c0.1,0.1,0.1,0.2,0.3,0.3
		c4.3,3.7,9.6,5.5,14.9,5.5c4.6,0,9.1-1.4,13.1-4.1c8.6-6,12-17,8.3-26.8C49.4,19.7,49.3,19.7,49.2,19.6z M44.6,12.4
		c0.3-0.1,0.6-0.1,0.9-0.1c1.4,0,2.6,0.9,3,2.3c0.2,0.8,0.1,1.7-0.3,2.4c-0.4,0.7-1.1,1.3-1.9,1.5c-1.6,0.5-3.5-0.5-3.9-2.1
		c-0.2-0.8-0.1-1.7,0.3-2.4C43.1,13.2,43.8,12.6,44.6,12.4z M11.1,42.9c-1.6,0.5-3.5-0.5-3.9-2.1c-0.5-1.7,0.5-3.4,2.1-3.9
		c0.3-0.1,0.6-0.1,0.9-0.1c1.4,0,2.6,0.9,3,2.3c0.2,0.8,0.1,1.7-0.3,2.4C12.6,42.2,11.9,42.7,11.1,42.9z M39.7,44.6
		c-7.6,5.3-17.9,4.8-25-1.3c0,0,0,0,0,0c0.2-0.2,0.4-0.5,0.5-0.8c0.7-1.3,0.9-2.8,0.5-4.3c-0.7-2.4-2.9-4-5.4-4
		c-0.5,0-1.1,0.1-1.6,0.2c0,0,0,0,0,0c-3-8.6,0.1-18.2,7.6-23.4c7.5-5.3,17.7-4.8,24.7,1c-0.2,0.2-0.3,0.4-0.4,0.6
		c-0.7,1.3-0.9,2.8-0.5,4.3c0.7,2.4,2.9,4,5.4,4c0.5,0,1.1-0.1,1.6-0.2c0,0,0,0,0.1,0C50.4,29.5,47.3,39.3,39.7,44.6z"/>
</g>
</svg>
