<?xml version="1.0" encoding="utf-8"?>
<!-- Generator: Adobe Illustrator 19.0.0, SVG Export Plug-In . SVG Version: 6.00 Build 0)  -->
<svg version="1.1" id="Ebene_1" xmlns="http://www.w3.org/2000/svg" xmlns:xlink="http://www.w3.org/1999/xlink" x="0px" y="0px"
	 viewBox="494 -330.2 1600 1452.2" style="enable-background:new 494 -330.2 1600 1452.2;" xml:space="preserve">
<style type="text/css">
	.st0{fill:#FFFFFF;}
	.st1{fill:#EB2027;}
	.st2{fill:#EB2026;}
</style>
<circle class="st0" cx="1759.8" cy="-11.1" r="30.8"/>
<circle class="st0" cx="828.2" cy="-11.1" r="30.8"/>
<g id="XMLID_1095_">
	<g id="I8PXG6_1_">
		<g id="XMLID_1099_">
			<path class="st1" d="M1283,999.3h-3V984c0-7.3,5.9-13.2,13.2-13.2c7.3,0,13.2,5.9,13.2,13.2v4.1h-3V984c0-5.6-4.6-10.2-10.2-10.2
				s-10.2,4.6-10.2,10.2V999.3z"/>
		</g>
	</g>
	<path id="XMLID_1096_" class="st1" d="M1307.8,996.9h-28c-3.4,0-6.3,2.8-6.3,6.3v17.6c0,3.4,2.8,6.3,6.3,6.3h28
		c3.4,0,6.3-2.8,6.3-6.3v-17.6C1313.9,999.8,1311.1,996.9,1307.8,996.9z M1297.3,1012.5c-0.3,0.3-0.5,0.6-0.5,1.1c0,1,0,2.2,0,3.2
		c0,1.6-1.3,3-3,3c-1.6,0-2.9-1.3-3-3c0-0.5,0-1.1,0-1.6c0-0.1,0-0.3,0-0.4c0.1-1-0.1-1.8-0.9-2.8c-1.7-2-1.3-5,0.6-6.8
		c2.1-1.7,5-1.5,6.9,0.5S1299.2,1010.7,1297.3,1012.5z"/>
</g>
<path class="st1" d="M1777,997.5h-408.9v-3H1777c15.7,0,28.5-12.8,28.5-28.5V865.8c0-15.7-12.8-28.5-28.5-28.5h-128
	c-17.4,0-31.5-11.2-31.5-24.9V769h3v43.4c0,12.1,12.8,21.9,28.5,21.9h128c17.4,0,31.5,14.1,31.5,31.5V966
	C1808.8,983.3,1794.3,997.5,1777,997.5z"/>
<path class="st1" d="M1219.1,997.5H810.7c-17.4,0-31.5-14.1-31.5-31.5V186.2c0-17.4,14.1-31.5,31.5-31.5h426.2
	c15.7,0,29.1-12.8,29.8-28.5l0.5-12.9c0.7-17.3,12.8-31.4,26.8-31.4s26.1,14.1,26.9,31.4l0.6,13c0.7,15.7,14.2,28.5,29.9,28.5h425.8
	c17.4,0,31.5,14.1,31.5,31.5v98.2c0,17.4-14.1,31.5-31.5,31.5h-128c-15.7,0-28.5,9.8-28.5,21.9v43.4h-3v-43.4
	c0-13.7,14.1-24.9,31.5-24.9h128c15.7,0,28.5-12.8,28.5-28.5v-98.3c0-15.7-12.8-28.5-28.5-28.5h-425.8c-17.3,0-32.1-14.1-32.9-31.4
	l-0.6-13c-0.7-15.7-11.5-28.5-23.9-28.5c-12.5,0-23.1,12.8-23.8,28.5l-0.5,12.9c-0.7,17.3-15.4,31.4-32.8,31.4H810.7
	c-15.7,0-28.5,12.8-28.5,28.5V966c0,15.7,12.8,28.5,28.5,28.5h408.7L1219.1,997.5L1219.1,997.5z"/>
<g id="XMLID_1200_">
	<circle id="XMLID_488_" class="st2" cx="782.2" cy="576.1" r="124.2"/>
	<g id="_x39_6_102_">
		<path id="XMLID_26395_" class="st0" d="M823.2,524.9h-20.5c-2,0-3.8,0.7-5.1,1.9c-1.4-1.2-3.2-1.9-5.1-1.9H772
			c-2,0-3.8,0.7-5.1,1.9c-1.4-1.2-3.2-1.9-5.1-1.9h-20.5c-4.2,0-7.7,3.3-7.7,7.4v87.5c0,4.1,3.4,7.4,7.7,7.4h20.5
			c2,0,3.8-0.7,5.1-1.9c1.4,1.2,3.2,1.9,5.1,1.9h20.5c2,0,3.8-0.7,5.1-1.9c1.4,1.2,3.2,1.9,5.1,1.9h20.5c4.2,0,7.7-3.3,7.7-7.4
			v-87.5C830.8,528.2,827.3,524.9,823.2,524.9z M764.2,619.8c0,1.3-1.1,2.3-2.6,2.3h-20.4c-1.4,0-2.6-1-2.6-2.3v-87.5
			c0-1.3,1.1-2.3,2.6-2.3h20.5c1.4,0,2.6,1,2.6,2.3L764.2,619.8L764.2,619.8z M795.2,619.8c0,1.3-1.1,2.3-2.6,2.3h-20.5
			c-1.4,0-2.6-1-2.6-2.3v-87.5c0-1.3,1.1-2.3,2.6-2.3h20.5c1.4,0,2.6,1,2.6,2.3V619.8z M825.8,619.8c0,1.3-1.1,2.3-2.6,2.3h-20.5
			c-1.4,0-2.6-1-2.6-2.3v-87.5c0-1.3,1.1-2.3,2.6-2.3h20.5c1.4,0,2.6,1,2.6,2.3V619.8z"/>
		<path id="XMLID_26394_" class="st0" d="M783.8,536h-3.4c-2.8,0-5.1,2.3-5.1,5.1V582c0,2.8,2.3,5.1,5.1,5.1h3.4
			c2.8,0,5.1-2.3,5.1-5.1v-40.9C789.2,538.3,786.8,536,783.8,536z"/>
		<path id="XMLID_26393_" class="st0" d="M753.2,536h-3.4c-2.8,0-5.1,2.3-5.1,5.1V582c0,2.8,2.3,5.1,5.1,5.1h3.4
			c2.8,0,5.1-2.3,5.1-5.1v-40.9C758.2,538.3,756.2,536,753.2,536z"/>
		<path id="XMLID_26392_" class="st0" d="M814.8,536h-3.4c-2.8,0-5.1,2.3-5.1,5.1V582c0,2.8,2.3,5.1,5.1,5.1h3.4
			c2.8,0,5.1-2.3,5.1-5.1v-40.9C819.8,538.3,817.7,536,814.8,536z"/>
		<path id="XMLID_26391_" class="st0" d="M753.2,602.5h-3.4c-2.8,0-5.1,2.3-5.1,5.1v3.4c0,2.8,2.3,5.1,5.1,5.1h3.4
			c2.8,0,5.1-2.3,5.1-5.1v-3.4C758.2,604.8,756.2,602.5,753.2,602.5z"/>
		<path id="XMLID_26390_" class="st0" d="M783.8,602.5h-3.4c-2.8,0-5.1,2.3-5.1,5.1v3.4c0,2.8,2.3,5.1,5.1,5.1h3.4
			c2.8,0,5.1-2.3,5.1-5.1v-3.4C789.2,604.8,786.8,602.5,783.8,602.5z"/>
		<path id="XMLID_26389_" class="st0" d="M814.8,602.5h-3.4c-2.8,0-5.1,2.3-5.1,5.1v3.4c0,2.8,2.3,5.1,5.1,5.1h3.4
			c2.8,0,5.1-2.3,5.1-5.1v-3.4C819.8,604.8,817.7,602.5,814.8,602.5z"/>
	</g>
</g>
<g id="XMLID_1208_">
	<circle id="XMLID_484_" class="st2" cx="1293.8" cy="-7.5" r="124.2"/>
	<g id="XMLID_812_">
		<path id="XMLID_670_" class="st0" d="M1296.8,60.1h-63.7c-5.3,0-9.6-4.3-9.6-9.6v-116c0-5.3,4.3-9.6,9.6-9.6h63.7
			c5.3,0,9.6,4.3,9.6,9.6v21.2h-6.2v-5h-70.4v83.9h70.4v-7.3h6.2v23.2C1306.4,55.8,1302.1,60.1,1296.8,60.1z M1229.8,40.8v9.7
			c0,1.9,1.5,3.4,3.4,3.4h63.7c1.9,0,3.4-1.5,3.4-3.4v-9.7H1229.8z M1229.8-55.5h70.4v-10c0-1.9-1.5-3.4-3.4-3.4h-63.7
			c-1.9,0-3.4,1.5-3.4,3.4L1229.8-55.5L1229.8-55.5z M1360,55.5h-37c-2.1,0-3.8-1.7-3.8-3.9V21.7c0-2.1,1.7-3.8,3.8-3.8h37
			c2.1,0,3.8,1.7,3.8,3.8v29.9C1363.8,53.8,1362.1,55.5,1360,55.5z M1325.3,50.3h32.3V25.1h-32.3V50.3z M1300.2,23.6
			c-3.6,0-6.9-1.4-9.4-3.9s-3.9-5.9-3.9-9.4c0-1.3,0.2-2.6,0.5-3.8l-13.5-5.6c-0.1,0.1-0.1,0.1-0.2,0.2c-2.5,2.5-5.9,3.9-9.4,3.9
			c-3.6,0-6.9-1.4-9.4-3.9s-3.9-5.9-3.9-9.4c0-3.6,1.4-6.9,3.9-9.4s5.9-3.9,9.4-3.9c3.6,0,6.9,1.4,9.4,3.9c0.1,0.1,0.1,0.1,0.2,0.2
			l13.5-5.6c-0.4-1.2-0.5-2.5-0.5-3.8c0-3.6,1.4-6.9,3.9-9.4s5.9-3.9,9.4-3.9c3.6,0,6.9,1.4,9.4,3.9l0,0c2.5,2.5,3.9,5.9,3.9,9.4
			c0,3.6-1.4,6.9-3.9,9.4s-5.9,3.9-9.4,3.9c-3.6,0-6.9-1.4-9.4-3.9c-0.1-0.1-0.1-0.1-0.2-0.2l-13.5,5.6c0.4,1.2,0.5,2.5,0.5,3.8
			s-0.2,2.6-0.5,3.8l13.5,5.6c0.1-0.1,0.1-0.1,0.2-0.2c2.5-2.5,5.9-3.9,9.4-3.9c3.6,0,6.9,1.4,9.4,3.9l0,0c2.5,2.5,3.9,5.9,3.9,9.4
			c0,3.6-1.4,6.9-3.9,9.4C1307.1,22.3,1303.8,23.6,1300.2,23.6z M1300.2,3.2c-1.9,0-3.7,0.7-5,2.1c-1.3,1.3-2.1,3.1-2.1,5
			s0.7,3.7,2.1,5c2.7,2.7,7.4,2.7,10.1,0c1.3-1.3,2.1-3.1,2.1-5s-0.7-3.7-2.1-5C1303.9,3.9,1302.1,3.2,1300.2,3.2z M1264.3-15.5
			c-1.9,0-3.7,0.7-5,2.1c-1.3,1.3-2.1,3.1-2.1,5s0.7,3.7,2.1,5c2.7,2.7,7.4,2.7,10.1,0c1.3-1.3,2.1-3.1,2.1-5s-0.7-3.7-2.1-5l0,0
			C1268-14.7,1266.2-15.5,1264.3-15.5z M1300.2-34.1c-1.9,0-3.7,0.7-5,2.1c-1.3,1.3-2.1,3.1-2.1,5s0.7,3.7,2.1,5
			c2.7,2.7,7.4,2.7,10.1,0c1.3-1.3,2.1-3.1,2.1-5s-0.7-3.7-2.1-5C1303.9-33.4,1302.1-34.1,1300.2-34.1z M1360,12h-37
			c-2.1,0-3.8-1.7-3.8-3.9v-29.9c0-2.1,1.7-3.8,3.8-3.8h37c2.1,0,3.8,1.7,3.8,3.8V8.1C1363.8,10.3,1362.1,12,1360,12z M1360-31.5
			h-37c-2.1,0-3.8-1.7-3.8-3.9v-29.9c0-2.1,1.7-3.8,3.8-3.8h37c2.1,0,3.8,1.7,3.8,3.8v29.9C1363.8-33.2,1362.1-31.5,1360-31.5z
			 M1325.3-36.7h32.3v-25.2h-32.3V-36.7z M1277.2-58.6h-24.6v-6.2h24.6V-58.6z"/>
	</g>
</g>
<g>
	<g>
		<g>
			<path class="st1" d="M1179.1-32.2H983.7c-4.2,0-8.3-1.7-11.2-4.6l-18.5-18.5c-3-3-4.6-7-4.6-11.2v-90.9h3v90.9
				c0,3.4,1.4,6.7,3.8,9.1l18.5,18.5c2.4,2.4,5.7,3.8,9.1,3.8h195.7v2.9C1179.3-32.2,1179.1-32.2,1179.1-32.2z"/>
		</g>
		<g>
			<g>
				<path class="st1" d="M827.8,30.1c-5.8,0-11.6-1.2-17-3.7l1.2-2.7c14.5,6.6,31.8,3.4,43-7.8c15-15,15-39.3,0-54.3
					s-39.3-15-54.3,0c-11.3,11.3-14.4,28.6-7.8,43l-2.7,1.2c-7.1-15.6-3.7-34.3,8.4-46.4c16.1-16.1,42.4-16.1,58.5,0
					s16.1,42.4,0,58.5C849.2,26,838.7,30.1,827.8,30.1z"/>
				<path class="st1" d="M839.8,48.6h-23.8l-1.3-12c-2-0.5-4-1.2-5.9-2l1.1-2.8c2.1,0.9,4.3,1.6,6.5,2.1l1,0.3l1.2,11.4h18.3
					l1.2-11.4l1-0.3c2.2-0.5,4.4-1.3,6.5-2.1c2.1-0.9,4.2-1.9,6.1-3.1l0.9-0.5l8.9,7.2l12.9-12.9l-7.2-8.9l0.5-0.9
					c1.2-2,2.2-4,3.1-6.1s1.6-4.3,2.1-6.5l0.3-1l11.4-1.2v-18.3l-11.4-1.2l-0.3-1c-0.5-2.2-1.3-4.4-2.1-6.5
					c-0.9-2.1-1.9-4.2-3.1-6.1l-0.5-0.9l7.2-8.9l-12.8-13l-8.9,7.2l-0.9-0.5c-2-1.2-4-2.2-6.1-3.1c-2.1-0.9-4.3-1.6-6.5-2.1l-1-0.3
					l-1.2-11.4h-18.3l-1.2,11.4l-1,0.3c-2.2,0.5-4.4,1.3-6.5,2.1c-2.1,0.9-4.2,1.9-6.1,3.1l-0.9,0.5L794-58l-12.9,13l7.2,8.9
					l-0.5,0.9c-1.2,2-2.2,4-3.1,6.1c-0.9,2.1-1.6,4.3-2.1,6.5l-0.3,1l-11.4,1.2v18.3l11.4,1.2l0.3,1c0.5,2.2,1.3,4.4,2.1,6.5
					l-2.8,1.1c-0.8-1.9-1.5-3.9-2-5.9l-12-1.3v-23.7l12-1.3c0.5-2,1.2-4,2-5.9c0.8-1.9,1.7-3.8,2.8-5.6l-7.6-9.4l16.8-16.8l9.4,7.6
					c1.8-1,3.7-2,5.6-2.8c1.9-0.8,3.9-1.5,5.9-2l1.3-12h23.8l1.3,12c2,0.5,4,1.2,5.9,2s3.8,1.7,5.6,2.8l9.4-7.6l16.8,16.8l-7.6,9.4
					c1,1.8,2,3.7,2.8,5.6c0.8,1.9,1.5,3.9,2,5.9l12,1.3V0.5l-12,1.3c-0.5,2-1.2,4-2,5.9c-0.8,1.9-1.7,3.8-2.8,5.6l7.6,9.4
					l-16.8,16.8l-9.4-7.6c-1.8,1-3.7,2-5.6,2.8c-1.9,0.8-3.9,1.5-5.9,2L839.8,48.6z"/>
			</g>
			<g>
				<path class="st1" d="M801.8,23.3l-8.5-8.5l9.9-9.9l8.5,8.5L801.8,23.3z M797.8,14.8l4.2,4.2l5.6-5.6l-4.2-4.2L797.8,14.8z"/>
				<path class="st1" d="M771.2,57.2c-0.7,0-1.3-0.3-1.8-0.7l-9.3-9.3c-1-1-1-2.6,0-3.6l31.3-31.3c1-1,2.6-1,3.6,0l9.3,9.3
					c0.5,0.5,0.7,1.1,0.7,1.8s-0.3,1.3-0.7,1.8L773,56.5C772.8,56.9,771.8,57.2,771.2,57.2z M762.8,45.4l8.7,8.7l30.5-30.6l-8.7-8.7
					L762.8,45.4z"/>
				<path class="st1" d="M827.8,20.7c-8.5,0-16.6-3.3-22.6-9.4c-6-6-9.4-14.1-9.4-22.6s3.3-16.6,9.4-22.6
					c12.5-12.5,32.7-12.5,45.2,0s12.5,32.7,0,45.2C844.7,17.4,836.3,20.7,827.8,20.7z M827.8-40.2c-7.7,0-15,3-20.5,8.5
					c-11.3,11.3-11.3,29.7,0,41c11.3,11.3,29.7,11.3,41,0c5.5-5.5,8.5-12.7,8.5-20.5c0-7.7-3-15-8.5-20.5S835.8-40.2,827.8-40.2z"/>
				
					<rect x="763.7" y="43.9" transform="matrix(-0.7071 -0.7071 0.7071 -0.7071 1284.5754 622.8562)" class="st1" width="15.2" height="3"/>
			</g>
		</g>
		<g>
			<rect x="885.8" y="-12.7" class="st1" width="288.8" height="3"/>
			<path class="st1" d="M769.3-9.7h-24.9c-4.2,0-8.3-1.7-11.2-4.6l-18.5-18.5c-3-3-4.6-7-4.6-11.2v-33.9h3V-44
				c0,3.4,1.4,6.7,3.8,9.1l18.5,18.5c2.4,2.4,5.7,3.8,9.1,3.8h24.9L769.3-9.7L769.3-9.7z"/>
		</g>
		<g>
			<g id="XMLID_18_">
				<g id="XMLID_83_">
					<path id="XMLID_108_" class="st1" d="M693.7-122c-3.7,0-4.2-0.6-4.5-0.9c-1-1.1-1.1-4.9-0.7-6.9c0.3-1.3,0.9-2.3,1.7-2.7
						c0.9-0.4,1.7-0.7,2.4-0.9c0.7-0.2,1.1-0.4,1.4-0.6l0.2-0.2c2.3-1.6,4.9-3.3,6.5-3.5c0.1,0,11.2-1,13.7,0.2
						c0.7,0.3,1.6,0.9,2.7,1.5c1.6,1,3.7,2.3,5,2.7c0.3,0.1,0.9,0.2,1.5,0.2c3.1,0.4,9.5,1.1,9.4,7.8v0.1c-0.3,2.7-3.4,3-6.3,3
						c-0.6,0-1.1-0.5-1.1-1.1s0.5-1.1,1.1-1.1c2.5,0,3.8-0.3,3.9-0.8c0.1-4.1-3.5-4.9-7.4-5.4c-0.7-0.1-1.4-0.2-2-0.3
						c-1.6-0.4-3.8-1.7-5.6-2.9c-0.9-0.6-1.8-1.1-2.5-1.4c-1.3-0.6-9.4-0.3-12.4,0c-0.6,0.1-2,0.6-5.4,3.1l-0.3,0.2
						c-0.6,0.4-1.3,0.6-2.1,0.9c-0.6,0.2-1.2,0.4-2.2,0.8c-0.7,0.5-0.7,4.5-0.2,5.7c0.5,0.1,2.1,0.2,3.5,0.2c0.6,0,1.1,0.5,1.2,1.1
						c0,0.6-0.5,1.1-1.1,1.2C694.2-122,693.8-122,693.7-122z"/>
					<path id="XMLID_106_" class="st1" d="M723.2-118.8c-2.5,0-4.5-2.1-4.5-4.5c0-2.5,2.1-4.5,4.5-4.5c2.5,0,4.5,2.1,4.5,4.5
						C727.8-120.9,725.8-118.8,723.2-118.8z M723.2-125.5c-1.2,0-2.2,0.9-2.2,2.2c0,1.2,0.9,2.2,2.2,2.2c1.2,0,2.2-0.9,2.2-2.2
						C725.7-124.5,724.8-125.5,723.2-125.5z"/>
					<path id="XMLID_105_" class="st1" d="M698.3-118.8c-2.5,0-4.5-2.1-4.5-4.5c0-2.5,2.1-4.5,4.5-4.5s4.5,2.1,4.5,4.5
						S700.8-118.8,698.3-118.8z M698.3-125.5c-1.2,0-2.2,0.9-2.2,2.2c0,1.2,0.9,2.2,2.2,2.2c1.3,0,2.2-0.9,2.2-2.2
						C700.7-124.5,699.7-125.5,698.3-125.5z"/>
					<path id="XMLID_87_" class="st1" d="M719.2-126.6L719.2-126.6c-2.2,0-13.3-0.2-16-2c-3-1.8-3.6-4.9-3.7-5
						c-0.1-0.6,0.3-1.2,0.9-1.3c0.6-0.1,1.2,0.3,1.3,0.9c0,0.1,0.5,2.3,2.7,3.5c1.6,1,10,1.5,14.8,1.5c0.6,0,1.1,0.5,1.1,1.1
						C720.2-127.2,719.8-126.6,719.2-126.6z"/>
					<path id="XMLID_86_" class="st1" d="M720.2-122.2h-18.4c-0.6,0-1.1-0.5-1.1-1.1s0.5-1.1,1.1-1.1h18.4c0.6,0,1.1,0.5,1.1,1.1
						S720.8-122.2,720.2-122.2z"/>
					<path id="XMLID_84_" class="st1" d="M727.8-122.2c-0.2,0-0.4,0-0.6,0c-0.6-0.1-1.1-0.6-1-1.2s0.6-1.1,1.2-1
						c1,0.1,2.4-0.2,3-0.8c0.1-0.1,0.3-0.3,0.3-0.4c0,0,0,0,0-0.1c0.2-3.7-3.4-4.4-7.3-4.9c-0.8-0.1-1.4-0.2-2-0.3
						c-0.6-0.2-1-0.8-0.8-1.4c0.2-0.6,0.8-1,1.4-0.8c0.3,0.1,1,0.2,1.6,0.3c3.1,0.4,9.7,1.2,9.3,7.3c0,0.8-0.4,1.5-1,2.2
						C731.2-122.7,729.3-122.2,727.8-122.2z"/>
				</g>
				<g id="XMLID_62_">
					<path id="XMLID_65_" class="st1" d="M688.2-111.6c-0.3,0-0.7-0.2-0.9-0.5c-6.9-9.9-6.9-23,0-32.9c0.4-0.5,1-0.6,1.5-0.3
						c0.5,0.4,0.6,1,0.3,1.5c-6.4,9-6.4,21.1,0,30.2c0.4,0.5,0.2,1.2-0.3,1.5C688.3-111.7,688.2-111.6,688.2-111.6z"/>
					<path id="XMLID_64_" class="st1" d="M710.7-99.9c-5.7,0-11.5-1.7-16.4-5.1c-0.5-0.4-0.6-1-0.3-1.5c0.4-0.5,1-0.6,1.5-0.3
						c9,6.4,21.1,6.4,30.2,0c0.5-0.4,1.2-0.2,1.5,0.3c0.4,0.5,0.2,1.2-0.3,1.5C722.2-101.6,716.2-99.9,710.7-99.9z"/>
				</g>
				<g id="XMLID_42_">
					<path id="XMLID_61_" class="st1" d="M726.2-149.9c-0.2,0-0.4-0.1-0.6-0.2c-9-6.4-21.1-6.4-30.2,0c-0.5,0.4-1.2,0.2-1.5-0.3
						c-0.4-0.5-0.2-1.2,0.3-1.5c9.9-6.9,23-6.9,32.9,0c0.5,0.4,0.6,1,0.3,1.5C726.8-150.1,726.8-149.9,726.2-149.9z"/>
					<path id="XMLID_43_" class="st1" d="M733.2-111.6c-0.2,0-0.4-0.1-0.6-0.2c-0.5-0.4-0.6-1-0.3-1.5c6.4-9,6.4-21.1,0-30.2
						c-0.4-0.5-0.2-1.2,0.3-1.5c0.5-0.4,1.2-0.2,1.5,0.3c6.9,9.9,6.9,23,0,32.9C733.8-111.8,733.3-111.6,733.2-111.6z"/>
				</g>
				<circle id="XMLID_40_" class="st1" cx="732.2" cy="-111.4" r="2.6"/>
				<circle id="XMLID_39_" class="st1" cx="688.8" cy="-145.5" r="2.6"/>
				<circle id="XMLID_21_" class="st1" cx="727.8" cy="-150" r="2.6"/>
				<circle id="XMLID_20_" class="st1" cx="693.3" cy="-106.9" r="2.6"/>
			</g>
			<g>
				<g>
					<path class="st1" d="M770.2-89.2h-3v-73c0-1.5-1.3-2.8-2.8-2.8H656.8c-1.5,0-2.8,1.3-2.8,2.8v73h-3v-73c0-3.2,2.6-5.8,5.8-5.8
						H764c3.2,0,5.8,2.6,5.8,5.8v73H770.2z"/>
					<path class="st1" d="M771.2-77h-121c-4.1,0-7.5-3.4-7.5-7.5v-6.2h56.7v1.5c0,1.5,1.3,2.8,2.8,2.8h17.2c1.5,0,2.8-1.3,2.8-2.8
						v-1.5h56.7v6.2C778.7-80.4,775.2-77,771.2-77z M645.7-87.7v3.2c0,2.5,2,4.5,4.5,4.5h121.1c2.5,0,4.5-2,4.5-4.5v-3.2h-50.9
						c-0.7,2.5-2.9,4.3-5.6,4.3h-17.3c-2.7,0-4.9-1.8-5.6-4.3H645.7z"/>
					<path class="st1" d="M763.7-94.2h-106v-67.4h106V-94.2z M660.7-97.2h100v-61.4h-100V-97.2z"/>
				</g>
			</g>
		</g>
		<g>
			<g id="XMLID_5_">
				<g id="XMLID_16_">
					<path id="XMLID_30_" class="st1" d="M935.8-195.4c-3.2,0-3.6-0.5-3.9-0.8c-0.9-1-1-4.3-0.6-5.9c0.3-1.2,0.8-2,1.5-2.3
						c0.8-0.4,1.5-0.6,2-0.8c0.6-0.2,1-0.4,1.2-0.5l0.2-0.2c2-1.4,4.3-2.8,5.6-3c0.1,0,9.7-0.9,11.8,0.2c0.6,0.3,1.4,0.8,2.3,1.3
						c1.4,0.9,3.2,2,4.3,2.3c0.3,0.1,0.8,0.2,1.3,0.2c2.7,0.4,8.2,1,8.2,6.7v0.1c-0.3,2.3-2.9,2.6-5.4,2.6c-0.5,0-1-0.4-1-1
						c0-0.5,0.4-1,1-1c2.1,0,3.3-0.3,3.4-0.7c0.1-3.5-3-4.3-6.4-4.7c-0.6-0.1-1.2-0.2-1.7-0.3c-1.4-0.4-3.3-1.5-4.9-2.5
						c-0.8-0.5-1.6-1-2.1-1.2c-1.2-0.5-8.2-0.3-10.7,0c-0.5,0.1-1.7,0.5-4.7,2.7l-0.3,0.2c-0.5,0.4-1.2,0.5-1.8,0.8
						c-0.5,0.2-1.1,0.4-1.9,0.7c-0.6,0.4-0.6,3.9-0.2,5c0.4,0.1,1.8,0.2,3,0.2c0.5,0,1,0.4,1.1,1c0,0.5-0.4,1-1,1.1
						C936.2-195.4,936.2-195.4,935.8-195.4z"/>
					<path id="XMLID_27_" class="st1" d="M961.8-192.7c-2.1,0-3.9-1.8-3.9-3.9c0-2.1,1.8-3.9,3.9-3.9c2.1,0,3.9,1.8,3.9,3.9
						C965.4-194.5,963.8-192.7,961.8-192.7z M961.8-198.5c-1.1,0-1.9,0.8-1.9,1.9c0,1.1,0.8,1.9,1.9,1.9c1.1,0,1.9-0.8,1.9-1.9
						C963.3-197.6,962.8-198.5,961.8-198.5z"/>
					<path id="XMLID_24_" class="st1" d="M940.2-192.7c-2.1,0-3.9-1.8-3.9-3.9c0-2.1,1.8-3.9,3.9-3.9c2.1,0,3.9,1.8,3.9,3.9
						C943.8-194.5,942.2-192.7,940.2-192.7z M940.2-198.5c-1.1,0-1.9,0.8-1.9,1.9c0,1.1,0.8,1.9,1.9,1.9c1.1,0,1.9-0.8,1.9-1.9
						C941.8-197.6,941.2-198.5,940.2-198.5z"/>
					<path id="XMLID_23_" class="st1" d="M957.8-199.4L957.8-199.4c-1.9,0-11.5-0.2-13.8-1.7c-2.6-1.6-3.1-4.3-3.2-4.3
						c-0.1-0.5,0.3-1.1,0.8-1.2c0.5-0.1,1.1,0.3,1.2,0.8c0,0.1,0.4,2,2.3,3c1.4,0.9,8.6,1.3,12.8,1.3c0.5,0,1,0.4,1,1
						C958.8-199.9,958.4-199.4,957.8-199.4z"/>
					<path id="XMLID_22_" class="st1" d="M958.8-195.6h-15.9c-0.5,0-1-0.4-1-1c0-0.5,0.4-1,1-1h15.9c0.5,0,1,0.4,1,1
						C959.8-196.1,959.2-195.6,958.8-195.6z"/>
					<path id="XMLID_19_" class="st1" d="M965.4-195.6c-0.2,0-0.4,0-0.5,0c-0.5-0.1-1-0.5-0.9-1.1c0.1-0.5,0.5-1,1.1-0.9
						c0.9,0.1,2-0.2,2.6-0.7c0.1-0.1,0.3-0.3,0.3-0.4c0,0,0,0,0-0.1c0.2-3.2-2.9-3.8-6.3-4.3c-0.7-0.1-1.2-0.2-1.7-0.3
						c-0.5-0.2-0.9-0.7-0.7-1.2c0.2-0.5,0.7-0.9,1.2-0.7c0.3,0.1,0.9,0.2,1.4,0.3c2.7,0.4,8.3,1.1,8.1,6.3c0,0.7-0.4,1.3-0.9,1.9
						C968.2-196.1,966.8-195.6,965.4-195.6z"/>
				</g>
				<g id="XMLID_13_">
					<path id="XMLID_15_" class="st1" d="M931.2-186.4c-0.3,0-0.6-0.2-0.8-0.4c-5.9-8.5-5.9-19.9,0-28.4c0.4-0.4,0.9-0.5,1.3-0.3
						c0.4,0.4,0.5,0.9,0.3,1.3c-5.5,7.8-5.5,18.3,0,26.1c0.4,0.4,0.2,1.1-0.3,1.3C931.3-186.5,931.2-186.4,931.2-186.4z"/>
					<path id="XMLID_14_" class="st1" d="M950.4-176.3c-5,0-9.9-1.5-14.2-4.4c-0.4-0.4-0.5-0.9-0.3-1.3c0.4-0.4,0.9-0.5,1.3-0.3
						c7.8,5.5,18.3,5.5,26.1,0c0.4-0.4,1.1-0.2,1.3,0.3c0.4,0.4,0.2,1.1-0.3,1.3C960.3-177.8,955.4-176.3,950.4-176.3z"/>
				</g>
				<g id="XMLID_10_">
					<path id="XMLID_12_" class="st1" d="M964.2-219.5c-0.2,0-0.4-0.1-0.5-0.2c-7.8-5.5-18.3-5.5-26.1,0c-0.4,0.4-1.1,0.2-1.3-0.3
						c-0.4-0.4-0.2-1.1,0.3-1.3c8.5-5.9,19.9-5.9,28.4,0c0.4,0.4,0.5,0.9,0.3,1.3C964.8-219.7,964.3-219.5,964.2-219.5z"/>
					<path id="XMLID_11_" class="st1" d="M969.8-186.4c-0.2,0-0.4-0.1-0.5-0.2c-0.4-0.4-0.5-0.9-0.3-1.3c5.5-7.8,5.5-18.3,0-26.1
						c-0.4-0.4-0.2-1.1,0.3-1.3c0.4-0.4,1.1-0.2,1.3,0.3c5.9,8.5,5.9,19.9,0,28.4C970.4-186.6,970.2-186.4,969.8-186.4z"/>
				</g>
				<circle id="XMLID_9_" class="st1" cx="969.2" cy="-186.2" r="2.2"/>
				<circle id="XMLID_8_" class="st1" cx="931.8" cy="-215.8" r="2.2"/>
				<circle id="XMLID_7_" class="st1" cx="965.2" cy="-219.6" r="2.2"/>
				<circle id="XMLID_6_" class="st1" cx="935.8" cy="-182.4" r="2.2"/>
			</g>
			<g>
				<g>
					<path class="st1" d="M1001.9-167.1h-3v-63c0-1.2-1-2.2-2.2-2.2H904c-1.2,0-2.2,1-2.2,2.2v63h-3v-63c0-2.9,2.3-5.2,5.2-5.2h92.7
						c2.9,0,5.2,2.3,5.2,5.2V-167.1z"/>
					<path class="st1" d="M1002.8-156.4H898.2c-3.7,0-6.7-3-6.7-6.7v-5.6h49.3v1.5c0,1.2,1,2.2,2.2,2.2h14.8c1.2,0,2.2-1,2.2-2.2
						v-1.5h49.3v5.6C1009.4-159.4,1006.4-156.4,1002.8-156.4z M894.7-165.6v2.6c0,2,1.6,3.7,3.7,3.7h104.6c2,0,3.7-1.6,3.7-3.7v-2.6
						h-43.7c-0.6,2.1-2.6,3.7-5,3.7h-14.8c-2.4,0-4.3-1.6-5-3.7H894.7z"/>
					<path class="st1" d="M996.4-171.2h-92v-58.6h92V-171.2z M907.7-174.2h86v-52.6h-86V-174.2L907.7-174.2z"/>
				</g>
			</g>
		</g>
	</g>
	<g>
		<g>
			<path class="st1" d="M1603.9-32.2h-195.7v-3h195.7c3.4,0,6.7-1.4,9.1-3.8l18.5-18.5c2.4-2.4,3.8-5.7,3.8-9.1v-90.9h3v90.9
				c0,4.2-1.7,8.3-4.6,11.2l-18.5,18.5C1612.2-33.9,1608.1-32.2,1603.9-32.2z"/>
		</g>
		<g>
			<g>
				<path class="st1" d="M1759.8,30.1c-10.8,0-21.5-4.2-29.4-12.1c-16.1-16.1-16.1-42.4,0-58.5s42.4-16.1,58.5,0
					c12.1,12.1,15.5,30.8,8.4,46.4l-2.7-1.2c6.6-14.5,3.4-31.8-7.8-43c-15-15-39.3-15-54.3,0s-15,39.3,0,54.3
					c11.3,11.3,28.5,14.4,43,7.8l1.2,2.7C1771.3,28.9,1765.8,30.1,1759.8,30.1z"/>
				<path class="st1" d="M1771.4,48.6h-23.7l-1.3-12c-2-0.5-4-1.2-5.9-2s-3.8-1.7-5.6-2.8l-9.4,7.6l-16.8-16.8l7.6-9.4
					c-1-1.8-2-3.7-2.8-5.6s-1.5-3.9-2-5.9l-12-1.3v-23.7l12-1.3c0.5-2,1.2-3.9,2-5.9c0.8-1.9,1.7-3.8,2.8-5.6l-7.6-9.4l16.8-16.8
					l9.4,7.6c1.8-1,3.7-2,5.6-2.8s3.9-1.5,5.9-2l1.3-12h23.7l1.3,12c2,0.5,4,1.2,5.9,2s3.8,1.7,5.6,2.8l9.4-7.6l16.8,16.8l-7.6,9.4
					c1,1.8,2,3.7,2.8,5.6s1.5,3.9,2,5.9l12,1.3V0.4l-12,1.3c-0.5,2-1.2,4-2,5.9l-2.8-1.1c0.9-2.1,1.6-4.3,2.1-6.5l0.3-1l11.4-1.2
					v-18.3l-11.4-1.2l-0.3-1c-0.6-2.2-1.3-4.4-2.1-6.5c-0.9-2.1-1.9-4.2-3.1-6.1l-0.5-0.9l7.2-8.9l-13-12.9l-8.9,7.2l-0.9-0.5
					c-2-1.2-4-2.2-6.2-3.1c-2.1-0.9-4.3-1.6-6.5-2.1l-1-0.3l-1.2-11.4h-18.3l-1.2,11.4l-1,0.3c-2.2,0.5-4.4,1.3-6.5,2.1
					c-2.1,0.9-4.2,1.9-6.2,3.1l-0.9,0.5l-8.8-7.2l-13,12.9l7.2,8.9l-0.5,0.9c-1.2,2-2.2,4-3.1,6.1s-1.6,4.3-2.1,6.5l-0.3,1
					l-11.4,1.2v18.3l11.4,1.2l0.3,1c0.5,2.2,1.3,4.4,2.1,6.5c0.9,2.1,1.9,4.2,3.1,6.1l0.5,0.9l-7.2,8.9l13,12.9l8.9-7.2l0.9,0.5
					c2,1.2,4,2.2,6.1,3.1s4.3,1.6,6.5,2.1l1,0.3l1.2,11.4h18.3l1.2-11.4l1-0.3c2.2-0.5,4.4-1.3,6.5-2.1l1.1,2.8
					c-1.9,0.8-3.9,1.5-5.9,2L1771.4,48.6z"/>
			</g>
			<g>
				<path class="st1" d="M1785.8,23.3l-9.9-9.9l8.5-8.5l9.9,9.9L1785.8,23.3z M1780,13.5l5.6,5.6l4.2-4.2l-5.6-5.6L1780,13.5z"/>
				<path class="st1" d="M1816.2,57.2c-0.7,0-1.3-0.3-1.8-0.7l-31.3-31.3c-1-1-1-2.6,0-3.6l9.3-9.3c1-1,2.6-1,3.6,0l31.3,31.3
					c1,1,1,2.6,0,3.6l-9.3,9.3C1817.8,56.9,1816.9,57.2,1816.2,57.2z M1785.8,23.4l30.6,30.6l8.7-8.7l-30.6-30.6L1785.8,23.4z"/>
				<path class="st1" d="M1759.8,20.7c-8.2,0-16.4-3.1-22.6-9.3c-12.5-12.5-12.5-32.7,0-45.2s32.7-12.5,45.2,0
					c6,6,9.4,14.1,9.4,22.6s-3.3,16.6-9.4,22.6C1775.9,17.6,1767.8,20.7,1759.8,20.7z M1759.8-40.2c-7.7,0-15,3-20.5,8.5
					s-8.5,12.7-8.5,20.5c0,7.7,3,15,8.5,20.5c11.3,11.3,29.7,11.3,41,0s11.3-29.7,0-41C1774.8-37.2,1767.3-40.2,1759.8-40.2z"/>
				
					<rect x="1814.9" y="37.7" transform="matrix(-0.7071 -0.7071 0.7071 -0.7071 3068.6973 1361.683)" class="st1" width="3" height="15.2"/>
			</g>
		</g>
		<g>
			<rect x="1412.9" y="-12.7" class="st1" width="288.8" height="3"/>
			<path class="st1" d="M1843-9.7h-24.9v-3h24.9c3.4,0,6.7-1.4,9.1-3.8l18.5-18.5c2.4-2.4,3.8-5.7,3.8-9.1V-78h3v33.9
				c0,4.2-1.7,8.3-4.6,11.2l-18.5,18.5C1851.3-11.4,1847.2-9.7,1843-9.7z"/>
		</g>
		<g>
			<g id="XMLID_57_">
				<g id="XMLID_72_">
					<path id="XMLID_82_" class="st1" d="M1859.9-122c-3.7,0-4.2-0.6-4.5-0.9c-1-1.1-1.1-4.9-0.7-6.9c0.3-1.3,0.9-2.3,1.7-2.7
						c0.9-0.4,1.7-0.7,2.4-0.9c0.7-0.2,1.1-0.4,1.4-0.6l0.2-0.2c2.3-1.6,4.9-3.3,6.5-3.5c0.1,0,11.2-1,13.7,0.2
						c0.7,0.3,1.6,0.9,2.7,1.5c1.6,1,3.7,2.3,5,2.7c0.3,0.1,0.9,0.2,1.5,0.2c3.1,0.4,9.5,1.1,9.4,7.8v0.1c-0.3,2.7-3.4,3-6.3,3
						c-0.6,0-1.1-0.5-1.1-1.1s0.5-1.1,1.1-1.1c2.5,0,3.8-0.3,3.9-0.8c0.1-4.1-3.5-4.9-7.4-5.4c-0.7-0.1-1.4-0.2-2-0.3
						c-1.6-0.4-3.8-1.7-5.6-2.9c-0.9-0.6-1.8-1.1-2.5-1.4c-1.3-0.6-9.4-0.3-12.4,0c-0.6,0.1-2,0.6-5.4,3.1l-0.3,0.2
						c-0.6,0.4-1.3,0.6-2.1,0.9c-0.6,0.2-1.2,0.4-2.2,0.8c-0.7,0.5-0.7,4.5-0.2,5.7c0.5,0.1,2.1,0.2,3.5,0.2c0.6,0,1.1,0.5,1.2,1.1
						c0,0.6-0.5,1.1-1.1,1.2C1860.4-122,1860.1-122,1859.9-122z"/>
					<path id="XMLID_79_" class="st1" d="M1889.8-118.8c-2.5,0-4.5-2.1-4.5-4.5c0-2.5,2.1-4.5,4.5-4.5s4.5,2.1,4.5,4.5
						S1892.2-118.8,1889.8-118.8z M1889.8-125.5c-1.2,0-2.2,0.9-2.2,2.2c0,1.2,0.9,2.2,2.2,2.2c1.2,0,2.2-0.9,2.2-2.2
						C1891.9-124.5,1891-125.5,1889.8-125.5z"/>
					<path id="XMLID_76_" class="st1" d="M1864.8-118.8c-2.5,0-4.5-2.1-4.5-4.5c0-2.5,2.1-4.5,4.5-4.5s4.5,2.1,4.5,4.5
						S1867.3-118.8,1864.8-118.8z M1864.8-125.5c-1.2,0-2.2,0.9-2.2,2.2c0,1.2,0.9,2.2,2.2,2.2c1.2,0,2.2-0.9,2.2-2.2
						C1867-124.5,1866-125.5,1864.8-125.5z"/>
					<path id="XMLID_75_" class="st1" d="M1885.8-126.6L1885.8-126.6c-2.2,0-13.3-0.2-16-2c-3-1.8-3.6-4.9-3.7-5
						c-0.1-0.6,0.3-1.2,0.9-1.3s1.2,0.3,1.3,0.9c0,0.1,0.5,2.3,2.7,3.5c1.6,1,10,1.5,14.8,1.5c0.6,0,1.1,0.5,1.1,1.1
						C1886.8-127.2,1886.2-126.6,1885.8-126.6z"/>
					<path id="XMLID_74_" class="st1" d="M1886.8-122.2h-18.4c-0.6,0-1.1-0.5-1.1-1.1s0.5-1.1,1.1-1.1h18.4c0.6,0,1.1,0.5,1.1,1.1
						S1887.1-122.2,1886.8-122.2z"/>
					<path id="XMLID_73_" class="st1" d="M1894.3-122.2c-0.2,0-0.4,0-0.6,0c-0.6-0.1-1.1-0.6-1-1.2s0.6-1.1,1.2-1
						c1,0.1,2.4-0.2,3-0.8c0.1-0.1,0.3-0.3,0.3-0.4c0,0,0,0,0-0.1c0.2-3.7-3.4-4.4-7.3-4.9c-0.8-0.1-1.4-0.2-2-0.3
						c-0.6-0.2-1-0.8-0.8-1.4s0.8-1,1.4-0.8c0.3,0.1,1,0.2,1.6,0.3c3.1,0.4,9.7,1.2,9.3,7.3c0,0.8-0.4,1.5-1,2.2
						C1897.8-122.7,1895.8-122.2,1894.3-122.2z"/>
				</g>
				<g id="XMLID_69_">
					<path id="XMLID_71_" class="st1" d="M1854.8-111.6c-0.3,0-0.7-0.2-0.9-0.5c-6.9-9.9-6.9-23,0-32.9c0.4-0.5,1-0.6,1.5-0.3
						c0.5,0.4,0.6,1,0.3,1.5c-6.4,9-6.4,21.1,0,30.2c0.4,0.5,0.2,1.2-0.3,1.5C1854.9-111.7,1854.8-111.6,1854.8-111.6z"/>
					<path id="XMLID_70_" class="st1" d="M1876.9-99.9c-5.7,0-11.5-1.7-16.4-5.1c-0.5-0.4-0.6-1-0.3-1.5c0.4-0.5,1-0.6,1.5-0.3
						c9,6.4,21.1,6.4,30.2,0c0.5-0.4,1.2-0.2,1.5,0.3c0.4,0.5,0.2,1.2-0.3,1.5C1888.4-101.6,1882.8-99.9,1876.9-99.9z"/>
				</g>
				<g id="XMLID_66_">
					<path id="XMLID_68_" class="st1" d="M1892.8-149.9c-0.2,0-0.4-0.1-0.6-0.2c-9-6.4-21.1-6.4-30.2,0c-0.5,0.4-1.2,0.2-1.5-0.3
						c-0.4-0.5-0.2-1.2,0.3-1.5c9.9-6.9,23-6.9,32.9,0c0.5,0.4,0.6,1,0.3,1.5C1893.4-150.1,1893.1-149.9,1892.8-149.9z"/>
					<path id="XMLID_67_" class="st1" d="M1899.4-111.6c-0.2,0-0.4-0.1-0.6-0.2c-0.5-0.4-0.6-1-0.3-1.5c6.4-9,6.4-21.1,0-30.2
						c-0.4-0.5-0.2-1.2,0.3-1.5c0.5-0.4,1.2-0.2,1.5,0.3c6.9,9.9,6.9,23,0,32.9C1900.1-111.8,1899.8-111.6,1899.4-111.6z"/>
				</g>
				<circle id="XMLID_63_" class="st1" cx="1898.8" cy="-111.4" r="2.6"/>
				<circle id="XMLID_60_" class="st1" cx="1855.4" cy="-145.5" r="2.6"/>
				<circle id="XMLID_59_" class="st1" cx="1894.1" cy="-150" r="2.6"/>
				<circle id="XMLID_58_" class="st1" cx="1859.8" cy="-106.9" r="2.6"/>
			</g>
			<g>
				<g>
					<path class="st1" d="M1936.4-89.2h-3v-73c0-1.5-1.3-2.8-2.8-2.8h-107.3c-1.5,0-2.8,1.3-2.8,2.8v73h-3v-73
						c0-3.2,2.6-5.8,5.8-5.8h107.3c3.2,0,5.8,2.6,5.8,5.8V-89.2z"/>
					<path class="st1" d="M1937.8-77h-121.1c-4.1,0-7.5-3.4-7.5-7.5v-6.2h56.7v1.5c0,1.5,1.3,2.8,2.8,2.8h17.2
						c1.5,0,2.8-1.3,2.8-2.8v-1.5h56.7v6.2C1945-80.4,1941.8-77,1937.8-77z M1811.9-87.7v3.2c0,2.5,2,4.5,4.5,4.5h121.1
						c2.5,0,4.5-2,4.5-4.5v-3.2h-50.9c-0.7,2.5-2.9,4.3-5.6,4.3h-17.2c-2.7,0-4.9-1.8-5.6-4.3H1811.9z"/>
					<path class="st1" d="M1930-94.2h-106v-67.4h106V-94.2z M1826.9-97.2h100v-61.4h-100V-97.2z"/>
				</g>
			</g>
		</g>
		<g>
			<g id="XMLID_3_">
				<g id="XMLID_46_">
					<path id="XMLID_56_" class="st1" d="M1622.2-195.4c-3.2,0-3.6-0.5-3.9-0.8c-0.9-1-1-4.3-0.6-5.9c0.3-1.2,0.8-2,1.5-2.3
						c0.8-0.4,1.5-0.6,2-0.8c0.6-0.2,1-0.4,1.2-0.5l0.2-0.2c2-1.4,4.3-2.8,5.6-3c0.1,0,9.7-0.9,11.8,0.2c0.6,0.3,1.4,0.8,2.3,1.3
						c1.4,0.9,3.2,2,4.3,2.3c0.3,0.1,0.8,0.2,1.3,0.2c2.7,0.4,8.2,1,8.2,6.7v0.1c-0.3,2.3-2.9,2.6-5.4,2.6c-0.5,0-1-0.4-1-1
						c0-0.5,0.4-1,1-1c2.1,0,3.3-0.3,3.4-0.7c0.1-3.5-3-4.3-6.4-4.7c-0.6-0.1-1.2-0.2-1.7-0.3c-1.4-0.4-3.3-1.5-4.9-2.5
						c-0.8-0.5-1.6-1-2.1-1.2c-1.2-0.5-8.2-0.3-10.7,0c-0.5,0.1-1.7,0.5-4.7,2.7l-0.3,0.2c-0.5,0.4-1.2,0.5-1.8,0.8
						c-0.5,0.2-1.1,0.4-1.9,0.7c-0.6,0.4-0.6,3.9-0.2,5c0.4,0.1,1.8,0.2,3,0.2c0.5,0,1,0.4,1.1,1c0,0.5-0.4,1-1,1.1
						C1622.8-195.4,1622.4-195.4,1622.2-195.4z"/>
					<path id="XMLID_53_" class="st1" d="M1648-192.7c-2.1,0-3.9-1.8-3.9-3.9c0-2.1,1.8-3.9,3.9-3.9s3.9,1.8,3.9,3.9
						C1651.9-194.5,1650.2-192.7,1648-192.7z M1648-198.5c-1.1,0-1.9,0.8-1.9,1.9c0,1.1,0.8,1.9,1.9,1.9s1.9-0.8,1.9-1.9
						C1649.9-197.6,1649.1-198.5,1648-198.5z"/>
					<path id="XMLID_50_" class="st1" d="M1626.8-192.7c-2.1,0-3.9-1.8-3.9-3.9c0-2.1,1.8-3.9,3.9-3.9s3.9,1.8,3.9,3.9
						C1630.4-194.5,1628.8-192.7,1626.8-192.7z M1626.8-198.5c-1.1,0-1.9,0.8-1.9,1.9c0,1.1,0.8,1.9,1.9,1.9s1.9-0.8,1.9-1.9
						C1628.4-197.6,1627.8-198.5,1626.8-198.5z"/>
					<path id="XMLID_49_" class="st1" d="M1644.3-199.4L1644.3-199.4c-1.9,0-11.5-0.2-13.8-1.7c-2.6-1.6-3.1-4.3-3.2-4.3
						c-0.1-0.5,0.3-1.1,0.8-1.2c0.5-0.1,1.1,0.3,1.2,0.8c0,0.1,0.4,2,2.3,3c1.4,0.9,8.6,1.3,12.8,1.3c0.5,0,1,0.4,1,1
						C1645.4-199.9,1644.9-199.4,1644.3-199.4z"/>
					<path id="XMLID_48_" class="st1" d="M1645.2-195.6h-15.9c-0.5,0-1-0.4-1-1c0-0.5,0.4-1,1-1h15.9c0.5,0,1,0.4,1,1
						C1646.2-196.1,1645.8-195.6,1645.2-195.6z"/>
					<path id="XMLID_47_" class="st1" d="M1651.9-195.6c-0.2,0-0.4,0-0.5,0c-0.5-0.1-1-0.5-0.9-1.1c0.1-0.5,0.5-1,1.1-0.9
						c0.9,0.1,2-0.2,2.6-0.7c0.1-0.1,0.3-0.3,0.3-0.4c0,0,0,0,0-0.1c0.2-3.2-2.9-3.8-6.3-4.3c-0.7-0.1-1.2-0.2-1.7-0.3
						c-0.5-0.2-0.9-0.7-0.7-1.2c0.2-0.5,0.7-0.9,1.2-0.7c0.3,0.1,0.9,0.2,1.4,0.3c2.7,0.4,8.3,1.1,8.1,6.3c0,0.7-0.4,1.3-0.9,1.9
						C1654.8-196.1,1653.3-195.6,1651.9-195.6z"/>
				</g>
				<g id="XMLID_41_">
					<path id="XMLID_45_" class="st1" d="M1617.8-186.4c-0.3,0-0.6-0.2-0.8-0.4c-5.9-8.5-5.9-19.9,0-28.4c0.4-0.4,0.9-0.5,1.3-0.3
						c0.4,0.4,0.5,0.9,0.3,1.3c-5.5,7.8-5.5,18.3,0,26.1c0.4,0.4,0.2,1.1-0.3,1.3C1617.9-186.5,1617.8-186.4,1617.8-186.4z"/>
					<path id="XMLID_44_" class="st1" d="M1637-176.3c-5,0-9.9-1.5-14.2-4.4c-0.4-0.4-0.5-0.9-0.3-1.3c0.4-0.4,0.9-0.5,1.3-0.3
						c7.8,5.5,18.3,5.5,26.1,0c0.4-0.4,1.1-0.2,1.3,0.3c0.4,0.4,0.2,1.1-0.3,1.3C1646.9-177.8,1641.9-176.3,1637-176.3z"/>
				</g>
				<g id="XMLID_36_">
					<path id="XMLID_38_" class="st1" d="M1650.8-219.5c-0.2,0-0.4-0.1-0.5-0.2c-7.8-5.5-18.3-5.5-26.1,0c-0.4,0.4-1.1,0.2-1.3-0.3
						c-0.4-0.4-0.2-1.1,0.3-1.3c8.5-5.9,19.9-5.9,28.4,0c0.4,0.4,0.5,0.9,0.3,1.3C1651.1-219.7,1650.9-219.5,1650.8-219.5z"/>
					<path id="XMLID_37_" class="st1" d="M1656.4-186.4c-0.2,0-0.4-0.1-0.5-0.2c-0.4-0.4-0.5-0.9-0.3-1.3c5.5-7.8,5.5-18.3,0-26.1
						c-0.4-0.4-0.2-1.1,0.3-1.3c0.4-0.4,1.1-0.2,1.3,0.3c5.9,8.5,5.9,19.9,0,28.4C1657-186.6,1656.8-186.4,1656.4-186.4z"/>
				</g>
				<circle id="XMLID_35_" class="st1" cx="1655.8" cy="-186.2" r="2.2"/>
				<circle id="XMLID_34_" class="st1" cx="1618.3" cy="-215.8" r="2.2"/>
				<circle id="XMLID_31_" class="st1" cx="1651.8" cy="-219.6" r="2.2"/>
				<circle id="XMLID_4_" class="st1" cx="1622.1" cy="-182.4" r="2.2"/>
			</g>
			<g>
				<g>
					<path class="st1" d="M1688.8-167.1h-3v-63c0-1.2-1-2.2-2.2-2.2h-92.7c-1.2,0-2.2,1-2.2,2.2v63h-3v-63c0-2.9,2.3-5.2,5.2-5.2
						h92.7c2.9,0,5.2,2.3,5.2,5.2V-167.1z"/>
					<path class="st1" d="M1689.2-156.4h-104.6c-3.7,0-6.7-3-6.7-6.7v-5.6h49.3v1.5c0,1.2,1,2.2,2.2,2.2h14.8c1.2,0,2.2-1,2.2-2.2
						v-1.5h49.3v5.6C1695.9-159.4,1692.9-156.4,1689.2-156.4z M1581-165.6v2.6c0,2,1.6,3.7,3.7,3.7h104.5c2,0,3.7-1.6,3.7-3.7v-2.6
						h-43.6c-0.6,2.1-2.6,3.7-5,3.7h-14.8c-2.3,0-4.3-1.6-5-3.7H1581z"/>
					<path class="st1" d="M1682.9-171.2h-92v-58.6h92V-171.2z M1594-174.2h86v-52.6h-86V-174.2z"/>
				</g>
			</g>
		</g>
	</g>
</g>
<path class="st2" d="M1776.9,769.8h-315.9c-17.4,0-31.5-14.1-31.5-31.5V411.1c0-17.4,14.1-31.5,31.5-31.5h315.9
	c17.4,0,31.5,14.1,31.5,31.5v327.2C1808.4,755.7,1794.3,769.8,1776.9,769.8z M1461.1,382.6c-15.7,0-28.5,12.8-28.5,28.5v327.2
	c0,15.7,12.8,28.5,28.5,28.5h315.9c15.7,0,28.5-12.8,28.5-28.5V411.1c0-15.7-12.8-28.5-28.5-28.5H1461.1z"/>
<g id="XMLID_1184_">
	<circle id="XMLID_491_" class="st2" cx="1807" cy="576.1" r="124.2"/>
	<g id="XMLID_574_">
		<path id="XMLID_540_" class="st0" d="M1864.4,632.7h-5.5v-12.5l-14.2-4.9l-4.1,4.6h-7.8l-4.2-4.7l-14.3,4.9l-0.1,12.7h-5.5v-12.5
			c0-2.4,1.5-4.5,3.8-5.3l14.2-4.8v-6.3c-2.2-1.4-3.6-3.8-3.8-6.4l-1.2-14.5c0-8.4,6.7-15.1,14.8-15.1s14.8,6.7,14.8,14.9v0.2
			l-1.2,14.6c-0.2,2.7-1.6,5.1-3.9,6.5v6.2l14.2,4.8c2.3,0.8,3.8,2.9,3.8,5.3v12.3H1864.4z M1835.3,614.4h2.9l2.8-3.2v-4l-1.7,1.1
			h-5.5l-1.6-1v3.6L1835.3,614.4z M1835.4,602.9h2.3l5.4-3.4c1.1-0.6,1.7-1.5,1.8-2.5l1.2-14.5c-0.1-5.1-4.2-9.3-9.4-9.3
			c-5.2,0-9.4,4.2-9.4,9.4l1.2,14.3c0.1,1,0.7,1.9,1.6,2.4l0.2,0.1L1835.4,602.9z M1805.1,632.7h-5.5v-13.3l-14.2-4.9l-4.1,4.6h-7.8
			l-4.2-4.7l-14.3,4.9l-0.1,13.4h-5.5v-13.3c0-2.4,1.5-4.5,3.8-5.3l14.2-4.8V603c-2.2-1.4-3.6-3.8-3.8-6.4l-1.2-14.5
			c0-8.4,6.7-15.1,14.8-15.1c8.2,0,14.8,6.7,14.8,14.8v0.2l-1.2,14.6c-0.2,2.6-1.7,5.1-3.9,6.5v6.2l14.2,4.8
			c2.3,0.8,3.8,2.9,3.8,5.3v13.3L1805.1,632.7L1805.1,632.7z M1776,613.7h2.9l2.8-3.2v-4l-1.7,1.1h-5.5l-1.6-1v3.6L1776,613.7z
			 M1776.2,602.2h2.3l5.4-3.4c1.1-0.6,1.7-1.5,1.8-2.5l1.2-14.5c-0.1-5.1-4.2-9.3-9.4-9.3c-5.2,0-9.4,4.2-9.4,9.4l1.2,14.3
			c0.1,1,0.7,1.9,1.6,2.4l0.2,0.1L1776.2,602.2z M1810.8,601.5h-7.5l-3.9-4.5l-5,1.6l-1.7-5.2l4.8-1.5v-5.7
			c-2.1-1.4-3.4-3.7-3.6-6.2l-1.1-13.8c0-8.1,6.4-14.4,14.2-14.4c7.8,0,14.2,6.4,14.2,14.2v0.2l-1.1,13.8c-0.2,2.5-1.6,4.8-3.7,6.2
			v5.7l4.7,1.8l-1.9,5.1l-4.5-1.7L1810.8,601.5z M1805.8,596.1h2.6l2.5-2.9v-3.4l-1.4,0.9h-5.3l-1.3-0.8v3.1L1805.8,596.1z
			 M1805.8,585.2h2.1l5.1-3.2c1-0.5,1.6-1.4,1.6-2.3l1.1-13.7c-0.1-4.8-4-8.6-8.8-8.6s-8.7,3.9-8.7,8.7l1.1,13.6
			c0.1,0.9,0.6,1.8,1.4,2.2l0.2,0.1L1805.8,585.2z M1850.2,567.2h-5.5v-6.3l-13.3-1.9l-0.4-1.8c-0.6-2.6-1.6-5.1-3-7.4l-1-1.6
			l8-10.7l-2.8-2.8l-10.8,8l-1.6-1c-2.3-1.4-4.8-2.4-7.4-3.1l-1.8-0.4l-1.9-13.3h-3.9l-1.9,13.3l-1.8,0.4c-2.6,0.6-5,1.6-7.3,3
			l-1.6,1l-10.7-8.1l-2.8,2.8l8,10.8l-1,1.6c-1.4,2.3-2.5,4.8-3.1,7.4l-0.4,1.8l-13.3,1.9v6.3h-5.5v-11l14.3-2
			c0.6-1.9,1.4-3.8,2.3-5.5l-8.6-11.6l9.5-9.4l11.6,8.7c1.7-0.9,3.6-1.7,5.5-2.3l2.1-14.3h13.4l2.1,14.3c1.9,0.6,3.8,1.3,5.5,2.3
			l11.6-8.7l9.5,9.5l-8.7,11.6c1,1.8,1.7,3.6,2.3,5.5l14.3,2.1L1850.2,567.2z"/>
	</g>
</g>
<g id="XMLID_1201_">
	<circle id="XMLID_490_" class="st2" cx="1431.3" cy="576.1" r="124.2"/>
	<g id="XMLID_17_">
		<path id="XMLID_751_" class="st0" d="M1470.2,656.4h-6.7v-16.7h-41.5v16.7h-6.7v-19.3c0-2.2,1.8-4,4-4.1l-1.2-0.6
			c-2.8-1.3-4.6-4.1-4.6-7.1v-21.9c0-3.7,3-6.7,6.7-6.7h3.6v-27.6c0-4.6,3.7-8.3,8.3-8.3c4.6,0,8.3,3.7,8.3,8.3v7.5
			c0.5-0.1,1-0.1,1.6-0.1c3.6,0,6.6,2.3,7.8,5.4c0.7-0.2,1.4-0.3,2.1-0.3c3.6,0,6.6,2.3,7.8,5.4c0.7-0.2,1.4-0.3,2.1-0.3
			c4.6,0,8.3,3.7,8.3,8.3v28c0,2.2-0.9,4.3-2.4,5.8l-4.3,4.2h2.9c2.3,0,4.1,1.8,4.1,4.1v19.3L1470.2,656.4L1470.2,656.4z
			 M1429.2,633h26.5c0.2-1.5,1-3,2.1-4.1l5-4.9c0.3-0.3,0.4-0.6,0.4-1v-28c0-0.9-0.7-1.6-1.6-1.6c-0.8,0-1.6,0.7-1.6,1.6v6.7h-6.7
			v-11.9c0-0.8-0.7-1.6-1.6-1.6c-0.8,0-1.6,0.7-1.6,1.6v11.9h-6.7v-17c0-0.9-0.7-1.6-1.6-1.6c-0.8,0-1.6,0.7-1.6,1.6v17h-6.7V569
			c0-0.8-0.7-1.6-1.6-1.6c-0.8,0-1.6,0.7-1.6,1.6v40h-6.7v-5.6h-3.6v21.9c0,0.4,0.3,0.9,0.7,1l4,1.9
			C1427,629.1,1428.8,630.9,1429.2,633z M1418.8,574.8c-1.7-1.7-3.1-3.7-4-6c-1-2.3-1.5-4.8-1.5-7.3s0.5-5,1.5-7.3
			c0.9-2.2,2.3-4.2,4-6c1.7-1.7,3.7-3.1,6-4c4.6-2,10-2,14.6,0c2.2,0.9,4.2,2.3,6,4c1.7,1.7,3.1,3.7,4,6c1,2.3,1.5,4.8,1.5,7.3
			s-0.5,5-1.5,7.3l-6.2-2.6c0.6-1.5,0.9-3.1,0.9-4.7c0-1.6-0.3-3.2-0.9-4.7c-0.6-1.4-1.5-2.7-2.6-3.8s-2.4-2-3.8-2.6
			c-3-1.3-6.4-1.3-9.4,0c-1.4,0.6-2.7,1.5-3.8,2.6c-1.1,1.1-2,2.4-2.6,3.8c-0.6,1.5-0.9,3.1-0.9,4.7c0,1.6,0.3,3.2,0.9,4.7
			c0.6,1.4,1.5,2.7,2.6,3.8L1418.8,574.8z M1487.4,572.3c-5.6,0-10.2-4.6-10.2-10.2c0-5.6,4.6-10.2,10.2-10.2s10.2,4.6,10.2,10.2
			C1497.8,567.7,1493,572.3,1487.4,572.3z M1487.4,558.5c-1.9,0-3.5,1.6-3.5,3.5s1.6,3.5,3.5,3.5s3.5-1.6,3.5-3.5
			S1489.3,558.5,1487.4,558.5z M1375.3,572.3c-5.6,0-10.2-4.6-10.2-10.2c0-5.6,4.6-10.2,10.2-10.2s10.2,4.6,10.2,10.2
			C1385.8,567.7,1380.9,572.3,1375.3,572.3z M1375.3,558.5c-1.9,0-3.5,1.6-3.5,3.5s1.6,3.5,3.5,3.5s3.5-1.6,3.5-3.5
			S1377.2,558.5,1375.3,558.5z M1409.2,565.5h-21.3v-6.7h21.3V565.5z M1454.9,565.5v-6.7l19.7-0.1v6.7L1454.9,565.5z M1411.8,547.6
			l-15.3-15.2l4.7-4.8l15.3,15.2L1411.8,547.6z M1449.9,544.4l-4.8-4.7l14.8-14.9l4.8,4.7L1449.9,544.4z M1429.2,536.4v-18.5h6.7
			v18.5H1429.2z M1390.8,531.3c-5.6,0-10.2-4.6-10.2-10.2c0-5.6,4.6-10.2,10.2-10.2s10.2,4.6,10.2,10.2S1396.1,531.3,1390.8,531.3z
			 M1390.8,517.5c-1.9,0-3.5,1.6-3.5,3.5s1.6,3.5,3.5,3.5s3.5-1.6,3.5-3.5C1394,519.1,1392.4,517.5,1390.8,517.5z M1470.4,528.2
			c-5.6,0-10.2-4.6-10.2-10.2c0-5.6,4.6-10.2,10.2-10.2s10.2,4.6,10.2,10.2C1480.8,523.6,1476,528.2,1470.4,528.2z M1470.4,514.4
			c-1.9,0-3.5,1.6-3.5,3.5s1.6,3.5,3.5,3.5s3.5-1.6,3.5-3.5S1472.3,514.4,1470.4,514.4z M1432.1,516.3c-5.6,0-10.2-4.6-10.2-10.2
			s4.6-10.2,10.2-10.2s10.2,4.6,10.2,10.2S1437.8,516.3,1432.1,516.3z M1432.1,502.5c-1.9,0-3.5,1.6-3.5,3.5s1.6,3.5,3.5,3.5
			s3.5-1.6,3.5-3.5S1434,502.5,1432.1,502.5z"/>
	</g>
</g>
</svg>
