<?xml version="1.0" encoding="utf-8"?>
<!-- Generator: Adobe Illustrator 21.1.0, SVG Export Plug-In . SVG Version: 6.00 Build 0)  -->
<svg version="1.1" id="Ebene_1" xmlns="http://www.w3.org/2000/svg" xmlns:xlink="http://www.w3.org/1999/xlink" x="0px" y="0px"
	 viewBox="0 0 64 64" style="enable-background:new 0 0 64 64;" xml:space="preserve">
<style type="text/css">
	.st0{fill:#3FAD54;}
</style>
<path class="st0" d="M58.9,33.7H48.1V4.8H4.8v48.1c0,4,3.2,7.2,7.2,7.2h39.7c4,0,7.2-3.2,7.2-7.2V33.7z M12,12h14.4v18H12V12z
	 M24.6,52.9H13.8c-1,0-1.8-0.8-1.8-1.8s0.8-1.8,1.8-1.8h10.8c1,0,1.8,0.8,1.8,1.8S25.6,52.9,24.6,52.9z M24.6,45.7H13.8
	c-1,0-1.8-0.8-1.8-1.8s0.8-1.8,1.8-1.8h10.8c1,0,1.8,0.8,1.8,1.8S25.6,45.7,24.6,45.7z M39,52.9h-7.2c-1,0-1.8-0.8-1.8-1.8
	s0.8-1.8,1.8-1.8H39c1,0,1.8,0.8,1.8,1.8S40,52.9,39,52.9z M39,45.7h-7.2c-1,0-1.8-0.8-1.8-1.8s0.8-1.8,1.8-1.8H39
	c1,0,1.8,0.8,1.8,1.8S40,45.7,39,45.7z M39,38.5H13.8c-1,0-1.8-0.8-1.8-1.8c0-1,0.8-1.8,1.8-1.8H39c1,0,1.8,0.8,1.8,1.8
	C40.9,37.7,40,38.5,39,38.5z M39,30h-7.2c-1,0-1.8-0.8-1.8-1.8c0-1,0.8-1.8,1.8-1.8H39c1,0,1.8,0.8,1.8,1.8C40.9,29.2,40,30,39,30z
	 M39,22.8h-7.2c-1,0-1.8-0.8-1.8-1.8s0.8-1.8,1.8-1.8H39c1,0,1.8,0.8,1.8,1.8S40,22.8,39,22.8z M39,15.6h-7.2c-1,0-1.8-0.8-1.8-1.8
	c0-1,0.8-1.8,1.8-1.8H39c1,0,1.8,0.8,1.8,1.8C40.9,14.8,40,15.6,39,15.6z M55.3,52.9L55.3,52.9c0,2-1.6,3.6-3.6,3.6
	s-3.6-1.6-3.6-3.6c0-1.2,0-14.9,0-15.6h7.2V52.9z"/>
</svg>
