<?xml version="1.0" encoding="utf-8"?>
<!-- Generator: Adobe Illustrator 19.0.0, SVG Export Plug-In . SVG Version: 6.00 Build 0)  -->
<svg version="1.1" id="Ebene_1" xmlns="http://www.w3.org/2000/svg" xmlns:xlink="http://www.w3.org/1999/xlink" x="0px" y="0px"
	 viewBox="502 -306.3 1600 1452.2" style="enable-background:new 502 -306.3 1600 1452.2;" xml:space="preserve">
<style type="text/css">
	.st0{fill:none;stroke:#ED1C24;stroke-width:2;stroke-miterlimit:10;}
	.st1{fill:#FFFFFF;stroke:#1F1F2E;stroke-width:2;stroke-linecap:round;stroke-miterlimit:10;}
	.st2{fill:#ED1C24;}
	.st3{fill:none;stroke:#ED1C24;stroke-miterlimit:10;}
</style>
<g>
	<g>
		<path class="st0" d="M680-59.6l-0.3-66.1c0-3.1,2.5-5.7,5.7-5.7h96.1c3.1,0,5.6,2.5,5.7,5.6l0.3,66.1"/>
		<path class="st0" d="M787.8-60.5h10.7c0.7,0,1.2,0.5,1.2,1.2v3.6c0,5.3-4.3,9.6-9.6,9.6H676.9c-5.3,0-9.6-4.3-9.6-9.6v-3.6
			c0-0.7,0.5-1.2,1.2-1.2h11.1"/>
		<g>
			<polyline class="st0" points="700.9,-60.5 721,-60.5 725.1,-56.5 735.9,-56.5 			"/>
			<polyline class="st0" points="766.2,-60.5 746,-60.5 742,-56.5 731.1,-56.5 			"/>
		</g>
		<path class="st0" d="M1369.8,352.4l-0.2-44.9c0-2.1,1.7-3.9,3.8-3.9h65.3c2.1,0,3.8,1.7,3.8,3.8l0.2,45"/>
		<path class="st0" d="M1443.1,352.5h7.3c0.4,0,0.8,0.4,0.8,0.8v2.5c0,3.6-2.9,6.5-6.5,6.5h-77c-3.6,0-6.5-2.9-6.5-6.5v-2.5
			c0-0.4,0.4-0.8,0.8-0.8h7.5"/>
		<g>
			<polyline class="st0" points="1384,352.5 1397.7,352.5 1400.5,355.2 1407.8,355.2 			"/>
			<polyline class="st0" points="1428.4,352.5 1414.7,352.5 1412,355.2 1404.6,355.2 			"/>
		</g>
		<path class="st0" d="M1573.9-129.1l-0.3-84.9c0-4,3.2-7.3,7.3-7.3h123.4c4,0,7.2,3.2,7.3,7.2l0.3,84.9"/>
		<path class="st0" d="M1712.4-128.9h13.8c0.8,0,1.5,0.7,1.5,1.5v4.7c0,6.8-5.5,12.3-12.3,12.3H1570c-6.8,0-12.3-5.5-12.3-12.3v-4.7
			c0-0.8,0.7-1.5,1.5-1.5h14.3"/>
		<g>
			<polyline class="st0" points="1600.8,-128.9 1626.7,-128.9 1631.9,-123.8 1645.8,-123.8 			"/>
			<polyline class="st0" points="1684.7,-128.9 1658.8,-128.9 1653.6,-123.8 1639.7,-123.8 			"/>
		</g>
		<path class="st0" d="M1653.7,306.8l-0.3-66.1c0-3.1,2.5-5.7,5.7-5.7h96.1c3.1,0,5.6,2.5,5.7,5.6l0.3,66.1"/>
		<path class="st0" d="M1761.6,306.9h10.7c0.7,0,1.2,0.5,1.2,1.2v3.6c0,5.3-4.3,9.6-9.6,9.6h-113.3c-5.3,0-9.6-4.3-9.6-9.6v-3.6
			c0-0.7,0.5-1.2,1.2-1.2h11.1"/>
		<g>
			<polyline class="st0" points="1674.7,306.9 1694.8,306.9 1698.9,310.9 1709.7,310.9 			"/>
			<polyline class="st0" points="1740,306.9 1719.8,306.9 1715.8,310.9 1704.9,310.9 			"/>
		</g>
		<path class="st0" d="M1855.1-55.1l-0.2-44.9c0-2.1,1.7-3.9,3.8-3.9h65.3c2.1,0,3.8,1.7,3.8,3.8l0.2,45"/>
		<path class="st0" d="M1928.5-55.1h7.3c0.4,0,0.8,0.4,0.8,0.8v2.5c0,3.6-2.9,6.5-6.5,6.5h-77c-3.6,0-6.5-2.9-6.5-6.5v-2.5
			c0-0.4,0.4-0.8,0.8-0.8h7.5"/>
		<g>
			<polyline class="st0" points="1869.4,-55.1 1883.1,-55.1 1885.8,-52.3 1893.2,-52.3 			"/>
			<polyline class="st0" points="1913.8,-55.1 1900.1,-55.1 1897.3,-52.3 1889.9,-52.3 			"/>
		</g>
		<path class="st0" d="M846.3,263.2l-0.3-84.9c0-4,3.2-7.3,7.3-7.3h123.4c4,0,7.2,3.2,7.3,7.2l0.3,84.9"/>
		<path class="st0" d="M984.8,263.3h13.7c0.8,0,1.5,0.7,1.5,1.5v4.7c0,6.8-5.5,12.3-12.3,12.3H842.3c-6.8,0-12.3-5.5-12.3-12.3v-4.7
			c0-0.8,0.7-1.5,1.5-1.5h14.3"/>
		<g>
			<polyline class="st0" points="873.1,263.3 899,263.3 904.2,268.5 918.1,268.5 			"/>
			<polyline class="st0" points="957,263.3 931.1,263.3 925.9,268.5 912,268.5 			"/>
		</g>
		<path class="st0" d="M906.2-134l-0.2-44.9c0-2.1,1.7-3.9,3.8-3.9h65.3c2.1,0,3.8,1.7,3.8,3.8l0.2,45"/>
		<path class="st0" d="M979.5-134h7.3c0.4,0,0.8,0.4,0.8,0.8v2.5c0,3.6-2.9,6.5-6.5,6.5h-77c-3.6,0-6.5-2.9-6.5-6.5v-2.5
			c0-0.4,0.4-0.8,0.8-0.8h7.5"/>
		<g>
			<polyline class="st0" points="920.4,-134 934.2,-134 936.9,-131.2 944.3,-131.2 			"/>
			<polyline class="st0" points="964.8,-134 951.1,-134 948.4,-131.2 941,-131.2 			"/>
		</g>
		<path class="st0" d="M732.6-44.4v32c0,3.7,1.5,7.3,4.1,9.9l18,18c2.6,2.6,6.2,4.1,9.9,4.1h417.5"/>
		<path class="st0" d="M1285.2,84.2v106.5c0,3.7-1.5,7.3-4.1,9.9l-18,18c-2.6,2.6-6.2,4.1-9.9,4.1H984.1"/>
		<path class="st0" d="M1653.4,274.4h-34c-3.7,0-7.3-1.5-9.9-4.1l-18-18c-2.6-2.6-4.1-6.2-4.1-9.9V71.9c0-3.7-1.5-7.3-4.1-9.9
			l-17-17c-2.6-2.6-6.2-4.1-9.9-4.1h-137"/>
		<path class="st0" d="M941.7-122.8v88.5c0,3.7,1.5,7.3,4.1,9.9l18,18c2.6,2.6,6.2,4.1,9.9,4.1h208.6"/>
		<path class="st0" d="M1642.2-109.8v75.5c0,3.7-1.5,7.3-4.1,9.9l-18,18c-2.6,2.6-6.2,4.1-9.9,4.1h-191.5"/>
		<path class="st0" d="M1892.2-44.8v32.5c0,3.7-1.5,7.3-4.1,9.9l-18,18c-2.6,2.6-6.2,4.1-9.9,4.1h-441.5"/>
		<path class="st0" d="M1369.7,331.2h-29.5c-3.7,0-7.3-1.5-9.9-4.1l-18-18c-2.6-2.6-4.1-6.2-4.1-9.9V84.7"/>
		<g>
			<path class="st1" d="M817.4,41.3l-16.6,16.6c-1.8,1.8-1.8,4.8,0,6.6l0,0c1.8,1.8,4.8,1.8,6.6,0L824,47.9
				C821.3,46.2,819.1,43.9,817.4,41.3z"/>
			<circle class="st1" cx="845.6" cy="19.6" r="36"/>
			<path class="st1" d="M777.5,88.9l-1.2-1.2c-2.7-2.7-2.7-7.2,0-9.9l29.4-29.4c1.7-1.7,4.4-1.7,6.1,0l5,5c1.7,1.7,1.7,4.4,0,6.1
				l-29.4,29.4C784.7,91.6,780.2,91.6,777.5,88.9z"/>
		</g>
		<line class="st0" x1="786.6" y1="89.2" x2="785.6" y2="567.6"/>
		<g>
			<path class="st1" d="M1068.3,243.5l-16.6,16.6c-1.8,1.8-1.8,4.8,0,6.6l0,0c1.8,1.8,4.8,1.8,6.6,0l16.6-16.6
				C1072.2,248.5,1069.9,246.2,1068.3,243.5z"/>
			<circle class="st1" cx="1096.5" cy="221.9" r="36"/>
			<path class="st1" d="M1028.4,291.1l-1.2-1.2c-2.7-2.7-2.7-7.2,0-9.9l29.4-29.4c1.7-1.7,4.4-1.7,6.1,0l5,5c1.7,1.7,1.7,4.4,0,6.1
				l-29.4,29.4C1035.5,293.9,1031.1,293.9,1028.4,291.1z"/>
		</g>
		<line class="st0" x1="1035.6" y1="293.2" x2="1035.6" y2="567.6"/>
		<g>
			<path class="st1" d="M1717.4,41.2l-16.6,16.6c-1.8,1.8-1.8,4.8,0,6.6l0,0c1.8,1.8,4.8,1.8,6.6,0l16.6-16.6
				C1721.4,46.2,1719.1,43.9,1717.4,41.2z"/>
			<circle class="st1" cx="1745.7" cy="19.6" r="36"/>
			<path class="st1" d="M1677.5,88.8l-1.2-1.2c-2.7-2.7-2.7-7.2,0-9.9l29.4-29.4c1.7-1.7,4.4-1.7,6.1,0l5,5c1.7,1.7,1.7,4.4,0,6.1
				l-29.4,29.4C1684.7,91.6,1680.3,91.6,1677.5,88.8z"/>
		</g>
		<path class="st0" d="M1687.2,89.2v27c0,3.7,1.5,7.3,4.1,9.9l18,18c2.6,2.6,6.2,4.1,9.9,4.1h98.6c3.7,0,7.3,1.5,9.9,4.1l18,18
			c2.6,2.6,4.1,6.2,4.1,9.9v212.1c0,3.7-1.5,7.3-4.1,9.9l-18,18c-2.6,2.6-6.2,4.1-9.9,4.1h-700.3c-3.7,0-7.3,1.5-9.9,4.1l-18,18
			c-2.6,2.6-4.1,6.2-4.1,9.9v111.5"/>
		<path class="st0" d="M934.6,838.6v137c0,3.7,1.5,7.3,4.1,9.9l18,18c2.6,2.6,6.2,4.1,9.9,4.1h238.1"/>
		<path class="st0" d="M1674.6,838.6v137c0,3.7-1.5,7.3-4.1,9.9l-18,18c-2.6,2.6-6.2,4.1-9.9,4.1h-237"/>
		<g id="XMLID_3591_">
			<g id="XMLID_3602_">
				<path id="XMLID_3612_" class="st2" d="M717-89.3c-3.6,0-4.1-0.6-4.4-0.9c-1-1.1-1.1-4.8-0.7-6.7c0.3-1.3,0.9-2.2,1.7-2.6
					c0.9-0.4,1.7-0.7,2.3-0.9c0.7-0.2,1.1-0.4,1.4-0.6l0.2-0.2c2.2-1.6,4.8-3.2,6.3-3.4c0.1,0,10.9-1,13.3,0.2
					c0.7,0.3,1.6,0.9,2.6,1.5c1.6,1,3.6,2.2,4.9,2.6c0.3,0.1,0.9,0.2,1.5,0.2c3,0.4,9.3,1.1,9.2,7.6c0,0,0,0.1,0,0.1
					c-0.3,2.6-3.3,2.9-6.1,2.9c-0.6,0-1.1-0.5-1.1-1.1s0.5-1.1,1.1-1.1c2.4,0,3.7-0.3,3.8-0.8c0.1-4-3.4-4.8-7.2-5.3
					c-0.7-0.1-1.4-0.2-1.9-0.3c-1.6-0.4-3.7-1.7-5.5-2.8c-0.9-0.6-1.8-1.1-2.4-1.4c-1.3-0.6-9.2-0.3-12.1,0c-0.6,0.1-1.9,0.6-5.3,3
					l-0.3,0.2c-0.6,0.4-1.3,0.6-2,0.9c-0.6,0.2-1.2,0.4-2.1,0.8c-0.7,0.5-0.7,4.4-0.2,5.6c0.5,0.1,2,0.2,3.4,0.2
					c0.6,0,1.1,0.5,1.2,1.1c0,0.6-0.5,1.1-1.1,1.2C717.5-89.3,717.2-89.3,717-89.3z"/>
				<path id="XMLID_3609_" class="st2" d="M746.1-86.2c-2.4,0-4.4-2-4.4-4.4s2-4.4,4.4-4.4s4.4,2,4.4,4.4S748.5-86.2,746.1-86.2z
					 M746.1-92.7c-1.2,0-2.1,0.9-2.1,2.1c0,1.2,0.9,2.1,2.1,2.1c1.2,0,2.1-0.9,2.1-2.1C748.2-91.7,747.3-92.7,746.1-92.7z"/>
				<path id="XMLID_3606_" class="st2" d="M721.8-86.2c-2.4,0-4.4-2-4.4-4.4s2-4.4,4.4-4.4s4.4,2,4.4,4.4S724.2-86.2,721.8-86.2z
					 M721.8-92.7c-1.2,0-2.1,0.9-2.1,2.1c0,1.2,0.9,2.1,2.1,2.1s2.1-0.9,2.1-2.1C723.9-91.7,722.9-92.7,721.8-92.7z"/>
				<path id="XMLID_3605_" class="st2" d="M741.9-93.8C741.9-93.8,741.9-93.8,741.9-93.8c-2.1,0-13-0.2-15.6-1.9
					c-2.9-1.8-3.5-4.8-3.6-4.9c-0.1-0.6,0.3-1.2,0.9-1.3c0.6-0.1,1.2,0.3,1.3,0.9c0,0.1,0.5,2.2,2.6,3.4c1.6,1,9.7,1.5,14.4,1.5
					c0.6,0,1.1,0.5,1.1,1.1C743.1-94.3,742.6-93.8,741.9-93.8z"/>
				<path id="XMLID_3604_" class="st2" d="M742.9-89.5h-17.9c-0.6,0-1.1-0.5-1.1-1.1s0.5-1.1,1.1-1.1h17.9c0.6,0,1.1,0.5,1.1,1.1
					S743.5-89.5,742.9-89.5z"/>
				<path id="XMLID_3603_" class="st2" d="M750.5-89.5c-0.2,0-0.4,0-0.6,0c-0.6-0.1-1.1-0.6-1-1.2c0.1-0.6,0.6-1.1,1.2-1
					c1,0.1,2.3-0.2,2.9-0.8c0.1-0.1,0.3-0.3,0.3-0.4c0,0,0,0,0-0.1c0.2-3.6-3.3-4.3-7.1-4.8c-0.8-0.1-1.4-0.2-1.9-0.3
					c-0.6-0.2-1-0.8-0.8-1.4c0.2-0.6,0.8-1,1.4-0.8c0.3,0.1,1,0.2,1.6,0.3c3,0.4,9.4,1.2,9.1,7.1c0,0.8-0.4,1.5-1,2.1
					C753.6-90,752-89.5,750.5-89.5z"/>
			</g>
			<g id="XMLID_3599_">
				<path id="XMLID_3601_" class="st2" d="M711.7-79.1c-0.3,0-0.7-0.2-0.9-0.5c-6.7-9.6-6.7-22.4,0-32c0.4-0.5,1-0.6,1.5-0.3
					c0.5,0.4,0.6,1,0.3,1.5c-6.2,8.8-6.2,20.6,0,29.4c0.4,0.5,0.2,1.2-0.3,1.5C712.1-79.2,711.9-79.1,711.7-79.1z"/>
				<path id="XMLID_3600_" class="st2" d="M733.6-67.7c-5.6,0-11.2-1.7-16-5c-0.5-0.4-0.6-1-0.3-1.5c0.4-0.5,1-0.6,1.5-0.3
					c8.8,6.2,20.6,6.2,29.4,0c0.5-0.4,1.2-0.2,1.5,0.3c0.4,0.5,0.2,1.2-0.3,1.5C744.8-69.4,739.2-67.7,733.6-67.7z"/>
			</g>
			<g id="XMLID_3596_">
				<path id="XMLID_3598_" class="st2" d="M749-116.4c-0.2,0-0.4-0.1-0.6-0.2c-8.8-6.2-20.6-6.2-29.4,0c-0.5,0.4-1.2,0.2-1.5-0.3
					c-0.4-0.5-0.2-1.2,0.3-1.5c9.6-6.7,22.4-6.7,32,0c0.5,0.4,0.6,1,0.3,1.5C749.6-116.6,749.3-116.4,749-116.4z"/>
				<path id="XMLID_3597_" class="st2" d="M755.5-79.1c-0.2,0-0.4-0.1-0.6-0.2c-0.5-0.4-0.6-1-0.3-1.5c6.2-8.8,6.2-20.6,0-29.4
					c-0.4-0.5-0.2-1.2,0.3-1.5c0.5-0.4,1.2-0.2,1.5,0.3c6.7,9.6,6.7,22.4,0,32C756.2-79.3,755.9-79.1,755.5-79.1z"/>
			</g>
			<circle id="XMLID_3595_" class="st2" cx="754.6" cy="-78.9" r="2.5"/>
			<circle id="XMLID_3594_" class="st2" cx="712.6" cy="-112.2" r="2.5"/>
			<circle id="XMLID_3593_" class="st2" cx="750.3" cy="-116.5" r="2.5"/>
			<circle id="XMLID_3592_" class="st2" cx="716.9" cy="-74.6" r="2.5"/>
		</g>
		<g id="XMLID_89_">
			<g id="XMLID_100_">
				<path id="XMLID_110_" class="st2" d="M892.7,225.7c-4.8,0-5.6-0.9-5.9-1.2c-1.3-1.5-1.5-6.4-0.9-9c0.4-1.8,1.2-3,2.3-3.5
					c1.3-0.6,2.3-0.9,3.1-1.2c0.9-0.3,1.5-0.5,1.9-0.8l0.3-0.2c3-2.1,6.4-4.4,8.6-4.6c0.1,0,14.7-1.3,18,0.3c1,0.5,2.2,1.2,3.6,2
					c2.2,1.3,4.9,3,6.6,3.5c0.4,0.1,1.2,0.2,2.1,0.3c4.1,0.5,12.6,1.5,12.4,10.3c0,0,0,0.1,0,0.1c-0.4,3.6-4.4,3.8-8.2,3.8
					c-0.8,0-1.5-0.7-1.5-1.5s0.7-1.5,1.5-1.5c3.3,0,5-0.4,5.1-1.1c0.1-5.4-4.5-6.5-9.7-7.1c-1-0.1-1.8-0.2-2.5-0.4
					c-2.2-0.6-5-2.3-7.4-3.8c-1.3-0.8-2.5-1.5-3.3-1.9c-1.7-0.8-12.4-0.4-16.4,0c-0.8,0.1-2.6,0.8-7.1,4l-0.3,0.2
					c-0.8,0.6-1.7,0.9-2.7,1.2c-0.8,0.3-1.7,0.6-2.8,1.1c-0.9,0.7-1,6-0.3,7.6c0.7,0.2,2.7,0.3,4.6,0.3c0.8,0,1.5,0.6,1.6,1.5
					c0,0.8-0.6,1.5-1.5,1.6C893.3,225.7,893,225.7,892.7,225.7z"/>
				<path id="XMLID_107_" class="st2" d="M932,229.9c-3.2,0-5.9-2.6-5.9-5.9c0-3.2,2.6-5.9,5.9-5.9c3.2,0,5.9,2.6,5.9,5.9
					C937.8,227.3,935.2,229.9,932,229.9z M932,221.2c-1.6,0-2.8,1.3-2.8,2.8s1.3,2.8,2.8,2.8c1.6,0,2.8-1.3,2.8-2.8
					S933.5,221.2,932,221.2z"/>
				<path id="XMLID_104_" class="st2" d="M899.1,229.9c-3.2,0-5.9-2.6-5.9-5.9c0-3.2,2.6-5.9,5.9-5.9c3.2,0,5.9,2.6,5.9,5.9
					C905,227.3,902.4,229.9,899.1,229.9z M899.1,221.2c-1.6,0-2.8,1.3-2.8,2.8s1.3,2.8,2.8,2.8c1.6,0,2.8-1.3,2.8-2.8
					S900.7,221.2,899.1,221.2z"/>
				<path id="XMLID_103_" class="st2" d="M926.4,219.7C926.3,219.7,926.3,219.7,926.4,219.7c-2.9,0-17.5-0.3-21.1-2.5
					c-3.9-2.5-4.8-6.4-4.8-6.6c-0.2-0.8,0.4-1.6,1.2-1.8c0.8-0.2,1.6,0.3,1.8,1.2c0,0.1,0.7,2.9,3.5,4.6c2.2,1.4,13.1,2,19.4,2.1
					c0.8,0,1.5,0.7,1.5,1.5C927.9,219,927.2,219.7,926.4,219.7z"/>
				<path id="XMLID_102_" class="st2" d="M927.6,225.5h-24.2c-0.8,0-1.5-0.7-1.5-1.5c0-0.8,0.7-1.5,1.5-1.5h24.2
					c0.8,0,1.5,0.7,1.5,1.5C929.1,224.8,928.4,225.5,927.6,225.5z"/>
				<path id="XMLID_101_" class="st2" d="M937.9,225.5c-0.3,0-0.6,0-0.9,0c-0.8-0.1-1.5-0.8-1.4-1.7c0.1-0.8,0.8-1.4,1.7-1.4
					c1.4,0.1,3.1-0.3,3.9-1.1c0.2-0.1,0.4-0.4,0.4-0.6c0,0,0,0,0-0.1c0.2-4.8-4.4-5.8-9.6-6.4c-1-0.1-1.9-0.2-2.6-0.4
					c-0.8-0.2-1.3-1.1-1.1-1.9c0.2-0.8,1.1-1.3,1.9-1.1c0.5,0.1,1.3,0.2,2.2,0.3c4.1,0.5,12.6,1.6,12.3,9.6c0,1-0.5,2-1.4,2.8
					C942,224.8,939.9,225.5,937.9,225.5z"/>
			</g>
			<g id="XMLID_97_">
				<path id="XMLID_99_" class="st2" d="M885.5,239.5c-0.5,0-0.9-0.2-1.2-0.6c-9.1-12.9-9.1-30.2,0-43.1c0.5-0.7,1.4-0.8,2.1-0.4
					c0.7,0.5,0.8,1.4,0.4,2.1c-8.3,11.9-8.3,27.8,0,39.7c0.5,0.7,0.3,1.6-0.4,2.1C886.1,239.4,885.8,239.5,885.5,239.5z"/>
				<path id="XMLID_98_" class="st2" d="M915.1,254.8c-7.6,0-15.1-2.3-21.6-6.8c-0.7-0.5-0.8-1.4-0.4-2.1c0.5-0.7,1.4-0.8,2.1-0.4
					c11.9,8.3,27.8,8.3,39.7,0c0.7-0.5,1.6-0.3,2.1,0.4c0.5,0.7,0.3,1.6-0.4,2.1C930.2,252.6,922.7,254.8,915.1,254.8z"/>
			</g>
			<g id="XMLID_94_">
				<path id="XMLID_96_" class="st2" d="M935.8,189.2c-0.3,0-0.6-0.1-0.9-0.3c-11.9-8.3-27.8-8.3-39.7,0c-0.7,0.5-1.6,0.3-2.1-0.4
					c-0.5-0.7-0.3-1.6,0.4-2.1c12.9-9.1,30.2-9.1,43.1,0c0.7,0.5,0.8,1.4,0.4,2.1C936.7,189,936.3,189.2,935.8,189.2z"/>
				<path id="XMLID_95_" class="st2" d="M944.7,239.5c-0.3,0-0.6-0.1-0.9-0.3c-0.7-0.5-0.8-1.4-0.4-2.1c8.3-11.9,8.3-27.8,0-39.7
					c-0.5-0.7-0.3-1.6,0.4-2.1c0.7-0.5,1.6-0.3,2.1,0.4c9.1,12.9,9.1,30.2,0,43.1C945.6,239.2,945.1,239.5,944.7,239.5z"/>
			</g>
			<circle id="XMLID_93_" class="st2" cx="943.4" cy="239.7" r="3.3"/>
			<circle id="XMLID_92_" class="st2" cx="886.8" cy="194.8" r="3.3"/>
			<circle id="XMLID_91_" class="st2" cx="937.6" cy="189" r="3.3"/>
			<circle id="XMLID_90_" class="st2" cx="892.6" cy="245.5" r="3.3"/>
		</g>
		<g id="XMLID_23_">
			<g id="XMLID_34_">
				<path id="XMLID_44_" class="st2" d="M1621.7-164.7c-4.5,0-5.3-0.8-5.5-1.1c-1.3-1.4-1.4-6.1-0.9-8.5c0.4-1.7,1.1-2.8,2.1-3.3
					c1.2-0.5,2.1-0.9,2.9-1.1c0.8-0.3,1.4-0.5,1.8-0.8l0.3-0.2c2.8-2,6-4.1,8.1-4.3c0.1,0,13.9-1.2,16.9,0.2c0.9,0.4,2,1.1,3.4,1.9
					c2.1,1.3,4.6,2.8,6.2,3.3c0.4,0.1,1.1,0.2,2,0.3c3.9,0.5,11.9,1.4,11.6,9.7c0,0,0,0.1,0,0.1c-0.3,3.3-4.1,3.6-7.7,3.6
					c-0.8,0-1.4-0.6-1.4-1.4c0-0.8,0.6-1.4,1.4-1.4c3.1,0,4.7-0.3,4.8-1c0.1-5.1-4.3-6.1-9.1-6.7c-0.9-0.1-1.7-0.2-2.4-0.4
					c-2-0.5-4.7-2.2-7-3.6c-1.2-0.7-2.3-1.4-3.1-1.8c-1.6-0.8-11.6-0.4-15.4,0c-0.7,0.1-2.4,0.8-6.7,3.8l-0.3,0.2
					c-0.8,0.5-1.6,0.8-2.5,1.2c-0.7,0.3-1.6,0.5-2.7,1c-0.9,0.7-0.9,5.6-0.3,7.1c0.7,0.2,2.6,0.3,4.3,0.3c0.8,0,1.5,0.6,1.5,1.4
					c0,0.8-0.6,1.5-1.4,1.5C1622.3-164.7,1622-164.7,1621.7-164.7z"/>
				<path id="XMLID_41_" class="st2" d="M1658.7-160.7c-3.1,0-5.5-2.5-5.5-5.5c0-3.1,2.5-5.5,5.5-5.5s5.5,2.5,5.5,5.5
					C1664.2-163.2,1661.7-160.7,1658.7-160.7z M1658.7-168.9c-1.5,0-2.7,1.2-2.7,2.7c0,1.5,1.2,2.7,2.7,2.7s2.7-1.2,2.7-2.7
					C1661.3-167.7,1660.1-168.9,1658.7-168.9z"/>
				<path id="XMLID_38_" class="st2" d="M1627.8-160.7c-3.1,0-5.5-2.5-5.5-5.5c0-3.1,2.5-5.5,5.5-5.5c3.1,0,5.5,2.5,5.5,5.5
					C1633.3-163.2,1630.8-160.7,1627.8-160.7z M1627.8-168.9c-1.5,0-2.7,1.2-2.7,2.7c0,1.5,1.2,2.7,2.7,2.7c1.5,0,2.7-1.2,2.7-2.7
					C1630.4-167.7,1629.2-168.9,1627.8-168.9z"/>
				<path id="XMLID_37_" class="st2" d="M1653.4-170.3C1653.4-170.3,1653.4-170.3,1653.4-170.3c-2.7,0-16.4-0.3-19.8-2.4
					c-3.7-2.3-4.5-6-4.5-6.2c-0.2-0.8,0.3-1.5,1.1-1.7c0.8-0.2,1.5,0.3,1.7,1.1c0,0.1,0.7,2.7,3.3,4.4c2.1,1.3,12.3,1.9,18.3,1.9
					c0.8,0,1.4,0.7,1.4,1.5C1654.8-171,1654.2-170.3,1653.4-170.3z"/>
				<path id="XMLID_36_" class="st2" d="M1654.6-164.9h-22.8c-0.8,0-1.4-0.6-1.4-1.4c0-0.8,0.6-1.4,1.4-1.4h22.8
					c0.8,0,1.4,0.6,1.4,1.4C1656-165.5,1655.4-164.9,1654.6-164.9z"/>
				<path id="XMLID_35_" class="st2" d="M1664.2-164.9c-0.3,0-0.5,0-0.8,0c-0.8-0.1-1.4-0.8-1.3-1.6c0.1-0.8,0.8-1.4,1.6-1.3
					c1.3,0.1,3-0.3,3.7-1c0.2-0.1,0.3-0.3,0.3-0.5c0,0,0,0,0-0.1c0.2-4.5-4.2-5.5-9-6.1c-1-0.1-1.8-0.2-2.5-0.4
					c-0.8-0.2-1.2-1-1-1.8c0.2-0.8,1-1.2,1.8-1c0.4,0.1,1.2,0.2,2.1,0.3c3.9,0.5,11.9,1.5,11.5,9c0,1-0.5,1.9-1.3,2.6
					C1668.1-165.5,1666.1-164.9,1664.2-164.9z"/>
			</g>
			<g id="XMLID_31_">
				<path id="XMLID_33_" class="st2" d="M1615-151.7c-0.4,0-0.9-0.2-1.2-0.6c-8.5-12.1-8.5-28.4,0-40.6c0.4-0.6,1.3-0.8,2-0.3
					c0.6,0.4,0.8,1.3,0.3,2c-7.8,11.2-7.8,26.2,0,37.4c0.4,0.6,0.3,1.5-0.3,2C1615.5-151.8,1615.3-151.7,1615-151.7z"/>
				<path id="XMLID_32_" class="st2" d="M1642.8-137.3c-7.1,0-14.2-2.1-20.3-6.4c-0.6-0.4-0.8-1.3-0.3-2c0.4-0.6,1.3-0.8,2-0.3
					c11.2,7.8,26.2,7.8,37.4,0c0.6-0.4,1.5-0.3,2,0.3c0.4,0.6,0.3,1.5-0.3,2C1657-139.4,1649.9-137.3,1642.8-137.3z"/>
			</g>
			<g id="XMLID_28_">
				<path id="XMLID_30_" class="st2" d="M1662.3-199c-0.3,0-0.6-0.1-0.8-0.3c-11.2-7.8-26.2-7.8-37.4,0c-0.6,0.4-1.5,0.3-2-0.3
					c-0.4-0.6-0.3-1.5,0.3-2c12.1-8.5,28.4-8.5,40.6,0c0.6,0.4,0.8,1.3,0.3,2C1663.2-199.2,1662.7-199,1662.3-199z"/>
				<path id="XMLID_29_" class="st2" d="M1670.6-151.7c-0.3,0-0.6-0.1-0.8-0.3c-0.6-0.4-0.8-1.3-0.3-2c7.8-11.2,7.8-26.2,0-37.4
					c-0.4-0.6-0.3-1.5,0.3-2c0.6-0.4,1.5-0.3,2,0.3c8.5,12.1,8.5,28.4,0,40.6C1671.5-151.9,1671.1-151.7,1670.6-151.7z"/>
			</g>
			<circle id="XMLID_27_" class="st2" cx="1669.4" cy="-151.5" r="3.1"/>
			<circle id="XMLID_26_" class="st2" cx="1616.2" cy="-193.8" r="3.1"/>
			<circle id="XMLID_25_" class="st2" cx="1664" cy="-199.2" r="3.1"/>
			<circle id="XMLID_24_" class="st2" cx="1621.6" cy="-146" r="3.1"/>
		</g>
		<g id="XMLID_67_">
			<g id="XMLID_78_">
				<path id="XMLID_88_" class="st2" d="M1690.2,277.4c-3.7,0-4.3-0.7-4.5-0.9c-1-1.2-1.2-5-0.7-6.9c0.3-1.4,0.9-2.3,1.7-2.7
					c1-0.4,1.7-0.7,2.4-0.9c0.7-0.2,1.1-0.4,1.5-0.6l0.3-0.2c2.3-1.6,4.9-3.4,6.6-3.5c0.1,0,11.3-1,13.8,0.2
					c0.7,0.3,1.7,0.9,2.7,1.6c1.7,1,3.8,2.3,5.1,2.7c0.3,0.1,0.9,0.2,1.6,0.2c3.1,0.4,9.7,1.2,9.5,7.9c0,0,0,0.1,0,0.1
					c-0.3,2.7-3.4,3-6.3,3c-0.6,0-1.2-0.5-1.2-1.2c0-0.6,0.5-1.2,1.2-1.2c2.5,0,3.8-0.3,3.9-0.8c0.1-4.2-3.5-5-7.5-5.5
					c-0.8-0.1-1.4-0.2-1.9-0.3c-1.7-0.4-3.8-1.8-5.7-2.9c-1-0.6-1.9-1.2-2.5-1.5c-1.3-0.6-9.5-0.3-12.6,0c-0.6,0.1-2,0.7-5.5,3.1
					l-0.3,0.2c-0.6,0.4-1.3,0.7-2.1,0.9c-0.6,0.2-1.3,0.4-2.2,0.8c-0.7,0.5-0.8,4.6-0.2,5.8c0.6,0.2,2.1,0.3,3.5,0.2
					c0.6,0,1.2,0.5,1.2,1.1c0,0.6-0.5,1.2-1.1,1.2C1690.7,277.4,1690.4,277.4,1690.2,277.4z"/>
				<path id="XMLID_85_" class="st2" d="M1720.4,280.6c-2.5,0-4.5-2-4.5-4.5c0-2.5,2-4.5,4.5-4.5c2.5,0,4.5,2,4.5,4.5
					C1724.9,278.6,1722.9,280.6,1720.4,280.6z M1720.4,273.9c-1.2,0-2.2,1-2.2,2.2c0,1.2,1,2.2,2.2,2.2c1.2,0,2.2-1,2.2-2.2
					C1722.5,274.9,1721.6,273.9,1720.4,273.9z"/>
				<path id="XMLID_82_" class="st2" d="M1695.1,280.6c-2.5,0-4.5-2-4.5-4.5c0-2.5,2-4.5,4.5-4.5c2.5,0,4.5,2,4.5,4.5
					C1699.6,278.6,1697.6,280.6,1695.1,280.6z M1695.1,273.9c-1.2,0-2.2,1-2.2,2.2c0,1.2,1,2.2,2.2,2.2c1.2,0,2.2-1,2.2-2.2
					C1697.3,274.9,1696.3,273.9,1695.1,273.9z"/>
				<path id="XMLID_81_" class="st2" d="M1716.1,272.7C1716,272.7,1716,272.7,1716.1,272.7c-2.2,0-13.4-0.2-16.2-1.9
					c-3-1.9-3.7-4.9-3.7-5.1c-0.1-0.6,0.3-1.3,0.9-1.4c0.6-0.1,1.3,0.3,1.4,0.9c0,0.1,0.5,2.2,2.7,3.6c1.7,1.1,10.1,1.5,14.9,1.6
					c0.6,0,1.2,0.5,1.2,1.2C1717.2,272.2,1716.7,272.7,1716.1,272.7z"/>
				<path id="XMLID_80_" class="st2" d="M1717,277.2h-18.6c-0.6,0-1.2-0.5-1.2-1.2c0-0.6,0.5-1.2,1.2-1.2h18.6
					c0.6,0,1.2,0.5,1.2,1.2C1718.2,276.7,1717.7,277.2,1717,277.2z"/>
				<path id="XMLID_79_" class="st2" d="M1724.9,277.2c-0.2,0-0.4,0-0.7,0c-0.6-0.1-1.1-0.6-1.1-1.3c0.1-0.6,0.6-1.1,1.3-1.1
					c1.1,0.1,2.4-0.2,3-0.8c0.1-0.1,0.3-0.3,0.3-0.4c0,0,0,0,0-0.1c0.2-3.7-3.4-4.5-7.4-5c-0.8-0.1-1.5-0.2-2-0.3
					c-0.6-0.2-1-0.8-0.8-1.4c0.2-0.6,0.8-1,1.4-0.8c0.4,0.1,1,0.2,1.7,0.3c3.1,0.4,9.7,1.2,9.4,7.4c0,0.8-0.4,1.5-1,2.2
					C1728.1,276.7,1726.5,277.2,1724.9,277.2z"/>
			</g>
			<g id="XMLID_75_">
				<path id="XMLID_77_" class="st2" d="M1684.7,288c-0.4,0-0.7-0.2-0.9-0.5c-7-9.9-7-23.2,0-33.2c0.4-0.5,1.1-0.6,1.6-0.3
					c0.5,0.4,0.6,1.1,0.3,1.6c-6.4,9.1-6.4,21.4,0,30.5c0.4,0.5,0.2,1.2-0.3,1.6C1685.1,287.9,1684.9,288,1684.7,288z"/>
				<path id="XMLID_76_" class="st2" d="M1707.4,299.8c-5.8,0-11.6-1.7-16.6-5.2c-0.5-0.4-0.6-1.1-0.3-1.6c0.4-0.5,1.1-0.6,1.6-0.3
					c9.1,6.4,21.4,6.4,30.5,0c0.5-0.4,1.2-0.2,1.6,0.3c0.4,0.5,0.2,1.2-0.3,1.6C1719,298,1713.2,299.8,1707.4,299.8z"/>
			</g>
			<g id="XMLID_72_">
				<path id="XMLID_74_" class="st2" d="M1723.3,249.3c-0.2,0-0.5-0.1-0.7-0.2c-9.1-6.4-21.4-6.4-30.5,0c-0.5,0.4-1.2,0.2-1.6-0.3
					c-0.4-0.5-0.2-1.2,0.3-1.6c9.9-7,23.2-7,33.2,0c0.5,0.4,0.6,1.1,0.3,1.6C1724,249.1,1723.7,249.3,1723.3,249.3z"/>
				<path id="XMLID_73_" class="st2" d="M1730.1,288c-0.2,0-0.5-0.1-0.7-0.2c-0.5-0.4-0.6-1.1-0.3-1.6c6.4-9.1,6.4-21.4,0-30.5
					c-0.4-0.5-0.2-1.2,0.3-1.6c0.5-0.4,1.2-0.2,1.6,0.3c7,9.9,7,23.2,0,33.2C1730.8,287.8,1730.5,288,1730.1,288z"/>
			</g>
			<circle id="XMLID_71_" class="st2" cx="1729.1" cy="288.2" r="2.6"/>
			<circle id="XMLID_70_" class="st2" cx="1685.7" cy="253.6" r="2.6"/>
			<circle id="XMLID_69_" class="st2" cx="1724.7" cy="249.2" r="2.6"/>
			<circle id="XMLID_68_" class="st2" cx="1690.1" cy="292.6" r="2.6"/>
		</g>
		<g id="XMLID_1_">
			<g id="XMLID_12_">
				<path id="XMLID_22_" class="st2" d="M930.9-153.5c-2.5,0-2.9-0.5-3.1-0.6c-0.7-0.8-0.8-3.4-0.5-4.7c0.2-1,0.6-1.6,1.2-1.8
					c0.7-0.3,1.2-0.5,1.6-0.6c0.5-0.2,0.8-0.3,1-0.4l0.2-0.1c1.6-1.1,3.4-2.3,4.5-2.4c0.1,0,7.7-0.7,9.5,0.1
					c0.5,0.2,1.1,0.6,1.9,1.1c1.1,0.7,2.6,1.6,3.5,1.8c0.2,0.1,0.6,0.1,1.1,0.2c2.1,0.3,6.6,0.8,6.5,5.4c0,0,0,0,0,0.1
					c-0.2,1.9-2.3,2-4.3,2c-0.4,0-0.8-0.4-0.8-0.8c0-0.4,0.4-0.8,0.8-0.8c1.7,0,2.6-0.2,2.7-0.6c0.1-2.9-2.4-3.4-5.1-3.7
					c-0.5-0.1-1-0.1-1.3-0.2c-1.1-0.3-2.6-1.2-3.9-2c-0.7-0.4-1.3-0.8-1.7-1c-0.9-0.4-6.5-0.2-8.6,0c-0.4,0-1.4,0.4-3.7,2.1
					l-0.2,0.1c-0.4,0.3-0.9,0.5-1.4,0.6c-0.4,0.1-0.9,0.3-1.5,0.6c-0.5,0.4-0.5,3.1-0.2,4c0.4,0.1,1.4,0.2,2.4,0.2
					c0.4,0,0.8,0.3,0.8,0.8c0,0.4-0.3,0.8-0.8,0.8C931.2-153.5,931-153.5,930.9-153.5z"/>
				<path id="XMLID_19_" class="st2" d="M951.5-151.3c-1.7,0-3.1-1.4-3.1-3.1s1.4-3.1,3.1-3.1s3.1,1.4,3.1,3.1
					S953.2-151.3,951.5-151.3z M951.5-155.9c-0.8,0-1.5,0.7-1.5,1.5s0.7,1.5,1.5,1.5c0.8,0,1.5-0.7,1.5-1.5S952.3-155.9,951.5-155.9
					z"/>
				<path id="XMLID_16_" class="st2" d="M934.3-151.3c-1.7,0-3.1-1.4-3.1-3.1s1.4-3.1,3.1-3.1s3.1,1.4,3.1,3.1
					S936-151.3,934.3-151.3z M934.3-155.9c-0.8,0-1.5,0.7-1.5,1.5s0.7,1.5,1.5,1.5c0.8,0,1.5-0.7,1.5-1.5S935.1-155.9,934.3-155.9z"
					/>
				<path id="XMLID_15_" class="st2" d="M948.6-156.7C948.6-156.7,948.6-156.7,948.6-156.7c-1.5,0-9.2-0.1-11.1-1.3
					c-2-1.3-2.5-3.4-2.5-3.5c-0.1-0.4,0.2-0.9,0.6-1c0.4-0.1,0.9,0.2,1,0.6c0,0,0.4,1.5,1.8,2.4c1.2,0.7,6.9,1,10.2,1.1
					c0.4,0,0.8,0.4,0.8,0.8C949.4-157,949-156.7,948.6-156.7z"/>
				<path id="XMLID_14_" class="st2" d="M949.2-153.6h-12.7c-0.4,0-0.8-0.4-0.8-0.8s0.4-0.8,0.8-0.8h12.7c0.4,0,0.8,0.4,0.8,0.8
					S949.7-153.6,949.2-153.6z"/>
				<path id="XMLID_13_" class="st2" d="M954.6-153.6c-0.2,0-0.3,0-0.5,0c-0.4,0-0.8-0.4-0.7-0.9c0-0.4,0.4-0.8,0.9-0.7
					c0.7,0.1,1.6-0.2,2.1-0.6c0.1-0.1,0.2-0.2,0.2-0.3c0,0,0,0,0,0c0.1-2.5-2.3-3-5-3.4c-0.5-0.1-1-0.1-1.4-0.2
					c-0.4-0.1-0.7-0.6-0.6-1c0.1-0.4,0.6-0.7,1-0.6c0.2,0.1,0.7,0.1,1.2,0.2c2.2,0.3,6.6,0.8,6.4,5c0,0.5-0.3,1.1-0.7,1.5
					C956.8-154,955.7-153.6,954.6-153.6z"/>
			</g>
			<g id="XMLID_9_">
				<path id="XMLID_11_" class="st2" d="M927.1-146.3c-0.2,0-0.5-0.1-0.6-0.3c-4.8-6.8-4.8-15.9,0-22.6c0.2-0.4,0.7-0.4,1.1-0.2
					c0.4,0.2,0.4,0.7,0.2,1.1c-4.4,6.2-4.4,14.6,0,20.8c0.2,0.4,0.2,0.8-0.2,1.1C927.4-146.3,927.3-146.3,927.1-146.3z"/>
				<path id="XMLID_10_" class="st2" d="M942.7-138.2c-4,0-7.9-1.2-11.3-3.6c-0.4-0.2-0.4-0.7-0.2-1.1c0.2-0.4,0.7-0.4,1.1-0.2
					c6.2,4.4,14.6,4.4,20.8,0c0.4-0.2,0.8-0.2,1.1,0.2c0.2,0.4,0.2,0.8-0.2,1.1C950.6-139.4,946.6-138.2,942.7-138.2z"/>
			</g>
			<g id="XMLID_6_">
				<path id="XMLID_8_" class="st2" d="M953.5-172.7c-0.2,0-0.3,0-0.4-0.1c-6.2-4.4-14.6-4.4-20.8,0c-0.4,0.2-0.8,0.2-1.1-0.2
					c-0.2-0.4-0.2-0.8,0.2-1.1c6.8-4.8,15.9-4.8,22.6,0c0.4,0.2,0.4,0.7,0.2,1.1C954-172.8,953.8-172.7,953.5-172.7z"/>
				<path id="XMLID_7_" class="st2" d="M958.2-146.3c-0.2,0-0.3,0-0.4-0.1c-0.4-0.2-0.4-0.7-0.2-1.1c4.4-6.2,4.4-14.6,0-20.8
					c-0.2-0.4-0.2-0.8,0.2-1.1c0.4-0.2,0.8-0.2,1.1,0.2c4.8,6.8,4.8,15.9,0,22.6C958.7-146.4,958.4-146.3,958.2-146.3z"/>
			</g>
			<circle id="XMLID_5_" class="st2" cx="957.5" cy="-146.1" r="1.8"/>
			<circle id="XMLID_4_" class="st2" cx="927.8" cy="-169.7" r="1.8"/>
			<circle id="XMLID_3_" class="st2" cx="954.5" cy="-172.8" r="1.8"/>
			<circle id="XMLID_2_" class="st2" cx="930.8" cy="-143.1" r="1.8"/>
		</g>
		<g id="XMLID_45_">
			<g id="XMLID_56_">
				<path id="XMLID_66_" class="st2" d="M1879.9-73.6c-2.5,0-2.9-0.5-3.1-0.6c-0.7-0.8-0.8-3.4-0.5-4.7c0.2-1,0.6-1.6,1.2-1.8
					c0.7-0.3,1.2-0.5,1.6-0.6c0.5-0.2,0.8-0.3,1-0.4l0.2-0.1c1.6-1.1,3.4-2.3,4.5-2.4c0.1,0,7.7-0.7,9.5,0.1
					c0.5,0.2,1.1,0.6,1.9,1.1c1.1,0.7,2.6,1.6,3.5,1.8c0.2,0.1,0.6,0.1,1.1,0.2c2.1,0.3,6.6,0.8,6.5,5.4c0,0,0,0,0,0.1
					c-0.2,1.9-2.3,2-4.3,2c-0.4,0-0.8-0.4-0.8-0.8s0.4-0.8,0.8-0.8c1.7,0,2.6-0.2,2.7-0.6c0.1-2.9-2.4-3.4-5.1-3.7
					c-0.5-0.1-1-0.1-1.3-0.2c-1.1-0.3-2.6-1.2-3.9-2c-0.7-0.4-1.3-0.8-1.7-1c-0.9-0.4-6.5-0.2-8.6,0c-0.4,0-1.4,0.4-3.7,2.1
					l-0.2,0.1c-0.4,0.3-0.9,0.5-1.4,0.6c-0.4,0.1-0.9,0.3-1.5,0.6c-0.5,0.4-0.5,3.1-0.2,4c0.4,0.1,1.4,0.2,2.4,0.2
					c0.4,0,0.8,0.3,0.8,0.8c0,0.4-0.3,0.8-0.8,0.8C1880.2-73.6,1880-73.6,1879.9-73.6z"/>
				<path id="XMLID_63_" class="st2" d="M1900.5-71.4c-1.7,0-3.1-1.4-3.1-3.1c0-1.7,1.4-3.1,3.1-3.1s3.1,1.4,3.1,3.1
					C1903.6-72.8,1902.2-71.4,1900.5-71.4z M1900.5-76c-0.8,0-1.5,0.7-1.5,1.5s0.7,1.5,1.5,1.5s1.5-0.7,1.5-1.5S1901.3-76,1900.5-76
					z"/>
				<path id="XMLID_60_" class="st2" d="M1883.3-71.4c-1.7,0-3.1-1.4-3.1-3.1c0-1.7,1.4-3.1,3.1-3.1s3.1,1.4,3.1,3.1
					C1886.3-72.8,1885-71.4,1883.3-71.4z M1883.3-76c-0.8,0-1.5,0.7-1.5,1.5s0.7,1.5,1.5,1.5c0.8,0,1.5-0.7,1.5-1.5
					S1884.1-76,1883.3-76z"/>
				<path id="XMLID_59_" class="st2" d="M1897.6-76.8C1897.6-76.8,1897.6-76.8,1897.6-76.8c-1.5,0-9.2-0.1-11.1-1.3
					c-2-1.3-2.5-3.4-2.5-3.5c-0.1-0.4,0.2-0.9,0.6-1c0.4-0.1,0.9,0.2,1,0.6c0,0,0.4,1.5,1.8,2.4c1.2,0.7,6.9,1,10.2,1.1
					c0.4,0,0.8,0.4,0.8,0.8C1898.4-77.2,1898-76.8,1897.6-76.8z"/>
				<path id="XMLID_58_" class="st2" d="M1898.2-73.8h-12.7c-0.4,0-0.8-0.4-0.8-0.8c0-0.4,0.4-0.8,0.8-0.8h12.7
					c0.4,0,0.8,0.4,0.8,0.8C1899-74.1,1898.7-73.8,1898.2-73.8z"/>
				<path id="XMLID_57_" class="st2" d="M1903.6-73.7c-0.2,0-0.3,0-0.5,0c-0.4,0-0.8-0.4-0.7-0.9c0-0.4,0.4-0.8,0.9-0.7
					c0.7,0.1,1.6-0.2,2.1-0.6c0.1-0.1,0.2-0.2,0.2-0.3c0,0,0,0,0,0c0.1-2.5-2.3-3-5-3.4c-0.5-0.1-1-0.1-1.4-0.2
					c-0.4-0.1-0.7-0.6-0.6-1c0.1-0.4,0.6-0.7,1-0.6c0.2,0.1,0.7,0.1,1.2,0.2c2.2,0.3,6.6,0.8,6.4,5c0,0.5-0.3,1.1-0.7,1.5
					C1905.8-74.1,1904.7-73.7,1903.6-73.7z"/>
			</g>
			<g id="XMLID_53_">
				<path id="XMLID_55_" class="st2" d="M1876.1-66.4c-0.2,0-0.5-0.1-0.6-0.3c-4.8-6.8-4.8-15.9,0-22.6c0.2-0.4,0.7-0.4,1.1-0.2
					c0.4,0.2,0.4,0.7,0.2,1.1c-4.4,6.2-4.4,14.6,0,20.8c0.2,0.4,0.2,0.8-0.2,1.1C1876.4-66.5,1876.3-66.4,1876.1-66.4z"/>
				<path id="XMLID_54_" class="st2" d="M1891.7-58.3c-4,0-7.9-1.2-11.3-3.6c-0.4-0.2-0.4-0.7-0.2-1.1c0.2-0.4,0.7-0.4,1.1-0.2
					c6.2,4.4,14.6,4.4,20.8,0c0.4-0.2,0.8-0.2,1.1,0.2c0.2,0.4,0.2,0.8-0.2,1.1C1899.6-59.5,1895.6-58.3,1891.7-58.3z"/>
			</g>
			<g id="XMLID_50_">
				<path id="XMLID_52_" class="st2" d="M1902.5-92.8c-0.2,0-0.3,0-0.4-0.1c-6.2-4.4-14.6-4.4-20.8,0c-0.4,0.2-0.8,0.2-1.1-0.2
					c-0.2-0.4-0.2-0.8,0.2-1.1c6.8-4.8,15.9-4.8,22.6,0c0.4,0.2,0.4,0.7,0.2,1.1C1903-92.9,1902.8-92.8,1902.5-92.8z"/>
				<path id="XMLID_51_" class="st2" d="M1907.2-66.4c-0.2,0-0.3,0-0.4-0.1c-0.4-0.2-0.4-0.7-0.2-1.1c4.4-6.2,4.4-14.6,0-20.8
					c-0.2-0.4-0.2-0.8,0.2-1.1c0.4-0.2,0.8-0.2,1.1,0.2c4.8,6.8,4.8,15.9,0,22.6C1907.7-66.5,1907.4-66.4,1907.2-66.4z"/>
			</g>
			<circle id="XMLID_49_" class="st2" cx="1906.5" cy="-66.3" r="1.8"/>
			<circle id="XMLID_48_" class="st2" cx="1876.8" cy="-89.9" r="1.8"/>
			<circle id="XMLID_47_" class="st2" cx="1903.5" cy="-92.9" r="1.8"/>
			<circle id="XMLID_46_" class="st2" cx="1879.8" cy="-63.2" r="1.8"/>
		</g>
		<g id="XMLID_111_">
			<g id="XMLID_122_">
				<path id="XMLID_132_" class="st2" d="M1394.5,334.1c-2.5,0-2.9-0.5-3.1-0.6c-0.7-0.8-0.8-3.4-0.5-4.7c0.2-1,0.6-1.6,1.2-1.8
					c0.7-0.3,1.2-0.5,1.6-0.6c0.5-0.2,0.8-0.3,1-0.4l0.2-0.1c1.6-1.1,3.4-2.3,4.5-2.4c0.1,0,7.7-0.7,9.5,0.1
					c0.5,0.2,1.1,0.6,1.9,1.1c1.1,0.7,2.6,1.6,3.5,1.8c0.2,0.1,0.6,0.1,1.1,0.2c2.1,0.3,6.6,0.8,6.5,5.4c0,0,0,0,0,0.1
					c-0.2,1.9-2.3,2-4.3,2c-0.4,0-0.8-0.4-0.8-0.8c0-0.4,0.4-0.8,0.8-0.8c1.7,0,2.6-0.2,2.7-0.6c0.1-2.9-2.4-3.4-5.1-3.7
					c-0.5-0.1-1-0.1-1.3-0.2c-1.1-0.3-2.6-1.2-3.9-2c-0.7-0.4-1.3-0.8-1.7-1c-0.9-0.4-6.5-0.2-8.6,0c-0.4,0-1.4,0.4-3.7,2.1
					l-0.2,0.1c-0.4,0.3-0.9,0.5-1.4,0.6c-0.4,0.1-0.9,0.3-1.5,0.6c-0.5,0.4-0.5,3.1-0.2,4c0.4,0.1,1.4,0.2,2.4,0.2
					c0.4,0,0.8,0.3,0.8,0.8c0,0.4-0.3,0.8-0.8,0.8C1394.8,334.1,1394.6,334.1,1394.5,334.1z"/>
				<path id="XMLID_129_" class="st2" d="M1415.1,336.3c-1.7,0-3.1-1.4-3.1-3.1c0-1.7,1.4-3.1,3.1-3.1s3.1,1.4,3.1,3.1
					C1418.2,334.9,1416.8,336.3,1415.1,336.3z M1415.1,331.7c-0.8,0-1.5,0.7-1.5,1.5s0.7,1.5,1.5,1.5s1.5-0.7,1.5-1.5
					S1415.9,331.7,1415.1,331.7z"/>
				<path id="XMLID_126_" class="st2" d="M1397.9,336.3c-1.7,0-3.1-1.4-3.1-3.1c0-1.7,1.4-3.1,3.1-3.1s3.1,1.4,3.1,3.1
					C1400.9,334.9,1399.6,336.3,1397.9,336.3z M1397.9,331.7c-0.8,0-1.5,0.7-1.5,1.5s0.7,1.5,1.5,1.5c0.8,0,1.5-0.7,1.5-1.5
					S1398.7,331.7,1397.9,331.7z"/>
				<path id="XMLID_125_" class="st2" d="M1412.2,330.9C1412.2,330.9,1412.2,330.9,1412.2,330.9c-1.5,0-9.2-0.1-11.1-1.3
					c-2-1.3-2.5-3.4-2.5-3.5c-0.1-0.4,0.2-0.9,0.6-1c0.4-0.1,0.9,0.2,1,0.6c0,0,0.4,1.5,1.8,2.4c1.2,0.7,6.9,1,10.2,1.1
					c0.4,0,0.8,0.4,0.8,0.8C1413,330.5,1412.6,330.9,1412.2,330.9z"/>
				<path id="XMLID_124_" class="st2" d="M1412.8,333.9h-12.7c-0.4,0-0.8-0.4-0.8-0.8c0-0.4,0.4-0.8,0.8-0.8h12.7
					c0.4,0,0.8,0.4,0.8,0.8C1413.6,333.6,1413.3,333.9,1412.8,333.9z"/>
				<path id="XMLID_123_" class="st2" d="M1418.2,333.9c-0.2,0-0.3,0-0.5,0c-0.4,0-0.8-0.4-0.7-0.9c0-0.4,0.4-0.8,0.9-0.7
					c0.7,0.1,1.6-0.2,2.1-0.6c0.1-0.1,0.2-0.2,0.2-0.3c0,0,0,0,0,0c0.1-2.5-2.3-3-5-3.4c-0.5-0.1-1-0.1-1.4-0.2
					c-0.4-0.1-0.7-0.6-0.6-1c0.1-0.4,0.6-0.7,1-0.6c0.2,0.1,0.7,0.1,1.2,0.2c2.2,0.3,6.6,0.8,6.4,5c0,0.5-0.3,1.1-0.7,1.5
					C1420.4,333.6,1419.3,333.9,1418.2,333.9z"/>
			</g>
			<g id="XMLID_119_">
				<path id="XMLID_121_" class="st2" d="M1390.7,341.3c-0.2,0-0.5-0.1-0.6-0.3c-4.8-6.8-4.8-15.9,0-22.6c0.2-0.4,0.7-0.4,1.1-0.2
					c0.4,0.2,0.4,0.7,0.2,1.1c-4.4,6.2-4.4,14.6,0,20.8c0.2,0.4,0.2,0.8-0.2,1.1C1391,341.2,1390.9,341.3,1390.7,341.3z"/>
				<path id="XMLID_120_" class="st2" d="M1406.3,349.4c-4,0-7.9-1.2-11.3-3.6c-0.4-0.2-0.4-0.7-0.2-1.1c0.2-0.4,0.7-0.4,1.1-0.2
					c6.2,4.4,14.6,4.4,20.8,0c0.4-0.2,0.8-0.2,1.1,0.2c0.2,0.4,0.2,0.8-0.2,1.1C1414.2,348.2,1410.2,349.4,1406.3,349.4z"/>
			</g>
			<g id="XMLID_116_">
				<path id="XMLID_118_" class="st2" d="M1417.1,314.9c-0.2,0-0.3,0-0.4-0.1c-6.2-4.4-14.6-4.4-20.8,0c-0.4,0.2-0.8,0.2-1.1-0.2
					c-0.2-0.4-0.2-0.8,0.2-1.1c6.8-4.8,15.9-4.8,22.6,0c0.4,0.2,0.4,0.7,0.2,1.1C1417.6,314.8,1417.4,314.9,1417.1,314.9z"/>
				<path id="XMLID_117_" class="st2" d="M1421.8,341.3c-0.2,0-0.3,0-0.4-0.1c-0.4-0.2-0.4-0.7-0.2-1.1c4.4-6.2,4.4-14.6,0-20.8
					c-0.2-0.4-0.2-0.8,0.2-1.1c0.4-0.2,0.8-0.2,1.1,0.2c4.8,6.8,4.8,15.9,0,22.6C1422.3,341.2,1422,341.3,1421.8,341.3z"/>
			</g>
			<circle id="XMLID_115_" class="st2" cx="1421.1" cy="341.4" r="1.8"/>
			<circle id="XMLID_114_" class="st2" cx="1391.4" cy="317.8" r="1.8"/>
			<circle id="XMLID_113_" class="st2" cx="1418.1" cy="314.8" r="1.8"/>
			<circle id="XMLID_112_" class="st2" cx="1394.4" cy="344.5" r="1.8"/>
		</g>
	</g>
	<g>
		<g id="I8PXG6_2_">
			<g>
				<path class="st3" d="M1317.3,993v-4c0-6.3-5.1-11.4-11.4-11.4s-11.4,5.1-11.4,11.4v14.9"/>
			</g>
		</g>
		<path class="st2" d="M1320,1001.6h-27.3c-3.3,0-6.1,2.7-6.1,6.1v17.1c0,3.3,2.7,6.1,6.1,6.1h27.3c3.3,0,6.1-2.7,6.1-6.1v-17.1
			C1326.1,1004.4,1323.3,1001.6,1320,1001.6z M1309.9,1016.8c-0.3,0.3-0.5,0.6-0.5,1.1c0,1,0,2.1,0,3.1c0,1.6-1.3,2.9-2.9,2.9
			s-2.8-1.3-2.9-2.9c0-0.5,0-1.1,0-1.6c0-0.1,0-0.3,0-0.4c0.1-1-0.1-1.8-0.9-2.7c-1.7-1.9-1.3-4.9,0.6-6.6c2-1.7,4.9-1.5,6.7,0.5
			C1311.8,1012.1,1311.7,1015,1309.9,1016.8z"/>
	</g>
</g>
</svg>
