<?xml version="1.0" encoding="utf-8"?>
<!-- Generator: Adobe Illustrator 21.1.0, SVG Export Plug-In . SVG Version: 6.00 Build 0)  -->
<svg version="1.1" id="Ebene_1" xmlns="http://www.w3.org/2000/svg" xmlns:xlink="http://www.w3.org/1999/xlink" x="0px" y="0px"
	 viewBox="0 0 1600 601.7" style="enable-background:new 0 0 1600 601.7;" xml:space="preserve">
<style type="text/css">
	.st0{display:none;}
	.st1{fill:#3EAD54;}
	.st2{filter:url(#Adobe_OpacityMaskFilter);}
	.st3{fill:#FFFFFF;}
	.st4{opacity:0.2;mask:url(#SVGID_1_);}
	.st5{fill:none;stroke:#FFFFFF;stroke-miterlimit:10;stroke-dasharray:2.0014,4.0028,2.0014,4.0028,2.0014,4.0028;}
	.st6{fill:none;stroke:#FFFFFF;stroke-miterlimit:10;stroke-dasharray:1.9963,3.9927,1.9963,3.9927,1.9963,3.9927;}
	.st7{fill:none;stroke:#FFFFFF;stroke-miterlimit:10;stroke-dasharray:2.0006,4.0012,2.0006,4.0012,2.0006,4.0012;}
	.st8{fill:none;stroke:#FFFFFF;stroke-miterlimit:10;stroke-dasharray:2.0031,4.0063,2.0031,4.0063,2.0031,4.0063;}
	.st9{fill:none;stroke:#FFFFFF;stroke-miterlimit:10;stroke-dasharray:1.9986,3.9972,1.9986,3.9972,1.9986,3.9972;}
	.st10{fill:none;stroke:#FFFFFF;stroke-miterlimit:10;stroke-dasharray:1.9954,3.9908,1.9954,3.9908,1.9954,3.9908;}
	.st11{fill:none;stroke:#FFFFFF;stroke-miterlimit:10;stroke-dasharray:1.9983,3.9966,1.9983,3.9966,1.9983,3.9966;}
	.st12{opacity:0.3;}
	.st13{fill:none;stroke:#FFFFFF;stroke-miterlimit:10;stroke-dasharray:2,4,2,4,2,4;}
</style>
<g id="Ebene_3">
</g>
<g id="Ebene_4">
</g>
<g id="Ebene_2" class="st0">
</g>
<g id="Ebene_5">
</g>
<g id="Ebene_1_1_">
	<rect y="0" class="st1" width="1600" height="601.7"/>
	<defs>
		<filter id="Adobe_OpacityMaskFilter" filterUnits="userSpaceOnUse" x="-49.5" y="-1236" width="1698" height="1698">
			<feColorMatrix  type="matrix" values="1 0 0 0 0  0 1 0 0 0  0 0 1 0 0  0 0 0 1 0"/>
		</filter>
	</defs>
	<mask maskUnits="userSpaceOnUse" x="-49.5" y="-1236" width="1698" height="1698" id="SVGID_1_">
		<g class="st2">
			<rect x="4" y="-69.8" class="st3" width="1600" height="565.9"/>
		</g>
	</mask>
	<g class="st4">
		<g>
			<g>
				<g>
					<g>
						
							<ellipse transform="matrix(0.6286 -0.7777 0.7777 0.6286 597.8914 478.036)" class="st5" cx="799.5" cy="-387" rx="848.5" ry="848.5"/>
					</g>
				</g>
				<g>
					<g>
						
							<ellipse transform="matrix(0.6286 -0.7777 0.7777 0.6286 597.8914 478.036)" class="st6" cx="799.5" cy="-387" rx="848.5" ry="673.3"/>
					</g>
				</g>
				<g>
					<g>
						
							<ellipse transform="matrix(0.6286 -0.7777 0.7777 0.6286 597.8914 478.036)" class="st7" cx="799.5" cy="-387" rx="848.5" ry="414.9"/>
					</g>
				</g>
				<g>
					<g>
						
							<ellipse transform="matrix(0.6286 -0.7777 0.7777 0.6286 597.8914 478.0363)" class="st8" cx="799.5" cy="-387" rx="848.5" ry="774.5"/>
					</g>
				</g>
				<g>
					<g>
						
							<ellipse transform="matrix(0.6286 -0.7777 0.7777 0.6286 597.8915 478.0358)" class="st9" cx="799.5" cy="-387" rx="848.5" ry="549.6"/>
					</g>
				</g>
				<g>
					<g>
						
							<ellipse transform="matrix(0.6286 -0.7777 0.7777 0.6286 597.8914 478.0356)" class="st10" cx="799.5" cy="-387" rx="848.5" ry="278.6"/>
					</g>
				</g>
				<g>
					<g>
						
							<ellipse transform="matrix(0.6286 -0.7777 0.7777 0.6286 597.8914 478.0348)" class="st11" cx="799.5" cy="-387" rx="848.5" ry="118.4"/>
					</g>
				</g>
			</g>
		</g>
		<g>
			<g>
				<g>
					<g>
						<g>
							
								<ellipse transform="matrix(0.9944 -0.1054 0.1054 0.9944 45.2428 82.1123)" class="st6" cx="799.5" cy="-387" rx="848.5" ry="673.3"/>
						</g>
					</g>
					<g>
						<g>
							
								<ellipse transform="matrix(0.9944 -0.1054 0.1054 0.9944 45.2428 82.1123)" class="st7" cx="799.5" cy="-387" rx="848.5" ry="414.9"/>
						</g>
					</g>
					<g>
						<g>
							
								<ellipse transform="matrix(0.9944 -0.1054 0.1054 0.9944 45.2428 82.1123)" class="st8" cx="799.5" cy="-387" rx="848.5" ry="774.5"/>
						</g>
					</g>
					<g>
						<g>
							
								<ellipse transform="matrix(0.9944 -0.1054 0.1054 0.9944 45.2428 82.1123)" class="st9" cx="799.5" cy="-387" rx="848.5" ry="549.6"/>
						</g>
					</g>
				</g>
			</g>
		</g>
		<g>
			<g>
				<g>
					<g>
						<g>
							
								<ellipse transform="matrix(0.9944 -0.1054 0.1054 0.9944 45.2428 82.1123)" class="st6" cx="799.5" cy="-387" rx="673.3" ry="848.5"/>
						</g>
					</g>
					<g>
						<g>
							
								<ellipse transform="matrix(0.9944 -0.1054 0.1054 0.9944 45.2428 82.1123)" class="st7" cx="799.5" cy="-387" rx="414.9" ry="848.5"/>
						</g>
					</g>
					<g>
						<g>
							
								<ellipse transform="matrix(0.9944 -0.1054 0.1054 0.9944 45.2428 82.1123)" class="st8" cx="799.5" cy="-387" rx="774.5" ry="848.5"/>
						</g>
					</g>
					<g>
						<g>
							
								<ellipse transform="matrix(0.9944 -0.1054 0.1054 0.9944 45.2428 82.1123)" class="st9" cx="799.5" cy="-387" rx="549.6" ry="848.5"/>
						</g>
					</g>
					<g>
						<g>
							
								<ellipse transform="matrix(0.9944 -0.1054 0.1054 0.9944 45.2428 82.1123)" class="st10" cx="799.5" cy="-387" rx="278.6" ry="848.5"/>
						</g>
					</g>
					<g>
						<g>
							
								<ellipse transform="matrix(0.9944 -0.1054 0.1054 0.9944 45.2428 82.1123)" class="st11" cx="799.5" cy="-387" rx="118.4" ry="848.5"/>
						</g>
					</g>
				</g>
			</g>
		</g>
		<g>
			<g>
				<g>
					<g>
						
							<ellipse transform="matrix(0.6286 -0.7777 0.7777 0.6286 597.8908 478.0356)" class="st6" cx="799.5" cy="-387" rx="673.3" ry="848.5"/>
					</g>
				</g>
				<g>
					<g>
						
							<ellipse transform="matrix(0.6286 -0.7777 0.7777 0.6286 597.8908 478.0356)" class="st7" cx="799.5" cy="-387" rx="414.9" ry="848.5"/>
					</g>
				</g>
				<g>
					<g>
						
							<ellipse transform="matrix(0.6286 -0.7777 0.7777 0.6286 597.8906 478.0356)" class="st8" cx="799.5" cy="-387" rx="774.5" ry="848.5"/>
					</g>
				</g>
				<g>
					<g>
						
							<ellipse transform="matrix(0.6286 -0.7777 0.7777 0.6286 597.8911 478.0359)" class="st9" cx="799.5" cy="-387" rx="549.6" ry="848.5"/>
					</g>
				</g>
				<g>
					<g>
						
							<ellipse transform="matrix(0.6286 -0.7777 0.7777 0.6286 597.8914 478.0356)" class="st10" cx="799.5" cy="-387" rx="278.6" ry="848.5"/>
					</g>
				</g>
				<g>
					<g>
						
							<ellipse transform="matrix(0.6286 -0.7777 0.7777 0.6286 597.8922 478.0357)" class="st11" cx="799.5" cy="-387" rx="118.4" ry="848.5"/>
					</g>
				</g>
			</g>
		</g>
	</g>
	<g class="st12">
		<g>
			<line class="st13" x1="524.1" y1="94.5" x2="305.1" y2="361.5"/>
			<line class="st13" x1="347.1" y1="42" x2="30.6" y2="297"/>
			<line class="st13" x1="314.6" y1="267" x2="177.1" y2="408.5"/>
			<line class="st13" x1="621.6" y1="-3" x2="570.6" y2="78"/>
			<line class="st13" x1="260.1" y1="-24" x2="22.6" y2="85.5"/>
			<line class="st13" x1="180.6" y1="96" x2="73.1" y2="169.5"/>
			<line class="st13" x1="467.1" y1="18" x2="303.6" y2="192"/>
			<line class="st13" x1="641.1" y1="162" x2="528.6" y2="444"/>
			<line class="st13" x1="528.6" y1="310.5" x2="438.6" y2="489"/>
			<line class="st13" x1="738.6" y1="214.5" x2="686.1" y2="478.5"/>
			<line class="st13" x1="749.1" y1="81" x2="698.1" y2="280.5"/>
			<line class="st13" x1="851.1" y1="139.5" x2="862.6" y2="366"/>
			<line class="st13" x1="762.6" y1="385.5" x2="753.6" y2="499.5"/>
			<line class="st13" x1="945.6" y1="177" x2="987.6" y2="447"/>
			<line class="st13" x1="1068.6" y1="109.5" x2="1154.1" y2="349.5"/>
			<line class="st13" x1="1169.1" y1="25.5" x2="1341.6" y2="135"/>
			<line class="st13" x1="1307.1" y1="21" x2="1542.6" y2="121"/>
			<line class="st13" x1="1161.6" y1="150" x2="1349.1" y2="364.5"/>
			<line class="st13" x1="1245.6" y1="177" x2="1430" y2="354.6"/>
			<line class="st13" x1="1089.6" y1="-21" x2="1186.1" y2="56.5"/>
			<line class="st13" x1="1006.1" y1="-0.5" x2="1043" y2="128.6"/>
			<line class="st13" x1="999.6" y1="364.5" x2="1031.1" y2="495"/>
			<line class="st13" x1="1083.6" y1="348" x2="1110.1" y2="427.5"/>
			<line class="st13" x1="1194.6" y1="328.5" x2="1277.1" y2="478.5"/>
			<line class="st13" x1="1352.1" y1="189" x2="1457.1" y2="273"/>
			<line class="st13" x1="1374.6" y1="85.5" x2="1551.6" y2="177"/>
			<line class="st13" x1="838.6" y1="-14.5" x2="840.1" y2="108.5"/>
			<line class="st13" x1="386.1" y1="-16.5" x2="274.1" y2="62"/>
			<line class="st13" x1="1206.6" y1="-56.5" x2="1355.1" y2="-15"/>
			<line class="st13" x1="1466.1" y1="-1.5" x2="1575.6" y2="28.5"/>
			<line class="st13" x1="119.1" y1="-18" x2="39.6" y2="7.5"/>
		</g>
		<path class="st3" d="M38.2,12c-1.9,0-3.5-1.4-3.8-3.3c-0.3-2.1,1.2-4,3.3-4.3c0.2,0,0.3,0,0.5,0c1.9,0,3.5,1.4,3.8,3.3
			c0.1,1-0.1,2-0.8,2.8c-0.6,0.8-1.5,1.3-2.5,1.5C38.5,12,38.4,12,38.2,12z"/>
		<path class="st3" d="M24.2,88c-1.9,0-3.5-1.4-3.8-3.3c-0.3-2.1,1.2-4,3.3-4.3c0.2,0,0.3,0,0.5,0c1.9,0,3.5,1.4,3.8,3.3
			c0.1,1-0.1,2-0.8,2.8c-0.6,0.8-1.5,1.3-2.5,1.5C24.5,88,24.4,88,24.2,88z"/>
		<path class="st3" d="M276.2,65c-1.9,0-3.5-1.4-3.8-3.3c-0.3-2.1,1.2-4,3.3-4.3c0.2,0,0.3,0,0.5,0c1.9,0,3.5,1.4,3.8,3.3
			c0.1,1-0.1,2-0.8,2.8c-0.6,0.8-1.5,1.3-2.5,1.5C276.5,65,276.4,65,276.2,65z"/>
		<path class="st3" d="M75,171.3c-1.9,0-3.5-1.4-3.8-3.3c-0.3-2.1,1.2-4,3.3-4.3c0.2,0,0.3,0,0.5,0c1.9,0,3.5,1.4,3.8,3.3
			c0.1,1-0.1,2-0.8,2.8c-0.6,0.8-1.5,1.3-2.5,1.5C75.3,171.3,75.2,171.3,75,171.3z"/>
		<path class="st3" d="M32.5,299.3c-1.9,0-3.5-1.4-3.8-3.3c-0.3-2.1,1.2-4,3.3-4.3c0.2,0,0.3,0,0.5,0c1.9,0,3.5,1.4,3.8,3.3
			c0.1,1-0.1,2-0.8,2.8c-0.6,0.8-1.5,1.3-2.5,1.5C32.8,299.3,32.7,299.3,32.5,299.3z"/>
		<path class="st3" d="M305.5,193.3c-1.9,0-3.5-1.4-3.8-3.3c-0.3-2.1,1.2-4,3.3-4.3c0.2,0,0.3,0,0.5,0c1.9,0,3.5,1.4,3.8,3.3
			c0.1,1-0.1,2-0.8,2.8c-0.6,0.8-1.5,1.3-2.5,1.5C305.8,193.3,305.7,193.3,305.5,193.3z"/>
		<path class="st3" d="M179,410.3c-1.9,0-3.5-1.4-3.8-3.3c-0.3-2.1,1.2-4,3.3-4.3c0.2,0,0.3,0,0.5,0c1.9,0,3.5,1.4,3.8,3.3
			c0.1,1-0.1,2-0.8,2.8c-0.6,0.8-1.5,1.3-2.5,1.5C179.3,410.3,179.2,410.3,179,410.3z"/>
		<path class="st3" d="M305.1,365.6c-1.9,0-3.5-1.4-3.8-3.3c-0.3-2.1,1.2-4,3.3-4.3c0.2,0,0.3,0,0.5,0c1.9,0,3.5,1.4,3.8,3.3
			c0.1,1-0.1,2-0.8,2.8c-0.6,0.8-1.5,1.3-2.5,1.5C305.4,365.6,305.3,365.6,305.1,365.6z"/>
		<path class="st3" d="M572.1,81c-1.9,0-3.5-1.4-3.8-3.3c-0.3-2.1,1.2-4,3.3-4.3c0.2,0,0.3,0,0.5,0c1.9,0,3.5,1.4,3.8,3.3
			c0.1,1-0.1,2-0.8,2.8c-0.6,0.8-1.5,1.3-2.5,1.5C572.4,81,572.2,81,572.1,81z"/>
		<path class="st3" d="M439.2,492c-1.9,0-3.5-1.4-3.8-3.3c-0.3-2.1,1.2-4,3.3-4.3c0.2,0,0.3,0,0.5,0c1.9,0,3.5,1.4,3.8,3.3
			c0.1,1-0.1,2-0.8,2.8c-0.6,0.8-1.5,1.3-2.5,1.5C439.5,492,439.4,492,439.2,492z"/>
		<path class="st3" d="M529.2,446c-1.9,0-3.5-1.4-3.8-3.3c-0.3-2.1,1.2-4,3.3-4.3c0.2,0,0.3,0,0.5,0c1.9,0,3.5,1.4,3.8,3.3
			c0.1,1-0.1,2-0.8,2.8c-0.6,0.8-1.5,1.3-2.5,1.5C529.5,446,529.4,446,529.2,446z"/>
		<path class="st3" d="M697.5,284.3c-1.9,0-3.5-1.4-3.8-3.3c-0.3-2.1,1.2-4,3.3-4.3c0.2,0,0.3,0,0.5,0c1.9,0,3.5,1.4,3.8,3.3
			c0.1,1-0.1,2-0.8,2.8c-0.6,0.8-1.5,1.3-2.5,1.5C697.8,284.3,697.7,284.3,697.5,284.3z"/>
		<path class="st3" d="M686.8,479c-1.9,0-3.5-1.4-3.8-3.3c-0.3-2.1,1.2-4,3.3-4.3c0.2,0,0.3,0,0.5,0c1.9,0,3.5,1.4,3.8,3.3
			c0.1,1-0.1,2-0.8,2.8c-0.6,0.8-1.5,1.3-2.5,1.5C687.1,479,687,479,686.8,479z"/>
		<path class="st3" d="M753.8,499c-1.9,0-3.5-1.4-3.8-3.3c-0.3-2.1,1.2-4,3.3-4.3c0.2,0,0.3,0,0.5,0c1.9,0,3.5,1.4,3.8,3.3
			c0.1,1-0.1,2-0.8,2.8c-0.6,0.8-1.5,1.3-2.5,1.5C754.1,499,754,499,753.8,499z"/>
		<path class="st3" d="M839.8,111c-1.9,0-3.5-1.4-3.8-3.3c-0.3-2.1,1.2-4,3.3-4.3c0.2,0,0.3,0,0.5,0c1.9,0,3.5,1.4,3.8,3.3
			c0.1,1-0.1,2-0.8,2.8c-0.6,0.8-1.5,1.3-2.5,1.5C840.1,111,840,111,839.8,111z"/>
		<path class="st3" d="M862.6,369c-1.9,0-3.5-1.4-3.8-3.3c-0.3-2.1,1.2-4,3.3-4.3c0.2,0,0.3,0,0.5,0c1.9,0,3.5,1.4,3.8,3.3
			c0.1,1-0.1,2-0.8,2.8c-0.6,0.8-1.5,1.3-2.5,1.5C862.9,369,862.8,369,862.6,369z"/>
		<path class="st3" d="M986.5,448.3c-1.9,0-3.5-1.4-3.8-3.3c-0.3-2.1,1.2-4,3.3-4.3c0.2,0,0.3,0,0.5,0c1.9,0,3.5,1.4,3.8,3.3
			c0.1,1-0.1,2-0.8,2.8c-0.6,0.8-1.5,1.3-2.5,1.5C986.8,448.3,986.7,448.3,986.5,448.3z"/>
		<path class="st3" d="M1030.5,497.7c-1.9,0-3.5-1.4-3.8-3.3c-0.3-2.1,1.2-4,3.3-4.3c0.2,0,0.3,0,0.5,0c1.9,0,3.5,1.4,3.8,3.3
			c0.1,1-0.1,2-0.8,2.8c-0.6,0.8-1.5,1.3-2.5,1.5C1030.8,497.7,1030.7,497.7,1030.5,497.7z"/>
		<path class="st3" d="M1109.5,430.7c-1.9,0-3.5-1.4-3.8-3.3c-0.3-2.1,1.2-4,3.3-4.3c0.2,0,0.3,0,0.5,0c1.9,0,3.5,1.4,3.8,3.3
			c0.1,1-0.1,2-0.8,2.8c-0.6,0.8-1.5,1.3-2.5,1.5C1109.8,430.7,1109.7,430.7,1109.5,430.7z"/>
		<path class="st3" d="M1155.5,358.7c-1.9,0-3.5-1.4-3.8-3.3c-0.3-2.1,1.2-4,3.3-4.3c0.2,0,0.3,0,0.5,0c1.9,0,3.5,1.4,3.8,3.3
			c0.1,1-0.1,2-0.8,2.8c-0.6,0.8-1.5,1.3-2.5,1.5C1155.8,358.6,1155.7,358.7,1155.5,358.7z"/>
		<path class="st3" d="M1276.5,482.7c-1.9,0-3.5-1.4-3.8-3.3c-0.3-2.1,1.2-4,3.3-4.3c0.2,0,0.3,0,0.5,0c1.9,0,3.5,1.4,3.8,3.3
			c0.1,1-0.1,2-0.8,2.8c-0.6,0.8-1.5,1.3-2.5,1.5C1276.8,482.7,1276.7,482.7,1276.5,482.7z"/>
		<path class="st3" d="M1187.5,61.6c-1.9,0-3.5-1.4-3.8-3.3c-0.3-2.1,1.2-4,3.3-4.3c0.2,0,0.3,0,0.5,0c1.9,0,3.5,1.4,3.8,3.3
			c0.1,1-0.1,2-0.8,2.8c-0.6,0.8-1.5,1.3-2.5,1.5C1187.8,61.6,1187.7,61.6,1187.5,61.6z"/>
		<path class="st3" d="M1351.5,371.7c-1.9,0-3.5-1.4-3.8-3.3c-0.3-2.1,1.2-4,3.3-4.3c0.2,0,0.3,0,0.5,0c1.9,0,3.5,1.4,3.8,3.3
			c0.1,1-0.1,2-0.8,2.8c-0.6,0.8-1.5,1.3-2.5,1.5C1351.9,371.6,1351.7,371.7,1351.5,371.7z"/>
		<path class="st3" d="M1043.2,133c-1.9,0-3.5-1.4-3.8-3.3c-0.3-2.1,1.2-4,3.3-4.3c0.2,0,0.3,0,0.5,0c1.9,0,3.5,1.4,3.8,3.3
			c0.1,1-0.1,2-0.8,2.8c-0.6,0.8-1.5,1.3-2.5,1.5C1043.5,133,1043.4,133,1043.2,133z"/>
		<path class="st3" d="M1430.5,359.7c-1.9,0-3.5-1.4-3.8-3.3c-0.3-2.1,1.2-4,3.3-4.3c0.2,0,0.3,0,0.5,0c1.9,0,3.5,1.4,3.8,3.3
			c0.1,1-0.1,2-0.8,2.8c-0.6,0.8-1.5,1.3-2.5,1.5C1430.9,359.6,1430.7,359.7,1430.5,359.7z"/>
		<path class="st3" d="M1456.5,275.7c-1.9,0-3.5-1.4-3.8-3.3c-0.3-2.1,1.2-4,3.3-4.3c0.2,0,0.3,0,0.5,0c1.9,0,3.5,1.4,3.8,3.3
			c0.1,1-0.1,2-0.8,2.8c-0.6,0.8-1.5,1.3-2.5,1.5C1456.9,275.6,1456.7,275.7,1456.5,275.7z"/>
		<path class="st3" d="M1338.1,138c-1.9,0-3.5-1.4-3.8-3.3c-0.3-2.1,1.2-4,3.3-4.3c0.2,0,0.3,0,0.5,0c1.9,0,3.5,1.4,3.8,3.3
			c0.1,1-0.1,2-0.8,2.8c-0.6,0.8-1.5,1.3-2.5,1.5C1338.4,138,1338.2,138,1338.1,138z"/>
		<path class="st3" d="M1547.5,178.6c-1.9,0-3.5-1.4-3.8-3.3c-0.3-2.1,1.2-4,3.3-4.3c0.2,0,0.3,0,0.5,0c1.9,0,3.5,1.4,3.8,3.3
			c0.1,1-0.1,2-0.8,2.8c-0.6,0.8-1.5,1.3-2.5,1.5C1547.9,178.6,1547.7,178.6,1547.5,178.6z"/>
		<path class="st3" d="M1541,124.5c-1.9,0-3.5-1.4-3.8-3.3c-0.3-2.1,1.2-4,3.3-4.3c0.2,0,0.3,0,0.5,0c1.9,0,3.5,1.4,3.8,3.3
			c0.1,1-0.1,2-0.8,2.8c-0.6,0.8-1.5,1.3-2.5,1.5C1541.3,124.5,1541.2,124.5,1541,124.5z"/>
		<path class="st3" d="M1353-11.4c-1.9,0-3.5-1.4-3.8-3.3c-0.3-2.1,1.2-4,3.3-4.3c0.2,0,0.3,0,0.5,0c1.9,0,3.5,1.4,3.8,3.3
			c0.1,1-0.1,2-0.8,2.8c-0.6,0.8-1.5,1.3-2.5,1.5C1353.3-11.4,1353.2-11.4,1353-11.4z"/>
		<path class="st3" d="M1572,31.3c-1.9,0-3.5-1.4-3.8-3.3c-0.3-2.1,1.2-4,3.3-4.3c0.2,0,0.3,0,0.5,0c1.9,0,3.5,1.4,3.8,3.3
			c0.1,1-0.1,2-0.8,2.8c-0.6,0.8-1.5,1.3-2.5,1.5C1572.3,31.3,1572.2,31.3,1572,31.3z"/>
	</g>
</g>
<g id="Ebene_6">
</g>
</svg>
