<?xml version="1.0" encoding="utf-8"?>
<!-- Generator: Adobe Illustrator 21.1.0, SVG Export Plug-In . SVG Version: 6.00 Build 0)  -->
<svg version="1.1" id="Ebene_1" xmlns="http://www.w3.org/2000/svg" xmlns:xlink="http://www.w3.org/1999/xlink" x="0px" y="0px"
	 viewBox="0 0 64 64" style="enable-background:new 0 0 64 64;" xml:space="preserve">
<style type="text/css">
	.st0{fill:#FFFFFF;}
</style>
<g id="xVoXSp.tif_1_">
	<g>
		<path class="st0" d="M36.9,61.1c-4,0-8,0-12,0c0-0.3-0.1-0.6-0.1-0.8c0-9.1,0-18.2,0-27.4c0-0.3,0-0.6,0-0.9c-0.8,0-1.4,0-2,0
			c-1.2,0-2.5,0-3.7-0.1c0-3.4,0-6.8,0-10.2c1.9,0,3.8,0,5.8,0c0-1.8,0-3.5,0-5.2c0.1-1.6,0.1-3.2,0.4-4.7c0.9-4.3,3.4-7.2,7.8-8.4
			c0.8-0.2,1.5-0.3,2.3-0.5c3.5,0,7.1,0,10.6,0c0,3.3,0,6.6,0,10c-0.3,0-0.6,0-0.8,0c-1.8,0-3.6,0-5.4,0c-1.8,0-2.8,0.9-2.8,2.8
			c0,1,0,2,0,2.9c0,1,0,2,0,3.1c3.1,0,6.1,0,9.1,0c0,0.3,0,0.5,0,0.7c-0.3,3-0.6,6-0.9,9c0,0.5-0.2,0.6-0.7,0.6c-2.2,0-4.5,0-6.7,0
			c-0.3,0-0.5,0-0.8,0c0,0.4,0,0.7,0,0.9C36.9,42.4,36.9,51.8,36.9,61.1z"/>
	</g>
</g>
</svg>
