<?xml version="1.0" encoding="utf-8"?>
<!-- Generator: Adobe Illustrator 19.0.0, SVG Export Plug-In . SVG Version: 6.00 Build 0)  -->
<svg version="1.1" id="Ebene_1" xmlns="http://www.w3.org/2000/svg" xmlns:xlink="http://www.w3.org/1999/xlink" x="0px" y="0px"
	 viewBox="-265 388.9 64 64" style="enable-background:new -265 388.9 64 64;" xml:space="preserve">
<style type="text/css">
	.st0{fill:#FFFFFF;}
</style>
<g>
	<path class="st0" d="M-232.9,398.8c7.2,0,8.1,0,11,0.2c2.6,0.1,4.1,0.6,5,0.9c1.3,0.5,2.2,1.1,3.1,2c0.9,0.9,1.5,1.9,2,3.1
		c0.4,1,0.8,2.4,0.9,5c0.1,2.9,0.2,3.7,0.2,11c0,7.2,0,8.1-0.2,11c-0.1,2.6-0.6,4.1-0.9,5c-0.5,1.3-1.1,2.2-2,3.1
		c-0.9,0.9-1.9,1.5-3.1,2c-1,0.4-2.4,0.8-5,0.9c-2.9,0.1-3.7,0.2-11,0.2c-7.2,0-8.1,0-11-0.2c-2.6-0.1-4.1-0.6-5-0.9
		c-1.3-0.5-2.2-1.1-3.1-2c-0.9-0.9-1.5-1.9-2-3.1c-0.4-1-0.8-2.4-0.9-5c-0.1-2.9-0.2-3.7-0.2-11c0-7.2,0-8.1,0.2-11
		c0.1-2.6,0.6-4.1,0.9-5c0.5-1.3,1.1-2.2,2-3.1c0.9-0.9,1.9-1.5,3.1-2c1-0.4,2.4-0.8,5-0.9C-241,398.8-240.1,398.8-232.9,398.8
		 M-232.9,393.9c-7.4,0-8.3,0-11.2,0.2c-2.9,0.1-4.9,0.6-6.6,1.3c-1.8,0.7-3.3,1.6-4.8,3.1c-1.5,1.5-2.4,3-3.1,4.8
		c-0.7,1.7-1.1,3.7-1.3,6.6c-0.1,2.9-0.2,3.8-0.2,11.2c0,7.4,0,8.3,0.2,11.2c0.1,2.9,0.6,4.9,1.3,6.6c0.7,1.8,1.6,3.3,3.1,4.8
		c1.5,1.5,3,2.4,4.8,3.1c1.7,0.7,3.7,1.1,6.6,1.3c2.9,0.1,3.8,0.2,11.2,0.2c7.4,0,8.3,0,11.2-0.2c2.9-0.1,4.9-0.6,6.6-1.3
		c1.8-0.7,3.3-1.6,4.8-3.1c1.5-1.5,2.4-3,3.1-4.8c0.7-1.7,1.1-3.7,1.3-6.6c0.1-2.9,0.2-3.8,0.2-11.2c0-7.4,0-8.3-0.2-11.2
		c-0.1-2.9-0.6-4.9-1.3-6.6c-0.7-1.8-1.6-3.3-3.1-4.8c-1.5-1.5-3-2.4-4.8-3.1c-1.7-0.7-3.7-1.1-6.6-1.3
		C-224.6,393.9-225.5,393.9-232.9,393.9"/>
	<path class="st0" d="M-232.9,407.1c-7.7,0-13.9,6.2-13.9,13.9c0,7.7,6.2,13.9,13.9,13.9c7.7,0,13.9-6.2,13.9-13.9
		C-218.9,413.3-225.2,407.1-232.9,407.1 M-232.9,430.1c-5,0-9-4.1-9-9c0-5,4.1-9,9-9c5,0,9,4.1,9,9
		C-223.8,426-227.9,430.1-232.9,430.1"/>
	<path class="st0" d="M-215.1,406.5c0,1.8-1.5,3.3-3.3,3.3c-1.8,0-3.3-1.5-3.3-3.3c0-1.8,1.5-3.3,3.3-3.3
		C-216.6,403.3-215.1,404.7-215.1,406.5"/>
</g>
</svg>
