<?xml version="1.0" encoding="utf-8"?>
<!-- Generator: Adobe Illustrator 21.1.0, SVG Export Plug-In . SVG Version: 6.00 Build 0)  -->
<svg version="1.1" id="Ebene_1" xmlns="http://www.w3.org/2000/svg" xmlns:xlink="http://www.w3.org/1999/xlink" x="0px" y="0px"
	 viewBox="0 0 270 430" style="enable-background:new 0 0 270 430;" xml:space="preserve">
<style type="text/css">
	.st0{fill:#3EAD54;}
	.st1{fill:none;stroke:#3EAD54;stroke-width:10;stroke-miterlimit:10;stroke-dasharray:1.9947,1.9947,1.9947,1.9947,1.9947,1.9947;}
	.st2{fill:none;stroke:#3EAD54;stroke-width:2;stroke-miterlimit:10;}
	.st3{fill:#FFFFFF;}
</style>
<path class="st0" d="M126.1,426.7c0-4.4,3.6-8,8-8c4.4,0,8,3.6,8,8S126.1,431.1,126.1,426.7z"/>
<g>
	<g>
		<path class="st0" d="M135.3,30.6C77,30.6,29.6,78,29.6,136.2S77,241.9,135.3,241.9c58.3,0,105.7-47.4,105.7-105.7
			S193.5,30.6,135.3,30.6z"/>
		<path class="st0" d="M135.3,1.2c-74.6,0-135,60.4-135,135s60.4,135,135,135s135-60.4,135-135S209.8,1.2,135.3,1.2z M135.3,256.1
			c-66.1,0-119.8-53.8-119.8-119.8S69.2,16.4,135.3,16.4c66.1,0,119.8,53.8,119.8,119.8S201.4,256.1,135.3,256.1z"/>
	</g>
</g>
<g>
	<g>
		<circle class="st1" cx="135.3" cy="136.2" r="120"/>
	</g>
</g>
<g>
	<line class="st2" x1="134.3" y1="260.6" x2="134.3" y2="428.1"/>
</g>
<g>
	<path class="st3" d="M97.5,188.3c-8,0-14.5-6.5-14.5-14.5v-10c0-1.6,1.3-2.8,2.8-2.8l0,0c1.6,0,2.8,1.3,2.8,2.8v10
		c0,4.9,4,8.8,8.8,8.8h75c4.9,0,8.8-4,8.8-8.8v-18.8h-8.8l11.5-15.3l11.6,15.3h-8.6v18.8c0,8-6.5,14.5-14.5,14.5H97.5z"/>
	<path class="st3" d="M74.3,115.9H83V97.1c0-8,6.5-14.5,14.5-14.5h75c8,0,14.5,6.5,14.5,14.5v10c0,1.6-1.3,2.8-2.8,2.8h0
		c-1.6,0-2.8-1.3-2.8-2.8v-10c0-4.9-4-8.8-8.8-8.8h-75c-4.9,0-8.8,4-8.8,8.8v18.8h8.8l-11.5,15.3L74.3,115.9z"/>
	<g>
		<path class="st3" d="M149.9,132.1h-30.3c-3.7,0-6.7,3-6.7,6.7v18.9c0,3.7,3,6.7,6.7,6.7h30.3c3.7,0,6.7-3,6.7-6.7v-18.9
			C156.6,135.1,153.6,132.1,149.9,132.1z M138.7,148.8c-0.4,0.4-0.6,0.7-0.5,1.3c0,1.1,0,2.3,0,3.4c0,1.8-1.4,3.2-3.2,3.2
			c-1.8,0-3.1-1.4-3.2-3.2c0-0.6,0-1.2,0-1.8c0-0.2,0-0.3,0-0.5c0.1-1.1-0.1-2-1-3c-1.9-2.1-1.5-5.4,0.7-7.3
			c2.2-1.9,5.4-1.6,7.4,0.5C140.8,143.6,140.7,146.8,138.7,148.8z"/>
		<path class="st3" d="M121.7,137.3c-1.5,0-2.8-1.2-2.8-2.8v-16.5c0-8.5,6.9-15.3,15.3-15.3c8.5,0,15.3,6.9,15.3,15.3v15.5
			c0,1.5-1.2,2.8-2.8,2.8s-2.8-1.2-2.8-2.8v-15.5c0-5.4-4.4-9.8-9.8-9.8c-5.4,0-9.8,4.4-9.8,9.8v16.5
			C124.5,136.1,123.3,137.3,121.7,137.3z"/>
	</g>
</g>
</svg>
