<?xml version="1.0" encoding="utf-8"?>
<!-- Generator: Adobe Illustrator 21.1.0, SVG Export Plug-In . SVG Version: 6.00 Build 0)  -->
<svg version="1.1" id="Ebene_1" xmlns="http://www.w3.org/2000/svg" xmlns:xlink="http://www.w3.org/1999/xlink" x="0px" y="0px"
	 viewBox="0 0 64 64" style="enable-background:new 0 0 64 64;" xml:space="preserve">
<style type="text/css">
	.st0{fill:#FFFFFF;}
</style>
<path class="st0" d="M32.4,0.6C14.8,0.6,0.6,14.8,0.6,32.3s14.2,31.7,31.7,31.7s31.7-14.2,31.7-31.7S49.9,0.6,32.4,0.6z M45.1,23.4
	C45,23.6,45,24,44.8,24.5c-2.6,7.4-5.2,14.8-7.8,22.2c-0.4,1-0.8,1.8-2,2c-1.2,0.2-1.9-0.6-2.3-1.5c-1.3-2.5-2.6-5.1-3.8-7.6
	c-0.5-1.1-1.2-1.8-2.3-2.3c-2.2-1-4.3-2.1-6.4-3.2c-0.3-0.2-0.7-0.3-1-0.5c-0.9-0.6-1.6-1.3-1.5-2.5c0.1-1.2,1-1.7,2.1-2
	c7.2-2.5,14.5-5.1,21.7-7.6c0.4-0.1,0.8-0.3,1.2-0.3C44.1,20.7,45.2,21.7,45.1,23.4z"/>
</svg>
