<?xml version="1.0" encoding="utf-8"?>
<!-- Generator: Adobe Illustrator 21.1.0, SVG Export Plug-In . SVG Version: 6.00 Build 0)  -->
<svg version="1.1" id="Ebene_1" xmlns="http://www.w3.org/2000/svg" xmlns:xlink="http://www.w3.org/1999/xlink" x="0px" y="0px"
	 viewBox="0 0 1600 1452.2" style="enable-background:new 0 0 1600 1452.2;" xml:space="preserve">
<style type="text/css">
	.st0{fill:none;stroke:#1F1F2E;stroke-width:2;stroke-linecap:round;stroke-miterlimit:10;}
	.st1{fill:#FFFFFF;}
	.st2{fill:#FFFFFF;stroke:#1F1F2E;stroke-width:2;stroke-linecap:round;stroke-miterlimit:10;}
	.st3{fill:#1F1F2E;}
	.st4{fill:none;stroke:#FFFFFF;stroke-width:4;stroke-linecap:round;stroke-miterlimit:10;}
</style>
<g>
	<path class="st0" d="M177.5,248.9l-0.3-66.1c0-3.1,2.5-5.7,5.7-5.7H279c3.1,0,5.6,2.5,5.7,5.6l0.3,66.1"/>
	<path class="st0" d="M285.3,248H296c0.7,0,1.2,0.5,1.2,1.2v3.6c0,5.3-4.3,9.6-9.6,9.6H174.4c-5.3,0-9.6-4.3-9.6-9.6v-3.6
		c0-0.7,0.5-1.2,1.2-1.2h11.1"/>
	<g>
		<polyline class="st0" points="198.4,248 218.5,248 222.6,252 233.4,252 		"/>
		<polyline class="st0" points="263.7,248 243.5,248 239.5,252 228.6,252 		"/>
	</g>
	<g id="mmILlp.tif_26_">
		<g>
			<path class="st1" d="M232,187.7c0.1,0,0.3,0,0.4,0c0.1,0,0.1,0.1,0.2,0.1c1.5,0.2,3,0.5,4.5,0.7c0.4,0.1,0.4,0.2,0.4,0.5
				c0,1.6,0,3.2,0,4.9c0,0.4,0.1,0.5,0.5,0.5c2.1,0.3,4,0.8,5.8,2c4.2,2.8,5.2,8.2,2.3,12.2c-1.3,1.8-3,2.9-5.1,3.7
				c-0.2,0.1-0.3,0.1-0.6,0.2c0.7,0.2,1.4,0.4,2,0.6c3.2,1.1,5.4,3.1,6.3,6.3c0.2,0.6,0.3,1.2,0.4,1.8c0,0.6,0,1.2,0,1.7
				c0,0.1-0.1,0.1-0.1,0.2c-0.3,2.6-1.5,4.6-3.4,6.3c-2.2,2-4.8,2.9-7.6,3.2c-0.5,0.1-0.6,0.2-0.6,0.7c0,2,0,4.1,0,6.1
				c-0.1,0-0.3,0-0.4,0c-0.7-0.1-1.4-0.3-2.1-0.4c-1-0.2-2-0.3-3-0.5c0-1.9,0-3.7,0-5.4c-1.2,0-2.3,0-3.4,0c0,2.1,0,4.3,0,6.4
				c-0.1,0-0.3,0-0.4,0l-0.1-0.1c-1.5-0.3-3-0.6-4.5-0.8c-0.4-0.1-0.5-0.2-0.5-0.6c0-1.4,0-2.9,0-4.3c0-0.2,0-0.4,0-0.6
				c-3.9,0-7.8,0-11.6,0c0-1.8,0-3.7,0-5.5c1,0,2,0,3-0.1s1.5-0.7,1.5-1.6c0-0.7,0.1-1.4,0.1-2.1c0-6.8,0-13.6,0-20.4
				c0-0.7,0-1.5-0.1-2.2c0-0.9-0.6-1.5-1.5-1.6c-1-0.1-2.1-0.1-3.1-0.1c0-1.8,0-3.7,0-5.5c3.9,0,7.7,0,11.6,0c0-0.3,0-0.5,0-0.7
				c0-1.9,0-3.8,0-5.7c0.2,0,0.3,0,0.5,0c0.1,0,0.1,0.1,0.2,0.1c1.4,0.2,2.9,0.4,4.3,0.5c0.4,0,0.5,0.2,0.5,0.5c0,1.6,0,3.1,0,4.7
				c0,0.2,0,0.4,0,0.5c1.2,0,2.3,0,3.5,0C232,191.9,232,189.8,232,187.7z M225.8,215.8c0,3.4,0,6.8,0,10.2c0,0.5,0.3,0.8,0.9,0.9
				c2.4,0.2,4.8,0.2,7.2-0.1c3.3-0.5,5.2-2.8,5-6.1c-0.1-2.2-1.4-3.8-3.6-4.4c-1-0.3-2.1-0.4-3.2-0.5
				C230,215.7,227.9,215.8,225.8,215.8z M225.7,210c2.5-0.1,4.9-0.1,7.4-0.2c1.1-0.1,2.3-0.4,3.2-1.1c1.5-1.1,2-2.5,1.8-4.3
				s-1.3-3-3-3.5c-0.6-0.2-1.2-0.3-1.8-0.3c-2.4-0.1-4.8-0.1-7.2-0.1c-0.1,0-0.3,0-0.4,0C225.7,203.7,225.7,206.8,225.7,210z"/>
		</g>
	</g>
	<path class="st0" d="M867.3,660.9l-0.2-44.9c0-2.1,1.7-3.9,3.8-3.9h65.3c2.1,0,3.8,1.7,3.8,3.8l0.2,45"/>
	<path class="st0" d="M940.6,661h7.3c0.4,0,0.8,0.4,0.8,0.8v2.5c0,3.6-2.9,6.5-6.5,6.5h-77c-3.6,0-6.5-2.9-6.5-6.5v-2.5
		c0-0.4,0.4-0.8,0.8-0.8h7.5"/>
	<g>
		<polyline class="st0" points="881.5,661 895.2,661 898,663.7 905.3,663.7 		"/>
		<polyline class="st0" points="925.9,661 912.2,661 909.5,663.7 902.1,663.7 		"/>
	</g>
	<g id="mmILlp.tif_25_">
		<g>
			<path class="st1" d="M904.2,621.5c0.1,0,0.2,0,0.2,0h0.1c0.9,0.1,1.7,0.3,2.6,0.4c0.2,0,0.3,0.1,0.3,0.3c0,0.9,0,1.9,0,2.8
				c0,0.2,0.1,0.3,0.3,0.3c1.2,0.1,2.3,0.5,3.4,1.2c2.4,1.6,3,4.8,1.4,7.1c-0.7,1-1.8,1.7-3,2.2c-0.1,0-0.2,0.1-0.3,0.1
				c0.4,0.1,0.8,0.2,1.2,0.4c1.8,0.6,3.1,1.8,3.7,3.7c0.1,0.3,0.1,0.7,0.2,1c0,0.3,0,0.7,0,1c0,0,0,0.1-0.1,0.1
				c-0.2,1.5-0.9,2.7-2,3.7c-1.3,1.1-2.8,1.7-4.4,1.9c-0.3,0-0.3,0.1-0.3,0.4c0,1.2,0,2.4,0,3.6c-0.1,0-0.2,0-0.2,0
				c-0.4-0.1-0.8-0.2-1.2-0.2c-0.6-0.1-1.2-0.2-1.8-0.3c0-1.1,0-2.1,0-3.2c-0.7,0-1.3,0-2,0c0,1.3,0,2.5,0,3.7c-0.1,0-0.2,0-0.2,0
				s0,0-0.1,0c-0.9-0.2-1.7-0.3-2.6-0.5c-0.2,0-0.3-0.1-0.3-0.4c0-0.8,0-1.7,0-2.5c0-0.1,0-0.2,0-0.3c-2.3,0-4.5,0-6.8,0
				c0-1.1,0-2.1,0-3.2c0.6,0,1.2,0,1.8-0.1s0.9-0.4,0.9-0.9c0-0.4,0-0.8,0-1.2c0-4,0-7.9,0-11.9c0-0.4,0-0.9,0-1.3
				c0-0.5-0.3-0.9-0.9-0.9c-0.6-0.1-1.2,0-1.8-0.1c0-1.1,0-2.1,0-3.2c2.3,0,4.5,0,6.8,0c0-0.2,0-0.3,0-0.4c0-1.1,0-2.2,0-3.3
				c0.1,0,0.2,0,0.3,0h0.1c0.8,0.1,1.7,0.2,2.5,0.3c0.2,0,0.3,0.1,0.3,0.3c0,0.9,0,1.8,0,2.7c0,0.1,0,0.2,0,0.3c0.7,0,1.4,0,2,0
				C904.2,624,904.2,622.8,904.2,621.5z M900.6,637.9c0,2,0,4,0,6c0,0.3,0.2,0.5,0.5,0.5c1.4,0.1,2.8,0.1,4.2-0.1
				c1.9-0.3,3-1.7,2.9-3.5c-0.1-1.3-0.8-2.2-2.1-2.6c-0.6-0.2-1.2-0.2-1.9-0.3C903.1,637.9,901.8,637.9,900.6,637.9z M900.5,634.5
				c1.5,0,2.9-0.1,4.3-0.1c0.7,0,1.3-0.2,1.9-0.6c0.9-0.6,1.2-1.5,1.1-2.5c-0.1-1.1-0.7-1.7-1.7-2c-0.3-0.1-0.7-0.2-1.1-0.2
				c-1.4,0-2.8-0.1-4.2-0.1c-0.1,0-0.1,0-0.2,0C900.5,630.8,900.5,632.6,900.5,634.5z"/>
		</g>
	</g>
	<path class="st0" d="M1071.4,179.4l-0.3-84.9c0-4,3.2-7.3,7.3-7.3h123.4c4,0,7.2,3.2,7.3,7.2l0.3,84.9"/>
	<path class="st0" d="M1209.9,179.6h13.8c0.8,0,1.5,0.7,1.5,1.5v4.7c0,6.8-5.5,12.3-12.3,12.3h-145.4c-6.8,0-12.3-5.5-12.3-12.3
		v-4.7c0-0.8,0.7-1.5,1.5-1.5h14.3"/>
	<g>
		<polyline class="st0" points="1098.3,179.6 1124.2,179.6 1129.4,184.7 1143.3,184.7 		"/>
		<polyline class="st0" points="1182.2,179.6 1156.3,179.6 1151.1,184.7 1137.2,184.7 		"/>
	</g>
	<g id="mmILlp.tif_24_">
		<g>
			<path class="st1" d="M1141.5,102.2c0.2,0,0.3,0,0.5,0c0.1,0,0.2,0.1,0.2,0.1c1.9,0.3,3.8,0.6,5.8,0.9c0.5,0.1,0.6,0.2,0.6,0.7
				c0,2.1,0,4.2,0,6.3c0,0.5,0.2,0.6,0.6,0.7c2.7,0.3,5.2,1.1,7.4,2.6c5.3,3.6,6.7,10.5,3,15.7c-1.6,2.3-3.9,3.8-6.5,4.8
				c-0.2,0.1-0.4,0.2-0.7,0.3c1,0.3,1.8,0.5,2.6,0.8c4,1.4,6.9,3.9,8.1,8.1c0.2,0.7,0.3,1.5,0.5,2.3c0,0.7,0,1.5,0,2.2
				c0,0.1-0.1,0.2-0.1,0.3c-0.4,3.3-1.9,6-4.3,8.1c-2.8,2.5-6.1,3.7-9.8,4.2c-0.6,0.1-0.8,0.3-0.8,0.9c0,2.6,0,5.3,0,7.9
				c-0.2,0-0.3,0-0.5,0c-0.9-0.2-1.8-0.4-2.7-0.5c-1.3-0.2-2.5-0.4-3.9-0.7c0-2.4,0-4.7,0-7c-1.5,0-3,0-4.4,0c0,2.8,0,5.5,0,8.2
				c-0.2,0-0.3,0-0.5,0c-0.1,0-0.1-0.1-0.2-0.1c-1.9-0.4-3.8-0.7-5.7-1.1c-0.5-0.1-0.7-0.3-0.7-0.8c0-1.8,0-3.7,0-5.5
				c0-0.2,0-0.5,0-0.7c-5,0-10,0-14.9,0c0-2.3,0-4.7,0-7c1.3,0,2.6,0,3.9-0.1s1.9-0.8,2-2.1c0.1-0.9,0.1-1.8,0.1-2.7
				c0-8.7,0-17.5,0-26.2c0-1,0-1.9-0.1-2.9c-0.1-1.2-0.7-2-1.9-2.1c-1.3-0.1-2.6-0.1-4-0.1c0-2.3,0-4.7,0-7c5,0,9.9,0,14.9,0
				c0-0.4,0-0.6,0-0.9c0-2.4,0-4.9,0-7.3c0.2,0,0.4,0,0.7,0c0.1,0,0.1,0.1,0.2,0.1c1.8,0.2,3.7,0.5,5.5,0.7c0.5,0,0.6,0.2,0.6,0.7
				c0,2,0,4,0,6.1c0,0.2,0,0.5,0,0.7c1.5,0,3,0,4.4,0C1141.5,107.6,1141.5,104.9,1141.5,102.2z M1133.5,138.2c0,4.4,0,8.8,0,13.2
				c0,0.7,0.4,1.1,1.1,1.1c3.1,0.2,6.2,0.3,9.3-0.2c4.3-0.6,6.7-3.6,6.4-7.8c-0.2-2.9-1.7-4.9-4.6-5.7c-1.3-0.4-2.7-0.5-4.1-0.6
				C1138.9,138.2,1136.2,138.2,1133.5,138.2z M1133.4,130.8c3.2-0.1,6.4-0.1,9.5-0.3c1.5-0.1,2.9-0.5,4.1-1.4
				c1.9-1.4,2.6-3.3,2.3-5.5c-0.3-2.3-1.6-3.8-3.8-4.5c-0.8-0.2-1.6-0.4-2.4-0.4c-3.1-0.1-6.2-0.1-9.2-0.2c-0.2,0-0.3,0-0.5,0.1
				C1133.4,122.7,1133.4,126.7,1133.4,130.8z"/>
		</g>
	</g>
	<path class="st0" d="M1151.2,615.3l-0.3-66.1c0-3.1,2.5-5.7,5.7-5.7h96.1c3.1,0,5.6,2.5,5.7,5.6l0.3,66.1"/>
	<path class="st0" d="M1259.1,615.4h10.7c0.7,0,1.2,0.5,1.2,1.2v3.6c0,5.3-4.3,9.6-9.6,9.6h-113.3c-5.3,0-9.6-4.3-9.6-9.6v-3.6
		c0-0.7,0.5-1.2,1.2-1.2h11.1"/>
	<g>
		<polyline class="st0" points="1172.2,615.4 1192.3,615.4 1196.4,619.4 1207.2,619.4 		"/>
		<polyline class="st0" points="1237.5,615.4 1217.3,615.4 1213.3,619.4 1202.4,619.4 		"/>
	</g>
	<g id="mmILlp.tif_23_">
		<g>
			<path class="st1" d="M1205.8,555.1c0.1,0,0.3,0,0.4,0s0.1,0.1,0.2,0.1c1.5,0.2,3,0.5,4.5,0.7c0.4,0.1,0.4,0.2,0.4,0.5
				c0,1.6,0,3.2,0,4.9c0,0.4,0.1,0.5,0.5,0.5c2.1,0.3,4,0.8,5.8,2c4.2,2.8,5.2,8.2,2.3,12.2c-1.3,1.8-3,2.9-5.1,3.7
				c-0.2,0.1-0.3,0.1-0.6,0.2c0.7,0.2,1.4,0.4,2,0.6c3.2,1.1,5.4,3.1,6.3,6.3c0.2,0.6,0.3,1.2,0.4,1.8c0,0.6,0,1.2,0,1.7
				c0,0.1-0.1,0.1-0.1,0.2c-0.3,2.6-1.5,4.6-3.4,6.3c-2.2,2-4.8,2.9-7.6,3.2c-0.5,0.1-0.6,0.2-0.6,0.7c0,2,0,4.1,0,6.1
				c-0.1,0-0.3,0-0.4,0c-0.7-0.1-1.4-0.3-2.1-0.4c-1-0.2-2-0.3-3-0.5c0-1.9,0-3.7,0-5.4c-1.2,0-2.3,0-3.4,0c0,2.1,0,4.3,0,6.4
				c-0.1,0-0.3,0-0.4,0l-0.1-0.1c-1.5-0.3-3-0.6-4.5-0.8c-0.4-0.1-0.5-0.2-0.5-0.6c0-1.4,0-2.9,0-4.3c0-0.2,0-0.4,0-0.6
				c-3.9,0-7.8,0-11.6,0c0-1.8,0-3.7,0-5.5c1,0,2,0,3-0.1s1.5-0.7,1.5-1.6c0-0.7,0.1-1.4,0.1-2.1c0-6.8,0-13.6,0-20.4
				c0-0.7,0-1.5-0.1-2.2c0-0.9-0.6-1.5-1.5-1.6c-1-0.1-2.1-0.1-3.1-0.1c0-1.8,0-3.7,0-5.5c3.9,0,7.7,0,11.6,0c0-0.3,0-0.5,0-0.7
				c0-1.9,0-3.8,0-5.7c0.2,0,0.3,0,0.5,0c0.1,0,0.1,0.1,0.2,0.1c1.4,0.2,2.9,0.4,4.3,0.5c0.4,0,0.5,0.2,0.5,0.5c0,1.6,0,3.1,0,4.7
				c0,0.2,0,0.4,0,0.5c1.2,0,2.3,0,3.5,0C1205.8,559.3,1205.8,557.2,1205.8,555.1z M1199.6,583.2c0,3.4,0,6.8,0,10.2
				c0,0.5,0.3,0.8,0.9,0.9c2.4,0.2,4.8,0.2,7.2-0.1c3.3-0.5,5.2-2.8,5-6.1c-0.1-2.2-1.4-3.8-3.6-4.4c-1-0.3-2.1-0.4-3.2-0.5
				C1203.8,583.1,1201.7,583.2,1199.6,583.2z M1199.5,577.4c2.5-0.1,4.9-0.1,7.4-0.2c1.1-0.1,2.3-0.4,3.2-1.1c1.5-1.1,2-2.5,1.8-4.3
				s-1.3-3-3-3.5c-0.6-0.2-1.2-0.3-1.8-0.3c-2.4-0.1-4.8-0.1-7.2-0.1c-0.1,0-0.3,0-0.4,0C1199.5,571.1,1199.5,574.2,1199.5,577.4z"
				/>
		</g>
	</g>
	<path class="st0" d="M1352.6,253.4l-0.2-44.9c0-2.1,1.7-3.9,3.8-3.9h65.3c2.1,0,3.8,1.7,3.8,3.8l0.2,45"/>
	<path class="st0" d="M1426,253.4h7.3c0.4,0,0.8,0.4,0.8,0.8v2.5c0,3.6-2.9,6.5-6.5,6.5h-77c-3.6,0-6.5-2.9-6.5-6.5v-2.5
		c0-0.4,0.4-0.8,0.8-0.8h7.5"/>
	<g>
		<polyline class="st0" points="1366.9,253.4 1380.6,253.4 1383.3,256.2 1390.7,256.2 		"/>
		<polyline class="st0" points="1411.3,253.4 1397.6,253.4 1394.8,256.2 1387.4,256.2 		"/>
	</g>
	<g id="mmILlp.tif_22_">
		<g>
			<path class="st1" d="M1389.6,214c0.1,0,0.2,0,0.2,0h0.1c0.9,0.1,1.7,0.3,2.6,0.4c0.2,0,0.3,0.1,0.3,0.3c0,0.9,0,1.9,0,2.8
				c0,0.2,0.1,0.3,0.3,0.3c1.2,0.1,2.3,0.5,3.4,1.2c2.4,1.6,3,4.8,1.4,7.1c-0.7,1-1.8,1.7-3,2.2c-0.1,0-0.2,0.1-0.3,0.1
				c0.4,0.1,0.8,0.2,1.2,0.4c1.8,0.6,3.1,1.8,3.7,3.7c0.1,0.3,0.1,0.7,0.2,1c0,0.3,0,0.7,0,1c0,0,0,0.1-0.1,0.1
				c-0.2,1.5-0.9,2.7-2,3.7c-1.3,1.1-2.8,1.7-4.4,1.9c-0.3,0-0.3,0.1-0.3,0.4c0,1.2,0,2.4,0,3.6c-0.1,0-0.2,0-0.2,0
				c-0.4-0.1-0.8-0.2-1.2-0.2c-0.6-0.1-1.2-0.2-1.8-0.3c0-1.1,0-2.1,0-3.2c-0.7,0-1.3,0-2,0c0,1.3,0,2.5,0,3.7c-0.1,0-0.2,0-0.2,0
				s0,0-0.1,0c-0.9-0.2-1.7-0.3-2.6-0.5c-0.2,0-0.3-0.1-0.3-0.4c0-0.8,0-1.7,0-2.5c0-0.1,0-0.2,0-0.3c-2.3,0-4.5,0-6.8,0
				c0-1.1,0-2.1,0-3.2c0.6,0,1.2,0,1.8-0.1c0.6-0.1,0.9-0.4,0.9-0.9c0-0.4,0-0.8,0-1.2c0-4,0-7.9,0-11.9c0-0.4,0-0.9,0-1.3
				c0-0.5-0.3-0.9-0.9-0.9c-0.6-0.1-1.2,0-1.8-0.1c0-1.1,0-2.1,0-3.2c2.3,0,4.5,0,6.8,0c0-0.2,0-0.3,0-0.4c0-1.1,0-2.2,0-3.3
				c0.1,0,0.2,0,0.3,0h0.1c0.8,0.1,1.7,0.2,2.5,0.3c0.2,0,0.3,0.1,0.3,0.3c0,0.9,0,1.8,0,2.7c0,0.1,0,0.2,0,0.3c0.7,0,1.4,0,2,0
				C1389.6,216.5,1389.6,215.2,1389.6,214z M1385.9,230.4c0,2,0,4,0,6c0,0.3,0.2,0.5,0.5,0.5c1.4,0.1,2.8,0.1,4.2-0.1
				c1.9-0.3,3-1.7,2.9-3.5c-0.1-1.3-0.8-2.2-2.1-2.6c-0.6-0.2-1.2-0.2-1.9-0.3C1388.4,230.3,1387.2,230.4,1385.9,230.4z M1385.9,227
				c1.5,0,2.9-0.1,4.3-0.1c0.7,0,1.3-0.2,1.9-0.6c0.9-0.6,1.2-1.5,1.1-2.5c-0.1-1.1-0.7-1.7-1.7-2c-0.3-0.1-0.7-0.2-1.1-0.2
				c-1.4,0-2.8-0.1-4.2-0.1c-0.1,0-0.1,0-0.2,0C1385.9,223.3,1385.9,225.1,1385.9,227z"/>
		</g>
	</g>
	<path class="st0" d="M343.8,571.7l-0.3-84.9c0-4,3.2-7.3,7.3-7.3h123.4c4,0,7.2,3.2,7.3,7.2l0.3,84.9"/>
	<path class="st0" d="M482.3,571.8H496c0.8,0,1.5,0.7,1.5,1.5v4.7c0,6.8-5.5,12.3-12.3,12.3H339.8c-6.8,0-12.3-5.5-12.3-12.3v-4.7
		c0-0.8,0.7-1.5,1.5-1.5h14.3"/>
	<g>
		<polyline class="st0" points="370.6,571.8 396.5,571.8 401.7,577 415.6,577 		"/>
		<polyline class="st0" points="454.5,571.8 428.6,571.8 423.4,577 409.5,577 		"/>
	</g>
	<g id="mmILlp.tif_21_">
		<g>
			<path class="st1" d="M413.8,494.5c0.2,0,0.3,0,0.5,0c0.1,0,0.2,0.1,0.2,0.1c1.9,0.3,3.8,0.6,5.8,0.9c0.5,0.1,0.6,0.2,0.6,0.7
				c0,2.1,0,4.2,0,6.3c0,0.5,0.2,0.6,0.6,0.7c2.7,0.3,5.2,1.1,7.4,2.6c5.3,3.6,6.7,10.5,3,15.7c-1.6,2.3-3.9,3.8-6.5,4.8
				c-0.2,0.1-0.4,0.2-0.7,0.3c1,0.3,1.8,0.5,2.6,0.8c4,1.4,6.9,3.9,8.1,8.1c0.2,0.7,0.3,1.5,0.5,2.3c0,0.7,0,1.5,0,2.2
				c0,0.1-0.1,0.2-0.1,0.3c-0.4,3.3-1.9,6-4.3,8.1c-2.8,2.5-6.1,3.7-9.8,4.2c-0.6,0.1-0.8,0.3-0.8,0.9c0,2.6,0,5.3,0,7.9
				c-0.2,0-0.3,0-0.5,0c-0.9-0.2-1.8-0.4-2.7-0.5c-1.3-0.2-2.5-0.4-3.9-0.7c0-2.4,0-4.7,0-7c-1.5,0-3,0-4.4,0c0,2.8,0,5.5,0,8.2
				c-0.2,0-0.3,0-0.5,0c-0.1,0-0.1-0.1-0.2-0.1c-1.9-0.4-3.8-0.7-5.7-1.1c-0.5-0.1-0.7-0.3-0.7-0.8c0-1.8,0-3.7,0-5.5
				c0-0.2,0-0.5,0-0.7c-5,0-10,0-14.9,0c0-2.3,0-4.7,0-7c1.3,0,2.6,0,3.9-0.1s1.9-0.8,2-2.1c0.1-0.9,0.1-1.8,0.1-2.7
				c0-8.7,0-17.5,0-26.2c0-1,0-1.9-0.1-2.9c-0.1-1.2-0.7-2-1.9-2.1c-1.3-0.1-2.6-0.1-4-0.1c0-2.3,0-4.7,0-7c5,0,9.9,0,14.9,0
				c0-0.4,0-0.6,0-0.9c0-2.4,0-4.9,0-7.3c0.2,0,0.4,0,0.7,0c0.1,0,0.1,0.1,0.2,0.1c1.8,0.2,3.7,0.5,5.5,0.7c0.5,0,0.6,0.2,0.6,0.7
				c0,2,0,4,0,6.1c0,0.2,0,0.5,0,0.7c1.5,0,3,0,4.4,0C413.8,499.9,413.8,497.2,413.8,494.5z M405.8,530.5c0,4.4,0,8.8,0,13.2
				c0,0.7,0.4,1.1,1.1,1.1c3.1,0.2,6.2,0.3,9.3-0.2c4.3-0.6,6.7-3.6,6.4-7.8c-0.2-2.9-1.7-4.9-4.6-5.7c-1.3-0.4-2.7-0.5-4.1-0.6
				C411.3,530.4,408.5,530.5,405.8,530.5z M405.7,523.1c3.2-0.1,6.4-0.1,9.5-0.3c1.5-0.1,2.9-0.5,4.1-1.4c1.9-1.4,2.6-3.3,2.3-5.5
				c-0.3-2.3-1.6-3.8-3.8-4.5c-0.8-0.2-1.6-0.4-2.4-0.4c-3.1-0.1-6.2-0.1-9.2-0.2c-0.2,0-0.3,0-0.5,0.1
				C405.7,515,405.7,518.9,405.7,523.1z"/>
		</g>
	</g>
	<path class="st0" d="M403.7,174.5l-0.2-44.9c0-2.1,1.7-3.9,3.8-3.9h65.3c2.1,0,3.8,1.7,3.8,3.8l0.2,45"/>
	<path class="st0" d="M477,174.5h7.3c0.4,0,0.8,0.4,0.8,0.8v2.5c0,3.6-2.9,6.5-6.5,6.5h-77c-3.6,0-6.5-2.9-6.5-6.5v-2.5
		c0-0.4,0.4-0.8,0.8-0.8h7.5"/>
	<g>
		<polyline class="st0" points="417.9,174.5 431.7,174.5 434.4,177.3 441.8,177.3 		"/>
		<polyline class="st0" points="462.3,174.5 448.6,174.5 445.9,177.3 438.5,177.3 		"/>
	</g>
	<g id="mmILlp.tif_20_">
		<g>
			<path class="st1" d="M440.6,135.1c0.1,0,0.2,0,0.2,0h0.1c0.9,0.1,1.7,0.3,2.6,0.4c0.2,0,0.3,0.1,0.3,0.3c0,0.9,0,1.9,0,2.8
				c0,0.2,0.1,0.3,0.3,0.3c1.2,0.1,2.3,0.5,3.4,1.2c2.4,1.6,3,4.8,1.4,7.1c-0.7,1-1.8,1.7-3,2.2c-0.1,0-0.2,0.1-0.3,0.1
				c0.4,0.1,0.8,0.2,1.2,0.4c1.8,0.6,3.1,1.8,3.7,3.7c0.1,0.3,0.1,0.7,0.2,1c0,0.3,0,0.7,0,1c0,0,0,0.1-0.1,0.1
				c-0.2,1.5-0.9,2.7-2,3.7c-1.3,1.1-2.8,1.7-4.4,1.9c-0.3,0-0.3,0.1-0.3,0.4c0,1.2,0,2.4,0,3.6c-0.1,0-0.2,0-0.2,0
				c-0.4-0.1-0.8-0.2-1.2-0.2c-0.6-0.1-1.2-0.2-1.8-0.3c0-1.1,0-2.1,0-3.2c-0.7,0-1.3,0-2,0c0,1.3,0,2.5,0,3.7c-0.1,0-0.2,0-0.2,0
				s0,0-0.1,0c-0.9-0.2-1.7-0.3-2.6-0.5c-0.2,0-0.3-0.1-0.3-0.4c0-0.8,0-1.7,0-2.5c0-0.1,0-0.2,0-0.3c-2.3,0-4.5,0-6.8,0
				c0-1.1,0-2.1,0-3.2c0.6,0,1.2,0,1.8-0.1c0.6-0.1,0.9-0.4,0.9-0.9c0-0.4,0-0.8,0-1.2c0-4,0-7.9,0-11.9c0-0.4,0-0.9,0-1.3
				c0-0.5-0.3-0.9-0.9-0.9c-0.6-0.1-1.2,0-1.8-0.1c0-1.1,0-2.1,0-3.2c2.3,0,4.5,0,6.8,0c0-0.2,0-0.3,0-0.4c0-1.1,0-2.2,0-3.3
				c0.1,0,0.2,0,0.3,0h0.1c0.8,0.1,1.7,0.2,2.5,0.3c0.2,0,0.3,0.1,0.3,0.3c0,0.9,0,1.8,0,2.7c0,0.1,0,0.2,0,0.3c0.7,0,1.4,0,2,0
				C440.6,137.6,440.6,136.3,440.6,135.1z M437,151.4c0,2,0,4,0,6c0,0.3,0.2,0.5,0.5,0.5c1.4,0.1,2.8,0.1,4.2-0.1
				c1.9-0.3,3-1.7,2.9-3.5c-0.1-1.3-0.8-2.2-2.1-2.6c-0.6-0.2-1.2-0.2-1.9-0.3C439.5,151.4,438.2,151.4,437,151.4z M437,148.1
				c1.5,0,2.9-0.1,4.3-0.1c0.7,0,1.3-0.2,1.9-0.6c0.9-0.6,1.2-1.5,1.1-2.5c-0.1-1.1-0.7-1.7-1.7-2c-0.3-0.1-0.7-0.2-1.1-0.2
				c-1.4,0-2.8-0.1-4.2-0.1c-0.1,0-0.1,0-0.2,0C437,144.4,437,146.2,437,148.1z"/>
		</g>
	</g>
	<path class="st0" d="M230.1,264.1v32c0,3.7,1.5,7.3,4.1,9.9l18,18c2.6,2.6,6.2,4.1,9.9,4.1h417.5"/>
	<path class="st0" d="M782.7,392.7v106.5c0,3.7-1.5,7.3-4.1,9.9l-18,18c-2.6,2.6-6.2,4.1-9.9,4.1H481.6"/>
	<path class="st0" d="M1150.9,582.9h-34c-3.7,0-7.3-1.5-9.9-4.1l-18-18c-2.6-2.6-4.1-6.2-4.1-9.9V380.4c0-3.7-1.5-7.3-4.1-9.9
		l-17-17c-2.6-2.6-6.2-4.1-9.9-4.1h-137"/>
	<path class="st0" d="M439.2,185.7v88.5c0,3.7,1.5,7.3,4.1,9.9l18,18c2.6,2.6,6.2,4.1,9.9,4.1h208.6"/>
	<path class="st0" d="M1139.7,198.7v75.5c0,3.7-1.5,7.3-4.1,9.9l-18,18c-2.6,2.6-6.2,4.1-9.9,4.1H916.2"/>
	<path class="st0" d="M1389.7,263.7v32.5c0,3.7-1.5,7.3-4.1,9.9l-18,18c-2.6,2.6-6.2,4.1-9.9,4.1H916.2"/>
	<path class="st0" d="M867.2,639.7h-29.5c-3.7,0-7.3-1.5-9.9-4.1l-18-18c-2.6-2.6-4.1-6.2-4.1-9.9V393.2"/>
	<g>
		<path class="st2" d="M314.9,349.8l-16.6,16.6c-1.8,1.8-1.8,4.8,0,6.6l0,0c1.8,1.8,4.8,1.8,6.6,0l16.6-16.6
			C318.8,354.7,316.6,352.4,314.9,349.8z"/>
		<circle class="st3" cx="347.1" cy="331.1" r="36"/>
		<circle class="st2" cx="343.1" cy="328.1" r="36"/>
		<path class="st2" d="M275,397.4l-1.2-1.2c-2.7-2.7-2.7-7.2,0-9.9l29.4-29.4c1.7-1.7,4.4-1.7,6.1,0l5,5c1.7,1.7,1.7,4.4,0,6.1
			l-29.4,29.4C282.2,400.1,277.7,400.1,275,397.4z"/>
	</g>
	<line class="st0" x1="284.1" y1="397.7" x2="283.1" y2="876.1"/>
	<g>
		<path class="st2" d="M565.8,552l-16.6,16.6c-1.8,1.8-1.8,4.8,0,6.6l0,0c1.8,1.8,4.8,1.8,6.6,0l16.6-16.6
			C569.7,557,567.4,554.7,565.8,552z"/>
		<circle class="st3" cx="598" cy="533.4" r="36"/>
		<circle class="st2" cx="594" cy="530.4" r="36"/>
		<path class="st2" d="M525.9,599.6l-1.2-1.2c-2.7-2.7-2.7-7.2,0-9.9l29.4-29.4c1.7-1.7,4.4-1.7,6.1,0l5,5c1.7,1.7,1.7,4.4,0,6.1
			l-29.4,29.4C533,602.4,528.6,602.4,525.9,599.6z"/>
	</g>
	<line class="st0" x1="533.1" y1="601.7" x2="533.1" y2="876.1"/>
	<g>
		<path class="st2" d="M1214.9,349.7l-16.6,16.6c-1.8,1.8-1.8,4.8,0,6.6l0,0c1.8,1.8,4.8,1.8,6.6,0l16.6-16.6
			C1218.9,354.7,1216.6,352.4,1214.9,349.7z"/>
		<circle class="st3" cx="1247.2" cy="331.1" r="36"/>
		<circle class="st2" cx="1243.2" cy="328.1" r="36"/>
		<path class="st2" d="M1175,397.3l-1.2-1.2c-2.7-2.7-2.7-7.2,0-9.9l29.4-29.4c1.7-1.7,4.4-1.7,6.1,0l5,5c1.7,1.7,1.7,4.4,0,6.1
			l-29.4,29.4C1182.2,400.1,1177.8,400.1,1175,397.3z"/>
	</g>
	<path class="st0" d="M1184.7,397.7v27c0,3.7,1.5,7.3,4.1,9.9l18,18c2.6,2.6,6.2,4.1,9.9,4.1h98.6c3.7,0,7.3,1.5,9.9,4.1l18,18
		c2.6,2.6,4.1,6.2,4.1,9.9v212.1c0,3.7-1.5,7.3-4.1,9.9l-18,18c-2.6,2.6-6.2,4.1-9.9,4.1H615c-3.7,0-7.3,1.5-9.9,4.1l-18,18
		c-2.6,2.6-4.1,6.2-4.1,9.9v111.5"/>
	<path class="st0" d="M432.1,1147.1v137c0,3.7,1.5,7.3,4.1,9.9l18,18c2.6,2.6,6.2,4.1,9.9,4.1h238.1"/>
	<path class="st0" d="M1172.1,1147.1v137c0,3.7-1.5,7.3-4.1,9.9l-18,18c-2.6,2.6-6.2,4.1-9.9,4.1h-237"/>
</g>
<g>
	<g id="I8PXG6_2_">
		<g>
			<path class="st4" d="M814.8,1301.5v-4c0-6.3-5.1-11.4-11.4-11.4s-11.4,5.1-11.4,11.4v14.9"/>
		</g>
	</g>
	<path class="st1" d="M817.5,1310.1h-27.3c-3.3,0-6.1,2.7-6.1,6.1v17.1c0,3.3,2.7,6.1,6.1,6.1h27.3c3.3,0,6.1-2.7,6.1-6.1v-17.1
		C823.6,1312.9,820.8,1310.1,817.5,1310.1z M807.4,1325.3c-0.3,0.3-0.5,0.6-0.5,1.1c0,1,0,2.1,0,3.1c0,1.6-1.3,2.9-2.9,2.9
		c-1.6,0-2.8-1.3-2.9-2.9c0-0.5,0-1.1,0-1.6c0-0.1,0-0.3,0-0.4c0.1-1-0.1-1.8-0.9-2.7c-1.7-1.9-1.3-4.9,0.6-6.6
		c2-1.7,4.9-1.5,6.7,0.5C809.3,1320.6,809.2,1323.5,807.4,1325.3z"/>
</g>
</svg>
