<?xml version="1.0" encoding="utf-8"?>
<!-- Generator: Adobe Illustrator 19.2.0, SVG Export Plug-In . SVG Version: 6.00 Build 0)  -->
<svg version="1.1" id="Ebene_1" xmlns="http://www.w3.org/2000/svg" xmlns:xlink="http://www.w3.org/1999/xlink" x="0px" y="0px"
	 viewBox="0 0 147 147" style="enable-background:new 0 0 147 147;" xml:space="preserve">
<style type="text/css">
	.st0{fill:none;stroke:#1F1F2E;stroke-width:2;stroke-miterlimit:10;}
</style>
<path class="st0" d="M146,63.5L146,63.5c-17.9,0-26.8-21.6-14.2-34.3l0,0l-14.1-14.1l0,0C105.1,27.8,83.5,18.9,83.5,1v0H63.5v0
	c0,17.9-21.6,26.8-34.3,14.2l0,0L15.2,29.3l0,0C27.8,41.9,18.9,63.5,1,63.5h0v19.9h0c17.9,0,26.8,21.6,14.2,34.3l0,0l14.1,14.1l0,0
	c12.6-12.6,34.3-3.7,34.3,14.2v0h19.9v0c0-17.9,21.6-26.8,34.3-14.2l0,0l14.1-14.1l0,0c-12.6-12.6-3.7-34.3,14.2-34.3h0V63.5z"/>
<circle class="st0" cx="73.5" cy="73.5" r="44.7"/>
</svg>
