<?xml version="1.0" encoding="utf-8"?>
<!-- Generator: Adobe Illustrator 19.2.0, SVG Export Plug-In . SVG Version: 6.00 Build 0)  -->
<svg version="1.1" id="Ebene_1" xmlns="http://www.w3.org/2000/svg" xmlns:xlink="http://www.w3.org/1999/xlink" x="0px" y="0px"
	 viewBox="0 0 150 150" style="enable-background:new 0 0 150 150;" xml:space="preserve">
<style type="text/css">
	.st0{fill:#3EAD54;}
	.st1{fill:none;stroke:#3EAD54;stroke-width:6;stroke-miterlimit:10;stroke-dasharray:2.0234,2.0234,2.0234,2.0234,2.0234,2.0234;}
	.st2{fill:none;stroke:#FFFFFF;stroke-width:4;stroke-miterlimit:10;}
	.st3{fill:#FFFFFF;}
</style>
<path class="st0" d="M75,16.3c-32.4,0-58.7,26.3-58.7,58.7s26.3,58.7,58.7,58.7c32.4,0,58.7-26.3,58.7-58.7S107.4,16.3,75,16.3z"/>
<path class="st0" d="M75,0C33.6,0,0,33.6,0,75s33.6,75,75,75s75-33.6,75-75S116.4,0,75,0z M75,141.6c-36.7,0-66.6-29.9-66.6-66.6
	S38.3,8.4,75,8.4c36.7,0,66.6,29.9,66.6,66.6S111.7,141.6,75,141.6z"/>
<g>
	<g>
		<circle class="st1" cx="74.7" cy="75" r="65.7"/>
	</g>
</g>
<line class="st2" x1="54.3" y1="54" x2="74.3" y2="74.1"/>
<line class="st2" x1="91.5" y1="50.2" x2="74.3" y2="74.1"/>
<line class="st2" x1="55.4" y1="93.5" x2="74.3" y2="74.1"/>
<line class="st2" x1="86" y1="101.3" x2="74.8" y2="74.2"/>
<line class="st2" x1="97.5" y1="78.5" x2="73.6" y2="74.3"/>
<circle class="st3" cx="54.6" cy="54.3" r="5.5"/>
<circle class="st3" cx="91.5" cy="50.2" r="7.9"/>
<circle class="st3" cx="99.6" cy="78.9" r="5.5"/>
<circle class="st3" cx="85.5" cy="101.2" r="7.1"/>
<circle class="st3" cx="55.4" cy="94.6" r="7.9"/>
<circle class="st3" cx="74.3" cy="74.1" r="10.3"/>
</svg>
