<?xml version="1.0" encoding="utf-8"?>
<!-- Generator: Adobe Illustrator 21.1.0, SVG Export Plug-In . SVG Version: 6.00 Build 0)  -->
<svg version="1.1" id="Ebene_1" xmlns="http://www.w3.org/2000/svg" xmlns:xlink="http://www.w3.org/1999/xlink" x="0px" y="0px"
	 viewBox="0 0 64 64" style="enable-background:new 0 0 64 64;" xml:space="preserve">
<style type="text/css">
	.st0{fill:#3FAD54;}
</style>
<path class="st0" d="M57.9,8.3l-0.2-0.5c0,0,0,0,0,0l-0.5-0.2C53,5.7,47.2,5.2,42.1,5h-5.8c-0.1,0-0.1,0.1,0,0.1l11.9,5.7
	c0.1,0,0,0.1,0,0.1C42.7,9.6,37.3,8.9,32,8.9c-5.3,0-10.7,0.7-16,2.1c-0.1,0-0.1-0.1,0-0.1l12.3-5.7c0.1,0,0-0.1,0-0.1h-6.3
	C16.8,5.2,11,5.7,6.9,7.6L6.4,7.8c0,0,0,0,0,0L6.1,8.3C1.9,19,0.7,37.2,2,48.5l0.1,0.6l0.5,0.4c6.6,5.1,15.4,7.7,20.9,8.4l0.7,0.1
	c0.2,0,0.5-0.1,0.5-0.3l3.6-9.6c0.1-0.3-0.1-0.6-0.4-0.7l-1.1-0.2c-3.9-0.6-9.3-2.2-13.9-6.4c-0.1-0.1,0-0.3,0.1-0.2
	c0.4,0.1,0.8,0.3,1.2,0.5c1,0.4,2.1,0.8,2.8,1c5,1.2,10,1.8,14.9,1.8v-0.1h0l0,0.1c5,0,10-0.6,14.9-1.8c0.7-0.2,1.8-0.6,2.8-1
	c0.4-0.2,0.8-0.3,1.2-0.5c0.1,0,0.2,0.1,0.1,0.2C46.5,45,41,46.6,37.2,47.2l-1.1,0.2c-0.3,0-0.5,0.4-0.4,0.7l3.6,9.7
	c0.1,0.2,0.3,0.4,0.5,0.3l0.7-0.1c5.5-0.7,14.3-3.3,20.9-8.4l0.5-0.4l0.1-0.6C63.3,37.2,62.1,19,57.9,8.3z M20.2,34.6
	c-4.5,0.4-8.2-3.3-7.8-7.8c0.3-3.4,3.1-6.2,6.5-6.5c4.5-0.4,8.2,3.3,7.8,7.8C26.4,31.5,23.7,34.3,20.2,34.6z M45.1,34.6
	c-4.5,0.4-8.2-3.3-7.8-7.8c0.3-3.4,3.1-6.2,6.5-6.5c4.5-0.4,8.2,3.3,7.8,7.8C51.3,31.5,48.5,34.3,45.1,34.6z"/>
</svg>
