<?xml version="1.0" encoding="utf-8"?>
<!-- Generator: Adobe Illustrator 21.1.0, SVG Export Plug-In . SVG Version: 6.00 Build 0)  -->
<svg version="1.1" id="Ebene_1" xmlns="http://www.w3.org/2000/svg" xmlns:xlink="http://www.w3.org/1999/xlink" x="0px" y="0px"
	 viewBox="0 0 270 430" style="enable-background:new 0 0 270 430;" xml:space="preserve">
<style type="text/css">
	.st0{fill:#3EAD54;}
	.st1{fill:#FFFFFF;}
	.st2{fill:none;stroke:#FFFFFF;stroke-width:6;stroke-linecap:round;stroke-miterlimit:10;}
	.st3{fill:none;stroke:#3EAD54;stroke-width:10;stroke-miterlimit:10;stroke-dasharray:1.9947,1.9947,1.9947,1.9947,1.9947,1.9947;}
	.st4{fill:none;stroke:#3EAD54;stroke-width:2;stroke-miterlimit:10;}
</style>
<path class="st0" d="M126.1,426.7c0-4.4,3.6-8,8-8c4.4,0,8,3.6,8,8S126.1,431.1,126.1,426.7z"/>
<g>
	<g>
		<path class="st0" d="M135.3,30.6C77,30.6,29.6,78,29.6,136.2S77,241.9,135.3,241.9c58.3,0,105.7-47.4,105.7-105.7
			S193.5,30.6,135.3,30.6z"/>
		<path class="st0" d="M135.3,1.2c-74.6,0-135,60.4-135,135s60.4,135,135,135s135-60.4,135-135S209.8,1.2,135.3,1.2z M135.3,256.1
			c-66.1,0-119.8-53.8-119.8-119.8S69.2,16.4,135.3,16.4c66.1,0,119.8,53.8,119.8,119.8S201.4,256.1,135.3,256.1z"/>
	</g>
	<g>
		<path class="st1" d="M162,159.1L162,159.1l0,19.5c0,3.5-2.9,6.4-6.4,6.4H89c-2.6,0-4.9-1.6-5.9-3.9c-1-2.4-0.4-5.1,1.4-7
			l55.7-55.7H95.4v13.1h14.9l-27.7,27.7v-27.7h0v-19.5c0-3.5,2.9-6.4,6.4-6.4h66.6c2.6,0,4.9,1.6,5.9,3.9c1,2.4,0.4,5.1-1.4,7
			l-55.7,55.7h44.8v-13.1h-14.9l27.7-27.7V159.1z"/>
		<line class="st2" x1="169.1" y1="96.5" x2="169.1" y2="73.3"/>
		<line class="st2" x1="156.9" y1="84.9" x2="181.3" y2="84.9"/>
		<line class="st2" x1="184.5" y1="118.1" x2="184.5" y2="104"/>
		<line class="st2" x1="177.1" y1="111" x2="191.9" y2="111"/>
	</g>
</g>
<g>
	<g>
		<circle class="st3" cx="135.3" cy="136.2" r="120"/>
	</g>
</g>
<g>
	<line class="st4" x1="134.3" y1="260.6" x2="134.3" y2="428.1"/>
</g>
</svg>
