<?xml version="1.0" encoding="utf-8"?>
<!-- Generator: Adobe Illustrator 19.2.0, SVG Export Plug-In . SVG Version: 6.00 Build 0)  -->
<svg version="1.1" id="Ebene_1" xmlns="http://www.w3.org/2000/svg" xmlns:xlink="http://www.w3.org/1999/xlink" x="0px" y="0px"
	 viewBox="0 0 150 150" style="enable-background:new 0 0 150 150;" xml:space="preserve">
<style type="text/css">
	.st0{fill:#3EAD54;}
	.st1{fill:none;stroke:#3EAD54;stroke-width:6;stroke-miterlimit:10;stroke-dasharray:2.0234,2.0234,2.0234,2.0234,2.0234,2.0234;}
	.st2{fill:#FFFFFF;}
</style>
<path class="st0" d="M75.3,16.3c-32.4,0-58.7,26.3-58.7,58.7s26.3,58.7,58.7,58.7c32.4,0,58.7-26.3,58.7-58.7S107.6,16.3,75.3,16.3z
	"/>
<path class="st0" d="M75.3,0c-41.4,0-75,33.6-75,75s33.6,75,75,75s75-33.6,75-75S116.7,0,75.3,0z M75.3,141.6
	c-36.7,0-66.6-29.9-66.6-66.6S38.5,8.4,75.3,8.4c36.7,0,66.6,29.9,66.6,66.6S112,141.6,75.3,141.6z"/>
<g>
	<g>
		<circle class="st1" cx="74.9" cy="75" r="65.7"/>
	</g>
</g>
<polygon class="st2" points="92.6,47.7 74.2,55.2 62.6,46.1 55.2,64.4 96.5,64.4 "/>
<polygon class="st2" points="75.8,67.7 53.5,67.7 40.8,75.3 75.8,75.3 110.8,75.3 98.2,67.7 "/>
<path class="st2" d="M89.3,79.6c-3.8,0-7.1,2.3-8.5,5.5h-9.9c-1.5-3.3-4.7-5.5-8.5-5.5c-5.2,0-9.4,4.2-9.4,9.4
	c0,5.2,4.2,9.4,9.4,9.4c4.8,0,8.8-3.6,9.3-8.3H80c0.6,4.7,4.5,8.3,9.3,8.3c5.2,0,9.4-4.2,9.4-9.4C98.7,83.8,94.5,79.6,89.3,79.6z"/>
<path class="st0" d="M96.7,35.2c-1.3,0-2.6,0.5-3.6,1.5L37.2,92.6c-1,1-1.5,2.2-1.5,3.6c0,1.3,0.5,2.6,1.5,3.6c1,1,2.2,1.5,3.6,1.5
	s2.6-0.5,3.6-1.5l55.9-55.9c1-1,1.5-2.2,1.5-3.6c0-1.3-0.5-2.6-1.5-3.6C99.3,35.8,98,35.2,96.7,35.2L96.7,35.2z"/>
<path class="st2" d="M43.2,95.7c-0.5,0-1-0.2-1.4-0.6c-0.8-0.8-0.8-2,0-2.7l51-51c0.8-0.8,2-0.8,2.7,0c0.8,0.8,0.8,2,0,2.7l-51,51
	C44.2,95.5,43.7,95.7,43.2,95.7z"/>
</svg>
