<?xml version="1.0" encoding="utf-8"?>
<!-- Generator: Adobe Illustrator 21.1.0, SVG Export Plug-In . SVG Version: 6.00 Build 0)  -->
<svg version="1.1" id="Ebene_1" xmlns="http://www.w3.org/2000/svg" xmlns:xlink="http://www.w3.org/1999/xlink" x="0px" y="0px"
	 viewBox="0 0 270 430" style="enable-background:new 0 0 270 430;" xml:space="preserve">
<style type="text/css">
	.st0{fill:#3EAD54;}
	.st1{fill:none;stroke:#3EAD54;stroke-width:10;stroke-miterlimit:10;stroke-dasharray:1.9947,1.9947,1.9947,1.9947,1.9947,1.9947;}
	.st2{fill:none;stroke:#3EAD54;stroke-width:2;stroke-miterlimit:10;}
	.st3{fill:#FFFFFF;}
</style>
<path class="st0" d="M126.1,426.7c0-4.4,3.6-8,8-8c4.4,0,8,3.6,8,8S126.1,431.1,126.1,426.7z"/>
<g>
	<g>
		<path class="st0" d="M135.3,30.6C77,30.6,29.6,78,29.6,136.2S77,241.9,135.3,241.9c58.3,0,105.7-47.4,105.7-105.7
			S193.5,30.6,135.3,30.6z"/>
		<path class="st0" d="M135.3,1.2c-74.6,0-135,60.4-135,135s60.4,135,135,135s135-60.4,135-135S209.8,1.2,135.3,1.2z M135.3,256.1
			c-66.1,0-119.8-53.8-119.8-119.8S69.2,16.4,135.3,16.4c66.1,0,119.8,53.8,119.8,119.8S201.4,256.1,135.3,256.1z"/>
	</g>
</g>
<g>
	<g>
		<circle class="st1" cx="135.3" cy="136.2" r="120"/>
	</g>
</g>
<g>
	<line class="st2" x1="134.3" y1="260.6" x2="134.3" y2="428.1"/>
</g>
<g>
	<g>
		<g>
			<polygon class="st3" points="160,113.9 133,124.9 116.1,111.4 105.2,138.3 165.8,138.3 			"/>
			<polygon class="st3" points="135.5,143.2 102.7,143.2 84.1,154.3 135.5,154.3 186.8,154.3 168.2,143.2 			"/>
			<path class="st3" d="M155.2,160.6c-5.6,0-10.4,3.3-12.5,8.1h-14.5c-2.2-4.8-7-8.1-12.5-8.1c-7.6,0-13.8,6.2-13.8,13.8
				c0,7.6,6.2,13.8,13.8,13.8c7,0,12.8-5.3,13.7-12.1h12.3c0.8,6.8,6.6,12.1,13.7,12.1c7.6,0,13.8-6.2,13.8-13.8
				C169,166.8,162.8,160.6,155.2,160.6z"/>
		</g>
		<path class="st3" d="M132.6,97.1v-8h-8.8l11.5-15.3l11.6,15.3h-8.6v8c0,1.6-1.3,2.8-2.8,2.8l0,0C133.8,100,132.6,98.7,132.6,97.1z
			"/>
		<path class="st3" d="M83.4,113.3l-6.2,6.2l-2.7-19l19,2.6l-6.1,6.1l6.3,6.3c1.1,1.1,1.1,2.9,0,4v0c-1.1,1.1-2.9,1.1-4,0
			L83.4,113.3z"/>
		<path class="st3" d="M176.1,115.7l6.3-6.3l-6.2-6.2l19-2.7l-2.6,19l-6.1-6.1l-6.3,6.3c-1.1,1.1-2.9,1.1-4,0l0,0
			C175,118.6,175,116.8,176.1,115.7z"/>
	</g>
</g>
</svg>
