<?xml version="1.0" encoding="utf-8"?>
<!-- Generator: Adobe Illustrator 21.1.0, SVG Export Plug-In . SVG Version: 6.00 Build 0)  -->
<svg version="1.1" id="Ebene_1" xmlns="http://www.w3.org/2000/svg" xmlns:xlink="http://www.w3.org/1999/xlink" x="0px" y="0px"
	 viewBox="0 0 64 64" style="enable-background:new 0 0 64 64;" xml:space="preserve">
<style type="text/css">
	.st0{fill:#FFFFFF;}
</style>
<path class="st0" d="M63.3,18.4c0,0-0.6-4.7-2.5-6.8c-2.4-2.7-5.2-2.7-6.4-2.9C45.4,8,31.9,8,31.9,8h0c0,0-13.4,0-22.4,0.7
	c-1.3,0.2-4,0.2-6.4,2.9c-1.9,2.1-2.5,6.8-2.5,6.8s-0.6,5.5-0.6,11v5.2c0,5.5,0.6,11,0.6,11s0.6,4.7,2.5,6.8
	c2.4,2.7,5.6,2.6,7.1,2.9c5.1,0.5,21.8,0.7,21.8,0.7s13.4,0,22.4-0.7c1.3-0.2,4-0.2,6.4-2.9c1.9-2.1,2.5-6.8,2.5-6.8s0.6-5.5,0.6-11
	v-5.2C63.9,23.9,63.3,18.4,63.3,18.4z M23.9,44.1V20l20,12L23.9,44.1z"/>
</svg>
