<?xml version="1.0" encoding="utf-8"?>
<!-- Generator: Adobe Illustrator 21.1.0, SVG Export Plug-In . SVG Version: 6.00 Build 0)  -->
<svg version="1.1" id="Ebene_1" xmlns="http://www.w3.org/2000/svg" xmlns:xlink="http://www.w3.org/1999/xlink" x="0px" y="0px"
	 viewBox="0 0 161 161" style="enable-background:new 0 0 161 161;" xml:space="preserve">
<style type="text/css">
	.st0{fill:#FFFFFF;}
	.st1{fill:#3EAD54;}
</style>
<g>
	<path id="XMLID_170_" class="st0" d="M80.5,0C36,0,0,36,0,80.5S36,161,80.5,161S161,125,161,80.5S125,0,80.5,0"/>
	<g>
		<path id="XMLID_196_" class="st0" d="M80.5,22C48.2,22,22,48.2,22,80.5S48.2,139,80.5,139S139,112.8,139,80.5S112.8,22,80.5,22"/>
		<path id="XMLID_169_" class="st1" d="M112.8,69.2v22.5h0v15.8c0,2.9-2.3,5.2-5.2,5.2H53.4c-2.1,0-4-1.3-4.8-3.2
			c-0.8-1.9-0.4-4.2,1.1-5.7l45.3-45.3H58.6v10.6h12.1L48.2,91.8V69.2h0V53.4c0-2.9,2.3-5.2,5.2-5.2h54.2c2.1,0,4,1.3,4.8,3.2
			c0.8,1.9,0.4,4.2-1.1,5.7l-45.3,45.3h36.5V91.8H90.3L112.8,69.2z M80.5,22C48.2,22,22,48.2,22,80.5S48.2,139,80.5,139
			S139,112.8,139,80.5S112.8,22,80.5,22 M80.5,11.7c9.3,0,18.3,1.8,26.8,5.4c8.2,3.5,15.5,8.4,21.9,14.7
			c6.3,6.3,11.3,13.7,14.7,21.9c3.6,8.5,5.4,17.5,5.4,26.8s-1.8,18.3-5.4,26.8c-3.5,8.2-8.4,15.5-14.7,21.9
			c-6.3,6.3-13.7,11.3-21.9,14.7c-8.5,3.6-17.5,5.4-26.8,5.4s-18.3-1.8-26.8-5.4c-8.2-3.5-15.5-8.4-21.9-14.7
			c-6.3-6.3-11.3-13.7-14.7-21.9c-3.6-8.5-5.4-17.5-5.4-26.8s1.8-18.3,5.4-26.8c3.5-8.2,8.4-15.5,14.7-21.9
			c6.3-6.3,13.7-11.3,21.9-14.7C62.2,13.5,71.2,11.7,80.5,11.7L80.5,11.7z"/>
	</g>
</g>
</svg>
