<?xml version="1.0" encoding="utf-8"?>
<!-- Generator: Adobe Illustrator 21.1.0, SVG Export Plug-In . SVG Version: 6.00 Build 0)  -->
<svg version="1.1" id="Ebene_1" xmlns="http://www.w3.org/2000/svg" xmlns:xlink="http://www.w3.org/1999/xlink" x="0px" y="0px"
	 viewBox="0 0 220.9 58" style="enable-background:new 0 0 220.9 58;" xml:space="preserve">
<style type="text/css">
	.st0{opacity:0.7;}
	.st1{fill:#FFFFFF;}
</style>
<g id="jPcM0E_1_" class="st0">
	<g>
		<path class="st1" d="M59.4,13.9c0.7,0.4,1.4,0.6,2,1.1c1.6,1.5,1.6,4,0.1,5.5c-1.5,1.6-4,1.6-5.5,0.1c-1.1-1-2.3-1.6-3.8-1.2
			c-0.6,0.2-1.3,0.6-1.8,1c-1.8,1.7-4,1.7-5.8,0c-1.5-1.4-3.6-1.5-5-0.3c-1.7,1.5-2.1,3.6-0.8,5.3c0.2,0.2,0.3,0.4,0.5,0.7
			c1.5,1.8,1.5,3.9-0.1,5.6c-0.8,0.9-1.3,2-1.1,3.2c0.2,1.5,1,2.6,2.4,3.2c1.3,0.6,2.6,0.4,3.8-0.5c0.8-0.6,1.6-1.3,2.7-1.5
			c2-0.3,3.9,0.9,4.4,2.9c0.5,2-0.5,4-2.5,4.7c-0.2,0.1-0.4,0.2-0.7,0.2c-0.5,0-1,0-1.4,0c-0.9-0.3-1.7-0.8-2.4-1.5
			c-1.3-1.2-3.4-1.2-4.7,0c-0.7,0.7-1.5,1.2-2.4,1.5c-0.5,0-1,0-1.4,0c-0.3-0.1-0.6-0.2-1-0.4c-1.3-0.6-1.9-1.6-2.3-2.9
			c0-0.5,0-1,0-1.4c0.3-0.9,0.8-1.7,1.5-2.4c1.2-1.3,1.2-3.4,0-4.7c-0.7-0.7-1.2-1.5-1.5-2.4c0-0.5,0-1,0-1.6
			c0.3-0.9,0.9-1.7,1.5-2.4c1.2-1.3,1.2-3.4,0-4.7c-0.7-0.7-1.2-1.5-1.5-2.4c0-0.5,0-1,0-1.4c0.5-1.7,1.5-2.8,3.2-3.2
			c0.5,0,1,0,1.4,0c0.9,0.3,1.7,0.8,2.4,1.5c1.4,1.2,3.3,1.1,4.8,0c0.8-0.6,1.6-1,2.5-1.5c0.5,0,1,0,1.4,0c0.7,0.4,1.5,0.7,2.1,1.2
			c1.6,1.4,3.5,1.5,5.2,0.2c0.7-0.6,1.5-1.1,2.4-1.4C58.4,13.9,58.9,13.9,59.4,13.9z"/>
		<path class="st1" d="M138.6,14.1c1,0,1.9,0,2.8,0c0,7.8,0,15.6,0,23.5c-0.9,0-1.8,0-2.8,0c0-0.6,0-1.2,0-1.9
			c-0.1,0.1-0.2,0.1-0.2,0.1c-2,2.3-4.6,2.7-7.3,1.9c-2.8-0.8-4.4-2.8-4.9-5.6c-0.5-2.9,0-5.7,2.3-7.8c2.4-2.2,6.5-2.4,9-0.5
			c0.4,0.3,0.7,0.6,1.1,1C138.6,21.2,138.6,17.7,138.6,14.1z M138.7,30.2c0-2.2-0.9-3.9-2.6-4.6c-1.9-0.8-3.7-0.7-5.3,0.6
			c-1.6,1.3-1.9,3.2-1.6,5.1c0.3,1.7,1.1,3,2.8,3.7C134.7,36.2,138.7,34.7,138.7,30.2z"/>
		<path class="st1" d="M174.8,14.1c0.9,0,1.8,0,2.8,0c0,5,0,10,0,15.1c0.3-0.2,0.4-0.4,0.6-0.5c1.7-1.7,3.4-3.4,5.1-5.2
			c0.4-0.5,0.9-0.7,1.5-0.6c0.9,0.1,1.9,0,3,0c-2.4,2.3-4.6,4.5-6.9,6.7c2.5,2.7,4.9,5.3,7.4,8c-1.4,0-2.6,0-3.8,0
			c-0.2,0-0.4-0.2-0.5-0.4c-2-2.2-4-4.4-5.9-6.6c-0.1-0.2-0.3-0.3-0.5-0.6c0,2.6,0,5,0,7.5c-1,0-1.9,0-2.8,0
			C174.8,29.8,174.8,22,174.8,14.1z"/>
		<path class="st1" d="M156.1,33.4c0.7,0.5,1.4,1,2.1,1.6c-0.7,1-1.6,1.7-2.7,2.2c-2.2,1-4.4,1.1-6.6,0.3c-2.8-1-4.3-3.2-4.7-6.1
			c-0.5-3.2,1-6.6,3.8-8.1c3.2-1.7,8.6-1.3,10.4,3.5c0.5,1.4,0.6,2.8,0.5,4.3c-3.9,0-7.8,0-11.7,0c-0.2,1.3,0.7,2.8,2.1,3.6
			C151.6,36.1,153.5,35.7,156.1,33.4z M155.9,29c-0.1-2.9-1.9-4.5-4.7-4.2c-2.2,0.2-4.2,2.3-4,4.2C150,29,152.9,29,155.9,29z"/>
		<path class="st1" d="M85.7,30.2c0-4.3,3.5-7.7,7.8-7.8c4.4,0,7.9,3.4,7.9,7.8c0,4.4-3.4,7.7-7.8,7.8C89.1,38,85.7,34.6,85.7,30.2z
			 M88.7,30.3c0,0.1,0,0.4,0,0.6c0.2,2.4,1.8,4.2,4.3,4.4c2.4,0.3,4.5-1.1,5.1-3.5c0.2-0.7,0.2-1.4,0.2-2.1
			c-0.1-3.1-2.8-5.2-5.8-4.6C90.1,25.7,88.7,27.5,88.7,30.3z"/>
		<path class="st1" d="M123.8,37.6c-0.9,0-1.8,0-2.8,0c0-0.3,0-0.5,0-0.7c0-2.5,0-5,0-7.5c0-0.6,0-1.1-0.1-1.7
			c-0.3-1.4-1.2-2.3-2.6-2.5c-1.7-0.3-3.2,0.4-4,1.7c-0.6,1-0.7,2.1-0.7,3.2c0,2.2,0,4.5,0,6.7c0,0.2,0,0.5,0,0.8
			c-0.9,0-1.8,0-2.7,0c0-4.9,0-9.8,0-14.7c0.9,0,1.8,0,2.7,0c0,0.7,0,1.4,0,2.1c0.9-1.3,2.1-2.1,3.6-2.3c4.1-0.7,6.6,1.7,6.6,5.2
			c0,3.1,0,6.2,0,9.4C123.8,37.3,123.8,37.4,123.8,37.6z"/>
		<path class="st1" d="M171.8,24.9c-0.8,0.6-1.5,1.1-2.2,1.7c-0.9-1-2-1.6-3.3-1.4c0,0,0,0-0.1,0c-1.1,0.1-2,0.6-2.1,1.4
			c-0.1,0.8,0.4,1.5,1.5,1.9c0.7,0.2,1.4,0.3,2.1,0.5c0.7,0.2,1.3,0.4,2,0.6c3.3,1.2,3.1,5.5,0.9,7.1c-0.9,0.7-2,1-3.1,1.1
			c-1.5,0.2-3,0.1-4.4-0.4c-1.1-0.4-1.9-1.1-2.6-2.1c0.7-0.6,1.4-1.2,2.1-1.7c0.5,0.4,0.9,0.7,1.4,1c1.3,0.9,2.7,0.9,4.1,0.3
			c0.6-0.3,1.1-0.7,1.1-1.4c0-0.7-0.4-1.3-1-1.5c-0.6-0.3-1.3-0.5-2-0.7c-0.8-0.2-1.6-0.4-2.4-0.7c-1.4-0.5-2.5-1.4-2.7-2.9
			c-0.2-1.6,0.2-3,1.5-4c2.1-1.7,6.1-1.7,8.1,0C171.1,24.1,171.4,24.5,171.8,24.9z"/>
		<path class="st1" d="M84.5,24.9c-0.7,0.6-1.4,1.2-1.9,1.8c-0.9-0.5-1.7-1.1-2.6-1.3c-2.7-0.7-4.8,0.7-5.6,3.4
			c-0.4,1.6-0.3,3.1,0.6,4.6c1.4,2.3,4.6,2.9,6.7,1.2c0.3-0.2,0.5-0.4,0.7-0.6c0.7,0.6,1.3,1.3,2,2c-1.4,1.9-5,2.7-8.1,1.8
			c-3.1-1-5-3.7-5.1-7.1c0-3.7,1.8-6.5,4.9-7.6C79.1,21.9,82.9,22.8,84.5,24.9z"/>
		<path class="st1" d="M106.8,22.9c0,4.9,0,9.8,0,14.7c-0.9,0-1.8,0-2.7,0c0-4.9,0-9.8,0-14.7C105,22.9,105.9,22.9,106.8,22.9z"/>
		<path class="st1" d="M107.5,17.6c0,1.1-0.9,2.1-2.1,2c-1.1,0-2-0.9-2-2.1c0-1.2,0.9-2,2.1-2C106.6,15.5,107.5,16.4,107.5,17.6z"/>
		<path class="st1" d="M48.9,29.4c0,0.8-0.7,1.4-1.4,1.4c-0.8,0-1.4-0.7-1.4-1.4c0-0.8,0.7-1.4,1.4-1.4C48.3,28,48.9,28.7,48.9,29.4
			z"/>
		<path class="st1" d="M58.6,27.9c0.8,0,1.4,0.6,1.4,1.4c0,0.8-0.6,1.4-1.4,1.4c-0.8,0-1.4-0.6-1.4-1.4
			C57.2,28.6,57.8,27.9,58.6,27.9z"/>
		<path class="st1" d="M58.6,38.9c0.8,0,1.4,0.6,1.4,1.4c0,0.8-0.6,1.4-1.4,1.4c-0.8,0-1.4-0.6-1.4-1.4
			C57.2,39.5,57.8,38.9,58.6,38.9z"/>
	</g>
</g>
</svg>
