<?xml version="1.0" encoding="utf-8"?>
<!-- Generator: Adobe Illustrator 21.1.0, SVG Export Plug-In . SVG Version: 6.00 Build 0)  -->
<svg version="1.1" id="Ebene_1" xmlns="http://www.w3.org/2000/svg" xmlns:xlink="http://www.w3.org/1999/xlink" x="0px" y="0px"
	 viewBox="0 0 770.1 154.1" style="enable-background:new 0 0 770.1 154.1;" xml:space="preserve">
<style type="text/css">
	.st0{opacity:0.7;}
	.st1{fill:#FFFFFF;}
</style>
<g>
	<g id="jPcM0E_1_" class="st0">
		<g>
			<path class="st1" d="M78.9,8.1c0.7,0.4,1.4,0.6,2,1.1c1.6,1.5,1.6,4,0.1,5.5c-1.5,1.6-4,1.6-5.5,0.1c-1.1-1-2.3-1.6-3.8-1.2
				c-0.6,0.2-1.3,0.6-1.8,1c-1.8,1.7-4,1.7-5.8,0c-1.5-1.4-3.6-1.5-5-0.3c-1.7,1.5-2.1,3.6-0.8,5.3c0.2,0.2,0.3,0.4,0.5,0.7
				c1.5,1.8,1.5,3.9-0.1,5.6c-0.8,0.9-1.3,2-1.1,3.2c0.2,1.5,1,2.6,2.4,3.2c1.3,0.6,2.6,0.4,3.8-0.5c0.8-0.6,1.6-1.3,2.7-1.5
				c2-0.3,3.9,0.9,4.4,2.9s-0.5,4-2.5,4.7c-0.2,0.1-0.4,0.2-0.7,0.2c-0.5,0-1,0-1.4,0c-0.9-0.3-1.7-0.8-2.4-1.5
				c-1.3-1.2-3.4-1.2-4.7,0c-0.7,0.7-1.5,1.2-2.4,1.5c-0.5,0-1,0-1.4,0c-0.3-0.1-0.6-0.2-1-0.4c-1.3-0.6-1.9-1.6-2.3-2.9
				c0-0.5,0-1,0-1.4c0.3-0.9,0.8-1.7,1.5-2.4c1.2-1.3,1.2-3.4,0-4.7c-0.7-0.7-1.2-1.5-1.5-2.4c0-0.5,0-1,0-1.6
				c0.3-0.9,0.9-1.7,1.5-2.4c1.2-1.3,1.2-3.4,0-4.7c-0.7-0.7-1.2-1.5-1.5-2.4c0-0.5,0-1,0-1.4c0.5-1.7,1.5-2.8,3.2-3.2
				c0.5,0,1,0,1.4,0c0.9,0.3,1.7,0.8,2.4,1.5c1.4,1.2,3.3,1.1,4.8,0c0.8-0.6,1.6-1,2.5-1.5c0.5,0,1,0,1.4,0c0.7,0.4,1.5,0.7,2.1,1.2
				c1.6,1.4,3.5,1.5,5.2,0.2c0.7-0.6,1.5-1.1,2.4-1.4C78,8.1,78.5,8.1,78.9,8.1z"/>
			<path class="st1" d="M158.2,8.2c1,0,1.9,0,2.8,0c0,7.8,0,15.6,0,23.5c-0.9,0-1.8,0-2.8,0c0-0.6,0-1.2,0-1.9
				c-0.1,0.1-0.2,0.1-0.2,0.1c-2,2.3-4.6,2.7-7.3,1.9c-2.8-0.8-4.4-2.8-4.9-5.6c-0.5-2.9,0-5.7,2.3-7.8c2.4-2.2,6.5-2.4,9-0.5
				c0.4,0.3,0.7,0.6,1.1,1C158.2,15.4,158.2,11.8,158.2,8.2z M158.2,24.3c0-2.2-0.9-3.9-2.6-4.6c-1.9-0.8-3.7-0.7-5.3,0.6
				c-1.6,1.3-1.9,3.2-1.6,5.1c0.3,1.7,1.1,3,2.8,3.7C154.3,30.3,158.3,28.9,158.2,24.3z"/>
			<path class="st1" d="M194.4,8.2c0.9,0,1.8,0,2.8,0c0,5,0,10,0,15.1c0.3-0.2,0.4-0.4,0.6-0.5c1.7-1.7,3.4-3.4,5.1-5.2
				c0.4-0.5,0.9-0.7,1.5-0.6c0.9,0.1,1.9,0,3,0c-2.4,2.3-4.6,4.5-6.9,6.7c2.5,2.7,4.9,5.3,7.4,8c-1.4,0-2.6,0-3.8,0
				c-0.2,0-0.4-0.2-0.5-0.4c-2-2.2-4-4.4-5.9-6.6c-0.1-0.2-0.3-0.3-0.5-0.6c0,2.6,0,5,0,7.5c-1,0-1.9,0-2.8,0
				C194.4,23.9,194.4,16.1,194.4,8.2z"/>
			<path class="st1" d="M175.7,27.5c0.7,0.5,1.4,1,2.1,1.6c-0.7,1-1.6,1.7-2.7,2.2c-2.2,1-4.4,1.1-6.6,0.3c-2.8-1-4.3-3.2-4.7-6.1
				c-0.5-3.2,1-6.6,3.8-8.1c3.2-1.7,8.6-1.3,10.4,3.5c0.5,1.4,0.6,2.8,0.5,4.3c-3.9,0-7.8,0-11.7,0c-0.2,1.3,0.7,2.8,2.1,3.6
				C171.1,30.3,173.1,29.9,175.7,27.5z M175.4,23.1c-0.1-2.9-1.9-4.5-4.7-4.2c-2.2,0.2-4.2,2.3-4,4.2
				C169.6,23.1,172.5,23.1,175.4,23.1z"/>
			<path class="st1" d="M105.2,24.4c0-4.3,3.5-7.7,7.8-7.8c4.4,0,7.9,3.4,7.9,7.8s-3.4,7.7-7.8,7.8
				C108.7,32.1,105.2,28.7,105.2,24.4z M108.3,24.4c0,0.1,0,0.4,0,0.6c0.2,2.4,1.8,4.2,4.3,4.4c2.4,0.3,4.5-1.1,5.1-3.5
				c0.2-0.7,0.2-1.4,0.2-2.1c-0.1-3.1-2.8-5.2-5.8-4.6C109.6,19.8,108.3,21.7,108.3,24.4z"/>
			<path class="st1" d="M143.4,31.7c-0.9,0-1.8,0-2.8,0c0-0.3,0-0.5,0-0.7c0-2.5,0-5,0-7.5c0-0.6,0-1.1-0.1-1.7
				c-0.3-1.4-1.2-2.3-2.6-2.5c-1.7-0.3-3.2,0.4-4,1.7c-0.6,1-0.7,2.1-0.7,3.2c0,2.2,0,4.5,0,6.7c0,0.2,0,0.5,0,0.8
				c-0.9,0-1.8,0-2.7,0c0-4.9,0-9.8,0-14.7c0.9,0,1.8,0,2.7,0c0,0.7,0,1.4,0,2.1c0.9-1.3,2.1-2.1,3.6-2.3c4.1-0.7,6.6,1.7,6.6,5.2
				c0,3.1,0,6.2,0,9.4C143.4,31.4,143.4,31.5,143.4,31.7z"/>
			<path class="st1" d="M191.4,19c-0.8,0.6-1.5,1.1-2.2,1.7c-0.9-1-2-1.6-3.3-1.4c0,0,0,0-0.1,0c-1.1,0.1-2,0.6-2.1,1.4
				s0.4,1.5,1.5,1.9c0.7,0.2,1.4,0.3,2.1,0.5c0.7,0.2,1.3,0.4,2,0.6c3.3,1.2,3.1,5.5,0.9,7.1c-0.9,0.7-2,1-3.1,1.1
				c-1.5,0.2-3,0.1-4.4-0.4c-1.1-0.4-1.9-1.1-2.6-2.1c0.7-0.6,1.4-1.2,2.1-1.7c0.5,0.4,0.9,0.7,1.4,1c1.3,0.9,2.7,0.9,4.1,0.3
				c0.6-0.3,1.1-0.7,1.1-1.4s-0.4-1.3-1-1.5c-0.6-0.3-1.3-0.5-2-0.7c-0.8-0.2-1.6-0.4-2.4-0.7c-1.4-0.5-2.5-1.4-2.7-2.9
				c-0.2-1.6,0.2-3,1.5-4c2.1-1.7,6.1-1.7,8.1,0C190.7,18.2,191,18.6,191.4,19z"/>
			<path class="st1" d="M104.1,19c-0.7,0.6-1.4,1.2-1.9,1.8c-0.9-0.5-1.7-1.1-2.6-1.3c-2.7-0.7-4.8,0.7-5.6,3.4
				c-0.4,1.6-0.3,3.1,0.6,4.6c1.4,2.3,4.6,2.9,6.7,1.2c0.3-0.2,0.5-0.4,0.7-0.6c0.7,0.6,1.3,1.3,2,2c-1.4,1.9-5,2.7-8.1,1.8
				c-3.1-1-5-3.7-5.1-7.1c0-3.7,1.8-6.5,4.9-7.6C98.6,16,102.5,16.9,104.1,19z"/>
			<path class="st1" d="M126.3,17c0,4.9,0,9.8,0,14.7c-0.9,0-1.8,0-2.7,0c0-4.9,0-9.8,0-14.7C124.5,17,125.4,17,126.3,17z"/>
			<path class="st1" d="M127,11.7c0,1.1-0.9,2.1-2.1,2c-1.1,0-2-0.9-2-2.1s0.9-2,2.1-2C126.2,9.6,127,10.5,127,11.7z"/>
			<path class="st1" d="M68.5,23.6c0,0.8-0.7,1.4-1.4,1.4c-0.8,0-1.4-0.7-1.4-1.4c0-0.8,0.7-1.4,1.4-1.4
				C67.8,22.1,68.5,22.8,68.5,23.6z"/>
			<path class="st1" d="M78.2,22.1c0.8,0,1.4,0.6,1.4,1.4s-0.6,1.4-1.4,1.4s-1.4-0.6-1.4-1.4C76.8,22.7,77.4,22.1,78.2,22.1z"/>
			<path class="st1" d="M78.2,33c0.8,0,1.4,0.6,1.4,1.4c0,0.8-0.6,1.4-1.4,1.4s-1.4-0.6-1.4-1.4C76.8,33.6,77.4,33,78.2,33z"/>
		</g>
	</g>
	<g class="st0">
		<path class="st1" d="M281.2,3.7c0.2,0,0.3,0.1,0.5,0.1c1.6,0.1,3.2,0.5,4.6,1.1c1.7,0.7,3.3,1.7,4.5,3c0.2,0.2,0.3,0.2,0.6,0.2
			c5.6,0,11.2,0,16.8,0c0.1,0,0.2,0,0.3,0c-0.7,2.8-1.4,5.7-2.2,8.5c-0.1,0-0.1,0-0.2,0c-2.8,0-5.6,0-8.4,0c-0.1,0-0.2,0-0.3,0.2
			c-0.7,1.8-1.4,3.7-2.1,5.5c0,0.1,0,0.1-0.1,0.2c3.7-1.9,7.3-3.7,10.9-5.6l0,0c-6,8.5-12,17-18,25.5l0,0c1-3.6,2-7.2,3-10.8
			c-0.1,0-0.2,0.1-0.2,0.1c-2.2,1.1-4.4,2.2-6.6,3.4c-0.3,0.1-0.6,0.2-1,0.3c-1.5,0.3-3.1,0.4-4.6,0.4c-2.8-0.1-5.6-0.7-8-2.2
			c-1.2-0.7-2.3-1.5-3.1-2.6c-0.7-1-1.2-2-1.3-3.3c0-0.2,0-0.4,0-0.6c0-4.9,0-9.9,0-14.8c0-1.8,0.7-3.4,1.9-4.7
			c1.2-1.2,2.6-2.1,4.2-2.8c1.1-0.5,2.2-0.8,3.4-1c0.6-0.1,1.1-0.2,1.7-0.2h0.1C278.8,3.7,280,3.7,281.2,3.7z M290.3,15.6
			c-1.5,5.8-3,11.6-4.5,17.5c2.4-1.2,4.7-2.4,7.1-3.7c-0.6,2.3-1.3,4.6-1.9,6.8l0,0c3.8-5.3,7.5-10.7,11.3-16l0,0
			c-3.1,1.6-6.2,3.2-9.3,4.8c0-0.1,0-0.1,0.1-0.2c1.2-3,2.3-6,3.5-9.1c0-0.1,0.1-0.2,0.2-0.2c2.8,0,5.5,0,8.3,0c0.1,0,0.1,0,0.2,0
			c0.5-2.1,1.1-4.2,1.6-6.3c-7.9,0-15.9,0-23.8,0c-0.5,2.1-1.1,4.2-1.6,6.3C284.5,15.6,287.4,15.6,290.3,15.6z M280.1,16.7
			c0-0.1,0-0.1,0-0.1c0.7-2.7,1.4-5.5,2.1-8.2c0-0.1,0.1-0.2,0.2-0.2c2.2,0,4.3,0,6.5,0c0.1,0,0.1,0,0.3,0c-0.2-0.1-0.3-0.3-0.5-0.4
			c-2.2-1.7-4.7-2.5-7.4-2.8c-0.9-0.1-1.7-0.1-2.6-0.1c-1.2,0-2.4,0.2-3.6,0.4c-1.8,0.4-3.4,1.1-4.9,2.2c-0.8,0.6-1.6,1.3-2.1,2.2
			c-0.9,1.8-0.9,3.5,0.2,5.2c0.6,1,1.5,1.7,2.4,2.3c1.4,0.9,2.9,1.5,4.5,1.9c1.1,0.2,2.1,0.4,3.2,0.4c0.9,0,1.9,0,2.8-0.1
			c1.1-0.1,2.1-0.3,3.2-0.6c1.2-0.4,2.4-0.9,3.5-1.6c0.2-0.1,0.4-0.3,0.6-0.4c0.1-0.1,0.1-0.1,0.1-0.2
			C285.9,16.7,283,16.7,280.1,16.7z M267.5,20.8c0,0.6,0,1.1,0,1.7c0,0.5,0.1,1,0.2,1.5c0.4,1.1,1.1,2,1.9,2.7
			c1.4,1.2,3.1,2,4.9,2.5c1.2,0.3,2.4,0.5,3.6,0.6c0.6,0,1.2,0,1.8,0c0.9,0,1.8-0.1,2.7-0.3c0.9-0.2,1.9-0.4,2.7-0.8
			c0.1,0,0.2,0,0.4-0.1c0.4-1.4,0.7-2.8,1.1-4.2c-0.3,0.1-0.6,0.2-0.8,0.3c-0.9,0.3-1.8,0.6-2.7,0.8c-1,0.2-2.1,0.3-3.1,0.4
			c-0.8,0-1.6,0-2.4-0.1c-1.3-0.1-2.5-0.3-3.7-0.7c-1.8-0.5-3.5-1.4-5-2.6C268.5,22,268,21.5,267.5,20.8z M267.5,16
			c0,0.6,0,1.2,0,1.8c0.1,1,0.5,1.9,1.1,2.6c0.9,1.1,2,1.9,3.2,2.5c1.9,1,4,1.4,6.1,1.6c1.1,0.1,2.2,0,3.2-0.1
			c0.7-0.1,1.5-0.2,2.2-0.3c1.3-0.3,2.5-0.7,3.6-1.3c0.1,0,0.2-0.1,0.3-0.1c0.3-1.3,0.7-2.6,1-4c-0.1,0.1-0.2,0.1-0.3,0.2
			c-0.7,0.3-1.4,0.7-2.1,1c-1,0.4-2.1,0.7-3.2,0.8c-0.9,0.1-1.7,0.2-2.6,0.2c-1.2,0.1-2.4,0-3.6-0.2c-1.3-0.2-2.6-0.5-3.9-1
			C270.6,18.8,268.8,17.7,267.5,16z M267.5,26c0,0.5,0,1,0,1.5c0,0.7,0.2,1.3,0.5,1.9c0.5,1.1,1.4,2,2.4,2.7
			c2.1,1.5,4.5,2.2,7.1,2.5c1.2,0.1,2.3,0.1,3.5,0c1-0.1,1.9-0.2,2.9-0.5c0.2,0,0.4-0.1,0.6-0.1c0.3-1.3,0.7-2.6,1-3.9
			c-0.1,0-0.1,0-0.2,0c-0.5,0.1-1,0.3-1.5,0.4c-1.1,0.3-2.3,0.4-3.5,0.5c-0.8,0-1.6,0-2.4-0.1c-1.3-0.1-2.7-0.3-3.9-0.7
			C271.3,29.4,269.1,28.1,267.5,26z"/>
		<path class="st1" d="M347.9,29.5c0-3.4,0-6.9,0-10.3c0,0,0,0,0-0.1c0.7,0,1.3,0,2,0c0.1,0,0.2,0.1,0.3,0.2c1.5,2,2.9,4,4.4,6
			c0.1,0.1,0.1,0.2,0.3,0.3c0-2.2,0-4.4,0-6.6c0.7,0,1.4,0,2.1,0c0,3.5,0,7,0,10.4c-0.7,0-1.4,0-2.1,0c-0.1-0.1-0.1-0.2-0.2-0.3
			c-1.4-1.9-2.8-3.8-4.2-5.7c-0.1-0.2-0.3-0.4-0.5-0.6c0,2.3,0,4.4,0,6.6C349.3,29.5,348.6,29.5,347.9,29.5z"/>
		<path class="st1" d="M422.7,29.5c0-3.4,0-6.9,0-10.3v-0.1c0.1,0,0.2,0,0.3,0c1.6,0,3.1,0,4.7,0c1.7,0,3.2,1.5,3.3,3.2
			c0.1,1.6-0.6,2.7-1.9,3.5c-0.1,0.1-0.2,0.1-0.3,0.2c0.6,0.8,1.2,1.5,1.7,2.3c0.3,0.4,0.6,0.9,0.9,1.3c-0.9,0-1.7,0-2.6,0
			c-0.8-1.1-1.6-2.1-2.4-3.2c0-0.1-0.1-0.1-0.2-0.1c-0.5,0-1,0-1.5,0c0,1.1,0,2.2,0,3.3C424,29.5,423.4,29.5,422.7,29.5z
			 M424.7,24.5c0.9,0,1.8,0,2.6,0c1-0.1,1.7-0.8,1.6-1.8c0-0.9-0.8-1.6-1.8-1.6c-0.7,0-1.3,0-2,0c-0.2,0-0.3,0-0.5,0
			C424.7,22.2,424.7,23.3,424.7,24.5z"/>
		<path class="st1" d="M396.7,29.5c0-3.3,0-6.7,0-10c0-0.1,0-0.3,0-0.4c2.6,0,5.1,0,7.6,0c0,0.7,0,1.4,0,2.1c-1.8,0-3.6,0-5.4,0
			c0,0.7,0,1.4,0,2.2c1.6,0,3.2,0,4.8,0c0,0.7,0,1.3,0,2c-1.6,0-3.2,0-4.8,0c0,0.7,0,1.4,0,2.1c1.8,0,3.6,0,5.4,0c0,0.7,0,1.4,0,2.1
			C401.8,29.5,399.2,29.5,396.7,29.5z"/>
		<path class="st1" d="M373.5,29.5c0-3.2,0-6.3,0-9.5c0-0.3,0-0.6,0-1c2.6,0,5.1,0,7.6,0c0,0.7,0,1.4,0,2.1c-1.8,0-3.6,0-5.5,0
			c0,0.7,0,1.4,0,2.1c1.6,0,3.2,0,4.8,0c0,0.7,0,1.3,0,2c-1.6,0-3.2,0-4.8,0c0,0.7,0,1.4,0,2.1c1.8,0,3.6,0,5.5,0c0,0.7,0,1.4,0,2.1
			C378.6,29.5,376,29.5,373.5,29.5z"/>
		<path class="st1" d="M461.1,29.5c0-3.5,0-6.9,0-10.4c0.7,0,1.4,0,2.1,0c0,1.4,0,2.8,0,4.2c1.5,0,3,0,4.4,0c0-1.4,0-2.8,0-4.3
			c0.7,0,1.5,0,2.2,0c0,3.5,0,7,0,10.5c-0.7,0-1.4,0-2.1,0c0-1.4,0-2.8,0-4.2c-1.5,0-3,0-4.5,0c0,1.4,0,2.8,0,4.2
			C462.5,29.5,461.8,29.5,461.1,29.5z"/>
		<path class="st1" d="M413.1,29.5c-0.3-0.1-0.6-0.1-1-0.2c-2.5-0.7-4-3.2-3.7-5.7c0.2-2,2-4,4-4.4c1.9-0.4,4,0.3,5,1.7
			c-0.5,0.5-1,0.9-1.5,1.4c-0.3-0.2-0.5-0.5-0.9-0.7c-2.2-1.2-4.6,0.3-4.6,2.6c0,1.4,0.5,2.5,1.7,3.1c1.1,0.6,2.2,0.4,3.3-0.1
			c0.4-0.2,0.6-0.4,0.5-0.9c0-0.3,0-0.7,0-1.1c-0.9,0-1.7,0-2.5,0c0-0.6,0-1.1,0-1.6c1.5,0,3,0,4.5,0c0,0.2,0,0.4,0,0.6
			c0,1.1,0,2.2,0,3.3c0,0.2-0.1,0.3-0.2,0.5c-1,0.7-2,1.2-3.2,1.4c0,0-0.1,0-0.1,0.1C414.1,29.5,413.6,29.5,413.1,29.5z"/>
		<path class="st1" d="M434.2,29.5c1.5-3.4,3-6.8,4.4-10.2c0.1-0.2,0.2-0.2,0.4-0.2c0.6,0,1.2,0,1.8,0c0.1,0,0.3,0.1,0.3,0.2
			c1.5,3.4,2.9,6.7,4.4,10.1v0.1c-0.8,0-1.6,0-2.3,0c-0.3-0.7-0.6-1.5-0.9-2.2c-0.1-0.2-0.2-0.3-0.4-0.3c-1.3,0-2.7,0-4,0
			c-0.2,0-0.3,0.1-0.4,0.3c-0.3,0.7-0.6,1.5-1,2.2C435.8,29.5,435,29.5,434.2,29.5z M439.9,21.7c-0.5,1.2-1,2.4-1.5,3.5c1,0,2,0,3,0
			C441,24.1,440.5,22.9,439.9,21.7z"/>
		<path class="st1" d="M449.2,29.5c0-0.1,0-0.2,0-0.3c0-3.3,0-6.6,0-9.9c0-0.1,0-0.2,0-0.3c0.1,0,0.3,0,0.4,0c1.5,0,3.1,0,4.6,0
			c1.7,0,3.2,1.4,3.4,3.1c0.2,2.2-1.4,3.7-2.8,3.9c-0.7,0.1-1.3,0.1-2,0.1c-0.5,0-1,0-1.5,0c0,0.1,0,0.3,0,0.4c0,0.9,0,1.7,0,2.6
			c0,0.1,0,0.2-0.1,0.4C450.5,29.5,449.8,29.5,449.2,29.5z M451.2,24.4c0.9,0,1.8,0.1,2.7,0c1-0.1,1.6-0.9,1.5-1.8s-0.8-1.5-1.8-1.5
			c-0.5,0-1,0-1.5,0c-0.3,0-0.6,0-1,0C451.2,22.2,451.2,23.3,451.2,24.4z"/>
		<path class="st1" d="M364.1,29.5c0-2.8,0-5.5,0-8.3c-1.1,0-2.2,0-3.3,0c0-0.7,0-1.4,0-2.1c2.9,0,5.8,0,8.7,0c0,0.7,0,1.4,0,2.1
			c-1.1,0-2.2,0-3.3,0c0,2.8,0,5.6,0,8.3C365.5,29.5,364.8,29.5,364.1,29.5z"/>
		<path class="st1" d="M385.5,29.5c0-0.1,0-0.2,0-0.3c0-3.3,0-6.5,0-9.8c0-0.1,0-0.2,0-0.3c0.7,0,1.4,0,2.1,0c0,2.8,0,5.5,0,8.3
			c1.7,0,3.4,0,5.1,0c0,0.7,0,1.4,0,2.1C390.3,29.5,387.9,29.5,385.5,29.5z"/>
		<path class="st1" d="M340.9,29.5c0-3.5,0-6.9,0-10.4c0.7,0,1.4,0,2.1,0c0,3.5,0,7,0,10.4C342.3,29.5,341.6,29.5,340.9,29.5z"/>
		<path class="st1" d="M336.2,24.2c0,2.9-2.3,5.2-5.2,5.2c-2.9,0-5.2-2.4-5.2-5.2c0-2.9,2.5-5.3,5.4-5.2
			C333.9,19.1,336.2,21.4,336.2,24.2z M331,21.1c-1.7,0-3.1,1.3-3.1,3.1c0,1.7,1.3,3.1,3,3.1s3.1-1.3,3.2-3
			C334.2,22.5,332.9,21.2,331,21.1z"/>
		<path class="st1" d="M322.1,20.9c-0.5,0.5-1,1-1.5,1.5c-0.7-1-1.8-1.3-3-1.2c-0.8,0.1-1.4,0.5-1.9,1.1c-0.9,1-1,2.9,0.2,4.1
			c1,1.1,3.2,1.5,4.7-0.2c0.5,0.5,1,0.9,1.5,1.4c-1.7,2.2-5.2,2.4-7.3,0.6c-2.3-2-2.5-5.8,0-7.9C316.7,18.5,320.2,18.5,322.1,20.9z"
			/>
	</g>
	<g class="st0">
		<path class="st1" d="M566.6,13.1c2.2,0,4.3,0,6.5,0c-1.2,6.7-2.3,13.4-3.5,20.1c-2.2,0-4.4,0-6.5,0c0.4-2.5,0.9-5,1.3-7.5
			c-1.9,0-3.8,0-5.7,0c-0.4,2.5-0.9,5-1.3,7.5c-2.2,0-4.3,0-6.5,0c1.2-6.7,2.3-13.4,3.5-20.1c2.2,0,4.3,0,6.5,0
			c-0.4,2.4-0.8,4.7-1.3,7.2c0.4,0,0.7,0,1,0c1.4,0,2.8,0,4.2,0c0.3,0,0.5,0,0.6-0.4C565.8,17.6,566.2,15.4,566.6,13.1z"/>
		<path class="st1" d="M660.1,33.7c-2.2,0-4.2-0.4-6-1.7c-1.8-1.3-2.7-3.1-3-5.3c-0.3-2.8,0-5.6,1.2-8.2c1.6-3.4,4.3-5.1,8-5.7
			c1.9-0.3,3.9-0.2,5.8,0.4c3,0.9,5,3.4,5.3,6.5c0.3,3.3-0.1,6.5-1.9,9.4c-1.7,2.6-4.2,3.9-7.2,4.4
			C661.6,33.6,660.9,33.6,660.1,33.7z M664.7,21.4c0-0.3,0-0.5,0-0.8c-0.1-1.5-0.9-2.4-2.2-2.7c-1.3-0.3-2.7,0.4-3.4,1.8
			c-1,1.9-1.4,3.9-1.3,5.9c0.1,1.5,0.8,2.5,2,2.8c1.6,0.4,3.1-0.4,3.8-2.1C664.4,24.7,664.7,23,664.7,21.4z"/>
		<path class="st1" d="M583.5,13.1c-0.3,1.7-0.6,3.3-0.9,4.9c-0.4,2.4-0.8,4.9-1.3,7.4c0,0.2,0,0.4,0,0.6c0,1.5,0.5,2.4,1.7,2.5
			c1.4,0.2,2.7,0,3.2-1.6c0.5-1.5,0.8-3.1,1.1-4.6c0.6-2.9,1-5.9,1.6-8.9c0-0.2,0.3-0.4,0.4-0.4c2,0,4.1,0,6.2,0
			c-0.2,1.3-0.4,2.5-0.6,3.7c-0.5,3.1-1.1,6.2-1.6,9.3c-0.3,1.7-0.8,3.3-1.9,4.6c-1.1,1.4-2.6,2.2-4.3,2.6c-2.5,0.5-5,0.6-7.5,0
			c-3.9-1-5.3-3.9-4.9-7.4c0.6-4.1,1.4-8.3,2.1-12.4c0-0.1,0.3-0.3,0.5-0.4C579.3,13.1,581.3,13.1,583.5,13.1z"/>
		<path class="st1" d="M636.8,33.2c-2.2,0-4.4,0-6.5,0c0.6-3.5,1.2-7,1.8-10.5c0.5-3,1.1-6.1,1.6-9.1c0.1-0.4,0.2-0.5,0.6-0.5
			c2.8,0,5.6,0,8.5,0c0.9,0,1.9,0.2,2.8,0.5c2.6,0.8,4.1,2.6,4.1,5.3c0,1.3-0.1,2.7-0.5,4c-0.9,2.9-3,4.5-6,4.9
			c-1.6,0.2-3.2,0.2-4.9,0.2c-0.4,0-0.6,0.1-0.7,0.6c-0.2,1.3-0.5,2.7-0.7,4C636.9,32.8,636.8,33,636.8,33.2z M638.6,23.1
			c0.8,0,1.6,0.1,2.4,0c0.5-0.1,1.1-0.3,1.6-0.6c0.9-0.6,1.1-1.6,0.9-2.6c-0.1-0.8-0.7-1.4-1.5-1.5c-0.7-0.1-1.5-0.1-2.2-0.1
			c-0.1,0-0.3,0.2-0.3,0.4C639.1,20.1,638.8,21.6,638.6,23.1z"/>
		<path class="st1" d="M677.5,27.4c0.7,1.2,1.7,1.8,3,1.6c0.7-0.1,1.2-0.5,1.3-1.1s-0.1-1.2-0.8-1.5c-0.6-0.3-1.3-0.4-1.9-0.7
			c-2.2-0.7-4.1-1.9-4.7-4.3c-0.9-3.8,0.9-7.5,5.1-8.4c2.4-0.5,4.7-0.6,7.1,0.2c1.8,0.6,3,1.8,3.5,3.7c-0.5,0.1-0.9,0.3-1.4,0.4
			c-1.3,0.4-2.6,0.7-3.9,1.1c-0.3,0.1-0.5,0-0.7-0.2c-0.6-0.8-1.4-1.1-2.4-0.9c-0.6,0.2-1.1,0.6-1.1,1.2s0.3,1,0.8,1.2
			c0.8,0.3,1.6,0.6,2.5,0.9c1.2,0.4,2.4,1,3.3,1.9c1.2,1.2,1.7,2.7,1.5,4.4c-0.3,3.6-1.9,5.5-5.4,6.3c-2.6,0.6-5.2,0.6-7.8-0.3
			c-1.8-0.7-3.1-1.9-3.6-4C673.7,28.4,675.6,27.9,677.5,27.4z"/>
		<path class="st1" d="M629.8,18.5c-2.4,0-4.7,0-7.1,0c-0.5,0-0.7,0.1-0.8,0.7c-0.1,1-0.3,2-0.5,3.1c1.8,0,3.6,0,5.5,0
			c-0.3,1.7-0.6,3.4-0.9,5.1c-1.7,0-3.3,0-4.9,0c-0.5,0-0.7,0.1-0.7,0.6c-0.3,1.8-0.6,3.5-0.9,5.3c-2.2,0-4.3,0-6.5,0
			c1.2-6.7,2.3-13.4,3.5-20.1c4.8,0,9.5,0,14.3,0C630.5,14.9,630.1,16.7,629.8,18.5z"/>
		<path class="st1" d="M613.6,13.1c-0.3,1.8-0.6,3.6-0.9,5.4c-1.7,0-3.3,0-5,0c-0.6,0-1.1,0-1.7,0c-1.1,0-1.1,0-1.3,1.1
			c-0.1,0.9-0.3,1.7-0.4,2.7c1.8,0,3.6,0,5.5,0c-0.3,1.7-0.6,3.4-0.9,5.1c-1.6,0-3.2,0-4.7,0c-0.6,0-0.8,0.1-0.9,0.8
			c-0.2,1.7-0.6,3.4-0.9,5.1c-2.1,0-4.3,0-6.5,0c1.2-6.7,2.3-13.4,3.5-20.1C604.1,13.1,608.8,13.1,613.6,13.1z"/>
		<path class="st1" d="M719.8,23.2c0,3.1,0,6.2,0,9.3c0,0.9-0.1,1-1,1c-1.4,0-2.9,0-4.3,0c-1.7,0-3.3,0-5,0c-0.9,0-1-0.1-0.8-1
			c0.6-3.1,1.1-6.2,1.7-9.3c0.4-2.2,0.8-4.4,1.2-6.6c0.2-1,0.4-2.1,0.5-3.1c0.1-0.5,0.5-0.7,0.9-0.7c1.4,0,2.8,0.1,4.2,0.1
			c0.7,0,1.4,0,2.1,0c0.5,0,0.7,0.2,0.7,0.7C719.8,16.8,719.8,20,719.8,23.2z"/>
		<path class="st1" d="M539.8,23.1c0-3.1,0-6.2,0-9.3c0-0.8,0.1-0.8,0.9-0.8c3.2,0,6.3,0,9.5,0c0.8,0,0.9,0.2,0.8,1
			c-0.4,2.2-0.8,4.3-1.1,6.5c-0.3,1.8-0.7,3.5-1,5.3s-0.6,3.6-0.9,5.4c-0.1,0.6-0.3,1.1-0.3,1.7c0,0.6-0.5,0.7-0.9,0.7
			c-1.8,0-3.5,0-5.3,0c-0.3,0-0.7,0-1,0c-0.5-0.1-0.6-0.4-0.6-0.8c0-1.3,0-2.5,0-3.8C539.8,26.9,539.8,25,539.8,23.1z"/>
		<path class="st1" d="M709.4,13.1c-0.3,1.8-0.6,3.5-0.9,5.3c-1.6,0-3.2,0-4.9,0c-0.9,4.9-1.7,9.8-2.6,14.7c-2.2,0-4.3,0-6.5,0
			c0.8-4.9,1.7-9.7,2.6-14.7c-1.7,0-3.5,0-5.2,0c0.3-1.8,0.6-3.6,0.9-5.4C698.2,13.1,703.8,13.1,709.4,13.1z"/>
	</g>
	<g class="st0">
		<path class="st1" d="M161.1,120.7c-36.1,0-72.2,0-108.3,0c0-17.8,0-35.7,0-53.5c36.1,0,72.2,0,108.3,0
			C161.1,85,161.1,102.9,161.1,120.7z M115.1,105.6c1.6,0,3.1,0,4.6,0c0-0.3-0.1-0.4-0.3-0.5c-0.1,0-0.2-0.1-0.3-0.1
			c-0.3-0.1-0.5-0.3-0.5-0.7c0-0.8-0.1-1.6-0.1-2.3c0-0.9,0-1.8,0-2.7c0-0.8,0.7-1.5,1.4-1.7c0.8-0.2,1.4,0.1,1.7,0.9
			c0.1,0.3,0.1,0.6,0.1,0.9c0,1.5,0,3,0,4.6c0,0.6-0.1,1-0.8,1.1c-0.2,0.1-0.3,0.2-0.3,0.4c1.4,0,2.8,0,4.3,0c0-0.4,0-0.4-0.3-0.5
			h-0.1c-0.2,0-0.4-0.2-0.4-0.4c0-0.2-0.1-0.4-0.1-0.6c0-1.5,0-2.9-0.1-4.4c0-0.4,0.1-0.8,0.3-1.1c0.4-0.7,0.9-1,1.7-1
			c0.4,0,0.8,0.1,1,0.6c0.1,0.2,0.2,0.5,0.2,0.8c0,0.6,0.1,1.2,0,1.8c0,1.2,0,2.4,0,3.6c0,0.4-0.2,0.6-0.6,0.7
			c-0.3,0.1-0.4,0.1-0.3,0.5c1.5,0,3.1,0,4.6,0c0-0.3-0.1-0.4-0.4-0.5c-0.7-0.1-1-0.4-1-1.1c0-1,0-2-0.1-3c0-0.9,0-1.8-0.1-2.6
			c-0.1-1.1-1.2-2.1-2.3-2c-0.2,0-0.4,0-0.6,0c-0.3,0-0.6,0.1-0.9,0.2c-0.6,0.2-1,0.7-1.5,1.1c-0.1,0.1-0.2,0.1-0.2,0.2
			c-0.2-0.2-0.3-0.5-0.5-0.7c-0.4-0.6-1-0.9-1.7-0.9c-0.2,0-0.4,0-0.5,0c-0.7,0-1.3,0.2-1.8,0.7c-0.3,0.3-0.6,0.5-0.9,0.8
			c0-0.1,0-0.2,0-0.2c0-0.3,0-0.7,0-1c0-0.3-0.1-0.3-0.3-0.3s-0.4,0.1-0.6,0.1c-0.8,0.1-1.5,0.2-2.3,0.3c-0.2,0-0.2,0.1-0.2,0.2
			s0,0.2,0.2,0.2c0.1,0,0.3,0,0.4,0c0.3,0.1,0.7,0.3,0.7,0.7c0,0.6,0.1,1.2,0.1,1.7c0,1.6-0.1,3.1-0.1,4.7c0,0.3-0.2,0.5-0.5,0.6
			c-0.2,0.1-0.4,0.1-0.6,0.1c-0.2,0-0.2,0.1-0.2,0.2C115.1,105.4,115.1,105.5,115.1,105.6z M60.7,92.7c-0.1,0.4,0,0.4,0.3,0.5
			c0.2,0,0.3,0.1,0.5,0.1c0.5,0.1,0.7,0.3,0.7,0.7c0.1,0.6,0.1,1.1,0.1,1.7c0,2.3,0,4.5,0,6.8c0,0.6-0.1,1.2-0.1,1.8
			c0,0.3-0.2,0.4-0.4,0.5c-0.3,0.1-0.5,0.2-0.8,0.2c-0.3,0.1-0.4,0.1-0.3,0.5h0.1c2.6,0,5.3,0.1,7.9,0.1c0.2,0,0.4,0,0.6-0.1
			c0.1,0,0.2-0.1,0.2-0.2c0.1-0.9,0.2-1.8,0.4-2.7c0-0.1,0-0.2-0.2-0.2c-0.1,0-0.3,0-0.4,0c-0.2,0-0.3,0.1-0.3,0.3v0.1
			c-0.1,0.8-0.6,1.5-1.4,1.6c-0.7,0.1-1.5,0.1-2.3,0.1c-0.3,0-0.4-0.2-0.5-0.5c0-0.2-0.1-0.5-0.1-0.8c0-1.3,0-2.6,0-3.9
			c0-0.1,0-0.1,0-0.2c0.8,0,1.5,0.1,2.3,0.1c0.7,0.1,0.9,0.3,1,1c0,0,0,0,0,0.1c0.1,0.5,0.1,0.5,0.6,0.5h0.1c0-1.4,0-2.7,0-4.1
			c-0.1,0-0.2,0-0.3,0c-0.3,0-0.3,0-0.4,0.3c0,0.2-0.1,0.4-0.1,0.6c-0.1,0.4-0.3,0.6-0.7,0.7c-0.8,0.2-1.7,0.1-2.5,0
			c0-1.6,0-3.2,0-4.7h0.1c0.7,0,1.5,0,2.2,0.1c0.6,0,1,0.3,1.1,0.9c0.1,0.2,0.1,0.5,0.1,0.8c0.2,0,0.4,0,0.6-0.1c0-0.9,0-1.8,0-2.7
			C66.2,92.7,63.5,92.7,60.7,92.7z M102.5,105.6c0-0.3,0-0.4-0.3-0.4c-0.2,0-0.3-0.1-0.5-0.1c-0.3-0.1-0.5-0.4-0.5-0.7
			c0-0.3,0-0.6,0-0.9c0-1.2,0-2.4-0.1-3.6c0-0.6,0-1.2-0.2-1.8c-0.4-0.8-0.9-1.4-1.8-1.5c-0.4-0.1-0.9,0-1.4,0
			c-0.4,0-0.8,0.2-1.1,0.5c-0.3,0.3-0.6,0.6-1,0.9c0,0-0.1,0-0.1,0.1c0-0.5-0.1-1-0.1-1.5c-1.1,0.1-2.1,0.3-3.2,0.4
			C92,97,92,97.1,92,97.2s0.1,0.2,0.2,0.2c0.1,0,0.3,0,0.4,0c0.4,0.1,0.7,0.4,0.7,0.8s0.1,0.9,0.1,1.3c0,1.7,0,3.3-0.1,5
			c0,0.4-0.3,0.7-0.7,0.8c-0.1,0-0.2,0-0.3,0c-0.3,0-0.3,0-0.3,0.3c0,0,0,0.1,0,0.2c0.1,0,0.2,0,0.2,0c1,0,2.1,0,3.1,0
			c0.4,0,0.8,0,1.2,0c0.1,0,0.2,0,0.2-0.1s0-0.2-0.1-0.2c-0.1-0.1-0.3-0.2-0.4-0.2c-0.3-0.1-0.5-0.3-0.5-0.6c0-0.4-0.1-0.8-0.1-1.3
			c0-1.3,0-2.6,0-3.9c0-0.8,0.8-1.6,1.6-1.7c0.9-0.1,1.3,0.2,1.5,0.9c0.1,0.3,0.2,0.7,0.2,1c0.1,1.6,0.1,3.2,0,4.7
			c0,0.5-0.2,0.7-0.7,0.8c-0.3,0.1-0.3,0.1-0.3,0.5C99.5,105.6,101,105.6,102.5,105.6z M107.8,89.6c0-0.3,0-0.4-0.3-0.5
			c-0.4-0.1-0.6-0.4-0.6-0.8c0-1.4,0-2.9,0-4.3c0-0.9,0.6-1.5,1.4-1.6c0.9-0.1,1.3,0.2,1.4,0.9c0.1,0.3,0.1,0.6,0.2,0.9
			c0.1,1.4,0.1,2.8,0,4.1c0,0.4-0.2,0.7-0.6,0.8c-0.3,0.1-0.3,0.2-0.3,0.5c1.4,0,2.8,0,4.1,0c0.1-0.3,0-0.4-0.3-0.4
			c-0.7-0.1-0.9-0.3-0.9-1c0-0.6-0.1-1.2-0.1-1.9c0-1-0.1-2-0.1-3c0-0.9-0.7-1.8-1.6-2c-1-0.2-2,0-2.8,0.7c-0.2,0.1-0.3,0.3-0.5,0.5
			c0-1.7,0-3.3,0-4.9c-1.1,0.1-2.2,0.3-3.2,0.4c0,0.3,0.2,0.3,0.4,0.4c0.6,0.1,0.8,0.4,0.8,1c0,2.2,0,4.4,0,6.6c0,0.8,0,1.7-0.1,2.5
			c0,0.5-0.2,0.6-0.6,0.6c-0.1,0-0.3,0.1-0.4,0.2c0,0-0.1,0.1-0.1,0.2c0,0,0.1,0.1,0.2,0.1c0.2,0,0.3,0,0.5,0
			C105.5,89.6,106.7,89.6,107.8,89.6z M81,101.1c0.1,0.5,0.1,0.9,0.2,1.4c0.3,1.4,1.1,2.5,2.5,3c1,0.4,1.9,0.4,2.9,0.2
			c1.1-0.2,1.9-0.8,2.5-1.7c0.9-1.4,1-2.8,0.6-4.4c-0.3-1.3-1.1-2.2-2.3-2.8c-1.1-0.5-2.2-0.6-3.3-0.3c-1.2,0.3-2,1-2.5,2.1
			C81.2,99.4,81,100.2,81,101.1z M108.6,105.8c0.1,0,0.4,0,0.7-0.1c1.4-0.2,2.5-1,3.2-2.3c0.6-1.2,0.7-2.4,0.4-3.7
			c-0.3-1.2-0.9-2.2-2.1-2.9c-0.9-0.5-1.9-0.6-2.9-0.5c-1.6,0.2-2.7,1-3.4,2.4c-0.4,1-0.5,2-0.4,3.1c0.1,0.9,0.5,1.8,1.1,2.5
			C106.1,105.4,107.2,105.8,108.6,105.8z M93.5,80.5c0.1,0,0.2,0,0.3,0c0.3,0,0.4-0.1,0.4-0.4c0-0.1,0-0.2,0-0.3
			c0-0.5,0.3-0.8,0.8-0.8c0.5-0.1,1-0.1,1.5-0.2c0.3,0,0.6,0,0.9-0.1c0,0.1,0,0.1,0,0.1c0,2.7,0,5.5,0,8.2c0,0.5-0.1,1-0.1,1.4
			c0,0.2-0.2,0.4-0.4,0.5c-0.2,0-0.4,0.1-0.6,0.1c-0.3,0.1-0.4,0.1-0.4,0.5c1.7,0,3.4,0,5.2,0c0-0.5,0-0.5-0.4-0.5l0,0
			c-0.5,0-0.9-0.3-0.9-0.8c-0.1-0.4-0.1-0.8-0.1-1.1c0-2.7,0-5.3,0-8c0-0.1,0-0.3,0-0.5c0.8,0.1,1.5,0.2,2.2,0.3
			c0.4,0,0.7,0.3,0.8,0.7c0.1,0.2,0.1,0.4,0.1,0.7c0,0.1,0.1,0.2,0.1,0.2c0.2,0,0.3,0,0.5,0c0-0.9,0-1.7,0-2.6c-3.3,0-6.5,0-9.7,0
			C93.6,78.8,93.6,79.6,93.5,80.5z M121.4,85.1c0-0.4-0.1-0.7-0.1-1.1c-0.1-0.9-0.6-1.7-1.3-2.2c-0.5-0.4-1.1-0.5-1.7-0.5
			c-1.4,0-2.5,0.4-3.2,1.6c-0.8,1.2-1,2.6-0.7,4c0.2,1.2,0.9,2.1,2,2.6c1.6,0.7,3.4,0.4,4.7-1.1c0.2-0.2,0.2-0.5,0-0.7
			c-0.1,0.1-0.2,0.2-0.4,0.3c-0.4,0.4-0.8,0.7-1.3,0.8c-1.1,0.4-2.1,0-2.6-1c-0.2-0.5-0.4-1-0.5-1.5c-0.1-0.3-0.1-0.7-0.1-1.1
			C118,85.1,119.7,85.1,121.4,85.1z M145,98.6c0-0.6,0-1.1,0-1.6c0-0.2-0.1-0.3-0.3-0.4c-0.9-0.3-1.8-0.4-2.7-0.3
			c-0.6,0.1-1.2,0.3-1.6,0.8c-0.9,1.1-0.8,3,0.3,3.9c0.5,0.5,1.1,0.9,1.7,1.3c0.4,0.3,0.8,0.6,1,1c0.4,0.7-0.1,1.4-0.6,1.5
			c-0.3,0-0.6,0-0.9,0.1c-0.3,0-0.6-0.1-0.7-0.4c-0.2-0.3-0.3-0.5-0.4-0.8c-0.2-0.4-0.4-0.5-0.8-0.4c-0.1,0-0.2,0.1-0.2,0.2
			c0,0.5,0,1,0,1.4c0,0.1,0.1,0.2,0.2,0.3c0.2,0.1,0.4,0.1,0.6,0.2c0.8,0.2,1.6,0.4,2.5,0.1c1.5-0.4,2.4-1.5,2.2-3.3
			c-0.1-0.5-0.3-0.9-0.7-1.2c-0.6-0.5-1.3-1-1.9-1.5c-0.3-0.3-0.7-0.5-1-0.8c-0.4-0.3-0.4-1.1-0.1-1.4c0.7-0.8,2-0.6,2.3,0.4
			c0.1,0.2,0.1,0.4,0.2,0.6c0,0.1,0.1,0.2,0.2,0.2C144.6,98.7,144.8,98.6,145,98.6z M152.7,96.8c-0.8,0-1.5,0-2.3,0
			c0-0.8,0-1.6,0-2.4c-0.3,0-0.6,0-0.9,0c-0.1,0.3-0.2,0.7-0.3,1c-0.3,0.9-0.9,1.5-1.9,1.5c-0.1,0-0.1,0.1-0.1,0.2
			c0,0.2,0,0.5,0,0.8c0.4,0,0.7,0,1.1,0c0,0.1,0,0.2,0,0.3c0,1.5,0,3,0.1,4.5c0,0.6,0.1,1.1,0.2,1.7c0.1,0.9,1.2,1.7,2.1,1.6
			c0.1,0,0.3,0,0.4,0c0.6,0,1.1-0.1,1.6-0.4c0.3-0.1,0.3-0.4,0.2-0.6c-0.3,0-0.7,0.1-1,0.1c-0.5,0-0.8-0.1-1.1-0.5
			c-0.2-0.3-0.3-0.6-0.3-0.9c0-1.8-0.1-3.6-0.1-5.5c0-0.1,0-0.1,0-0.2c0.1,0,0.2,0,0.2,0c0.5,0,1.1,0,1.6,0c0.1,0,0.2,0,0.2-0.1
			C152.5,97.4,152.6,97.1,152.7,96.8z M78.9,103.6c-0.1,0.1-0.2,0.3-0.4,0.4c-0.3,0.2-0.6,0.5-1,0.6c-1,0.4-1.9,0.1-2.5-0.8
			c-0.1-0.2-0.2-0.5-0.3-0.7c-0.3-1-0.4-2-0.3-3c0-0.6,0.1-1.2,0.3-1.8c0.3-0.7,0.7-1.1,1.5-1.1c0.8-0.1,1.3,0.1,1.5,0.9
			c0.1,0.2,0.2,0.5,0.2,0.7c0.1,0.3,0.1,0.3,0.4,0.3c0.1,0,0.1,0,0.2,0c0.2,0,0.3-0.1,0.3-0.3c0-0.6,0-1.2,0-1.8
			c0-0.1-0.1-0.1-0.1-0.2c-0.8-0.2-1.7-0.4-2.6-0.3c-1.7,0.1-2.9,0.8-3.5,2.3s-0.6,3.1-0.1,4.6c0.6,1.8,2.3,2.7,4.1,2.4
			c1-0.1,1.7-0.7,2.4-1.4c0,0,0-0.1,0-0.2C79,104,79,103.8,78.9,103.6z M136.1,96.3c-1.1,0.1-2.2,0.3-3.3,0.4
			c-0.1,0-0.1,0.1-0.2,0.1c0,0.1,0.1,0.2,0.1,0.3c0.1,0.1,0.3,0.1,0.4,0.1c0.5,0.1,0.7,0.3,0.8,0.8c0,0.1,0,0.3,0,0.4
			c0.1,1.6,0.1,3.3,0,4.9c0,0.4-0.1,0.7-0.1,1.1c0,0.3-0.2,0.5-0.6,0.5c-0.1,0-0.3,0-0.4,0.1c-0.1,0-0.2,0.1-0.3,0.2s0,0.2,0.1,0.2
			c0.2,0,0.3,0,0.5,0c1.3,0,2.6,0,4,0c0.1,0,0.3,0,0.4,0c0-0.2-0.1-0.4-0.3-0.4c-0.1,0-0.2,0-0.3,0c-0.4-0.1-0.6-0.2-0.7-0.6
			c-0.1-0.4-0.1-0.9-0.1-1.3c0-2.2,0-4.4-0.1-6.6C136.1,96.5,136.1,96.4,136.1,96.3z M133.8,93.4c0,0.7,0.5,1.2,1.2,1.2
			s1.2-0.5,1.2-1.2c0-0.7-0.5-1.3-1.2-1.3C134.4,92.1,133.8,92.7,133.8,93.4z"/>
		<path class="st1" d="M83.3,100.4c0.1-0.5,0.1-1.2,0.2-1.8c0.1-0.3,0.3-0.6,0.5-0.9c0.6-0.7,1.6-0.8,2.4-0.1
			c0.6,0.5,0.9,1.2,1.1,1.9c0.3,1.4,0.4,2.8,0,4.2c-0.1,0.4-0.3,0.8-0.7,1.1c-0.7,0.6-1.8,0.5-2.5-0.3c-0.5-0.6-0.7-1.3-0.8-2
			C83.4,101.8,83.3,101.1,83.3,100.4z"/>
		<path class="st1" d="M110.7,101.5c0,0.9-0.1,1.7-0.4,2.4c-0.2,0.5-0.6,1-1.2,1.1c-0.8,0.2-1.5-0.1-2-0.8c-0.4-0.6-0.6-1.3-0.7-2.1
			c-0.2-1-0.2-2.1,0-3.1c0.1-0.5,0.2-1,0.5-1.4c0.5-0.7,1.5-0.7,2.1-0.4c0.5,0.3,0.9,0.8,1.1,1.3c0.3,0.7,0.4,1.4,0.5,2.1
			C110.7,101,110.7,101.3,110.7,101.5z"/>
		<path class="st1" d="M119.5,84.1c-1.1,0.2-2.2,0.2-3.4,0.2c0.1-0.5,0.2-1,0.4-1.4c0-0.1,0.1-0.3,0.2-0.4c0.6-1,1.9-0.8,2.4,0
			C119.3,83,119.5,83.5,119.5,84.1z"/>
	</g>
	<g id="G7sRdQ.tif" class="st0">
		<g>
			<path class="st1" d="M209.9,78.8c0.8,0.1,1.5,0.2,2.3,0.4c2.5,0.7,4.1,2.3,4.5,4.9c0.3,1.8,0.1,3.6-1.4,4.9
				c-0.3,0.3-0.7,0.5-1,0.7c-0.1,0.1-0.2,0.1-0.4,0.2c0.2,0.1,0.3,0.1,0.4,0.2c2.2,0.9,3.4,2.7,3.6,5c0.1,1.3,0,2.6-0.5,3.8
				c-1,2.3-2.7,3.7-5.2,4.1c-1,0.2-2,0.2-2.9,0.2c-3.8,0-7.7,0-11.5,0c-0.2,0-0.3,0-0.5,0c0-8.2,0-16.3,0-24.5
				C201.4,78.8,205.6,78.8,209.9,78.8z M203.9,98c1.7,0,3.4-0.1,5.1-0.1c1.3-0.1,2.2-1.1,2.2-2.4c0-1.4-0.8-2.4-2.2-2.4
				c-1.6-0.1-3.2,0-4.9,0c-0.1,0-0.1,0-0.2,0C203.9,94.6,203.9,96.2,203.9,98z M203.8,88.3c0.2,0,0.3,0,0.5,0c1.3,0,2.6,0,3.9,0
				c0.8,0,1.4-0.3,1.8-1c0.6-1.2,0.3-3.2-1.9-3.2c-0.9,0-1.8,0-2.6,0c-0.5,0-1.1,0-1.7,0c0,0.1,0,0.2,0,0.3
				C203.8,85.7,203.8,87,203.8,88.3z"/>
			<path class="st1" d="M352,109.1c-0.8-0.1-1.6-0.2-2.3-0.4c-2.1-0.5-3.7-1.7-4.5-3.7c-0.2-0.5-0.3-1-0.5-1.6c0.2,0,0.3,0,0.4,0
				c1.7,0,3.5,0,5.2,0c0.1,0,0.4,0.1,0.4,0.2c0.6,1.2,1.7,1.4,2.8,1.3c1.4-0.2,2-0.8,2.2-2.3c0.1-0.6,0-1.3,0-1.9
				c-0.1,0-0.2,0.1-0.2,0.1c-2,2.3-5.3,2.2-7.6,1c-1.9-1.1-2.9-2.8-3.4-4.8c-0.6-2.7-0.4-5.4,0.9-7.9c0.9-1.8,2.4-3.1,4.5-3.5
				c2.3-0.4,4.3,0.1,5.8,2.2l0.1,0.1c0,0,0,0,0.1,0c0-0.6,0-1.2,0-1.8c0.1,0,0.2-0.1,0.3-0.1c1.8,0,3.6,0,5.4,0c0.1,0,0.1,0,0.2,0
				c0,5.4,0,10.8,0,16.2c-0.1,0.3-0.1,0.6-0.2,0.9c-0.6,3-2.2,5-5.2,5.7c-0.7,0.2-1.5,0.3-2.2,0.4
				C353.5,109.1,352.8,109.1,352,109.1z M356,93.9c0-0.9-0.1-1.8-0.6-2.6c-0.5-0.9-1.2-1.3-2.3-1.3c-1,0-1.7,0.5-2.1,1.4
				c-0.4,0.7-0.5,1.4-0.5,2.1c-0.1,1.1,0.1,2.2,0.7,3.2c1,1.7,3.2,1.7,4.2,0C355.9,95.9,356,94.9,356,93.9z"/>
			<path class="st1" d="M300.2,78.8c0,0.2,0,0.4,0,0.5c0,2.6,0,5.2,0,7.8c0,0.2,0,0.3,0,0.6c0.2-0.2,0.2-0.3,0.3-0.3
				c1.4-1.6,3.1-2.2,5.2-2.1c2.9,0.2,4.7,1.8,5.7,4.4c1.3,3.3,1.3,6.7,0,10c-1.7,4.2-6,4.9-8.7,3.8c-1-0.4-1.8-1.1-2.4-2
				c-0.1-0.1-0.1-0.2-0.3-0.4c0,0.8,0,1.6,0,2.3c-2,0-3.9,0-5.9,0c0-0.1,0-0.2,0-0.4c0-7.9,0-15.9,0-23.8c0-0.1,0-0.2,0-0.3
				C296.1,78.8,298.1,78.8,300.2,78.8z M305.9,94.8c0-1.7-0.2-2.8-0.7-3.6c-0.3-0.6-0.8-1.1-1.5-1.3c-1.2-0.4-2.5,0.2-3.1,1.4
				c-0.4,0.8-0.6,1.6-0.6,2.5c-0.1,1.3,0,2.6,0.7,3.7c0.6,1,1.4,1.6,2.6,1.5c1.1-0.1,1.7-0.8,2.1-1.7
				C305.8,96.4,305.9,95.4,305.9,94.8z"/>
			<path class="st1" d="M225.2,78.8c0,0.2,0,0.3,0,0.5c0,7.9,0,15.7,0,23.6c0,0.1,0,0.3,0,0.5c-2.1,0-4.2,0-6.4,0c0-0.2,0-0.3,0-0.5
				c0-7.9,0-15.7,0-23.6c0-0.2,0-0.3,0.1-0.5C221,78.8,223.1,78.8,225.2,78.8z"/>
			<path class="st1" d="M292.3,103.3c-0.2,0-0.3,0-0.4,0c-1.8,0-3.5,0-5.3,0c-0.3,0-0.4-0.1-0.4-0.4c0-3.1,0-6.1,0-9.2
				c0-0.6-0.1-1.2-0.2-1.7c-0.2-0.8-0.8-1.4-1.6-1.4c-0.9-0.1-1.6,0.2-2,1c-0.5,0.8-0.5,1.6-0.5,2.5c0,2.9,0,5.9,0,8.8
				c0,0.2,0,0.3,0,0.5c-2,0-4.1,0-6.1,0c0-0.2,0-0.3,0-0.5c0-3,0-6.1,0-9.1c0-0.6-0.1-1.2-0.2-1.8c-0.2-0.8-0.7-1.2-1.5-1.3
				s-1.4,0.1-1.9,0.8c-0.6,0.8-0.7,1.7-0.7,2.7c0,3,0,5.9,0,8.9c0,0.2,0,0.3,0,0.5c-2.1,0-4.2,0-6.3,0c0-5.8,0-11.6,0-17.4
				c1.9,0,3.9,0,5.9,0c0,0.8,0,1.7,0,2.5c0,0,0.1,0,0.1,0.1c1.1-2,2.8-3.1,5-3.2c2.3-0.1,4,0.8,5.1,3.1c0.1-0.2,0.2-0.3,0.3-0.4
				c1.4-2.1,3.5-2.8,6-2.6c3,0.3,4.5,2.4,4.9,4.8c0.1,0.8,0.2,1.6,0.2,2.3c0,3.4,0,6.9,0,10.3C292.3,103,292.3,103.1,292.3,103.3z"
				/>
			<path class="st1" d="M330.9,96.2c-3.9,0-7.8,0-11.7,0c0,1.6,0.9,2.9,2.2,3.2c1.3,0.3,2.7-0.1,3.2-1.4c0-0.1,0.2-0.2,0.3-0.2
				c1.9,0,3.8,0,5.7,0c0,0.2-0.1,0.3-0.1,0.5c-0.8,2.7-2.7,4.5-5.4,5.2c-2.2,0.6-4.5,0.5-6.6-0.3c-3.1-1.2-4.8-3.6-5.3-6.8
				c-0.4-2.3-0.1-4.6,1-6.6c1.4-2.6,3.7-4,6.7-4.4c1.9-0.2,3.6,0,5.3,0.9c2.3,1.2,3.6,3.1,4.3,5.6C330.8,93.2,331,95.3,330.9,96.2z
				 M324.7,92.7c0-1.7-1-3.1-2.7-3.2c-1.7,0-2.8,1.2-2.9,3.2C321,92.7,322.8,92.7,324.7,92.7z"/>
			<path class="st1" d="M235.9,103.9c-2.9,0-5.2-0.8-7.1-2.8c-1.2-1.3-1.9-2.9-2.1-4.6c-0.3-2.1-0.2-4.1,0.7-6.1
				c1.2-2.8,3.4-4.3,6.3-4.9c1.8-0.3,3.5-0.3,5.3,0.3c2.6,0.9,4.4,2.6,5.3,5.2c0.9,2.8,0.8,5.6-0.5,8.3c-1.3,2.6-3.5,3.9-6.2,4.4
				C236.8,103.8,236.2,103.9,235.9,103.9z M238.4,94.4c0-0.3,0-0.8-0.1-1.3c-0.1-0.9-0.3-1.8-0.9-2.6c-1-1.2-2.8-1.2-3.7,0.1
				c-0.3,0.4-0.5,0.8-0.6,1.3c-0.4,1.4-0.4,2.8-0.2,4.2c0.1,0.8,0.4,1.5,0.7,2.2c0.4,0.8,1.2,1.2,2.1,1.2c1.2-0.1,1.8-0.8,2.3-1.8
				C238.3,96.8,238.4,95.7,238.4,94.4z"/>
			<path class="st1" d="M254.8,103.9c-2.6,0-4.7-0.6-6.5-2.2c-1.5-1.3-2.3-3-2.7-5c-0.4-2.2-0.2-4.3,0.7-6.3
				c1.2-2.7,3.4-4.3,6.3-4.8c1.7-0.3,3.5-0.3,5.2,0.3c2.6,0.8,4.4,2.6,5.3,5.2c0.9,2.9,0.8,5.7-0.6,8.4c-1.3,2.5-3.5,3.8-6.2,4.3
				C255.7,103.8,255.1,103.9,254.8,103.9z M257.3,94.6c0-0.3,0-0.7-0.1-1.1c-0.1-1-0.3-1.9-0.8-2.7c-1-1.4-3-1.4-4,0.1
				c-0.2,0.3-0.4,0.7-0.5,1.1c-0.4,1.5-0.5,3-0.2,4.6c0.1,0.7,0.4,1.5,0.7,2.1c0.6,1.1,2,1.4,3,0.8c0.6-0.3,1-0.9,1.2-1.5
				C257.2,96.8,257.3,95.7,257.3,94.6z"/>
			<path class="st1" d="M344,90.9c-0.7,0-1.3,0-2,0c-1.5,0.1-2.7,0.7-3.3,2.1c-0.3,0.6-0.5,1.4-0.5,2c-0.1,2.6-0.1,5.1-0.1,7.7
				c0,0.2,0,0.4,0,0.6c-2.1,0-4.1,0-6.2,0c0-5.8,0-11.6,0-17.5c1.9,0,3.9,0,5.8,0c0,1,0,2,0,2.9h0.1c0.1-0.1,0.1-0.2,0.2-0.4
				c0.8-1.4,1.9-2.5,3.5-2.8c0.6-0.1,1.3-0.1,1.9-0.1c0.3,0,0.5,0.1,0.5,0.5c0,1.5,0,3,0,4.6C344.1,90.7,344.1,90.8,344,90.9z"/>
		</g>
	</g>
	<g id="HqrPAw_1_" class="st0">
		<path class="st1" d="M624.5,121.8c-1.9,0-3.7,0-5.6,0c0-1.5,0-3,0-4.4c0-0.7,0-1.3,0-2c0-1.6-0.1-1.6-1.8-1.5c0,1.7,0,3.4,0,5.2
			c0.3,0,0.6,0.1,0.9,0.1c0,0.8,0,1.6,0,2.5c-1.8,0-3.7,0-5.7,0c0-2.1,0-4.2,0-6.3c0-1.6-0.1-1.7-1.9-1.6c0,1.7,0,3.4,0,5.2
			c0.2,0,0.5,0.1,0.8,0.1c0,0.8,0,1.6,0,2.5c-4.5,0-9.1,0-13.7,0c0-0.8,0-1.6,0-2.5c0.8,0,1-0.6,1-1.4c-0.1-1.1-0.1-2.2,0-3.3
			c0-0.8-0.1-1.4-1.1-1.3c0-0.9,0-1.8,0-2.8c1.7,0,3.4,0,5.1,0c0.7,0,0.7,0.6,0.7,1.2c0,2.1,0.1,4.2,0,6.3c0,1,0.5,1.3,1.2,1.3
			s1.3-0.3,1.2-1.2c-0.1-1.1-0.1-2.3,0-3.5c0-0.8-0.1-1.3-1.1-1.3c0-0.9,0-1.8,0-2.8c1.6,0,3.2-0.1,4.8,0.1c0.4,0,0.7,0.8,1,1
			c1.1-0.4,2.2-1,3.4-1.2c1.3-0.2,2.6,0.2,3.1,1.7c1.2-1.2,2.5-1.9,4.2-1.8c1.6,0.1,2.5,1,2.5,2.6c0,1.7,0,3.4,0,5.1
			c0,0.4,0.4,0.8,0.6,1.2c0.1,0.2,0.2,0.3,0.2,0.5C624.5,120.4,624.5,121,624.5,121.8z"/>
		<path class="st1" d="M654,98.1c1.2,0,2.3-0.3,3.2,0.6c0.4,0.3,1.2,0.3,1.8,0.3c0.2,0,0.4-0.4,0.7-0.6c-0.2-0.2-0.4-0.5-0.6-0.5
			c-0.8-0.2-1.7-0.2-2.5-0.4c-1.6-0.4-2.4-1.4-2.5-3c-0.1-1.8,0.5-3.1,2-3.7c2.4-1,4.8-0.7,7.3-0.1c0.2,0,0.4,0.4,0.4,0.7
			c0.1,0.8,0,1.5,0,2.4c-1-0.1-2,0.3-3-0.4c-0.4-0.3-1.1-0.3-1.7-0.3c-0.3,0-0.5,0.3-0.8,0.5c0.2,0.2,0.4,0.5,0.7,0.6
			c0.4,0.1,0.8,0.1,1.3,0.2c3.2,0.5,3.5,0.8,4,3.8c0.7,0,1.4,0,2.2,0c0.3,0,0.6,0.2,0.9,0.3c0.7,0.2,1.3,0.5,2,0.6
			c0.3,0,0.6-0.4,0.9-0.6c-0.3-0.2-0.5-0.5-0.8-0.6c-0.7-0.2-1.5-0.2-2.2-0.4c-1.7-0.4-2.5-1.4-2.6-2.9c-0.1-2.1,0.6-3.3,2.2-3.9
			c2.3-0.8,4.7-0.5,7,0c0.2,0,0.4,0.3,0.4,0.5c0,0.8,0,1.6,0,2.5c-1.1-0.1-2.2,0.3-3.2-0.5c-0.4-0.3-1.1-0.3-1.6-0.2
			c-0.2,0-0.5,0.3-0.7,0.5c0.2,0.2,0.4,0.4,0.7,0.5c0.8,0.2,1.7,0.3,2.5,0.4c1.8,0.4,2.6,1.3,2.7,3c0.1,2-0.6,3.4-2.3,3.9
			c-2.4,0.8-4.9,0.6-7.4,0c-0.2,0-0.4-0.5-0.4-0.7c-0.1-0.7,0-1.4,0-2.4c-0.2,0.3-0.3,0.4-0.4,0.5c-0.3,2-1.7,2.9-3.5,3
			c-1.9,0.1-3.7-0.1-5.6-0.2c-0.7,0-1.1-0.4-1-1.1C654.1,99.7,654,99,654,98.1z"/>
		<path class="st1" d="M583.2,101.6c0-0.8,0-1.6,0-2.5c1.1,0.1,1.2-0.7,1.2-1.6c0-2.2,0-4.5,0-6.7c0-0.8-0.1-1.5-1.2-1.4
			c0-0.9,0-1.8,0-2.7c2.1,0,4.2,0,6.2,0c1.3,0,2.7,0.1,4,0.3c2.4,0.5,3.6,2.4,3,4.6c-0.3,1.3-1.4,1.7-2.6,2.2
			c0.3,0.1,0.5,0.2,0.7,0.3c1.3,0.4,2.2,1.3,2.4,2.7c0.2,1.5-0.1,2.8-1.4,3.6c-0.9,0.5-1.9,1.1-2.9,1.1
			C589.5,101.7,586.4,101.6,583.2,101.6z M589.3,98.9c0.9-0.1,1.9,0.3,2.3-0.7c0.2-0.6,0.2-1.5-0.1-2.1c-0.4-0.9-1.4-0.6-2.2-0.5
			C589.3,96.6,589.3,97.7,589.3,98.9z M589.3,92.7c1.8,0.1,2.4-0.4,2.3-1.7c0-1.1-0.7-1.5-2.3-1.4C589.3,90.6,589.3,91.6,589.3,92.7
			z"/>
		<path class="st1" d="M674.6,79c0,1,0,1.8,0,2.7c-2.2,0-4.4,0-6.6,0c-0.6,0-1.2,0.1-1.7,0.1c-0.9,0-1.8,0.1-2.6,0
			c-2-0.3-2.7-1.2-2.8-3.2c0-1.7,0-3.5,0-5.3c-0.4-0.1-0.7-0.1-1-0.2c0-0.9,0-1.8,0-2.8c0.3,0,0.6-0.1,1-0.1c0-0.9,0-1.9,0-2.8
			c1.6,0,3.1,0,4.7,0c0,0.9,0,1.8,0,2.9c0.7,0,1.2,0,1.9,0c0,1,0,1.9,0,2.9c-0.6,0-1.1,0.1-1.8,0.1c0,1.7-0.1,3.3,0,4.9
			c0.1,1.1,1.2,0.7,1.8,0.8c1,0.2,1.3-0.2,1.4-1.2c0-1.1,0-2.2,0-3.3c0-0.8,0-1.5-1.1-1.3c0-1,0-1.9,0-2.9c1.7,0,3.4-0.1,5.1,0.1
			c0.3,0,0.7,0.8,0.7,1.2c0.1,2.1,0.1,4.1,0,6.2C673.5,78.5,673.7,79,674.6,79z"/>
		<path class="st1" d="M583.2,106.9c4.7,0,9.3,0,13.9,0c0,1.9,0,3.7,0,5.6c-0.9,0-1.7,0-2.5,0c-0.2,0-0.5-0.4-0.5-0.7
			c-0.1-0.6-0.2-1.3-0.3-2c-0.4,0-0.7,0-1.2,0c0,2.9,0,5.8,0,8.6c0,0.3,0.6,0.7,1,1c0.1-0.1,0.2-0.1,0.2-0.2c0,0.8,0,1.6,0,2.5
			c-2.5,0-5,0-7.6,0c0-0.8,0-1.7,0-2.6c1.2,0.2,1.3-0.5,1.2-1.4c0-2.6,0-5.3,0-8c-0.4,0-0.7,0-1.1-0.1c-0.1,0.9-0.3,1.8-0.4,2.7
			c-1,0-1.9,0-2.9,0C583.2,110.6,583.2,108.8,583.2,106.9z"/>
		<path class="st1" d="M596.9,78.9c0.4,0,0.8,0.1,1.2,0.1c0,0.9,0,1.7,0,2.6c-2.3,0-4.6,0-6.9,0c0-0.8,0-1.6,0-2.6c1,0,1-0.7,1-1.5
			c0-1,0-2,0-3.1c0-0.8,0-1.5-1.1-1.3c0-1,0-1.9,0-2.9c1.6,0,3.2-0.1,4.8,0.1c0.4,0,0.7,0.7,1.1,1.2c1-0.9,2.3-1.5,3.9-1.4
			c1.9,0,2.8,0.9,2.8,2.8c0,1.6,0,3.2,0,4.8c0,0.7,0.1,1.3,0.9,1.3c0,0.9,0,1.7,0,2.6c-1.8,0-3.6,0-5.6,0c0-0.8,0-1.7,0-2.5
			c0-1.2,0-2.5,0-3.7c0-1.7-0.4-2-2.2-1.6C596.9,75.4,596.9,77.1,596.9,78.9z"/>
		<path class="st1" d="M634.1,79c1,0.1,1-0.6,1-1.3c0-1.1,0-2.2,0-3.3c0-0.7,0-1.4-1.1-1.2c0-1,0-1.9,0-2.9c1.6,0,3.2-0.1,4.8,0.1
			c0.4,0,0.8,0.7,1.2,1.2c1-0.9,2.3-1.5,3.9-1.4c1.8,0.1,2.7,1,2.7,2.7c0,1.7,0,3.4,0,5c0,0.4,0.4,0.7,0.6,1.1
			c0.1,0.1,0.3,0.3,0.3,0.4c0,0.7,0,1.5,0,2.3c-1.9,0-3.6,0-5.5,0c0-0.3-0.1-0.7-0.1-1c0-1.7,0-3.4,0-5.1c0-1.8-0.3-2-2.2-1.8
			c0,1.7,0,3.4,0,5.2c0.4,0,0.7,0.1,1.2,0.1c0,0.9,0,1.7,0,2.6c-2.3,0-4.6,0-6.9,0C634.1,80.7,634.1,79.9,634.1,79z"/>
		<path class="st1" d="M695.6,81.6c0-1.6,0-3.2,0-4.8c0-0.4,0-0.9,0-1.3c0-1.8-0.2-2-2.2-1.8c0,1.7,0,3.4,0,5.2
			c0.4,0,0.8,0.1,1.2,0.1c0,0.9,0,1.7,0,2.6c-2.3,0-4.6,0-7,0c0-0.9,0-1.7,0-2.6c1,0.2,1-0.5,1-1.3c0-1.1,0-2.2,0-3.4
			c0-0.7-0.1-1.3-1.1-1.1c0-1,0-1.9,0-2.9c1.6,0,3.2-0.1,4.8,0.1c0.4,0,0.8,0.7,1.2,1.2c1-0.8,2.4-1.5,4-1.4c1.7,0.1,2.6,1,2.6,2.7
			c0,1.6,0,3.3,0,4.9c0,0.3,0,0.8,0.2,0.9c1.4,0.7,0.4,1.9,0.8,3C699.3,81.6,697.5,81.6,695.6,81.6z"/>
		<path class="st1" d="M636.3,101.7c0-2.1,0-4.1,0-6.1c0-1.8-0.2-2-2.1-1.7c0,1.7,0,3.4,0,5.2c0.4,0,0.7,0.1,1.1,0.1
			c0,0.8,0,1.6,0,2.5c-2.3,0-4.6,0-6.9,0c0-0.8,0-1.6,0-2.5c0.9,0.1,1-0.5,1-1.2c0-1.1,0-2.3,0-3.5c0-0.7-0.2-1.2-1-1.2
			c0-0.9,0-1.8,0-2.8c1.6,0,3.2-0.1,4.8,0.1c0.4,0,0.8,0.7,1,1c1-0.4,2-1,3.1-1.2c2.4-0.5,3.7,0.7,3.7,3.1c0,1.5,0,3.1,0,4.6
			c0,0.4,0.4,0.7,0.6,1.1c0.1,0.2,0.3,0.3,0.3,0.5c0,0.7,0,1.4,0,2.1C640,101.7,638.2,101.7,636.3,101.7z"/>
		<path class="st1" d="M604.6,100.5c-1.2,1.2-2.7,1.6-4.5,1.4c-1.4-0.2-2.1-1-2.2-2.5c0-1.6,0-3.2,0-4.7c0-0.8-0.1-1.4-1-1.5
			c0-0.9,0-1.7,0-2.7c0.9,0,1.9,0,2.8,0s1.8,0,2.9,0c0,0.5,0,0.9,0,1.4c0,1.6,0,3.3,0,4.9c0,1.7,0.3,2,2.2,1.6c0-0.8,0-1.7,0-2.5
			c0-0.8,0-1.6,0-2.5c-0.4-0.1-0.7-0.2-1.1-0.2c0-0.9,0-1.8,0-2.7c1.9,0,3.8,0,5.8,0c0,1.7,0,3.3,0,4.9c0,0.9,0,1.7,0,2.6
			c0,0.7,0,1.2,1,1.1c0,0.9,0,1.7,0,2.6c-1.6,0-3.2,0.1-4.8-0.1C605.3,101.6,605,100.9,604.6,100.5z"/>
		<path class="st1" d="M654.2,74.8c0.1-1.1-0.1-1.5-1.3-1.4c-0.5,0-1.1,0.2-1.6,0.3c-0.8,0.2-1.7,0.4-2.6,0.6c0-1.2,0-2.1,0-3
			c0-0.2,0.3-0.5,0.5-0.6c2.3-0.6,4.7-0.9,7.1-0.4c1.8,0.4,2.7,1.5,2.7,3.5c0,1.3,0,2.7,0,4c0,0.5,0,0.9,0.6,1.2
			c0.5,0.2,0.3,2.2-0.2,2.5c-1.6,0.7-3.6,0.5-4.9-0.8c-1.1,1-2.5,1.2-3.9,1c-1.5-0.2-2.6-1.2-2.8-2.7c-0.2-1.8,0.5-3.2,2-3.6
			C651.3,75,652.7,75,654.2,74.8z M654.3,78c0.1-0.6,0-1.1-0.7-1.1s-1.2,0.3-1.2,1.1c0,0.6,0.3,1,0.9,1
			C654,79.1,654.4,78.8,654.3,78z"/>
		<path class="st1" d="M707.7,75c0.1-1.3-0.1-1.6-1.3-1.6c-0.5,0-1.1,0.2-1.6,0.3c-0.8,0.2-1.7,0.4-2.6,0.6c0-1.2,0-2.1,0-3
			c0-0.2,0.3-0.5,0.5-0.6c2.3-0.6,4.7-0.9,7.1-0.4c1.8,0.4,2.7,1.5,2.7,3.4c0,1.3,0,2.7,0,4c0,0.5,0,0.9,0.6,1.2
			c0.5,0.2,0.3,2.2-0.2,2.5c-1.6,0.7-3.6,0.5-4.9-0.8c-1.1,1-2.5,1.2-3.9,1c-1.5-0.2-2.6-1.2-2.8-2.7c-0.2-1.7,0.5-3.1,2-3.7
			c0.7-0.2,1.4-0.3,2.1-0.4C706.2,74.9,706.9,75,707.7,75z M707.8,77.9c0.2-0.6-0.1-0.9-0.8-0.9c-0.7,0-1.1,0.3-1.1,1.1
			c0,0.7,0.3,1.1,1,1C707.6,79.1,707.9,78.7,707.8,77.9z"/>
		<path class="st1" d="M674.7,75.5c0-3.3,3-5.8,7-5.4c4.1,0.3,6.5,3.7,5.4,7.7c-0.4,1.4-1.2,2.4-2.4,3.1c-2.4,1.3-4.9,1.3-7.3,0.1
			C675.5,80,674.7,78.2,674.7,75.5z M679.4,76c0.2,0.7,0.2,1.5,0.5,2.1c0.2,0.4,0.8,0.8,1.2,0.8c0.4,0,1-0.4,1.2-0.8
			c0.6-1.3,0.6-2.7,0-4.1c-0.2-0.4-0.8-0.8-1.2-0.8c-0.4,0-1,0.4-1.2,0.8C679.6,74.6,679.5,75.3,679.4,76z"/>
		<path class="st1" d="M635.9,118.3c0,0.9,0,1.6,0,2.4c0,0.2-0.3,0.6-0.5,0.7c-2.5,0.9-5.1,1.1-7.7,0.2c-1.9-0.6-2.8-2.2-3-4.1
			c-0.3-2.4,0.1-4.6,2.2-6c2.3-1.5,4.7-1.5,7.1-0.4c0.8,0.4,1.5,1.2,1.8,2c0.5,1.3,0.5,2.7,0.8,4.2c-2.6,0-4.8,0-7.1,0
			c-0.1,0.8,0.2,1.6,0.8,1.7c0.8,0.2,1.9,0.3,2.4-0.1C633.7,118.1,634.7,118.3,635.9,118.3z M631.9,114.9c-0.1-0.9-0.1-1.7-1.2-1.8
			c-0.8-0.1-1.2,0.5-1.3,1.8C630.2,114.9,631,114.9,631.9,114.9z"/>
		<path class="st1" d="M653.3,98.1c0,0.8,0.1,1.6,0,2.3c0,0.3-0.4,0.6-0.6,0.7c-2.4,0.9-5,1.1-7.4,0.3c-2.5-0.8-3.7-3.4-3.2-6.4
			c0.6-3.6,3.5-5.4,7.4-4.9c3.8,0.6,4.5,3.4,4.3,6.4c0,0.2-0.5,0.5-0.7,0.5c-1.7,0-3.5,0-5.2,0c-0.3,0-0.7,0-1,0
			c0.2,1.9,1.7,2.7,3.2,1.7C651.1,98,652.1,98.1,653.3,98.1z M649.3,94.8c0-1.3-0.3-1.9-1.1-1.9c-0.9,0-1.3,0.6-1.3,1.9
			C647.7,94.8,648.4,94.8,649.3,94.8z"/>
		<path class="st1" d="M624,77c-2.2,0-4.5,0-7.1,0c0.5,0.7,0.7,1.6,1.1,1.7c0.8,0.2,1.9,0.3,2.5-0.1c1.1-0.7,2-0.5,3.2-0.5
			c0,0.8,0,1.6,0,2.4c0,0.2-0.3,0.5-0.5,0.6c-2.5,0.9-5.1,1.1-7.7,0.2c-0.8-0.3-1.6-0.8-2-1.5c-1.4-2.1-1.4-4.4-0.4-6.7
			c1-2.1,2.9-2.9,5.1-3c0.5,0,1,0,1.5,0C622.7,70.4,624.6,72.4,624,77z M619.6,74.7c0.1-1.2-0.3-1.8-1.1-1.9
			c-0.9-0.1-1.3,0.6-1.4,1.9C618,74.7,618.8,74.7,619.6,74.7z"/>
		<path class="st1" d="M636.6,118.2c1.2,0,2.3-0.3,3.3,0.7c0.3,0.3,1.1,0.3,1.7,0.3c0.2,0,0.5-0.4,0.7-0.5c-0.2-0.2-0.4-0.5-0.7-0.6
			c-0.8-0.2-1.6-0.2-2.3-0.4c-1.8-0.4-2.6-1.4-2.7-3.1c-0.1-1.9,0.6-3.2,2.3-3.8c2.3-0.8,4.6-0.5,6.9,0c0.2,0,0.4,0.4,0.4,0.6
			c0.1,0.8,0,1.6,0,2.5c-1.1-0.1-2.1,0.3-3.1-0.5c-0.4-0.3-1.2-0.2-1.8-0.2c-0.2,0-0.4,0.3-0.6,0.5c0.2,0.2,0.3,0.4,0.5,0.5
			c0.6,0.2,1.2,0.2,1.8,0.3c2.5,0.3,3.5,1.3,3.5,3.3c0.1,2.4-1,3.9-3.4,4.1c-2,0.2-4-0.1-6-0.2c-0.5,0-0.7-0.3-0.7-0.8
			C636.7,120,636.6,119.2,636.6,118.2z"/>
		<path class="st1" d="M620.5,93.7c-1.2,0-2.3,0.2-3.2-0.5c-0.4-0.3-1.1-0.2-1.7-0.1c-0.2,0-0.3,0.3-0.5,0.5
			c0.2,0.1,0.3,0.4,0.5,0.4c0.7,0.2,1.4,0.2,2.1,0.4c2.8,0.5,4,2.4,3,5.1c-0.5,1.5-1.7,2.2-3.2,2.3c-1.9,0.1-3.9-0.1-5.9-0.2
			c-0.6,0-0.9-0.4-0.8-1.1s0-1.5,0-2.4c1.1,0.1,2.1-0.3,3.1,0.6c0.4,0.4,1.3,0.3,2,0.4c0.2,0,0.4-0.4,0.6-0.5
			c-0.2-0.2-0.4-0.5-0.6-0.6c-0.5-0.1-1.1-0.2-1.7-0.3c-2.2-0.3-3.4-1.4-3.4-3.4c-0.1-2.1,1-3.7,3.2-3.9c1.9-0.2,3.9,0.1,5.9,0.2
			c0.2,0,0.6,0.4,0.6,0.7C620.5,92.1,620.5,92.9,620.5,93.7z"/>
		<path class="st1" d="M590.8,69.4c-1.2-0.1-1.3,0.6-1.3,1.5c0,2.2,0,4.4,0,6.6c0,1.3,0,1.3,1.3,1.5c0,0.8,0,1.7,0,2.6
			c-2.5,0-5,0-7.6,0c0-0.9,0-1.7,0-2.7c1.2,0.2,1.3-0.6,1.3-1.4c0-2.2,0-4.5,0-6.7c0-0.8,0-1.6-1.3-1.4c0-1,0-1.8,0-2.8
			c2.5,0,5,0,7.6,0C590.8,67.6,590.8,68.4,590.8,69.4z"/>
		<path class="st1" d="M720.6,78.9c0,1,0,1.8,0,2.7c-2.3,0-4.6,0-6.9,0c0-0.9,0-1.7,0-2.7c1,0.1,1.1-0.5,1.1-1.4c0-2.3,0-4.7,0-7
			c0-0.8-0.1-1.3-1.1-1.2c0-0.9,0-1.8,0-2.8c1.7,0,3.4-0.1,5.2,0.1c0.3,0,0.7,0.8,0.7,1.3c0.1,3.3,0,6.6,0,9.8
			C719.5,78.5,719.6,79.1,720.6,78.9z"/>
		<path class="st1" d="M610.2,67.4c0,1,0,1.9,0,2.9c0.7,0,1.2,0,1.9,0c0,1,0,1.9,0,2.9c-0.6,0-1.2,0.1-1.8,0.1c0,1.6-0.1,3.2,0,4.8
			c0.1,1.1,1,0.9,1.8,0.9c0,0.7,0,1.5,0,2.2c0,0.2-0.3,0.5-0.4,0.5c-1.4,0-2.8,0.1-4.2-0.1c-1.4-0.2-1.9-1.2-2-2.8
			c0-1.4,0-2.9,0-4.3c0-0.4,0-0.7,0-1.1c-0.4-0.1-0.7-0.1-1.1-0.2c0-0.9,0-1.8,0-2.8c0.3,0,0.6-0.1,1-0.1c0-0.9,0-1.9,0-2.8
			C607.1,67.4,608.6,67.4,610.2,67.4z"/>
		<path class="st1" d="M633.7,70.3c0,1.2,0,2.3,0,3.4c-1,0.1-1.9,0.2-2.8,0.3c-0.2,0-0.6,0.4-0.6,0.6c-0.1,1.4,0,2.7,0,4.2
			c0.4,0,0.7,0.1,1.1,0.1c0,0.9,0,1.7,0,2.6c-2.3,0-4.5,0-6.8,0c0-0.9,0-1.7,0-2.6c1,0.2,1-0.5,1-1.2c0-1.1,0-2.2,0-3.4
			c0-1,0-1-1-1.3c0-0.9,0-1.8,0-2.8c1.6,0,3.2-0.1,4.8,0.1c0.4,0,0.8,0.7,1.2,1.1C631.1,70.5,632.2,69.9,633.7,70.3z"/>
		<path class="st1" d="M628.1,99.1c0,0.9,0,1.6,0,2.5c-2.3,0-4.5,0-6.8,0c0-0.8,0-1.6,0-2.5c0.9,0.1,1-0.5,1-1.2
			c0-1.1-0.1-2.2,0-3.3c0-0.8-0.1-1.4-1.1-1.4c0-0.9,0-1.8,0-2.8c1.7,0,3.3,0,5,0c0.7,0,0.8,0.5,0.8,1.1c0,2.1,0,4.1,0,6.2
			C627,98.5,627,99.2,628.1,99.1z"/>
		<path class="st1" d="M649.3,121.7c0.4-2.2,0.7-4.2,1.1-6.3c0-0.2,0.4-0.5,0.6-0.5c1.9,0,3.8,0,5.8,0c-0.4,2.3-0.8,4.6-1.2,6.9
			C653.5,121.7,651.4,121.7,649.3,121.7z"/>
		<path class="st1" d="M624.6,90c-1.3,0-2.2-0.8-2.2-2c0-1.2,0.9-2,2.2-2c1.3,0,2.2,0.9,2.2,2.1C626.8,89.2,625.9,90,624.6,90z"/>
		<path class="st1" d="M600.9,110.1c-1.3,0-2.1-0.8-2.1-2c0-1.2,0.9-2,2.2-2c1.3,0,2.2,0.8,2.2,2.1
			C603.1,109.4,602.2,110.1,600.9,110.1z"/>
		<path class="st1" d="M671.1,69.9c-1.3,0-2.1-0.8-2.1-2.1c0-1.2,0.9-2,2.2-2c1.3,0,2.2,0.9,2.2,2.1
			C673.3,69.1,672.5,69.9,671.1,69.9z"/>
		<path class="st1" d="M631.9,114.9c-0.9,0-1.7,0-2.5,0c0.1-1.3,0.5-1.9,1.3-1.8C631.8,113.1,631.8,114,631.9,114.9z"/>
	</g>
	<g id="i1kBpB_1_" class="st0">
		<g>
			<path class="st1" d="M402.3,84c0.5,0,1,0,1.6,0c0.2-1-0.2-2.4,1.6-2.2c1.1,0.1,1.1,0,1.4,2.2c2.8,0.1,5.6,0.3,6.6,3.7
				c0.6,2.2,0,3.8-1.8,5.5c0.8,0.9,1.9,1.8,2.3,2.8c0.4,1.1,0.6,2.5,0.3,3.6c-0.9,3.8-4,4.4-7.4,4.3c0,1.2,0.1,2.5-1.7,2.2
				c-1.1-0.2-1.1-0.1-1.2-2.1c-0.5,0-1.1,0-1.7,0c0,1.1,0,2.3-1.7,2.1c-1.5-0.1-1-1.2-1.2-2.1c-0.8-0.3-2.3,0.2-2-1.6
				c0.2-1.4,1.3-0.5,2-1c0-4.9,0-9.8,0-14.8c-0.9-0.2-2.1,0.3-2-1.4c0.1-1.5,1.1-0.8,2-1.1c0-1.2,0.2-2.6,2.1-2
				c0.5,0.2,0.8,1.1,1.2,1.7C402.4,83.8,402.4,83.9,402.3,84z M402.2,101.5c2.2,0,4.2,0,6.3,0c1.8,0,3-1.2,3.1-3.1
				c0.2-1.8-0.8-3.4-2.6-3.5c-2.2-0.2-4.5,0-6.8,0C402.2,97,402.2,99.2,402.2,101.5z M402.2,92.4c2.1,0,4.1,0.1,6.1,0
				c1.5-0.1,2.4-1.2,2.5-2.7c0.1-1.6-0.6-3-2-3.1c-2.2-0.2-4.4,0-6.6,0C402.2,88.5,402.2,90.4,402.2,92.4z"/>
			<path class="st1" d="M529.1,92c4-3.7,7.1-3.6,9.1,0.3c1.3-1.9,3-3.1,5.5-2.9c2.3,0.2,3.8,1.4,3.9,3.7c0.2,3.1,0.1,6.3,0.2,9.4
				c0,1-0.6,1.2-1.5,1.2s-1.2-0.3-1.2-1.2c0-2.4,0-4.8,0-7.2c0-2-0.6-3.1-1.7-3.3c-1.5-0.4-3.2,0.3-4,1.9c-0.5,1-0.8,2.2-0.9,3.4
				c-0.1,1.6-0.1,3.2,0,4.8c0,0.9,0,1.7-1.3,1.7c-1.4,0-1.4-0.8-1.4-1.8c0-2.2,0-4.4,0-6.7c0-2.1-0.6-3-1.7-3.3
				c-1.5-0.4-3.2,0.3-4,1.9c-0.5,1-0.8,2.2-0.9,3.4c-0.1,1.7-0.1,3.4,0,5.2c0,1-0.5,1.3-1.4,1.3c-1,0-1.3-0.4-1.3-1.3
				c0-3.7,0-7.4,0-11.2c0-0.9,0.1-1.5,1.2-1.5s1.5,0.5,1.4,1.5C529.1,91.4,529.1,91.6,529.1,92z"/>
			<path class="st1" d="M508.6,96.6c0-4.1,3.2-7.2,7.4-7.2c4.4,0,7.6,3.1,7.6,7.4c0,4.1-3.4,7.3-7.6,7.2
				C511.7,103.9,508.6,100.8,508.6,96.6z M511.3,96.7c0,2.9,2.1,5,4.8,5c2.7,0,4.8-2.2,4.7-5.1c0-2.8-2.1-4.9-4.7-4.9
				C513.4,91.6,511.3,93.8,511.3,96.7z"/>
			<path class="st1" d="M462.9,96.7c-0.1,4.2-3.3,7.3-7.6,7.2c-4.2,0-7.5-3.3-7.4-7.4c0-4.2,3.4-7.3,7.7-7.2
				C459.9,89.4,463,92.6,462.9,96.7z M460.2,96.7c0-2.8-2.1-5-4.8-5c-2.6,0-4.7,2.2-4.8,4.9c0,2.8,2,5,4.7,5.1
				C458.1,101.7,460.2,99.5,460.2,96.7z"/>
			<path class="st1" d="M475.2,92.2c1.6-2.1,3.5-3,5.9-2.8c2.3,0.2,3.8,1.5,3.9,3.8c0.2,3.1,0.1,6.3,0.1,9.4c0,0.9-0.6,1.1-1.3,1.1
				c-0.8,0-1.3-0.2-1.3-1.1c0-2.1,0-4.2,0-6.3c0-0.3,0-0.6,0-1c-0.1-1.3,0-2.8-1.6-3.3s-3.2-0.1-4.2,1.2c-0.7,1-1.2,2.3-1.4,3.5
				c-0.2,1.7-0.1,3.4-0.1,5.2c0,1,0,1.8-1.4,1.8c-1.3,0-1.3-0.7-1.3-1.7c0-3.5,0-7.1,0-10.6c0-0.9,0-1.7,1.3-1.7s1.4,0.7,1.4,1.7
				C475.1,91.5,475.1,91.7,475.2,92.2z"/>
			<path class="st1" d="M501.5,104c-3.3,0-6-1.8-7-4.8s-0.1-6.4,2.3-8.3c2.3-1.8,6.2-2.1,8.7-0.5c0.7,0.4,1.4,0.8,0.8,1.8
				c-0.6,0.9-1.2,0.7-1.9,0.3c-1.7-1.1-3.5-1.1-5.3,0c-1.8,1.1-2.3,2.8-2.2,4.8c0.3,3.4,3.8,5.4,7,3.9c0.4-0.2,0.8-0.5,1.2-0.6
				c0.4-0.1,1.3,0,1.3,0.1c0.1,0.5,0.2,1.3-0.1,1.6C505.5,103.3,503.3,104,501.5,104z"/>
			<path class="st1" d="M440.9,104.3c-3.4-0.3-6-2.1-7-5c-1-3-0.2-6.4,2.2-8.3c2.3-1.9,6.1-2.2,8.7-0.6c0.7,0.4,1.4,0.7,0.9,1.8
				c-0.6,1-1.2,0.7-2,0.3c-2.6-1.4-5.4-0.7-6.8,1.6c-1.4,2.4-0.7,5.6,1.7,6.9c1.9,1.1,3.7,0.9,5.5-0.2c0.7-0.4,1.3-1,1.9,0.1
				c0.6,1-0.1,1.6-0.8,1.9C443.8,103.3,442.3,103.8,440.9,104.3z"/>
			<path class="st1" d="M425.2,92.4c-0.4-0.5-1.2-0.9-1.3-1.4c-0.3-1.3,0.9-1,1.8-1.3c0-0.8,0-1.7,0-2.6s0.4-1.2,1.2-1.2
				c0.9,0,1.4,0.2,1.4,1.2c0,0.9,0,1.7,0,2.7c0.8,0,1.5,0,2.2,0s1.2,0.3,1.2,1.1c0,0.8-0.5,1.1-1.2,1.1s-1.3,0-2,0
				c0,2.6-0.1,4.9,0,7.3c0.1,1.2,1,1.9,2.2,2c1,0.1,1.4,0.6,1.2,1.5c-0.1,0.9-0.9,0.9-1.6,0.9c-2.8-0.1-4.6-2-4.7-4.8
				c-0.1-2.2-0.1-4.4-0.1-6.7l-0.1-0.1C425.5,92.2,425.4,92.3,425.2,92.4z"/>
			<path class="st1" d="M465.9,96.5c0-1.9,0-3.7,0-5.6c0-0.9,0.4-1.3,1.3-1.3s1.4,0.3,1.4,1.3c0,3.8,0,7.5,0,11.3
				c0,1-0.4,1.4-1.4,1.4s-1.4-0.4-1.3-1.4C465.9,100.4,465.9,98.5,465.9,96.5z"/>
			<path class="st1" d="M421.2,96.7c0,1.9,0,3.8,0,5.7c0,1-0.4,1.3-1.3,1.3c-0.8,0-1.4-0.2-1.4-1.2c0-3.9,0-7.8,0-11.7
				c0-1.1,0.7-1.1,1.5-1.1s1.3,0.3,1.2,1.2C421.2,92.8,421.2,94.8,421.2,96.7z"/>
			<path class="st1" d="M491.4,102.1c0.1,1-0.2,1.6-1.3,1.6c-1,0-1.6-0.2-1.6-1.4c0-1.1,0.4-1.6,1.5-1.6
				C490.9,100.7,491.5,101,491.4,102.1z"/>
			<path class="st1" d="M419.9,84.2c1-0.1,1.4,0.3,1.4,1.3c0,1.1-0.5,1.4-1.5,1.4s-1.3-0.5-1.3-1.4
				C418.5,84.4,418.9,84.1,419.9,84.2z"/>
			<path class="st1" d="M465.9,85.5c-0.2-1,0.4-1.3,1.3-1.3s1.4,0.2,1.4,1.3s-0.4,1.5-1.4,1.5C466.2,86.9,465.7,86.6,465.9,85.5z"/>
		</g>
	</g>
</g>
</svg>
