<?xml version="1.0" encoding="utf-8"?>
<!-- Generator: Adobe Illustrator 21.1.0, SVG Export Plug-In . SVG Version: 6.00 Build 0)  -->
<svg version="1.1" id="Ebene_1" xmlns="http://www.w3.org/2000/svg" xmlns:xlink="http://www.w3.org/1999/xlink" x="0px" y="0px"
	 viewBox="0 0 220.9 58" style="enable-background:new 0 0 220.9 58;" xml:space="preserve">
<style type="text/css">
	.st0{opacity:0.7;}
	.st1{fill:#FFFFFF;}
</style>
<g class="st0">
	<path class="st1" d="M23.6,10.1c0.2,0,0.3,0.1,0.5,0.1c1.6,0.1,3.2,0.5,4.6,1.1c1.7,0.7,3.3,1.7,4.5,3c0.2,0.2,0.3,0.2,0.6,0.2
		c5.6,0,11.2,0,16.8,0c0.1,0,0.2,0,0.3,0c-0.7,2.8-1.4,5.7-2.2,8.5c-0.1,0-0.1,0-0.2,0c-2.8,0-5.6,0-8.4,0c-0.1,0-0.2,0-0.3,0.2
		c-0.7,1.8-1.4,3.7-2.1,5.5c0,0.1,0,0.1-0.1,0.2c3.7-1.9,7.3-3.7,10.9-5.6c0,0,0,0,0,0c-6,8.5-12,17-18,25.5c0,0,0,0,0,0
		c1-3.6,2-7.2,3-10.8c-0.1,0-0.2,0.1-0.2,0.1c-2.2,1.1-4.4,2.2-6.6,3.4c-0.3,0.1-0.6,0.2-1,0.3c-1.5,0.3-3.1,0.4-4.6,0.4
		c-2.8-0.1-5.6-0.7-8-2.2c-1.2-0.7-2.3-1.5-3.1-2.6c-0.7-1-1.2-2-1.3-3.3c0-0.2,0-0.4,0-0.6c0-4.9,0-9.9,0-14.8
		c0-1.8,0.7-3.4,1.9-4.7c1.2-1.2,2.6-2.1,4.2-2.8c1.1-0.5,2.2-0.8,3.4-1c0.6-0.1,1.1-0.2,1.7-0.2c0,0,0.1,0,0.1,0
		C21.3,10.1,22.5,10.1,23.6,10.1z M32.7,21.9c-1.5,5.8-3,11.6-4.5,17.5c2.4-1.2,4.7-2.4,7.1-3.7c-0.6,2.3-1.3,4.6-1.9,6.8
		c0,0,0,0,0,0c3.8-5.3,7.5-10.7,11.3-16c0,0,0,0,0,0c-3.1,1.6-6.2,3.2-9.3,4.8c0-0.1,0-0.1,0.1-0.2c1.2-3,2.3-6,3.5-9.1
		c0-0.1,0.1-0.2,0.2-0.2c2.8,0,5.5,0,8.3,0c0.1,0,0.1,0,0.2,0c0.5-2.1,1.1-4.2,1.6-6.3c-7.9,0-15.9,0-23.8,0
		c-0.5,2.1-1.1,4.2-1.6,6.3C26.9,21.9,29.8,21.9,32.7,21.9z M22.5,23c0-0.1,0-0.1,0-0.1c0.7-2.7,1.4-5.5,2.1-8.2
		c0-0.1,0.1-0.2,0.2-0.2c2.2,0,4.3,0,6.5,0c0.1,0,0.1,0,0.3,0c-0.2-0.1-0.3-0.3-0.5-0.4c-2.2-1.7-4.7-2.5-7.4-2.8
		c-0.9-0.1-1.7-0.1-2.6-0.1c-1.2,0-2.4,0.2-3.6,0.4c-1.8,0.4-3.4,1.1-4.9,2.2c-0.8,0.6-1.6,1.3-2.1,2.2c-0.9,1.8-0.9,3.5,0.2,5.2
		c0.6,1,1.5,1.7,2.4,2.3c1.4,0.9,2.9,1.5,4.5,1.9c1.1,0.2,2.1,0.4,3.2,0.4c0.9,0,1.9,0,2.8-0.1c1.1-0.1,2.1-0.3,3.2-0.6
		c1.2-0.4,2.4-0.9,3.5-1.6c0.2-0.1,0.4-0.3,0.6-0.4c0.1-0.1,0.1-0.1,0.1-0.2C28.3,23,25.5,23,22.5,23z M9.9,27.1c0,0.6,0,1.1,0,1.7
		c0,0.5,0.1,1,0.2,1.5c0.4,1.1,1.1,2,1.9,2.7c1.4,1.2,3.1,2,4.9,2.5c1.2,0.3,2.4,0.5,3.6,0.6c0.6,0,1.2,0,1.8,0
		c0.9,0,1.8-0.1,2.7-0.3c0.9-0.2,1.9-0.4,2.7-0.8c0.1,0,0.2,0,0.4-0.1c0.4-1.4,0.7-2.8,1.1-4.2c-0.3,0.1-0.6,0.2-0.8,0.3
		c-0.9,0.3-1.8,0.6-2.7,0.8c-1,0.2-2.1,0.3-3.1,0.4c-0.8,0-1.6,0-2.4-0.1c-1.3-0.1-2.5-0.3-3.7-0.7c-1.8-0.5-3.5-1.4-5-2.6
		C10.9,28.4,10.4,27.8,9.9,27.1z M9.9,22.3c0,0.6,0,1.2,0,1.8c0.1,1,0.5,1.9,1.1,2.6c0.9,1.1,2,1.9,3.2,2.5c1.9,1,4,1.4,6.1,1.6
		c1.1,0.1,2.2,0,3.2-0.1c0.7-0.1,1.5-0.2,2.2-0.3c1.3-0.3,2.5-0.7,3.6-1.3c0.1,0,0.2-0.1,0.3-0.1c0.3-1.3,0.7-2.6,1-4
		c-0.1,0.1-0.2,0.1-0.3,0.2c-0.7,0.3-1.4,0.7-2.1,1c-1,0.4-2.1,0.7-3.2,0.8c-0.9,0.1-1.7,0.2-2.6,0.2c-1.2,0.1-2.4,0-3.6-0.2
		c-1.3-0.2-2.6-0.5-3.9-1C13.1,25.2,11.3,24.1,9.9,22.3z M9.9,32.3c0,0.5,0,1,0,1.5c0,0.7,0.2,1.3,0.5,1.9c0.5,1.1,1.4,2,2.4,2.7
		c2.1,1.5,4.5,2.2,7.1,2.5c1.2,0.1,2.3,0.1,3.5,0c1-0.1,1.9-0.2,2.9-0.5c0.2,0,0.4-0.1,0.6-0.1c0.3-1.3,0.7-2.6,1-3.9
		c-0.1,0-0.1,0-0.2,0c-0.5,0.1-1,0.3-1.5,0.4c-1.1,0.3-2.3,0.4-3.5,0.5c-0.8,0-1.6,0-2.4-0.1c-1.3-0.1-2.7-0.3-3.9-0.7
		C13.8,35.7,11.6,34.4,9.9,32.3z"/>
	<path class="st1" d="M90.3,35.8c0-3.4,0-6.9,0-10.3c0,0,0,0,0-0.1c0.7,0,1.3,0,2,0c0.1,0,0.2,0.1,0.3,0.2c1.5,2,2.9,4,4.4,6
		c0.1,0.1,0.1,0.2,0.3,0.3c0-2.2,0-4.4,0-6.6c0.7,0,1.4,0,2.1,0c0,3.5,0,7,0,10.4c-0.7,0-1.4,0-2.1,0c-0.1-0.1-0.1-0.2-0.2-0.3
		c-1.4-1.9-2.8-3.8-4.2-5.7c-0.1-0.2-0.3-0.4-0.5-0.6c0,2.3,0,4.4,0,6.6C91.8,35.8,91.1,35.8,90.3,35.8z"/>
	<path class="st1" d="M165.1,35.8c0-3.4,0-6.9,0-10.3c0,0,0-0.1,0-0.1c0.1,0,0.2,0,0.3,0c1.6,0,3.1,0,4.7,0c1.7,0,3.2,1.5,3.3,3.2
		c0.1,1.6-0.6,2.7-1.9,3.5c-0.1,0.1-0.2,0.1-0.3,0.2c0.6,0.8,1.2,1.5,1.7,2.3c0.3,0.4,0.6,0.9,0.9,1.3c-0.9,0-1.7,0-2.6,0
		c-0.8-1.1-1.6-2.1-2.4-3.2c0-0.1-0.1-0.1-0.2-0.1c-0.5,0-1,0-1.5,0c0,1.1,0,2.2,0,3.3C166.5,35.8,165.8,35.8,165.1,35.8z
		 M167.2,30.8c0.9,0,1.8,0,2.6,0c1-0.1,1.7-0.8,1.6-1.8c0-0.9-0.8-1.6-1.8-1.6c-0.7,0-1.3,0-2,0c-0.2,0-0.3,0-0.5,0
		C167.2,28.6,167.2,29.6,167.2,30.8z"/>
	<path class="st1" d="M139.1,35.8c0-3.3,0-6.7,0-10c0-0.1,0-0.3,0-0.4c2.6,0,5.1,0,7.6,0c0,0.7,0,1.4,0,2.1c-1.8,0-3.6,0-5.4,0
		c0,0.7,0,1.4,0,2.2c1.6,0,3.2,0,4.8,0c0,0.7,0,1.3,0,2c-1.6,0-3.2,0-4.8,0c0,0.7,0,1.4,0,2.1c1.8,0,3.6,0,5.4,0c0,0.7,0,1.4,0,2.1
		C144.2,35.8,141.7,35.8,139.1,35.8z"/>
	<path class="st1" d="M115.9,35.8c0-3.2,0-6.3,0-9.5c0-0.3,0-0.6,0-1c2.6,0,5.1,0,7.6,0c0,0.7,0,1.4,0,2.1c-1.8,0-3.6,0-5.5,0
		c0,0.7,0,1.4,0,2.1c1.6,0,3.2,0,4.8,0c0,0.7,0,1.3,0,2c-1.6,0-3.2,0-4.8,0c0,0.7,0,1.4,0,2.1c1.8,0,3.6,0,5.5,0c0,0.7,0,1.4,0,2.1
		C121,35.8,118.5,35.8,115.9,35.8z"/>
	<path class="st1" d="M203.5,35.8c0-3.5,0-6.9,0-10.4c0.7,0,1.4,0,2.1,0c0,1.4,0,2.8,0,4.2c1.5,0,3,0,4.4,0c0-1.4,0-2.8,0-4.3
		c0.7,0,1.5,0,2.2,0c0,3.5,0,7,0,10.5c-0.7,0-1.4,0-2.1,0c0-1.4,0-2.8,0-4.2c-1.5,0-3,0-4.5,0c0,1.4,0,2.8,0,4.2
		C204.9,35.8,204.2,35.8,203.5,35.8z"/>
	<path class="st1" d="M155.6,35.8c-0.3-0.1-0.6-0.1-1-0.2c-2.5-0.7-4-3.2-3.7-5.7c0.2-2,2-4,4-4.4c1.9-0.4,4,0.3,5,1.7
		c-0.5,0.5-1,0.9-1.5,1.4c-0.3-0.2-0.5-0.5-0.9-0.7c-2.2-1.2-4.6,0.3-4.6,2.6c0,1.4,0.5,2.5,1.7,3.1c1.1,0.6,2.2,0.4,3.3-0.1
		c0.4-0.2,0.6-0.4,0.5-0.9c0-0.3,0-0.7,0-1.1c-0.9,0-1.7,0-2.5,0c0-0.6,0-1.1,0-1.6c1.5,0,3,0,4.5,0c0,0.2,0,0.4,0,0.6
		c0,1.1,0,2.2,0,3.3c0,0.2-0.1,0.3-0.2,0.5c-1,0.7-2,1.2-3.2,1.4c0,0-0.1,0-0.1,0.1C156.5,35.8,156,35.8,155.6,35.8z"/>
	<path class="st1" d="M176.7,35.8c1.5-3.4,3-6.8,4.4-10.2c0.1-0.2,0.2-0.2,0.4-0.2c0.6,0,1.2,0,1.8,0c0.1,0,0.3,0.1,0.3,0.2
		c1.5,3.4,2.9,6.7,4.4,10.1c0,0,0,0.1,0,0.1c-0.8,0-1.6,0-2.3,0c-0.3-0.7-0.6-1.5-0.9-2.2c-0.1-0.2-0.2-0.3-0.4-0.3
		c-1.3,0-2.7,0-4,0c-0.2,0-0.3,0.1-0.4,0.3c-0.3,0.7-0.6,1.5-1,2.2C178.2,35.8,177.5,35.8,176.7,35.8z M182.4,28
		c-0.5,1.2-1,2.4-1.5,3.5c1,0,2,0,3,0C183.4,30.4,182.9,29.2,182.4,28z"/>
	<path class="st1" d="M191.6,35.8c0-0.1,0-0.2,0-0.3c0-3.3,0-6.6,0-9.9c0-0.1,0-0.2,0-0.3c0.1,0,0.3,0,0.4,0c1.5,0,3.1,0,4.6,0
		c1.7,0,3.2,1.4,3.4,3.1c0.2,2.2-1.4,3.7-2.8,3.9c-0.7,0.1-1.3,0.1-2,0.1c-0.5,0-1,0-1.5,0c0,0.1,0,0.3,0,0.4c0,0.9,0,1.7,0,2.6
		c0,0.1,0,0.2-0.1,0.4C192.9,35.8,192.3,35.8,191.6,35.8z M193.7,30.8c0.9,0,1.8,0.1,2.7,0c1-0.1,1.6-0.9,1.5-1.8
		c-0.1-0.9-0.8-1.5-1.8-1.5c-0.5,0-1,0-1.5,0c-0.3,0-0.6,0-1,0C193.7,28.6,193.7,29.6,193.7,30.8z"/>
	<path class="st1" d="M106.5,35.8c0-2.8,0-5.5,0-8.3c-1.1,0-2.2,0-3.3,0c0-0.7,0-1.4,0-2.1c2.9,0,5.8,0,8.7,0c0,0.7,0,1.4,0,2.1
		c-1.1,0-2.2,0-3.3,0c0,2.8,0,5.6,0,8.3C107.9,35.8,107.2,35.8,106.5,35.8z"/>
	<path class="st1" d="M128,35.8c0-0.1,0-0.2,0-0.3c0-3.3,0-6.5,0-9.8c0-0.1,0-0.2,0-0.3c0.7,0,1.4,0,2.1,0c0,2.8,0,5.5,0,8.3
		c1.7,0,3.4,0,5.1,0c0,0.7,0,1.4,0,2.1C132.8,35.8,130.4,35.8,128,35.8z"/>
	<path class="st1" d="M83.3,35.8c0-3.5,0-6.9,0-10.4c0.7,0,1.4,0,2.1,0c0,3.5,0,7,0,10.4C84.7,35.8,84,35.8,83.3,35.8z"/>
	<path class="st1" d="M78.7,30.5c0,2.9-2.3,5.2-5.2,5.2c-2.9,0-5.2-2.4-5.2-5.2c0-2.9,2.5-5.3,5.4-5.2
		C76.4,25.4,78.7,27.7,78.7,30.5z M73.5,27.4c-1.7,0-3.1,1.3-3.1,3.1c0,1.7,1.3,3.1,3,3.1c1.7,0,3.1-1.3,3.2-3
		C76.6,28.8,75.3,27.5,73.5,27.4z"/>
	<path class="st1" d="M64.5,27.2c-0.5,0.5-1,1-1.5,1.5c-0.7-1-1.8-1.3-3-1.2c-0.8,0.1-1.4,0.5-1.9,1.1c-0.9,1-1,2.9,0.2,4.1
		c1,1.1,3.2,1.5,4.7-0.2c0.5,0.5,1,0.9,1.5,1.4c-1.7,2.2-5.2,2.4-7.3,0.6c-2.3-2-2.5-5.8,0-7.9C59.2,24.8,62.6,24.8,64.5,27.2z"/>
</g>
</svg>
