<?xml version="1.0" encoding="utf-8"?>
<!-- Generator: Adobe Illustrator 19.2.0, SVG Export Plug-In . SVG Version: 6.00 Build 0)  -->
<svg version="1.1" id="Ebene_1" xmlns="http://www.w3.org/2000/svg" xmlns:xlink="http://www.w3.org/1999/xlink" x="0px" y="0px"
	 viewBox="0 0 46 56" style="enable-background:new 0 0 46 56;" xml:space="preserve">
<style type="text/css">
	.st0{fill:#FFFFFF;stroke:#1F1F2D;stroke-width:2;stroke-linecap:round;stroke-miterlimit:10;}
	.st1{fill:none;stroke:#000000;stroke-width:2;stroke-miterlimit:10;}
</style>
<g>
	<rect x="0.6" y="0.7" class="st0" width="44.7" height="54.7"/>
	<path class="st1" d="M37.2,42.3c-2.4-1-4.9-2.1-7.1-3.5c-0.1-0.1-0.3-0.2-0.4-0.3c-0.8-0.4-1-1.2-0.9-2c0-0.2,0.1-0.3,0.2-0.4
		c1.1-1.3,1.8-2.8,2.4-4.4c0.1-0.2,0.2-0.5,0.4-0.6c1.2-1.3,1.4-3.2,0.7-4.8c-0.1-0.3-0.2-0.6-0.2-0.9c0-1.4,0-2.9-0.1-4.3
		c-0.2-3.9-2.7-6.7-6.5-7.4c-2.2-0.4-4.4-0.4-6.6,0.5c-3,1.1-4.9,3.9-5,7.1c0,0.7,0,1.4,0,2.1c0,0,0,0,0,0c0,0.3,0,0.7,0,1
		c0,0.8-0.1,1.5-0.4,2.3c-0.6,1.6-0.3,3.1,0.9,4.4c0.1,0.2,0.3,0.4,0.3,0.6c0.6,1.6,1.3,3.1,2.4,4.4c0.3,0.4,0.3,1.6-0.1,1.9
		c-0.5,0.4-1,0.8-1.6,1.1c-2.2,1.1-4.5,2.2-6.7,3.2"/>
</g>
</svg>
