<?xml version="1.0" encoding="utf-8"?>
<!-- Generator: Adobe Illustrator 21.1.0, SVG Export Plug-In . SVG Version: 6.00 Build 0)  -->
<svg version="1.1" id="Ebene_1" xmlns="http://www.w3.org/2000/svg" xmlns:xlink="http://www.w3.org/1999/xlink" x="0px" y="0px"
	 viewBox="0 0 920.1 366.6" style="enable-background:new 0 0 920.1 366.6;" xml:space="preserve">
<style type="text/css">
	.st0{fill:#FFFFFF;}
	.st1{fill:none;stroke:#FFFFFF;stroke-width:2;stroke-miterlimit:10;}
	.st2{fill:#3EAD54;}
	.st3{fill:none;stroke:#3EAD54;stroke-width:4;stroke-miterlimit:10;}
</style>
<g>
	<g>
		<path class="st0" d="M363.2,145.1c0.9,0,1.7,0.1,2.4,0.3c0.7,0.2,1.2,0.5,1.7,0.9c0.4,0.4,0.8,0.9,1,1.4s0.3,1.1,0.3,1.8
			s-0.1,1.3-0.3,1.9c-0.2,0.6-0.6,1-1,1.5c-0.4,0.4-1,0.7-1.7,0.9s-1.5,0.3-2.4,0.3h-1.9v4.9h-2.6v-13.9L363.2,145.1L363.2,145.1z
			 M363.2,152.1c0.5,0,0.9-0.1,1.2-0.2s0.6-0.3,0.9-0.5s0.4-0.5,0.5-0.8s0.2-0.7,0.2-1.1c0-0.4-0.1-0.7-0.2-1s-0.3-0.6-0.5-0.8
			s-0.5-0.4-0.9-0.5s-0.8-0.2-1.3-0.2h-1.9v5h2L363.2,152.1L363.2,152.1z"/>
		<path class="st0" d="M381.5,159h-2.3c-0.4,0-0.8-0.2-1-0.5l-2.9-4.5c-0.1-0.2-0.2-0.3-0.4-0.4c-0.1-0.1-0.3-0.1-0.6-0.1h-1.1v5.4
			h-2.6V145h4.2c0.9,0,1.8,0.1,2.4,0.3s1.2,0.5,1.7,0.8s0.8,0.8,1,1.3s0.3,1,0.3,1.6c0,0.5-0.1,0.9-0.2,1.3
			c-0.1,0.4-0.3,0.8-0.6,1.1s-0.6,0.6-1,0.9c-0.4,0.3-0.8,0.5-1.3,0.6c0.2,0.1,0.3,0.2,0.5,0.3c0.1,0.1,0.3,0.3,0.4,0.5L381.5,159z
			 M374.8,151.7c0.5,0,0.9-0.1,1.3-0.2c0.4-0.1,0.7-0.3,0.9-0.5c0.2-0.2,0.4-0.5,0.5-0.8s0.2-0.6,0.2-1c0-0.7-0.2-1.2-0.7-1.6
			s-1.2-0.6-2.1-0.6h-1.7v4.6h1.6L374.8,151.7L374.8,151.7z"/>
		<path class="st0" d="M396.1,152.1c0,1-0.2,2-0.5,2.8c-0.3,0.9-0.8,1.6-1.4,2.3c-0.6,0.6-1.4,1.1-2.2,1.5c-0.9,0.4-1.8,0.5-2.9,0.5
			s-2-0.2-2.9-0.5s-1.6-0.9-2.2-1.5s-1.1-1.4-1.4-2.3c-0.3-0.9-0.5-1.8-0.5-2.8s0.2-2,0.5-2.8c0.3-0.9,0.8-1.6,1.4-2.3
			c0.6-0.6,1.4-1.1,2.2-1.5s1.8-0.5,2.9-0.5c0.7,0,1.4,0.1,2,0.2s1.2,0.4,1.7,0.7s1,0.7,1.4,1.1c0.4,0.4,0.8,0.9,1.1,1.4
			c0.3,0.5,0.5,1.1,0.7,1.7C396,150.7,396.1,151.4,396.1,152.1z M393.4,152.1c0-0.8-0.1-1.5-0.3-2.1s-0.5-1.1-0.9-1.5
			s-0.8-0.7-1.4-1c-0.5-0.2-1.2-0.3-1.8-0.3c-0.7,0-1.3,0.1-1.8,0.3s-1,0.5-1.4,1s-0.7,0.9-0.9,1.5c-0.2,0.6-0.3,1.3-0.3,2.1
			s0.1,1.5,0.3,2.1c0.2,0.6,0.5,1.1,0.9,1.5s0.8,0.7,1.4,1c0.5,0.2,1.2,0.3,1.8,0.3c0.7,0,1.3-0.1,1.8-0.3s1-0.5,1.4-1
			c0.4-0.4,0.7-0.9,0.9-1.5S393.4,152.8,393.4,152.1z"/>
		<path class="st0" d="M411.6,152.1c0,1-0.2,2-0.5,2.8c-0.3,0.9-0.8,1.6-1.4,2.3c-0.6,0.6-1.4,1.1-2.2,1.5c-0.9,0.4-1.8,0.5-2.9,0.5
			s-2-0.2-2.9-0.5s-1.6-0.9-2.2-1.5s-1.1-1.4-1.4-2.3c-0.3-0.9-0.5-1.8-0.5-2.8s0.2-2,0.5-2.8c0.3-0.9,0.8-1.6,1.4-2.3
			c0.6-0.6,1.4-1.1,2.2-1.5s1.8-0.5,2.9-0.5c0.7,0,1.4,0.1,2,0.2s1.2,0.4,1.7,0.7s1,0.7,1.4,1.1c0.4,0.4,0.8,0.9,1.1,1.4
			c0.3,0.5,0.5,1.1,0.7,1.7C411.6,150.7,411.6,151.4,411.6,152.1z M409,152.1c0-0.8-0.1-1.5-0.3-2.1s-0.5-1.1-0.9-1.5
			s-0.8-0.7-1.4-1c-0.5-0.2-1.2-0.3-1.8-0.3c-0.7,0-1.3,0.1-1.8,0.3s-1,0.5-1.4,1s-0.7,0.9-0.9,1.5c-0.2,0.6-0.3,1.3-0.3,2.1
			s0.1,1.5,0.3,2.1c0.2,0.6,0.5,1.1,0.9,1.5s0.8,0.7,1.4,1c0.5,0.2,1.2,0.3,1.8,0.3c0.7,0,1.3-0.1,1.8-0.3s1-0.5,1.4-1
			c0.4-0.4,0.7-0.9,0.9-1.5S409,152.8,409,152.1z"/>
		<path class="st0" d="M416.5,147.1v4.1h5.2v2.1h-5.2v5.7h-2.6v-13.9h8.8v2.1h-6.2L416.5,147.1L416.5,147.1z"/>
		<path class="st0" d="M442.3,152.1c0,1-0.2,2-0.5,2.8c-0.3,0.9-0.8,1.6-1.4,2.3c-0.6,0.6-1.4,1.1-2.2,1.5c-0.9,0.4-1.8,0.5-2.9,0.5
			s-2-0.2-2.9-0.5s-1.6-0.9-2.2-1.5s-1.1-1.4-1.4-2.3c-0.3-0.9-0.5-1.8-0.5-2.8s0.2-2,0.5-2.8c0.3-0.9,0.8-1.6,1.4-2.3
			c0.6-0.6,1.4-1.1,2.2-1.5s1.8-0.5,2.9-0.5c0.7,0,1.4,0.1,2,0.2s1.2,0.4,1.7,0.7s1,0.7,1.4,1.1c0.4,0.4,0.8,0.9,1.1,1.4
			c0.3,0.5,0.5,1.1,0.7,1.7C442.3,150.7,442.3,151.4,442.3,152.1z M439.7,152.1c0-0.8-0.1-1.5-0.3-2.1s-0.5-1.1-0.9-1.5
			s-0.8-0.7-1.4-1c-0.5-0.2-1.2-0.3-1.8-0.3c-0.7,0-1.3,0.1-1.8,0.3s-1,0.5-1.4,1s-0.7,0.9-0.9,1.5c-0.2,0.6-0.3,1.3-0.3,2.1
			s0.1,1.5,0.3,2.1c0.2,0.6,0.5,1.1,0.9,1.5s0.8,0.7,1.4,1c0.5,0.2,1.2,0.3,1.8,0.3c0.7,0,1.3-0.1,1.8-0.3s1-0.5,1.4-1
			c0.4-0.4,0.7-0.9,0.9-1.5S439.7,152.8,439.7,152.1z"/>
		<path class="st0" d="M447.2,147.1v4.1h5.2v2.1h-5.2v5.7h-2.6v-13.9h8.8v2.1h-6.2L447.2,147.1L447.2,147.1z"/>
		<path class="st0" d="M478.2,145.1l-4.3,13.9h-2.3l-3-9.5c-0.1-0.2-0.2-0.5-0.2-0.8c0,0.2-0.1,0.3-0.1,0.5c0,0.1-0.1,0.3-0.1,0.4
			l-3.1,9.5h-2.4l-4.3-13.9h2.2c0.2,0,0.4,0.1,0.6,0.2c0.2,0.1,0.3,0.2,0.3,0.4l2.4,8.3c0.1,0.2,0.1,0.4,0.1,0.7
			c0,0.2,0.1,0.5,0.1,0.8c0.1-0.3,0.1-0.5,0.2-0.8c0.1-0.2,0.1-0.5,0.2-0.7l2.7-8.3c0.1-0.1,0.2-0.3,0.3-0.4s0.3-0.2,0.6-0.2h0.8
			c0.2,0,0.4,0.1,0.5,0.2c0.1,0.1,0.2,0.2,0.3,0.4l2.7,8.3c0.1,0.4,0.3,0.9,0.4,1.4c0.1-0.5,0.2-1,0.3-1.4l2.4-8.3
			c0-0.2,0.1-0.3,0.3-0.4c0.2-0.1,0.3-0.2,0.6-0.2L478.2,145.1L478.2,145.1z"/>
		<path class="st0" d="M492.9,152.1c0,1-0.2,2-0.5,2.8c-0.3,0.9-0.8,1.6-1.4,2.3c-0.6,0.6-1.4,1.1-2.2,1.5c-0.9,0.4-1.8,0.5-2.9,0.5
			s-2-0.2-2.9-0.5s-1.6-0.9-2.2-1.5s-1.1-1.4-1.4-2.3c-0.3-0.9-0.5-1.8-0.5-2.8s0.2-2,0.5-2.8c0.3-0.9,0.8-1.6,1.4-2.3
			c0.6-0.6,1.4-1.1,2.2-1.5s1.8-0.5,2.9-0.5c0.7,0,1.4,0.1,2,0.2s1.2,0.4,1.7,0.7s1,0.7,1.4,1.1c0.4,0.4,0.8,0.9,1.1,1.4
			c0.3,0.5,0.5,1.1,0.7,1.7C492.8,150.7,492.9,151.4,492.9,152.1z M490.2,152.1c0-0.8-0.1-1.5-0.3-2.1s-0.5-1.1-0.9-1.5
			s-0.8-0.7-1.4-1c-0.5-0.2-1.2-0.3-1.8-0.3c-0.7,0-1.3,0.1-1.8,0.3s-1,0.5-1.4,1s-0.7,0.9-0.9,1.5c-0.2,0.6-0.3,1.3-0.3,2.1
			s0.1,1.5,0.3,2.1c0.2,0.6,0.5,1.1,0.9,1.5s0.8,0.7,1.4,1c0.5,0.2,1.2,0.3,1.8,0.3c0.7,0,1.3-0.1,1.8-0.3s1-0.5,1.4-1
			c0.4-0.4,0.7-0.9,0.9-1.5S490.2,152.8,490.2,152.1z"/>
		<path class="st0" d="M506.1,159h-2.3c-0.4,0-0.8-0.2-1-0.5l-2.9-4.5c-0.1-0.2-0.2-0.3-0.4-0.4c-0.1-0.1-0.3-0.1-0.6-0.1h-1.1v5.4
			h-2.6V145h4.2c0.9,0,1.8,0.1,2.4,0.3s1.2,0.5,1.7,0.8s0.8,0.8,1,1.3s0.3,1,0.3,1.6c0,0.5-0.1,0.9-0.2,1.3
			c-0.1,0.4-0.3,0.8-0.6,1.1s-0.6,0.6-1,0.9c-0.4,0.3-0.8,0.5-1.3,0.6c0.2,0.1,0.3,0.2,0.5,0.3c0.1,0.1,0.3,0.3,0.4,0.5L506.1,159z
			 M499.4,151.7c0.5,0,0.9-0.1,1.3-0.2c0.4-0.1,0.7-0.3,0.9-0.5c0.2-0.2,0.4-0.5,0.5-0.8s0.2-0.6,0.2-1c0-0.7-0.2-1.2-0.7-1.6
			s-1.2-0.6-2.1-0.6h-1.7v4.6h1.6L499.4,151.7L499.4,151.7z"/>
		<path class="st0" d="M510.2,150.9h0.6c0.2,0,0.4,0,0.6-0.1s0.3-0.2,0.4-0.3l3.8-4.9c0.2-0.2,0.3-0.3,0.5-0.4
			c0.2-0.1,0.4-0.1,0.7-0.1h2.2l-4.7,5.8c-0.3,0.4-0.6,0.6-0.9,0.8c0.2,0.1,0.4,0.2,0.6,0.3c0.2,0.1,0.3,0.3,0.5,0.5l4.8,6.5H517
			c-0.3,0-0.5,0-0.7-0.1s-0.3-0.2-0.4-0.4l-3.9-5.1c-0.1-0.2-0.3-0.3-0.4-0.4c-0.2-0.1-0.4-0.1-0.7-0.1h-0.8v6.1h-2.6v-13.9h2.6v5.8
			L510.2,150.9L510.2,150.9z"/>
	</g>
	<line class="st1" x1="356.8" y1="129" x2="569.1" y2="129"/>
	<g>
		<g>
			<path class="st2" d="M521.1,246v23.3H517V246l-21-33.3h3.6c0.4,0,0.7,0.1,0.9,0.3c0.2,0.2,0.4,0.4,0.6,0.7l16.2,26
				c0.3,0.6,0.7,1.2,1,1.8s0.5,1.1,0.8,1.7c0.2-0.6,0.5-1.1,0.7-1.7c0.3-0.6,0.6-1.2,0.9-1.8l16.2-26c0.1-0.3,0.3-0.5,0.6-0.7
				s0.6-0.3,0.9-0.3h3.6L521.1,246z"/>
			<path class="st2" d="M585.2,265.9l-0.1,3.4h-33.9v-56.6h33.9v3.4h-29.8V239h24.8v3.3h-24.8v23.6H585.2z"/>
			<path class="st2" d="M625.1,219.6c-0.2,0.5-0.6,0.7-1,0.7c-0.3,0-0.8-0.2-1.3-0.7s-1.3-1-2.2-1.6s-2.1-1.2-3.5-1.7
				s-3.1-0.8-5.2-0.8s-3.9,0.3-5.4,0.9c-1.6,0.6-2.9,1.4-3.9,2.4c-1.1,1-1.9,2.2-2.4,3.5s-0.8,2.7-0.8,4.2c0,1.9,0.4,3.5,1.2,4.8
				s1.9,2.3,3.2,3.2s2.8,1.6,4.5,2.2s3.4,1.2,5.2,1.8s3.5,1.2,5.2,1.9s3.2,1.6,4.5,2.7c1.3,1.1,2.4,2.4,3.2,3.9
				c0.8,1.6,1.2,3.5,1.2,5.8c0,2.4-0.4,4.6-1.2,6.7s-2,3.9-3.5,5.5c-1.5,1.5-3.4,2.8-5.7,3.7c-2.2,0.9-4.8,1.3-7.7,1.3
				c-3.7,0-6.9-0.7-9.6-2c-2.7-1.3-5.1-3.1-7.1-5.4l1.1-1.8c0.3-0.4,0.7-0.6,1.1-0.6c0.2,0,0.5,0.2,0.9,0.5s0.8,0.7,1.4,1.2
				c0.5,0.5,1.2,1,1.9,1.5s1.6,1.1,2.6,1.5c1,0.5,2.1,0.9,3.4,1.2s2.7,0.5,4.4,0.5c2.2,0,4.2-0.3,6-1s3.2-1.6,4.5-2.8
				c1.2-1.2,2.1-2.6,2.8-4.2c0.6-1.6,1-3.3,1-5.2c0-2-0.4-3.6-1.2-4.9c-0.8-1.3-1.9-2.4-3.2-3.2c-1.3-0.9-2.8-1.6-4.5-2.2
				c-1.7-0.6-3.4-1.2-5.2-1.7c-1.8-0.6-3.5-1.2-5.2-1.9s-3.2-1.6-4.5-2.7c-1.3-1.1-2.4-2.4-3.2-4s-1.2-3.6-1.2-6.1
				c0-1.9,0.4-3.7,1.1-5.5s1.8-3.3,3.2-4.7c1.4-1.3,3.1-2.4,5.1-3.2s4.4-1.2,7-1.2c2.9,0,5.6,0.5,7.9,1.4c2.3,0.9,4.5,2.4,6.4,4.3
				L625.1,219.6z"/>
		</g>
	</g>
	<g>
		<path class="st0" d="M509.5,319h-2c-0.2,0-0.4-0.1-0.5-0.2s-0.2-0.3-0.3-0.4l-1-2.8h-5.8l-1,2.8c-0.1,0.1-0.2,0.3-0.3,0.4
			c-0.1,0.1-0.3,0.2-0.5,0.2h-2l5.5-13.9h2.6L509.5,319z M504.9,313.8l-1.7-4.6c-0.1-0.2-0.2-0.4-0.3-0.7c-0.1-0.3-0.2-0.6-0.3-0.9
			c-0.1,0.3-0.2,0.6-0.3,0.9s-0.2,0.5-0.3,0.7l-1.7,4.6H504.9z"/>
		<path class="st0" d="M516.2,316.9c0.5,0,0.9-0.1,1.3-0.3c0.4-0.2,0.7-0.4,1-0.7c0.3-0.3,0.5-0.7,0.6-1.1s0.2-0.9,0.2-1.4v-8.3h2.6
			v8.3c0,0.8-0.1,1.6-0.4,2.3c-0.3,0.7-0.6,1.3-1.1,1.8s-1.1,0.9-1.8,1.2c-0.7,0.3-1.5,0.4-2.4,0.4s-1.7-0.1-2.4-0.4
			s-1.3-0.7-1.8-1.2s-0.9-1.1-1.1-1.8c-0.3-0.7-0.4-1.5-0.4-2.3v-8.3h2.6v8.3c0,0.5,0.1,1,0.2,1.4s0.4,0.8,0.6,1.1
			c0.3,0.3,0.6,0.5,1,0.7C515.3,316.8,515.7,316.9,516.2,316.9z"/>
		<path class="st0" d="M537.3,312.1c0,1-0.2,2-0.5,2.8s-0.8,1.6-1.4,2.2c-0.6,0.6-1.4,1.1-2.2,1.4s-1.8,0.5-2.9,0.5H525v-13.9h5.3
			c1.1,0,2,0.2,2.9,0.5s1.6,0.8,2.2,1.4c0.6,0.6,1.1,1.3,1.4,2.2S537.3,311,537.3,312.1z M534.6,312.1c0-0.8-0.1-1.5-0.3-2.1
			s-0.5-1.1-0.9-1.5s-0.8-0.7-1.4-1c-0.5-0.2-1.2-0.3-1.8-0.3h-2.7v9.8h2.7c0.7,0,1.3-0.1,1.8-0.3c0.5-0.2,1-0.5,1.4-1
			c0.4-0.4,0.7-0.9,0.9-1.5C534.5,313.5,534.6,312.8,534.6,312.1z"/>
		<path class="st0" d="M542.2,319h-2.6v-13.9h2.6V319z"/>
		<path class="st0" d="M555,307.2h-4.2V319h-2.6v-11.8H544v-2.1h11V307.2L555,307.2z"/>
		<path class="st0" d="M567.4,319h-2c-0.2,0-0.4-0.1-0.5-0.2s-0.2-0.3-0.3-0.4l-1-2.8h-5.8l-1,2.8c-0.1,0.1-0.2,0.3-0.3,0.4
			s-0.3,0.2-0.5,0.2h-2l5.5-13.9h2.6L567.4,319z M562.9,313.8l-1.7-4.6c-0.1-0.2-0.2-0.4-0.3-0.7c-0.1-0.3-0.2-0.6-0.3-0.9
			c-0.1,0.3-0.2,0.6-0.3,0.9s-0.2,0.5-0.3,0.7l-1.7,4.6H562.9z"/>
		<path class="st0" d="M573.7,305.1c0.9,0,1.7,0.1,2.3,0.3c0.6,0.2,1.2,0.4,1.6,0.7c0.4,0.3,0.7,0.7,0.9,1.2s0.3,1,0.3,1.5
			c0,0.3,0,0.6-0.1,0.9s-0.2,0.6-0.4,0.8c-0.2,0.3-0.5,0.5-0.8,0.7s-0.7,0.4-1.1,0.5c1.9,0.4,2.9,1.5,2.9,3.1c0,0.6-0.1,1.1-0.3,1.6
			s-0.6,0.9-1,1.3s-1,0.6-1.6,0.9c-0.6,0.2-1.3,0.3-2.2,0.3h-5.3V305L573.7,305.1L573.7,305.1z M571.5,307.1v4h2.1
			c0.9,0,1.6-0.2,2-0.5s0.7-0.8,0.7-1.5s-0.2-1.2-0.6-1.6c-0.4-0.3-1.1-0.5-1.9-0.5h-2.3V307.1z M574.1,317c0.5,0,0.9-0.1,1.2-0.2
			s0.6-0.3,0.8-0.5s0.3-0.4,0.4-0.7c0.1-0.3,0.1-0.5,0.1-0.8s0-0.6-0.1-0.8c-0.1-0.2-0.2-0.4-0.5-0.6c-0.2-0.2-0.5-0.3-0.8-0.4
			s-0.7-0.1-1.2-0.1h-2.6v4.1H574.1z"/>
		<path class="st0" d="M589.7,316.9v2.1h-8.2v-13.9h2.6v11.8H589.7L589.7,316.9z"/>
		<path class="st0" d="M594.2,307.1v3.9h4.9v2h-4.9v3.9h6.2v2.1h-8.8v-13.9h8.8v2.1h-6.2V307.1z"/>
		<path class="st0" d="M614.8,307.6c-0.1,0.1-0.2,0.2-0.2,0.3c-0.1,0.1-0.2,0.1-0.3,0.1s-0.3,0-0.4-0.1s-0.3-0.2-0.6-0.3
			c-0.2-0.1-0.5-0.2-0.8-0.3s-0.6-0.1-1-0.1s-0.7,0-0.9,0.1c-0.3,0.1-0.5,0.2-0.7,0.4c-0.2,0.2-0.3,0.3-0.4,0.6
			c-0.1,0.2-0.1,0.5-0.1,0.7c0,0.3,0.1,0.6,0.3,0.8c0.2,0.2,0.4,0.4,0.7,0.6s0.6,0.3,1,0.4s0.8,0.3,1.2,0.4s0.8,0.3,1.2,0.5
			s0.7,0.4,1,0.7c0.3,0.3,0.5,0.6,0.7,1s0.3,0.9,0.3,1.5s-0.1,1.2-0.3,1.8c-0.2,0.5-0.5,1-0.9,1.4s-0.9,0.7-1.5,1s-1.3,0.4-2.1,0.4
			c-0.4,0-0.9,0-1.3-0.1s-0.8-0.2-1.2-0.4c-0.4-0.2-0.8-0.4-1.1-0.6s-0.7-0.5-0.9-0.8l0.8-1.2c0.1-0.1,0.1-0.2,0.3-0.2
			s0.2-0.1,0.3-0.1c0.2,0,0.3,0.1,0.5,0.2s0.4,0.3,0.7,0.4c0.3,0.2,0.6,0.3,0.9,0.4s0.8,0.2,1.2,0.2c0.7,0,1.3-0.2,1.7-0.5
			c0.4-0.4,0.6-0.9,0.6-1.5c0-0.4-0.1-0.7-0.3-0.9c-0.2-0.2-0.4-0.4-0.7-0.6s-0.6-0.3-1-0.4s-0.8-0.2-1.2-0.4
			c-0.4-0.1-0.8-0.3-1.2-0.5s-0.7-0.4-1-0.7c-0.3-0.3-0.5-0.7-0.7-1.1s-0.3-1-0.3-1.6c0-0.5,0.1-1,0.3-1.5s0.5-0.9,0.9-1.3
			s0.9-0.7,1.4-0.9c0.6-0.2,1.2-0.3,1.9-0.3c0.8,0,1.6,0.1,2.3,0.4s1.3,0.6,1.8,1.1L614.8,307.6z"/>
		<path class="st0" d="M623.5,316.9c0.5,0,0.9-0.1,1.3-0.3c0.4-0.2,0.7-0.4,1-0.7c0.3-0.3,0.5-0.7,0.6-1.1s0.2-0.9,0.2-1.4v-8.3h2.6
			v8.3c0,0.8-0.1,1.6-0.4,2.3c-0.3,0.7-0.6,1.3-1.1,1.8s-1.1,0.9-1.8,1.2c-0.7,0.3-1.5,0.4-2.4,0.4s-1.7-0.1-2.4-0.4
			s-1.3-0.7-1.8-1.2s-0.9-1.1-1.1-1.8c-0.3-0.7-0.4-1.5-0.4-2.3v-8.3h2.6v8.3c0,0.5,0.1,1,0.2,1.4s0.4,0.8,0.6,1.1
			c0.3,0.3,0.6,0.5,1,0.7C622.6,316.8,623,316.9,623.5,316.9z"/>
		<path class="st0" d="M636.8,305.1c0.9,0,1.7,0.1,2.4,0.3c0.7,0.2,1.2,0.5,1.7,0.9c0.4,0.4,0.8,0.9,1,1.4s0.3,1.1,0.3,1.8
			c0,0.7-0.1,1.3-0.3,1.9s-0.6,1-1,1.5c-0.5,0.4-1,0.7-1.7,0.9c-0.7,0.2-1.5,0.3-2.4,0.3h-1.9v4.9h-2.6v-13.9L636.8,305.1
			L636.8,305.1z M636.8,312.1c0.5,0,0.9-0.1,1.2-0.2s0.6-0.3,0.9-0.5c0.3-0.2,0.4-0.5,0.5-0.8s0.2-0.7,0.2-1.1s-0.1-0.7-0.2-1
			c-0.1-0.3-0.3-0.6-0.5-0.8c-0.2-0.2-0.5-0.4-0.9-0.5s-0.8-0.2-1.3-0.2h-1.9v5h2V312.1z"/>
		<path class="st0" d="M648.7,305.1c0.9,0,1.7,0.1,2.4,0.3c0.7,0.2,1.2,0.5,1.7,0.9c0.4,0.4,0.8,0.9,1,1.4s0.3,1.1,0.3,1.8
			c0,0.7-0.1,1.3-0.3,1.9s-0.6,1-1,1.5c-0.5,0.4-1,0.7-1.7,0.9c-0.7,0.2-1.5,0.3-2.4,0.3h-1.9v4.9h-2.6v-13.9L648.7,305.1
			L648.7,305.1z M648.7,312.1c0.5,0,0.9-0.1,1.2-0.2s0.6-0.3,0.9-0.5c0.3-0.2,0.4-0.5,0.5-0.8s0.2-0.7,0.2-1.1s-0.1-0.7-0.2-1
			c-0.1-0.3-0.3-0.6-0.5-0.8c-0.2-0.2-0.5-0.4-0.9-0.5s-0.8-0.2-1.3-0.2h-1.9v5h2V312.1z"/>
		<path class="st0" d="M664.3,316.9v2.1h-8.2v-13.9h2.6v11.8H664.3L664.3,316.9z"/>
		<path class="st0" d="M670.3,313.6v5.4h-2.6v-5.4l-5.1-8.5h2.3c0.2,0,0.4,0.1,0.5,0.2s0.2,0.2,0.3,0.4l2.5,4.7
			c0.1,0.3,0.3,0.5,0.4,0.8c0.1,0.3,0.2,0.5,0.3,0.7c0.1-0.2,0.2-0.5,0.3-0.7s0.2-0.5,0.4-0.8l2.5-4.7c0.1-0.1,0.2-0.3,0.3-0.4
			s0.3-0.2,0.5-0.2h2.3L670.3,313.6z"/>
	</g>
	<line class="st1" x1="496" y1="289" x2="708.3" y2="289"/>
	<g>
		<g>
			<path class="st2" d="M375.7,82.8v3.6h-17.9V54.8h4.2v27.9h13.7L375.7,82.8L375.7,82.8z"/>
			<path class="st2" d="M388.1,73.8v12.6h-4.3V73.8l-11.5-19h3.7c0.4,0,0.7,0.1,0.9,0.3c0.2,0.2,0.4,0.4,0.6,0.7l7.2,12.3
				c0.3,0.5,0.5,1,0.7,1.4s0.4,0.9,0.6,1.4c0.2-0.5,0.3-0.9,0.5-1.4c0.2-0.4,0.4-0.9,0.7-1.4l7.2-12.3c0.1-0.2,0.3-0.5,0.5-0.7
				s0.5-0.3,0.9-0.3h3.8L388.1,73.8z"/>
			<path class="st2" d="M427,86.3h-3.8c-0.8,0-1.3-0.3-1.7-0.9l-8.2-11.3c-0.2-0.4-0.5-0.6-0.8-0.8c-0.3-0.2-0.7-0.2-1.3-0.2H408
				v13.2h-4.2V54.8h8.9c2,0,3.7,0.2,5.2,0.6c1.5,0.4,2.7,1,3.6,1.7s1.6,1.7,2.1,2.8s0.7,2.3,0.7,3.6c0,1.1-0.2,2.2-0.5,3.1
				s-0.9,1.8-1.5,2.6c-0.7,0.8-1.5,1.4-2.4,2c-1,0.5-2,1-3.3,1.2c0.5,0.3,1,0.8,1.4,1.3L427,86.3z M412.5,70.1
				c1.2,0,2.3-0.2,3.3-0.5c0.9-0.3,1.7-0.7,2.4-1.3c0.6-0.5,1.1-1.2,1.4-2s0.5-1.6,0.5-2.5c0-1.9-0.6-3.3-1.8-4.2
				c-1.2-1-3.1-1.4-5.5-1.4H408v11.9C408,70.1,412.5,70.1,412.5,70.1z"/>
			<path class="st2" d="M456.9,86.3h-3.3c-0.4,0-0.7-0.1-0.9-0.3s-0.4-0.4-0.5-0.7l-2.9-7.6h-14.1l-2.9,7.6
				c-0.1,0.3-0.3,0.5-0.5,0.7s-0.6,0.3-0.9,0.3h-3.3L440,54.8h4.3L456.9,86.3z M448.1,74.6l-4.9-12.8c-0.1-0.4-0.3-0.8-0.5-1.3
				s-0.3-1-0.5-1.6c-0.3,1.2-0.6,2.2-0.9,3l-5,12.8h11.8V74.6z"/>
			<path class="st2" d="M478.8,82.6c0.4,0,0.8,0.1,1,0.4c0.2,0.2,0.4,0.6,0.4,1v2.4h-21V85c0-0.3,0.1-0.6,0.2-0.9s0.3-0.6,0.5-0.8
				L470,73.2c0.8-0.9,1.6-1.7,2.3-2.5c0.7-0.8,1.3-1.6,1.8-2.4s0.9-1.6,1.1-2.4c0.3-0.8,0.4-1.7,0.4-2.6s-0.1-1.7-0.4-2.4
				s-0.7-1.3-1.2-1.7c-0.5-0.5-1.1-0.8-1.8-1c-0.7-0.2-1.4-0.3-2.2-0.3c-0.8,0-1.5,0.1-2.2,0.4c-0.7,0.2-1.3,0.6-1.8,1
				s-1,0.9-1.3,1.5c-0.4,0.6-0.6,1.2-0.7,1.9c-0.2,0.5-0.4,0.9-0.7,1c-0.3,0.2-0.7,0.2-1.3,0.1l-2-0.4c0.2-1.4,0.6-2.7,1.2-3.8
				s1.3-2,2.2-2.8c0.9-0.7,1.9-1.3,3.1-1.7s2.4-0.6,3.8-0.6c1.3,0,2.6,0.2,3.7,0.6c1.2,0.4,2.2,1,3,1.7c0.9,0.8,1.5,1.7,2,2.8
				s0.7,2.3,0.7,3.7c0,1.2-0.2,2.3-0.5,3.3c-0.4,1-0.8,2-1.4,2.9s-1.3,1.8-2.1,2.7c-0.8,0.9-1.6,1.7-2.5,2.6l-8.3,8.5
				c0.6-0.2,1.2-0.3,1.8-0.4c0.6-0.1,1.2-0.1,1.7-0.1h10.4L478.8,82.6L478.8,82.6z"/>
			<path class="st2" d="M507.6,56.4c0,0.5-0.1,1-0.4,1.4l-17.8,25.1h18v3.5h-23.6v-1.7c0-0.2,0-0.5,0.1-0.7s0.2-0.4,0.3-0.6
				l17.9-25.1h-17.5v-3.5h23.1v1.6C507.7,56.4,507.6,56.4,507.6,56.4z"/>
			<path class="st2" d="M368.2,98.5H364v11.8h-2.6V98.5h-4.2v-2.1h11L368.2,98.5L368.2,98.5z"/>
			<path class="st2" d="M380.9,110.3h-2.3c-0.4,0-0.8-0.2-1-0.5l-2.9-4.5c-0.1-0.2-0.2-0.3-0.4-0.4s-0.3-0.1-0.6-0.1h-1.1v5.4H370
				V96.4h4.2c0.9,0,1.8,0.1,2.4,0.3c0.7,0.2,1.2,0.5,1.7,0.8s0.8,0.8,1,1.3s0.3,1,0.3,1.6c0,0.5-0.1,0.9-0.2,1.3s-0.3,0.8-0.6,1.1
				c-0.3,0.3-0.6,0.6-1,0.9s-0.8,0.5-1.3,0.6c0.2,0.1,0.3,0.2,0.5,0.3s0.3,0.3,0.4,0.5L380.9,110.3z M374.2,103
				c0.5,0,0.9-0.1,1.3-0.2s0.7-0.3,0.9-0.5c0.2-0.2,0.4-0.5,0.5-0.8s0.2-0.6,0.2-1c0-0.7-0.2-1.2-0.7-1.6s-1.2-0.6-2.1-0.6h-1.7v4.7
				H374.2z"/>
			<path class="st2" d="M394.4,110.3h-2c-0.2,0-0.4-0.1-0.5-0.2s-0.2-0.3-0.3-0.4l-1-2.8h-5.8l-1,2.8c-0.1,0.1-0.2,0.3-0.3,0.4
				c-0.1,0.1-0.3,0.2-0.5,0.2h-2l5.5-13.9h2.6L394.4,110.3z M389.8,105.1l-1.7-4.6c-0.1-0.2-0.2-0.4-0.3-0.7
				c-0.1-0.3-0.2-0.6-0.3-0.9c-0.1,0.3-0.2,0.6-0.3,0.9s-0.2,0.5-0.3,0.7l-1.7,4.6H389.8z"/>
			<path class="st2" d="M407.6,96.4v13.9h-1.3c-0.2,0-0.4,0-0.5-0.1s-0.3-0.2-0.4-0.3l-7.3-9.3c0,0.4,0.1,0.8,0.1,1.2v8.6h-2.3v-14
				h1.4c0.1,0,0.2,0,0.3,0c0.1,0,0.2,0,0.2,0.1c0.1,0,0.1,0.1,0.2,0.1c0.1,0.1,0.1,0.1,0.2,0.2l7.3,9.3c0-0.2,0-0.4,0-0.7
				c0-0.2,0-0.4,0-0.6v-8.5L407.6,96.4L407.6,96.4z"/>
			<path class="st2" d="M418.1,98.9c-0.1,0.1-0.2,0.2-0.2,0.3c-0.1,0.1-0.2,0.1-0.3,0.1c-0.1,0-0.3,0-0.4-0.1s-0.3-0.2-0.6-0.3
				s-0.5-0.2-0.8-0.3c-0.3-0.1-0.6-0.1-1-0.1s-0.7,0-0.9,0.1c-0.3,0.1-0.5,0.2-0.7,0.4c-0.2,0.2-0.3,0.3-0.4,0.6
				c-0.1,0.2-0.1,0.5-0.1,0.7c0,0.3,0.1,0.6,0.3,0.8c0.2,0.2,0.4,0.4,0.7,0.6c0.3,0.2,0.6,0.3,1,0.4s0.8,0.3,1.2,0.4
				c0.4,0.1,0.8,0.3,1.2,0.5c0.4,0.2,0.7,0.4,1,0.7c0.3,0.3,0.5,0.6,0.7,1s0.3,0.9,0.3,1.5s-0.1,1.2-0.3,1.8c-0.2,0.5-0.5,1-0.9,1.4
				s-0.9,0.7-1.5,1c-0.6,0.2-1.3,0.4-2.1,0.4c-0.4,0-0.9,0-1.3-0.1s-0.8-0.2-1.2-0.4c-0.4-0.2-0.8-0.4-1.1-0.6
				c-0.3-0.2-0.7-0.5-0.9-0.8l0.8-1.2c0.1-0.1,0.1-0.2,0.2-0.2s0.2-0.1,0.3-0.1c0.2,0,0.3,0.1,0.5,0.2s0.4,0.3,0.7,0.4
				c0.3,0.2,0.6,0.3,0.9,0.4s0.8,0.2,1.2,0.2c0.7,0,1.3-0.2,1.7-0.5c0.4-0.4,0.6-0.9,0.6-1.5c0-0.4-0.1-0.7-0.3-0.9
				c-0.2-0.2-0.4-0.4-0.7-0.6s-0.6-0.3-1-0.4s-0.8-0.2-1.2-0.4c-0.4-0.1-0.8-0.3-1.2-0.5c-0.4-0.2-0.7-0.4-1-0.7
				c-0.3-0.3-0.5-0.7-0.7-1.1s-0.3-1-0.3-1.6c0-0.5,0.1-1,0.3-1.5c0.2-0.5,0.5-0.9,0.9-1.3s0.9-0.7,1.4-0.9c0.6-0.2,1.2-0.3,1.9-0.3
				c0.8,0,1.6,0.1,2.3,0.4s1.3,0.6,1.8,1.1L418.1,98.9z"/>
			<path class="st2" d="M420.5,109c0-0.2,0-0.4,0.1-0.6s0.2-0.3,0.3-0.5s0.3-0.2,0.5-0.3c0.2-0.1,0.4-0.1,0.6-0.1s0.4,0,0.6,0.1
				s0.3,0.2,0.5,0.3c0.1,0.1,0.2,0.3,0.3,0.5s0.1,0.4,0.1,0.6s0,0.4-0.1,0.6s-0.2,0.3-0.3,0.5c-0.1,0.1-0.3,0.2-0.5,0.3
				c-0.2,0.1-0.4,0.1-0.6,0.1s-0.4,0-0.6-0.1s-0.3-0.2-0.5-0.3c-0.1-0.1-0.2-0.3-0.3-0.5S420.5,109.2,420.5,109z"/>
			<path class="st2" d="M439.6,98.5h-4.2v11.8h-2.6V98.5h-4.2v-2.1h11L439.6,98.5L439.6,98.5z"/>
			<path class="st2" d="M454.3,103.4c0,1-0.2,2-0.5,2.8c-0.3,0.9-0.8,1.6-1.4,2.3c-0.6,0.6-1.4,1.1-2.2,1.5s-1.8,0.5-2.9,0.5
				s-2-0.2-2.9-0.5s-1.6-0.9-2.2-1.5s-1.1-1.4-1.4-2.3s-0.5-1.8-0.5-2.8s0.2-2,0.5-2.8c0.3-0.9,0.8-1.6,1.4-2.3
				c0.6-0.6,1.4-1.1,2.2-1.5s1.8-0.5,2.9-0.5c0.7,0,1.4,0.1,2,0.2c0.6,0.2,1.2,0.4,1.7,0.7s1,0.7,1.4,1.1s0.8,0.9,1.1,1.4
				c0.3,0.5,0.5,1.1,0.7,1.7C454.2,102,454.3,102.7,454.3,103.4z M451.6,103.4c0-0.8-0.1-1.5-0.3-2.1c-0.2-0.6-0.5-1.1-0.9-1.5
				s-0.8-0.7-1.4-1c-0.5-0.2-1.2-0.3-1.8-0.3c-0.7,0-1.3,0.1-1.8,0.3c-0.5,0.2-1,0.5-1.4,1c-0.4,0.4-0.7,0.9-0.9,1.5
				c-0.2,0.6-0.3,1.3-0.3,2.1s0.1,1.5,0.3,2.1c0.2,0.6,0.5,1.1,0.9,1.5s0.8,0.7,1.4,1s1.2,0.3,1.8,0.3c0.7,0,1.3-0.1,1.8-0.3
				s1-0.5,1.4-1s0.7-0.9,0.9-1.5C451.5,104.8,451.6,104.1,451.6,103.4z"/>
			<path class="st2" d="M476.4,96.4v13.9h-2.3v-9c0-0.4,0-0.7,0.1-1.2L470,108c-0.2,0.4-0.5,0.6-0.9,0.6h-0.4
				c-0.4,0-0.7-0.2-0.9-0.6l-4.3-7.9c0,0.2,0,0.4,0,0.6s0,0.4,0,0.6v9h-2.3V96.4h2c0.1,0,0.2,0,0.3,0c0.1,0,0.2,0,0.2,0
				c0.1,0,0.1,0.1,0.2,0.1c0.1,0.1,0.1,0.1,0.2,0.2l4.2,7.7c0.1,0.2,0.2,0.4,0.3,0.6c0.1,0.2,0.2,0.4,0.3,0.7
				c0.1-0.2,0.2-0.5,0.3-0.7c0.1-0.2,0.2-0.4,0.3-0.6l4.1-7.7c0.1-0.1,0.1-0.2,0.2-0.2c0.1-0.1,0.1-0.1,0.2-0.1s0.1,0,0.2,0
				s0.2,0,0.3,0H476.4z"/>
			<path class="st2" d="M489.2,98.5H485v11.8h-2.6V98.5h-4.2v-2.1h11L489.2,98.5L489.2,98.5z"/>
			<path class="st2" d="M495.6,96.4c0.9,0,1.7,0.1,2.4,0.3c0.7,0.2,1.2,0.5,1.7,0.9c0.4,0.4,0.8,0.9,1,1.4s0.3,1.1,0.3,1.8
				c0,0.7-0.1,1.3-0.3,1.9c-0.2,0.6-0.6,1-1,1.5c-0.5,0.4-1,0.7-1.7,0.9c-0.7,0.2-1.5,0.3-2.4,0.3h-1.9v4.9H491V96.4H495.6z
				 M495.6,103.4c0.5,0,0.9-0.1,1.2-0.2s0.6-0.3,0.9-0.5s0.4-0.5,0.5-0.8s0.2-0.7,0.2-1.1s-0.1-0.7-0.2-1s-0.3-0.6-0.5-0.8
				s-0.5-0.4-0.9-0.5s-0.8-0.2-1.3-0.2h-1.9v5L495.6,103.4L495.6,103.4z"/>
		</g>
	</g>
	<polyline class="st3" points="648.2,226.9 660.6,239.3 688.2,211.7 	"/>
	<g>
		<path class="st2" d="M668.3,107v3h-29.2v-3h13V61.1c0-0.9,0-1.9,0.1-2.9l-12.5,11.1c-0.4,0.3-0.7,0.4-1.1,0.4
			c-0.4-0.1-0.7-0.2-0.9-0.5l-1.2-1.6l16.4-14.4h3V107H668.3z"/>
		<path class="st2" d="M713.5,81.6c0,5-0.5,9.3-1.6,12.9s-2.5,6.6-4.4,9c-1.8,2.4-4,4.1-6.5,5.3c-2.5,1.2-5.1,1.7-7.9,1.7
			c-2.8,0-5.4-0.6-7.9-1.7c-2.5-1.2-4.6-2.9-6.4-5.3c-1.8-2.4-3.3-5.4-4.3-9c-1.1-3.6-1.6-7.9-1.6-12.9s0.5-9.3,1.6-12.9
			s2.5-6.6,4.3-9s4-4.1,6.4-5.3s5.1-1.7,7.9-1.7c2.8,0,5.4,0.6,7.9,1.7s4.6,2.9,6.5,5.3c1.8,2.4,3.3,5.4,4.4,9
			C713,72.4,713.5,76.7,713.5,81.6z M709.5,81.6c0-4.6-0.4-8.5-1.3-11.8c-0.9-3.3-2.1-5.9-3.5-8c-1.5-2.1-3.2-3.6-5.2-4.5
			c-2-1-4.1-1.4-6.3-1.4s-4.3,0.5-6.2,1.4c-2,1-3.7,2.5-5.2,4.5c-1.5,2.1-2.7,4.7-3.6,8c-0.9,3.3-1.3,7.2-1.3,11.8
			c0,4.6,0.4,8.5,1.3,11.8c0.9,3.2,2.1,5.9,3.6,8s3.2,3.6,5.2,4.5s4.1,1.4,6.2,1.4c2.2,0,4.3-0.5,6.3-1.4s3.7-2.5,5.2-4.5
			c1.5-2.1,2.7-4.7,3.5-8C709.1,90.2,709.5,86.2,709.5,81.6z"/>
		<path class="st2" d="M759.9,81.6c0,5-0.5,9.3-1.6,12.9s-2.5,6.6-4.4,9c-1.8,2.4-4,4.1-6.5,5.3c-2.5,1.2-5.1,1.7-7.9,1.7
			s-5.4-0.6-7.9-1.7c-2.5-1.2-4.6-2.9-6.4-5.3c-1.8-2.4-3.3-5.4-4.3-9c-1.1-3.6-1.6-7.9-1.6-12.9s0.5-9.3,1.6-12.9s2.5-6.6,4.3-9
			s4-4.1,6.4-5.3c2.5-1.2,5.1-1.7,7.9-1.7s5.4,0.6,7.9,1.7c2.5,1.2,4.6,2.9,6.5,5.3c1.8,2.4,3.3,5.4,4.4,9
			C759.4,72.4,759.9,76.7,759.9,81.6z M755.9,81.6c0-4.6-0.4-8.5-1.3-11.8c-0.9-3.3-2.1-5.9-3.5-8c-1.5-2.1-3.2-3.6-5.2-4.5
			s-4.1-1.4-6.3-1.4s-4.3,0.5-6.2,1.4s-3.7,2.5-5.2,4.5c-1.5,2.1-2.7,4.7-3.6,8c-0.9,3.3-1.3,7.2-1.3,11.8c0,4.6,0.4,8.5,1.3,11.8
			s2.1,5.9,3.6,8s3.2,3.6,5.2,4.5s4.1,1.4,6.2,1.4s4.3-0.5,6.3-1.4s3.7-2.5,5.2-4.5c1.5-2.1,2.7-4.7,3.5-8S755.9,86.2,755.9,81.6z"
			/>
		<path class="st2" d="M806.3,81.6c0,5-0.5,9.3-1.6,12.9s-2.5,6.6-4.4,9c-1.8,2.4-4,4.1-6.5,5.3c-2.5,1.2-5.1,1.7-7.9,1.7
			c-2.8,0-5.4-0.6-7.9-1.7c-2.5-1.2-4.6-2.9-6.4-5.3c-1.8-2.4-3.3-5.4-4.3-9c-1.1-3.6-1.6-7.9-1.6-12.9s0.5-9.3,1.6-12.9
			s2.5-6.6,4.3-9s4-4.1,6.4-5.3s5.1-1.7,7.9-1.7c2.8,0,5.4,0.6,7.9,1.7s4.6,2.9,6.5,5.3c1.8,2.4,3.3,5.4,4.4,9
			C805.8,72.4,806.3,76.7,806.3,81.6z M802.3,81.6c0-4.6-0.4-8.5-1.3-11.8c-0.9-3.3-2.1-5.9-3.5-8c-1.5-2.1-3.2-3.6-5.2-4.5
			c-2-1-4.1-1.4-6.3-1.4s-4.3,0.5-6.2,1.4c-2,1-3.7,2.5-5.2,4.5c-1.5,2.1-2.7,4.7-3.6,8c-0.9,3.3-1.3,7.2-1.3,11.8
			c0,4.6,0.4,8.5,1.3,11.8c0.9,3.2,2.1,5.9,3.6,8s3.2,3.6,5.2,4.5s4.1,1.4,6.2,1.4c2.2,0,4.3-0.5,6.3-1.4s3.7-2.5,5.2-4.5
			c1.5-2.1,2.7-4.7,3.5-8C801.9,90.2,802.3,86.2,802.3,81.6z"/>
		<path class="st2" d="M851.2,84.6H834v18.1h-3.1V84.6h-17.2v-2.9h17.2v-18h3.1v18h17.2V84.6z"/>
	</g>
	<g>
		<path class="st0" d="M650.9,159.5h-2c-0.2,0-0.4-0.1-0.5-0.2s-0.2-0.3-0.3-0.4l-1-2.8h-5.8l-1,2.8c-0.1,0.1-0.2,0.3-0.3,0.4
			c-0.1,0.1-0.3,0.2-0.5,0.2h-2l5.5-13.9h2.6L650.9,159.5z M646.4,154.3l-1.7-4.6c-0.1-0.2-0.2-0.4-0.3-0.7s-0.2-0.6-0.3-0.9
			c-0.1,0.3-0.2,0.6-0.3,0.9c-0.1,0.3-0.2,0.5-0.3,0.7l-1.7,4.6H646.4z"/>
		<path class="st0" d="M664.1,145.6v13.9h-1.3c-0.2,0-0.4,0-0.5-0.1s-0.3-0.2-0.4-0.3l-7.3-9.3c0,0.4,0.1,0.8,0.1,1.2v8.6h-2.3
			v-13.9h1.4c0.1,0,0.2,0,0.3,0s0.2,0,0.2,0.1c0.1,0,0.1,0.1,0.2,0.1c0.1,0.1,0.1,0.1,0.2,0.2l7.3,9.3c0-0.2,0-0.4,0-0.7
			c0-0.2,0-0.4,0-0.6v-8.5H664.1z"/>
		<path class="st0" d="M680.5,152.6c0,1-0.2,2-0.5,2.8c-0.3,0.9-0.8,1.6-1.4,2.3c-0.6,0.6-1.4,1.1-2.2,1.5s-1.8,0.5-2.9,0.5
			c-1.1,0-2-0.2-2.9-0.5s-1.6-0.9-2.2-1.5c-0.6-0.6-1.1-1.4-1.4-2.3c-0.3-0.9-0.5-1.8-0.5-2.8s0.2-2,0.5-2.8
			c0.3-0.9,0.8-1.6,1.4-2.3c0.6-0.6,1.4-1.1,2.2-1.5s1.8-0.5,2.9-0.5c0.7,0,1.4,0.1,2,0.2s1.2,0.4,1.7,0.7s1,0.7,1.4,1.1
			c0.4,0.4,0.8,0.9,1.1,1.4s0.5,1.1,0.7,1.7C680.5,151.2,680.5,151.9,680.5,152.6z M677.9,152.6c0-0.8-0.1-1.5-0.3-2.1
			s-0.5-1.1-0.9-1.5s-0.8-0.7-1.4-1c-0.5-0.2-1.2-0.3-1.8-0.3c-0.7,0-1.3,0.1-1.8,0.3s-1,0.5-1.4,1c-0.4,0.4-0.7,0.9-0.9,1.5
			s-0.3,1.3-0.3,2.1s0.1,1.5,0.3,2.1s0.5,1.1,0.9,1.5s0.8,0.7,1.4,1c0.5,0.2,1.2,0.3,1.8,0.3c0.7,0,1.3-0.1,1.8-0.3s1-0.5,1.4-1
			c0.4-0.4,0.7-0.9,0.9-1.5C677.8,154,677.9,153.3,677.9,152.6z"/>
		<path class="st0" d="M694.6,145.6v13.9h-1.3c-0.2,0-0.4,0-0.5-0.1s-0.3-0.2-0.4-0.3l-7.3-9.3c0,0.4,0.1,0.8,0.1,1.2v8.6h-2.3
			v-13.9h1.4c0.1,0,0.2,0,0.3,0s0.2,0,0.2,0.1c0.1,0,0.1,0.1,0.2,0.1c0.1,0.1,0.1,0.1,0.2,0.2l7.3,9.3c0-0.2,0-0.4,0-0.7
			c0-0.2,0-0.4,0-0.6v-8.5H694.6z"/>
		<path class="st0" d="M703.6,154.1v5.4H701v-5.4l-5.1-8.5h2.3c0.2,0,0.4,0.1,0.5,0.2c0.1,0.1,0.2,0.2,0.3,0.4l2.5,4.7
			c0.1,0.3,0.3,0.5,0.4,0.8s0.2,0.5,0.3,0.7c0.1-0.2,0.2-0.5,0.3-0.7s0.2-0.5,0.4-0.8l2.5-4.7c0.1-0.1,0.2-0.3,0.3-0.4
			c0.1-0.1,0.3-0.2,0.5-0.2h2.3L703.6,154.1z"/>
		<path class="st0" d="M725.3,145.6v13.9H723v-9c0-0.4,0-0.7,0.1-1.2l-4.2,7.9c-0.2,0.4-0.5,0.6-0.9,0.6h-0.4
			c-0.4,0-0.7-0.2-0.9-0.6l-4.3-7.9c0,0.2,0,0.4,0,0.6c0,0.2,0,0.4,0,0.6v9h-2.3v-13.9h2c0.1,0,0.2,0,0.3,0s0.2,0,0.2,0
			c0.1,0,0.1,0.1,0.2,0.1c0.1,0.1,0.1,0.1,0.2,0.2l4.2,7.7c0.1,0.2,0.2,0.4,0.3,0.6c0.1,0.2,0.2,0.4,0.3,0.7
			c0.1-0.2,0.2-0.5,0.3-0.7s0.2-0.4,0.3-0.6l4.1-7.7c0.1-0.1,0.1-0.2,0.2-0.2c0.1-0.1,0.1-0.1,0.2-0.1c0.1,0,0.1,0,0.2,0
			c0.1,0,0.2,0,0.3,0L725.3,145.6L725.3,145.6z"/>
		<path class="st0" d="M731,159.5h-2.6v-13.9h2.6V159.5z"/>
		<path class="st0" d="M743.8,147.7h-4.2v11.8H737v-11.8h-4.2v-2.1h11V147.7z"/>
		<path class="st0" d="M751.6,154.1v5.4H749v-5.4l-5.1-8.5h2.3c0.2,0,0.4,0.1,0.5,0.2c0.1,0.1,0.2,0.2,0.3,0.4l2.5,4.7
			c0.1,0.3,0.3,0.5,0.4,0.8s0.2,0.5,0.3,0.7c0.1-0.2,0.2-0.5,0.3-0.7s0.2-0.5,0.4-0.8l2.5-4.7c0.1-0.1,0.2-0.3,0.3-0.4
			c0.1-0.1,0.3-0.2,0.5-0.2h2.3L751.6,154.1z"/>
		<path class="st0" d="M769.5,148.1c-0.1,0.1-0.2,0.2-0.2,0.3c-0.1,0.1-0.2,0.1-0.3,0.1s-0.3,0-0.4-0.1s-0.3-0.2-0.6-0.3
			c-0.2-0.1-0.5-0.2-0.8-0.3s-0.6-0.1-1-0.1s-0.7,0-0.9,0.1c-0.3,0.1-0.5,0.2-0.7,0.4s-0.3,0.3-0.4,0.6c-0.1,0.2-0.1,0.5-0.1,0.7
			c0,0.3,0.1,0.6,0.3,0.8s0.4,0.4,0.7,0.6s0.6,0.3,1,0.4s0.8,0.3,1.2,0.4c0.4,0.1,0.8,0.3,1.2,0.5s0.7,0.4,1,0.7s0.5,0.6,0.7,1
			s0.3,0.9,0.3,1.5s-0.1,1.2-0.3,1.8c-0.2,0.5-0.5,1-0.9,1.4s-0.9,0.7-1.5,1s-1.3,0.4-2.1,0.4c-0.4,0-0.9,0-1.3-0.1
			c-0.4-0.1-0.8-0.2-1.2-0.4s-0.8-0.4-1.1-0.6c-0.3-0.2-0.7-0.5-0.9-0.8l0.8-1.2c0.1-0.1,0.1-0.2,0.3-0.2s0.2-0.1,0.3-0.1
			c0.2,0,0.3,0.1,0.5,0.2c0.2,0.1,0.4,0.3,0.7,0.4c0.3,0.2,0.6,0.3,0.9,0.4c0.3,0.1,0.8,0.2,1.2,0.2c0.7,0,1.3-0.2,1.7-0.5
			c0.4-0.4,0.6-0.9,0.6-1.5c0-0.4-0.1-0.7-0.3-0.9s-0.4-0.4-0.7-0.6s-0.6-0.3-1-0.4s-0.8-0.2-1.2-0.4c-0.4-0.1-0.8-0.3-1.2-0.5
			s-0.7-0.4-1-0.7s-0.5-0.7-0.7-1.1c-0.2-0.4-0.3-1-0.3-1.6c0-0.5,0.1-1,0.3-1.5s0.5-0.9,0.9-1.3c0.4-0.4,0.9-0.7,1.4-0.9
			c0.6-0.2,1.2-0.3,1.9-0.3c0.8,0,1.6,0.1,2.3,0.4c0.7,0.3,1.3,0.6,1.8,1.1L769.5,148.1z"/>
		<path class="st0" d="M775.2,147.7v3.9h4.9v2h-4.9v3.9h6.2v2.1h-8.8v-13.9h8.8v2.1h-6.2V147.7z"/>
		<path class="st0" d="M793.4,147.7h-4.2v11.8h-2.6v-11.8h-4.2v-2.1h11V147.7z"/>
	</g>
	<line class="st1" x1="638" y1="129.5" x2="850.2" y2="129.5"/>
	<g>
		<path class="st0" d="M216.7,318.9h-2.6V305h2.6V318.9z"/>
		<path class="st0" d="M231.5,304.9v13.9h-1.3c-0.2,0-0.4,0-0.5-0.1s-0.3-0.2-0.4-0.3l-7.3-9.3c0,0.4,0.1,0.8,0.1,1.2v8.6h-2.3V305
			h1.4c0.1,0,0.2,0,0.3,0s0.2,0,0.2,0.1c0.1,0,0.1,0.1,0.2,0.1c0.1,0.1,0.1,0.1,0.2,0.2l7.3,9.3c0-0.2,0-0.4,0-0.7
			c0-0.2,0-0.4,0-0.6v-8.5L231.5,304.9L231.5,304.9z"/>
		<path class="st0" d="M244.2,315.6c0.1,0,0.3,0.1,0.4,0.2l1,1.1c-0.6,0.7-1.3,1.2-2.1,1.6s-1.8,0.6-3,0.6c-1,0-2-0.2-2.8-0.5
			c-0.8-0.4-1.5-0.8-2.1-1.5c-0.6-0.6-1-1.4-1.3-2.3s-0.5-1.8-0.5-2.9c0-1,0.2-2,0.5-2.9s0.8-1.6,1.4-2.2c0.6-0.6,1.3-1.1,2.2-1.5
			c0.8-0.3,1.8-0.5,2.8-0.5s1.9,0.2,2.7,0.5s1.5,0.8,2,1.3l-0.9,1.2c-0.1,0.1-0.1,0.1-0.2,0.2c-0.1,0.1-0.2,0.1-0.3,0.1
			s-0.2,0-0.3-0.1s-0.2-0.1-0.3-0.2s-0.3-0.2-0.4-0.3c-0.2-0.1-0.3-0.2-0.6-0.3c-0.2-0.1-0.5-0.1-0.7-0.2c-0.3-0.1-0.6-0.1-1-0.1
			c-0.6,0-1.2,0.1-1.7,0.3s-1,0.5-1.3,1c-0.4,0.4-0.7,0.9-0.9,1.5s-0.3,1.3-0.3,2.1c0,0.8,0.1,1.5,0.3,2.1s0.5,1.1,0.9,1.5
			s0.8,0.7,1.3,1s1.1,0.3,1.7,0.3c0.4,0,0.7,0,1-0.1c0.3,0,0.5-0.1,0.8-0.2c0.2-0.1,0.5-0.2,0.7-0.3c0.2-0.1,0.4-0.3,0.6-0.5
			c0.1-0.1,0.1-0.1,0.2-0.1C244.1,315.6,244.1,315.6,244.2,315.6z"/>
		<path class="st0" d="M250,307v3.9h4.9v2H250v3.9h6.2v2.1h-8.8V305h8.8v2.1H250V307z"/>
		<path class="st0" d="M270.2,304.9v13.9h-1.3c-0.2,0-0.4,0-0.5-0.1s-0.3-0.2-0.4-0.3l-7.3-9.3c0,0.4,0.1,0.8,0.1,1.2v8.6h-2.3V305
			h1.4c0.1,0,0.2,0,0.3,0c0.1,0,0.2,0,0.2,0.1c0.1,0,0.1,0.1,0.2,0.1c0.1,0.1,0.1,0.1,0.2,0.2l7.3,9.3c0-0.2,0-0.4,0-0.7
			c0-0.2,0-0.4,0-0.6v-8.5L270.2,304.9L270.2,304.9z"/>
		<path class="st0" d="M283,307.1h-4.2v11.8h-2.6v-11.8H272V305h11L283,307.1L283,307.1z"/>
		<path class="st0" d="M287.5,318.9h-2.6V305h2.6V318.9z"/>
		<path class="st0" d="M302.5,304.9l-5.6,13.9h-2.3l-5.6-13.9h2.1c0.2,0,0.4,0.1,0.5,0.2s0.2,0.2,0.3,0.4l3.3,8.5
			c0.1,0.3,0.2,0.6,0.3,0.9s0.2,0.7,0.3,1c0.1-0.4,0.2-0.7,0.3-1c0.1-0.3,0.2-0.6,0.3-0.9l3.3-8.5c0.1-0.1,0.2-0.3,0.3-0.4
			s0.3-0.2,0.6-0.2H302.5z"/>
		<path class="st0" d="M306.6,318.9H304V305h2.6V318.9z"/>
		<path class="st0" d="M319.3,305.9c0,0.3-0.1,0.6-0.3,0.8l-7.2,10.1h7.2v2.1h-10.6v-1c0-0.1,0-0.3,0.1-0.4c0-0.1,0.1-0.2,0.2-0.3
			l7.2-10.1h-7V305h10.3L319.3,305.9L319.3,305.9z"/>
		<path class="st0" d="M324,307v3.9h4.9v2H324v3.9h6.2v2.1h-8.8V305h8.8v2.1H324V307z"/>
		<path class="st0" d="M344.8,311.9c0,1-0.2,2-0.5,2.8c-0.3,0.9-0.8,1.6-1.4,2.2s-1.4,1.1-2.2,1.4s-1.8,0.5-2.9,0.5h-5.3v-13.9h5.3
			c1.1,0,2,0.2,2.9,0.5s1.6,0.8,2.2,1.4s1.1,1.3,1.4,2.2C344.7,310,344.8,310.9,344.8,311.9z M342.2,311.9c0-0.8-0.1-1.5-0.3-2.1
			c-0.2-0.6-0.5-1.1-0.9-1.5s-0.8-0.7-1.4-1c-0.5-0.2-1.2-0.3-1.8-0.3h-2.7v9.8h2.7c0.7,0,1.3-0.1,1.8-0.3c0.5-0.2,1-0.5,1.4-1
			s0.7-0.9,0.9-1.5S342.2,312.7,342.2,311.9z"/>
		<path class="st0" d="M363.5,304.9v13.9h-1.3c-0.2,0-0.4,0-0.5-0.1s-0.3-0.2-0.4-0.3l-7.3-9.3c0,0.4,0.1,0.8,0.1,1.2v8.6h-2.3V305
			h1.4c0.1,0,0.2,0,0.3,0c0.1,0,0.2,0,0.2,0.1c0.1,0,0.1,0.1,0.2,0.1c0.1,0.1,0.1,0.1,0.2,0.2l7.3,9.3c0-0.2,0-0.4,0-0.7
			c0-0.2,0-0.4,0-0.6v-8.5L363.5,304.9L363.5,304.9z"/>
		<path class="st0" d="M379.9,311.9c0,1-0.2,2-0.5,2.8c-0.3,0.9-0.8,1.6-1.4,2.3c-0.6,0.6-1.4,1.1-2.2,1.5c-0.9,0.4-1.8,0.5-2.9,0.5
			s-2-0.2-2.9-0.5s-1.6-0.9-2.2-1.5s-1.1-1.4-1.4-2.3s-0.5-1.8-0.5-2.8s0.2-2,0.5-2.8c0.3-0.9,0.8-1.6,1.4-2.3
			c0.6-0.6,1.4-1.1,2.2-1.5s1.8-0.5,2.9-0.5c0.7,0,1.4,0.1,2,0.2s1.2,0.4,1.7,0.7c0.5,0.3,1,0.7,1.4,1.1s0.8,0.9,1.1,1.4
			c0.3,0.5,0.5,1.1,0.7,1.7C379.9,310.6,379.9,311.2,379.9,311.9z M377.3,311.9c0-0.8-0.1-1.5-0.3-2.1s-0.5-1.1-0.9-1.5
			s-0.8-0.7-1.4-1c-0.5-0.2-1.2-0.3-1.8-0.3c-0.7,0-1.3,0.1-1.8,0.3c-0.5,0.2-1,0.5-1.4,1s-0.7,0.9-0.9,1.5
			c-0.2,0.6-0.3,1.3-0.3,2.1s0.1,1.5,0.3,2.1c0.2,0.6,0.5,1.1,0.9,1.5s0.8,0.7,1.4,1c0.5,0.2,1.2,0.3,1.8,0.3c0.7,0,1.3-0.1,1.8-0.3
			s1-0.5,1.4-1c0.4-0.4,0.7-0.9,0.9-1.5S377.3,312.7,377.3,311.9z"/>
		<path class="st0" d="M394.6,311.9c0,1-0.2,2-0.5,2.8c-0.3,0.9-0.8,1.6-1.4,2.2s-1.4,1.1-2.2,1.4s-1.8,0.5-2.9,0.5h-5.3v-13.9h5.3
			c1.1,0,2,0.2,2.9,0.5s1.6,0.8,2.2,1.4s1.1,1.3,1.4,2.2C394.4,310,394.6,310.9,394.6,311.9z M391.9,311.9c0-0.8-0.1-1.5-0.3-2.1
			c-0.2-0.6-0.5-1.1-0.9-1.5s-0.8-0.7-1.4-1c-0.5-0.2-1.2-0.3-1.8-0.3h-2.7v9.8h2.7c0.7,0,1.3-0.1,1.8-0.3c0.5-0.2,1-0.5,1.4-1
			s0.7-0.9,0.9-1.5S391.9,312.7,391.9,311.9z"/>
		<path class="st0" d="M399.5,307v3.9h4.9v2h-4.9v3.9h6.2v2.1h-8.8V305h8.8v2.1h-6.2V307z"/>
		<path class="st0" d="M415.4,307.5c-0.1,0.1-0.2,0.2-0.2,0.3c-0.1,0.1-0.2,0.1-0.3,0.1c-0.1,0-0.3,0-0.4-0.1
			c-0.2-0.1-0.3-0.2-0.6-0.3s-0.5-0.2-0.8-0.3s-0.6-0.1-1-0.1s-0.7,0-0.9,0.1c-0.3,0.1-0.5,0.2-0.7,0.4s-0.3,0.3-0.4,0.6
			c-0.1,0.2-0.1,0.5-0.1,0.7c0,0.3,0.1,0.6,0.3,0.8c0.2,0.2,0.4,0.4,0.7,0.6c0.3,0.2,0.6,0.3,1,0.4s0.8,0.3,1.2,0.4
			c0.4,0.1,0.8,0.3,1.2,0.5c0.4,0.2,0.7,0.4,1,0.7c0.3,0.3,0.5,0.6,0.7,1s0.3,0.9,0.3,1.5s-0.1,1.2-0.3,1.8c-0.2,0.5-0.5,1-0.9,1.4
			s-0.9,0.7-1.5,1c-0.6,0.2-1.3,0.4-2.1,0.4c-0.4,0-0.9,0-1.3-0.1s-0.8-0.2-1.2-0.4c-0.4-0.2-0.8-0.4-1.1-0.6
			c-0.3-0.2-0.7-0.5-0.9-0.8l0.8-1.2c0.1-0.1,0.1-0.2,0.3-0.2c0.1-0.1,0.2-0.1,0.3-0.1c0.2,0,0.3,0.1,0.5,0.2s0.4,0.3,0.7,0.4
			c0.3,0.2,0.6,0.3,0.9,0.4s0.8,0.2,1.2,0.2c0.7,0,1.3-0.2,1.7-0.5s0.6-0.9,0.6-1.5c0-0.4-0.1-0.7-0.3-0.9s-0.4-0.4-0.7-0.6
			c-0.3-0.2-0.6-0.3-1-0.4s-0.8-0.2-1.2-0.4c-0.4-0.1-0.8-0.3-1.2-0.5c-0.4-0.2-0.7-0.4-1-0.7c-0.3-0.3-0.5-0.7-0.7-1.1
			s-0.3-1-0.3-1.6c0-0.5,0.1-1,0.3-1.5c0.2-0.5,0.5-0.9,0.9-1.3s0.9-0.7,1.4-0.9c0.6-0.2,1.2-0.3,1.9-0.3c0.8,0,1.6,0.1,2.3,0.4
			s1.3,0.6,1.8,1.1L415.4,307.5z"/>
	</g>
	<line class="st1" x1="213.3" y1="288.8" x2="425.5" y2="288.8"/>
	<g>
		<g>
			<path class="st2" d="M258,214c0,0.5-0.2,1.1-0.6,1.6l-35.9,50.2h36.2v3.4H216v-1.5c0-0.3,0-0.6,0.1-0.8c0.1-0.2,0.2-0.4,0.3-0.7
				l36-50.3H217v-3.4h41V214z"/>
			<path class="st2" d="M290.6,212.6v31.5h-2.1c-0.3,0-0.6-0.1-0.8-0.2s-0.5-0.3-0.7-0.6l-18.2-23.8c0,0.4,0.1,0.7,0.1,1.1
				c0,0.4,0,0.7,0,1v22.5h-3.7v-31.5h2.2c0.2,0,0.4,0,0.5,0s0.2,0.1,0.4,0.1s0.2,0.1,0.3,0.2c0.1,0.1,0.2,0.2,0.3,0.4l18.2,23.7
				c0-0.4-0.1-0.8-0.1-1.1c0-0.4,0-0.7,0-1v-22.3L290.6,212.6L290.6,212.6z"/>
			<path class="st2" d="M327.8,228.4c0,2.4-0.4,4.5-1.1,6.5s-1.8,3.7-3.2,5.1c-1.4,1.4-3,2.5-4.9,3.3s-4,1.2-6.3,1.2
				s-4.4-0.4-6.3-1.2s-3.5-1.9-4.9-3.3c-1.4-1.4-2.4-3.1-3.2-5.1s-1.1-4.1-1.1-6.5s0.4-4.5,1.1-6.5s1.8-3.7,3.2-5.1
				c1.4-1.4,3-2.5,4.9-3.3s4-1.2,6.3-1.2s4.4,0.4,6.3,1.2s3.6,1.9,4.9,3.3c1.4,1.4,2.4,3.1,3.2,5.1S327.8,226,327.8,228.4z
				 M323.4,228.4c0-1.9-0.3-3.7-0.8-5.2s-1.3-2.8-2.2-3.9s-2.1-1.9-3.5-2.5s-2.9-0.9-4.6-0.9s-3.2,0.3-4.6,0.9s-2.6,1.4-3.5,2.5
				s-1.7,2.4-2.3,3.9c-0.5,1.5-0.8,3.3-0.8,5.2s0.3,3.7,0.8,5.2s1.3,2.8,2.3,3.9c1,1.1,2.2,1.9,3.5,2.4s2.9,0.8,4.6,0.8
				s3.2-0.3,4.6-0.8s2.6-1.4,3.5-2.4c1-1.1,1.7-2.4,2.2-3.9C323.2,232.1,323.4,230.3,323.4,228.4z"/>
			<path class="st2" d="M361.2,228.4c0,2.4-0.4,4.5-1.1,6.4s-1.8,3.6-3.2,5c-1.4,1.4-3,2.4-4.9,3.2s-4,1.1-6.3,1.1h-11.8v-31.5h11.8
				c2.3,0,4.4,0.4,6.3,1.1c1.9,0.8,3.6,1.8,4.9,3.2c1.4,1.4,2.4,3,3.2,5C360.8,223.9,361.2,226,361.2,228.4z M356.8,228.4
				c0-1.9-0.3-3.7-0.8-5.2s-1.3-2.8-2.2-3.9c-1-1.1-2.1-1.9-3.5-2.4c-1.4-0.6-2.9-0.8-4.6-0.8h-7.5v24.6h7.5c1.7,0,3.2-0.3,4.6-0.8
				s2.6-1.4,3.5-2.4c1-1,1.7-2.3,2.2-3.9C356.6,232.1,356.8,230.3,356.8,228.4z"/>
			<path class="st2" d="M386.8,240.7v3.5h-19.4v-31.5h19.4v3.5h-15.2v10.5h12.3v3.3h-12.3v10.8h15.2V240.7z"/>
			<path class="st2" d="M408.9,217.6c-0.1,0.2-0.3,0.4-0.4,0.5c-0.2,0.1-0.3,0.2-0.6,0.2c-0.2,0-0.5-0.1-0.9-0.4
				c-0.3-0.2-0.8-0.5-1.3-0.8s-1.1-0.6-1.8-0.8c-0.7-0.2-1.6-0.4-2.6-0.4s-1.8,0.1-2.5,0.4c-0.7,0.3-1.3,0.6-1.8,1s-0.9,1-1.1,1.6
				s-0.4,1.2-0.4,1.9c0,0.9,0.2,1.6,0.6,2.2c0.4,0.6,1,1.1,1.7,1.5s1.5,0.8,2.4,1.1s1.8,0.6,2.8,0.9s1.9,0.7,2.8,1.1
				c0.9,0.4,1.7,0.9,2.4,1.5c0.7,0.6,1.3,1.4,1.7,2.3s0.6,2,0.6,3.3c0,1.4-0.2,2.7-0.7,3.9s-1.2,2.3-2.1,3.2s-2,1.6-3.3,2.1
				s-2.8,0.8-4.5,0.8c-2.1,0-3.9-0.4-5.6-1.1s-3.1-1.7-4.3-3l1.2-2c0.1-0.2,0.3-0.3,0.4-0.4c0.2-0.1,0.4-0.2,0.6-0.2
				s0.4,0.1,0.6,0.2s0.5,0.3,0.8,0.6c0.3,0.2,0.7,0.5,1.1,0.8s0.8,0.5,1.4,0.8c0.5,0.2,1.1,0.4,1.7,0.6s1.4,0.2,2.2,0.2
				c1,0,1.9-0.1,2.7-0.4c0.8-0.3,1.5-0.7,2-1.2c0.6-0.5,1-1.1,1.3-1.8s0.4-1.5,0.4-2.4c0-1-0.2-1.7-0.6-2.3s-1-1.1-1.7-1.5
				s-1.5-0.8-2.4-1c-0.9-0.3-1.8-0.6-2.8-0.9s-1.9-0.6-2.8-1s-1.7-0.9-2.4-1.5c-0.7-0.6-1.3-1.4-1.7-2.4c-0.4-0.9-0.6-2.1-0.6-3.5
				c0-1.1,0.2-2.2,0.6-3.2s1.1-2,1.9-2.8s1.8-1.5,3.1-1.9c1.2-0.5,2.6-0.7,4.2-0.7c1.8,0,3.4,0.3,4.8,0.8c1.4,0.6,2.7,1.4,3.8,2.4
				L408.9,217.6z"/>
		</g>
	</g>
	<g>
		<path class="st2" d="M281.2,255.3v13.9h-2.3v-9c0-0.4,0-0.7,0.1-1.2l-4.2,7.9c-0.2,0.4-0.5,0.6-0.9,0.6h-0.4
			c-0.4,0-0.7-0.2-0.9-0.6l-4.3-7.9c0,0.2,0,0.4,0,0.6s0,0.4,0,0.6v9H266v-13.9h2c0.1,0,0.2,0,0.3,0c0.1,0,0.2,0,0.2,0
			c0.1,0,0.1,0.1,0.2,0.1c0.1,0.1,0.1,0.1,0.2,0.2l4.2,7.7c0.1,0.2,0.2,0.4,0.3,0.6c0.1,0.2,0.2,0.4,0.3,0.7
			c0.1-0.2,0.2-0.5,0.3-0.7c0.1-0.2,0.2-0.4,0.3-0.6l4.1-7.7c0.1-0.1,0.1-0.2,0.2-0.2c0.1-0.1,0.1-0.1,0.2-0.1s0.1,0,0.2,0
			s0.2,0,0.3,0L281.2,255.3L281.2,255.3z"/>
		<path class="st2" d="M286.9,269.3h-2.6v-13.9h2.6V269.3z"/>
		<path class="st2" d="M301.8,255.3v13.9h-1.3c-0.2,0-0.4,0-0.5-0.1s-0.3-0.2-0.4-0.3l-7.3-9.3c0,0.4,0.1,0.8,0.1,1.2v8.6H290v-13.9
			h1.4c0.1,0,0.2,0,0.3,0c0.1,0,0.2,0,0.2,0.1c0.1,0,0.1,0.1,0.2,0.1c0.1,0.1,0.1,0.1,0.2,0.2l7.3,9.3c0-0.2,0-0.4,0-0.7
			c0-0.2,0-0.4,0-0.6v-8.5L301.8,255.3L301.8,255.3z"/>
		<path class="st2" d="M304.1,268c0-0.2,0-0.4,0.1-0.6s0.2-0.3,0.3-0.5s0.3-0.2,0.5-0.3c0.2-0.1,0.4-0.1,0.6-0.1s0.4,0,0.6,0.1
			s0.3,0.2,0.5,0.3c0.1,0.1,0.2,0.3,0.3,0.5s0.1,0.4,0.1,0.6s0,0.4-0.1,0.6s-0.2,0.3-0.3,0.5c-0.1,0.1-0.3,0.2-0.5,0.3
			c-0.2,0.1-0.4,0.1-0.6,0.1s-0.4,0-0.6-0.1s-0.3-0.2-0.5-0.3c-0.1-0.1-0.2-0.3-0.3-0.5S304.1,268.2,304.1,268z"/>
		<path class="st2" d="M313.3,256.6c0.2-0.2,0.5-0.4,0.7-0.5c0.3-0.2,0.5-0.3,0.8-0.5c0.3-0.1,0.6-0.2,1-0.3s0.7-0.1,1.1-0.1
			c0.6,0,1.1,0.1,1.5,0.2c0.5,0.2,0.9,0.4,1.2,0.7c0.3,0.3,0.6,0.6,0.8,1c0.2,0.4,0.3,0.9,0.3,1.4s-0.1,0.9-0.2,1.3
			s-0.3,0.7-0.5,0.9c-0.2,0.3-0.4,0.5-0.7,0.7s-0.5,0.4-0.7,0.5c-0.2,0.2-0.4,0.3-0.6,0.5s-0.3,0.3-0.3,0.6l-0.2,1.4h-1.6l-0.2-1.6
			c0-0.3,0-0.6,0.1-0.8c0.1-0.2,0.3-0.4,0.5-0.6s0.4-0.4,0.7-0.5s0.5-0.4,0.7-0.6s0.4-0.4,0.6-0.7c0.2-0.3,0.2-0.6,0.2-0.9
			c0-0.2,0-0.4-0.1-0.6s-0.2-0.3-0.4-0.5c-0.2-0.1-0.3-0.2-0.6-0.3c-0.2-0.1-0.4-0.1-0.7-0.1c-0.4,0-0.7,0-0.9,0.1
			c-0.3,0.1-0.5,0.2-0.6,0.3s-0.3,0.2-0.4,0.3s-0.2,0.1-0.3,0.1c-0.2,0-0.4-0.1-0.5-0.3L313.3,256.6z M315.1,268
			c0-0.2,0-0.4,0.1-0.6s0.2-0.3,0.3-0.5s0.3-0.2,0.5-0.3s0.4-0.1,0.6-0.1s0.4,0,0.6,0.1s0.3,0.2,0.5,0.3s0.2,0.3,0.3,0.5
			s0.1,0.4,0.1,0.6s0,0.4-0.1,0.6s-0.2,0.3-0.3,0.5c-0.1,0.1-0.3,0.2-0.5,0.3c-0.2,0.1-0.4,0.1-0.6,0.1s-0.4,0-0.6-0.1
			s-0.3-0.2-0.5-0.3c-0.1-0.1-0.2-0.3-0.3-0.5C315.1,268.4,315.1,268.2,315.1,268z"/>
		<path class="st2" d="M322.1,256.6c0.2-0.2,0.5-0.4,0.7-0.5c0.3-0.2,0.5-0.3,0.8-0.5c0.3-0.1,0.6-0.2,1-0.3s0.7-0.1,1.1-0.1
			c0.6,0,1.1,0.1,1.5,0.2c0.5,0.2,0.9,0.4,1.2,0.7c0.3,0.3,0.6,0.6,0.8,1c0.2,0.4,0.3,0.9,0.3,1.4s-0.1,0.9-0.2,1.3
			s-0.3,0.7-0.5,0.9c-0.2,0.3-0.4,0.5-0.7,0.7s-0.5,0.4-0.7,0.5c-0.2,0.2-0.4,0.3-0.6,0.5s-0.3,0.3-0.3,0.6l-0.2,1.4h-1.6l-0.2-1.6
			c0-0.3,0-0.6,0.1-0.8c0.1-0.2,0.3-0.4,0.5-0.6s0.4-0.4,0.7-0.5s0.5-0.4,0.7-0.6s0.4-0.4,0.6-0.7c0.2-0.3,0.2-0.6,0.2-0.9
			c0-0.2,0-0.4-0.1-0.6s-0.2-0.3-0.4-0.5c-0.2-0.1-0.3-0.2-0.6-0.3c-0.2-0.1-0.4-0.1-0.7-0.1c-0.4,0-0.7,0-0.9,0.1
			c-0.3,0.1-0.5,0.2-0.6,0.3s-0.3,0.2-0.4,0.3s-0.2,0.1-0.3,0.1c-0.2,0-0.4-0.1-0.5-0.3L322.1,256.6z M323.9,268
			c0-0.2,0-0.4,0.1-0.6s0.2-0.3,0.3-0.5s0.3-0.2,0.5-0.3s0.4-0.1,0.6-0.1s0.4,0,0.6,0.1s0.3,0.2,0.5,0.3s0.2,0.3,0.3,0.5
			s0.1,0.4,0.1,0.6s0,0.4-0.1,0.6s-0.2,0.3-0.3,0.5c-0.1,0.1-0.3,0.2-0.5,0.3c-0.2,0.1-0.4,0.1-0.6,0.1s-0.4,0-0.6-0.1
			s-0.3-0.2-0.5-0.3c-0.1-0.1-0.2-0.3-0.3-0.5C324,268.4,323.9,268.2,323.9,268z"/>
		<path class="st2" d="M331,256.6c0.2-0.2,0.5-0.4,0.7-0.5c0.3-0.2,0.5-0.3,0.8-0.5c0.3-0.1,0.6-0.2,1-0.3s0.7-0.1,1.1-0.1
			c0.6,0,1.1,0.1,1.5,0.2c0.5,0.2,0.9,0.4,1.2,0.7c0.3,0.3,0.6,0.6,0.8,1c0.2,0.4,0.3,0.9,0.3,1.4s-0.1,0.9-0.2,1.3
			s-0.3,0.7-0.5,0.9c-0.2,0.3-0.4,0.5-0.7,0.7s-0.5,0.4-0.7,0.5c-0.2,0.2-0.4,0.3-0.6,0.5s-0.3,0.3-0.3,0.6l-0.2,1.4h-1.6l-0.2-1.6
			c0-0.3,0-0.6,0.1-0.8c0.1-0.2,0.3-0.4,0.5-0.6s0.4-0.4,0.7-0.5s0.5-0.4,0.7-0.6s0.4-0.4,0.6-0.7c0.2-0.3,0.2-0.6,0.2-0.9
			c0-0.2,0-0.4-0.1-0.6s-0.2-0.3-0.4-0.5c-0.2-0.1-0.3-0.2-0.6-0.3c-0.2-0.1-0.4-0.1-0.7-0.1c-0.4,0-0.7,0-0.9,0.1
			c-0.3,0.1-0.5,0.2-0.6,0.3s-0.3,0.2-0.4,0.3s-0.2,0.1-0.3,0.1c-0.2,0-0.4-0.1-0.5-0.3L331,256.6z M332.8,268c0-0.2,0-0.4,0.1-0.6
			s0.2-0.3,0.3-0.5s0.3-0.2,0.5-0.3s0.4-0.1,0.6-0.1s0.4,0,0.6,0.1s0.3,0.2,0.5,0.3s0.2,0.3,0.3,0.5s0.1,0.4,0.1,0.6s0,0.4-0.1,0.6
			s-0.2,0.3-0.3,0.5c-0.1,0.1-0.3,0.2-0.5,0.3c-0.2,0.1-0.4,0.1-0.6,0.1s-0.4,0-0.6-0.1s-0.3-0.2-0.5-0.3c-0.1-0.1-0.2-0.3-0.3-0.5
			C332.9,268.4,332.8,268.2,332.8,268z"/>
		<path class="st2" d="M356.7,269.3h-2.6c-0.2,0-0.3,0-0.4-0.1s-0.2-0.2-0.3-0.3l-3.2-5.3c-0.1,0.2-0.1,0.3-0.2,0.4l-3.1,4.9
			c-0.1,0.1-0.2,0.2-0.3,0.3s-0.2,0.1-0.4,0.1h-2.4l4.6-7.2l-4.4-6.8h2.6c0.2,0,0.3,0,0.4,0.1c0.1,0,0.2,0.1,0.2,0.2l3.2,5.1
			c0.1-0.2,0.1-0.3,0.2-0.5l2.9-4.6c0.1-0.1,0.1-0.2,0.2-0.3s0.2-0.1,0.3-0.1h2.5l-4.5,6.7L356.7,269.3z"/>
		<path class="st2" d="M367.9,256.3c0,0.3-0.1,0.6-0.3,0.8l-7.2,10.1h7.2v2.1H357v-1c0-0.1,0-0.3,0.1-0.4s0.1-0.2,0.2-0.3l7.2-10.1
			h-7v-2.1h10.3L367.9,256.3L367.9,256.3z"/>
		<path class="st2" d="M379.3,266c0.1,0,0.3,0.1,0.4,0.2l1,1.1c-0.6,0.7-1.3,1.2-2.1,1.6c-0.8,0.4-1.8,0.6-3,0.6c-1,0-2-0.2-2.8-0.5
			c-0.8-0.4-1.5-0.8-2.1-1.5c-0.6-0.6-1-1.4-1.3-2.3s-0.5-1.8-0.5-2.9c0-1,0.2-2,0.5-2.9s0.8-1.6,1.4-2.2s1.3-1.1,2.2-1.5
			c0.8-0.3,1.8-0.5,2.8-0.5s1.9,0.2,2.7,0.5c0.8,0.3,1.5,0.8,2,1.3l-0.9,1.2c-0.1,0.1-0.1,0.1-0.2,0.2s-0.2,0.1-0.3,0.1
			c-0.1,0-0.2,0-0.3-0.1s-0.2-0.1-0.3-0.2s-0.3-0.2-0.4-0.3c-0.2-0.1-0.3-0.2-0.6-0.3c-0.2-0.1-0.5-0.1-0.7-0.2s-0.6-0.1-1-0.1
			c-0.6,0-1.2,0.1-1.7,0.3c-0.5,0.2-1,0.5-1.3,1c-0.4,0.4-0.7,0.9-0.9,1.5c-0.2,0.6-0.3,1.3-0.3,2.1c0,0.8,0.1,1.5,0.3,2.1
			s0.5,1.1,0.9,1.5s0.8,0.7,1.3,1c0.5,0.2,1.1,0.3,1.7,0.3c0.4,0,0.7,0,1-0.1c0.3,0,0.5-0.1,0.8-0.2c0.2-0.1,0.5-0.2,0.7-0.3
			c0.2-0.1,0.4-0.3,0.6-0.5c0.1-0.1,0.1-0.1,0.2-0.1C379.1,266,379.2,266,379.3,266z"/>
	</g>
	<g>
		<path class="st2" d="M110.6,106.3c0.4,0,0.8,0.1,1,0.4c0.2,0.3,0.4,0.6,0.4,1v2.2H75.5v-1.4c0-0.3,0.1-0.6,0.2-0.9
			s0.3-0.6,0.6-0.8l19.3-19.6c1.6-1.6,3.1-3.2,4.4-4.7c1.4-1.5,2.5-3.1,3.5-4.6c1-1.5,1.8-3.1,2.3-4.8s0.8-3.4,0.8-5.2
			c0-2.1-0.3-3.9-1-5.4s-1.6-2.8-2.8-3.8c-1.1-1-2.5-1.7-4-2.2c-1.5-0.5-3.1-0.7-4.7-0.7c-1.8,0-3.4,0.3-4.9,0.8
			c-1.5,0.5-2.8,1.3-4,2.3c-1.2,1-2.1,2.1-2.9,3.5c-0.8,1.3-1.3,2.8-1.6,4.4c-0.2,0.6-0.4,1-0.7,1.2c-0.3,0.2-0.7,0.3-1.3,0.2
			l-2-0.3c0.3-2.4,1-4.6,2-6.5c1-1.9,2.2-3.5,3.8-4.8c1.5-1.3,3.3-2.3,5.3-3c2-0.7,4.2-1,6.5-1c2.2,0,4.2,0.3,6.2,0.9
			c2,0.6,3.7,1.6,5.2,2.8c1.5,1.3,2.7,2.9,3.6,4.8c0.9,1.9,1.3,4.1,1.3,6.7c0,2.1-0.3,4.1-1,5.9c-0.7,1.8-1.5,3.6-2.7,5.3
			c-1.1,1.7-2.4,3.3-3.9,4.9c-1.5,1.6-3,3.2-4.7,4.9L80.7,107c0.9-0.2,1.7-0.4,2.7-0.5c0.9-0.1,1.8-0.2,2.8-0.2H110.6z"/>
		<path class="st2" d="M157.1,107v3h-29.2v-3h13V61.1c0-0.9,0-1.9,0.1-2.9l-12.5,11.1c-0.4,0.3-0.7,0.4-1.1,0.4
			c-0.4-0.1-0.7-0.2-0.9-0.5l-1.2-1.6l16.4-14.4h3V107H157.1z"/>
		<path class="st2" d="M169.4,119.5c-0.1-0.1-0.2-0.2-0.3-0.3c0-0.1-0.1-0.2-0.1-0.4c0-0.2,0.1-0.4,0.3-0.6c0.2-0.3,0.6-0.7,1-1.2
			c0.4-0.5,0.8-1.1,1.3-1.8s0.8-1.5,1.2-2.4c0.4-0.9,0.6-1.8,0.7-2.8c-0.4,0.1-0.8,0.2-1.2,0.2c-1,0-1.8-0.3-2.4-1
			c-0.6-0.7-0.9-1.5-0.9-2.6c0-0.9,0.3-1.7,1-2.4c0.6-0.7,1.5-1,2.5-1c1.1,0,2,0.4,2.7,1.2c0.6,0.8,0.9,1.8,0.9,3.1
			c0,1.1-0.1,2.2-0.4,3.3s-0.7,2.2-1.2,3.3c-0.5,1.1-1.2,2.1-1.9,3.2s-1.6,1.9-2.5,2.8L169.4,119.5z"/>
		<path class="st2" d="M225,90.7v2.1c0,0.3-0.1,0.5-0.3,0.7c-0.2,0.2-0.4,0.3-0.8,0.3h-9.3v16.2h-3.4V93.7h-26.8
			c-0.4,0-0.7-0.1-0.9-0.3c-0.2-0.2-0.4-0.4-0.4-0.7l-0.4-1.9l28.4-37.6h3.4v37.4H225z M211.3,90.7V61c0-0.5,0-0.9,0.1-1.5
			c0-0.5,0.1-1.1,0.1-1.6L187,90.7H211.3z"/>
		<path class="st2" d="M250.6,96v13.9h-2.3v-9c0-0.4,0-0.8,0.1-1.2l-4.2,7.9c-0.2,0.4-0.5,0.6-0.9,0.6h-0.4c-0.4,0-0.7-0.2-0.9-0.6
			l-4.3-7.9c0,0.2,0,0.4,0,0.6c0,0.2,0,0.4,0,0.6v9h-2.3V96h2c0.1,0,0.2,0,0.3,0c0.1,0,0.2,0,0.2,0s0.1,0.1,0.2,0.1s0.1,0.1,0.2,0.2
			l4.2,7.7c0.1,0.2,0.2,0.4,0.3,0.6c0.1,0.2,0.2,0.4,0.3,0.7c0.1-0.2,0.2-0.5,0.3-0.7c0.1-0.2,0.2-0.4,0.3-0.6l4.1-7.7
			c0.1-0.1,0.1-0.2,0.2-0.2c0.1-0.1,0.1-0.1,0.2-0.1s0.1,0,0.2,0c0.1,0,0.2,0,0.3,0H250.6z"/>
		<path class="st2" d="M256.4,109.9h-2.6V96h2.6V109.9z"/>
		<path class="st2" d="M267.6,107.8v2.1h-8.2V96h2.6v11.8H267.6z"/>
	</g>
	<g>
		<path class="st0" d="M84.6,147.7h-4.2v11.8h-2.6v-11.8h-4.2v-2.1h11V147.7z"/>
		<path class="st0" d="M99.3,152.6c0,1-0.2,2-0.5,2.8c-0.3,0.9-0.8,1.6-1.4,2.3c-0.6,0.6-1.4,1.1-2.2,1.5c-0.9,0.4-1.8,0.5-2.9,0.5
			c-1.1,0-2-0.2-2.9-0.5c-0.9-0.4-1.6-0.9-2.2-1.5c-0.6-0.6-1.1-1.4-1.4-2.3c-0.3-0.9-0.5-1.8-0.5-2.8s0.2-2,0.5-2.8
			c0.3-0.9,0.8-1.6,1.4-2.3s1.4-1.1,2.2-1.5c0.9-0.4,1.8-0.5,2.9-0.5c0.7,0,1.4,0.1,2,0.2s1.2,0.4,1.7,0.7c0.5,0.3,1,0.7,1.4,1.1
			c0.4,0.4,0.8,0.9,1.1,1.4c0.3,0.5,0.5,1.1,0.7,1.7C99.2,151.2,99.3,151.9,99.3,152.6z M96.7,152.6c0-0.8-0.1-1.4-0.3-2.1
			s-0.5-1.1-0.9-1.5c-0.4-0.4-0.8-0.7-1.4-1c-0.5-0.2-1.2-0.3-1.8-0.3c-0.7,0-1.3,0.1-1.8,0.3c-0.5,0.2-1,0.5-1.4,1
			s-0.7,0.9-0.9,1.5c-0.2,0.6-0.3,1.3-0.3,2.1c0,0.8,0.1,1.5,0.3,2.1c0.2,0.6,0.5,1.1,0.9,1.5c0.4,0.4,0.8,0.7,1.4,1
			c0.5,0.2,1.2,0.3,1.8,0.3c0.7,0,1.3-0.1,1.8-0.3s1-0.5,1.4-1c0.4-0.4,0.7-0.9,0.9-1.5S96.7,153.3,96.7,152.6z"/>
		<path class="st0" d="M110.8,147.7h-4.2v11.8h-2.6v-11.8h-4.2v-2.1h11V147.7z"/>
		<path class="st0" d="M123.3,159.5h-2c-0.2,0-0.4-0.1-0.5-0.2c-0.1-0.1-0.2-0.3-0.3-0.4l-1-2.8h-5.8l-1,2.8
			c-0.1,0.1-0.2,0.3-0.3,0.4c-0.1,0.1-0.3,0.2-0.5,0.2h-2l5.5-13.9h2.6L123.3,159.5z M118.7,154.3l-1.7-4.6
			c-0.1-0.2-0.2-0.4-0.3-0.7c-0.1-0.3-0.2-0.6-0.3-0.9c-0.1,0.3-0.2,0.6-0.3,0.9c-0.1,0.3-0.2,0.5-0.3,0.7l-1.7,4.6H118.7z"/>
		<path class="st0" d="M132.9,157.4v2.1h-8.2v-13.9h2.6v11.8H132.9z"/>
		<path class="st0" d="M146.2,148.1c-0.1,0.1-0.2,0.2-0.2,0.3s-0.2,0.1-0.3,0.1c-0.1,0-0.3-0.1-0.4-0.2c-0.2-0.1-0.3-0.2-0.6-0.3
			c-0.2-0.1-0.5-0.2-0.8-0.3s-0.6-0.2-1-0.2c-0.4,0-0.7,0-0.9,0.1s-0.5,0.2-0.7,0.4s-0.3,0.3-0.4,0.6c-0.1,0.2-0.1,0.5-0.1,0.7
			c0,0.3,0.1,0.6,0.3,0.8s0.4,0.4,0.7,0.6c0.3,0.2,0.6,0.3,1,0.4c0.4,0.1,0.8,0.3,1.2,0.4s0.8,0.3,1.2,0.5c0.4,0.2,0.7,0.4,1,0.7
			c0.3,0.3,0.5,0.6,0.7,1c0.2,0.4,0.3,0.9,0.3,1.5c0,0.6-0.1,1.2-0.3,1.8c-0.2,0.5-0.5,1-0.9,1.4c-0.4,0.4-0.9,0.7-1.5,1
			c-0.6,0.2-1.3,0.4-2.1,0.4c-0.4,0-0.9,0-1.3-0.1c-0.4-0.1-0.8-0.2-1.2-0.4c-0.4-0.2-0.8-0.4-1.1-0.6c-0.3-0.2-0.7-0.5-0.9-0.8
			l0.8-1.2c0.1-0.1,0.1-0.2,0.3-0.2c0.1-0.1,0.2-0.1,0.3-0.1c0.2,0,0.3,0.1,0.5,0.2s0.4,0.3,0.7,0.4c0.3,0.2,0.6,0.3,0.9,0.4
			s0.8,0.2,1.2,0.2c0.7,0,1.3-0.2,1.7-0.5c0.4-0.3,0.6-0.9,0.6-1.5c0-0.4-0.1-0.7-0.3-0.9c-0.2-0.2-0.4-0.4-0.7-0.6
			c-0.3-0.2-0.6-0.3-1-0.4c-0.4-0.1-0.8-0.2-1.2-0.4c-0.4-0.1-0.8-0.3-1.2-0.5c-0.4-0.2-0.7-0.4-1-0.7c-0.3-0.3-0.5-0.7-0.7-1.1
			s-0.3-1-0.3-1.6c0-0.5,0.1-1,0.3-1.5c0.2-0.5,0.5-0.9,0.9-1.3c0.4-0.4,0.9-0.7,1.4-0.9c0.6-0.2,1.2-0.3,1.9-0.3
			c0.8,0,1.6,0.1,2.3,0.4c0.7,0.3,1.3,0.6,1.8,1.1L146.2,148.1z"/>
		<path class="st0" d="M155,157.5c0.5,0,0.9-0.1,1.3-0.2c0.4-0.2,0.7-0.4,1-0.7c0.3-0.3,0.5-0.7,0.6-1.1s0.2-0.9,0.2-1.4v-8.3h2.6
			v8.3c0,0.8-0.1,1.6-0.4,2.3c-0.3,0.7-0.6,1.3-1.1,1.8c-0.5,0.5-1.1,0.9-1.8,1.2c-0.7,0.3-1.5,0.4-2.4,0.4c-0.9,0-1.7-0.1-2.4-0.4
			c-0.7-0.3-1.3-0.7-1.8-1.2c-0.5-0.5-0.9-1.1-1.1-1.8c-0.3-0.7-0.4-1.5-0.4-2.3v-8.3h2.6v8.3c0,0.5,0.1,1,0.2,1.4
			c0.1,0.4,0.4,0.8,0.6,1.1c0.3,0.3,0.6,0.5,1,0.7C154.1,157.4,154.5,157.5,155,157.5z"/>
		<path class="st0" d="M168.2,145.6c0.9,0,1.7,0.1,2.4,0.3c0.7,0.2,1.2,0.5,1.7,0.9c0.4,0.4,0.8,0.9,1,1.4c0.2,0.5,0.3,1.1,0.3,1.8
			c0,0.7-0.1,1.3-0.3,1.9c-0.2,0.6-0.6,1-1,1.5s-1,0.7-1.7,0.9c-0.7,0.2-1.5,0.3-2.4,0.3h-1.9v4.9h-2.6v-13.9H168.2z M168.2,152.6
			c0.5,0,0.9-0.1,1.2-0.2s0.6-0.3,0.9-0.5c0.2-0.2,0.4-0.5,0.5-0.8s0.2-0.7,0.2-1.1c0-0.4-0.1-0.7-0.2-1c-0.1-0.3-0.3-0.6-0.5-0.8
			c-0.2-0.2-0.5-0.4-0.9-0.5c-0.4-0.1-0.8-0.2-1.3-0.2h-1.9v5H168.2z"/>
		<path class="st0" d="M180.2,145.6c0.9,0,1.7,0.1,2.4,0.3c0.7,0.2,1.2,0.5,1.7,0.9c0.4,0.4,0.8,0.9,1,1.4c0.2,0.5,0.3,1.1,0.3,1.8
			c0,0.7-0.1,1.3-0.3,1.9c-0.2,0.6-0.6,1-1,1.5s-1,0.7-1.7,0.9c-0.7,0.2-1.5,0.3-2.4,0.3h-1.9v4.9h-2.6v-13.9H180.2z M180.2,152.6
			c0.5,0,0.9-0.1,1.2-0.2s0.6-0.3,0.9-0.5c0.2-0.2,0.4-0.5,0.5-0.8s0.2-0.7,0.2-1.1c0-0.4-0.1-0.7-0.2-1c-0.1-0.3-0.3-0.6-0.5-0.8
			c-0.2-0.2-0.5-0.4-0.9-0.5c-0.4-0.1-0.8-0.2-1.3-0.2h-1.9v5H180.2z"/>
		<path class="st0" d="M195.7,157.4v2.1h-8.2v-13.9h2.6v11.8H195.7z"/>
		<path class="st0" d="M201.7,154.2v5.4h-2.6v-5.4l-5.1-8.5h2.3c0.2,0,0.4,0.1,0.5,0.2c0.1,0.1,0.2,0.2,0.3,0.4l2.5,4.7
			c0.1,0.3,0.3,0.5,0.4,0.8s0.2,0.5,0.3,0.7c0.1-0.2,0.2-0.5,0.3-0.7s0.2-0.5,0.4-0.8l2.5-4.7c0.1-0.1,0.2-0.3,0.3-0.4
			c0.1-0.1,0.3-0.2,0.5-0.2h2.3L201.7,154.2z"/>
	</g>
	<line class="st1" x1="73.9" y1="129.5" x2="286.2" y2="129.5"/>
</g>
</svg>
