<?xml version="1.0" encoding="utf-8"?>
<!-- Generator: Adobe Illustrator 21.1.0, SVG Export Plug-In . SVG Version: 6.00 Build 0)  -->
<svg version="1.1" id="Ebene_1" xmlns="http://www.w3.org/2000/svg" xmlns:xlink="http://www.w3.org/1999/xlink" x="0px" y="0px"
	 viewBox="0 0 1488 148.5" style="enable-background:new 0 0 1488 148.5;" xml:space="preserve">
<style type="text/css">
	.st0{fill:#3EAD54;}
	.st1{fill:#FFFFFF;}
	.st2{fill:none;stroke:#FFFFFF;stroke-width:2;stroke-miterlimit:10;}
	.st3{fill:none;stroke:#3EAD54;stroke-width:4;stroke-miterlimit:10;}
</style>
<g>
	<g>
		<path class="st0" d="M111.6,89.3c0.4,0,0.8,0.1,1,0.4c0.2,0.3,0.4,0.6,0.4,1v2.2H76.5v-1.4c0-0.3,0.1-0.6,0.2-0.9s0.3-0.6,0.6-0.8
			l19.3-19.6c1.6-1.6,3.1-3.2,4.4-4.7c1.4-1.5,2.5-3.1,3.5-4.6c1-1.5,1.8-3.1,2.3-4.8s0.8-3.4,0.8-5.2c0-2.1-0.3-3.9-1-5.4
			s-1.6-2.8-2.8-3.8c-1.1-1-2.5-1.7-4-2.2c-1.5-0.5-3.1-0.7-4.7-0.7c-1.8,0-3.4,0.3-4.9,0.8c-1.5,0.5-2.8,1.3-4,2.3
			c-1.2,1-2.1,2.1-2.9,3.5c-0.8,1.3-1.3,2.8-1.6,4.4c-0.2,0.6-0.4,1-0.7,1.2c-0.3,0.2-0.7,0.3-1.3,0.2l-2-0.3c0.3-2.4,1-4.6,2-6.5
			c1-1.9,2.2-3.5,3.8-4.8c1.5-1.3,3.3-2.3,5.3-3c2-0.7,4.2-1,6.5-1c2.2,0,4.2,0.3,6.2,0.9c2,0.6,3.7,1.6,5.2,2.8
			c1.5,1.3,2.7,2.9,3.6,4.8c0.9,1.9,1.3,4.1,1.3,6.7c0,2.1-0.3,4.1-1,5.9c-0.7,1.8-1.5,3.6-2.7,5.3c-1.1,1.7-2.4,3.3-3.9,4.9
			c-1.5,1.6-3,3.2-4.7,4.9L81.7,90c0.9-0.2,1.7-0.4,2.7-0.5c0.9-0.1,1.8-0.2,2.8-0.2H111.6z"/>
		<path class="st0" d="M158.1,90v3h-29.2v-3h13V44.1c0-0.9,0-1.9,0.1-2.9l-12.5,11.1c-0.4,0.3-0.7,0.4-1.1,0.4
			c-0.4-0.1-0.7-0.2-0.9-0.5l-1.2-1.6l16.4-14.4h3V90H158.1z"/>
		<path class="st0" d="M170.4,102.5c-0.1-0.1-0.2-0.2-0.3-0.3c0-0.1-0.1-0.2-0.1-0.4c0-0.2,0.1-0.4,0.3-0.6c0.2-0.3,0.6-0.7,1-1.2
			c0.4-0.5,0.8-1.1,1.3-1.8s0.8-1.5,1.2-2.4c0.4-0.9,0.6-1.8,0.7-2.8c-0.4,0.1-0.8,0.2-1.2,0.2c-1,0-1.8-0.3-2.4-1
			c-0.6-0.7-0.9-1.5-0.9-2.6c0-0.9,0.3-1.7,1-2.4c0.6-0.7,1.5-1,2.5-1c1.1,0,2,0.4,2.7,1.2c0.6,0.8,0.9,1.8,0.9,3.1
			c0,1.1-0.1,2.2-0.4,3.3s-0.7,2.2-1.2,3.3c-0.5,1.1-1.2,2.1-1.9,3.2s-1.6,1.9-2.5,2.8L170.4,102.5z"/>
		<path class="st0" d="M226,73.7v2.1c0,0.3-0.1,0.5-0.3,0.7c-0.2,0.2-0.4,0.3-0.8,0.3h-9.3v16.2h-3.4V76.7h-26.8
			c-0.4,0-0.7-0.1-0.9-0.3c-0.2-0.2-0.4-0.4-0.4-0.7l-0.4-1.9l28.4-37.6h3.4v37.4H226z M212.3,73.7V44c0-0.5,0-0.9,0.1-1.5
			c0-0.5,0.1-1.1,0.1-1.6L188,73.7H212.3z"/>
		<path class="st0" d="M251.6,79v13.9h-2.3v-9c0-0.4,0-0.8,0.1-1.2l-4.2,7.9c-0.2,0.4-0.5,0.6-0.9,0.6h-0.4c-0.4,0-0.7-0.2-0.9-0.6
			l-4.3-7.9c0,0.2,0,0.4,0,0.6c0,0.2,0,0.4,0,0.6v9h-2.3V79h2c0.1,0,0.2,0,0.3,0c0.1,0,0.2,0,0.2,0s0.1,0.1,0.2,0.1s0.1,0.1,0.2,0.2
			l4.2,7.7c0.1,0.2,0.2,0.4,0.3,0.6c0.1,0.2,0.2,0.4,0.3,0.7c0.1-0.2,0.2-0.5,0.3-0.7c0.1-0.2,0.2-0.4,0.3-0.6l4.1-7.7
			c0.1-0.1,0.1-0.2,0.2-0.2c0.1-0.1,0.1-0.1,0.2-0.1s0.1,0,0.2,0c0.1,0,0.2,0,0.3,0H251.6z"/>
		<path class="st0" d="M257.4,92.9h-2.6V79h2.6V92.9z"/>
		<path class="st0" d="M268.6,90.8v2.1h-8.2V79h2.6v11.8H268.6z"/>
	</g>
	<g>
		<path class="st1" d="M85.6,130.7h-4.2v11.8h-2.6v-11.8h-4.2v-2.1h11V130.7z"/>
		<path class="st1" d="M100.3,135.6c0,1-0.2,2-0.5,2.8c-0.3,0.9-0.8,1.6-1.4,2.3c-0.6,0.6-1.4,1.1-2.2,1.5c-0.9,0.4-1.8,0.5-2.9,0.5
			c-1.1,0-2-0.2-2.9-0.5c-0.9-0.4-1.6-0.9-2.2-1.5c-0.6-0.6-1.1-1.4-1.4-2.3c-0.3-0.9-0.5-1.8-0.5-2.8s0.2-2,0.5-2.8
			c0.3-0.9,0.8-1.6,1.4-2.3s1.4-1.1,2.2-1.5c0.9-0.4,1.8-0.5,2.9-0.5c0.7,0,1.4,0.1,2,0.2s1.2,0.4,1.7,0.7c0.5,0.3,1,0.7,1.4,1.1
			c0.4,0.4,0.8,0.9,1.1,1.4c0.3,0.5,0.5,1.1,0.7,1.7C100.2,134.2,100.3,134.9,100.3,135.6z M97.7,135.6c0-0.8-0.1-1.4-0.3-2.1
			s-0.5-1.1-0.9-1.5c-0.4-0.4-0.8-0.7-1.4-1c-0.5-0.2-1.2-0.3-1.8-0.3c-0.7,0-1.3,0.1-1.8,0.3c-0.5,0.2-1,0.5-1.4,1
			s-0.7,0.9-0.9,1.5c-0.2,0.6-0.3,1.3-0.3,2.1c0,0.8,0.1,1.5,0.3,2.1c0.2,0.6,0.5,1.1,0.9,1.5c0.4,0.4,0.8,0.7,1.4,1
			c0.5,0.2,1.2,0.3,1.8,0.3c0.7,0,1.3-0.1,1.8-0.3s1-0.5,1.4-1c0.4-0.4,0.7-0.9,0.9-1.5S97.7,136.3,97.7,135.6z"/>
		<path class="st1" d="M111.8,130.7h-4.2v11.8h-2.6v-11.8h-4.2v-2.1h11V130.7z"/>
		<path class="st1" d="M124.3,142.5h-2c-0.2,0-0.4-0.1-0.5-0.2c-0.1-0.1-0.2-0.3-0.3-0.4l-1-2.8h-5.8l-1,2.8
			c-0.1,0.1-0.2,0.3-0.3,0.4c-0.1,0.1-0.3,0.2-0.5,0.2h-2l5.5-13.9h2.6L124.3,142.5z M119.7,137.3l-1.7-4.6
			c-0.1-0.2-0.2-0.4-0.3-0.7c-0.1-0.3-0.2-0.6-0.3-0.9c-0.1,0.3-0.2,0.6-0.3,0.9c-0.1,0.3-0.2,0.5-0.3,0.7l-1.7,4.6H119.7z"/>
		<path class="st1" d="M133.9,140.4v2.1h-8.2v-13.9h2.6v11.8H133.9z"/>
		<path class="st1" d="M147.2,131.1c-0.1,0.1-0.2,0.2-0.2,0.3s-0.2,0.1-0.3,0.1c-0.1,0-0.3-0.1-0.4-0.2c-0.2-0.1-0.3-0.2-0.6-0.3
			c-0.2-0.1-0.5-0.2-0.8-0.3s-0.6-0.2-1-0.2c-0.4,0-0.7,0-0.9,0.1s-0.5,0.2-0.7,0.4s-0.3,0.3-0.4,0.6c-0.1,0.2-0.1,0.5-0.1,0.7
			c0,0.3,0.1,0.6,0.3,0.8s0.4,0.4,0.7,0.6c0.3,0.2,0.6,0.3,1,0.4c0.4,0.1,0.8,0.3,1.2,0.4s0.8,0.3,1.2,0.5c0.4,0.2,0.7,0.4,1,0.7
			c0.3,0.3,0.5,0.6,0.7,1c0.2,0.4,0.3,0.9,0.3,1.5c0,0.6-0.1,1.2-0.3,1.8c-0.2,0.5-0.5,1-0.9,1.4c-0.4,0.4-0.9,0.7-1.5,1
			c-0.6,0.2-1.3,0.4-2.1,0.4c-0.4,0-0.9,0-1.3-0.1c-0.4-0.1-0.8-0.2-1.2-0.4c-0.4-0.2-0.8-0.4-1.1-0.6c-0.3-0.2-0.7-0.5-0.9-0.8
			l0.8-1.2c0.1-0.1,0.1-0.2,0.3-0.2c0.1-0.1,0.2-0.1,0.3-0.1c0.2,0,0.3,0.1,0.5,0.2s0.4,0.3,0.7,0.4c0.3,0.2,0.6,0.3,0.9,0.4
			s0.8,0.2,1.2,0.2c0.7,0,1.3-0.2,1.7-0.5c0.4-0.3,0.6-0.9,0.6-1.5c0-0.4-0.1-0.7-0.3-0.9c-0.2-0.2-0.4-0.4-0.7-0.6
			c-0.3-0.2-0.6-0.3-1-0.4c-0.4-0.1-0.8-0.2-1.2-0.4c-0.4-0.1-0.8-0.3-1.2-0.5c-0.4-0.2-0.7-0.4-1-0.7c-0.3-0.3-0.5-0.7-0.7-1.1
			s-0.3-1-0.3-1.6c0-0.5,0.1-1,0.3-1.5c0.2-0.5,0.5-0.9,0.9-1.3c0.4-0.4,0.9-0.7,1.4-0.9c0.6-0.2,1.2-0.3,1.9-0.3
			c0.8,0,1.6,0.1,2.3,0.4c0.7,0.3,1.3,0.6,1.8,1.1L147.2,131.1z"/>
		<path class="st1" d="M156,140.5c0.5,0,0.9-0.1,1.3-0.2c0.4-0.2,0.7-0.4,1-0.7c0.3-0.3,0.5-0.7,0.6-1.1s0.2-0.9,0.2-1.4v-8.3h2.6
			v8.3c0,0.8-0.1,1.6-0.4,2.3c-0.3,0.7-0.6,1.3-1.1,1.8c-0.5,0.5-1.1,0.9-1.8,1.2c-0.7,0.3-1.5,0.4-2.4,0.4c-0.9,0-1.7-0.1-2.4-0.4
			c-0.7-0.3-1.3-0.7-1.8-1.2c-0.5-0.5-0.9-1.1-1.1-1.8c-0.3-0.7-0.4-1.5-0.4-2.3v-8.3h2.6v8.3c0,0.5,0.1,1,0.2,1.4
			c0.1,0.4,0.4,0.8,0.6,1.1c0.3,0.3,0.6,0.5,1,0.7C155.1,140.4,155.5,140.5,156,140.5z"/>
		<path class="st1" d="M169.2,128.6c0.9,0,1.7,0.1,2.4,0.3c0.7,0.2,1.2,0.5,1.7,0.9c0.4,0.4,0.8,0.9,1,1.4c0.2,0.5,0.3,1.1,0.3,1.8
			c0,0.7-0.1,1.3-0.3,1.9c-0.2,0.6-0.6,1-1,1.5s-1,0.7-1.7,0.9c-0.7,0.2-1.5,0.3-2.4,0.3h-1.9v4.9h-2.6v-13.9H169.2z M169.2,135.6
			c0.5,0,0.9-0.1,1.2-0.2s0.6-0.3,0.9-0.5c0.2-0.2,0.4-0.5,0.5-0.8s0.2-0.7,0.2-1.1c0-0.4-0.1-0.7-0.2-1c-0.1-0.3-0.3-0.6-0.5-0.8
			c-0.2-0.2-0.5-0.4-0.9-0.5c-0.4-0.1-0.8-0.2-1.3-0.2h-1.9v5H169.2z"/>
		<path class="st1" d="M181.2,128.6c0.9,0,1.7,0.1,2.4,0.3c0.7,0.2,1.2,0.5,1.7,0.9c0.4,0.4,0.8,0.9,1,1.4c0.2,0.5,0.3,1.1,0.3,1.8
			c0,0.7-0.1,1.3-0.3,1.9c-0.2,0.6-0.6,1-1,1.5s-1,0.7-1.7,0.9c-0.7,0.2-1.5,0.3-2.4,0.3h-1.9v4.9h-2.6v-13.9H181.2z M181.2,135.6
			c0.5,0,0.9-0.1,1.2-0.2s0.6-0.3,0.9-0.5c0.2-0.2,0.4-0.5,0.5-0.8s0.2-0.7,0.2-1.1c0-0.4-0.1-0.7-0.2-1c-0.1-0.3-0.3-0.6-0.5-0.8
			c-0.2-0.2-0.5-0.4-0.9-0.5c-0.4-0.1-0.8-0.2-1.3-0.2h-1.9v5H181.2z"/>
		<path class="st1" d="M196.7,140.4v2.1h-8.2v-13.9h2.6v11.8H196.7z"/>
		<path class="st1" d="M202.7,137.2v5.4h-2.6v-5.4l-5.1-8.5h2.3c0.2,0,0.4,0.1,0.5,0.2c0.1,0.1,0.2,0.2,0.3,0.4l2.5,4.7
			c0.1,0.3,0.3,0.5,0.4,0.8s0.2,0.5,0.3,0.7c0.1-0.2,0.2-0.5,0.3-0.7s0.2-0.5,0.4-0.8l2.5-4.7c0.1-0.1,0.2-0.3,0.3-0.4
			c0.1-0.1,0.3-0.2,0.5-0.2h2.3L202.7,137.2z"/>
	</g>
	<line class="st2" x1="74.9" y1="112.5" x2="287.2" y2="112.5"/>
	<g>
		<path class="st1" d="M363.5,128.6c0.9,0,1.7,0.1,2.4,0.3c0.7,0.2,1.2,0.5,1.7,0.9c0.4,0.4,0.8,0.9,1,1.4c0.2,0.5,0.3,1.1,0.3,1.8
			c0,0.7-0.1,1.3-0.3,1.9c-0.2,0.6-0.6,1-1,1.5s-1,0.7-1.7,0.9c-0.7,0.2-1.5,0.3-2.4,0.3h-1.9v4.9H359v-13.9H363.5z M363.5,135.6
			c0.5,0,0.9-0.1,1.2-0.2s0.6-0.3,0.9-0.5c0.2-0.2,0.4-0.5,0.5-0.8s0.2-0.7,0.2-1.1c0-0.4-0.1-0.7-0.2-1c-0.1-0.3-0.3-0.6-0.5-0.8
			c-0.2-0.2-0.5-0.4-0.9-0.5c-0.4-0.1-0.8-0.2-1.3-0.2h-1.9v5H363.5z"/>
		<path class="st1" d="M381.8,142.5h-2.3c-0.4,0-0.8-0.2-1-0.5l-2.9-4.5c-0.1-0.2-0.2-0.3-0.4-0.4c-0.1-0.1-0.3-0.1-0.6-0.1h-1.1
			v5.4h-2.6v-13.9h4.2c0.9,0,1.8,0.1,2.4,0.3c0.7,0.2,1.2,0.5,1.7,0.8s0.8,0.8,1,1.3c0.2,0.5,0.3,1,0.3,1.6c0,0.5-0.1,0.9-0.2,1.3
			c-0.1,0.4-0.3,0.8-0.6,1.1c-0.3,0.3-0.6,0.6-1,0.9c-0.4,0.3-0.8,0.5-1.3,0.6c0.2,0.1,0.3,0.2,0.5,0.3c0.1,0.1,0.3,0.3,0.4,0.5
			L381.8,142.5z M375.1,135.2c0.5,0,0.9-0.1,1.3-0.2c0.4-0.1,0.7-0.3,0.9-0.5c0.2-0.2,0.4-0.5,0.5-0.8c0.1-0.3,0.2-0.6,0.2-1
			c0-0.7-0.2-1.2-0.7-1.6s-1.2-0.6-2.1-0.6h-1.7v4.6H375.1z"/>
		<path class="st1" d="M396.4,135.6c0,1-0.2,2-0.5,2.8c-0.3,0.9-0.8,1.6-1.4,2.3c-0.6,0.6-1.4,1.1-2.2,1.5c-0.9,0.4-1.8,0.5-2.9,0.5
			c-1.1,0-2-0.2-2.9-0.5c-0.9-0.4-1.6-0.9-2.2-1.5c-0.6-0.6-1.1-1.4-1.4-2.3c-0.3-0.9-0.5-1.8-0.5-2.8s0.2-2,0.5-2.8
			c0.3-0.9,0.8-1.6,1.4-2.3s1.4-1.1,2.2-1.5c0.9-0.4,1.8-0.5,2.9-0.5c0.7,0,1.4,0.1,2,0.2s1.2,0.4,1.7,0.7c0.5,0.3,1,0.7,1.4,1.1
			c0.4,0.4,0.8,0.9,1.1,1.4c0.3,0.5,0.5,1.1,0.7,1.7C396.3,134.2,396.4,134.9,396.4,135.6z M393.7,135.6c0-0.8-0.1-1.4-0.3-2.1
			s-0.5-1.1-0.9-1.5c-0.4-0.4-0.8-0.7-1.4-1c-0.5-0.2-1.2-0.3-1.8-0.3c-0.7,0-1.3,0.1-1.8,0.3c-0.5,0.2-1,0.5-1.4,1
			s-0.7,0.9-0.9,1.5c-0.2,0.6-0.3,1.3-0.3,2.1c0,0.8,0.1,1.5,0.3,2.1c0.2,0.6,0.5,1.1,0.9,1.5c0.4,0.4,0.8,0.7,1.4,1
			c0.5,0.2,1.2,0.3,1.8,0.3c0.7,0,1.3-0.1,1.8-0.3s1-0.5,1.4-1c0.4-0.4,0.7-0.9,0.9-1.5S393.7,136.3,393.7,135.6z"/>
		<path class="st1" d="M412,135.6c0,1-0.2,2-0.5,2.8c-0.3,0.9-0.8,1.6-1.4,2.3c-0.6,0.6-1.4,1.1-2.2,1.5c-0.9,0.4-1.8,0.5-2.9,0.5
			c-1.1,0-2-0.2-2.9-0.5c-0.9-0.4-1.6-0.9-2.2-1.5c-0.6-0.6-1.1-1.4-1.4-2.3c-0.3-0.9-0.5-1.8-0.5-2.8s0.2-2,0.5-2.8
			c0.3-0.9,0.8-1.6,1.4-2.3s1.4-1.1,2.2-1.5c0.9-0.4,1.8-0.5,2.9-0.5c0.7,0,1.4,0.1,2,0.2s1.2,0.4,1.7,0.7c0.5,0.3,1,0.7,1.4,1.1
			c0.4,0.4,0.8,0.9,1.1,1.4c0.3,0.5,0.5,1.1,0.7,1.7C411.9,134.2,412,134.9,412,135.6z M409.3,135.6c0-0.8-0.1-1.4-0.3-2.1
			s-0.5-1.1-0.9-1.5c-0.4-0.4-0.8-0.7-1.4-1c-0.5-0.2-1.2-0.3-1.8-0.3c-0.7,0-1.3,0.1-1.8,0.3c-0.5,0.2-1,0.5-1.4,1
			s-0.7,0.9-0.9,1.5c-0.2,0.6-0.3,1.3-0.3,2.1c0,0.8,0.1,1.5,0.3,2.1c0.2,0.6,0.5,1.1,0.9,1.5c0.4,0.4,0.8,0.7,1.4,1
			c0.5,0.2,1.2,0.3,1.8,0.3c0.7,0,1.3-0.1,1.8-0.3s1-0.5,1.4-1c0.4-0.4,0.7-0.9,0.9-1.5S409.3,136.3,409.3,135.6z"/>
		<path class="st1" d="M416.9,130.7v4.1h5.2v2.1h-5.2v5.7h-2.6v-13.9h8.8v2.1H416.9z"/>
		<path class="st1" d="M442.7,135.6c0,1-0.2,2-0.5,2.8c-0.3,0.9-0.8,1.6-1.4,2.3c-0.6,0.6-1.4,1.1-2.2,1.5c-0.9,0.4-1.8,0.5-2.9,0.5
			c-1.1,0-2-0.2-2.9-0.5c-0.9-0.4-1.6-0.9-2.2-1.5c-0.6-0.6-1.1-1.4-1.4-2.3c-0.3-0.9-0.5-1.8-0.5-2.8s0.2-2,0.5-2.8
			c0.3-0.9,0.8-1.6,1.4-2.3s1.4-1.1,2.2-1.5c0.9-0.4,1.8-0.5,2.9-0.5c0.7,0,1.4,0.1,2,0.2s1.2,0.4,1.7,0.7c0.5,0.3,1,0.7,1.4,1.1
			c0.4,0.4,0.8,0.9,1.1,1.4c0.3,0.5,0.5,1.1,0.7,1.7C442.6,134.2,442.7,134.9,442.7,135.6z M440,135.6c0-0.8-0.1-1.4-0.3-2.1
			s-0.5-1.1-0.9-1.5c-0.4-0.4-0.8-0.7-1.4-1c-0.5-0.2-1.2-0.3-1.8-0.3c-0.7,0-1.3,0.1-1.8,0.3c-0.5,0.2-1,0.5-1.4,1
			s-0.7,0.9-0.9,1.5c-0.2,0.6-0.3,1.3-0.3,2.1c0,0.8,0.1,1.5,0.3,2.1c0.2,0.6,0.5,1.1,0.9,1.5c0.4,0.4,0.8,0.7,1.4,1
			c0.5,0.2,1.2,0.3,1.8,0.3c0.7,0,1.3-0.1,1.8-0.3s1-0.5,1.4-1c0.4-0.4,0.7-0.9,0.9-1.5S440,136.3,440,135.6z"/>
		<path class="st1" d="M447.6,130.7v4.1h5.2v2.1h-5.2v5.7H445v-13.9h8.8v2.1H447.6z"/>
		<path class="st1" d="M478.5,128.6l-4.3,13.9h-2.3l-3-9.5c-0.1-0.2-0.2-0.5-0.2-0.8c0,0.2-0.1,0.3-0.1,0.5c0,0.1-0.1,0.3-0.1,0.4
			l-3.1,9.5h-2.4l-4.3-13.9h2.2c0.2,0,0.4,0.1,0.6,0.2s0.3,0.2,0.3,0.4l2.4,8.3c0.1,0.2,0.1,0.4,0.1,0.7s0.1,0.5,0.1,0.8
			c0.1-0.3,0.1-0.5,0.2-0.8c0.1-0.2,0.1-0.5,0.2-0.7l2.7-8.3c0.1-0.1,0.2-0.3,0.3-0.4c0.2-0.1,0.3-0.2,0.6-0.2h0.8
			c0.2,0,0.4,0.1,0.5,0.2c0.1,0.1,0.2,0.2,0.3,0.4l2.7,8.3c0.1,0.4,0.3,0.9,0.4,1.4c0.1-0.5,0.2-1,0.3-1.4l2.4-8.3
			c0-0.2,0.1-0.3,0.3-0.4c0.2-0.1,0.3-0.2,0.6-0.2H478.5z"/>
		<path class="st1" d="M493.2,135.6c0,1-0.2,2-0.5,2.8c-0.3,0.9-0.8,1.6-1.4,2.3c-0.6,0.6-1.4,1.1-2.2,1.5c-0.9,0.4-1.8,0.5-2.9,0.5
			c-1.1,0-2-0.2-2.9-0.5c-0.9-0.4-1.6-0.9-2.2-1.5c-0.6-0.6-1.1-1.4-1.4-2.3c-0.3-0.9-0.5-1.8-0.5-2.8s0.2-2,0.5-2.8
			c0.3-0.9,0.8-1.6,1.4-2.3s1.4-1.1,2.2-1.5c0.9-0.4,1.8-0.5,2.9-0.5c0.7,0,1.4,0.1,2,0.2s1.2,0.4,1.7,0.7c0.5,0.3,1,0.7,1.4,1.1
			c0.4,0.4,0.8,0.9,1.1,1.4c0.3,0.5,0.5,1.1,0.7,1.7C493.2,134.2,493.2,134.9,493.2,135.6z M490.6,135.6c0-0.8-0.1-1.4-0.3-2.1
			s-0.5-1.1-0.9-1.5c-0.4-0.4-0.8-0.7-1.4-1c-0.5-0.2-1.2-0.3-1.8-0.3c-0.7,0-1.3,0.1-1.8,0.3c-0.5,0.2-1,0.5-1.4,1
			s-0.7,0.9-0.9,1.5c-0.2,0.6-0.3,1.3-0.3,2.1c0,0.8,0.1,1.5,0.3,2.1c0.2,0.6,0.5,1.1,0.9,1.5c0.4,0.4,0.8,0.7,1.4,1
			c0.5,0.2,1.2,0.3,1.8,0.3c0.7,0,1.3-0.1,1.8-0.3s1-0.5,1.4-1c0.4-0.4,0.7-0.9,0.9-1.5S490.6,136.3,490.6,135.6z"/>
		<path class="st1" d="M506.4,142.5h-2.3c-0.4,0-0.8-0.2-1-0.5l-2.9-4.5c-0.1-0.2-0.2-0.3-0.4-0.4c-0.1-0.1-0.3-0.1-0.6-0.1h-1.1
			v5.4h-2.6v-13.9h4.2c0.9,0,1.8,0.1,2.4,0.3c0.7,0.2,1.2,0.5,1.7,0.8s0.8,0.8,1,1.3c0.2,0.5,0.3,1,0.3,1.6c0,0.5-0.1,0.9-0.2,1.3
			c-0.1,0.4-0.3,0.8-0.6,1.1c-0.3,0.3-0.6,0.6-1,0.9c-0.4,0.3-0.8,0.5-1.3,0.6c0.2,0.1,0.3,0.2,0.5,0.3c0.1,0.1,0.3,0.3,0.4,0.5
			L506.4,142.5z M499.7,135.2c0.5,0,0.9-0.1,1.3-0.2c0.4-0.1,0.7-0.3,0.9-0.5c0.2-0.2,0.4-0.5,0.5-0.8c0.1-0.3,0.2-0.6,0.2-1
			c0-0.7-0.2-1.2-0.7-1.6s-1.2-0.6-2.1-0.6h-1.7v4.6H499.7z"/>
		<path class="st1" d="M510.5,134.5h0.6c0.2,0,0.4,0,0.6-0.1c0.2-0.1,0.3-0.2,0.4-0.3l3.8-4.9c0.2-0.2,0.3-0.3,0.5-0.4
			c0.2-0.1,0.4-0.1,0.7-0.1h2.2l-4.7,5.8c-0.3,0.4-0.6,0.6-0.9,0.8c0.2,0.1,0.4,0.2,0.6,0.3c0.2,0.1,0.3,0.3,0.5,0.5l4.8,6.5h-2.3
			c-0.3,0-0.5,0-0.7-0.1c-0.2-0.1-0.3-0.2-0.4-0.4l-3.9-5.1c-0.1-0.2-0.3-0.3-0.4-0.4c-0.2-0.1-0.4-0.1-0.7-0.1h-0.8v6.1h-2.6v-13.9
			h2.6V134.5z"/>
	</g>
	<line class="st2" x1="357.2" y1="112.5" x2="569.4" y2="112.5"/>
	<g>
		<path class="st0" d="M670.3,90v3h-29.2v-3h13V44.1c0-0.9,0-1.9,0.1-2.9l-12.5,11.1c-0.4,0.3-0.7,0.4-1.1,0.4
			c-0.4-0.1-0.7-0.2-0.9-0.5l-1.2-1.6l16.4-14.4h3V90H670.3z"/>
		<path class="st0" d="M715.5,64.6c0,5-0.5,9.3-1.6,12.9c-1.1,3.6-2.5,6.6-4.4,9s-4,4.1-6.5,5.3c-2.5,1.2-5.1,1.7-7.9,1.7
			c-2.8,0-5.4-0.6-7.9-1.7c-2.5-1.2-4.6-2.9-6.4-5.3s-3.3-5.4-4.3-9c-1.1-3.6-1.6-7.9-1.6-12.9s0.5-9.3,1.6-12.9
			c1.1-3.6,2.5-6.6,4.3-9c1.8-2.4,4-4.1,6.4-5.3s5.1-1.7,7.9-1.7c2.8,0,5.4,0.6,7.9,1.7s4.6,2.9,6.5,5.3c1.8,2.4,3.3,5.4,4.4,9
			C715,55.4,715.5,59.7,715.5,64.6z M711.5,64.6c0-4.6-0.4-8.5-1.3-11.8c-0.9-3.3-2.1-5.9-3.5-8c-1.5-2.1-3.2-3.6-5.2-4.5
			c-2-1-4.1-1.4-6.3-1.4c-2.2,0-4.3,0.5-6.2,1.4c-2,1-3.7,2.5-5.2,4.5c-1.5,2.1-2.7,4.7-3.6,8c-0.9,3.3-1.3,7.2-1.3,11.8
			c0,4.6,0.4,8.5,1.3,11.8c0.9,3.2,2.1,5.9,3.6,8c1.5,2.1,3.2,3.6,5.2,4.5c2,0.9,4.1,1.4,6.2,1.4c2.2,0,4.3-0.5,6.3-1.4
			c2-0.9,3.7-2.5,5.2-4.5c1.5-2.1,2.7-4.7,3.5-8C711.1,73.2,711.5,69.2,711.5,64.6z"/>
		<path class="st0" d="M761.9,64.6c0,5-0.5,9.3-1.6,12.9c-1.1,3.6-2.5,6.6-4.4,9s-4,4.1-6.5,5.3c-2.5,1.2-5.1,1.7-7.9,1.7
			s-5.4-0.6-7.9-1.7c-2.5-1.2-4.6-2.9-6.4-5.3c-1.8-2.4-3.3-5.4-4.3-9c-1.1-3.6-1.6-7.9-1.6-12.9s0.5-9.3,1.6-12.9
			c1.1-3.6,2.5-6.6,4.3-9c1.8-2.4,4-4.1,6.4-5.3c2.5-1.2,5.1-1.7,7.9-1.7s5.4,0.6,7.9,1.7c2.5,1.2,4.6,2.9,6.5,5.3
			c1.8,2.4,3.3,5.4,4.4,9C761.4,55.4,761.9,59.7,761.9,64.6z M757.9,64.6c0-4.6-0.4-8.5-1.3-11.8c-0.9-3.3-2.1-5.9-3.5-8
			c-1.5-2.1-3.2-3.6-5.2-4.5s-4.1-1.4-6.3-1.4s-4.3,0.5-6.2,1.4s-3.7,2.5-5.2,4.5c-1.5,2.1-2.7,4.7-3.6,8c-0.9,3.3-1.3,7.2-1.3,11.8
			c0,4.6,0.4,8.5,1.3,11.8c0.9,3.2,2.1,5.9,3.6,8c1.5,2.1,3.2,3.6,5.2,4.5c2,0.9,4.1,1.4,6.2,1.4s4.3-0.5,6.3-1.4
			c2-0.9,3.7-2.5,5.2-4.5c1.5-2.1,2.7-4.7,3.5-8C757.5,73.2,757.9,69.2,757.9,64.6z"/>
		<path class="st0" d="M808.3,64.6c0,5-0.5,9.3-1.6,12.9c-1.1,3.6-2.5,6.6-4.4,9s-4,4.1-6.5,5.3c-2.5,1.2-5.1,1.7-7.9,1.7
			c-2.8,0-5.4-0.6-7.9-1.7c-2.5-1.2-4.6-2.9-6.4-5.3s-3.3-5.4-4.3-9c-1.1-3.6-1.6-7.9-1.6-12.9s0.5-9.3,1.6-12.9
			c1.1-3.6,2.5-6.6,4.3-9c1.8-2.4,4-4.1,6.4-5.3s5.1-1.7,7.9-1.7c2.8,0,5.4,0.6,7.9,1.7s4.6,2.9,6.5,5.3c1.8,2.4,3.3,5.4,4.4,9
			C807.8,55.4,808.3,59.7,808.3,64.6z M804.3,64.6c0-4.6-0.4-8.5-1.3-11.8c-0.9-3.3-2.1-5.9-3.5-8c-1.5-2.1-3.2-3.6-5.2-4.5
			c-2-1-4.1-1.4-6.3-1.4c-2.2,0-4.3,0.5-6.2,1.4c-2,1-3.7,2.5-5.2,4.5c-1.5,2.1-2.7,4.7-3.6,8c-0.9,3.3-1.3,7.2-1.3,11.8
			c0,4.6,0.4,8.5,1.3,11.8c0.9,3.2,2.1,5.9,3.6,8c1.5,2.1,3.2,3.6,5.2,4.5c2,0.9,4.1,1.4,6.2,1.4c2.2,0,4.3-0.5,6.3-1.4
			c2-0.9,3.7-2.5,5.2-4.5c1.5-2.1,2.7-4.7,3.5-8C803.9,73.2,804.3,69.2,804.3,64.6z"/>
		<path class="st0" d="M853.2,67.6H836v18.1h-3.1V67.6h-17.2v-2.9h17.2v-18h3.1v18h17.2V67.6z"/>
	</g>
	<g>
		<path class="st1" d="M652.9,142.5h-2c-0.2,0-0.4-0.1-0.5-0.2c-0.1-0.1-0.2-0.3-0.3-0.4l-1-2.8h-5.8l-1,2.8
			c-0.1,0.1-0.2,0.3-0.3,0.4c-0.1,0.1-0.3,0.2-0.5,0.2h-2l5.5-13.9h2.6L652.9,142.5z M648.4,137.3l-1.7-4.6
			c-0.1-0.2-0.2-0.4-0.3-0.7c-0.1-0.3-0.2-0.6-0.3-0.9c-0.1,0.3-0.2,0.6-0.3,0.9c-0.1,0.3-0.2,0.5-0.3,0.7l-1.7,4.6H648.4z"/>
		<path class="st1" d="M666.1,128.6v13.9h-1.3c-0.2,0-0.4,0-0.5-0.1c-0.1-0.1-0.3-0.2-0.4-0.3l-7.3-9.3c0,0.4,0.1,0.8,0.1,1.2v8.6
			h-2.3v-13.9h1.4c0.1,0,0.2,0,0.3,0c0.1,0,0.2,0,0.2,0.1s0.1,0.1,0.2,0.1c0.1,0.1,0.1,0.1,0.2,0.2l7.3,9.3c0-0.2,0-0.4,0-0.7
			c0-0.2,0-0.4,0-0.6v-8.5H666.1z"/>
		<path class="st1" d="M682.5,135.6c0,1-0.2,2-0.5,2.8c-0.3,0.9-0.8,1.6-1.4,2.3c-0.6,0.6-1.4,1.1-2.2,1.5c-0.9,0.4-1.8,0.5-2.9,0.5
			c-1.1,0-2-0.2-2.9-0.5c-0.9-0.4-1.6-0.9-2.2-1.5c-0.6-0.6-1.1-1.4-1.4-2.3c-0.3-0.9-0.5-1.8-0.5-2.8s0.2-2,0.5-2.8
			c0.3-0.9,0.8-1.6,1.4-2.3s1.4-1.1,2.2-1.5c0.9-0.4,1.8-0.5,2.9-0.5c0.7,0,1.4,0.1,2,0.2s1.2,0.4,1.7,0.7c0.5,0.3,1,0.7,1.4,1.1
			c0.4,0.4,0.8,0.9,1.1,1.4c0.3,0.5,0.5,1.1,0.7,1.7C682.5,134.2,682.5,134.9,682.5,135.6z M679.9,135.6c0-0.8-0.1-1.4-0.3-2.1
			s-0.5-1.1-0.9-1.5c-0.4-0.4-0.8-0.7-1.4-1c-0.5-0.2-1.2-0.3-1.8-0.3c-0.7,0-1.3,0.1-1.8,0.3c-0.5,0.2-1,0.5-1.4,1
			s-0.7,0.9-0.9,1.5c-0.2,0.6-0.3,1.3-0.3,2.1c0,0.8,0.1,1.5,0.3,2.1c0.2,0.6,0.5,1.1,0.9,1.5c0.4,0.4,0.8,0.7,1.4,1
			c0.5,0.2,1.2,0.3,1.8,0.3c0.7,0,1.3-0.1,1.8-0.3s1-0.5,1.4-1c0.4-0.4,0.7-0.9,0.9-1.5S679.9,136.3,679.9,135.6z"/>
		<path class="st1" d="M696.6,128.6v13.9h-1.3c-0.2,0-0.4,0-0.5-0.1c-0.1-0.1-0.3-0.2-0.4-0.3l-7.3-9.3c0,0.4,0.1,0.8,0.1,1.2v8.6
			h-2.3v-13.9h1.4c0.1,0,0.2,0,0.3,0c0.1,0,0.2,0,0.2,0.1s0.1,0.1,0.2,0.1c0.1,0.1,0.1,0.1,0.2,0.2l7.3,9.3c0-0.2,0-0.4,0-0.7
			c0-0.2,0-0.4,0-0.6v-8.5H696.6z"/>
		<path class="st1" d="M705.6,137.2v5.4h-2.6v-5.4l-5.1-8.5h2.3c0.2,0,0.4,0.1,0.5,0.2c0.1,0.1,0.2,0.2,0.3,0.4l2.5,4.7
			c0.1,0.3,0.3,0.5,0.4,0.8s0.2,0.5,0.3,0.7c0.1-0.2,0.2-0.5,0.3-0.7s0.2-0.5,0.4-0.8l2.5-4.7c0.1-0.1,0.2-0.3,0.3-0.4
			c0.1-0.1,0.3-0.2,0.5-0.2h2.3L705.6,137.2z"/>
		<path class="st1" d="M727.3,128.6v13.9H725v-9c0-0.4,0-0.7,0.1-1.2l-4.2,7.9c-0.2,0.4-0.5,0.6-0.9,0.6h-0.4
			c-0.4,0-0.7-0.2-0.9-0.6l-4.3-7.9c0,0.2,0,0.4,0,0.6c0,0.2,0,0.4,0,0.6v9h-2.3v-13.9h2c0.1,0,0.2,0,0.3,0s0.2,0,0.2,0
			c0.1,0,0.1,0.1,0.2,0.1c0.1,0.1,0.1,0.1,0.2,0.2l4.2,7.7c0.1,0.2,0.2,0.4,0.3,0.6c0.1,0.2,0.2,0.4,0.3,0.7
			c0.1-0.2,0.2-0.5,0.3-0.7c0.1-0.2,0.2-0.4,0.3-0.6l4.1-7.7c0.1-0.1,0.1-0.2,0.2-0.2c0.1-0.1,0.1-0.1,0.2-0.1c0.1,0,0.1,0,0.2,0
			s0.2,0,0.3,0H727.3z"/>
		<path class="st1" d="M733,142.5h-2.6v-13.9h2.6V142.5z"/>
		<path class="st1" d="M745.8,130.7h-4.2v11.8H739v-11.8h-4.2v-2.1h11V130.7z"/>
		<path class="st1" d="M753.6,137.2v5.4h-2.6v-5.4l-5.1-8.5h2.3c0.2,0,0.4,0.1,0.5,0.2c0.1,0.1,0.2,0.2,0.3,0.4l2.5,4.7
			c0.1,0.3,0.3,0.5,0.4,0.8c0.1,0.2,0.2,0.5,0.3,0.7c0.1-0.2,0.2-0.5,0.3-0.7s0.2-0.5,0.4-0.8l2.5-4.7c0.1-0.1,0.2-0.3,0.3-0.4
			c0.1-0.1,0.3-0.2,0.5-0.2h2.3L753.6,137.2z"/>
		<path class="st1" d="M771.5,131.1c-0.1,0.1-0.2,0.2-0.2,0.3c-0.1,0.1-0.2,0.1-0.3,0.1c-0.1,0-0.3-0.1-0.4-0.2
			c-0.2-0.1-0.3-0.2-0.6-0.3c-0.2-0.1-0.5-0.2-0.8-0.3s-0.6-0.2-1-0.2c-0.4,0-0.7,0-0.9,0.1s-0.5,0.2-0.7,0.4
			c-0.2,0.2-0.3,0.3-0.4,0.6c-0.1,0.2-0.1,0.5-0.1,0.7c0,0.3,0.1,0.6,0.3,0.8s0.4,0.4,0.7,0.6s0.6,0.3,1,0.4
			c0.4,0.1,0.8,0.3,1.2,0.4s0.8,0.3,1.2,0.5c0.4,0.2,0.7,0.4,1,0.7c0.3,0.3,0.5,0.6,0.7,1c0.2,0.4,0.3,0.9,0.3,1.5
			c0,0.6-0.1,1.2-0.3,1.8s-0.5,1-0.9,1.4c-0.4,0.4-0.9,0.7-1.5,1c-0.6,0.2-1.3,0.4-2.1,0.4c-0.4,0-0.9,0-1.3-0.1s-0.8-0.2-1.2-0.4
			c-0.4-0.2-0.8-0.4-1.1-0.6s-0.7-0.5-0.9-0.8l0.8-1.2c0.1-0.1,0.1-0.2,0.3-0.2c0.1-0.1,0.2-0.1,0.3-0.1c0.2,0,0.3,0.1,0.5,0.2
			s0.4,0.3,0.7,0.4c0.3,0.2,0.6,0.3,0.9,0.4s0.8,0.2,1.2,0.2c0.7,0,1.3-0.2,1.7-0.5c0.4-0.3,0.6-0.9,0.6-1.5c0-0.4-0.1-0.7-0.3-0.9
			c-0.2-0.2-0.4-0.4-0.7-0.6c-0.3-0.2-0.6-0.3-1-0.4c-0.4-0.1-0.8-0.2-1.2-0.4c-0.4-0.1-0.8-0.3-1.2-0.5c-0.4-0.2-0.7-0.4-1-0.7
			c-0.3-0.3-0.5-0.7-0.7-1.1s-0.3-1-0.3-1.6c0-0.5,0.1-1,0.3-1.5c0.2-0.5,0.5-0.9,0.9-1.3c0.4-0.4,0.9-0.7,1.4-0.9
			c0.6-0.2,1.2-0.3,1.9-0.3c0.8,0,1.6,0.1,2.3,0.4c0.7,0.3,1.3,0.6,1.8,1.1L771.5,131.1z"/>
		<path class="st1" d="M777.2,130.7v3.9h4.9v2h-4.9v3.9h6.2v2.1h-8.8v-13.9h8.8v2.1H777.2z"/>
		<path class="st1" d="M795.4,130.7h-4.2v11.8h-2.6v-11.8h-4.2v-2.1h11V130.7z"/>
	</g>
	<line class="st2" x1="640" y1="112.5" x2="852.2" y2="112.5"/>
	<g>
		<path class="st1" d="M925.7,142.5h-2.6v-13.9h2.6V142.5z"/>
		<path class="st1" d="M940.5,128.6v13.9h-1.3c-0.2,0-0.4,0-0.5-0.1c-0.1-0.1-0.3-0.2-0.4-0.3l-7.3-9.3c0,0.4,0.1,0.8,0.1,1.2v8.6
			h-2.3v-13.9h1.4c0.1,0,0.2,0,0.3,0s0.2,0,0.2,0.1c0.1,0,0.1,0.1,0.2,0.1s0.1,0.1,0.2,0.2l7.3,9.3c0-0.2,0-0.4,0-0.7s0-0.4,0-0.6
			v-8.5H940.5z"/>
		<path class="st1" d="M953.2,139.3c0.1,0,0.3,0.1,0.4,0.2l1,1.1c-0.6,0.7-1.3,1.2-2.1,1.6c-0.8,0.4-1.8,0.6-3,0.6
			c-1,0-2-0.2-2.8-0.5s-1.5-0.8-2.1-1.5c-0.6-0.6-1-1.4-1.3-2.3c-0.3-0.9-0.5-1.8-0.5-2.9c0-1,0.2-2,0.5-2.9
			c0.3-0.9,0.8-1.6,1.4-2.2c0.6-0.6,1.3-1.1,2.2-1.5s1.8-0.5,2.8-0.5c1,0,1.9,0.2,2.7,0.5c0.8,0.3,1.5,0.8,2,1.3l-0.9,1.2
			c-0.1,0.1-0.1,0.1-0.2,0.2s-0.2,0.1-0.3,0.1c-0.1,0-0.2,0-0.3-0.1c-0.1-0.1-0.2-0.1-0.3-0.2s-0.3-0.2-0.4-0.3
			c-0.2-0.1-0.3-0.2-0.6-0.3c-0.2-0.1-0.5-0.1-0.7-0.2c-0.3-0.1-0.6-0.1-1-0.1c-0.6,0-1.2,0.1-1.7,0.3c-0.5,0.2-1,0.5-1.3,1
			c-0.4,0.4-0.7,0.9-0.9,1.5c-0.2,0.6-0.3,1.3-0.3,2.1c0,0.8,0.1,1.5,0.3,2.1c0.2,0.6,0.5,1.1,0.9,1.5c0.4,0.4,0.8,0.7,1.3,1
			c0.5,0.2,1.1,0.3,1.7,0.3c0.4,0,0.7,0,1-0.1c0.3,0,0.5-0.1,0.8-0.2c0.2-0.1,0.5-0.2,0.7-0.3c0.2-0.1,0.4-0.3,0.6-0.5
			c0.1-0.1,0.1-0.1,0.2-0.1S953.1,139.3,953.2,139.3z"/>
		<path class="st1" d="M959,130.7v3.9h4.9v2H959v3.9h6.2v2.1h-8.8v-13.9h8.8v2.1H959z"/>
		<path class="st1" d="M979.2,128.6v13.9h-1.3c-0.2,0-0.4,0-0.5-0.1c-0.1-0.1-0.3-0.2-0.4-0.3l-7.3-9.3c0,0.4,0.1,0.8,0.1,1.2v8.6
			h-2.3v-13.9h1.4c0.1,0,0.2,0,0.3,0s0.2,0,0.2,0.1c0.1,0,0.1,0.1,0.2,0.1s0.1,0.1,0.2,0.2l7.3,9.3c0-0.2,0-0.4,0-0.7s0-0.4,0-0.6
			v-8.5H979.2z"/>
		<path class="st1" d="M992,130.7h-4.2v11.8h-2.6v-11.8h-4.2v-2.1h11V130.7z"/>
		<path class="st1" d="M996.5,142.5h-2.6v-13.9h2.6V142.5z"/>
		<path class="st1" d="M1011.5,128.6l-5.6,13.9h-2.3l-5.6-13.9h2.1c0.2,0,0.4,0.1,0.5,0.2c0.1,0.1,0.2,0.2,0.3,0.4l3.3,8.5
			c0.1,0.3,0.2,0.6,0.3,0.9c0.1,0.3,0.2,0.7,0.3,1c0.1-0.4,0.2-0.7,0.3-1c0.1-0.3,0.2-0.6,0.3-0.9l3.3-8.5c0.1-0.1,0.2-0.3,0.3-0.4
			c0.2-0.1,0.3-0.2,0.6-0.2H1011.5z"/>
		<path class="st1" d="M1015.6,142.5h-2.6v-13.9h2.6V142.5z"/>
		<path class="st1" d="M1028.3,129.6c0,0.3-0.1,0.6-0.3,0.8l-7.2,10.1h7.2v2.1h-10.6v-1c0-0.1,0-0.3,0.1-0.4c0-0.1,0.1-0.2,0.2-0.3
			l7.2-10.1h-7v-2.1h10.3V129.6z"/>
		<path class="st1" d="M1033,130.7v3.9h4.9v2h-4.9v3.9h6.2v2.1h-8.8v-13.9h8.8v2.1H1033z"/>
		<path class="st1" d="M1053.8,135.6c0,1-0.2,2-0.5,2.8c-0.3,0.9-0.8,1.6-1.4,2.2c-0.6,0.6-1.4,1.1-2.2,1.4
			c-0.9,0.3-1.8,0.5-2.9,0.5h-5.3v-13.9h5.3c1.1,0,2,0.2,2.9,0.5s1.6,0.8,2.2,1.4c0.6,0.6,1.1,1.3,1.4,2.2
			C1053.7,133.6,1053.8,134.6,1053.8,135.6z M1051.2,135.6c0-0.8-0.1-1.4-0.3-2.1c-0.2-0.6-0.5-1.1-0.9-1.5c-0.4-0.4-0.8-0.7-1.4-1
			c-0.5-0.2-1.2-0.3-1.8-0.3h-2.7v9.8h2.7c0.7,0,1.3-0.1,1.8-0.3c0.5-0.2,1-0.5,1.4-1c0.4-0.4,0.7-0.9,0.9-1.5
			C1051.1,137,1051.2,136.3,1051.2,135.6z"/>
		<path class="st1" d="M1072.5,128.6v13.9h-1.3c-0.2,0-0.4,0-0.5-0.1c-0.1-0.1-0.3-0.2-0.4-0.3l-7.3-9.3c0,0.4,0.1,0.8,0.1,1.2v8.6
			h-2.3v-13.9h1.4c0.1,0,0.2,0,0.3,0s0.2,0,0.2,0.1c0.1,0,0.1,0.1,0.2,0.1s0.1,0.1,0.2,0.2l7.3,9.3c0-0.2,0-0.4,0-0.7s0-0.4,0-0.6
			v-8.5H1072.5z"/>
		<path class="st1" d="M1088.9,135.6c0,1-0.2,2-0.5,2.8c-0.3,0.9-0.8,1.6-1.4,2.3c-0.6,0.6-1.4,1.1-2.2,1.5
			c-0.9,0.4-1.8,0.5-2.9,0.5c-1.1,0-2-0.2-2.9-0.5c-0.9-0.4-1.6-0.9-2.2-1.5c-0.6-0.6-1.1-1.4-1.4-2.3c-0.3-0.9-0.5-1.8-0.5-2.8
			s0.2-2,0.5-2.8s0.8-1.6,1.4-2.3s1.4-1.1,2.2-1.5c0.9-0.4,1.8-0.5,2.9-0.5c0.7,0,1.4,0.1,2,0.2s1.2,0.4,1.7,0.7s1,0.7,1.4,1.1
			c0.4,0.4,0.8,0.9,1.1,1.4c0.3,0.5,0.5,1.1,0.7,1.7C1088.9,134.2,1088.9,134.9,1088.9,135.6z M1086.3,135.6c0-0.8-0.1-1.4-0.3-2.1
			c-0.2-0.6-0.5-1.1-0.9-1.5c-0.4-0.4-0.8-0.7-1.4-1c-0.5-0.2-1.2-0.3-1.8-0.3c-0.7,0-1.3,0.1-1.8,0.3c-0.5,0.2-1,0.5-1.4,1
			c-0.4,0.4-0.7,0.9-0.9,1.5c-0.2,0.6-0.3,1.3-0.3,2.1c0,0.8,0.1,1.5,0.3,2.1c0.2,0.6,0.5,1.1,0.9,1.5c0.4,0.4,0.8,0.7,1.4,1
			c0.5,0.2,1.2,0.3,1.8,0.3c0.7,0,1.3-0.1,1.8-0.3s1-0.5,1.4-1c0.4-0.4,0.7-0.9,0.9-1.5C1086.2,137,1086.3,136.3,1086.3,135.6z"/>
		<path class="st1" d="M1103.6,135.6c0,1-0.2,2-0.5,2.8c-0.3,0.9-0.8,1.6-1.4,2.2c-0.6,0.6-1.4,1.1-2.2,1.4
			c-0.9,0.3-1.8,0.5-2.9,0.5h-5.3v-13.9h5.3c1.1,0,2,0.2,2.9,0.5s1.6,0.8,2.2,1.4c0.6,0.6,1.1,1.3,1.4,2.2
			C1103.4,133.6,1103.6,134.6,1103.6,135.6z M1100.9,135.6c0-0.8-0.1-1.4-0.3-2.1c-0.2-0.6-0.5-1.1-0.9-1.5c-0.4-0.4-0.8-0.7-1.4-1
			c-0.5-0.2-1.2-0.3-1.8-0.3h-2.7v9.8h2.7c0.7,0,1.3-0.1,1.8-0.3c0.5-0.2,1-0.5,1.4-1c0.4-0.4,0.7-0.9,0.9-1.5
			C1100.8,137,1100.9,136.3,1100.9,135.6z"/>
		<path class="st1" d="M1108.5,130.7v3.9h4.9v2h-4.9v3.9h6.2v2.1h-8.8v-13.9h8.8v2.1H1108.5z"/>
		<path class="st1" d="M1124.4,131.1c-0.1,0.1-0.2,0.2-0.2,0.3s-0.2,0.1-0.3,0.1c-0.1,0-0.3-0.1-0.4-0.2s-0.3-0.2-0.6-0.3
			c-0.2-0.1-0.5-0.2-0.8-0.3c-0.3-0.1-0.6-0.2-1-0.2c-0.4,0-0.7,0-0.9,0.1c-0.3,0.1-0.5,0.2-0.7,0.4c-0.2,0.2-0.3,0.3-0.4,0.6
			s-0.1,0.5-0.1,0.7c0,0.3,0.1,0.6,0.3,0.8c0.2,0.2,0.4,0.4,0.7,0.6s0.6,0.3,1,0.4c0.4,0.1,0.8,0.3,1.2,0.4c0.4,0.1,0.8,0.3,1.2,0.5
			s0.7,0.4,1,0.7c0.3,0.3,0.5,0.6,0.7,1c0.2,0.4,0.3,0.9,0.3,1.5c0,0.6-0.1,1.2-0.3,1.8c-0.2,0.5-0.5,1-0.9,1.4
			c-0.4,0.4-0.9,0.7-1.5,1s-1.3,0.4-2.1,0.4c-0.4,0-0.9,0-1.3-0.1s-0.8-0.2-1.2-0.4s-0.8-0.4-1.1-0.6s-0.7-0.5-0.9-0.8l0.8-1.2
			c0.1-0.1,0.1-0.2,0.3-0.2c0.1-0.1,0.2-0.1,0.3-0.1c0.2,0,0.3,0.1,0.5,0.2s0.4,0.3,0.7,0.4c0.3,0.2,0.6,0.3,0.9,0.4
			s0.8,0.2,1.2,0.2c0.7,0,1.3-0.2,1.7-0.5c0.4-0.3,0.6-0.9,0.6-1.5c0-0.4-0.1-0.7-0.3-0.9c-0.2-0.2-0.4-0.4-0.7-0.6
			c-0.3-0.2-0.6-0.3-1-0.4s-0.8-0.2-1.2-0.4c-0.4-0.1-0.8-0.3-1.2-0.5c-0.4-0.2-0.7-0.4-1-0.7s-0.5-0.7-0.7-1.1
			c-0.2-0.4-0.3-1-0.3-1.6c0-0.5,0.1-1,0.3-1.5c0.2-0.5,0.5-0.9,0.9-1.3c0.4-0.4,0.9-0.7,1.4-0.9c0.6-0.2,1.2-0.3,1.9-0.3
			c0.8,0,1.6,0.1,2.3,0.4c0.7,0.3,1.3,0.6,1.8,1.1L1124.4,131.1z"/>
	</g>
	<line class="st2" x1="922.3" y1="112.5" x2="1134.5" y2="112.5"/>
	<g>
		<g>
			<path class="st0" d="M1229.6,69.5v23.3h-4.1V69.5l-21-33.3h3.6c0.4,0,0.7,0.1,0.9,0.3c0.2,0.2,0.4,0.4,0.6,0.7l16.2,26
				c0.3,0.6,0.7,1.2,1,1.8c0.3,0.6,0.5,1.1,0.8,1.7c0.2-0.6,0.5-1.1,0.7-1.7c0.3-0.6,0.6-1.2,0.9-1.8l16.2-26
				c0.1-0.3,0.3-0.5,0.6-0.7c0.3-0.2,0.6-0.3,0.9-0.3h3.6L1229.6,69.5z"/>
			<path class="st0" d="M1293.8,89.4l-0.1,3.4h-33.9V36.2h33.9v3.4h-29.8v22.9h24.8v3.3h-24.8v23.6H1293.8z"/>
			<path class="st0" d="M1333.6,43.1c-0.2,0.5-0.6,0.7-1,0.7c-0.3,0-0.8-0.2-1.3-0.7c-0.5-0.5-1.3-1-2.2-1.6
				c-0.9-0.6-2.1-1.2-3.5-1.7c-1.4-0.5-3.1-0.8-5.2-0.8c-2.1,0-3.9,0.3-5.4,0.9c-1.6,0.6-2.9,1.4-3.9,2.4c-1.1,1-1.9,2.2-2.4,3.5
				c-0.5,1.3-0.8,2.7-0.8,4.2c0,1.9,0.4,3.5,1.2,4.8c0.8,1.3,1.9,2.3,3.2,3.2c1.3,0.9,2.8,1.6,4.5,2.2c1.7,0.6,3.4,1.2,5.2,1.8
				c1.8,0.6,3.5,1.2,5.2,1.9c1.7,0.7,3.2,1.6,4.5,2.7c1.3,1.1,2.4,2.4,3.2,3.9c0.8,1.6,1.2,3.5,1.2,5.8c0,2.4-0.4,4.6-1.2,6.7
				c-0.8,2.1-2,3.9-3.5,5.5c-1.5,1.5-3.4,2.8-5.7,3.7c-2.2,0.9-4.8,1.3-7.7,1.3c-3.7,0-6.9-0.7-9.6-2s-5.1-3.1-7.1-5.4l1.1-1.8
				c0.3-0.4,0.7-0.6,1.1-0.6c0.2,0,0.5,0.2,0.9,0.5s0.8,0.7,1.4,1.2c0.5,0.5,1.2,1,1.9,1.5c0.7,0.5,1.6,1.1,2.6,1.5
				c1,0.5,2.1,0.9,3.4,1.2s2.7,0.5,4.4,0.5c2.2,0,4.2-0.3,6-1c1.8-0.7,3.2-1.6,4.5-2.8c1.2-1.2,2.1-2.6,2.8-4.2c0.6-1.6,1-3.3,1-5.2
				c0-2-0.4-3.6-1.2-4.9c-0.8-1.3-1.9-2.4-3.2-3.2c-1.3-0.9-2.8-1.6-4.5-2.2c-1.7-0.6-3.4-1.2-5.2-1.7c-1.8-0.6-3.5-1.2-5.2-1.9
				s-3.2-1.6-4.5-2.7c-1.3-1.1-2.4-2.4-3.2-4c-0.8-1.6-1.2-3.6-1.2-6.1c0-1.9,0.4-3.7,1.1-5.5s1.8-3.3,3.2-4.7
				c1.4-1.3,3.1-2.4,5.1-3.2s4.4-1.2,7-1.2c2.9,0,5.6,0.5,7.9,1.4s4.5,2.4,6.4,4.3L1333.6,43.1z"/>
		</g>
	</g>
	<g>
		<path class="st1" d="M1218,142.5h-2c-0.2,0-0.4-0.1-0.5-0.2c-0.1-0.1-0.2-0.3-0.3-0.4l-1-2.8h-5.8l-1,2.8
			c-0.1,0.1-0.2,0.3-0.3,0.4c-0.1,0.1-0.3,0.2-0.5,0.2h-2l5.5-13.9h2.6L1218,142.5z M1213.5,137.3l-1.7-4.6
			c-0.1-0.2-0.2-0.4-0.3-0.7c-0.1-0.3-0.2-0.6-0.3-0.9c-0.1,0.3-0.2,0.6-0.3,0.9c-0.1,0.3-0.2,0.5-0.3,0.7l-1.7,4.6H1213.5z"/>
		<path class="st1" d="M1224.7,140.5c0.5,0,0.9-0.1,1.3-0.2c0.4-0.2,0.7-0.4,1-0.7c0.3-0.3,0.5-0.7,0.6-1.1s0.2-0.9,0.2-1.4v-8.3
			h2.6v8.3c0,0.8-0.1,1.6-0.4,2.3c-0.3,0.7-0.6,1.3-1.1,1.8c-0.5,0.5-1.1,0.9-1.8,1.2c-0.7,0.3-1.5,0.4-2.4,0.4
			c-0.9,0-1.7-0.1-2.4-0.4c-0.7-0.3-1.3-0.7-1.8-1.2c-0.5-0.5-0.9-1.1-1.1-1.8c-0.3-0.7-0.4-1.5-0.4-2.3v-8.3h2.6v8.3
			c0,0.5,0.1,1,0.2,1.4c0.1,0.4,0.4,0.8,0.6,1.1c0.3,0.3,0.6,0.5,1,0.7C1223.8,140.4,1224.2,140.5,1224.7,140.5z"/>
		<path class="st1" d="M1245.8,135.6c0,1-0.2,2-0.5,2.8c-0.3,0.9-0.8,1.6-1.4,2.2c-0.6,0.6-1.4,1.1-2.2,1.4
			c-0.9,0.3-1.8,0.5-2.9,0.5h-5.3v-13.9h5.3c1.1,0,2,0.2,2.9,0.5s1.6,0.8,2.2,1.4c0.6,0.6,1.1,1.3,1.4,2.2
			C1245.6,133.6,1245.8,134.6,1245.8,135.6z M1243.2,135.6c0-0.8-0.1-1.4-0.3-2.1s-0.5-1.1-0.9-1.5c-0.4-0.4-0.8-0.7-1.4-1
			c-0.5-0.2-1.2-0.3-1.8-0.3h-2.7v9.8h2.7c0.7,0,1.3-0.1,1.8-0.3s1-0.5,1.4-1c0.4-0.4,0.7-0.9,0.9-1.5S1243.2,136.3,1243.2,135.6z"
			/>
		<path class="st1" d="M1250.7,142.5h-2.6v-13.9h2.6V142.5z"/>
		<path class="st1" d="M1263.6,130.7h-4.2v11.8h-2.6v-11.8h-4.2v-2.1h11V130.7z"/>
		<path class="st1" d="M1276,142.5h-2c-0.2,0-0.4-0.1-0.5-0.2c-0.1-0.1-0.2-0.3-0.3-0.4l-1-2.8h-5.8l-1,2.8
			c-0.1,0.1-0.2,0.3-0.3,0.4c-0.1,0.1-0.3,0.2-0.5,0.2h-2l5.5-13.9h2.6L1276,142.5z M1271.4,137.3l-1.7-4.6
			c-0.1-0.2-0.2-0.4-0.3-0.7c-0.1-0.3-0.2-0.6-0.3-0.9c-0.1,0.3-0.2,0.6-0.3,0.9c-0.1,0.3-0.2,0.5-0.3,0.7l-1.7,4.6H1271.4z"/>
		<path class="st1" d="M1282.2,128.6c0.9,0,1.7,0.1,2.3,0.3c0.6,0.2,1.2,0.4,1.6,0.7c0.4,0.3,0.7,0.7,0.9,1.2s0.3,1,0.3,1.5
			c0,0.3,0,0.6-0.1,0.9s-0.2,0.6-0.4,0.8s-0.5,0.5-0.8,0.7c-0.3,0.2-0.7,0.4-1.1,0.5c1.9,0.4,2.9,1.5,2.9,3.1c0,0.6-0.1,1.1-0.3,1.6
			c-0.2,0.5-0.6,0.9-1,1.3c-0.4,0.4-1,0.6-1.6,0.9c-0.6,0.2-1.3,0.3-2.2,0.3h-5.3v-13.9H1282.2z M1280,130.6v4h2.1
			c0.9,0,1.6-0.2,2-0.5c0.5-0.3,0.7-0.8,0.7-1.5c0-0.7-0.2-1.2-0.6-1.6s-1.1-0.5-1.9-0.5H1280z M1282.6,140.5c0.5,0,0.9-0.1,1.2-0.2
			c0.3-0.1,0.6-0.3,0.8-0.5s0.3-0.4,0.4-0.7c0.1-0.3,0.1-0.5,0.1-0.8c0-0.3,0-0.6-0.1-0.8c-0.1-0.2-0.2-0.4-0.5-0.6
			c-0.2-0.2-0.5-0.3-0.8-0.4c-0.3-0.1-0.7-0.1-1.2-0.1h-2.6v4.1H1282.6z"/>
		<path class="st1" d="M1298.3,140.4v2.1h-8.2v-13.9h2.6v11.8H1298.3z"/>
		<path class="st1" d="M1302.7,130.7v3.9h4.9v2h-4.9v3.9h6.2v2.1h-8.8v-13.9h8.8v2.1H1302.7z"/>
		<path class="st1" d="M1323.3,131.1c-0.1,0.1-0.2,0.2-0.2,0.3s-0.2,0.1-0.3,0.1c-0.1,0-0.3-0.1-0.4-0.2c-0.2-0.1-0.3-0.2-0.6-0.3
			c-0.2-0.1-0.5-0.2-0.8-0.3c-0.3-0.1-0.6-0.2-1-0.2c-0.4,0-0.7,0-0.9,0.1c-0.3,0.1-0.5,0.2-0.7,0.4c-0.2,0.2-0.3,0.3-0.4,0.6
			c-0.1,0.2-0.1,0.5-0.1,0.7c0,0.3,0.1,0.6,0.3,0.8c0.2,0.2,0.4,0.4,0.7,0.6c0.3,0.2,0.6,0.3,1,0.4c0.4,0.1,0.8,0.3,1.2,0.4
			c0.4,0.1,0.8,0.3,1.2,0.5c0.4,0.2,0.7,0.4,1,0.7s0.5,0.6,0.7,1c0.2,0.4,0.3,0.9,0.3,1.5c0,0.6-0.1,1.2-0.3,1.8s-0.5,1-0.9,1.4
			s-0.9,0.7-1.5,1c-0.6,0.2-1.3,0.4-2.1,0.4c-0.4,0-0.9,0-1.3-0.1c-0.4-0.1-0.8-0.2-1.2-0.4c-0.4-0.2-0.8-0.4-1.1-0.6
			c-0.3-0.2-0.7-0.5-0.9-0.8l0.8-1.2c0.1-0.1,0.1-0.2,0.2-0.2c0.1-0.1,0.2-0.1,0.3-0.1c0.2,0,0.3,0.1,0.5,0.2s0.4,0.3,0.7,0.4
			c0.3,0.2,0.6,0.3,0.9,0.4s0.8,0.2,1.2,0.2c0.7,0,1.3-0.2,1.7-0.5c0.4-0.3,0.6-0.9,0.6-1.5c0-0.4-0.1-0.7-0.3-0.9
			c-0.2-0.2-0.4-0.4-0.7-0.6c-0.3-0.2-0.6-0.3-1-0.4c-0.4-0.1-0.8-0.2-1.2-0.4c-0.4-0.1-0.8-0.3-1.2-0.5c-0.4-0.2-0.7-0.4-1-0.7
			c-0.3-0.3-0.5-0.7-0.7-1.1c-0.2-0.4-0.3-1-0.3-1.6c0-0.5,0.1-1,0.3-1.5c0.2-0.5,0.5-0.9,0.9-1.3c0.4-0.4,0.9-0.7,1.4-0.9
			c0.6-0.2,1.2-0.3,1.9-0.3c0.8,0,1.6,0.1,2.3,0.4c0.7,0.3,1.3,0.6,1.8,1.1L1323.3,131.1z"/>
		<path class="st1" d="M1332.1,140.5c0.5,0,0.9-0.1,1.3-0.2c0.4-0.2,0.7-0.4,1-0.7c0.3-0.3,0.5-0.7,0.6-1.1s0.2-0.9,0.2-1.4v-8.3
			h2.6v8.3c0,0.8-0.1,1.6-0.4,2.3c-0.3,0.7-0.6,1.3-1.1,1.8c-0.5,0.5-1.1,0.9-1.8,1.2s-1.5,0.4-2.4,0.4c-0.9,0-1.7-0.1-2.4-0.4
			s-1.3-0.7-1.8-1.2c-0.5-0.5-0.9-1.1-1.1-1.8c-0.3-0.7-0.4-1.5-0.4-2.3v-8.3h2.6v8.3c0,0.5,0.1,1,0.2,1.4c0.1,0.4,0.4,0.8,0.6,1.1
			s0.6,0.5,1,0.7C1331.1,140.4,1331.6,140.5,1332.1,140.5z"/>
		<path class="st1" d="M1345.3,128.6c0.9,0,1.7,0.1,2.4,0.3c0.7,0.2,1.2,0.5,1.7,0.9c0.4,0.4,0.8,0.9,1,1.4c0.2,0.5,0.3,1.1,0.3,1.8
			c0,0.7-0.1,1.3-0.3,1.9c-0.2,0.6-0.6,1-1,1.5c-0.4,0.4-1,0.7-1.7,0.9c-0.7,0.2-1.5,0.3-2.4,0.3h-1.9v4.9h-2.6v-13.9H1345.3z
			 M1345.3,135.6c0.5,0,0.9-0.1,1.2-0.2s0.6-0.3,0.9-0.5c0.2-0.2,0.4-0.5,0.5-0.8c0.1-0.3,0.2-0.7,0.2-1.1c0-0.4-0.1-0.7-0.2-1
			c-0.1-0.3-0.3-0.6-0.5-0.8c-0.2-0.2-0.5-0.4-0.9-0.5c-0.4-0.1-0.8-0.2-1.3-0.2h-1.9v5H1345.3z"/>
		<path class="st1" d="M1357.2,128.6c0.9,0,1.7,0.1,2.4,0.3c0.7,0.2,1.2,0.5,1.7,0.9c0.4,0.4,0.8,0.9,1,1.4c0.2,0.5,0.3,1.1,0.3,1.8
			c0,0.7-0.1,1.3-0.3,1.9c-0.2,0.6-0.6,1-1,1.5c-0.4,0.4-1,0.7-1.7,0.9c-0.7,0.2-1.5,0.3-2.4,0.3h-1.9v4.9h-2.6v-13.9H1357.2z
			 M1357.2,135.6c0.5,0,0.9-0.1,1.2-0.2s0.6-0.3,0.9-0.5c0.2-0.2,0.4-0.5,0.5-0.8c0.1-0.3,0.2-0.7,0.2-1.1c0-0.4-0.1-0.7-0.2-1
			c-0.1-0.3-0.3-0.6-0.5-0.8c-0.2-0.2-0.5-0.4-0.9-0.5c-0.4-0.1-0.8-0.2-1.3-0.2h-1.9v5H1357.2z"/>
		<path class="st1" d="M1372.8,140.4v2.1h-8.2v-13.9h2.6v11.8H1372.8z"/>
		<path class="st1" d="M1378.8,137.2v5.4h-2.6v-5.4l-5.1-8.5h2.3c0.2,0,0.4,0.1,0.5,0.2s0.2,0.2,0.3,0.4l2.5,4.7
			c0.1,0.3,0.3,0.5,0.4,0.8s0.2,0.5,0.3,0.7c0.1-0.2,0.2-0.5,0.3-0.7s0.2-0.5,0.4-0.8l2.5-4.7c0.1-0.1,0.2-0.3,0.3-0.4
			c0.1-0.1,0.3-0.2,0.5-0.2h2.3L1378.8,137.2z"/>
	</g>
	<line class="st2" x1="1204.5" y1="112.5" x2="1416.8" y2="112.5"/>
	<g>
		<g>
			<path class="st0" d="M376.1,66.3v3.6h-17.9V38.3h4.2v27.9H376.1z"/>
			<path class="st0" d="M388.5,57.3v12.6h-4.3V57.3l-11.5-19h3.7c0.4,0,0.7,0.1,0.9,0.3c0.2,0.2,0.4,0.4,0.6,0.7l7.2,12.3
				c0.3,0.5,0.5,1,0.7,1.4s0.4,0.9,0.6,1.4c0.2-0.5,0.3-0.9,0.5-1.4c0.2-0.4,0.4-0.9,0.7-1.4l7.2-12.3c0.1-0.2,0.3-0.5,0.5-0.7
				s0.5-0.3,0.9-0.3h3.8L388.5,57.3z"/>
			<path class="st0" d="M427.4,69.9h-3.8c-0.8,0-1.3-0.3-1.7-0.9l-8.2-11.3c-0.2-0.4-0.5-0.6-0.8-0.8c-0.3-0.2-0.7-0.2-1.3-0.2h-3.2
				v13.2h-4.2V38.3h8.9c2,0,3.7,0.2,5.2,0.6c1.5,0.4,2.7,1,3.6,1.7s1.6,1.7,2.1,2.8c0.5,1.1,0.7,2.3,0.7,3.6c0,1.1-0.2,2.2-0.5,3.1
				s-0.9,1.8-1.5,2.6c-0.7,0.8-1.5,1.4-2.4,2c-1,0.5-2,1-3.3,1.2c0.5,0.3,1,0.8,1.4,1.3L427.4,69.9z M412.8,53.6
				c1.2,0,2.3-0.2,3.3-0.5c0.9-0.3,1.7-0.7,2.4-1.3c0.6-0.5,1.1-1.2,1.4-2s0.5-1.6,0.5-2.5c0-1.9-0.6-3.3-1.8-4.2
				c-1.2-1-3.1-1.4-5.5-1.4h-4.7v11.9H412.8z"/>
			<path class="st0" d="M457.3,69.9H454c-0.4,0-0.7-0.1-0.9-0.3s-0.4-0.4-0.5-0.7l-2.9-7.6h-14.1l-2.9,7.6c-0.1,0.3-0.3,0.5-0.5,0.7
				c-0.2,0.2-0.6,0.3-0.9,0.3h-3.3l12.6-31.5h4.3L457.3,69.9z M448.4,58.2l-4.9-12.8c-0.1-0.4-0.3-0.8-0.5-1.3
				c-0.2-0.5-0.3-1-0.5-1.6c-0.3,1.2-0.6,2.2-0.9,3l-5,12.8H448.4z"/>
			<path class="st0" d="M479.1,66.2c0.4,0,0.8,0.1,1,0.4c0.2,0.2,0.4,0.6,0.4,1v2.4h-21v-1.3c0-0.3,0.1-0.6,0.2-0.9
				c0.1-0.3,0.3-0.6,0.5-0.8l10.1-10.1c0.8-0.9,1.6-1.7,2.3-2.5c0.7-0.8,1.3-1.6,1.8-2.4c0.5-0.8,0.9-1.6,1.1-2.4
				c0.3-0.8,0.4-1.7,0.4-2.6s-0.1-1.7-0.4-2.4c-0.3-0.7-0.7-1.3-1.2-1.7c-0.5-0.5-1.1-0.8-1.8-1c-0.7-0.2-1.4-0.3-2.2-0.3
				c-0.8,0-1.5,0.1-2.2,0.4c-0.7,0.2-1.3,0.6-1.8,1s-1,0.9-1.3,1.5c-0.4,0.6-0.6,1.2-0.7,1.9c-0.2,0.5-0.4,0.9-0.7,1
				c-0.3,0.2-0.7,0.2-1.3,0.1l-2-0.4c0.2-1.4,0.6-2.7,1.2-3.8c0.6-1.1,1.3-2,2.2-2.8c0.9-0.7,1.9-1.3,3.1-1.7
				c1.2-0.4,2.4-0.6,3.8-0.6c1.3,0,2.6,0.2,3.7,0.6c1.2,0.4,2.2,1,3,1.7c0.9,0.8,1.5,1.7,2,2.8c0.5,1.1,0.7,2.3,0.7,3.7
				c0,1.2-0.2,2.3-0.5,3.3c-0.4,1-0.8,2-1.4,2.9c-0.6,0.9-1.3,1.8-2.1,2.7c-0.8,0.9-1.6,1.7-2.5,2.6l-8.3,8.5
				c0.6-0.2,1.2-0.3,1.8-0.4c0.6-0.1,1.2-0.1,1.7-0.1H479.1z"/>
			<path class="st0" d="M508,39.9c0,0.5-0.1,1-0.4,1.4l-17.8,25.1h18v3.5h-23.6v-1.7c0-0.2,0-0.5,0.1-0.7c0.1-0.2,0.2-0.4,0.3-0.6
				l17.9-25.1h-17.5v-3.5H508V39.9z"/>
			<path class="st0" d="M368.5,82.1h-4.2v11.8h-2.6V82.1h-4.2v-2.1h11V82.1z"/>
			<path class="st0" d="M381.2,93.9h-2.3c-0.4,0-0.8-0.2-1-0.5l-2.9-4.5c-0.1-0.2-0.2-0.3-0.4-0.4s-0.3-0.1-0.6-0.1H373v5.4h-2.6
				V79.9h4.2c0.9,0,1.8,0.1,2.4,0.3c0.7,0.2,1.2,0.5,1.7,0.8s0.8,0.8,1,1.3c0.2,0.5,0.3,1,0.3,1.6c0,0.5-0.1,0.9-0.2,1.3
				c-0.1,0.4-0.3,0.8-0.6,1.1c-0.3,0.3-0.6,0.6-1,0.9c-0.4,0.3-0.8,0.5-1.3,0.6c0.2,0.1,0.3,0.2,0.5,0.3c0.1,0.1,0.3,0.3,0.4,0.5
				L381.2,93.9z M374.6,86.6c0.5,0,0.9-0.1,1.3-0.2c0.4-0.1,0.7-0.3,0.9-0.5c0.2-0.2,0.4-0.5,0.5-0.8c0.1-0.3,0.2-0.6,0.2-1
				c0-0.7-0.2-1.2-0.7-1.6s-1.2-0.6-2.1-0.6H373v4.6H374.6z"/>
			<path class="st0" d="M394.7,93.9h-2c-0.2,0-0.4-0.1-0.5-0.2c-0.1-0.1-0.2-0.3-0.3-0.4l-1-2.8H385l-1,2.8
				c-0.1,0.1-0.2,0.3-0.3,0.4c-0.1,0.1-0.3,0.2-0.5,0.2h-2l5.5-13.9h2.6L394.7,93.9z M390.1,88.6l-1.7-4.6c-0.1-0.2-0.2-0.4-0.3-0.7
				s-0.2-0.6-0.3-0.9c-0.1,0.3-0.2,0.6-0.3,0.9c-0.1,0.3-0.2,0.5-0.3,0.7l-1.7,4.6H390.1z"/>
			<path class="st0" d="M407.9,79.9v13.9h-1.3c-0.2,0-0.4,0-0.5-0.1c-0.1-0.1-0.3-0.2-0.4-0.3l-7.3-9.3c0,0.4,0.1,0.8,0.1,1.2v8.6
				h-2.3V79.9h1.4c0.1,0,0.2,0,0.3,0c0.1,0,0.2,0,0.2,0.1c0.1,0,0.1,0.1,0.2,0.1c0.1,0.1,0.1,0.1,0.2,0.2l7.3,9.3c0-0.2,0-0.4,0-0.7
				c0-0.2,0-0.4,0-0.6v-8.5H407.9z"/>
			<path class="st0" d="M418.4,82.5c-0.1,0.1-0.2,0.2-0.2,0.3c-0.1,0.1-0.2,0.1-0.3,0.1c-0.1,0-0.3,0-0.4-0.1s-0.3-0.2-0.6-0.3
				c-0.2-0.1-0.5-0.2-0.8-0.3c-0.3-0.1-0.6-0.1-1-0.1c-0.4,0-0.7,0-0.9,0.1c-0.3,0.1-0.5,0.2-0.7,0.4c-0.2,0.2-0.3,0.3-0.4,0.6
				c-0.1,0.2-0.1,0.5-0.1,0.7c0,0.3,0.1,0.6,0.3,0.8c0.2,0.2,0.4,0.4,0.7,0.6c0.3,0.2,0.6,0.3,1,0.4c0.4,0.1,0.8,0.3,1.2,0.4
				c0.4,0.1,0.8,0.3,1.2,0.5c0.4,0.2,0.7,0.4,1,0.7c0.3,0.3,0.5,0.6,0.7,1c0.2,0.4,0.3,0.9,0.3,1.5c0,0.6-0.1,1.2-0.3,1.8
				c-0.2,0.6-0.5,1-0.9,1.4c-0.4,0.4-0.9,0.7-1.5,1c-0.6,0.2-1.3,0.4-2.1,0.4c-0.4,0-0.9,0-1.3-0.1c-0.4-0.1-0.8-0.2-1.2-0.4
				c-0.4-0.2-0.8-0.4-1.1-0.6c-0.3-0.2-0.7-0.5-0.9-0.8l0.8-1.2c0.1-0.1,0.1-0.2,0.2-0.2c0.1-0.1,0.2-0.1,0.3-0.1
				c0.2,0,0.3,0.1,0.5,0.2c0.2,0.1,0.4,0.3,0.7,0.4c0.3,0.2,0.6,0.3,0.9,0.4c0.3,0.1,0.8,0.2,1.2,0.2c0.7,0,1.3-0.2,1.7-0.5
				c0.4-0.4,0.6-0.9,0.6-1.5c0-0.4-0.1-0.7-0.3-0.9c-0.2-0.2-0.4-0.4-0.7-0.6c-0.3-0.2-0.6-0.3-1-0.4c-0.4-0.1-0.8-0.2-1.2-0.4
				s-0.8-0.3-1.2-0.5c-0.4-0.2-0.7-0.4-1-0.7c-0.3-0.3-0.5-0.7-0.7-1.1c-0.2-0.4-0.3-1-0.3-1.6c0-0.5,0.1-1,0.3-1.5s0.5-0.9,0.9-1.3
				s0.9-0.7,1.4-0.9c0.6-0.2,1.2-0.3,1.9-0.3c0.8,0,1.6,0.1,2.3,0.4c0.7,0.3,1.3,0.6,1.8,1.1L418.4,82.5z"/>
			<path class="st0" d="M420.8,92.6c0-0.2,0-0.4,0.1-0.6s0.2-0.3,0.3-0.5s0.3-0.2,0.5-0.3c0.2-0.1,0.4-0.1,0.6-0.1
				c0.2,0,0.4,0,0.6,0.1c0.2,0.1,0.3,0.2,0.5,0.3c0.1,0.1,0.2,0.3,0.3,0.5s0.1,0.4,0.1,0.6c0,0.2,0,0.4-0.1,0.6
				c-0.1,0.2-0.2,0.3-0.3,0.5c-0.1,0.1-0.3,0.2-0.5,0.3c-0.2,0.1-0.4,0.1-0.6,0.1c-0.2,0-0.4,0-0.6-0.1c-0.2-0.1-0.3-0.2-0.5-0.3
				s-0.2-0.3-0.3-0.5C420.9,93,420.8,92.8,420.8,92.6z"/>
			<path class="st0" d="M440,82.1h-4.2v11.8h-2.6V82.1H429v-2.1h11V82.1z"/>
			<path class="st0" d="M454.6,86.9c0,1-0.2,2-0.5,2.8c-0.3,0.9-0.8,1.6-1.4,2.3s-1.4,1.1-2.2,1.5c-0.9,0.4-1.8,0.5-2.9,0.5
				c-1.1,0-2-0.2-2.9-0.5c-0.9-0.4-1.6-0.9-2.2-1.5c-0.6-0.6-1.1-1.4-1.4-2.3s-0.5-1.8-0.5-2.8s0.2-2,0.5-2.8
				c0.3-0.9,0.8-1.6,1.4-2.3c0.6-0.6,1.4-1.1,2.2-1.5c0.9-0.4,1.8-0.5,2.9-0.5c0.7,0,1.4,0.1,2,0.2c0.6,0.2,1.2,0.4,1.7,0.7
				s1,0.7,1.4,1.1s0.8,0.9,1.1,1.4s0.5,1.1,0.7,1.7C454.6,85.6,454.6,86.2,454.6,86.9z M452,86.9c0-0.8-0.1-1.5-0.3-2.1
				c-0.2-0.6-0.5-1.1-0.9-1.5s-0.8-0.7-1.4-1s-1.2-0.3-1.8-0.3c-0.7,0-1.3,0.1-1.8,0.3s-1,0.5-1.4,1c-0.4,0.4-0.7,0.9-0.9,1.5
				c-0.2,0.6-0.3,1.3-0.3,2.1c0,0.8,0.1,1.4,0.3,2.1c0.2,0.6,0.5,1.1,0.9,1.5c0.4,0.4,0.8,0.7,1.4,1s1.2,0.3,1.8,0.3
				c0.7,0,1.3-0.1,1.8-0.3s1-0.5,1.4-1c0.4-0.4,0.7-0.9,0.9-1.5C451.9,88.4,452,87.7,452,86.9z"/>
			<path class="st0" d="M476.7,79.9v13.9h-2.3v-9c0-0.4,0-0.8,0.1-1.2l-4.2,7.9c-0.2,0.4-0.5,0.6-0.9,0.6H469
				c-0.4,0-0.7-0.2-0.9-0.6l-4.3-7.9c0,0.2,0,0.4,0,0.6c0,0.2,0,0.4,0,0.6v9h-2.3V79.9h2c0.1,0,0.2,0,0.3,0c0.1,0,0.2,0,0.2,0
				s0.1,0.1,0.2,0.1c0.1,0.1,0.1,0.1,0.2,0.2l4.2,7.7c0.1,0.2,0.2,0.4,0.3,0.6c0.1,0.2,0.2,0.4,0.3,0.7c0.1-0.2,0.2-0.5,0.3-0.7
				c0.1-0.2,0.2-0.4,0.3-0.6l4.1-7.7c0.1-0.1,0.1-0.2,0.2-0.2s0.1-0.1,0.2-0.1c0.1,0,0.1,0,0.2,0c0.1,0,0.2,0,0.3,0H476.7z"/>
			<path class="st0" d="M489.5,82.1h-4.2v11.8h-2.6V82.1h-4.2v-2.1h11V82.1z"/>
			<path class="st0" d="M495.9,79.9c0.9,0,1.7,0.1,2.4,0.3s1.2,0.5,1.7,0.9s0.8,0.9,1,1.4c0.2,0.5,0.3,1.1,0.3,1.8
				c0,0.7-0.1,1.3-0.3,1.9c-0.2,0.6-0.6,1-1,1.4c-0.5,0.4-1,0.7-1.7,0.9c-0.7,0.2-1.5,0.3-2.4,0.3H494v4.9h-2.6V79.9H495.9z
				 M495.9,86.9c0.5,0,0.9-0.1,1.2-0.2s0.6-0.3,0.9-0.5c0.2-0.2,0.4-0.5,0.5-0.8c0.1-0.3,0.2-0.7,0.2-1.1c0-0.4-0.1-0.7-0.2-1
				c-0.1-0.3-0.3-0.6-0.5-0.8c-0.2-0.2-0.5-0.4-0.9-0.5s-0.8-0.2-1.3-0.2H494v5H495.9z"/>
		</g>
	</g>
	<g>
		<g>
			<path class="st0" d="M967,37.6c0,0.5-0.2,1.1-0.6,1.6l-35.9,50.2h36.2v3.4H925v-1.5c0-0.3,0-0.6,0.1-0.8c0.1-0.2,0.2-0.4,0.3-0.7
				l36-50.3h-35.4v-3.4H967V37.6z"/>
			<path class="st0" d="M999.6,36.3v31.5h-2.1c-0.3,0-0.6-0.1-0.8-0.2s-0.5-0.3-0.7-0.6l-18.2-23.8c0,0.4,0.1,0.7,0.1,1.1
				c0,0.4,0,0.7,0,1v22.5h-3.7V36.3h2.2c0.2,0,0.4,0,0.5,0c0.1,0,0.2,0.1,0.4,0.1s0.2,0.1,0.3,0.2c0.1,0.1,0.2,0.2,0.3,0.4L996,60.8
				c0-0.4-0.1-0.8-0.1-1.1c0-0.4,0-0.7,0-1V36.3H999.6z"/>
			<path class="st0" d="M1036.8,52.1c0,2.4-0.4,4.5-1.1,6.5s-1.8,3.7-3.2,5.1c-1.4,1.4-3,2.5-4.9,3.3c-1.9,0.8-4,1.2-6.3,1.2
				s-4.4-0.4-6.3-1.2c-1.9-0.8-3.5-1.9-4.9-3.3c-1.4-1.4-2.4-3.1-3.2-5.1s-1.1-4.1-1.1-6.5s0.4-4.5,1.1-6.5s1.8-3.7,3.2-5.1
				c1.4-1.4,3-2.5,4.9-3.3c1.9-0.8,4-1.2,6.3-1.2s4.4,0.4,6.3,1.2s3.6,1.9,4.9,3.3c1.4,1.4,2.4,3.1,3.2,5.1S1036.8,49.7,1036.8,52.1
				z M1032.4,52.1c0-1.9-0.3-3.7-0.8-5.2c-0.5-1.5-1.3-2.8-2.2-3.9s-2.1-1.9-3.5-2.5s-2.9-0.9-4.6-0.9c-1.7,0-3.2,0.3-4.6,0.9
				s-2.6,1.4-3.5,2.5s-1.7,2.4-2.3,3.9c-0.5,1.5-0.8,3.3-0.8,5.2c0,1.9,0.3,3.7,0.8,5.2c0.5,1.5,1.3,2.8,2.3,3.9
				c1,1.1,2.2,1.9,3.5,2.4s2.9,0.8,4.6,0.8c1.7,0,3.2-0.3,4.6-0.8s2.6-1.4,3.5-2.4c1-1.1,1.7-2.4,2.2-3.9
				C1032.2,55.7,1032.4,54,1032.4,52.1z"/>
			<path class="st0" d="M1070.2,52.1c0,2.4-0.4,4.5-1.1,6.4c-0.7,1.9-1.8,3.6-3.2,5c-1.4,1.4-3,2.4-4.9,3.2s-4,1.1-6.3,1.1h-11.8
				V36.3h11.8c2.3,0,4.4,0.4,6.3,1.1c1.9,0.8,3.6,1.8,4.9,3.2c1.4,1.4,2.4,3,3.2,5C1069.8,47.6,1070.2,49.7,1070.2,52.1z
				 M1065.8,52.1c0-1.9-0.3-3.7-0.8-5.2c-0.5-1.5-1.3-2.8-2.2-3.9c-1-1.1-2.1-1.9-3.5-2.4c-1.4-0.6-2.9-0.8-4.6-0.8h-7.5v24.6h7.5
				c1.7,0,3.2-0.3,4.6-0.8s2.6-1.4,3.5-2.4c1-1,1.7-2.3,2.2-3.9C1065.6,55.7,1065.8,54,1065.8,52.1z"/>
			<path class="st0" d="M1095.8,64.3l0,3.5h-19.4V36.3h19.4v3.5h-15.2v10.5h12.3v3.3h-12.3v10.8H1095.8z"/>
			<path class="st0" d="M1117.9,41.2c-0.1,0.2-0.3,0.4-0.4,0.5c-0.2,0.1-0.3,0.2-0.6,0.2c-0.2,0-0.5-0.1-0.9-0.4
				c-0.3-0.2-0.8-0.5-1.3-0.8c-0.5-0.3-1.1-0.6-1.8-0.8c-0.7-0.2-1.6-0.4-2.6-0.4c-1,0-1.8,0.1-2.5,0.4c-0.7,0.3-1.3,0.6-1.8,1
				c-0.5,0.4-0.9,1-1.1,1.6c-0.2,0.6-0.4,1.2-0.4,1.9c0,0.9,0.2,1.6,0.6,2.2c0.4,0.6,1,1.1,1.7,1.5c0.7,0.4,1.5,0.8,2.4,1.1
				c0.9,0.3,1.8,0.6,2.8,0.9s1.9,0.7,2.8,1.1c0.9,0.4,1.7,0.9,2.4,1.5c0.7,0.6,1.3,1.4,1.7,2.3s0.6,2,0.6,3.3c0,1.4-0.2,2.7-0.7,3.9
				c-0.5,1.2-1.2,2.3-2.1,3.2c-0.9,0.9-2,1.6-3.3,2.1s-2.8,0.8-4.5,0.8c-2.1,0-3.9-0.4-5.6-1.1s-3.1-1.7-4.3-3l1.2-2
				c0.1-0.2,0.3-0.3,0.4-0.4c0.2-0.1,0.4-0.2,0.6-0.2c0.2,0,0.4,0.1,0.6,0.2s0.5,0.3,0.8,0.6c0.3,0.2,0.7,0.5,1.1,0.8
				c0.4,0.3,0.8,0.5,1.4,0.8c0.5,0.2,1.1,0.4,1.7,0.6s1.4,0.2,2.2,0.2c1,0,1.9-0.1,2.7-0.4c0.8-0.3,1.5-0.7,2-1.2
				c0.6-0.5,1-1.1,1.3-1.8c0.3-0.7,0.4-1.5,0.4-2.4c0-1-0.2-1.7-0.6-2.3s-1-1.1-1.7-1.5c-0.7-0.4-1.5-0.8-2.4-1
				c-0.9-0.3-1.8-0.6-2.8-0.9s-1.9-0.6-2.8-1c-0.9-0.4-1.7-0.9-2.4-1.5c-0.7-0.6-1.3-1.4-1.7-2.4c-0.4-0.9-0.6-2.1-0.6-3.5
				c0-1.1,0.2-2.2,0.6-3.2c0.4-1,1.1-2,1.9-2.8c0.8-0.8,1.8-1.5,3.1-1.9c1.2-0.5,2.6-0.7,4.2-0.7c1.8,0,3.4,0.3,4.8,0.8
				c1.4,0.6,2.7,1.4,3.8,2.4L1117.9,41.2z"/>
		</g>
	</g>
	<polyline class="st3" points="1356.7,50.4 1369.2,62.9 1396.7,35.3 	"/>
	<g>
		<path class="st0" d="M990.2,79v13.9h-2.3v-9c0-0.4,0-0.7,0.1-1.2l-4.2,7.9c-0.2,0.4-0.5,0.6-0.9,0.6h-0.4c-0.4,0-0.7-0.2-0.9-0.6
			l-4.3-7.9c0,0.2,0,0.4,0,0.6c0,0.2,0,0.4,0,0.6v9h-2.3V79h2c0.1,0,0.2,0,0.3,0c0.1,0,0.2,0,0.2,0c0.1,0,0.1,0.1,0.2,0.1
			c0.1,0.1,0.1,0.1,0.2,0.2l4.2,7.7c0.1,0.2,0.2,0.4,0.3,0.6c0.1,0.2,0.2,0.4,0.3,0.7c0.1-0.2,0.2-0.5,0.3-0.7
			c0.1-0.2,0.2-0.4,0.3-0.6l4.1-7.7c0.1-0.1,0.1-0.2,0.2-0.2c0.1-0.1,0.1-0.1,0.2-0.1c0.1,0,0.1,0,0.2,0c0.1,0,0.2,0,0.3,0H990.2z"
			/>
		<path class="st0" d="M995.9,92.9h-2.6V79h2.6V92.9z"/>
		<path class="st0" d="M1010.8,79v13.9h-1.3c-0.2,0-0.4,0-0.5-0.1c-0.1-0.1-0.3-0.2-0.4-0.3l-7.3-9.3c0,0.4,0.1,0.8,0.1,1.2v8.6H999
			V79h1.4c0.1,0,0.2,0,0.3,0c0.1,0,0.2,0,0.2,0.1c0.1,0,0.1,0.1,0.2,0.1c0.1,0.1,0.1,0.1,0.2,0.2l7.3,9.3c0-0.2,0-0.4,0-0.7
			c0-0.2,0-0.4,0-0.6V79H1010.8z"/>
		<path class="st0" d="M1013.1,91.6c0-0.2,0-0.4,0.1-0.6s0.2-0.3,0.3-0.5s0.3-0.2,0.5-0.3c0.2-0.1,0.4-0.1,0.6-0.1
			c0.2,0,0.4,0,0.6,0.1s0.3,0.2,0.5,0.3c0.1,0.1,0.2,0.3,0.3,0.5s0.1,0.4,0.1,0.6c0,0.2,0,0.4-0.1,0.6s-0.2,0.3-0.3,0.5
			c-0.1,0.1-0.3,0.2-0.5,0.3c-0.2,0.1-0.4,0.1-0.6,0.1c-0.2,0-0.4,0-0.6-0.1c-0.2-0.1-0.3-0.2-0.5-0.3c-0.1-0.1-0.2-0.3-0.3-0.5
			S1013.1,91.8,1013.1,91.6z"/>
		<path class="st0" d="M1022.3,80.3c0.2-0.2,0.5-0.4,0.7-0.5c0.3-0.2,0.5-0.3,0.8-0.5c0.3-0.1,0.6-0.2,1-0.3
			c0.4-0.1,0.7-0.1,1.1-0.1c0.6,0,1.1,0.1,1.5,0.2c0.5,0.2,0.9,0.4,1.2,0.7c0.3,0.3,0.6,0.6,0.8,1c0.2,0.4,0.3,0.9,0.3,1.4
			c0,0.5-0.1,0.9-0.2,1.3s-0.3,0.7-0.5,0.9c-0.2,0.3-0.4,0.5-0.7,0.7s-0.5,0.4-0.7,0.5c-0.2,0.2-0.4,0.3-0.6,0.5
			c-0.2,0.2-0.3,0.3-0.3,0.6l-0.2,1.4h-1.6l-0.2-1.6c0-0.3,0-0.6,0.1-0.8c0.1-0.2,0.3-0.4,0.5-0.6c0.2-0.2,0.4-0.4,0.7-0.5
			s0.5-0.4,0.7-0.6c0.2-0.2,0.4-0.4,0.6-0.7c0.2-0.3,0.2-0.6,0.2-0.9c0-0.2,0-0.4-0.1-0.6c-0.1-0.2-0.2-0.3-0.4-0.5
			c-0.2-0.1-0.3-0.2-0.6-0.3c-0.2-0.1-0.4-0.1-0.7-0.1c-0.4,0-0.7,0-0.9,0.1c-0.3,0.1-0.5,0.2-0.6,0.3s-0.3,0.2-0.4,0.3
			s-0.2,0.1-0.3,0.1c-0.2,0-0.4-0.1-0.5-0.3L1022.3,80.3z M1024.1,91.6c0-0.2,0-0.4,0.1-0.6c0.1-0.2,0.2-0.3,0.3-0.5
			s0.3-0.2,0.5-0.3s0.4-0.1,0.6-0.1c0.2,0,0.4,0,0.6,0.1s0.3,0.2,0.5,0.3s0.2,0.3,0.3,0.5s0.1,0.4,0.1,0.6c0,0.2,0,0.4-0.1,0.6
			s-0.2,0.3-0.3,0.5c-0.1,0.1-0.3,0.2-0.5,0.3c-0.2,0.1-0.4,0.1-0.6,0.1c-0.2,0-0.4,0-0.6-0.1c-0.2-0.1-0.3-0.2-0.5-0.3
			c-0.1-0.1-0.2-0.3-0.3-0.5C1024.1,92,1024.1,91.8,1024.1,91.6z"/>
		<path class="st0" d="M1031.1,80.3c0.2-0.2,0.5-0.4,0.7-0.5c0.3-0.2,0.5-0.3,0.8-0.5c0.3-0.1,0.6-0.2,1-0.3
			c0.4-0.1,0.7-0.1,1.1-0.1c0.6,0,1.1,0.1,1.5,0.2c0.5,0.2,0.9,0.4,1.2,0.7c0.3,0.3,0.6,0.6,0.8,1c0.2,0.4,0.3,0.9,0.3,1.4
			c0,0.5-0.1,0.9-0.2,1.3s-0.3,0.7-0.5,0.9c-0.2,0.3-0.4,0.5-0.7,0.7s-0.5,0.4-0.7,0.5c-0.2,0.2-0.4,0.3-0.6,0.5
			c-0.2,0.2-0.3,0.3-0.3,0.6l-0.2,1.4h-1.6l-0.2-1.6c0-0.3,0-0.6,0.1-0.8c0.1-0.2,0.3-0.4,0.5-0.6c0.2-0.2,0.4-0.4,0.7-0.5
			s0.5-0.4,0.7-0.6c0.2-0.2,0.4-0.4,0.6-0.7c0.2-0.3,0.2-0.6,0.2-0.9c0-0.2,0-0.4-0.1-0.6c-0.1-0.2-0.2-0.3-0.4-0.5
			c-0.2-0.1-0.3-0.2-0.6-0.3c-0.2-0.1-0.4-0.1-0.7-0.1c-0.4,0-0.7,0-0.9,0.1c-0.3,0.1-0.5,0.2-0.6,0.3s-0.3,0.2-0.4,0.3
			s-0.2,0.1-0.3,0.1c-0.2,0-0.4-0.1-0.5-0.3L1031.1,80.3z M1032.9,91.6c0-0.2,0-0.4,0.1-0.6c0.1-0.2,0.2-0.3,0.3-0.5
			s0.3-0.2,0.5-0.3s0.4-0.1,0.6-0.1c0.2,0,0.4,0,0.6,0.1s0.3,0.2,0.5,0.3s0.2,0.3,0.3,0.5s0.1,0.4,0.1,0.6c0,0.2,0,0.4-0.1,0.6
			s-0.2,0.3-0.3,0.5c-0.1,0.1-0.3,0.2-0.5,0.3c-0.2,0.1-0.4,0.1-0.6,0.1c-0.2,0-0.4,0-0.6-0.1c-0.2-0.1-0.3-0.2-0.5-0.3
			c-0.1-0.1-0.2-0.3-0.3-0.5C1033,92,1032.9,91.8,1032.9,91.6z"/>
		<path class="st0" d="M1040,80.3c0.2-0.2,0.5-0.4,0.7-0.5c0.3-0.2,0.5-0.3,0.8-0.5c0.3-0.1,0.6-0.2,1-0.3c0.4-0.1,0.7-0.1,1.1-0.1
			c0.6,0,1.1,0.1,1.5,0.2c0.5,0.2,0.9,0.4,1.2,0.7c0.3,0.3,0.6,0.6,0.8,1c0.2,0.4,0.3,0.9,0.3,1.4c0,0.5-0.1,0.9-0.2,1.3
			s-0.3,0.7-0.5,0.9c-0.2,0.3-0.4,0.5-0.7,0.7s-0.5,0.4-0.7,0.5c-0.2,0.2-0.4,0.3-0.6,0.5c-0.2,0.2-0.3,0.3-0.3,0.6l-0.2,1.4h-1.6
			l-0.2-1.6c0-0.3,0-0.6,0.1-0.8c0.1-0.2,0.3-0.4,0.5-0.6c0.2-0.2,0.4-0.4,0.7-0.5s0.5-0.4,0.7-0.6c0.2-0.2,0.4-0.4,0.6-0.7
			c0.2-0.3,0.2-0.6,0.2-0.9c0-0.2,0-0.4-0.1-0.6c-0.1-0.2-0.2-0.3-0.4-0.5c-0.2-0.1-0.3-0.2-0.6-0.3c-0.2-0.1-0.4-0.1-0.7-0.1
			c-0.4,0-0.7,0-0.9,0.1c-0.3,0.1-0.5,0.2-0.6,0.3s-0.3,0.2-0.4,0.3s-0.2,0.1-0.3,0.1c-0.2,0-0.4-0.1-0.5-0.3L1040,80.3z
			 M1041.8,91.6c0-0.2,0-0.4,0.1-0.6c0.1-0.2,0.2-0.3,0.3-0.5s0.3-0.2,0.5-0.3s0.4-0.1,0.6-0.1c0.2,0,0.4,0,0.6,0.1s0.3,0.2,0.5,0.3
			s0.2,0.3,0.3,0.5s0.1,0.4,0.1,0.6c0,0.2,0,0.4-0.1,0.6s-0.2,0.3-0.3,0.5c-0.1,0.1-0.3,0.2-0.5,0.3c-0.2,0.1-0.4,0.1-0.6,0.1
			c-0.2,0-0.4,0-0.6-0.1c-0.2-0.1-0.3-0.2-0.5-0.3c-0.1-0.1-0.2-0.3-0.3-0.5C1041.9,92,1041.8,91.8,1041.8,91.6z"/>
		<path class="st0" d="M1065.7,92.9h-2.6c-0.2,0-0.3,0-0.4-0.1c-0.1-0.1-0.2-0.2-0.3-0.3l-3.2-5.3c-0.1,0.2-0.1,0.3-0.2,0.4
			l-3.1,4.9c-0.1,0.1-0.2,0.2-0.3,0.3s-0.2,0.1-0.4,0.1h-2.4l4.6-7.2l-4.4-6.8h2.6c0.2,0,0.3,0,0.4,0.1c0.1,0,0.2,0.1,0.2,0.2
			l3.2,5.1c0.1-0.2,0.1-0.3,0.2-0.5l2.9-4.6c0.1-0.1,0.1-0.2,0.2-0.3c0.1-0.1,0.2-0.1,0.3-0.1h2.5l-4.5,6.7L1065.7,92.9z"/>
		<path class="st0" d="M1076.9,80c0,0.3-0.1,0.6-0.3,0.8l-7.2,10.1h7.2v2.1h-10.6v-1c0-0.1,0-0.3,0.1-0.4s0.1-0.2,0.2-0.3l7.2-10.1
			h-7V79h10.3V80z"/>
		<path class="st0" d="M1088.3,89.7c0.1,0,0.3,0.1,0.4,0.2l1,1.1c-0.6,0.7-1.3,1.2-2.1,1.6c-0.8,0.4-1.8,0.6-3,0.6
			c-1,0-2-0.2-2.8-0.5c-0.8-0.4-1.5-0.8-2.1-1.5c-0.6-0.6-1-1.4-1.3-2.3c-0.3-0.9-0.5-1.8-0.5-2.9c0-1,0.2-2,0.5-2.9
			c0.3-0.9,0.8-1.6,1.4-2.2c0.6-0.6,1.3-1.1,2.2-1.5c0.8-0.3,1.8-0.5,2.8-0.5c1,0,1.9,0.2,2.7,0.5c0.8,0.3,1.5,0.8,2,1.3l-0.9,1.2
			c-0.1,0.1-0.1,0.1-0.2,0.2c-0.1,0.1-0.2,0.1-0.3,0.1c-0.1,0-0.2,0-0.3-0.1s-0.2-0.1-0.3-0.2s-0.3-0.2-0.4-0.3
			c-0.2-0.1-0.3-0.2-0.6-0.3c-0.2-0.1-0.5-0.1-0.7-0.2s-0.6-0.1-1-0.1c-0.6,0-1.2,0.1-1.7,0.3c-0.5,0.2-1,0.5-1.3,1
			c-0.4,0.4-0.7,0.9-0.9,1.5c-0.2,0.6-0.3,1.3-0.3,2.1c0,0.8,0.1,1.5,0.3,2.1s0.5,1.1,0.9,1.5c0.4,0.4,0.8,0.7,1.3,1
			c0.5,0.2,1.1,0.3,1.7,0.3c0.4,0,0.7,0,1-0.1c0.3,0,0.5-0.1,0.8-0.2c0.2-0.1,0.5-0.2,0.7-0.3c0.2-0.1,0.4-0.3,0.6-0.5
			c0.1-0.1,0.1-0.1,0.2-0.1C1088.1,89.7,1088.2,89.7,1088.3,89.7z"/>
	</g>
</g>
</svg>
