<?xml version="1.0" encoding="utf-8"?>
<!-- Generator: Adobe Illustrator 19.0.0, SVG Export Plug-In . SVG Version: 6.00 Build 0)  -->
<svg version="1.1" id="Layer_1" xmlns="http://www.w3.org/2000/svg" xmlns:xlink="http://www.w3.org/1999/xlink" x="0px" y="0px"
	 viewBox="-987 2406.1 291.3 291.3" style="enable-background:new -987 2406.1 291.3 291.3;" xml:space="preserve">
<style type="text/css">
	.st0{fill:#ED1C24;}
	.st1{fill:none;stroke:#FFFFFF;stroke-width:8.5039;stroke-miterlimit:10;}
	.st2{fill:none;stroke:#FFFFFF;stroke-width:4.5;stroke-linecap:round;stroke-linejoin:round;stroke-miterlimit:10;}
	.st3{fill:#FFFFFF;}
	.st4{fill:none;stroke:#FFFFFF;stroke-width:10;stroke-linecap:round;stroke-linejoin:round;stroke-miterlimit:10;}
	.st5{clip-path:url(#SVGID_2_);}
	.st6{fill:#D71920;}
</style>
<g id="XMLID_6800_">
	<circle id="XMLID_6801_" class="st0" cx="-841.4" cy="2551.7" r="145"/>
</g>
<line id="XMLID_3049_" class="st1" x1="-2508.9" y1="1686.6" x2="-2189.6" y2="2005.9"/>
<path id="XMLID_3050_" class="st2" d="M-2321.4,1795.9c0,0-7.4,0.2-8.4-1c-1.5-1.7-2.2-13.3,1.2-14.8c4-1.8,6-2,7.8-3.2
	c1.7-1.2,8.8-6.4,12-6.7c3.3-0.3,21.7-1.5,25.3,0.2c3.6,1.7,10.9,7,15.4,8.3c4.5,1.2,20,0.1,19.6,13.4c-0.2,2.4-2.2,3.6-9.8,3.6"/>
<circle id="XMLID_3051_" class="st2" cx="-2265" cy="1795.7" r="6.4"/>
<circle id="XMLID_3052_" class="st2" cx="-2313.3" cy="1795.7" r="6.4"/>
<path id="XMLID_3053_" class="st2" d="M-2309.1,1775.4c0,0,1.1,5.1,6.1,8.3c5,3.2,29.8,3.4,29.8,3.4"/>
<line id="XMLID_3054_" class="st2" x1="-2307" y1="1795.6" x2="-2271.4" y2="1795.6"/>
<path id="XMLID_3055_" class="st2" d="M-2268.1,1778.5c4.5,1.2,20.2,0.3,19.6,12.4c0,3.1-4.9,5-8.8,4.6"/>
<g id="XMLID_3056_">
	<circle id="XMLID_3057_" class="st0" cx="-1219.6" cy="1791.3" r="145.6"/>
</g>
<g id="XMLID_3255_">
	<path id="XMLID_3256_" class="st3" d="M-1452.9,1810.5c-16.1,0-18.7-2.9-19.7-4.1c-4.5-5.1-5-21.6-3.2-30.2
		c1.3-6.1,3.9-10,7.6-11.6c4.3-1.9,7.6-3.1,10.3-4c3-1,5-1.7,6.5-2.8l1.1-0.8c10.1-7.2,21.5-14.6,28.7-15.4c0.5,0,49.4-4.3,60.3,0.9
		c3.2,1.5,7.3,4,11.9,6.9c7.3,4.5,16.4,10,22.2,11.6c1.5,0.4,4,0.7,7,1.1c13.7,1.7,42.2,5.2,41.5,34.4c0,0.1,0,0.3,0,0.4
		c-1.2,11.9-14.8,12.9-27.4,12.9c-2.8,0-5.1-2.3-5.1-5.1c0-2.8,2.3-5.1,5.1-5.1c11,0,16.7-1.2,17.2-3.5
		c0.3-18.2-15.2-21.6-32.5-23.8c-3.3-0.4-6.2-0.8-8.4-1.3c-7.2-1.9-16.6-7.7-24.9-12.7c-4.3-2.6-8.3-5.1-11-6.4
		c-5.7-2.7-41.4-1.3-54.8,0.1c-2.5,0.3-8.7,2.8-23.8,13.6l-1.1,0.8c-2.7,1.9-5.7,2.9-9.1,4.1c-2.6,0.9-5.6,1.9-9.5,3.7
		c-3.1,2.3-3.3,20.1-1.1,25.3c2.4,0.7,9.1,1.1,15.3,1c2.7-0.1,5.2,2.2,5.2,5c0.1,2.8-2.2,5.2-5,5.2
		C-1450.8,1810.5-1451.9,1810.5-1452.9,1810.5z"/>
	<path id="XMLID_3257_" class="st3" d="M-1321.3,1824.6c-10.9,0-19.7-8.8-19.7-19.7s8.8-19.7,19.7-19.7c10.9,0,19.7,8.8,19.7,19.7
		S-1310.5,1824.6-1321.3,1824.6z M-1321.3,1795.4c-5.2,0-9.5,4.3-9.5,9.5c0,5.2,4.3,9.5,9.5,9.5c5.2,0,9.5-4.3,9.5-9.5
		C-1311.8,1799.7-1316.1,1795.4-1321.3,1795.4z"/>
	<path id="XMLID_3260_" class="st3" d="M-1431.3,1824.6c-10.9,0-19.7-8.8-19.7-19.7s8.8-19.7,19.7-19.7c10.9,0,19.7,8.8,19.7,19.7
		S-1420.5,1824.6-1431.3,1824.6z M-1431.3,1795.4c-5.2,0-9.5,4.3-9.5,9.5c0,5.2,4.3,9.5,9.5,9.5c5.2,0,9.5-4.3,9.5-9.5
		C-1421.8,1799.7-1426.1,1795.4-1431.3,1795.4z"/>
	<path id="XMLID_3263_" class="st3" d="M-1340.1,1790.4L-1340.1,1790.4c-9.7-0.1-58.5-0.9-70.5-8.5c-13.1-8.2-16-21.5-16.1-22.1
		c-0.6-2.8,1.2-5.5,3.9-6.1c2.8-0.6,5.5,1.2,6.1,3.9c0.1,0.2,2.4,9.7,11.6,15.6c7.4,4.7,43.9,6.7,65.1,6.9c2.8,0,5.1,2.3,5.1,5.2
		C-1335,1788.1-1337.3,1790.4-1340.1,1790.4z"/>
	<path id="XMLID_3264_" class="st3" d="M-1335.9,1809.7h-81.1c-2.8,0-5.1-2.3-5.1-5.1c0-2.8,2.3-5.1,5.1-5.1h81.1
		c2.8,0,5.1,2.3,5.1,5.1C-1330.8,1807.4-1333.1,1809.7-1335.9,1809.7z"/>
	<path id="XMLID_3265_" class="st3" d="M-1301.6,1809.8c-1,0-1.9,0-2.9-0.1c-2.8-0.3-4.9-2.8-4.6-5.6c0.3-2.8,2.8-4.9,5.6-4.6
		c4.7,0.5,10.5-1.1,13.2-3.5c0.5-0.5,1.2-1.2,1.2-1.9c0-0.1,0-0.2,0-0.2c0.7-16.2-14.8-19.4-32.1-21.6c-3.5-0.4-6.5-0.8-8.7-1.4
		c-2.7-0.7-4.3-3.5-3.6-6.3c0.7-2.7,3.5-4.3,6.3-3.6c1.6,0.4,4.4,0.8,7.3,1.1c13.7,1.7,42.2,5.2,41.1,32.1c0,3.5-1.6,6.7-4.5,9.4
		C-1287.6,1807.5-1294.7,1809.8-1301.6,1809.8z"/>
</g>
<g id="XMLID_3266_">
	<path id="XMLID_3267_" class="st4" d="M-1318.6,1721.9c-29.1,41.5-29.1,97.2,0,138.7"/>
	<path id="XMLID_3268_" class="st4" d="M-1288.9,1890.3c41.5,29.1,97.2,29.1,138.7,0"/>
</g>
<g id="XMLID_3269_">
	<path id="XMLID_3270_" class="st4" d="M-1150.2,1692.2c-41.5-29.1-97.2-29.1-138.7,0"/>
	<path id="XMLID_3271_" class="st4" d="M-1120.5,1860.6c29.1-41.5,29.1-97.2,0-138.7"/>
</g>
<circle id="XMLID_3272_" class="st3" cx="-1124.8" cy="1866.6" r="11.2"/>
<circle id="XMLID_3273_" class="st3" cx="-1314.3" cy="1716" r="11.2"/>
<circle id="XMLID_3274_" class="st3" cx="-1144.3" cy="1696.5" r="11.2"/>
<circle id="XMLID_3275_" class="st3" cx="-1294.9" cy="1886" r="11.2"/>
<g id="XMLID_3058_">
	<g>
		<defs>
			<circle id="SVGID_1_" cx="-841.4" cy="2551.7" r="145"/>
		</defs>
		<clipPath id="SVGID_2_">
			<use xlink:href="#SVGID_1_"  style="overflow:visible;"/>
		</clipPath>
		<g id="XMLID_3059_" class="st5">
			<path id="XMLID_3060_" class="st6" d="M-970.6,2543.7c0-1-0.8-1.7-1.7-1.7c-1,0-1.7,0.8-1.7,1.7c0,0.8,0.5,1.4,1.2,1.6v13.5
				l23.5,25h134l16.5-16.5v-33.7c0.7-0.2,1.2-0.9,1.2-1.6c0-1-0.8-1.7-1.7-1.7c-1,0-1.7,0.8-1.7,1.7c0,0.8,0.5,1.4,1.2,1.6v33.2
				l-15.9,15.9h-133l-22.9-24.3v-13.1C-971.1,2545.1-970.6,2544.5-970.6,2543.7z"/>
			<path id="XMLID_3061_" class="st6" d="M-867.4,2603.9h-63.4c-0.2-0.7-0.9-1.2-1.6-1.2c-1,0-1.7,0.8-1.7,1.7
				c0,0.9,0.8,1.7,1.7,1.7c0.8,0,1.4-0.5,1.6-1.2h63.4C-867.4,2604.9-867.4,2603.9-867.4,2603.9z"/>
			<path id="XMLID_3062_" class="st6" d="M-829.1,2528.4c1.3,0,2.3-1,2.3-2.3c0-1.3-1-2.3-2.3-2.3c-1.1,0-2,0.7-2.2,1.7h-64.3
				c-0.3-1-1.2-1.7-2.2-1.7c-1.3,0-2.3,1-2.3,2.3c0,1.3,1,2.3,2.3,2.3c1.1,0,2-0.7,2.2-1.7h64.3
				C-831.1,2527.7-830.2,2528.4-829.1,2528.4z M-829.1,2524.9c0.6,0,1.2,0.5,1.2,1.2c0,0.6-0.5,1.2-1.2,1.2c-0.6,0-1.2-0.5-1.2-1.2
				C-830.2,2525.4-829.7,2524.9-829.1,2524.9z M-897.8,2527.2c-0.6,0-1.2-0.5-1.2-1.2c0-0.6,0.5-1.2,1.2-1.2c0.6,0,1.2,0.5,1.2,1.2
				C-896.7,2526.7-897.2,2527.2-897.8,2527.2z"/>
			<path id="XMLID_3066_" class="st6" d="M-831.2,2603.9v1.2h22.2l13.4-13.4c0.2,0.1,0.5,0.2,0.7,0.2c1,0,1.7-0.8,1.7-1.7
				c0-1-0.8-1.7-1.7-1.7c-1,0-1.7,0.8-1.7,1.7c0,0.3,0.1,0.5,0.2,0.7l-13,13H-831.2z"/>
			<path id="XMLID_3067_" class="st6" d="M-786.4,2556.5c0,1,0.8,1.7,1.7,1.7c1,0,1.7-0.8,1.7-1.7c0-0.8-0.5-1.4-1.2-1.6v-40h-130.2
				c-0.2-0.7-0.9-1.2-1.6-1.2c-1,0-1.7,0.8-1.7,1.7c0,0.9,0.8,1.7,1.7,1.7c0.8,0,1.4-0.5,1.6-1.2h129.1v38.9
				C-785.9,2555.1-786.4,2555.8-786.4,2556.5z"/>
			<path id="XMLID_3068_" class="st6" d="M-951.4,2588.6h137.9l19.3-19.3v-24c0.7-0.2,1.2-0.9,1.2-1.6c0-1-0.8-1.7-1.7-1.7
				c-1,0-1.7,0.8-1.7,1.7c0,0.8,0.5,1.4,1.2,1.6v23.5l-18.8,18.6h-136.9l-25.5-27.1v-26.6c0.7-0.2,1.2-0.9,1.2-1.6
				c0-1-0.8-1.7-1.7-1.7c-1,0-1.7,0.8-1.7,1.7c0,0.8,0.5,1.4,1.2,1.6v27L-951.4,2588.6z"/>
			<path id="XMLID_3069_" class="st6" d="M-847.3,2548c1,0,1.7-0.8,1.7-1.7c0-0.9-0.8-1.7-1.7-1.7c-0.8,0-1.4,0.5-1.6,1.2H-910
				l-8.5-8.5h-5.1c-0.2-0.7-0.9-1.2-1.6-1.2c-1,0-1.7,0.8-1.7,1.7c0,1,0.8,1.7,1.7,1.7c0.8,0,1.4-0.5,1.6-1.2h4.6l8.5,8.5h61.6
				C-848.7,2547.5-848,2548-847.3,2548z"/>
			<path id="XMLID_3070_" class="st6" d="M-938.9,2542.8c-1,0-1.7,0.8-1.7,1.7c0,1,0.8,1.7,1.7,1.7c0.3,0,0.5-0.1,0.7-0.2l12.2,12.2
				h60c0.2,0.7,0.9,1.2,1.6,1.2c1,0,1.7-0.8,1.7-1.7c0-1-0.8-1.7-1.7-1.7c-0.8,0-1.4,0.5-1.6,1.2h-59.6l-11.7-11.7
				c0.1-0.2,0.2-0.5,0.2-0.7C-937.1,2543.6-937.9,2542.8-938.9,2542.8z"/>
			<path id="XMLID_3071_" class="st6" d="M-835.6,2543.4c1,0,1.7-0.8,1.7-1.7c0-1-0.8-1.7-1.7-1.7c-0.8,0-1.4,0.5-1.6,1.2h-70.9
				l-8.5-8.5h-24.3c-0.2-0.7-0.9-1.2-1.6-1.2c-1,0-1.7,0.8-1.7,1.7c0,1,0.8,1.7,1.7,1.7c0.8,0,1.4-0.5,1.6-1.2h23.8l8.5,8.5h71.3
				C-837,2542.9-836.4,2543.4-835.6,2543.4z"/>
			<path id="XMLID_3072_" class="st6" d="M-923.7,2529h8.5l8.5,8.5h57.7c0.2,0.7,0.9,1.2,1.6,1.2c1,0,1.7-0.8,1.7-1.7
				c0-1-0.8-1.7-1.7-1.7c-0.8,0-1.4,0.5-1.6,1.2h-57.2l-8.5-8.5h-9c-0.2-0.7-0.9-1.2-1.6-1.2c-1,0-1.7,0.8-1.7,1.7
				c0,1,0.8,1.7,1.7,1.7C-924.6,2530.2-923.9,2529.7-923.7,2529z"/>
			<path id="XMLID_3073_" class="st6" d="M-965.9,2532.1c0-1-0.8-1.7-1.7-1.7c-1,0-1.7,0.8-1.7,1.7c0,0.8,0.5,1.4,1.2,1.6v23.4
				l20.9,22.2h130l13.8-13.8v-20.1c0.7-0.2,1.2-0.9,1.2-1.6c0-1-0.8-1.7-1.7-1.7c-1,0-1.7,0.8-1.7,1.7c0,0.8,0.5,1.4,1.2,1.6v19.6
				l-13.4,13.1h-129l-20.2-21.5v-22.9C-966.4,2533.5-965.9,2532.8-965.9,2532.1z"/>
			<path id="XMLID_3074_" class="st6" d="M-789.6,2571.3v-37.6c0.7-0.2,1.2-0.9,1.2-1.6c0-1-0.8-1.7-1.7-1.7c-1,0-1.7,0.8-1.7,1.7
				c0,0.8,0.5,1.4,1.2,1.6v37.1l-21.4,21.3h-140.9l-28.2-30v-16.8c0.7-0.2,1.2-0.9,1.2-1.6c0-1-0.8-1.7-1.7-1.7
				c-1,0-1.7,0.8-1.7,1.7c0,0.8,0.5,1.4,1.2,1.6v17.2l28.8,30.7h141.9L-789.6,2571.3z"/>
			<path id="XMLID_3075_" class="st6" d="M-981,2578.7c0-1.3-1-2.3-2.3-2.3s-2.3,1-2.3,2.3c0,1.1,0.7,2,1.7,2.2v12.3h13.9
				c0.3,1,1.2,1.7,2.2,1.7c1.3,0,2.3-1,2.3-2.3c0-1.3-1-2.3-2.3-2.3c-1.1,0-2,0.7-2.2,1.7h-12.7v-11.2
				C-981.7,2580.7-981,2579.8-981,2578.7z M-967.7,2591.5c0.6,0,1.2,0.5,1.2,1.2s-0.5,1.2-1.2,1.2c-0.6,0-1.2-0.5-1.2-1.2
				S-968.3,2591.5-967.7,2591.5z M-983.3,2579.9c-0.6,0-1.2-0.5-1.2-1.2c0-0.6,0.5-1.2,1.2-1.2c0.6,0,1.2,0.5,1.2,1.2
				C-982.1,2579.3-982.7,2579.9-983.3,2579.9z"/>
			<path id="XMLID_3079_" class="st6" d="M-753.5,2583.4c0-1-0.8-1.7-1.7-1.7c-1,0-1.7,0.8-1.7,1.7c0,0.3,0.1,0.5,0.2,0.7
				l-43.1,43.1h-31.4v1.2h31.8l43.4-43.4c0.2,0.1,0.5,0.2,0.7,0.2C-754.3,2585.1-753.5,2584.3-753.5,2583.4z"/>
			<path id="XMLID_3080_" class="st6" d="M-1021.3,2461.6l-0.2,0.2c-0.2-0.1-0.5-0.2-0.7-0.2c-1,0-1.7,0.8-1.7,1.7
				c0,1,0.8,1.7,1.7,1.7c1,0,1.7-0.8,1.7-1.7c0-0.3-0.1-0.5-0.2-0.7l0.2-0.2L-1021.3,2461.6z"/>
			<path id="XMLID_3081_" class="st6" d="M-1024.6,2458.3l-2.9,2.9l0.1,7l-9.6,9.6v7.7c-0.7,0.2-1.2,0.9-1.2,1.6
				c0,1,0.8,1.7,1.7,1.7c1,0,1.7-0.8,1.7-1.7c0-0.8-0.5-1.4-1.2-1.6v-7.2l9.6-9.6l-0.1-7l2.6-2.6L-1024.6,2458.3z"/>
			<path id="XMLID_3082_" class="st6" d="M-831.2,2631.8v1.2h33.8l40-40c0.2,0.1,0.5,0.2,0.7,0.2c1,0,1.7-0.8,1.7-1.7
				s-0.8-1.7-1.7-1.7c-1,0-1.7,0.8-1.7,1.7c0,0.3,0.1,0.5,0.2,0.7l-39.8,39.6H-831.2z"/>
			<path id="XMLID_3083_" class="st6" d="M-750.9,2593.1c0.2,0.1,0.5,0.2,0.8,0.2c1,0,1.7-0.8,1.7-1.7c0-1-0.8-1.7-1.7-1.7
				c-0.9,0-1.7,0.8-1.7,1.7c0,0.3,0.1,0.5,0.2,0.7l-44.4,44.2h-35.2v1.2h35.7L-750.9,2593.1z"/>
			<path id="XMLID_3084_" class="st6" d="M-921.1,2464.3c1,0,1.7-0.8,1.7-1.7c0-1-0.8-1.7-1.7-1.7c-0.3,0-0.5,0.1-0.7,0.2
				l-10.4-10.4h-41.3l-4.5-4.5c0.1-0.2,0.2-0.5,0.2-0.7c0-1-0.8-1.7-1.7-1.7c-1,0-1.7,0.8-1.7,1.7c0,1,0.8,1.7,1.7,1.7
				c0.3,0,0.5-0.1,0.7-0.2l4.8,4.8h41.3l10,10c-0.1,0.2-0.2,0.5-0.2,0.7C-922.9,2463.6-922.1,2464.3-921.1,2464.3z"/>
			<path id="XMLID_3085_" class="st6" d="M-1027.9,2455l-4.3,4.3l0.1,7l-13.2,13.2v6c-0.7,0.2-1.2,0.9-1.2,1.6c0,1,0.8,1.7,1.7,1.7
				c1,0,1.7-0.8,1.7-1.7c0-0.8-0.5-1.4-1.2-1.6v-5.5l13.2-13.2l-0.1-7l3.9-3.9L-1027.9,2455z"/>
			<path id="XMLID_3086_" class="st6" d="M-996,2431.4h56.7c0.2,0.7,0.9,1.2,1.6,1.2c1,0,1.7-0.8,1.7-1.7c0-1-0.8-1.7-1.7-1.7
				c-0.8,0-1.4,0.5-1.6,1.2h-57.2l-2.5,2.5l0.8,0.8L-996,2431.4z"/>
			<path id="XMLID_3087_" class="st6" d="M-942.5,2433.7c-1,0-1.7,0.8-1.7,1.7c0,1,0.8,1.7,1.7,1.7c0.8,0,1.4-0.5,1.6-1.2h17.5
				l23.4,23.4h59.9l27.6-27.6h35.4c0.3,0.4,0.8,0.6,1.3,0.6c1,0,1.7-0.8,1.7-1.7c0-1-0.8-1.7-1.7-1.7c-1,0-1.7,0.8-1.7,1.7H-813
				l-27.6,27.6h-58.9l-23.3-23.4h-18C-941.1,2434.1-941.7,2433.7-942.5,2433.7z"/>
			<path id="XMLID_3088_" class="st6" d="M-1056.6,2497h17.1c0.2,0.7,0.9,1.2,1.6,1.2c1,0,1.7-0.8,1.7-1.7s-0.8-1.7-1.7-1.7
				c-0.8,0-1.4,0.5-1.6,1.2h-15.9v-11.3l19.8-19.8l-0.1-7l5.3-5.3l-0.8-0.8l-5.7,5.7l0.1,7l-19.8,19.8
				C-1056.6,2484.3-1056.6,2497-1056.6,2497z"/>
			<path id="XMLID_3089_" class="st6" d="M-929.2,2431.3h7.8l23.3,23.3h56l27.6-27.5h29.6c0.3,0.4,0.8,0.6,1.3,0.6
				c1,0,1.7-0.8,1.7-1.7c0-1-0.8-1.7-1.7-1.7c-1,0-1.7,0.8-1.7,1.7h-29.6l-27.6,27.6h-55.1l-23.3-23.4h-8.2
				c-0.2-0.7-0.9-1.2-1.6-1.2c-1,0-1.7,0.8-1.7,1.7c0,1,0.8,1.7,1.7,1.7C-930,2432.5-929.4,2432-929.2,2431.3z"/>
			<path id="XMLID_3090_" class="st6" d="M-1010.8,2553.7v-55c0.7-0.2,1.2-0.9,1.2-1.6c0-1-0.8-1.7-1.7-1.7c-1,0-1.7,0.8-1.7,1.7
				c0,0.8,0.5,1.4,1.2,1.6v53.8L-1010.8,2553.7z"/>
			<path id="XMLID_3091_" class="st6" d="M-962.4,2545.4c0.7-0.2,1.2-0.9,1.2-1.6c0-1-0.8-1.7-1.7-1.7c-1,0-1.7,0.8-1.7,1.7
				c0,0.8,0.5,1.4,1.2,1.6v9.8l18.2,19.4h126.1l11.1-11.1v-29.8c0.7-0.2,1.2-0.9,1.2-1.6c0-1-0.8-1.7-1.7-1.7c-1,0-1.7,0.8-1.7,1.7
				c0,0.8,0.5,1.4,1.2,1.6v29.4l-10.4,10.4h-125.5l-17.6-18.7L-962.4,2545.4L-962.4,2545.4z"/>
			<path id="XMLID_3092_" class="st6" d="M-867.4,2608.5H-939c-0.2-0.7-0.9-1.2-1.6-1.2c-1,0-1.7,0.8-1.7,1.7s0.8,1.7,1.7,1.7
				c0.8,0,1.4-0.5,1.6-1.2h71.6V2608.5z"/>
			<path id="XMLID_3093_" class="st6" d="M-831.2,2609.7h24.1l26.4-26.4c0.2,0.1,0.5,0.2,0.7,0.2c1,0,1.7-0.8,1.7-1.7
				c0-1-0.8-1.7-1.7-1.7c-1,0-1.7,0.8-1.7,1.7c0,0.3,0.1,0.5,0.2,0.7l-26,26h-23.6v1.2H-831.2z"/>
			<path id="XMLID_3094_" class="st6" d="M-831.2,2623.7h29.9l32-32c0.2,0.1,0.5,0.2,0.7,0.2c1,0,1.7-0.8,1.7-1.7
				c0-1-0.8-1.7-1.7-1.7c-1,0-1.7,0.8-1.7,1.7c0,0.3,0.1,0.5,0.2,0.7l-31.7,31.7h-29.4V2623.7z"/>
			<path id="XMLID_3095_" class="st6" d="M-831.2,2614.4h26.1l22.1-22.1c0.2,0.1,0.5,0.2,0.8,0.2c1,0,1.7-0.8,1.7-1.7
				c0-0.9-0.8-1.7-1.7-1.7c-1,0-1.7,0.8-1.7,1.7c0,0.3,0.1,0.5,0.2,0.7l-21.7,21.7H-831v1.2H-831.2z"/>
			<path id="XMLID_3096_" class="st6" d="M-867.4,2613.2h-63.4c-0.2-0.7-0.9-1.2-1.6-1.2c-1,0-1.7,0.8-1.7,1.7
				c0,0.9,0.8,1.7,1.7,1.7c0.8,0,1.4-0.5,1.6-1.2h63.4C-867.4,2614.2-867.4,2613.2-867.4,2613.2z"/>
			<path id="XMLID_3097_" class="st6" d="M-1048.4,2569.3c0,1,0.8,1.7,1.7,1.7c0.7,0,1.4-0.5,1.6-1.1h15.8l-0.7-0.7l0.5-0.5h-15.5
				c-0.2-0.7-0.9-1.2-1.7-1.2C-1047.6,2567.5-1048.4,2568.3-1048.4,2569.3z"/>
			<path id="XMLID_3098_" class="st6" d="M-831.2,2619h28l34.7-34.7c0.2,0.1,0.5,0.2,0.7,0.2c1,0,1.7-0.8,1.7-1.7
				c0-1-0.8-1.7-1.7-1.7c-1,0-1.7,0.8-1.7,1.7c0,0.3,0.1,0.5,0.2,0.7l-34.3,34.3h-27.5v1.2H-831.2z"/>
			<path id="XMLID_3099_" class="st6" d="M-998,2426.7h58.6c0.2,0.7,0.9,1.2,1.6,1.2c1,0,1.7-0.8,1.7-1.7c0-1-0.8-1.7-1.7-1.7
				c-0.8,0-1.4,0.5-1.6,1.2h-59.1l-3.9,3.9l0.8,0.8L-998,2426.7z"/>
			<path id="XMLID_3100_" class="st6" d="M-922.6,2633.2c1,0,1.7-0.8,1.7-1.7s-0.8-1.7-1.7-1.7c-0.8,0-1.4,0.5-1.6,1.2h-19.2v2.1
				c-0.7,0.2-1.2,0.9-1.2,1.7c0,1,0.8,1.7,1.7,1.7c1,0,1.7-0.8,1.7-1.7c0-0.8-0.5-1.4-1.1-1.6v-1h17.9
				C-924,2632.7-923.4,2633.2-922.6,2633.2z"/>
			<path id="XMLID_3101_" class="st6" d="M-922.6,2625c-0.8,0-1.4,0.5-1.6,1.2H-948v6.8c-0.7,0.2-1.2,0.9-1.2,1.7
				c0,1,0.8,1.7,1.7,1.7c1,0,1.7-0.8,1.7-1.7c0-0.7-0.5-1.4-1.1-1.6v-5.6h22.6c0.2,0.7,0.9,1.2,1.6,1.2c1,0,1.7-0.8,1.7-1.7
				C-920.9,2625.8-921.7,2625-922.6,2625z"/>
			<path id="XMLID_3102_" class="st6" d="M-867.4,2617.9H-939c-0.2-0.7-0.9-1.2-1.6-1.2c-1,0-1.7,0.8-1.7,1.7c0,0.9,0.8,1.7,1.7,1.7
				c0.8,0,1.4-0.5,1.6-1.2h71.6V2617.9z"/>
			<path id="XMLID_3103_" class="st6" d="M-1060.7,2569.9c0-1-0.8-1.7-1.7-1.7c-1,0-1.7,0.8-1.7,1.7c0,0.8,0.5,1.4,1.2,1.6v36.5
				l34.5,34.5h47.8c0.2,0.7,0.9,1.2,1.6,1.2c1,0,1.7-0.8,1.7-1.7c0-1-0.8-1.7-1.7-1.7c-0.8,0-1.4,0.5-1.6,1.2h-47.4l-33.9-33.9v-36
				C-1061.2,2571.3-1060.7,2570.7-1060.7,2569.9z"/>
			<path id="XMLID_3104_" class="st6" d="M-1056.1,2569.9c0-1-0.8-1.7-1.7-1.7c-1,0-1.7,0.8-1.7,1.7c0,0.8,0.5,1.4,1.2,1.6v34.6
				l31.8,31.8h44c0.2,0.7,0.9,1.2,1.6,1.2c1,0,1.7-0.8,1.7-1.7c0-1-0.8-1.7-1.7-1.7c-0.8,0-1.4,0.5-1.6,1.2h-43.6l-31.1-31.1v-34.1
				C-1056.5,2571.3-1056.1,2570.7-1056.1,2569.9z"/>
			<path id="XMLID_3105_" class="st6" d="M-932.1,2655.9c1,0,1.7-0.8,1.7-1.7c0-0.9-0.8-1.7-1.7-1.7c-0.3,0-0.5,0.1-0.7,0.2
				l-8.3-8.3h-21.2l-11.1,11.1h-60.4l-42-42v-41.8c0.7-0.2,1.2-0.9,1.2-1.6c0-1-0.8-1.7-1.7-1.7c-1,0-1.7,0.8-1.7,1.7
				c0,0.8,0.5,1.4,1.2,1.6v42.3l42.7,42.7h61.4l11.1-11.1h20.1l8,8c-0.1,0.2-0.2,0.5-0.2,0.7
				C-933.9,2655.1-933.1,2655.9-932.1,2655.9z"/>
			<path id="XMLID_3106_" class="st6" d="M-1065.4,2569.9c0-1-0.8-1.7-1.7-1.7c-1,0-1.7,0.8-1.7,1.7c0,0.8,0.5,1.4,1.2,1.6v38.4
				l37.3,37.3h51.6c0.2,0.7,0.9,1.2,1.6,1.2c1,0,1.7-0.8,1.7-1.7c0-1-0.8-1.7-1.7-1.7c-0.8,0-1.4,0.5-1.6,1.2h-51.3l-36.6-36.6
				v-37.9C-1065.9,2571.3-1065.4,2570.7-1065.4,2569.9z"/>
			<path id="XMLID_3107_" class="st6" d="M-997.5,2567l0.8,0.8l4.5-4.5v-64.6c0.7-0.2,1.2-0.8,1.2-1.6c0-1-0.8-1.7-1.7-1.7
				c-1,0-1.7,0.8-1.7,1.7c0,0.8,0.5,1.4,1.2,1.6v64.1L-997.5,2567z"/>
			<path id="XMLID_3108_" class="st6" d="M-1051.4,2569.9c0-1-0.8-1.7-1.7-1.7c-1,0-1.7,0.8-1.7,1.7c0,0.8,0.5,1.4,1.2,1.6v32.6
				l29.1,29.1h40c0.2,0.7,0.9,1.2,1.6,1.2c1,0,1.7-0.8,1.7-1.7c0-1-0.8-1.7-1.7-1.7c-0.8,0-1.4,0.5-1.6,1.2h-39.7l-28.4-28.4v-32.1
				C-1051.9,2571.3-1051.4,2570.7-1051.4,2569.9z"/>
			<path id="XMLID_3109_" class="st6" d="M-1044.8,2561.4c-1,0-1.7,0.8-1.7,1.7c0,1,0.8,1.7,1.7,1.7c1,0,1.7-0.8,1.7-1.7
				c0-0.3-0.1-0.5-0.2-0.7l16.4-16.4c0.2,0.1,0.5,0.2,0.7,0.2c1,0,1.7-0.8,1.7-1.7c0-1-0.8-1.7-1.7-1.7c-1,0-1.7,0.8-1.7,1.7
				c0,0.3,0.1,0.5,0.2,0.7l-16.3,16.4C-1044.3,2561.5-1044.5,2561.4-1044.8,2561.4z"/>
			<path id="XMLID_3110_" class="st6" d="M-1004.1,2560.4l0.8,0.8l1.8-1.8v-60.7c0.7-0.2,1.2-0.9,1.2-1.6c0-1-0.8-1.7-1.7-1.7
				c-1,0-1.7,0.8-1.7,1.7c0,0.8,0.5,1.4,1.2,1.6v60.3L-1004.1,2560.4z"/>
			<path id="XMLID_3111_" class="st6" d="M-1000.8,2563.7l0.8,0.8l3.1-3.1v-39.3c0.7-0.2,1.2-0.9,1.2-1.6c0-1-0.8-1.7-1.7-1.7
				c-1,0-1.7,0.8-1.7,1.7c0,0.8,0.5,1.4,1.2,1.6v38.9L-1000.8,2563.7z"/>
			<path id="XMLID_3112_" class="st6" d="M-1038.2,2561.3c-1,0-1.7,0.8-1.7,1.7c0,1,0.8,1.7,1.7,1.7c1,0,1.7-0.8,1.7-1.7
				c0-0.3-0.1-0.5-0.2-0.7l15.7-15.7c0.2,0.1,0.5,0.2,0.7,0.2c1,0,1.7-0.8,1.7-1.7c0-1-0.8-1.7-1.7-1.7c-1,0-1.7,0.8-1.7,1.7
				c0,0.3,0.1,0.5,0.2,0.7l-15.7,15.7C-1037.6,2561.4-1037.9,2561.3-1038.2,2561.3z"/>
			<path id="XMLID_3113_" class="st6" d="M-1007.4,2557.1l0.8,0.8l0.4-0.4v-35.4c0.7-0.2,1.2-0.9,1.2-1.6c0-1-0.8-1.7-1.7-1.7
				c-1,0-1.7,0.8-1.7,1.7c0,0.8,0.5,1.4,1.2,1.6L-1007.4,2557.1L-1007.4,2557.1z"/>
			<path id="XMLID_3114_" class="st6" d="M-1070,2569.9c0-1-0.8-1.7-1.7-1.7c-1,0-1.7,0.8-1.7,1.7c0,0.8,0.5,1.4,1.2,1.6v40.3l40,40
				h57.5l11.1-11.1h24l1.4,1.4c-0.1,0.2-0.2,0.5-0.2,0.7c0,1,0.8,1.7,1.7,1.7c1,0,1.7-0.8,1.7-1.7c0-1-0.8-1.7-1.7-1.7
				c-0.3,0-0.5,0.1-0.8,0.2l-1.8-1.8h-24.9l-11.1,11.1h-56.5l-39.3-39.3v-39.9C-1070.5,2571.3-1070,2570.7-1070,2569.9z"/>
			<path id="XMLID_3115_" class="st6" d="M-947,2482.2c-0.2-0.7-0.9-1.2-1.6-1.2c-1,0-1.7,0.8-1.7,1.7c0,1,0.8,1.7,1.7,1.7
				c0.8,0,1.4-0.5,1.6-1.2h194.4v83.2c-0.7,0.2-1.2,0.9-1.2,1.6c0,1,0.8,1.7,1.7,1.7c1,0,1.7-0.8,1.7-1.7c0-0.8-0.5-1.4-1.2-1.6
				v-84.2H-947z"/>
			<path id="XMLID_3116_" class="st6" d="M-633.6,2568.8h-25.6l-13.6-13.7v-38c-0.4-0.5-0.8-1-1.2-1.5v40l14.3,14.3h26.1
				c0.3,0.6,0.9,1,1.6,1c1,0,1.7-0.8,1.7-1.7c0-1-0.8-1.7-1.7-1.7C-632.7,2567.5-633.4,2568-633.6,2568.8z"/>
			<path id="XMLID_3117_" class="st6" d="M-632.8,2573.5H-661l-16.4-16.4v-45.7c-0.4-0.5-0.8-0.9-1.2-1.4v47.6l17.1,17.1h28.7
				c0.2,0.7,0.9,1.2,1.6,1.2c1,0,1.7-0.8,1.7-1.7c0-1-0.8-1.7-1.7-1.7C-631.9,2572.3-632.5,2572.8-632.8,2573.5z"/>
			<path id="XMLID_3118_" class="st6" d="M-683.3,2504.8v54.7l19.8,19.8h31.4c0.3,0.4,0.8,0.6,1.3,0.6c1,0,1.7-0.8,1.7-1.7
				c0-0.9-0.8-1.7-1.7-1.7c-1,0-1.7,0.8-1.7,1.7H-663l-19.1-19.1v-53C-682.5,2505.6-682.9,2505.2-683.3,2504.8z"/>
			<path id="XMLID_3119_" class="st6" d="M-669.8,2485.5v7.2l16.6,16.6v37.7l3.7,3.7h11.1c0.2,0.7,0.9,1.2,1.6,1.2
				c1,0,1.7-0.8,1.7-1.7c0-1-0.8-1.7-1.7-1.7c-0.8,0-1.4,0.5-1.6,1.2H-649l-3-3V2509l-16.6-16.6v-6.7c0.7-0.2,1.2-0.9,1.2-1.6
				c0-1-0.8-1.7-1.7-1.7s-1.7,0.8-1.7,1.7C-671,2484.6-670.5,2485.2-669.8,2485.5z"/>
			<path id="XMLID_3120_" class="st6" d="M-644.6,2531.8v7.5h2.4c0.2,0.7,0.9,1.2,1.6,1.2c1,0,1.7-0.8,1.7-1.7c0-1-0.8-1.7-1.7-1.7
				c-0.8,0-1.4,0.5-1.6,1.2h-1.3v-6.3c0.7-0.2,1.2-0.9,1.2-1.6c0-1-0.8-1.7-1.7-1.7c-1,0-1.7,0.8-1.7,1.7
				C-645.8,2530.9-645.3,2531.6-644.6,2531.8z"/>
			<path id="XMLID_3121_" class="st6" d="M-674.5,2480.8v13.8l16.6,16.6v37.7l6.5,6.5h14.7c0.2,0.7,0.9,1.2,1.6,1.2
				c1,0,1.7-0.8,1.7-1.7c0-1-0.8-1.7-1.7-1.7c-0.8,0-1.4,0.5-1.6,1.2H-651l-5.8-5.8v-37.7l-16.5-16.8v-13.3c0.7-0.2,1.2-0.9,1.2-1.6
				c0-1-0.8-1.7-1.7-1.7c-1,0-1.7,0.8-1.7,1.7C-675.7,2479.9-675.2,2480.6-674.5,2480.8z"/>
			<path id="XMLID_3122_" class="st6" d="M-811.8,2457.7c-1,0-1.7,0.8-1.7,1.7c0,1,0.8,1.7,1.7,1.7c0.8,0,1.4-0.5,1.6-1.2H-696
				l8.1,8.1v93.3l22.5,22.5h33.3c0.3,0.6,0.9,1,1.6,1c1,0,1.7-0.8,1.7-1.7c0-1-0.8-1.7-1.7-1.7c-0.8,0-1.5,0.6-1.7,1.3h-32.6
				l-21.8-21.8v-93.2l-8.8-8.8h-114.8C-810.4,2458.2-811,2457.7-811.8,2457.7z"/>
			<path id="XMLID_3123_" class="st6" d="M-683.8,2471.5v27l16.6,16.6v37.7l11.9,11.9h21.2c0.2,0.7,0.9,1.2,1.6,1.2
				c1,0,1.7-0.8,1.7-1.7c0-1-0.8-1.7-1.7-1.7c-0.8,0-1.4,0.5-1.6,1.2h-20.7l-11.2-11.2v-37.7l-16.6-16.6v-26.7
				c0.7-0.2,1.2-0.9,1.2-1.6c0-1-0.8-1.7-1.7-1.7c-1,0-1.7,0.8-1.7,1.7C-685,2470.6-684.5,2471.2-683.8,2471.5z"/>
			<path id="XMLID_3124_" class="st6" d="M-679.2,2476.1v20.4l16.6,16.6v37.7l9.2,9.2h17.9c0.2,0.7,0.9,1.2,1.6,1.2
				c1,0,1.7-0.8,1.7-1.7c0-1-0.8-1.7-1.7-1.7c-0.8,0-1.4,0.5-1.6,1.2h-17.4l-8.5-8.5v-37.7l-16.6-16.7v-20c0.7-0.2,1.2-0.9,1.2-1.6
				c0-1-0.8-1.7-1.7-1.7c-1,0-1.7,0.8-1.7,1.7C-680.3,2475.2-679.9,2475.9-679.2,2476.1z"/>
			<path id="XMLID_3125_" class="st6" d="M-994.2,2570.3l0.8,0.8l5.9-5.9v-31.6c0.7-0.2,1.2-0.9,1.2-1.6c0-1-0.8-1.7-1.7-1.7
				c-1,0-1.7,0.8-1.7,1.7c0,0.8,0.5,1.4,1.2,1.6v31.1L-994.2,2570.3z"/>
			<path id="XMLID_3126_" class="st6" d="M-959.6,2634.6c0,1,0.8,1.7,1.7,1.7c1,0,1.7-0.8,1.7-1.7c0-0.8-0.5-1.4-1.2-1.6v-27.4
				h-83.6c-0.2-0.8-0.9-1.3-1.7-1.3c-1,0-1.7,0.8-1.7,1.7c0,1,0.8,1.7,1.7,1.7c0.7,0,1.3-0.4,1.6-1h82.6v26.2
				C-959.1,2633.2-959.6,2633.8-959.6,2634.6z"/>
			<path id="XMLID_3127_" class="st6" d="M-1046.6,2580.4c0.7,0,1.4-0.5,1.6-1.1h23.7l0.7-0.7l-0.8-0.8l-0.3,0.3h-23.2
				c-0.2-0.7-0.9-1.2-1.7-1.2c-1,0-1.7,0.8-1.7,1.7C-1048.4,2579.6-1047.6,2580.4-1046.6,2580.4z"/>
			<path id="XMLID_3128_" class="st6" d="M-973.7,2638.1c0,1,0.8,1.7,1.7,1.7s1.7-0.8,1.7-1.7c0-0.7-0.4-1.3-1.1-1.6v-16.9h-55.6
				c-0.2-0.7-0.9-1.1-1.6-1.1c-1,0-1.7,0.8-1.7,1.7c0,1,0.8,1.7,1.7,1.7c0.8,0,1.4-0.5,1.6-1.2h54.6v15.7
				C-973.1,2636.6-973.7,2637.3-973.7,2638.1z"/>
			<path id="XMLID_3129_" class="st6" d="M-964.2,2634.6c0,1,0.8,1.7,1.7,1.7c1,0,1.7-0.8,1.7-1.7c0-0.8-0.5-1.4-1.2-1.6v-22.7
				h-75.4c-0.2-0.8-0.9-1.3-1.7-1.3c-1,0-1.7,0.8-1.7,1.7c0,1,0.8,1.7,1.7,1.7c0.7,0,1.3-0.4,1.6-1h74.3v21.6
				C-963.8,2633.2-964.2,2633.8-964.2,2634.6z"/>
			<path id="XMLID_3130_" class="st6" d="M-969,2638.1c0,1,0.8,1.7,1.7,1.7c1,0,1.7-0.8,1.7-1.7c0-0.7-0.4-1.3-1.1-1.6v-21.6h-64.9
				c-0.2-0.8-0.9-1.3-1.7-1.3c-1,0-1.7,0.8-1.7,1.7c0,0.9,0.8,1.7,1.7,1.7c0.7,0,1.3-0.4,1.6-1h63.8v20.4
				C-968.5,2636.6-969,2637.3-969,2638.1z"/>
			<path id="XMLID_3131_" class="st6" d="M-1045,2574.6h20.4l-1.2-1.2h-19.2c-0.2-0.7-0.9-1.2-1.7-1.2c-1,0-1.7,0.8-1.7,1.7
				c0,0.9,0.8,1.7,1.7,1.7C-1045.9,2575.7-1045.3,2575.3-1045,2574.6z"/>
			<path id="XMLID_3132_" class="st6" d="M-1046.5,2585.1c0.8,0,1.4-0.5,1.6-1.2h25.5l2-2l-0.8-0.8l-1.7,1.7h-25.1
				c-0.2-0.7-0.9-1.2-1.6-1.2c-1,0-1.7,0.8-1.7,1.7C-1048.3,2584.3-1047.5,2585.1-1046.5,2585.1z"/>
			<path id="XMLID_3133_" class="st6" d="M-1046,2594.3c0.7,0,1.3-0.4,1.6-1h28.9l4.8-4.8l-0.8-0.8l-4.5,4.4h-28.3
				c-0.2-0.8-0.9-1.3-1.7-1.3c-1,0-1.7,0.8-1.7,1.7S-1046.9,2594.3-1046,2594.3z"/>
			<path id="XMLID_3134_" class="st6" d="M-984,2568c-1,0-1.7,0.8-1.7,1.7c0,0.3,0.1,0.5,0.2,0.7l-12.7,12.7v7.8
				c-0.7,0.2-1.2,0.9-1.2,1.6c0,1,0.8,1.7,1.7,1.7c0.9,0,1.7-0.8,1.7-1.7c0-0.8-0.5-1.4-1.2-1.6v-7.3l12.4-12.4
				c0.2,0.1,0.5,0.2,0.7,0.2c1,0,1.7-0.8,1.7-1.7C-982.3,2568.8-983.1,2568-984,2568z"/>
			<path id="XMLID_3135_" class="st6" d="M-1046.3,2589.7c0.7,0,1.4-0.5,1.6-1.1h27.3l3.4-3.4l-0.8-0.8l-3.1,3.1h-26.8
				c-0.2-0.7-0.9-1.2-1.7-1.2c-1,0-1.7,0.8-1.7,1.7S-1047.3,2589.7-1046.3,2589.7z"/>
			<path id="XMLID_3136_" class="st6" d="M-951.9,2543.7c0-1-0.8-1.7-1.7-1.7c-1,0-1.7,0.8-1.7,1.7c0,0.8,0.5,1.4,1.2,1.6v6.2
				l12.9,13.8H-823l5.6-5.6v-26c0.7-0.2,1.2-0.9,1.2-1.6c0-1-0.8-1.7-1.7-1.7c-1,0-1.7,0.8-1.7,1.7c0,0.8,0.5,1.4,1.2,1.6v25.5
				l-4.9,4.9h-117.5l-12.3-13v-5.7C-952.4,2545.1-951.9,2544.5-951.9,2543.7z"/>
			<path id="XMLID_3137_" class="st6" d="M-990.9,2486c-1,0-1.7,0.8-1.7,1.7c0,1,0.8,1.7,1.7,1.7c0.3,0,0.5-0.1,0.7-0.2l6.4,6.4
				v25.2h16.5c0.2,0.7,0.9,1.2,1.6,1.2c1,0,1.7-0.8,1.7-1.7c0-1-0.8-1.7-1.7-1.7c-0.8,0-1.4,0.5-1.6,1.2h-15.2v-24.5l-6.8-6.8
				c0.1-0.2,0.2-0.5,0.2-0.7C-989.1,2486.8-989.9,2486-990.9,2486z"/>
			<path id="XMLID_3138_" class="st6" d="M-948.6,2490.4c-1,0-1.7,0.8-1.7,1.7c0,0.9,0.8,1.7,1.7,1.7c0.8,0,1.4-0.5,1.6-1.2h185.1
				v73.8c-0.7,0.2-1.2,0.9-1.2,1.6c0,1,0.8,1.7,1.7,1.7c1,0,1.7-0.8,1.7-1.7c0-0.8-0.5-1.4-1.2-1.6v-75H-947
				C-947.2,2490.9-947.9,2490.4-948.6,2490.4z"/>
			<path id="XMLID_3139_" class="st6" d="M-914.4,2486.9c-0.2-0.7-0.9-1.2-1.6-1.2c-1,0-1.7,0.8-1.7,1.7c0,0.9,0.8,1.7,1.7,1.7
				c0.8,0,1.4-0.5,1.6-1.2h157.1v66.8c-0.7,0.2-1.2,0.9-1.2,1.6c0,1,0.8,1.7,1.7,1.7c1,0,1.7-0.8,1.7-1.7c0-0.8-0.5-1.4-1.2-1.6v-68
				h-158.1V2486.9z"/>
			<path id="XMLID_3140_" class="st6" d="M-973.8,2486.3c0-1-0.8-1.7-1.7-1.7c-1,0-1.7,0.8-1.7,1.7c0,0.8,0.5,1.4,1.2,1.6v19.2h11.5
				c0.2,0.7,0.9,1.2,1.6,1.2c1,0,1.7-0.8,1.7-1.7c0-1-0.8-1.7-1.7-1.7c-0.8,0-1.4,0.5-1.6,1.2H-975v-18.2
				C-974.3,2487.7-973.8,2487-973.8,2486.3z"/>
			<path id="XMLID_3141_" class="st6" d="M-956.6,2532.1c0-1-0.8-1.7-1.7-1.7c-1,0-1.7,0.8-1.7,1.7c0,0.8,0.5,1.4,1.2,1.6v19.7
				l15.6,16.6h122.1l8.3-8.3v-16.2c0.7-0.2,1.2-0.9,1.2-1.6c0-1-0.8-1.7-1.7-1.7c-1,0-1.7,0.8-1.7,1.7c0,0.8,0.5,1.4,1.2,1.6v15.6
				l-7.7,7.7h-121.3l-14.9-15.9v-19.2C-957.1,2533.5-956.6,2532.8-956.6,2532.1z"/>
			<path id="XMLID_3142_" class="st6" d="M-948.6,2512.5c0.8,0,1.4-0.5,1.6-1.2h166.4v55.2c-0.7,0.2-1.2,0.9-1.2,1.6
				c0,1,0.8,1.7,1.7,1.7c1,0,1.7-0.8,1.7-1.7c0-0.8-0.5-1.4-1.2-1.6v-56.3H-947c-0.2-0.7-0.9-1.2-1.6-1.2c-1,0-1.7,0.8-1.7,1.7
				C-950.4,2511.7-949.6,2512.5-948.6,2512.5z"/>
			<path id="XMLID_3143_" class="st6" d="M-1043.2,2600.9c-0.3-0.6-0.9-1.1-1.6-1.1c-1,0-1.7,0.8-1.7,1.7c0,1,0.8,1.7,1.7,1.7
				c0.8,0,1.5-0.5,1.7-1.3h89.4v30.9c-0.7,0.2-1.2,0.9-1.2,1.6c0,1,0.8,1.7,1.7,1.7c1,0,1.7-0.8,1.7-1.7c0-0.8-0.5-1.4-1.2-1.6v-32
				L-1043.2,2600.9L-1043.2,2600.9z"/>
			<path id="XMLID_3144_" class="st6" d="M-777.1,2556.5c0,1,0.8,1.7,1.7,1.7c1,0,1.7-0.8,1.7-1.7c0-0.8-0.5-1.4-1.2-1.6v-49.4
				h-139.5c-0.2-0.7-0.9-1.2-1.6-1.2c-1,0-1.7,0.8-1.7,1.7c0,1,0.8,1.7,1.7,1.7c0.8,0,1.4-0.5,1.6-1.2H-776v48.2
				C-776.6,2555.1-777.1,2555.8-777.1,2556.5z"/>
			<path id="XMLID_3145_" class="st6" d="M-914.4,2496.2c-0.2-0.7-0.9-1.2-1.6-1.2c-1,0-1.7,0.8-1.7,1.7c0,1,0.8,1.7,1.7,1.7
				c0.8,0,1.4-0.5,1.6-1.2h147.8v57.5c-0.7,0.2-1.2,0.9-1.2,1.6c0,1,0.8,1.7,1.7,1.7c1,0,1.7-0.8,1.7-1.7c0-0.8-0.5-1.4-1.2-1.6
				v-58.5H-914.4z"/>
			<path id="XMLID_3146_" class="st6" d="M-948.6,2503.2c0.8,0,1.4-0.5,1.6-1.2h175.7v64.5c-0.7,0.2-1.2,0.9-1.2,1.6
				c0,1,0.8,1.7,1.7,1.7c1,0,1.7-0.8,1.7-1.7c0-0.8-0.5-1.4-1.2-1.6v-65.6H-947c-0.2-0.7-0.9-1.2-1.6-1.2c-1,0-1.7,0.8-1.7,1.7
				C-950.3,2502.3-949.6,2503.2-948.6,2503.2z"/>
			<path id="XMLID_3147_" class="st6" d="M-649,2522.5v22.7h8.9c0.2,0.7,0.9,1.2,1.6,1.2c1,0,1.7-0.8,1.7-1.7c0-1-0.8-1.7-1.7-1.7
				c-0.8,0-1.4,0.5-1.6,1.2h-7.7v-21.5c0.7-0.2,1.2-0.9,1.2-1.6c0-1-0.8-1.7-1.7-1.7c-1,0-1.7,0.8-1.7,1.7
				C-650.1,2521.6-649.6,2522.2-649,2522.5z"/>
			<path id="XMLID_3148_" class="st6" d="M-734.8,2690.9c-1,0-1.7,0.8-1.7,1.7c0,1,0.8,1.7,1.7,1.7c1,0,1.7-0.8,1.7-1.7
				c0-0.3-0.1-0.5-0.2-0.7l20.3-20.3c0.2,0.1,0.5,0.2,0.8,0.2c1,0,1.7-0.8,1.7-1.7c0-1-0.8-1.7-1.7-1.7c-1,0-1.7,0.8-1.7,1.7
				c0,0.3,0.1,0.5,0.2,0.8l-20.3,20.2C-734.3,2691-734.5,2690.9-734.8,2690.9z"/>
			<path id="XMLID_3149_" class="st6" d="M-844.1,2689.9l9.3-9.3c0.2,0.1,0.5,0.2,0.7,0.2c1,0,1.7-0.8,1.7-1.7c0-1-0.8-1.7-1.7-1.7
				c-1,0-1.7,0.8-1.7,1.7c0,0.3,0.1,0.5,0.2,0.7l-8.9,8.9h-15.1v9.4c-0.7,0.2-1.2,0.9-1.2,1.6c0,1,0.8,1.7,1.7,1.7
				c1,0,1.7-0.8,1.7-1.7c0-0.8-0.5-1.4-1.2-1.6v-8.2H-844.1z"/>
			<path id="XMLID_3150_" class="st6" d="M-937.7,2423.2c1,0,1.7-0.8,1.7-1.7c0-1-0.8-1.7-1.7-1.7c-0.8,0-1.4,0.5-1.6,1.2h-61
				l-5.2,5.2l0.8,0.8l4.9-4.9h60.6C-939.1,2422.8-938.5,2423.2-937.7,2423.2z"/>
			<path id="XMLID_3151_" class="st6" d="M-847.6,2706.4c1,0,1.7-0.8,1.7-1.7c0-0.3-0.1-0.5-0.2-0.8l25.9-25.9h44.9l42.5-42.5h17
				c0.2,0.7,0.9,1.2,1.6,1.2c1,0,1.7-0.8,1.7-1.7c0-1-0.8-1.7-1.7-1.7c-0.8,0-1.4,0.5-1.6,1.2h-17.5l-42.5,42.5h-44.9l-26.1,26.1
				c-0.2-0.1-0.5-0.2-0.8-0.2c-1,0-1.7,0.8-1.7,1.7C-849.3,2705.6-848.6,2706.4-847.6,2706.4z"/>
			<path id="XMLID_3152_" class="st6" d="M-777.7,2666.7c-1.3,0-2.3,1-2.3,2.3s1,2.3,2.3,2.3s2.3-1,2.3-2.3c0-0.4-0.1-0.8-0.3-1.2
				l36.8-36.8c0.3,0.2,0.7,0.3,1.2,0.3c1.3,0,2.3-1,2.3-2.3s-1-2.3-2.3-2.3s-2.3,1-2.3,2.3c0,0.4,0.1,0.8,0.3,1.2l-36.8,36.9
				C-776.9,2666.9-777.3,2666.7-777.7,2666.7z M-777.7,2670.2c-0.6,0-1.2-0.5-1.2-1.2s0.5-1.2,1.2-1.2c0.6,0,1.2,0.5,1.2,1.2
				S-777,2670.2-777.7,2670.2z M-737.7,2627.9c0.6,0,1.2,0.5,1.2,1.2c0,0.6-0.5,1.2-1.2,1.2c-0.6,0-1.2-0.5-1.2-1.2
				C-738.9,2628.4-738.3,2627.9-737.7,2627.9z"/>
			<path id="XMLID_3156_" class="st6" d="M-741.4,2684.3c-1,0-1.7,0.8-1.7,1.7c0,1,0.8,1.7,1.7,1.7c1,0,1.7-0.8,1.7-1.7
				c0-0.3-0.1-0.5-0.2-0.8l20.3-20.3c0.2,0.1,0.5,0.2,0.8,0.2c1,0,1.7-0.8,1.7-1.7c0-1-0.8-1.7-1.7-1.7c-1,0-1.7,0.8-1.7,1.7
				c0,0.3,0.1,0.5,0.2,0.8l-20.3,20.3C-740.8,2684.4-741.1,2684.3-741.4,2684.3z"/>
			<path id="XMLID_3157_" class="st6" d="M-717.1,2700.9h-25c-0.2-0.7-0.9-1.2-1.6-1.2c-1,0-1.7,0.8-1.7,1.7c0,1,0.8,1.7,1.7,1.7
				c0.8,0,1.4-0.5,1.6-1.2h25.5l22.3-22.3v-43.2c0.7-0.2,1.2-0.9,1.2-1.6c0-1-0.8-1.7-1.7-1.7s-1.7,0.8-1.7,1.7
				c0,0.8,0.5,1.4,1.2,1.6v42.7L-717.1,2700.9z"/>
			<path id="XMLID_3158_" class="st6" d="M-715.2,2705.6h-26.9c-0.2-0.7-0.9-1.2-1.6-1.2c-1,0-1.7,0.8-1.7,1.7c0,1,0.8,1.7,1.7,1.7
				c0.8,0,1.4-0.5,1.6-1.2h27.4l25-25v-49.8c0.7-0.2,1.2-0.9,1.2-1.6c0-1-0.8-1.7-1.7-1.7c-1,0-1.7,0.8-1.7,1.7
				c0,0.8,0.5,1.4,1.2,1.6v49.3L-715.2,2705.6z"/>
			<path id="XMLID_3159_" class="st6" d="M-728.9,2644.9h13.2c0.2,0.7,0.9,1.2,1.6,1.2c1,0,1.7-0.8,1.7-1.7c0-0.9-0.8-1.7-1.7-1.7
				c-0.8,0-1.4,0.5-1.6,1.2h-13.7l-42.5,42.5h-44.9l-7.6,7.6c-0.2-0.1-0.5-0.2-0.8-0.2c-1,0-1.7,0.8-1.7,1.7c0,1,0.8,1.7,1.7,1.7
				c0.9,0,1.7-0.8,1.7-1.7c0-0.3-0.1-0.5-0.2-0.7l7.2-7.2h44.9L-728.9,2644.9z"/>
			<path id="XMLID_3160_" class="st6" d="M-773.3,2682.7l42.5-42.5h26.8c0.2,0.7,0.9,1.2,1.6,1.2c1,0,1.7-0.8,1.7-1.7
				c0-0.9-0.8-1.7-1.7-1.7c-0.8,0-1.4,0.5-1.6,1.2h-27.2l-42.5,42.5h-44.9l-16.9,16.9c-0.2-0.1-0.5-0.2-0.8-0.2
				c-1,0-1.7,0.8-1.7,1.7c0,1,0.8,1.7,1.7,1.7c1,0,1.7-0.8,1.7-1.7c0-0.3-0.1-0.5-0.2-0.7l16.5-16.5h45V2682.7z"/>
			<path id="XMLID_3161_" class="st6" d="M-783.4,2715.4c0,1,0.8,1.7,1.7,1.7c1,0,1.7-0.8,1.7-1.7c0-0.8-0.5-1.4-1.2-1.6v-17.1
				h-30.6l-12.5,12.5c-0.2-0.1-0.5-0.2-0.8-0.2c-1,0-1.7,0.8-1.7,1.7c0,1,0.8,1.7,1.7,1.7c1,0,1.7-0.8,1.7-1.7
				c0-0.3-0.1-0.5-0.2-0.7l12.1-12.1h29v15.9C-782.9,2714-783.4,2714.7-783.4,2715.4z"/>
			<path id="XMLID_3162_" class="st6" d="M-886.2,2690.9v-16.1l14.2-14.2h85.8l44.5-44.5h23v-1.2h-23.4l-44.5,44.5h-85.8l-14.9,14.9
				v16.6c-0.7,0.2-1.2,0.9-1.2,1.6c0,1,0.8,1.7,1.7,1.7c1,0,1.7-0.8,1.7-1.7C-885,2691.8-885.5,2691.1-886.2,2690.9z"/>
			<path id="XMLID_3163_" class="st6" d="M-870,2665.2h85.8l44.5-44.5h21v-1.2h-21.5l-44.5,44.5h-85.8l-9.4,9.4
				c-0.2-0.1-0.5-0.2-0.7-0.2c-1,0-1.7,0.8-1.7,1.7c0,1,0.8,1.7,1.7,1.7c1,0,1.7-0.8,1.7-1.7c0-0.3-0.1-0.5-0.2-0.8L-870,2665.2z"/>
			<path id="XMLID_3164_" class="st6" d="M-890.8,2692.4v-19.5l17-17h85.8l44.5-44.5h24.9v-1.2H-744l-44.5,44.5h-85.8l-17.7,17.6v20
				c-0.7,0.2-1.2,0.9-1.2,1.6c0,1,0.8,1.7,1.7,1.7c1,0,1.7-0.8,1.7-1.7C-889.7,2693.3-890.2,2692.6-890.8,2692.4z"/>
			<path id="XMLID_3165_" class="st6" d="M-754.4,2690.5c0-1.3-1-2.3-2.3-2.3s-2.3,1-2.3,2.3c0,1.1,0.7,2,1.7,2.2v15.6
				c-1,0.3-1.7,1.2-1.7,2.2c0,1.3,1,2.3,2.3,2.3s2.3-1,2.3-2.3c0-1.1-0.7-2-1.7-2.2v-15.6C-755.1,2692.5-754.4,2691.6-754.4,2690.5z
				 M-755.5,2710.5c0,0.6-0.5,1.2-1.2,1.2c-0.6,0-1.2-0.5-1.2-1.2c0-0.6,0.5-1.2,1.2-1.2C-756.1,2709.4-755.5,2709.9-755.5,2710.5z
				 M-756.7,2691.7c-0.6,0-1.2-0.5-1.2-1.2c0-0.6,0.5-1.2,1.2-1.2c0.6,0,1.2,0.5,1.2,1.2C-755.5,2691.1-756.1,2691.7-756.7,2691.7z"
				/>
			<path id="XMLID_3169_" class="st6" d="M-895.5,2690.9v-20l19.7-19.7h85.8l44.5-44.5h26.8v-1.2H-746l-44.5,44.5h-85.8l-20.4,20.4
				v20.5c-0.4,0.1-0.7,0.4-0.9,0.7c0,0,0,0,0,0.1l0,0c-0.2,0.3-0.3,0.6-0.3,0.9c0,1,0.8,1.7,1.7,1.7c0.8,0,1.4-0.5,1.7-1.2l0,0v-0.1
				c0-0.1,0-0.1,0-0.2c0-0.1,0.1-0.2,0.1-0.3C-894.3,2691.8-894.8,2691.1-895.5,2690.9z"/>
			<path id="XMLID_3170_" class="st6" d="M-838.9,2709.7c1,0,1.7-0.8,1.7-1.7c0-1-0.8-1.7-1.7-1.7c-0.9,0-1.7,0.8-1.7,1.7
				c0,0.3,0.1,0.5,0.2,0.7l-5.2,5.2c-0.2-0.1-0.5-0.2-0.7-0.2c-1,0-1.7,0.8-1.7,1.7c0,1,0.8,1.7,1.7,1.7c1,0,1.7-0.8,1.7-1.7
				c0-0.3-0.1-0.5-0.2-0.7l5.2-5.2C-839.4,2709.6-839.1,2709.7-838.9,2709.7z"/>
			<path id="XMLID_3171_" class="st6" d="M-788,2715.4c0,1,0.8,1.7,1.7,1.7c1,0,1.7-0.8,1.7-1.7c0-0.8-0.5-1.4-1.2-1.6v-12.4h-24
				l-3.1,3.1c-0.2-0.1-0.5-0.2-0.8-0.2c-1,0-1.7,0.8-1.7,1.7c0,1,0.8,1.7,1.7,1.7c1,0,1.7-0.8,1.7-1.7c0-0.3-0.1-0.5-0.2-0.7
				l2.8-2.8h22.4v11.2C-787.5,2714-788,2714.7-788,2715.4z"/>
			<path id="XMLID_3172_" class="st6" d="M-743.7,2712.6c0.8,0,1.4-0.5,1.6-1.2h29.3l27.7-27.7v-55.8h26.7c0.2,0.7,0.9,1.2,1.6,1.2
				c1,0,1.7-0.8,1.7-1.7c0-0.9-0.8-1.7-1.7-1.7c-0.8,0-1.4,0.5-1.6,1.2h-27.9v56.5l-27.1,27.1h-28.8c-0.2-0.7-0.9-1.2-1.6-1.2
				c-1,0-1.7,0.8-1.7,1.7C-745.5,2711.8-744.7,2712.6-743.7,2712.6z"/>
			<path id="XMLID_3173_" class="st6" d="M-778.7,2715.4c0,1,0.8,1.7,1.7,1.7c1,0,1.7-0.8,1.7-1.7c0-0.8-0.5-1.4-1.2-1.6v-21.7
				h-37.2l-21.8,21.8c-0.2-0.1-0.5-0.2-0.7-0.2c-1,0-1.7,0.8-1.7,1.7c0,1,0.8,1.7,1.7,1.7c1,0,1.7-0.8,1.7-1.7
				c0-0.3-0.1-0.5-0.2-0.7l21.4-21.4h35.6v20.5C-778.2,2714-778.7,2714.7-778.7,2715.4z"/>
			<path id="XMLID_3174_" class="st6" d="M-704.1,2649.6c0.2,0.7,0.9,1.2,1.6,1.2c1,0,1.7-0.8,1.7-1.7c0-0.9-0.8-1.7-1.7-1.7
				c-0.8,0-1.4,0.5-1.6,1.2h-23.4l-42,42v13.2c-1,0.3-1.7,1.2-1.7,2.2c0,1.3,1,2.3,2.3,2.3c1.3,0,2.3-1,2.3-2.3c0-1.1-0.7-2-1.7-2.2
				v-12.7l41.3-41.3h22.9V2649.6z M-767.7,2705.9c0,0.6-0.5,1.2-1.2,1.2c-0.6,0-1.2-0.5-1.2-1.2c0-0.6,0.5-1.2,1.2-1.2
				C-768.3,2704.7-767.7,2705.2-767.7,2705.9z"/>
			<path id="XMLID_3177_" class="st6" d="M-746.8,2729.9c-0.8,0-1.4,0.5-1.6,1.2h-83.4v67c-0.7,0.2-1.2,0.9-1.2,1.6
				c0,1,0.8,1.7,1.7,1.7c0.9,0,1.7-0.8,1.7-1.7c0-0.8-0.5-1.4-1.2-1.6v-65.9h82.3c0.2,0.7,0.9,1.2,1.6,1.2c1,0,1.7-0.8,1.7-1.7
				C-745,2730.7-745.8,2729.9-746.8,2729.9z"/>
			<path id="XMLID_3178_" class="st6" d="M-637.9,2613.8c-0.7,0-1.4,0.4-1.6,1.1h-43v1.2h43c0.2,0.7,0.9,1.2,1.7,1.2
				c1,0,1.7-0.8,1.7-1.7C-636.1,2614.6-636.9,2613.8-637.9,2613.8z"/>
			<path id="XMLID_3179_" class="st6" d="M-645.5,2618.3c-0.8,0-1.4,0.5-1.7,1.2h-35.4v1.2h35.4c0.3,0.7,0.9,1.1,1.6,1.1
				c1,0,1.7-0.8,1.7-1.7C-643.8,2619.1-644.6,2618.3-645.5,2618.3z"/>
			<path id="XMLID_3180_" class="st6" d="M-731.6,2725.2c-0.8,0-1.4,0.5-1.6,1.2h-103.3v72.1c-0.7,0.2-1.2,0.9-1.2,1.6
				c0,1,0.8,1.7,1.7,1.7s1.7-0.8,1.7-1.7c0-0.8-0.5-1.4-1.2-1.6v-70.9h102.1c0.2,0.7,0.9,1.2,1.6,1.2c1,0,1.7-0.8,1.7-1.7
				C-729.9,2726-730.7,2725.2-731.6,2725.2z"/>
			<path id="XMLID_3181_" class="st6" d="M-634.9,2608.9c-0.8,0-1.5,0.6-1.7,1.3h-45.9v1.2h46c0.3,0.6,0.9,1,1.6,1
				c1,0,1.7-0.8,1.7-1.7C-633.2,2609.7-633.9,2608.9-634.9,2608.9z"/>
			<path id="XMLID_3182_" class="st6" d="M-723.5,2720.6c-0.8,0-1.4,0.5-1.6,1.2h-122.3l-12.1-12.1c0.1-0.2,0.2-0.5,0.2-0.7
				c0-1-0.8-1.7-1.7-1.7c-1,0-1.7,0.8-1.7,1.7c0,1,0.8,1.7,1.7,1.7c0.3,0,0.5-0.1,0.7-0.2l12.5,12.5h122.7c0.2,0.7,0.9,1.2,1.6,1.2
				c1,0,1.7-0.8,1.7-1.7C-721.7,2721.4-722.5,2720.6-723.5,2720.6z"/>
			<path id="XMLID_3183_" class="st6" d="M-654.7,2630.2c-0.8,0-1.4,0.5-1.6,1.2h-25.2v53.7l-29.8,29.8h-30.8
				c-0.2-0.7-0.9-1.2-1.6-1.2c-1,0-1.7,0.8-1.7,1.7c0,1,0.8,1.7,1.7,1.7c0.8,0,1.4-0.5,1.6-1.2h31.3l30.5-30.5v-53h24
				c0.2,0.7,0.9,1.2,1.6,1.2c1,0,1.7-0.8,1.7-1.7C-653,2631-653.7,2630.2-654.7,2630.2z"/>
			<path id="XMLID_3184_" class="st6" d="M-633.3,2604.4c-0.8,0-1.4,0.5-1.7,1.2h-47.6v1.2h47.6c0.3,0.7,0.9,1.1,1.6,1.1
				c1,0,1.7-0.8,1.7-1.7C-631.5,2605.1-632.3,2604.4-633.3,2604.4z"/>
			<path id="XMLID_3185_" class="st6" d="M-630.9,2590.9c-0.8,0-1.4,0.5-1.7,1.2h-36.2l-27.3-27.3v-93.3l-3.3-3.3h-110.8
				c-0.2-0.7-0.9-1.2-1.6-1.2c-1,0-1.7,0.8-1.7,1.7c0,1,0.8,1.7,1.7,1.7c0.8,0,1.4-0.5,1.6-1.2h110.3l2.6,2.6v93.3l28,28h36.7
				c0.3,0.7,0.9,1.1,1.6,1.1c1,0,1.7-0.8,1.7-1.7C-629.2,2591.7-630,2590.9-630.9,2590.9z"/>
			<path id="XMLID_3186_" class="st6" d="M-630.9,2586.1c-0.8,0-1.5,0.6-1.7,1.4h-34.2l-24.6-24.6v-93.3l-6.1-6.1h-77.7
				c-0.2-0.7-0.9-1.2-1.6-1.2c-1,0-1.7,0.8-1.7,1.7c0,1,0.8,1.7,1.7,1.7c0.8,0,1.4-0.5,1.6-1.2h77.2l5.4,5.4v93.3l25.3,25.3h34.8
				c0.3,0.6,0.9,1,1.6,1c1,0,1.7-0.8,1.7-1.7C-629.2,2586.9-630,2586.1-630.9,2586.1z"/>
			<path id="XMLID_3187_" class="st6" d="M-632.3,2599.9c-0.7,0-1.3,0.4-1.6,1h-48.6v1.2h48.5c0.2,0.8,0.9,1.3,1.7,1.3
				c1,0,1.7-0.8,1.7-1.7C-630.6,2600.8-631.3,2599.9-632.3,2599.9z"/>
			<path id="XMLID_3188_" class="st6" d="M-766.1,2734.3c-0.8,0-1.4,0.5-1.6,1.2h-16.8l-7.1,7.1v54.2c-0.7,0.2-1.2,0.9-1.2,1.6
				c0,1,0.8,1.7,1.7,1.7c0.9,0,1.7-0.8,1.7-1.7c0-0.8-0.5-1.4-1.2-1.6v-53.7l6.4-6.4h16.3c0.2,0.7,0.9,1.2,1.6,1.2
				c1,0,1.7-0.8,1.7-1.7C-764.3,2735.1-765.1,2734.3-766.1,2734.3z"/>
			<path id="XMLID_3189_" class="st6" d="M-865.6,2695.4v-6.9l7.1-7.1h12.9c0.2,0.7,0.9,1.2,1.6,1.2c1,0,1.7-0.8,1.7-1.7
				c0-1-0.8-1.7-1.7-1.7c-0.8,0-1.4,0.5-1.6,1.2H-859l-7.8,7.8v7.4c-0.7,0.2-1.2,0.9-1.2,1.6c0,1,0.8,1.7,1.7,1.7
				c0.9,0,1.7-0.8,1.7-1.7C-864.5,2696.3-865,2695.6-865.6,2695.4z"/>
			<path id="XMLID_3190_" class="st6" d="M-840,2798.5v-63.6l-4.8-4.8c0.1-0.2,0.2-0.5,0.2-0.7c0-1-0.8-1.7-1.7-1.7
				c-1,0-1.7,0.8-1.7,1.7c0,1,0.8,1.7,1.7,1.7c0.3,0,0.5-0.1,0.8-0.2l4.5,4.5v63.1c-0.7,0.2-1.2,0.9-1.2,1.6c0,1,0.8,1.7,1.7,1.7
				s1.7-0.8,1.7-1.7C-838.9,2799.4-839.4,2798.7-840,2798.5z"/>
			<path id="XMLID_3191_" class="st6" d="M-870.3,2695v-8.4l9.9-9.9h10.2c0.2,0.7,0.9,1.2,1.6,1.2c1,0,1.7-0.8,1.7-1.7
				c0-1-0.8-1.7-1.7-1.7c-0.8,0-1.4,0.5-1.6,1.2h-10.7l-10.6,10.4v8.9c-0.7,0.2-1.2,0.9-1.2,1.6c0,1,0.8,1.7,1.7,1.7
				c1,0,1.7-0.8,1.7-1.7C-869.1,2695.8-869.6,2695.2-870.3,2695z"/>
			<path id="XMLID_3192_" class="st6" d="M-809.9,2748.8c0-1-0.8-1.7-1.7-1.7c-1,0-1.7,0.8-1.7,1.7c0,0.8,0.5,1.4,1.2,1.6v47.7
				c-0.7,0.2-1.2,0.9-1.2,1.6c0,1,0.8,1.7,1.7,1.7c1,0,1.7-0.8,1.7-1.7c0-0.8-0.5-1.4-1.2-1.6v-47.7
				C-810.4,2750.2-809.9,2749.5-809.9,2748.8z"/>
			<path id="XMLID_3193_" class="st6" d="M-794.6,2801.2v-67h-31.6v63.9c-0.7,0.2-1.2,0.9-1.2,1.6c0,1,0.8,1.7,1.7,1.7
				c1,0,1.7-0.8,1.7-1.7c0-0.8-0.5-1.4-1.2-1.6v-62.8h29.2v65.9c-0.7,0.2-1.2,0.9-1.2,1.6c0,1,0.8,1.7,1.7,1.7c1,0,1.7-0.8,1.7-1.7
				C-793.4,2802.1-793.9,2801.5-794.6,2801.2z"/>
			<path id="XMLID_3194_" class="st6" d="M-740.1,2560.3l29.7,29.7c-0.1,0.2-0.2,0.5-0.2,0.7c0,1,0.8,1.7,1.7,1.7
				c1,0,1.7-0.8,1.7-1.7s-0.8-1.7-1.7-1.7c-0.3,0-0.5,0.1-0.8,0.2l-29.3-29.3v-75.8h28.4c0.2,0.7,0.9,1.2,1.6,1.2
				c1,0,1.7-0.8,1.7-1.7c0-1-0.8-1.7-1.7-1.7c-0.8,0-1.4,0.5-1.6,1.2h-29.6L-740.1,2560.3L-740.1,2560.3z"/>
			<path id="XMLID_3195_" class="st6" d="M-803.9,2799.6v-56.1h-12.9v54.6c-0.7,0.2-1.2,0.9-1.2,1.6c0,1,0.8,1.7,1.7,1.7
				c1,0,1.7-0.8,1.7-1.7c0-0.8-0.5-1.4-1.2-1.6v-53.4h10.6v54.9c-0.7,0.2-1.2,0.9-1.2,1.6c0,1,0.8,1.7,1.7,1.7c1,0,1.7-0.8,1.7-1.7
				C-802.8,2800.5-803.3,2799.9-803.9,2799.6z"/>
			<path id="XMLID_3196_" class="st6" d="M-875,2694.8v-10.1l12.6-12.6h63.4c0.2,0.7,0.9,1.2,1.6,1.2c1,0,1.7-0.8,1.7-1.7
				c0-1-0.8-1.7-1.7-1.7c-0.8,0-1.4,0.5-1.6,1.2h-63.9l-13.3,13.3v10.6c-0.7,0.2-1.1,0.9-1.1,1.6c0,1,0.8,1.7,1.7,1.7
				c1,0,1.7-0.8,1.7-1.7C-873.8,2695.6-874.3,2695-875,2694.8z"/>
			<path id="XMLID_3197_" class="st6" d="M-799.3,2799.9v-61h-22.3v59.2c-0.7,0.2-1.2,0.9-1.2,1.6c0,1,0.8,1.7,1.7,1.7
				c1,0,1.7-0.8,1.7-1.7c0-0.8-0.5-1.4-1.2-1.6V2740h19.9v59.8c-0.7,0.2-1.2,0.9-1.2,1.6c0,1,0.8,1.7,1.7,1.7c1,0,1.7-0.8,1.7-1.7
				C-798.1,2800.8-798.6,2800.1-799.3,2799.9z"/>
			<path id="XMLID_3198_" class="st6" d="M-734.8,2684.3c-1,0-1.7,0.8-1.7,1.7c0,1,0.8,1.7,1.7,1.7c1,0,1.7-0.8,1.7-1.7
				c0-0.3-0.1-0.5-0.2-0.8l12-12c0.2,0.1,0.5,0.2,0.7,0.2c1,0,1.7-0.8,1.7-1.7c0-1-0.8-1.7-1.7-1.7c-1,0-1.7,0.8-1.7,1.7
				c0,0.3,0.1,0.5,0.2,0.8l-12,12C-734.3,2684.4-734.5,2684.3-734.8,2684.3z"/>
			<path id="XMLID_3199_" class="st6" d="M-831.5,2414.5c1,0,1.7-0.8,1.7-1.7c0-1-0.8-1.7-1.7-1.7c-0.8,0-1.4,0.5-1.6,1.2h-27.1
				l-14,14h-18c-0.2-0.7-0.9-1.2-1.6-1.2c-1,0-1.7,0.8-1.7,1.7c0,1,0.8,1.7,1.7,1.7c0.8,0,1.4-0.5,1.6-1.2h18.5l14-14h26.6
				C-832.9,2414-832.3,2414.5-831.5,2414.5z"/>
			<path id="XMLID_3200_" class="st6" d="M-903.3,2419.2c0.8,0,1.4-0.5,1.6-1.2h24l14-14h44.5c0.2,0.7,0.9,1.2,1.6,1.2
				c1,0,1.7-0.8,1.7-1.7c0-1-0.8-1.7-1.7-1.7c-0.8,0-1.4,0.5-1.6,1.2h-44.9l-14,14h-23.5c-0.2-0.7-0.9-1.2-1.6-1.2
				c-1,0-1.7,0.8-1.7,1.7C-905,2418.4-904.2,2419.2-903.3,2419.2z"/>
			<path id="XMLID_3201_" class="st6" d="M-942.5,2418.5c0.8,0,1.4-0.5,1.6-1.2h25.2l23.3,23.3h44.4l27.8-27.5h21.6
				c0.3,0.4,0.8,0.6,1.3,0.6c1,0,1.7-0.8,1.7-1.7c0-1-0.8-1.7-1.7-1.7c-1,0-1.7,0.8-1.7,1.7h-21.6l-27.6,27.6h-43.6l-23.3-23.4
				h-25.7c-0.2-0.7-0.9-1.2-1.6-1.2c-1,0-1.7,0.8-1.7,1.7C-944.2,2417.7-943.4,2418.5-942.5,2418.5z"/>
			<path id="XMLID_3202_" class="st6" d="M-842.5,2421.5h-13.9l-14,14H-883c-0.2-0.7-0.9-1.2-1.6-1.2c-1,0-1.7,0.8-1.7,1.7
				c0,1,0.8,1.7,1.7,1.7c0.8,0,1.4-0.5,1.6-1.2h13l14-14h13.4c0.2,0.7,0.9,1.2,1.6,1.2c1,0,1.7-0.8,1.7-1.7c0-1-0.8-1.7-1.7-1.7
				C-841.6,2420.3-842.2,2420.8-842.5,2421.5z"/>
			<path id="XMLID_3203_" class="st6" d="M-836.2,2419.1c1,0,1.7-0.8,1.7-1.7c0-1-0.8-1.7-1.7-1.7c-0.8,0-1.4,0.5-1.6,1.2h-20.5
				l-14,14h-15.3c-0.2-0.7-0.9-1.2-1.6-1.2c-1,0-1.7,0.8-1.7,1.7c0,1,0.8,1.7,1.7,1.7c0.8,0,1.4-0.5,1.6-1.2h15.8l14-14h20
				C-837.6,2418.7-836.9,2419.1-836.2,2419.1z"/>
			<path id="XMLID_3204_" class="st6" d="M-1067.3,2490.8c1,0,1.7-0.8,1.7-1.7c0-0.3-0.1-0.5-0.2-0.7l25.4-25.4l-0.1-7l6.7-6.7
				l-0.8-0.8l-7,7l0.1,7l-25.1,25.1c-0.2-0.1-0.5-0.2-0.7-0.2c-1,0-1.7,0.8-1.7,1.7C-1069,2490-1068.2,2490.8-1067.3,2490.8z"/>
			<path id="XMLID_3205_" class="st6" d="M-1071.5,2501.2L-1071.5,2501.2l6.1,6h41.5v-23.4l14.3-14.3h79.7c0.2,0.7,0.9,1.2,1.6,1.2
				c1,0,1.7-0.8,1.7-1.7c0-1-0.8-1.7-1.7-1.7c-0.8,0-1.4,0.5-1.6,1.2h-80.2l-15,15v22.7h-39.9l-5.3-5.3c0.3-0.3,0.5-0.8,0.5-1.2
				c0-1-0.8-1.7-1.7-1.7c-1,0-1.7,0.8-1.7,1.7C-1073.3,2500.4-1072.5,2501.2-1071.5,2501.2z"/>
			<path id="XMLID_3206_" class="st6" d="M-1069.4,2496.7C-1069.4,2496.7-1069.3,2496.7-1069.4,2496.7l5.9,5.8h34.9v-20.6l17-17
				h53.7c0.2,0.7,0.9,1.2,1.6,1.2c1,0,1.7-0.8,1.7-1.7c0-1-0.8-1.7-1.7-1.7c-0.8,0-1.4,0.5-1.6,1.2h-54.2l-17.7,17.7v20h-33.2
				l-5.1-5.1c0.3-0.3,0.5-0.8,0.5-1.2c0-1-0.8-1.7-1.7-1.7c-1,0-1.7,0.8-1.7,1.7C-1071,2496.2-1070.4,2496.7-1069.4,2496.7z"/>
			<path id="XMLID_3207_" class="st6" d="M-876.2,2421.5H-897c-0.2-0.7-0.9-1.2-1.6-1.2c-1,0-1.7,0.8-1.7,1.7c0,1,0.8,1.7,1.7,1.7
				c0.8,0,1.4-0.5,1.6-1.2h21.2l14-14h48.4c0.2,0.7,0.9,1.2,1.6,1.2c1,0,1.7-0.8,1.7-1.7c0-1-0.8-1.7-1.7-1.7
				c-0.8,0-1.4,0.5-1.6,1.2h-48.8L-876.2,2421.5z"/>
			<path id="XMLID_3208_" class="st6" d="M-1001.8,2417.4h50.8c0.2,0.7,0.9,1.2,1.6,1.2c1,0,1.7-0.8,1.7-1.7c0-1-0.8-1.7-1.7-1.7
				c-0.8,0-1.4,0.5-1.6,1.2h-51.3l-6.6,6.6l0.8,0.8L-1001.8,2417.4z"/>
			<path id="XMLID_3209_" class="st6" d="M-846.4,2444.2h-47.3l-23.4-23.4h-12.1c-0.2-0.7-0.9-1.2-1.6-1.2c-1,0-1.7,0.8-1.7,1.7
				c0,1,0.8,1.7,1.7,1.7c0.8,0,1.4-0.5,1.6-1.2h11.6l23.3,23.3h48.3l27.6-27.6h25.5c0.3,0.4,0.8,0.6,1.3,0.6c1,0,1.7-0.8,1.7-1.7
				c0-1-0.8-1.7-1.7-1.7c-1,0-1.7,0.8-1.7,1.7h-25.5L-846.4,2444.2z"/>
			<path id="XMLID_3210_" class="st6" d="M-1073.5,2505.8L-1073.5,2505.8l6.1,6h48.1v-26.1l11.5-11.5h77.8c0.2,0.7,0.9,1.2,1.6,1.2
				c1,0,1.7-0.8,1.7-1.7c0-1-0.8-1.7-1.7-1.7c-0.8,0-1.4,0.5-1.6,1.2h-78.3l-12.2,12.2v25.4h-46.5l-5.4-5.4c0.3-0.3,0.5-0.8,0.5-1.2
				c0-1-0.8-1.7-1.7-1.7c-1,0-1.7,0.8-1.7,1.7C-1075.3,2505-1074.5,2505.8-1073.5,2505.8z"/>
			<path id="XMLID_3211_" class="st6" d="M-774.2,2436.4c0,1,0.8,1.7,1.7,1.7c1,0,1.7-0.8,1.7-1.7c0-1-0.8-1.7-1.7-1.7
				c-0.5,0-1,0.2-1.3,0.6h-37.3l-27.6,27.6h-62.7l-23.4-23.4h-4.4c-0.2-0.7-0.9-1.2-1.6-1.2c-1,0-1.7,0.8-1.7,1.7
				c0,1,0.8,1.7,1.7,1.7c0.8,0,1.4-0.5,1.6-1.2h3.9l23.3,23.3h63.7l27.6-27.6h36.5V2436.4z"/>
			<path id="XMLID_3212_" class="st6" d="M-776.8,2453.1c-1,0-1.7,0.8-1.7,1.7c0,1,0.8,1.7,1.7,1.7c0.8,0,1.4-0.5,1.6-1.2h39.6
				c0.2,0.7,0.9,1.2,1.6,1.2c1,0,1.7-0.8,1.7-1.7c0-1-0.8-1.7-1.7-1.7c-0.8,0-1.4,0.5-1.6,1.2h-39.6
				C-775.4,2453.6-776.1,2453.1-776.8,2453.1z"/>
			<path id="XMLID_3213_" class="st6" d="M-994.1,2436.1h43.1c0.2,0.7,0.9,1.2,1.6,1.2c1,0,1.7-0.8,1.7-1.7c0-1-0.8-1.7-1.7-1.7
				c-0.8,0-1.4,0.5-1.6,1.2h-43.6l-1.1,1.1l0.8,0.8L-994.1,2436.1z"/>
			<path id="XMLID_3214_" class="st6" d="M-826.3,2465.8c-1.3,0-2.3,1-2.3,2.3c0,0.4,0.1,0.8,0.3,1.2l-4.8,4.8h-68.5l-4.6-4.6
				c0.2-0.3,0.3-0.7,0.3-1.2c0-1.3-1-2.3-2.3-2.3s-2.3,1-2.3,2.3s1,2.3,2.3,2.3c0.4,0,0.8-0.1,1.2-0.3l4.9,4.9h69.5l5.2-5.2
				c0.3,0.2,0.7,0.3,1.2,0.3c1.3,0,2.3-1,2.3-2.3S-825,2465.8-826.3,2465.8z M-908.2,2469.5c-0.6,0-1.2-0.5-1.2-1.2
				c0-0.6,0.5-1.2,1.2-1.2c0.6,0,1.2,0.5,1.2,1.2C-907.1,2469-907.6,2469.5-908.2,2469.5z M-826.3,2469.3c-0.6,0-1.2-0.5-1.2-1.2
				c0-0.7,0.5-1.2,1.2-1.2c0.6,0,1.2,0.5,1.2,1.2C-825.1,2468.8-825.6,2469.3-826.3,2469.3z"/>
			<path id="XMLID_3218_" class="st6" d="M-739.8,2448.4c-0.8,0-1.4,0.5-1.6,1.2h-68.7c-0.2-0.7-0.9-1.2-1.6-1.2
				c-1,0-1.7,0.8-1.7,1.7c0,1,0.8,1.7,1.7,1.7c0.8,0,1.4-0.5,1.6-1.2h68.7c0.2,0.7,0.9,1.2,1.6,1.2c1,0,1.7-0.8,1.7-1.7
				C-738.1,2449.2-738.8,2448.4-739.8,2448.4z"/>
			<path id="XMLID_3219_" class="st6" d="M-746.5,2443.6c-0.8,0-1.5,0.6-1.7,1.3h-27c-0.2-0.7-0.9-1.2-1.6-1.2c-1,0-1.7,0.8-1.7,1.7
				c0,1,0.8,1.7,1.7,1.7c0.8,0,1.4-0.5,1.6-1.2h27.1c0.3,0.6,0.9,1,1.6,1c1,0,1.7-0.8,1.7-1.7
				C-744.8,2444.4-745.5,2443.6-746.5,2443.6z"/>
			<path id="XMLID_3220_" class="st6" d="M-785.5,2416.6c0.3,0,0.5-0.1,0.8-0.2l17.5,17.5h16.8l22.8,22.8h26.2
				c0.2,0.7,0.9,1.2,1.6,1.2c1,0,1.7-0.8,1.7-1.7c0-1-0.8-1.7-1.7-1.7c-0.8,0-1.4,0.5-1.6,1.2h-25.7l-22.9-22.9h-16.8l-17.2-17.2
				c0.1-0.2,0.2-0.5,0.2-0.7c0-1-0.8-1.7-1.7-1.7s-1.7,0.8-1.7,1.7C-787.3,2415.8-786.5,2416.6-785.5,2416.6z"/>
			<path id="XMLID_3221_" class="st6" d="M-776.3,2419.2c0.3,0,0.5-0.1,0.7-0.2l10.2,10.2h16.8l22.8,22.9h19.6
				c0.2,0.7,0.9,1.2,1.6,1.2c1,0,1.7-0.8,1.7-1.7c0-1-0.8-1.7-1.7-1.7c-0.8,0-1.4,0.5-1.6,1.2h-19.1l-22.8-23h-16.8l-9.9-9.9
				c0.1-0.2,0.2-0.5,0.2-0.7c0-1-0.8-1.7-1.7-1.7c-1,0-1.7,0.8-1.7,1.7S-777.3,2419.2-776.3,2419.2z"/>
			<path id="XMLID_3222_" class="st6" d="M-737.5,2434.4c0.3,0,0.5-0.1,0.8-0.2l12,12h12c0.2,0.7,0.9,1.2,1.6,1.2
				c1,0,1.7-0.8,1.7-1.7c0-1-0.8-1.7-1.7-1.7c-0.8,0-1.4,0.5-1.6,1.2h-11.5l-11.6-11.6c0.1-0.2,0.2-0.5,0.2-0.7c0-1-0.8-1.7-1.7-1.7
				c-1,0-1.7,0.8-1.7,1.7C-739.2,2433.6-738.4,2434.4-737.5,2434.4z"/>
			<path id="XMLID_3223_" class="st6" d="M-889.2,2645c0.2,0.1,0.5,0.2,0.7,0.2c1,0,1.7-0.8,1.7-1.7c0-1-0.8-1.7-1.7-1.7
				c-1,0-1.7,0.8-1.7,1.7c0,0.3,0.1,0.5,0.2,0.8l-14.5,14.5c-0.2-0.1-0.5-0.2-0.7-0.2c-1,0-1.7,0.8-1.7,1.7c0,0.9,0.8,1.7,1.7,1.7
				c1,0,1.7-0.8,1.7-1.7c0-0.3-0.1-0.5-0.2-0.8L-889.2,2645z"/>
			<path id="XMLID_3224_" class="st6" d="M-743.3,2566.5c0-1-0.8-1.7-1.7-1.7s-1.7,0.8-1.7,1.7c0,0.8,0.5,1.4,1.2,1.6v9.1l16.7,16.7
				h8.6c0.2,0.7,0.9,1.2,1.6,1.2c1,0,1.7-0.8,1.7-1.7c0-1-0.8-1.7-1.7-1.7c-0.8,0-1.4,0.5-1.6,1.2h-8.1l-16-16v-8.6
				C-743.8,2567.9-743.3,2567.3-743.3,2566.5z"/>
			<path id="XMLID_3225_" class="st6" d="M-900.2,2689.5v-20.6l22.4-22.4h85.8l44.5-44.5h28.8v-1.2h-29.2l-44.5,44.5h-85.8
				l-23.1,23.1v20.9c-0.8,0.2-1.3,0.9-1.3,1.7c0,1,0.8,1.7,1.7,1.7c1,0,1.7-0.8,1.7-1.7C-899.1,2690.4-899.6,2689.8-900.2,2689.5z"
				/>
			<path id="XMLID_3226_" class="st6" d="M-917.2,2679.9v-27l19.9-19.9h29.9v-1.2h-30.4l-20.6,20.6v27.4c-0.7,0.2-1.2,0.9-1.2,1.6
				c0,1,0.8,1.7,1.7,1.7c1,0,1.7-0.8,1.7-1.7C-916,2680.7-916.5,2680.1-917.2,2679.9z"/>
			<path id="XMLID_3227_" class="st6" d="M-912.5,2682.7v-27.9l17.1-17.1h28v-1.2h-28.5l-17.8,17.8v28.3c-0.8,0.2-1.3,0.9-1.3,1.7
				c0,1,0.8,1.7,1.7,1.7c0.9,0,1.7-0.8,1.7-1.7C-911.5,2683.6-911.9,2683-912.5,2682.7z"/>
			<path id="XMLID_3228_" class="st6" d="M-718.6,2498.1c0.2,0.7,0.9,1.2,1.6,1.2c1,0,1.7-0.8,1.7-1.7c0-1-0.8-1.7-1.7-1.7
				c-0.8,0-1.4,0.5-1.6,1.2h-7.4v57.5l10.5,10.5c-0.1,0.2-0.2,0.5-0.2,0.7c0,1,0.8,1.7,1.7,1.7c1,0,1.7-0.8,1.7-1.7
				c0-1-0.8-1.7-1.7-1.7c-0.3,0-0.5,0.1-0.7,0.2l-10.1-10.1v-56.1H-718.6z"/>
			<path id="XMLID_3229_" class="st6" d="M-709.8,2472.6c-1,0-1.7,0.8-1.7,1.7c0,1,0.8,1.7,1.7,1.7c0.3,0,0.5-0.1,0.8-0.2l6,6.3
				v53.3c-0.7,0.2-1.2,0.9-1.2,1.6c0,1,0.8,1.7,1.7,1.7c1,0,1.7-0.8,1.7-1.7c0-0.8-0.5-1.4-1.2-1.6v-53.8l-6.5-6.5
				c0.1-0.2,0.2-0.5,0.2-0.7C-708.1,2473.4-708.9,2472.6-709.8,2472.6z"/>
			<path id="XMLID_3230_" class="st6" d="M-713.5,2581.2c1,0,1.7-0.8,1.7-1.7s-0.8-1.7-1.7-1.7c-0.3,0-0.5,0.1-0.7,0.2l-20-20v-69.2
				h15.6c0.2,0.7,0.9,1.2,1.6,1.2c1,0,1.7-0.8,1.7-1.7c0-1-0.8-1.7-1.7-1.7c-0.8,0-1.4,0.5-1.6,1.2h-16.8v70.7l20.3,20.3
				c-0.1,0.2-0.2,0.5-0.2,0.7C-715.2,2580.4-714.5,2581.2-713.5,2581.2z"/>
			<path id="XMLID_3231_" class="st6" d="M-713.3,2571.3c-0.3,0-0.5,0.1-0.7,0.2l-15.5-15.5v-62.5h19.1c0.2,0.7,0.9,1.2,1.6,1.2
				c1,0,1.7-0.8,1.7-1.7c0-1-0.8-1.7-1.7-1.7c-0.8,0-1.4,0.5-1.6,1.2h-20.3v64.1l15.9,15.9c-0.1,0.2-0.2,0.5-0.2,0.7
				c0,1,0.8,1.7,1.7,1.7c1,0,1.7-0.8,1.7-1.7C-711.5,2572.1-712.3,2571.3-713.3,2571.3z"/>
			<path id="XMLID_3232_" class="st6" d="M-693.6,2577c0-1.3-1-2.3-2.3-2.3c-1.3,0-2.3,1-2.3,2.3c0,1.1,0.7,2,1.7,2.2v14.7h10.4
				c0.3,1,1.2,1.7,2.2,1.7c1.3,0,2.3-1,2.3-2.3c0-1.3-1-2.3-2.3-2.3c-1.1,0-2,0.7-2.2,1.7h-9.3v-13.5
				C-694.4,2579-693.6,2578.1-693.6,2577z M-683.8,2592.2c0.6,0,1.2,0.5,1.2,1.2c0,0.6-0.5,1.2-1.2,1.2c-0.6,0-1.2-0.5-1.2-1.2
				C-685,2592.7-684.5,2592.2-683.8,2592.2z M-695.9,2578.2c-0.6,0-1.2-0.5-1.2-1.2c0-0.6,0.5-1.2,1.2-1.2c0.7,0,1.2,0.5,1.2,1.2
				C-694.8,2577.7-695.3,2578.2-695.9,2578.2z"/>
			<path id="XMLID_3236_" class="st6" d="M-1075.3,2510.6C-1075.3,2510.6-1075.3,2510.5-1075.3,2510.6l6,5.9h54.7v-28.8l8.8-8.8
				h47.9c0.2,0.7,0.9,1.2,1.6,1.2c1,0,1.7-0.8,1.7-1.7c0-1-0.8-1.7-1.7-1.7c-0.8,0-1.4,0.5-1.6,1.2h-48.4l-9.5,9.5v28.1h-53.1
				l-5.3-5.3c0.3-0.3,0.5-0.8,0.5-1.2c0-1-0.8-1.7-1.7-1.7c-1,0-1.7,0.8-1.7,1.7C-1077.1,2509.8-1076.3,2510.6-1075.3,2510.6z"/>
			<path id="XMLID_3237_" class="st6" d="M-704.1,2571.3c0,1,0.8,1.7,1.7,1.7c1,0,1.7-0.8,1.7-1.7c0-0.8-0.5-1.4-1.2-1.6v-15.3h-6.4
				l-9.2-9.2v-24.9l7.8-7.8c0.2,0.1,0.5,0.2,0.8,0.2c1,0,1.7-0.8,1.7-1.7c0-1-0.8-1.7-1.7-1.7c-1,0-1.7,0.8-1.7,1.7
				c0,0.3,0.1,0.5,0.2,0.7l-8.1,8.1v25.9l9.8,9.8h5.7v14.1C-703.6,2569.9-704.1,2570.5-704.1,2571.3z"/>
			<path id="XMLID_3238_" class="st6" d="M-1081.4,2538.5c0.7,0,1.3-0.4,1.6-1h2.5l14.6-14.6h23.1c0.2,0.7,0.9,1.2,1.6,1.2
				c1,0,1.7-0.8,1.7-1.7c0-1-0.8-1.7-1.7-1.7c-0.8,0-1.4,0.5-1.6,1.2h-23.6l-14.6,14.6h-1.9c-0.2-0.8-0.9-1.3-1.7-1.3
				c-1,0-1.7,0.8-1.7,1.7C-1083.1,2537.8-1082.4,2538.5-1081.4,2538.5z"/>
			<path id="XMLID_3239_" class="st6" d="M-1081.8,2548c0.7,0,1.4-0.5,1.6-1.1h6.7l14.6-14.6h19.3c0.2,0.7,0.9,1.2,1.6,1.2
				c1,0,1.7-0.8,1.7-1.7c0-1-0.8-1.7-1.7-1.7c-0.8,0-1.4,0.5-1.6,1.2h-19.7l-14.7,14.4h-6.2c-0.2-0.7-0.9-1.2-1.7-1.2
				c-1,0-1.7,0.8-1.7,1.7C-1083.5,2547.2-1082.8,2548-1081.8,2548z"/>
			<path id="XMLID_3240_" class="st6" d="M-1081.6,2543.3c0.7,0,1.4-0.4,1.6-1.1h4.6l14.6-14.6h21.2c0.2,0.7,0.9,1.2,1.6,1.2
				c1,0,1.7-0.8,1.7-1.7c0-1-0.8-1.7-1.7-1.7c-0.8,0-1.4,0.5-1.6,1.2h-21.7l-14.6,14.6h-4.1c-0.2-0.7-0.9-1.2-1.7-1.2
				c-1,0-1.7,0.8-1.7,1.7C-1083.4,2542.5-1082.6,2543.3-1081.6,2543.3z"/>
			<path id="XMLID_3241_" class="st6" d="M-1080.7,2533.8c1,0,1.7-0.8,1.7-1.7l0,0l0,0c0-0.1,0-0.2,0-0.4l0,0c0-0.1-0.1-0.2-0.1-0.3
				c0,0,0,0,0-0.1c0-0.1-0.1-0.2-0.1-0.2l-0.1-0.1c0-0.1-0.1-0.1-0.1-0.2l-0.1-0.1l-0.1-0.1c-0.1,0-0.1-0.1-0.2-0.1
				c0,0-0.1,0-0.1-0.1c-0.1,0-0.1-0.1-0.2-0.1h-0.1c-0.1,0-0.2,0-0.2,0h-0.1l0,0c0,0,0,0-0.1,0c-1,0-1.7,0.8-1.7,1.7
				C-1082.5,2533-1081.7,2533.8-1080.7,2533.8z"/>
			<path id="XMLID_3242_" class="st6" d="M-926.5,2652.8v-3.8l25.3-25.3h33.8v-1.2h-34.3l-26,26v4.2c-0.7,0.2-1.2,0.9-1.2,1.6
				c0,1,0.8,1.7,1.7,1.7c1,0,1.7-0.8,1.7-1.7C-925.4,2653.7-925.9,2653-926.5,2652.8z"/>
			<path id="XMLID_3243_" class="st6" d="M-929.2,2662c-0.3,0-0.5,0.1-0.7,0.2l-13.2-13.2h-17.2l-11.2,11.1h-64.3l-44.8-44.8v-43.7
				c0.7-0.2,1.2-0.9,1.2-1.6c0-1-0.8-1.7-1.7-1.7c-1,0-1.7,0.8-1.7,1.7c0,0.8,0.5,1.4,1.2,1.6v44.2l45.5,45.5h65.1l11.1-11.2h16.2
				l12.9,12.9c-0.1,0.2-0.2,0.5-0.2,0.7c0,1,0.8,1.7,1.7,1.7c1,0,1.7-0.8,1.7-1.7C-927.6,2662.8-928.2,2662-929.2,2662z"/>
			<path id="XMLID_3244_" class="st6" d="M-1081.8,2555.5c0.6,0,1.2-0.4,1.5-0.9h15.5c0.3,1,1.2,1.7,2.2,1.7c1.3,0,2.3-1,2.3-2.3
				s-1-2.3-2.3-2.3c-1.1,0-2,0.7-2.2,1.7h-15.3c-0.1-0.8-0.9-1.5-1.7-1.5c-1,0-1.7,0.8-1.7,1.7
				C-1083.6,2554.8-1082.8,2555.5-1081.8,2555.5z M-1062.5,2552.9c0.6,0,1.2,0.5,1.2,1.2c0,0.6-0.5,1.2-1.2,1.2s-1.2-0.5-1.2-1.2
				C-1063.7,2553.5-1063.2,2552.9-1062.5,2552.9z"/>
			<path id="XMLID_3247_" class="st6" d="M-921.9,2676.8v-25.9l22.6-22.6h31.8v-1.2h-32.2l-23.3,23.4v26.3c-0.7,0.2-1.3,0.9-1.3,1.7
				c0,1,0.8,1.7,1.7,1.7c1,0,1.7-0.8,1.7-1.7C-920.8,2677.7-921.3,2677.1-921.9,2676.8z"/>
			<path id="XMLID_3248_" class="st6" d="M-1080.1,2563h20.1l22.8-22.8h11.1c0.2,0.7,0.9,1.2,1.6,1.2c1,0,1.7-0.8,1.7-1.7
				c0-1-0.8-1.7-1.7-1.7c-0.8,0-1.4,0.5-1.6,1.2h-11.6l-22.8,22.8h-19.5c-0.2-0.8-0.9-1.3-1.7-1.3c-1,0-1.7,0.8-1.7,1.7
				c0,1,0.8,1.7,1.7,1.7C-1081,2564-1080.4,2563.6-1080.1,2563z"/>
			<path id="XMLID_3249_" class="st6" d="M-1030.4,2446.2c0.3,0,0.6-0.1,0.8-0.3l0.7-0.7l1.8,1.8l-0.7,0.7c-0.2,0.2-0.3,0.5-0.3,0.8
				l-1.5,1.5l0,0l1,1l0,0l1.5-1.5c0.3,0,0.6-0.1,0.8-0.3l0.7-0.7l1.8,1.8l-0.7,0.7c-0.2,0.2-0.3,0.5-0.3,0.8l-1.5,1.5l0,0l1,1l0,0
				l1.5-1.5c0.3,0,0.6-0.1,0.8-0.3l0.7-0.7l1.8,1.8l-0.7,0.7c-0.2,0.2-0.3,0.5-0.3,0.8l-1.5,1.5l0,0l1,1l0,0l1.5-1.5
				c0.3,0,0.6-0.1,0.8-0.3l0.7-0.7l1.8,1.8l-0.7,0.7c-0.2,0.2-0.3,0.5-0.3,0.8l-1.5,1.5l1,1l1.5-1.5c0.3,0,0.6-0.1,0.8-0.3l18.3-18
				c0.2-0.2,0.3-0.5,0.3-0.8l1.5-1.5l-1-1l-1.5,1.5c-0.3,0-0.6,0.1-0.8,0.3l-0.7,0.7l-1.8-1.8l0.7-0.7c0.2-0.2,0.3-0.5,0.3-0.8
				l1.5-1.5l0,0l-1-1l0,0l-1.5,1.5c-0.3,0-0.6,0.1-0.8,0.3l-0.7,0.7l-1.8-1.8l0.7-0.7c0.2-0.2,0.3-0.5,0.3-0.8l1.5-1.5l0,0l-1-1l0,0
				l-1.5,1.5c-0.3,0-0.6,0.1-0.8,0.3l-0.7,0.7l-1.8-1.8l0.7-0.7c0.2-0.2,0.3-0.5,0.3-0.8l1.5-1.5l0,0l-1-1l0,0l-1.5,1.5
				c-0.3,0-0.6,0.1-0.8,0.3l-0.7,0.7l-1.8-1.8l0.7-0.7c0.2-0.2,0.3-0.5,0.3-0.8l1.5-1.5l-1-1l-1.5,1.5c-0.3,0-0.6,0.1-0.8,0.3
				l-18.1,18.1c-0.2,0.2-0.3,0.5-0.3,0.8l-1.5,1.5l1,1L-1030.4,2446.2z"/>
			<path id="XMLID_3250_" class="st6" d="M-714.2,2600.7h-2.1v1.4h2.1c0.2,0.2,0.5,0.4,0.8,0.4h1v2.5h-1c-0.3,0-0.6,0.1-0.8,0.4
				h-2.1l0,0v1.4l0,0h2.1c0.2,0.2,0.5,0.4,0.8,0.4h1v2.5h-1c-0.3,0-0.6,0.1-0.8,0.4h-2.1l0,0v1.5l0,0h2.1c0.2,0.2,0.5,0.4,0.8,0.4h1
				v2.5h-1c-0.3,0-0.6,0.1-0.8,0.4h-2.1l0,0v1.4l0,0h2.1c0.2,0.2,0.5,0.4,0.8,0.4h1v2.5h-1c-0.3,0-0.6,0.1-0.8,0.4h-2.1v1.5h2.1
				c0.2,0.2,0.5,0.4,0.8,0.4h25.6c0.3,0,0.6-0.1,0.8-0.4h2.1v-1.5h-2.1c-0.2-0.2-0.5-0.4-0.8-0.4h-1v-2.5h1c0.3,0,0.6-0.1,0.8-0.4
				h2.1l0,0v-1.4l0,0h-2.1c-0.2-0.2-0.5-0.4-0.8-0.4h-1v-2.5h1c0.3,0,0.6-0.1,0.8-0.4h2.1l0,0v-1.5l0,0h-2.1
				c-0.2-0.2-0.5-0.4-0.8-0.4h-1v-2.5h1c0.3,0,0.6-0.1,0.8-0.4h2.1l0,0v-1.4l0,0h-2.1c-0.2-0.2-0.5-0.4-0.8-0.4h-1v-2.5h1
				c0.3,0,0.6-0.1,0.8-0.4h2.1v-1.4h-2.1c-0.2-0.2-0.5-0.4-0.8-0.4h-25.6C-713.8,2600.3-714,2600.5-714.2,2600.7z"/>
			<path id="XMLID_3251_" class="st6" d="M-836.5,2605.5c0.3,0,0.6-0.1,0.8-0.4h2.1v-1.5h-2.1c-0.2-0.2-0.5-0.4-0.8-0.4h-25.6
				c-0.3,0-0.6,0.1-0.8,0.4h-2.1v1.5h2.1c0.2,0.2,0.5,0.4,0.8,0.4h1v2.5h-1c-0.3,0-0.6,0.1-0.8,0.4h-2.1l0,0v1.5l0,0h2.1
				c0.2,0.2,0.5,0.4,0.8,0.4h1v2.5h-1c-0.3,0-0.6,0.1-0.8,0.4h-2.1l0,0v1.4l0,0h2.1c0.2,0.2,0.5,0.4,0.8,0.4h1v2.5h-1
				c-0.3,0-0.6,0.1-0.8,0.4h-2.1v0.1l0,0v1.4v0.1l0,0h2.1c0.2,0.2,0.5,0.4,0.8,0.4h1v2.5h-1c-0.3,0-0.6,0.1-0.8,0.4h-2.1l0,0v0.1
				v1.4l0,0v0.1h2.1c0.2,0.2,0.5,0.4,0.8,0.4h1v2.5h-1c-0.3,0-0.6,0.1-0.8,0.4h-2.1l0,0v1.4l0,0h2.1c0.2,0.2,0.5,0.4,0.8,0.4h1v2.5
				h-1c-0.3,0-0.6,0.1-0.8,0.4h-2.1l0,0v1.5l0,0h2.1c0.2,0.2,0.5,0.4,0.8,0.4h1v2.5h-1c-0.3,0-0.6,0.1-0.8,0.4h-2.1v1.5h2.1
				c0.2,0.2,0.5,0.4,0.8,0.4h25.6c0.3,0,0.6-0.1,0.8-0.4h2.1v-1.5h-2.1c-0.2-0.2-0.5-0.4-0.8-0.4h-1v-2.5h1c0.3,0,0.6-0.1,0.8-0.4
				h2.1l0,0v-1.5l0,0h-2.1c-0.2-0.2-0.5-0.4-0.8-0.4h-1v-2.5h1c0.3,0,0.6-0.1,0.8-0.4h2.1l0,0v-1.4l0,0h-2.1
				c-0.2-0.2-0.5-0.4-0.8-0.4h-1v-2.5h1c0.3,0,0.6-0.1,0.8-0.4h2.1v-0.1l0,0v-1.4v-0.1l0,0h-2.1c-0.2-0.2-0.5-0.4-0.8-0.4h-1v-2.5h1
				c0.3,0,0.6-0.1,0.8-0.4h2.1l0,0v-0.1v-1.4l0,0v-0.1h-2.1c-0.2-0.2-0.5-0.4-0.8-0.4h-1v-2.5h1c0.3,0,0.6-0.1,0.8-0.4h2.1l0,0v-1.4
				l0,0h-2.1c-0.2-0.2-0.5-0.4-0.8-0.4h-1v-2.5h1c0.3,0,0.6-0.1,0.8-0.4h2.1l0,0v-1.5l0,0h-2.1c-0.2-0.2-0.5-0.4-0.8-0.4h-1v-2.5
				H-836.5z"/>
			<path id="XMLID_3252_" class="st6" d="M-1015,2557l-0.9,0.5l-8.3,8.6l-0.7,0.7c-0.2,0.2-0.3,0.5-0.3,0.8l-1.5,1.5l1,1l1.5-1.5
				c0.3,0,0.6-0.1,0.8-0.3l0.7-0.7l1.8,1.8l-0.7,0.7c-0.2,0.2-0.3,0.5-0.3,0.8l-1.5,1.5l1,1l1.5-1.5c0.3,0,0.6-0.1,0.8-0.3l0.7-0.7
				l1.7,1.7l-0.7,0.7c-0.2,0.2-0.3,0.5-0.3,0.8l-1.5,1.5l1.1,1.1l1.5-1.5c0.3,0,0.6-0.1,0.8-0.3l0.7-0.7l1.7,1.7l-0.7,0.7
				c-0.2,0.2-0.3,0.5-0.3,0.8l-1.5,1.5l1.1,1.1l1.5-1.5c0.3,0,0.6-0.1,0.8-0.3l0.7-0.7l1.7,1.7l-0.7,0.7c-0.2,0.2-0.3,0.5-0.3,0.8
				l-1.5,1.5l1,1l1.5-1.5c0.3,0,0.6-0.1,0.8-0.3l0.7-0.7l1.8,1.8l-0.7,0.7c-0.2,0.2-0.3,0.5-0.3,0.8l-1.5,1.5l1,1l1.5-1.5
				c0.3,0,0.6-0.1,0.8-0.3l0.7-0.7l8.5-8.5l0.7-0.7c0.2-0.2,0.3-0.5,0.3-0.8l1.5-1.5l-1-1l-1.5,1.5c-0.3,0-0.6,0.1-0.8,0.3l-0.7,0.7
				l-1.8-1.8l0.7-0.7c0.2-0.2,0.3-0.5,0.3-0.8l1.5-1.5l-1-1l-1.5,1.5c-0.3,0-0.6,0.1-0.8,0.3l-0.7,0.7l-1.7-1.7l0.7-0.7
				c0.2-0.2,0.3-0.5,0.3-0.8l1.5-1.5l-1.1-1.1l-1.5,1.5c-0.3,0-0.6,0.1-0.8,0.3l-0.7,0.7l-1.7-1.7l0.7-0.7c0.2-0.2,0.3-0.5,0.3-0.8
				l1.5-1.5l-1.1-1.1l-1.5,1.5c-0.3,0-0.6,0.1-0.8,0.3l-0.7,0.7l-1.7-1.7l0.7-0.7c0.2-0.2,0.3-0.5,0.3-0.8l1.5-1.5l-1-1l-1.5,1.5
				c-0.3,0-0.6,0.1-0.8,0.3l-0.7,0.7l-1.8-1.8l0.7-0.7c0.2-0.2,0.3-0.5,0.3-0.8l1.5-1.5l-1-1l-1.5,1.5
				C-1014.4,2556.7-1014.7,2556.8-1015,2557z"/>
		</g>
	</g>
</g>
<g id="XMLID_3591_">
	<g id="XMLID_3602_">
		<path id="XMLID_3612_" class="st3" d="M-912.4,2578.5c-15.3,0-17.7-2.8-18.7-3.9c-4.3-4.8-4.7-20.4-3-28.6c1.2-5.7,3.6-9.4,7.1-11
			c4-1.8,7.2-2.9,9.7-3.8c2.8-1,4.7-1.6,6.2-2.7l1-0.7c9.6-6.8,20.3-13.8,27.1-14.5c0.5,0,46.7-4.1,57,0.8c3,1.4,6.9,3.8,11.3,6.5
			c6.9,4.2,15.5,9.5,21,11c1.4,0.4,3.8,0.7,6.6,1c13,1.6,39.9,4.9,39.2,32.6c0,0.1,0,0.2,0,0.4c-1.1,11.2-14,12.2-25.9,12.2
			c-2.7,0-4.8-2.2-4.8-4.8c0-2.7,2.2-4.8,4.8-4.8c10.4,0,15.8-1.1,16.2-3.4c0.3-17.2-14.3-20.5-30.7-22.5c-3.1-0.4-5.9-0.7-7.9-1.3
			c-6.8-1.8-15.7-7.3-23.5-12c-4-2.5-7.8-4.8-10.4-6c-5.4-2.5-39.1-1.3-51.8,0.1c-2.4,0.3-8.2,2.7-22.5,12.8l-1.1,0.8
			c-2.6,1.8-5.4,2.8-8.6,3.9c-2.5,0.9-5.3,1.8-8.9,3.5c-3,2.2-3.1,19-1,23.9c2.3,0.6,8.6,1.1,14.5,0.9c2.6-0.1,4.9,2.1,4.9,4.7
			c0.1,2.7-2.1,4.9-4.7,4.9C-910.3,2578.4-911.4,2578.5-912.4,2578.5z"/>
		<path id="XMLID_3609_" class="st3" d="M-788,2591.8c-10.3,0-18.6-8.4-18.6-18.6s8.4-18.6,18.6-18.6s18.6,8.4,18.6,18.6
			S-777.7,2591.8-788,2591.8z M-788,2564.2c-4.9,0-9,4-9,9s4,9,9,9s9-4,9-9S-783,2564.2-788,2564.2z"/>
		<path id="XMLID_3606_" class="st3" d="M-892,2591.8c-10.3,0-18.6-8.4-18.6-18.6s8.4-18.6,18.6-18.6s18.6,8.4,18.6,18.6
			S-881.7,2591.8-892,2591.8z M-892,2564.2c-4.9,0-9,4-9,9s4,9,9,9s9-4,9-9S-887,2564.2-892,2564.2z"/>
		<path id="XMLID_3605_" class="st3" d="M-805.7,2559.4L-805.7,2559.4c-9.2-0.1-55.4-0.8-66.7-8c-12.3-7.8-15.1-20.3-15.2-20.9
			c-0.6-2.6,1.1-5.2,3.7-5.7c2.6-0.6,5.2,1.1,5.7,3.7c0.1,0.2,2.2,9.2,10.9,14.7c7,4.4,41.5,6.3,61.6,6.5c2.7,0,4.8,2.2,4.8,4.9
			C-800.9,2557.3-803.1,2559.4-805.7,2559.4z"/>
		<path id="XMLID_3604_" class="st3" d="M-801.8,2577.7h-76.6c-2.7,0-4.8-2.2-4.8-4.8c0-2.7,2.2-4.8,4.8-4.8h76.6
			c2.7,0,4.8,2.2,4.8,4.8C-796.9,2575.5-799.1,2577.7-801.8,2577.7z"/>
		<path id="XMLID_3603_" class="st3" d="M-769.3,2577.8c-0.9,0-1.8,0-2.7-0.1c-2.7-0.3-4.6-2.6-4.3-5.3s2.7-4.6,5.3-4.3
			c4.4,0.4,9.9-1,12.5-3.3c0.5-0.5,1.1-1.2,1.1-1.8c0-0.1,0-0.1,0-0.2c0.7-15.3-14-18.4-30.4-20.4c-3.3-0.4-6.1-0.8-8.3-1.3
			c-2.6-0.7-4.1-3.4-3.4-5.9c0.7-2.6,3.3-4.1,5.9-3.4c1.5,0.4,4.1,0.7,6.9,1.1c13,1.6,39.9,4.9,38.9,30.3c0,3.3-1.5,6.4-4.3,8.9
			C-756.1,2575.6-762.8,2577.8-769.3,2577.8z"/>
	</g>
	<g id="XMLID_3599_">
		<path id="XMLID_3601_" class="st3" d="M-935,2622c-1.5,0-3-0.7-3.9-2c-28.7-40.9-28.7-95.7,0-136.6c1.5-2.1,4.5-2.7,6.6-1.2
			c2.1,1.5,2.7,4.4,1.2,6.6c-26.4,37.6-26.4,88.1,0,125.7c1.5,2.1,1,5.1-1.2,6.6C-933.1,2621.8-934.1,2622-935,2622z"/>
		<path id="XMLID_3600_" class="st3" d="M-841.4,2670.8c-23.9,0-47.9-7.2-68.3-21.5c-2.1-1.5-2.7-4.4-1.2-6.6
			c1.5-2.1,4.5-2.7,6.6-1.2c37.6,26.4,88.1,26.4,125.7,0c2.1-1.5,5.1-1,6.6,1.2c1.5,2.1,1,5.1-1.2,6.6
			C-793.5,2663.6-817.4,2670.8-841.4,2670.8z"/>
	</g>
	<g id="XMLID_3596_">
		<path id="XMLID_3598_" class="st3" d="M-775.8,2462.8c-0.9,0-1.9-0.3-2.7-0.9c-37.6-26.4-88.1-26.4-125.7,0
			c-2.1,1.5-5.1,1-6.6-1.2c-1.5-2.1-1-5.1,1.2-6.6c40.8-28.7,95.7-28.7,136.6,0c2.1,1.5,2.7,4.4,1.2,6.6
			C-772.8,2462.1-774.3,2462.8-775.8,2462.8z"/>
		<path id="XMLID_3597_" class="st3" d="M-747.7,2622c-0.9,0-1.9-0.3-2.7-0.9c-2.1-1.5-2.7-4.4-1.2-6.6c26.4-37.6,26.4-88.1,0-125.7
			c-1.5-2.1-1-5.1,1.2-6.6c2.1-1.5,5.1-1,6.6,1.2c28.7,40.9,28.7,95.7,0,136.6C-744.7,2621.3-746.2,2622-747.7,2622z"/>
	</g>
	<circle id="XMLID_3595_" class="st3" cx="-751.8" cy="2622.9" r="10.6"/>
	<circle id="XMLID_3594_" class="st3" cx="-930.9" cy="2480.5" r="10.6"/>
	<circle id="XMLID_3593_" class="st3" cx="-770.2" cy="2462.2" r="10.6"/>
	<circle id="XMLID_3592_" class="st3" cx="-912.6" cy="2641.3" r="10.6"/>
</g>
</svg>
