<?xml version="1.0" encoding="utf-8"?>
<!-- Generator: Adobe Illustrator 21.1.0, SVG Export Plug-In . SVG Version: 6.00 Build 0)  -->
<svg version="1.1" id="Ebene_1" xmlns="http://www.w3.org/2000/svg" xmlns:xlink="http://www.w3.org/1999/xlink" x="0px" y="0px"
	 viewBox="0 0 1600 482.3" style="enable-background:new 0 0 1600 482.3;" xml:space="preserve">
<style type="text/css">
	.st0{fill:#1F1F2E;}
	.st1{opacity:0.2;}
	.st2{fill:none;stroke:#9CB8E2;stroke-width:0.5;stroke-linecap:round;stroke-miterlimit:10;}
	.st3{fill:none;stroke:#FFFFFF;stroke-width:8;stroke-miterlimit:10;}
	.st4{fill:#FFFFFF;}
	.st5{fill:#3EAD54;}
</style>
<rect x="-2.5" y="-3.4" class="st0" width="1608.9" height="491.1"/>
<g class="st1">
	<circle class="st2" cx="93.5" cy="170.8" r="134.3"/>
	<g>
		<path class="st2" d="M76.1,227c0-2.4,0.4-4.6,1.3-6.7c1-2,2.1-3.9,3.7-5.3c1.5-1.5,3.3-2.7,5.6-3.6c2.3-0.8,4.4-1.3,7-1.3
			c2.5,0,4.8,0.4,6.9,1.3c2.1,1,4,2.1,5.6,3.6c1.7,1.5,2.9,3.3,3.7,5.3c1,2,1.3,4.3,1.3,6.7s-0.4,4.6-1.3,6.8c-1,2-2.1,3.9-3.7,5.5
			c-1.7,1.5-3.4,2.7-5.6,3.6c-2.1,0.8-4.4,1.3-6.9,1.3c-2.6,0-4.9-0.4-7-1.3c-2.1-1-4-2-5.6-3.6s-2.7-3.3-3.7-5.5
			C76.5,231.7,76.1,229.4,76.1,227z M108.4,97.6v56.9c0,6.2-0.4,12.2-1.1,18.2c-0.7,6.1-1.8,12.1-2.9,18.3H83.5
			c-1.2-6.3-2.1-12.4-2.9-18.3c-0.7-6.1-1.1-12.1-1.1-18.2V97.6H108.4z"/>
	</g>
	<path class="st2" d="M386.9-37.1c-66.9,0-126.4,31.6-164.5,80.5c32.5,32.8,52.4,77.7,52.4,127.5c0,49.9-20.3,95.2-53,128
		c38.2,49.3,97.8,81.1,165,81.1c115.2,0,208.6-93.4,208.6-208.6S502.1-37.1,386.9-37.1z M404.5,268.7c-1.3,3.2-3.3,5.9-5.7,8.3
		c-2.5,2.4-5.2,4.2-8.6,5.5c-3.3,1.3-6.8,1.9-10.5,1.9c-3.9,0-7.4-0.6-10.7-1.9c-3.3-1.3-6.1-3.2-8.4-5.5c-2.4-2.4-4.3-5.1-5.6-8.3
		c-1.3-3.2-2-6.7-2-10.2c0-3.7,0.7-7,2-10.1c1.3-3.2,3.3-5.8,5.6-8.2c2.4-2.4,5.2-4.2,8.4-5.6c3.3-1.3,6.8-2,10.7-2
		c3.8,0,7.3,0.7,10.5,2c3.3,1.3,6.1,3.2,8.6,5.6c2.5,2.4,4.3,5,5.7,8.2c1.3,3.2,2,6.5,2,10.1C406.5,262.1,405.9,265.5,404.5,268.7z
		 M445.6,132.2c-2.1,5.6-4.9,10.6-8.1,14.6c-3.3,4.2-6.9,7.8-10.8,10.8c-3.9,3.1-7.6,5.8-11.1,8.4s-6.5,5.1-9.2,7.7
		c-2.6,2.6-4.2,5.3-4.9,8.6l-4.3,21.3H365l-3.3-24.5c-0.8-4.9-0.4-9.3,1.5-13.1c1.9-3.7,4.3-7,7.5-10.1s6.8-5.8,10.8-8.6
		c4-2.6,7.7-5.6,11.1-8.7c3.4-3.1,6.3-6.5,8.7-10.3c2.4-3.8,3.6-8.3,3.6-13.7c0-6.1-2-10.9-6.1-14.5c-4-3.6-9.5-5.5-16.5-5.5
		c-5.3,0-9.9,0.5-13.4,1.7c-3.6,1.1-6.7,2.4-9.3,3.7c-2.6,1.3-4.9,2.6-6.8,3.7c-1.9,1.1-3.9,1.7-5.7,1.7c-4.4,0-7.6-1.9-9.7-5.6
		l-12.5-19.1c3.8-3.2,7.8-6.1,12.2-8.8c4.4-2.7,9.2-5.1,14.3-7.1c5-2,10.6-3.7,16.3-4.9c5.8-1.1,12.1-1.8,19-1.8
		c9.5,0,18.2,1.2,25.7,3.8c7.7,2.6,14.1,6.2,19.6,10.8c5.3,4.8,9.5,10.3,12.4,17c2.9,6.7,4.3,14,4.3,22.1
		C448.8,119.9,447.8,126.6,445.6,132.2z"/>
</g>
<g>
	<circle class="st3" cx="1336.6" cy="243.7" r="46.5"/>
	<g>
		<path class="st4" d="M1330.5,263.1c0-0.8,0.2-1.6,0.5-2.3c0.3-0.7,0.7-1.3,1.3-1.9c0.5-0.5,1.2-0.9,1.9-1.3
			c0.7-0.3,1.5-0.5,2.4-0.5c0.8,0,1.6,0.2,2.4,0.5c0.7,0.3,1.4,0.7,1.9,1.3c0.6,0.5,1,1.1,1.3,1.9c0.3,0.7,0.5,1.5,0.5,2.3
			s-0.2,1.6-0.5,2.3c-0.3,0.7-0.7,1.3-1.3,1.9c-0.6,0.5-1.2,0.9-1.9,1.2c-0.7,0.3-1.5,0.4-2.4,0.4s-1.7-0.1-2.4-0.4
			c-0.7-0.3-1.4-0.7-1.9-1.2s-1-1.2-1.3-1.9S1330.5,263.9,1330.5,263.1z M1341.7,218.4v19.7c0,2.1-0.1,4.2-0.4,6.3
			c-0.3,2.1-0.6,4.2-1,6.4h-7.2c-0.4-2.2-0.7-4.3-1-6.4s-0.4-4.2-0.4-6.3v-19.7H1341.7z"/>
	</g>
	<path class="st5" d="M1438,171.8c-23.1,0-43.7,10.9-56.9,27.8c11.2,11.3,18.2,26.9,18.2,44.1c0,17.3-7,32.9-18.3,44.3
		c13.2,17.1,33.8,28,57.1,28c39.8,0,72.1-32.3,72.1-72.1S1477.8,171.8,1438,171.8z M1444.1,277.5c-0.5,1.1-1.1,2.1-2,2.9
		c-0.8,0.8-1.8,1.4-2.9,1.9s-2.3,0.7-3.6,0.7c-1.3,0-2.6-0.2-3.7-0.7s-2.1-1.1-2.9-1.9s-1.5-1.8-1.9-2.9c-0.5-1.1-0.7-2.3-0.7-3.5
		c0-1.3,0.2-2.4,0.7-3.5s1.1-2,1.9-2.8s1.8-1.4,2.9-1.9s2.3-0.7,3.7-0.7c1.3,0,2.5,0.2,3.6,0.7s2.1,1.1,2.9,1.9s1.5,1.8,2,2.8
		c0.5,1.1,0.7,2.3,0.7,3.5C1444.8,275.2,1444.6,276.4,1444.1,277.5z M1458.3,230.3c-0.7,1.9-1.7,3.6-2.8,5.1
		c-1.1,1.4-2.4,2.7-3.7,3.7c-1.3,1.1-2.6,2-3.8,2.9c-1.2,0.9-2.3,1.8-3.2,2.7c-0.9,0.9-1.5,1.9-1.7,2.9l-1.5,7.4h-11.1l-1.2-8.5
		c-0.3-1.7-0.1-3.2,0.5-4.5s1.5-2.4,2.6-3.5c1.1-1,2.3-2,3.7-2.9c1.4-0.9,2.6-1.9,3.8-3c1.2-1.1,2.2-2.3,3-3.6
		c0.8-1.3,1.2-2.9,1.2-4.7c0-2.1-0.7-3.8-2.1-5s-3.3-1.9-5.7-1.9c-1.9,0-3.4,0.2-4.7,0.6c-1.2,0.4-2.3,0.8-3.2,1.3
		c-0.9,0.5-1.7,0.9-2.3,1.3c-0.7,0.4-1.3,0.6-2,0.6c-1.5,0-2.6-0.6-3.4-1.9l-4.3-6.6c1.3-1.1,2.7-2.1,4.2-3s3.2-1.8,4.9-2.5
		c1.8-0.7,3.6-1.3,5.7-1.7c2-0.4,4.2-0.6,6.5-0.6c3.3,0,6.3,0.4,8.9,1.3c2.6,0.9,4.9,2.1,6.8,3.8c1.9,1.6,3.3,3.6,4.3,5.9
		c1,2.3,1.5,4.8,1.5,7.6C1459.4,226.1,1459.1,228.4,1458.3,230.3z"/>
</g>
</svg>
